<?xml version="1.0" encoding="utf-8"?>
<!-- Generator: Adobe Illustrator 25.4.1, SVG Export Plug-In . SVG Version: 6.00 Build 0)  -->
<svg version="1.1" id="Layer_1" xmlns="http://www.w3.org/2000/svg" xmlns:xlink="http://www.w3.org/1999/xlink" x="0px" y="0px"
	 viewBox="0 0 127.6 127.6" style="enable-background:new 0 0 127.6 127.6;" xml:space="preserve">
<style type="text/css">
	.st0{fill:#0068B0;}
</style>
<g id="Layer_2_00000171702447800942755960000013881952457096723886_">
	
		<image style="overflow:visible;opacity:0.4;" width="121" height="117" xlink:href="F3B7934089599287.png"  transform="matrix(1 0 0 1 2.049 10.7662)">
	</image>
	<g>
		<g>
			<g id="Layer_1-2_00000070807130659545623650000010783227824368222606_">
				<path class="st0" d="M11.5,112.9c-3.2,1.1-6.1-0.6-6.1-4V93.2c0-3,0.9-4.4,3.2-5.1l69.3-22c1.1-0.4,1.3-0.9,1.3-2.3
					s-0.2-1.9-1.3-2.3l-69.3-22c-2.3-0.8-3.2-2.1-3.2-5.1V18.6c0-3.4,2.8-5.1,6.1-4l85.8,28.5c7.8,2.7,10.6,6.1,10.6,13.1v15.2
					c0,7-2.8,10.4-10.6,13.1L11.5,112.9z"/>
			</g>
		</g>
	</g>
</g>
</svg>
