<svg id="Layer_1" data-name="Layer 1" xmlns="http://www.w3.org/2000/svg" width="200" height="200" viewBox="0 0 200 200"><defs><style>.cls-1{fill:#fff;}.cls-2{fill:#46b767;}</style></defs><path class="cls-1" d="M50.0088,92.34a14.422,14.422,0,1,1,0-28.844A14.2838,14.2838,0,0,1,63.3125,72.4L52.6256,76.7486a2.8308,2.8308,0,0,0-2.6168-1.7154,2.8844,2.8844,0,1,0,0,5.7688,2.537,2.537,0,0,0,1.5577-.4592L58.49,89.5707A14.0012,14.0012,0,0,1,50.0088,92.34Z"/><path class="cls-1" d="M159.6161,92.34a14.0015,14.0015,0,0,1-8.4814-2.7689l6.9237-9.2279a2.5366,2.5366,0,0,0,1.5577.4592,2.8844,2.8844,0,0,0,0-5.7688,2.8306,2.8306,0,0,0-2.6168,1.7154L146.3123,72.4a14.2838,14.2838,0,0,1,13.3038-8.9039,14.422,14.422,0,0,1,0,28.844Z"/><path class="cls-2" d="M156.7317,98.1084H52.8932a5.7693,5.7693,0,0,1-5.5463-7.3547L58.8845,50.3721a5.7683,5.7683,0,0,1,5.5463-4.183H145.194a5.7683,5.7683,0,0,1,5.5463,4.183l11.5376,40.3816a5.7693,5.7693,0,0,1-5.5462,7.3547ZM60.5408,86.5708H149.084l-8.2419-28.844H68.7827Z"/><path class="cls-1" d="M174.0381,150.0276H35.5867v-46.15A17.3254,17.3254,0,0,1,52.8932,86.5708H156.7317a17.3253,17.3253,0,0,1,17.3064,17.3064ZM47.1244,138.49H162.5005V103.8772a5.7763,5.7763,0,0,0-5.7688-5.7688H52.8932a5.7763,5.7763,0,0,0-5.7688,5.7688Z"/><path class="cls-1" d="M70.2,173.1029H41.3556a5.7693,5.7693,0,0,1-5.7689-5.7689V144.2588a5.7692,5.7692,0,0,1,5.7689-5.7688H70.2a5.7691,5.7691,0,0,1,5.7688,5.7688V167.334A5.7692,5.7692,0,0,1,70.2,173.1029ZM47.1244,161.5652H64.4308V150.0276H47.1244Z"/><path class="cls-1" d="M168.2693,173.1029H139.4252a5.7692,5.7692,0,0,1-5.7688-5.7689V144.2588a5.7691,5.7691,0,0,1,5.7688-5.7688h28.8441a5.7691,5.7691,0,0,1,5.7688,5.7688V167.334A5.7692,5.7692,0,0,1,168.2693,173.1029ZM145.194,161.5652h17.3065V150.0276H145.194Z"/><path class="cls-2" d="M134.3635,133.0959c-3.6055,0-7.1181-.5465-9.6194-2.8816a8.3129,8.3129,0,0,1-2.6253-6.1463c0-7.9265,12.2644-20.1908,20.1908-20.1908a14.422,14.422,0,1,1,0,28.844c-.876,0-1.9351.0761-3.0646.1549C137.6563,132.9832,136,133.0959,134.3635,133.0959Zm7.9461-17.6811c-1.5717.3634-5.0279,3.47-7.0814,6.1237,1.1577-.0338,2.3689-.1155,3.2393-.1746,1.4169-.0958,2.7436-.18,3.8421-.18a2.8844,2.8844,0,0,0,0-5.7688Z"/><path class="cls-2" d="M75.2614,133.0959c-1.6366,0-3.2929-.1127-4.8815-.22-1.13-.0788-2.1887-.1549-3.0647-.1549a14.422,14.422,0,0,1,0-28.844c7.9265,0,20.1908,12.2643,20.1908,20.1908a8.3129,8.3129,0,0,1-2.6253,6.1463C82.3794,132.5494,78.8669,133.0959,75.2614,133.0959ZM67.05,115.3951a2.9011,2.9011,0,0,0,.2648,5.7885c1.0985,0,2.4252.0845,3.8421.18.8845.0591,2.1267.1436,3.3041.1774C72.4108,118.964,68.8334,115.7782,67.05,115.3951Z"/></svg>