<svg id="Layer_1" data-name="Layer 1" xmlns="http://www.w3.org/2000/svg" width="200" height="200" viewBox="0 0 200 200"><defs><style>.cls-1{fill:#fff;}.cls-2{fill:#46b767;}</style></defs><path class="cls-1" d="M149.0257,85.0461a2.45,2.45,0,1,0,0-4.9006h-.4906V51.029h.4906a2.45,2.45,0,0,0,0-4.9006H85.6814V39.87a4.9054,4.9054,0,0,0-4.9006-4.9006h-8.94A4.9056,4.9056,0,0,0,66.9405,39.87v6.2586H60.8147a2.45,2.45,0,1,0,0,4.9006h.4894V80.1455h-.4894a2.45,2.45,0,0,0,0,4.9006h.4894V133.27h-.4894a2.45,2.45,0,1,0,0,4.9006h.4894v29.1153h-.4894a2.45,2.45,0,1,0,0,4.9006h88.211a2.45,2.45,0,1,0,0-4.9006h-.4906V138.17h.4906a2.45,2.45,0,1,0,0-4.9006h-.4906V85.0461ZM71.8411,39.87h8.94v6.2586h-8.94Zm71.7934,127.4159h-77.43V138.17h77.43Zm0-34.0159h-77.43V85.0461h77.43Zm0-53.1243h-77.43V51.029h77.43Z"/><path class="cls-1" d="M149.0276,176.9531H61.3038c-4.4694,0-7.71-3.24-7.71-7.2193a7.22,7.22,0,0,1,2.9424-5.81V141.4588a7.0323,7.0323,0,0,1-2.9424-5.7357,7.2109,7.2109,0,0,1,2.9424-5.81V88.3292a7.0238,7.0238,0,0,1-2.9424-5.7357,7.22,7.22,0,0,1,2.9424-5.81V54.3124a7.0238,7.0238,0,0,1-2.9424-5.7357,7.2244,7.2244,0,0,1,7.2193-7.2131h1.3594v-1.496a9.6776,9.6776,0,0,1,9.6713-9.665h8.9387a9.6722,9.6722,0,0,1,9.665,9.665v1.496h58.0894c4.4693,0,7.7034,3.2341,7.7034,7.2131a7.2144,7.2144,0,0,1-2.9361,5.81V76.864a7.0066,7.0066,0,0,1,2.9361,5.73,7.2146,7.2146,0,0,1-2.9361,5.81v41.5838a7.0263,7.0263,0,0,1,2.9361,5.7356,7.2028,7.2028,0,0,1-2.9361,5.804v22.4772a7.0066,7.0066,0,0,1,2.9361,5.73A7.2244,7.2244,0,0,1,149.0276,176.9531ZM70.975,162.5207h67.891V142.9362H70.975Zm0-34.0168h67.891V89.8128H70.975Zm0-53.1234h67.891V55.7959H70.975Z"/><path class="cls-2" d="M151.4733,91.017H58.3615a7.9455,7.9455,0,1,1,0-15.891h93.1118a7.9455,7.9455,0,1,1,0,15.891Z"/><path class="cls-2" d="M151.4733,144.2708H58.3615a7.9456,7.9456,0,1,1,0-15.8911h93.1118a7.9456,7.9456,0,1,1,0,15.8911Z"/></svg>