<svg id="Layer_1" data-name="Layer 1" xmlns="http://www.w3.org/2000/svg" width="200" height="200" viewBox="0 0 200 200"><defs><style>.cls-1{fill:#fff;}.cls-2{fill:#46b767;}</style></defs><path class="cls-1" d="M85.9486,184.401l-7.568-2.0914a82.0149,82.0149,0,0,1-35.37-20.378l-5.6274-5.5,6.2106-4.83A13.73,13.73,0,0,0,30.02,128.0263l-7.3133,2.99-1.9372-7.6585a82.704,82.704,0,0,1,0-40.7092l1.9372-7.6618,7.3133,2.99A13.73,13.73,0,0,0,43.5905,54.3972l-6.2073-4.83,5.6274-5.4967a82.0139,82.0139,0,0,1,35.37-20.378l7.568-2.0914L87.0145,29.38a13.7078,13.7078,0,0,0,27.1617-.0033l1.0659-7.7725,7.568,2.0881a82.0269,82.0269,0,0,1,35.3666,20.378l5.6241,5.4967-6.2073,4.83A13.7329,13.7329,0,0,0,171.1744,77.976l7.3133-2.99,1.9373,7.6652a82.784,82.784,0,0,1,0,40.7024l-1.9373,7.6619-7.3133-2.99a13.7317,13.7317,0,0,0-13.5809,23.5755l6.2073,4.83-5.6241,5.5A82.0269,82.0269,0,0,1,122.81,182.31l-7.568,2.0881-1.0659-7.7725a13.7084,13.7084,0,0,0-27.1617-.0034Zm14.6468-33.3489a27.5687,27.5687,0,0,1,24.896,15.927,68.3423,68.3423,0,0,0,18.0721-10.4236,27.445,27.445,0,0,1,24.8827-43.1525,68.789,68.789,0,0,0,0-20.8037,27.4438,27.4438,0,0,1-24.8827-43.1525,68.3454,68.3454,0,0,0-18.0721-10.4237,27.4242,27.4242,0,0,1-49.7988,0A68.436,68.436,0,0,0,57.6205,49.4468a27.4391,27.4391,0,0,1-24.876,43.1525,68.789,68.789,0,0,0,0,20.8037,27.4391,27.4391,0,0,1,24.876,43.1525,68.4329,68.4329,0,0,0,18.0721,10.4236A27.5713,27.5713,0,0,1,100.5954,151.0521Z"/><path class="cls-2" d="M100.5954,130.46a27.4568,27.4568,0,1,1,27.4567-27.4568A27.4861,27.4861,0,0,1,100.5954,130.46Zm0-41.1851a13.7284,13.7284,0,1,0,13.7283,13.7283A13.744,13.744,0,0,0,100.5954,89.2745Z"/></svg>