<svg id="Layer_1" data-name="Layer 1" xmlns="http://www.w3.org/2000/svg" width="200" height="200" viewBox="0 0 200 200"><defs><style>.cls-1{fill:#46b767;}.cls-2{fill:#fff;}</style></defs><path class="cls-1" d="M116.3181,195.5088H85.7656a7.6385,7.6385,0,0,1-7.6381-7.6381V142.0419a7.6385,7.6385,0,0,1,7.6381-7.6382h30.5525a7.6385,7.6385,0,0,1,7.6382,7.6382v45.8288A7.6385,7.6385,0,0,1,116.3181,195.5088ZM93.4037,180.2325H108.68V149.68H93.4037Z"/><path class="cls-1" d="M101.0419,111.4893a22.9144,22.9144,0,1,1,22.9144-22.9144A22.9394,22.9394,0,0,1,101.0419,111.4893Zm0-30.5525a7.6381,7.6381,0,1,0,7.6381,7.6381A7.6481,7.6481,0,0,0,101.0419,80.9368Z"/><path class="cls-2" d="M154.5088,195.5088H47.5749a7.6385,7.6385,0,0,1-7.6381-7.6381V119.1274H17.0224a7.6379,7.6379,0,0,1-5.6317-12.8L95.41,14.67a7.8844,7.8844,0,0,1,11.2633,0l84.02,91.6576a7.6379,7.6379,0,0,1-5.6316,12.8H162.147v68.7433A7.6385,7.6385,0,0,1,154.5088,195.5088ZM55.2131,180.2325h91.6576V111.4893a7.6385,7.6385,0,0,1,7.6381-7.6381h13.1877L101.0419,31.136,34.3872,103.8512H47.5749a7.6385,7.6385,0,0,1,7.6382,7.6381Z"/></svg>