<svg id="Layer_1" data-name="Layer 1" xmlns="http://www.w3.org/2000/svg" width="200" height="200" viewBox="0 0 200 200"><defs><style>.cls-1{fill:#fff;}.cls-2{fill:#46b767;}.cls-3{fill:#fbfbfb;}</style></defs><path class="cls-1" d="M32.6875,63.7586a5.8477,5.8477,0,0,1,0-10.99l65.5852-23.85a5.8612,5.8612,0,0,1,3.9965,0l65.5882,23.8505a5.8472,5.8472,0,0,1-3.9965,10.99l-63.59-23.1255L38.2734,63.18"/><path class="cls-1" d="M165.8513,67.0882a8.7946,8.7946,0,0,1-3.0055-.5348L100.27,43.8,39.2879,65.9778l-2.0347-5.5924L100.27,37.4631l64.61,23.4978a2.87,2.87,0,1,0,1.9591-5.3948L101.2529,31.7137a3.0135,3.0135,0,0,0-1.9708.0058L33.707,55.5661a2.87,2.87,0,0,0,0,5.3948l-2.0346,5.5925a8.82,8.82,0,0,1,0-16.58L97.2533,26.1212a8.8748,8.8748,0,0,1,6.0284-.0058l65.5926,23.8582a8.8229,8.8229,0,0,1-3.023,17.1146Z"/><path class="cls-2" d="M100.271,171.4355a5.8485,5.8485,0,0,1-1.9983-11.3444l65.5882-23.85a5.8472,5.8472,0,0,1,3.9965,10.99l-65.5882,23.8505A5.8326,5.8326,0,0,1,100.271,171.4355Z"/><path class="cls-2" d="M100.27,174.4093a8.8237,8.8237,0,0,1-3.0171-17.1147l65.5925-23.8523a8.8236,8.8236,0,1,1,6.0285,16.5856L103.2876,173.88A8.7943,8.7943,0,0,1,100.27,174.4093ZM165.8571,138.86a2.8862,2.8862,0,0,0-.9766.1744L99.2879,162.8871a2.876,2.876,0,0,0-1.7149,3.68,2.9435,2.9435,0,0,0,3.6915,1.7149L166.84,144.4354a2.8735,2.8735,0,0,0-.9825-5.575Z"/><path class="cls-1" d="M100.271,171.4355a5.8335,5.8335,0,0,1-1.9983-.354L32.6875,147.231a5.8472,5.8472,0,1,1,3.9964-10.99l65.5853,23.85a5.8485,5.8485,0,0,1-1.9982,11.3444Z"/><path class="cls-1" d="M100.27,174.4093a8.8126,8.8126,0,0,1-3.0055-.5233L31.6724,150.0279a8.8236,8.8236,0,0,1,6.0284-16.5856l65.5868,23.8523a8.8237,8.8237,0,0,1-3.0172,17.1147ZM34.6953,138.8662a2.8707,2.8707,0,0,0-.9883,5.5692l65.5809,23.8524a2.9965,2.9965,0,0,0,3.68-1.715,2.8686,2.8686,0,0,0-.0988-2.2033,2.8359,2.8359,0,0,0-1.6161-1.4824L35.6662,139.0348A2.8457,2.8457,0,0,0,34.6953,138.8662Z"/><path class="cls-2" d="M165.8591,147.5821a5.8466,5.8466,0,0,1-5.8463-5.8463V58.2634a5.8463,5.8463,0,1,1,11.6926,0v83.4724A5.8466,5.8466,0,0,1,165.8591,147.5821Z"/><path class="cls-2" d="M165.8571,150.5569a8.8324,8.8324,0,0,1-8.8189-8.8189V58.2635a8.8218,8.8218,0,1,1,17.6436,0V141.738A8.8337,8.8337,0,0,1,165.8571,150.5569Zm0-95.1652a2.873,2.873,0,0,0-2.866,2.8718V141.738a2.8689,2.8689,0,0,0,5.7378,0V58.2635A2.878,2.878,0,0,0,165.8571,55.3917Z"/><path class="cls-1" d="M34.6857,147.5821a5.8466,5.8466,0,0,1-5.8463-5.8463V58.2634a5.8463,5.8463,0,0,1,11.6926,0v83.4724A5.8466,5.8466,0,0,1,34.6857,147.5821Z"/><path class="cls-1" d="M34.6837,150.5569a8.8324,8.8324,0,0,1-8.8189-8.8189V58.2635a8.8218,8.8218,0,1,1,17.6436,0V141.738A8.8337,8.8337,0,0,1,34.6837,150.5569Zm0-95.1652a2.873,2.873,0,0,0-2.866,2.8718V141.738a2.8689,2.8689,0,0,0,5.7378,0V58.2635A2.878,2.878,0,0,0,34.6837,55.3917Z"/><path class="cls-3" d="M100.3253,114.3727a11.076,11.076,0,0,1,11.0461,11.2386,11.121,11.121,0,1,1-22.24-.3125A11.106,11.106,0,0,1,100.3253,114.3727Zm-.0534,14.74a3.6841,3.6841,0,0,0,3.6831-3.5957,3.7066,3.7066,0,0,0-7.4119-.13A3.6894,3.6894,0,0,0,100.2719,129.1131Z"/><path class="cls-3" d="M100.2471,111.9354h0a4.463,4.463,0,0,1-4.296-3.2555L84.8358,69.0733a4.4625,4.4625,0,0,1,4.2961-5.6739H111.374a4.4625,4.4625,0,0,1,4.2961,5.6739L104.5432,108.68A4.4631,4.4631,0,0,1,100.2471,111.9354ZM95.0209,72.3288l5.2262,18.6261,5.2379-18.6261Z"/></svg>