<svg id="Layer_1" data-name="Layer 1" xmlns="http://www.w3.org/2000/svg" width="200" height="200" viewBox="0 0 200 200"><defs><style>.cls-1{fill:#f9f9f9;}.cls-2{fill:#46b767;}</style></defs><path class="cls-1" d="M178.2838,86.0687a21.2579,21.2579,0,0,1-2.3715,3.1955c-3.4555,3.22-6.7412,6.7274-10.6,9.387-7.06,4.8653-15.0814,6.2409-23.554,4.8618-.2238-.0365-.4547-.03-.9113-.0577,2.3261,2.3366,4.4953,4.5149,6.6636,6.694,2.601,2.614,2.6226,5.0148-.0558,7.6074a105.5973,105.5973,0,0,1-9.179,8.55c-7.5244,5.7153-16.1494,7.4609-25.447,6.0669-.1885-.0282-.3752-.0684-.8215-.1509,1.7977,1.8358,3.4132,3.4866,5.03,5.1362.8026.8189,1.65,1.5984,2.4021,2.4611a4.1222,4.1222,0,0,1,.2966,5.4925c-5.5485,6.02-11.109,12.0977-19.3083,14.6023-12.6812,3.8735-24.0034,1.4178-33.8568-7.4994-1.1339-1.0262-2.0846-2.2547-3.2005-3.4773-4.3953,4.4153-8.5389,8.5883-12.6942,12.75q-8.826,8.8387-17.6739,17.6553c-2.7418,2.7156-6.8793,1.68-7.7644-1.8973-.47-1.8986.326-3.3673,1.6463-4.6845q14.35-14.3159,28.6782-28.6529a13.7666,13.7666,0,0,1,1.4409-1.1076c-1.7-1.7983-3.2341-3.2965-4.6275-4.9161a33.3842,33.3842,0,0,1,1.0872-44.7083c2.0235-2.1343,4.1253-4.1954,6.2207-6.26,2.3264-2.2925,4.7572-2.2924,7.0813-.0272,1.1426,1.1136,2.2429,2.2707,3.3892,3.38,1.1391,1.1025,2.3119,2.17,3.4613,3.2451-.1312-1.7707-.3524-3.6155-.3908-5.464a32.6011,32.6011,0,0,1,9.3378-23.988c1.9588-2.0584,3.9927-4.046,6.0147-6.0432,2.2216-2.1942,4.7642-2.2,6.9738-.0257,2.297,2.26,4.5759,4.5392,6.6961,6.6446,0-3.2566-.245-6.6363.05-9.968a31.3579,31.3579,0,0,1,8.6417-18.95c2.139-2.2983,4.3831-4.5022,6.6489-6.6766a14.2467,14.2467,0,0,1,2.353-1.5186h2.0944a39.204,39.204,0,0,1,3.3487,2.6341c4.3839,4.2564,8.8732,8.4406,11.3923,14.3544.3653-.4763.6128-.7807.8408-1.099a36.6751,36.6751,0,0,1,19.6794-14.24c2.4519-.7365,5.0129-1.11,7.524-1.6491h10.1726a6.8654,6.8654,0,0,1,3.2912,3.2912V41.1892a2.9782,2.9782,0,0,0-.2457.6769,36.378,36.378,0,0,1-11.293,22.9094c-1.6362,1.58-3.4806,2.9446-5.2314,4.41a30.8257,30.8257,0,0,1,4.4066,2.6621c3.33,2.8245,6.5468,5.788,9.7215,8.7883a28.4214,28.4214,0,0,1,2.642,3.3385ZM92.0309,67.5309c-14.4223,12.1294-11.9183,30.6.0856,39.8558C105.309,96.7541,105.3,77.9759,92.0309,67.5309Zm28.91-28.8273c-13.2726,10.6783-13.2522,29.632-.0374,39.8569C133.6529,68.43,134.6625,50.0594,120.9411,38.7036ZM109.6388,142.7569c-11.2215-13.5722-29.4375-12.935-39.9115.0333C80.8019,156.03,98.9991,156.0144,109.6388,142.7569Zm17.7547-57.6748c11.3921,13.8183,29.7914,12.6936,39.8646.0015C157.2233,72.4664,138.8613,71.2324,127.3935,85.0821ZM98.5651,113.9956c12.0971,14.357,30.564,11.9394,39.8573-.1254C127.48,100.6928,108.7633,100.72,98.5651,113.9956ZM63.2484,96.3694c-13.2891,10.818-13.3027,28.7945-.03,39.9128C76.2233,125.7576,76.7784,107.5492,63.2484,96.3694Zm76.6964-30.3161c17.0268.9812,30.53-14.2815,29.1669-29.2584C152.8488,35.931,139.0137,49.975,139.9448,66.0533ZM110.39,81.1218a35.4343,35.4343,0,0,1-.427,14.7549c2.6536-.2908,5.1024-.7124,7.5617-.7855,2.4307-.0723,4.8719.2074,7.158.325ZM81.0375,124.9751A35.3922,35.3922,0,0,1,95.8,124.3974L81.5682,110.1033A35.165,35.165,0,0,1,81.0375,124.9751Z"/><path class="cls-2" d="M28.9807,181.3966a4.8212,4.8212,0,0,1-3.415-8.2237L131.9465,66.2647a4.8207,4.8207,0,0,1,6.83,6.805L32.3957,179.9778A4.795,4.795,0,0,1,28.9807,181.3966Z"/></svg>