<svg xmlns="http://www.w3.org/2000/svg" width="317.287" height="313.5392" viewBox="0 0 317.287 313.5392"><defs><style>.cls-1{fill:none;stroke:#fff;stroke-miterlimit:10;}</style></defs><g id="Layer_2" data-name="Layer 2"><g id="Layer_1-2" data-name="Layer 1"><path class="cls-1" d="M.8114,145.5532C5.6385,120.8911,44.9545,89.554,79.02,64.4429,130.2356,26.6812,184.7755.0848,189.7148,1.19,112.8357-7.7818-6.1917,72.37.7941,145.7864a1.9789,1.9789,0,0,1,.0173-.2332"/><path class="cls-1" d="M15.0923,222.4625c-.9585-5.0515,2.66-18.5915,37.684-52.6142a1.3456,1.3456,0,0,0,.1554-.1381c51.5348-49.5919,140.6327-109.9,203.1515-138.2149C202.0441,11.2717,88.88,73.3069,34.5646,125.3944c-.0518.0345-.0949.0863-.1381.1209C24.9105,135.0658-.33,160.4273,2.105,179.01c2.5819,23.9022,13.0391,43.7545,13.3068,44.4367a7.7248,7.7248,0,0,1-.3195-.9845"/><path class="cls-1" d="M138.3562,312.8678c-26.5532-4.663,92.6815-107.629,178.1525-143.9054C280.8541,120.6139-18.6143,301.4262,139.47,313.0405c-.3454-.0518-.7944-.095-1.1139-.1727"/><path class="cls-1" d="M66.4371,191.05c-7.9184,8.35-32.7619,30.8276-34.2126,49.022-1.6752,21.0526,23.315,36.7082,34.748,45.6111C74.1052,215.6347,278.0165,109.0937,304,93.3c-47.3467-28.66-176.1924,38.9188-237.5627,97.75"/></g></g></svg>