<svg xmlns="http://www.w3.org/2000/svg" width="316.0086975097656" height="312.5404968261719" viewBox="0 0 316.0087 312.5405"><defs></defs><g id="Layer_2" data-name="Layer 2"><g id="Layer_1-2" data-name="Layer 1"><path class="cls-1 svg-elem-1" d="M.3114,145.0532C5.1385,120.3911,44.4545,89.054,78.52,63.9429,129.7356,26.1812,184.2755-.4152,189.2148.69,112.3357-8.2818-6.6917,71.87.2941,145.2864a1.9789,1.9789,0,0,1,.0173-.2332"></path><path class="cls-1 svg-elem-2" d="M14.5923,221.9625c-.9585-5.0515,2.66-18.5915,37.684-52.6142a1.3456,1.3456,0,0,0,.1554-.1381c51.5348-49.5919,140.6327-109.9,203.1515-138.2149C201.5441,10.7717,88.38,72.8069,34.0646,124.8944c-.0518.0345-.0949.0863-.1381.1209C24.4105,134.5658-.83,159.9273,1.605,178.51c2.5819,23.9022,13.0391,43.7545,13.3068,44.4367a7.7248,7.7248,0,0,1-.3195-.9845"></path><path class="cls-1 svg-elem-3" d="M137.8562,312.3678c-26.5532-4.663,92.6815-107.629,178.1525-143.9054C280.3541,120.1139-19.1143,300.9262,138.97,312.5405c-.3454-.0518-.7944-.095-1.1139-.1727"></path><path class="cls-2 svg-elem-4" d="M65.9371,190.55c-7.9184,8.35-32.7619,30.8276-34.2126,49.022-1.6752,21.0526,23.315,36.7082,34.748,45.6111C73.6052,215.1347,277.5165,108.5937,303.5,92.8c-47.3467-28.66-176.1924,38.9188-237.5627,97.75"></path></g></g></svg>