<svg xmlns="http://www.w3.org/2000/svg" width="302.0075" height="292.9529" viewBox="0 0 302.0075 292.9529"><defs><style>.cls-1{fill:#46b768;}</style></defs><g id="Layer_2" data-name="Layer 2"><g id="Layer_1-2" data-name="Layer 1"><path class="cls-1" d="M16.3707,292.1179C7.3387,294.9394,0,290.424,0,281.392v-40.08c0-8.4669,2.8221-11.8547,8.4676-14.1124l215.074-73.3848c3.3872-1.1288,3.9516-2.8227,3.9516-6.2093V145.347c0-3.3865-.5644-5.08-3.9516-6.2093L8.4676,65.7529C2.8221,63.4952,0,60.1074,0,51.6405v-40.08C0,2.5289,7.3387-1.9865,16.3707.835l256.8469,90.32c20.8867,7.3394,28.79,16.3714,28.79,35.5642v39.5145c0,19.1929-7.9032,28.2249-28.79,35.5642Z"/></g></g></svg>