<svg id="Layer_1" data-name="Layer 1" xmlns="http://www.w3.org/2000/svg" width="200" height="200" viewBox="0 0 200 200"><defs><style>.cls-1{fill:#fff;}.cls-2{fill:#46b767;}</style></defs><path class="cls-1" d="M108.8127,193.8127H20.9208a7.3224,7.3224,0,0,1-7.3243-7.3243V25.3532a7.3224,7.3224,0,0,1,7.3243-7.3243h87.8919a7.3224,7.3224,0,0,1,7.3243,7.3243V186.4884A7.3224,7.3224,0,0,1,108.8127,193.8127ZM28.2451,179.1641h73.2433V32.6776H28.2451Z"/><path class="cls-1" d="M182.056,193.8127H108.8127a7.3224,7.3224,0,0,1-7.3243-7.3243V69.2992a7.3223,7.3223,0,0,1,7.3243-7.3243H182.056a7.3223,7.3223,0,0,1,7.3243,7.3243V186.4884A7.3224,7.3224,0,0,1,182.056,193.8127Zm-65.919-14.6486h58.5946V76.6235H116.137Z"/><path class="cls-2" d="M50.2181,135.2181a7.3224,7.3224,0,0,1-7.3243-7.3243V54.6505a7.3243,7.3243,0,0,1,14.6486,0v73.2433A7.3224,7.3224,0,0,1,50.2181,135.2181Z"/><path class="cls-2" d="M79.5154,135.2181a7.3224,7.3224,0,0,1-7.3243-7.3243V54.6505a7.3243,7.3243,0,1,1,14.6486,0v73.2433A7.3224,7.3224,0,0,1,79.5154,135.2181Z"/><path class="cls-1" d="M160.083,193.8127H130.7857a7.3224,7.3224,0,0,1-7.3243-7.3243V157.1911a7.3223,7.3223,0,0,1,7.3243-7.3243H160.083a7.3223,7.3223,0,0,1,7.3243,7.3243v29.2973A7.3224,7.3224,0,0,1,160.083,193.8127ZM138.11,179.1641h14.6487V164.5154H138.11Z"/><path class="cls-1" d="M79.5154,193.8127H50.2181a7.3224,7.3224,0,0,1-7.3243-7.3243V157.1911a7.3223,7.3223,0,0,1,7.3243-7.3243H79.5154a7.3223,7.3223,0,0,1,7.3243,7.3243v29.2973A7.3224,7.3224,0,0,1,79.5154,193.8127Zm-21.973-14.6486H72.1911V164.5154H57.5424Z"/><path class="cls-2" d="M160.083,135.2181H130.7857a7.3243,7.3243,0,1,1,0-14.6486H160.083a7.3243,7.3243,0,1,1,0,14.6486Z"/><path class="cls-2" d="M160.083,105.9208H130.7857a7.3243,7.3243,0,0,1,0-14.6486H160.083a7.3243,7.3243,0,0,1,0,14.6486Z"/></svg>