<svg id="Layer_1" data-name="Layer 1" xmlns="http://www.w3.org/2000/svg" width="200" height="200" viewBox="0 0 200 200"><defs><style>.cls-1{fill:#fff;}.cls-2{fill:#46b767;}</style></defs><path class="cls-1" d="M100,185.2648a82.2637,82.2637,0,1,1,82.2637-82.2637A82.358,82.358,0,0,1,100,185.2648Zm0-150.8167a68.5531,68.5531,0,1,0,68.5531,68.553A68.6294,68.6294,0,0,0,100,34.4481Z"/><path class="cls-2" d="M100,109.8565c-12.8437,0-24.1208-7.9633-26.812-18.9325a20.8745,20.8745,0,0,1-.6092-5.0611C72.5788,72.6343,84.88,61.8693,100,61.8693s27.4212,10.765,27.4212,23.9936a20.861,20.861,0,0,1-.6192,5.0946,6.8552,6.8552,0,0,1-13.2989-3.3339,7.2347,7.2347,0,0,0,.2075-1.7607c0-5.5733-6.28-10.283-13.7106-10.283s-13.7106,4.71-13.7106,10.283a7.2347,7.2347,0,0,0,.2075,1.7607c1.195,4.8737,6.9959,8.5222,13.5031,8.5222a6.8554,6.8554,0,0,1,0,13.7107Z"/><path class="cls-2" d="M100,144.133c-15.12,0-27.4212-10.765-27.4212-23.9936a21.0556,21.0556,0,0,1,.6159-5.0913,6.856,6.856,0,1,1,13.3022,3.3273,7.3021,7.3021,0,0,0-.2075,1.764c0,5.5733,6.28,10.283,13.7106,10.283s13.7106-4.71,13.7106-10.283a7.3021,7.3021,0,0,0-.2075-1.764c-1.195-4.87-6.9959-8.5189-13.5031-8.5189a6.8554,6.8554,0,0,1,0-13.7107c12.8437,0,24.1174,7.9633,26.812,18.9325a20.9556,20.9556,0,0,1,.6092,5.0611C127.4212,133.368,115.12,144.133,100,144.133Z"/><path class="cls-2" d="M100,157.8436a6.8557,6.8557,0,0,1-6.8553-6.8553V137.2777a6.8553,6.8553,0,0,1,13.7106,0v13.7106A6.8557,6.8557,0,0,1,100,157.8436Z"/><path class="cls-2" d="M100,75.58a6.8557,6.8557,0,0,1-6.8553-6.8553V55.014a6.8553,6.8553,0,0,1,13.7106,0V68.7246A6.8557,6.8557,0,0,1,100,75.58Z"/><path class="cls-2" d="M120.5994,96.1391a6.9448,6.9448,0,0,1-4.867-1.9883,6.4694,6.4694,0,0,1-1.51-2.2627,7.3232,7.3232,0,0,1,0-5.2085,7.2237,7.2237,0,0,1,1.51-2.2628,6.7411,6.7411,0,0,1,2.1925-1.4393,6.847,6.847,0,1,1,2.6745,13.1616Z"/></svg>