<svg id="Layer_1" data-name="Layer 1" xmlns="http://www.w3.org/2000/svg" width="200" height="200" viewBox="0 0 200 200"><defs><style>.cls-1{fill:#46b767;}.cls-2{fill:#fff;}</style></defs><path class="cls-1" d="M39.779,95.9774a7.7782,7.7782,0,0,1-7.5432-9.6744c4.9056-19.4806,29.3271-38.5662,60.7754-47.4965,31.342-8.9049,61.2108-5.8117,76.0591,7.8975a7.7774,7.7774,0,0,1-3.1185,13.1879L41.9356,95.6737A7.8941,7.8941,0,0,1,39.779,95.9774Zm87.3485-46.6459a109.8267,109.8267,0,0,0-29.8688,4.44c-17.658,5.0119-31.2914,13.0562-39.8976,21.2625l84.3565-24.3354A73.5482,73.5482,0,0,0,127.1275,49.3315Z"/><path class="cls-2" d="M113.3929,190.5349a7.7768,7.7768,0,0,1-7.5786-6.0345L70.8375,32.2759a7.7825,7.7825,0,0,1,5.4573-9.2239l18.64-5.29a7.7972,7.7972,0,0,1,9.396,4.7334l55.3383,146.4533a7.7773,7.7773,0,0,1-5.1537,10.2313l-39.0015,11.0616A7.7723,7.7723,0,0,1,113.3929,190.5349ZM87.65,35.9968,119.1388,173.044l22.9889-6.5155-49.82-131.853Z"/></svg>