<svg id="Layer_1" data-name="Layer 1" xmlns="http://www.w3.org/2000/svg" width="200" height="200" viewBox="0 0 200 200"><defs><style>.cls-1{fill:#fbfbfb;}.cls-2{fill:#fff;}.cls-3{fill:#46b768;}</style></defs><path class="cls-1" d="M95.7154,174.9484c-1.6871-.219-3.3881-.3621-5.0592-.6684-20.4952-3.7567-35.5412-14.9227-44.7489-33.5892-7.3991-15-8.0026-30.454-1.7225-46.0349,1.9539-4.8477,4.5911-9.3458,9.0839-12.2831A16.0447,16.0447,0,0,1,59.06,80.1861c3.2048-.585,5.459,1.7846,5.1609,5.0388a54.8183,54.8183,0,0,0,.4963,16.0376,33.4392,33.4392,0,0,0,2.4538,7.29c1.0316,2.2262,3.05,3.131,5.5834,2.8954,1.139-.1059,1.6325-.6221,1.5626-1.6462a63.4189,63.4189,0,0,0-.681-7.56A140.7368,140.7368,0,0,1,71.13,71.09c.2731-8.1871,1.3831-16.2293,4.844-23.7721,5.39-11.748,14.6475-18.6006,27.1823-21.0718a80.8394,80.8394,0,0,1,11.0353-1.183c4.4838-.2546,6.5111,2.9879,4.5776,7.02a29.0078,29.0078,0,0,0-2.716,18.0587c1.2975,7.2017,5.1622,12.8859,10.7434,17.42,2.643,2.147,5.5678,3.9437,8.3264,5.9522,10.6475,7.7524,18.321,17.715,22.2516,30.37,2.1585,6.95,2.0692,14.0479.8529,21.151-2.8949,16.9056-11.63,30.1274-25.6612,39.7947a56.3309,56.3309,0,0,1-28.8329,9.8908,11.2787,11.2787,0,0,0-1.2826.2272Zm-40.71-81.5791-.2723-.15c-.0622.1347-.1142.2753-.1885.403-.2448.4211-.5217.8252-.744,1.2576-5.9683,11.61-6.4793,23.6644-2.5049,35.9065a49.8711,49.8711,0,0,0,18.83,25.6157c12.5166,8.97,26.4339,12.1158,41.3414,8.19,20.84-5.4872,33.5087-19.1978,37.9669-40.2874A35.5293,35.5293,0,0,0,147.71,102.758C143.4529,92.6356,136.4721,84.87,127.399,78.7905a65.9414,65.9414,0,0,1-9.6038-7.6094c-8.3556-8.2253-12.0373-18.2668-10.66-30.0077.2645-2.2553.7709-4.4822,1.2083-6.9642-1.521.2708-2.9523.4638-4.3541.7853C95.5164,36.938,88.92,41.4274,84.7871,49.234a42.69,42.69,0,0,0-4.56,16.9688,125.5431,125.5431,0,0,0,1.535,31.486,83.0673,83.0673,0,0,1,1.2662,12.6246,9.03,9.03,0,0,1-4.815,8.47c-5.5226,3.0636-13.2633,1.35-17.1789-3.6683A27.2732,27.2732,0,0,1,55.9,102.0713C55.4592,99.1926,55.2945,96.2714,55.0057,93.3693Z"/><path class="cls-2" d="M95.7175,177.7081l-1.9613-.2156c-1.2016-.14-2.4085-.28-3.5993-.4957-21.4558-3.9334-37.1786-15.7389-46.7211-35.0825-7.77-15.75-8.3786-31.9952-1.81-48.2891,1.6326-4.0465,4.4614-9.85,10.1352-13.5621a18.7583,18.7583,0,0,1,6.8053-2.5917,7.1453,7.1453,0,0,1,6.121,1.6326,7.5751,7.5751,0,0,1,2.2846,6.3689,50.7563,50.7563,0,0,0,.4526,15.2324,30.4386,30.4386,0,0,0,2.2468,6.6868,2.0787,2.0787,0,0,0,1.8159,1.3093l-.0324-.56a41.64,41.64,0,0,0-.528-5.3882A144.02,144.02,0,0,1,68.3724,71c.3448-10.243,1.9182-17.9,5.0972-24.8288,5.6415-12.3175,15.4534-19.931,29.1556-22.63a83.7243,83.7243,0,0,1,11.4176-1.2285,7.7909,7.7909,0,0,1,7.1016,3.0605c1.444,2.1553,1.4872,5.038.1132,7.9045a26.1012,26.1012,0,0,0-2.4894,16.3747c1.11,6.1749,4.3052,11.3314,9.7688,15.7713,1.5895,1.2878,3.2922,2.4462,4.9895,3.61,1.0776.7436,2.1607,1.4817,3.2167,2.2523,11.4877,8.3571,19.3167,19.0526,23.2663,31.78,2.0744,6.6705,2.3816,14.0093.9375,22.4364-2.98,17.3985-12,31.397-26.817,41.6023a59.2177,59.2177,0,0,1-30.217,10.3723l-.943.1832Zm.1616-5.5175h6.5736a3.4843,3.4843,0,0,1,1.11-.221,53.7311,53.7311,0,0,0,27.4421-9.4131c13.5406-9.327,21.7845-22.1078,24.5-37.9868,1.2931-7.5489,1.0453-14.0471-.7652-19.8663-3.5885-11.5685-10.7387-21.31-21.24-28.9562-1.0183-.7382-2.0529-1.4494-3.0928-2.1607-1.8212-1.2447-3.637-2.4947-5.3451-3.88-6.4443-5.2373-10.3884-11.6547-11.7247-19.0742a31.9265,31.9265,0,0,1,2.942-19.7424,2.74,2.74,0,0,0,.28-2.4462c-.3018-.4526-1.0723-.652-2.2092-.625a78.2513,78.2513,0,0,0-10.6579,1.1315C91.66,31.3269,83.4162,37.7119,78.4807,48.4667c-2.8558,6.24-4.2729,13.2442-4.5908,22.7167a138.33,138.33,0,0,0,2.457,30.54,47.038,47.038,0,0,1,.6143,6.11l.1077,1.7781a4.1268,4.1268,0,0,1-4.0573,4.5854c-3.7825.3448-6.8538-1.277-8.3409-4.4884a35.8019,35.8019,0,0,1-2.6564-7.8991,56.2056,56.2056,0,0,1-.5388-16.8381,2.1564,2.1564,0,0,0-.5065-1.7943,1.5982,1.5982,0,0,0-1.4117-.2748,13.186,13.186,0,0,0-4.7739,1.7781c-3.3784,2.2092-5.857,5.6037-8.0392,11.0081a51.609,51.609,0,0,0,1.638,43.7791c8.7342,17.7,23.1207,28.4982,42.7715,32.0975,1.0722.1994,2.15.3233,3.2329.4472Zm3.039-3.1629c-10.577,0-20.7607-3.47-30.4-10.3831A52.6235,52.6235,0,0,1,48.6731,131.639c-4.3375-13.3466-3.4376-26.1382,2.678-38.0192.1724-.334.3664-.6627.5711-.9914l1.2393-2.5863,4.1705,1.4332.4149,1.6219.2586,2.7965c.1616,1.9235.3287,3.8525.62,5.76.7652,4.9949,2.22,8.7343,4.5854,11.7625,3.109,3.998,9.3916,5.35,13.6591,2.9527a6.26,6.26,0,0,0,3.4-5.9971,80.5327,80.5327,0,0,0-1.2231-12.2042,128.9959,128.9959,0,0,1-1.5733-32.173,45.3738,45.3738,0,0,1,4.8709-18.05c4.3321-8.1739,11.4068-13.4328,21.03-15.6366,1.013-.2371,2.0475-.4095,3.12-.5819l5.2481-.9214-1.1261,6.2773c-.291,1.5141-.5712,2.9581-.7382,4.4129-1.2609,10.7117,2.0529,20.0441,9.85,27.7223a62.5257,62.5257,0,0,0,9.2084,7.2848c10.0436,6.73,17.016,14.9684,21.3158,25.19a38.3113,38.3113,0,0,1,1.88,23.1854c-4.7308,22.3826-18.1744,36.6451-39.9642,42.3835A51.8117,51.8117,0,0,1,98.9181,169.0277ZM53.3124,103.3509c-2.5864,8.4487-2.387,17.3554.6088,26.5854a47.2411,47.2411,0,0,0,17.808,24.2253c12.2205,8.7559,25.3569,11.353,39.0375,7.7644,19.6023-5.1672,31.7042-18.0127,35.9663-38.1915a32.8432,32.8432,0,0,0-1.568-19.904c-3.8633-9.1977-10.1783-16.6388-19.3-22.749A67.5247,67.5247,0,0,1,115.8586,73.15c-9.0737-8.939-12.9317-19.807-11.4661-32.3023.1293-1.0722.3071-2.1391.5065-3.2275l-.291.0647c-8.1092,1.8535-13.7938,6.0563-17.3877,12.84a39.889,39.889,0,0,0-4.24,15.89,123.3726,123.3726,0,0,0,1.4979,30.7936,86.0929,86.0929,0,0,1,1.3094,13.0448,11.7145,11.7145,0,0,1-6.2342,10.9434c-6.6544,3.6856-15.9329,1.7243-20.6961-4.386A29.0171,29.0171,0,0,1,53.3124,103.3509Z"/><path class="cls-3" d="M130.6081,62.2186c-7.2988,9.2726-24.27,32.346-24.27,46.31,0,17.5193,13.3072,31.7746,29.6674,31.7746s29.67-14.2553,29.67-31.7746c0-13.9641-16.9713-37.0375-24.27-46.31A7.0414,7.0414,0,0,0,130.6081,62.2186Zm5.3974,66.388c-9.9094,0-17.9708-9.007-17.9708-20.0779,0-6.9648,8.5211-21.3634,17.9708-34.11,9.4521,12.75,17.9731,27.1456,17.9731,34.11C153.9786,119.6,145.9173,128.6066,136.0055,128.6066Z"/><path class="cls-3" d="M136.0048,142.8946c-17.79,0-32.2583-15.4153-32.2583-34.3643,0-14.2459,15.552-36.1362,24.8214-47.9115h0a9.371,9.371,0,0,1,7.4267-3.5134h.01a9.3787,9.3787,0,0,1,7.4368,3.5083C152.7161,72.4043,168.2681,94.3,168.2681,108.53,168.2681,127.4793,153.7944,142.8946,136.0048,142.8946Zm0-80.6052H136a4.22,4.22,0,0,0-3.3514,1.5289l-.005.005c-5.5637,7.0673-23.7128,31.18-23.7128,44.707,0,16.0887,12.1449,29.18,27.0743,29.18s27.0793-13.0916,27.0793-29.18c0-13.5118-18.1541-37.6347-23.7128-44.707A4.2315,4.2315,0,0,0,136.0048,62.2894Zm0,68.9108c-11.34,0-20.5639-10.17-20.5639-22.67,0-9.9427,14.1446-29.803,18.4832-35.6552l2.0807-2.81,2.0807,2.81c4.3385,5.8472,18.4832,25.7023,18.4832,35.6552C156.5687,121.03,147.3448,131.2,136.0048,131.2Zm0-52.3817c-9.4163,13.1422-15.38,24.6088-15.38,29.7118,0,9.6441,6.9,17.4859,15.38,17.4859s15.38-7.8418,15.38-17.4859C151.3847,103.4223,145.421,91.9506,136.0048,78.8185Z"/></svg>