<svg id="Layer_1" data-name="Layer 1" xmlns="http://www.w3.org/2000/svg" width="200" height="200" viewBox="0 0 200 200"><defs><style>.cls-1{fill:#fff;}.cls-2{fill:#46b768;}</style></defs><path class="cls-1" d="M145.0876,28.1327a4.5053,4.5053,0,0,1-.3134,4.6684L110.4758,81.5359h46.7277a4.5066,4.5066,0,0,1,3.2338,7.6455L64.6122,187.9163a4.5066,4.5066,0,0,1-7.365-4.9393L86.43,116.03H47.8364a4.5056,4.5056,0,0,1-4.0259-6.5309L84.68,28.1837a4.5062,4.5062,0,0,1,4.0259-2.482h52.3821a4.5036,4.5036,0,0,1,4,2.431m-12.6817,6.5819H91.4836L55.1452,107.017H93.3108a4.5051,4.5051,0,0,1,4.1313,6.3071l-22.02,50.5129L146.55,90.5488H101.7938a4.5075,4.5075,0,0,1-3.6863-7.0994l34.2984-48.7348"/><path class="cls-1" d="M61.3751,191.8785a7.094,7.094,0,0,1-6.5-9.9377L82.4706,118.624H47.838A7.0989,7.0989,0,0,1,41.49,108.3421L82.3643,27.018A7.0641,7.0641,0,0,1,88.7076,23.11h52.3817a7.0932,7.0932,0,0,1,5.8017,11.1831L115.468,78.9441h41.7353a7.097,7.097,0,0,1,5.0929,12.0437L66.468,189.7219A7.1239,7.1239,0,0,1,61.3751,191.8785ZM88.7076,28.2937a1.9174,1.9174,0,0,0-1.7162,1.053l-40.87,81.3191A1.92,1.92,0,0,0,47.838,113.44h42.55L59.6235,184.0164a1.9136,1.9136,0,0,0,.6885,2.3541,1.9514,1.9514,0,0,0,2.435-.2582L158.58,87.3732a1.9146,1.9146,0,0,0-1.377-3.2451H105.4847l37.169-52.8222a1.9139,1.9139,0,0,0-1.5644-3.0122ZM67.3489,175.881l27.7172-63.5952a1.9158,1.9158,0,0,0-1.7567-2.6781H50.9413L89.8821,32.121h47.5167L100.23,84.9432a1.9139,1.9139,0,0,0,1.5644,3.0122h50.8832ZM59.345,104.4237H93.3094a7.1,7.1,0,0,1,6.5053,9.9377L83.4983,151.7936l56.9278-58.6542H101.7942a7.0943,7.0943,0,0,1-5.8067-11.178l31.428-44.6564H93.0816Z"/><path class="cls-2" d="M61.365,193.0125a7.7784,7.7784,0,0,1-7.1179-10.8894L81.59,119.5707,47.276,119.272a7.7723,7.7723,0,0,1-6.8647-11.3L81.291,27.55a7.7748,7.7748,0,1,1,13.8611,7.0471L59.9627,103.8314l33.534.2886a7.7747,7.7747,0,0,1,7.0571,10.8894L68.493,188.35A7.7743,7.7743,0,0,1,61.365,193.0125Z"/></svg>