<svg id="Layer_1" data-name="Layer 1" xmlns="http://www.w3.org/2000/svg" width="200" height="200" viewBox="0 0 200 200"><defs><style>.cls-1{fill:#fff;}.cls-2{fill:#46b767;}</style></defs><path class="cls-1" d="M48.7779,185.4344A32.5833,32.5833,0,1,1,81.3571,152.847,32.6227,32.6227,0,0,1,48.7779,185.4344Zm0-56.8137A24.23,24.23,0,1,0,73.0043,152.847,24.2572,24.2572,0,0,0,48.7779,128.6207Z"/><path class="cls-1" d="M105.5916,185.4344a32.5833,32.5833,0,1,1,32.5791-32.5874A32.6227,32.6227,0,0,1,105.5916,185.4344Zm0-56.8137a24.23,24.23,0,1,0,24.2263,24.2263A24.2572,24.2572,0,0,0,105.5916,128.6207Z"/><path class="cls-1" d="M128.4324,175.9207l-5.5515-4.9009,60.5468-69.8363a20.977,20.977,0,0,0-6.2093-17.8261c-5.8649-5.8649-12.927-7.37-16.3529-7.117L99.6614,129.7953l-5.5468-6.232,60.207-53.6,1.24-.1876c.7015-.106,17.4153-2.39,27.5218,7.6268,6.0525,6.02,9.7485,13.2829,8.1416,24.7762l-1.6078,2.8517Z"/><rect class="cls-1" x="27.5569" y="118.8269" width="25.5244" height="8.3553" transform="translate(-69.073 53.8011) rotate(-39.5334)"/><path class="cls-2" d="M77.1807,135.7989a32.5833,32.5833,0,1,1,32.5873-32.5873A32.6209,32.6209,0,0,1,77.1807,135.7989Zm0-56.8137a24.23,24.23,0,1,0,24.2345,24.2264A24.25,24.25,0,0,0,77.1807,78.9852Z"/><path class="cls-2" d="M100.9421,125.4313l-5.4571-6.33,65.9985-56.96c2.0964-7.9041,1.4927-14.1279-1.7864-18.5246-4.9839-6.6887-15.0171-7.9286-18.3614-8.1651L61.5029,84.7522l-4.3885-7.1129,81.9373-50.59h1.1828c.7178,0,17.5865.1305,26.1269,11.5259,5.1226,6.8274,6.0688,15.9388,2.8223,27.0732l-.3507,1.1909Z"/><path class="cls-2" d="M77.1807,119.1014a15.8858,15.8858,0,1,1,15.8905-15.8905A15.9111,15.9111,0,0,1,77.1807,119.1014Zm0-26.9488a11.0631,11.0631,0,1,0,11.0678,11.0583A11.077,11.077,0,0,0,77.1807,92.1526Z"/><path class="cls-2" d="M77.1777,120.6716A17.4564,17.4564,0,1,1,94.64,103.2091,17.4805,17.4805,0,0,1,77.1777,120.6716Zm0-31.7745a14.3182,14.3182,0,1,0,14.3242,14.312A14.33,14.33,0,0,0,77.1777,88.8971Zm0,26.9507a12.6326,12.6326,0,1,1,12.6387-12.6387A12.6516,12.6516,0,0,1,77.1777,115.8478Zm0-22.1269a9.4944,9.4944,0,1,0,9.5,9.4882A9.5008,9.5008,0,0,0,77.1777,93.7209Z"/><path class="cls-1" d="M48.7779,166.6079A13.7609,13.7609,0,1,1,62.5388,152.847,13.7787,13.7787,0,0,1,48.7779,166.6079Zm0-23.3454a9.5846,9.5846,0,1,0,9.5845,9.5845A9.5943,9.5943,0,0,0,48.7779,143.2625Z"/><path class="cls-1" d="M48.78,168.1741A15.3295,15.3295,0,1,1,64.11,152.8446,15.3474,15.3474,0,0,1,48.78,168.1741Zm0-27.5208a12.1913,12.1913,0,1,0,12.1912,12.1913A12.2031,12.2031,0,0,0,48.78,140.6533ZM48.78,164A11.1524,11.1524,0,1,1,59.93,152.8446,11.1645,11.1645,0,0,1,48.78,164Zm0-19.1665a8.0142,8.0142,0,1,0,8.011,8.0111A8.0229,8.0229,0,0,0,48.78,144.8335Z"/><path class="cls-1" d="M105.5916,166.6079a13.7609,13.7609,0,1,1,13.7609-13.7609A13.7787,13.7787,0,0,1,105.5916,166.6079Zm0-23.3454a9.5846,9.5846,0,1,0,9.5845,9.5845A9.5943,9.5943,0,0,0,105.5916,143.2625Z"/><path class="cls-1" d="M105.5933,168.1741a15.3295,15.3295,0,1,1,15.3295-15.3295A15.3473,15.3473,0,0,1,105.5933,168.1741Zm0-27.5208a12.1913,12.1913,0,1,0,12.1913,12.1913A12.2031,12.2031,0,0,0,105.5933,140.6533Zm0,23.3467a11.1524,11.1524,0,1,1,11.1493-11.1554A11.1645,11.1645,0,0,1,105.5933,164Zm0-19.1665a8.0142,8.0142,0,1,0,8.0111,8.0111A8.0229,8.0229,0,0,0,105.5933,144.8335Z"/></svg>