<svg id="Layer_1" data-name="Layer 1" xmlns="http://www.w3.org/2000/svg" width="200" height="200" viewBox="0 0 200 200"><defs><style>.cls-1{fill:#46b768;}.cls-2{fill:#fff;}</style></defs><path class="cls-1" d="M67.08,4.378c4.8958,3.1875,9.8286,6.32,14.6707,9.5872A5.2156,5.2156,0,0,1,83.888,20.224c-1.3869,4.5212-2.8174,9.0322-4.3735,13.4974a5.504,5.504,0,0,1-7.0993,3.4761,5.6442,5.6442,0,0,1-3.4914-6.9561c.2195-.8212.4765-1.6323.8405-2.8709-2.2868,1.0836-4.28,1.9008-6.1533,2.935-24.2753,13.4009-38.84,33.75-41.7528,61.3643-3.09,29.2953,7.801,53.1542,30.83,71.4563,2.2151,1.76,3.8541,3.5976,3.0639,6.6106-1.081,4.1222-5.5157,5.5822-9.0472,2.9858a87.432,87.432,0,0,1-16.945-16.28C15.0941,137.866,8.1476,116.6516,10.3889,93.1507,13.74,58.0084,31.9382,32.854,63.8977,17.7358c.5506-.2605,1.1027-.5176,1.8744-.88-2.2257-1.8175-5.156-2.7961-5.5774-6.0557-.3624-2.8031.86-4.74,4.266-6.4226Z"/><path class="cls-1" d="M50.4408,176.9982a9.2549,9.2549,0,0,1-5.4937-1.8853,90.967,90.967,0,0,1-17.52-16.8292c-15.53-19.6718-22.259-41.6872-19.9966-65.42C10.7724,57.8887,28.46,32.149,60.0243,16.3176a8.1,8.1,0,0,1-2.7788-5.134c-.7889-6.1609,4.2465-8.65,5.9-9.4675l1.3169-.3075H67.96L72.88,4.5934c3.5271,2.28,7.0542,4.56,10.5291,6.9092A8.1722,8.1722,0,0,1,86.727,21.092c-1.3922,4.56-2.8367,9.102-4.403,13.6037a8.5132,8.5132,0,0,1-10.8714,5.308,8.4246,8.4246,0,0,1-5.6968-7.4777c-.2378.1219-.4757.2495-.7135.3771C41.0893,46.13,27.5494,66.0046,24.8112,91.9822c-2.918,27.6657,7.0832,50.824,29.7252,68.8192,1.6417,1.3052,5.4879,4.3567,4.09,9.6879a8.4036,8.4036,0,0,1-8.1854,6.5089ZM65.1873,7.349c-2.28,1.2647-2.1638,2.1812-2.0478,3.0746.1334,1.0152.8006,1.5547,2.5467,2.7208.6672.4467,1.34.8991,1.9608,1.41l3.6721,2.9934-6.1724,2.8832C34,35.1714,16.562,59.7335,13.3481,93.4325c-2.1116,22.1546,4.1943,42.7371,18.7436,61.1732a85.2335,85.2335,0,0,0,16.3709,15.727,3.0683,3.0683,0,0,0,2.8019.58,2.6364,2.6364,0,0,0,1.6185-1.9318c.2553-.98.2495-1.7113-2.042-3.5271C26.4994,146.107,15.7556,121.1794,18.9056,91.3556c2.9528-28.0138,17.5137-49.4317,43.2709-63.65,1.3111-.7252,2.686-1.3517,4.1652-2.0246l8.1449-3.84L71.789,31.0119a2.68,2.68,0,0,0,1.5838,3.37,2.5408,2.5408,0,0,0,3.3414-1.6417c1.5373-4.4263,2.9586-8.899,4.3335-13.3891a2.2793,2.2793,0,0,0-.963-2.93c-3.44-2.32-6.9382-4.5829-10.43-6.84L66.2025,7.349Z"/><path class="cls-2" d="M86.1167,111.3553c-.7538,0-1.4217-.0005-2.09,0-6.3586.0058-12.7174-.0131-19.0758.03-2.4413.0167-4.4328-.7712-5.64-2.9538-1.2121-2.1917-.7554-4.2721.5526-6.3316Q85.4116,61.8759,110.92,21.6266c1.8334-2.8895,4.4019-3.9037,7.124-2.8939,2.6827.9952,3.933,3.5709,3.4747,6.8648q-3.3086,23.78-6.5655,47.5674c-.3219,2.3356-.6469,4.6709-1.0115,7.3022,3.7376,0,7.3373-.0053,10.9369.0015,3.3662.0064,6.7323.0448,10.0983.0327,2.4-.0085,4.4575.6639,5.6923,2.8713,1.266,2.2635.7657,4.3808-.5522,6.5038q-25.4745,41.0388-50.9023,82.1066c-1.9045,3.0725-4.1209,4.034-6.9812,3.0731a5.3527,5.3527,0,0,1-3.8495-6.0573q3.0429-22.78,6.1361-45.5536C85.0521,119.4973,85.5639,115.5467,86.1167,111.3553Zm39.6986-19.7407c-6.3526,0-12.1409.0235-17.929-.0081-4.0471-.0221-6.4655-2.8648-5.9073-6.8508q1.97-14.065,3.9348-28.1306c.3168-2.2789.586-4.5644.8771-6.8469l-.3755-.0945C95.8019,66.4208,85.1885,83.158,74.4394,100.109c6.1194,0,11.8494-.0238,17.579.0078,4.2808.0235,6.6076,2.816,6.0226,7.085q-1.9918,14.5344-3.9484,29.0734c-.3244,2.4071-.5993,4.8208-.897,7.2314l.4039.1035Z"/><path class="cls-2" d="M84.2615,178.3847a9.353,9.353,0,0,1-2.976-.5163,8.3114,8.3114,0,0,1-5.8475-9.2645l7.292-54.2756H78.414c-4.4843.0116-8.9628,0-13.4413.029h-.0986c-4.6932,0-7.0253-2.4365-8.1623-4.4843-1.6359-2.9586-1.4213-6.1087.6439-9.3631l51.0561-80.4738c2.5815-4.0782,6.6017-5.6155,10.6625-4.09,3.98,1.4793,6.0448,5.3313,5.3835,10.065l-7.1064,51.4854,17.6123.0348h.0754c3.8288,0,6.596,1.4793,8.2261,4.3915,1.6649,2.976,1.45,6.184-.6265,9.5255l-50.8995,82.098C89.43,177.2709,86.698,178.3847,84.2615,178.3847Zm1.12-69.9968H88.769l.2959,3.3588-7.7387,57.6462a2.4121,2.4121,0,0,0,1.85,2.8426c.9514.3306,1.9724.6729,3.5155-1.8158l50.8994-82.11c1.1835-1.9027.8934-2.7671.4873-3.4865-.3654-.6555-.9339-1.3516-3.04-1.3516h-.0522l-24.4577-.0348,8.0462-58.2495c.2727-1.9492-.2552-3.1849-1.5663-3.6722-.5627-.1914-2.0246-.7483-3.5851,1.7l-51.056,80.48c-1.1255,1.7752-.8238,2.6338-.4583,3.3009.3828.69.9572,1.4213,2.9586,1.4213h.058c4.5075-.0232,9.0324-.0116,13.4877-.029Zm9.6009,38.63-4.6467-1.16-.0871-2.7092.2379-1.9492c.2088-1.7751.4235-3.55.6671-5.32l3.9448-29.0813a3.6046,3.6046,0,0,0-.5279-2.8309,3.46,3.46,0,0,0-2.57-.8818c-3.9332-.0174-7.8722-.0232-11.933-.0116l-11.028.0058,36.002-56.776,4.6641,1.1138.0349,2.744L104.92,85.1658a3.2608,3.2608,0,0,0,.5453,2.57,3.2126,3.2126,0,0,0,2.4365.8992c4.0956.029,8.1912.0116,12.4957.0174l10.7495-.0058Zm-9.6009-49.89c2.2334,0,4.4379.0058,6.6539.0174a9.0107,9.0107,0,0,1,7.0194,2.93,9.233,9.233,0,0,1,1.926,7.5357l-3.2022,23.6223,22.7-36.64h-.0754c-4.31-.0116-8.4291,0-12.5363-.0174A8.58,8.58,0,0,1,99.0371,84.342L102.17,61.9263,79.8411,97.1336h.22C81.8541,97.1336,83.6234,97.1278,85.3812,97.1278Z"/><path class="cls-1" d="M134.4016,183.7712c.9.6142,1.8729,1.2442,2.8095,1.9242a5.6134,5.6134,0,0,1,1.5638,7.76,5.4961,5.4961,0,0,1-7.7391,1.5621c-4.352-2.7926-8.65-5.6716-12.9193-8.59a5.3233,5.3233,0,0,1-2.1821-6.2528c1.3841-4.5228,2.8134-9.0339,4.3405-13.51a5.57,5.57,0,0,1,7.0971-3.5249,5.7154,5.7154,0,0,1,3.5712,6.9448c-.2139.827-.4951,1.6366-.8581,2.8223.8719-.3149,1.4362-.4651,1.9536-.7132,26.8056-12.8585,42.8634-33.91,46.0972-63.4924C181.3368,79.42,170.333,55.5784,147.38,37.18a10.2131,10.2131,0,0,1-3.1093-3.9938,5.0344,5.0344,0,0,1,2.156-5.884,5.6567,5.6567,0,0,1,6.6387.1873,85.1542,85.1542,0,0,1,15.2079,14.0629C184.2827,60.5052,191.91,82.4815,189.6286,107.12c-3.24,34.996-21.3478,60.1127-53.064,75.3512-.6725.3232-1.3574.6205-2.0331.9371C134.4961,183.4252,134.4925,183.51,134.4016,183.7712Z"/><path class="cls-1" d="M134.1806,198.9324a8.7638,8.7638,0,0,1-4.7512-1.4155c-4.3741-2.8077-8.6959-5.7025-12.9888-8.6437a8.2952,8.2952,0,0,1-3.3473-9.5661c1.3923-4.5539,2.8368-9.0962,4.3683-13.5979a8.5383,8.5383,0,0,1,16.62,2.1348c24.3649-12.7858,38.1891-32.7766,41.1013-59.4677,3.0108-27.515-6.973-50.6906-29.6614-68.8831a13.143,13.143,0,0,1-4.02-5.2268,8.001,8.001,0,0,1,3.2371-9.4037,8.6209,8.6209,0,0,1,10.065.2205,88.4433,88.4433,0,0,1,15.7386,14.5551c16.9335,20.043,24.3474,42.8358,22.0444,67.7518-3.2429,34.9752-20.948,60.7788-52.64,76.7262a8.533,8.533,0,0,1,1.3111,10.97A8.4128,8.4128,0,0,1,134.1806,198.9324Zm-8.6206-33.113a2.59,2.59,0,0,0-2.4713,1.8041c-1.52,4.4437-2.9412,8.928-4.31,13.4181a2.3718,2.3718,0,0,0,1.0094,2.93q6.3783,4.3683,12.85,8.5451a2.5225,2.5225,0,0,0,3.6548-.69,2.641,2.641,0,0,0-.8238-3.7243c-.6555-.4757-1.3285-.9282-1.9782-1.3575l-2.6453-1.7926.7483-2.1522,2.8078.9746-2.7788-1.0616.3539-1.2589,3.2951-1.6591c31.0014-14.8916,48.2947-39.4363,51.3983-72.95,2.1522-23.2743-4.7976-44.5936-20.6638-63.3778A82.38,82.38,0,0,0,151.323,29.8981a2.7173,2.7173,0,0,0-3.208-.1508,2.1707,2.1707,0,0,0-1.0791,2.3611,7.3,7.3,0,0,0,2.1929,2.75c24.3881,19.5441,35.1028,44.5007,31.86,74.1679-3.2835,30.0616-19.3527,52.2163-47.7668,65.849a13.2854,13.2854,0,0,1-1.4909.5743l-6.3291,2.2683,2.0826-6.7584c.1915-.6033.3481-1.108.4815-1.6185a2.7476,2.7476,0,0,0-1.6185-3.3763A2.8415,2.8415,0,0,0,125.56,165.8194Z"/></svg>