<svg id="Layer_1" data-name="Layer 1" xmlns="http://www.w3.org/2000/svg" width="200" height="200" viewBox="0 0 200 200"><defs><style>.cls-1{fill:#fff;}.cls-2{fill:#46b768;}</style></defs><path class="cls-1" d="M187.3427,63.61c-.0054-2.7612-.8938-3.6327-3.705-3.6347q-8.961-.007-17.9221-.0061c-.1588,0-.3441-.0155-.5246-.0284-.8641.3421-1.7383.6559-2.5841,1.0507a18.4712,18.4712,0,0,0-3.7246,2.43,15.7211,15.7211,0,0,0-.02,1.7024c.0439.2035.12.3982.1663.6a3.7323,3.7323,0,0,1,1.3319-.3184c5.7273.073,11.4565.0311,17.7078.0311-4.7131,4.6955-9.0692,9.0218-13.4105,13.3624q-44.5851,44.5841-89.1445,89.1938a3.9807,3.9807,0,0,1-3.1229,1.265q-21.4137-.06-42.8289-.025H27.6263a8.7077,8.7077,0,0,1,.7193-.9878c6.67-6.6832,13.3314-13.3753,20.0532-20.0051a2.5627,2.5627,0,0,1,.4847-.284c-.09-.0892-.2461-.0973-.3319-.192a70.1846,70.1846,0,0,0-8.3634.8641c-.0892.0933-.2218.2434-.311.3326-6.7157,6.7225-13.4111,13.4645-20.1748,20.1383a5.2732,5.2732,0,0,0-1.7207,4.2209c.1021,3.6956.03,7.3959.0318,11.0948.002,3.1425.79,3.9376,3.9159,3.9376q26.1144.0021,52.2294.03a5.2727,5.2727,0,0,0,4.0566-1.7024q18.483-18.5712,37.0355-37.0733,35.18-35.184,70.3772-70.35a5.3115,5.3115,0,0,0,1.7491-4.2107C187.2717,71.2364,187.35,67.4226,187.3427,63.61ZM72.5044,182.7788H23.56v-8.001H72.5044ZM181.8224,74.77c-.05.5666-.645,1.146-1.1048,1.6065q-34.4273,34.4628-68.879,68.9027Q95.7927,161.3258,79.7542,177.38a7.8606,7.8606,0,0,1-1.3866,1.32c-.1549-2.8382-.691-5.3351,1.84-7.8488q50.1681-49.85,100.0879-99.9506c.4252-.4259.8755-.8262,1.58-1.4888C181.8751,71.4176,181.97,73.1045,181.8224,74.77Z"/><path class="cls-1" d="M74.1812,189.8675h-.029q-20.5126-.0611-41.0311-.029H21.9266c-3.9329,0-5.3969-1.47-5.4027-5.4259l.0116-3.2823c.0175-2.5909.0349-5.1819-.0406-7.767a6.7906,6.7906,0,0,1,2.161-5.3213q8.2608-8.1562,16.44-16.3939l4.0724-4.0839.8016-.4067a71.7149,71.7149,0,0,1,8.5339-.883l.6971-.0232.2905.3311a1.7763,1.7763,0,0,1,.4415.32l1.3419,1.342-1.9809,1.1735c-5.6931,5.6466-11.4908,11.4559-17.2885,17.2652l-1.0573,1.0631h8.499c10.9738.0058,21.9592-.0116,32.95.0232a2.9372,2.9372,0,0,0,2.0623-.8249q44.5457-44.6241,89.15-89.196l10.8517-10.8169H173.23c-4.4558,0-8.6675.0116-12.8851-.0406h-.0058a1.73,1.73,0,0,0-.5635.151l-1.58.5635-.79-2.19a11.8758,11.8758,0,0,1-.0232-1.6789l.0232-.6913.5577-.79a19.7358,19.7358,0,0,1,4.0143-2.6083c.6622-.3079,1.33-.5694,2.01-.8308l.9643-.3776.7668.0465L183.64,58.49c3.6308,0,5.1819,1.5278,5.1877,5.1122h0l-.0116,3.8283c-.0116,2.5271-.0232,5.0483.0465,7.5753a6.7263,6.7263,0,0,1-2.1843,5.3039q-29.793,29.7408-59.5511,59.5221L107.5847,159.38q-14.1688,14.16-28.32,28.3494A6.78,6.78,0,0,1,74.1812,189.8675ZM44.38,186.8583q14.8922,0,29.7843.0349h.0232a3.7846,3.7846,0,0,0,2.9744-1.2665q14.1341-14.195,28.32-28.3552l19.5425-19.5425q29.7669-29.7755,59.5511-59.522a3.8245,3.8245,0,0,0,1.3129-3.1138c-.07-2.5619-.0581-5.118-.0464-7.6741l.0116-3.8051c-.0058-1.9461-.2092-2.1494-2.2134-2.1494l-18.5839.1278c-.61.2323-1.2258.4705-1.8241.7494a14.0258,14.0258,0,0,0-2.5619,1.58c4.1071.0407,8.2317.029,12.5539.0349l8.4467-.0059-15.9582,15.9q-44.5893,44.5806-89.1495,89.196a5.7835,5.7835,0,0,1-4.1769,1.6963c-10.9737-.0349-21.9359-.0174-32.9387-.0232H24.7325l1.9286-2.7072a5.2117,5.2117,0,0,1,.6333-.8191l2.6083-2.6142q7.5376-7.5549,15.11-15.0809c-1.4407.1452-2.8233.3311-4.0955.5228l-3.718,3.7238q-8.2086,8.2347-16.4519,16.4113a3.8076,3.8076,0,0,0-1.2781,3.1254c.0755,2.62.0581,5.24.0407,7.8658l-.0116,3.2648c.0058,2.3353.1162,2.4515,2.4283,2.4515H33.1211Q38.75,186.8641,44.38,186.8583Zm-4.5022-37.9.43.43-.0349-.2207ZM73.99,184.2673H22.0718v-10.98H73.99ZM25.0462,181.293H71.0151v-5.0309H25.0462Zm51.9758,0-.1976-3.4624c-.18-2.498-.3834-5.3329,2.3354-8.0342q39.3609-39.1083,78.5417-78.4023l21.5409-21.5467c.2788-.2789.5693-.5461.9237-.8772l3.1951-3.0034.0174,5.1122a37.3616,37.3616,0,0,1-.0755,3.8225h0a4.2664,4.2664,0,0,1-1.5046,2.498L80.5017,178.76a6.1173,6.1173,0,0,1-1.3477,1.2026ZM180.4159,72.88,159.8045,93.497q-39.23,39.2476-78.5534,78.414a4.8028,4.8028,0,0,0-1.5336,3.3984l99.949-99.9838a5.0815,5.0815,0,0,0,.68-.7669C180.3926,74.0068,180.4159,73.4491,180.4159,72.88Z"/><path class="cls-2" d="M72.2641,153.9951H17.9762a4.4627,4.4627,0,0,1-4.4615-4.4616V135.9863c0-.0639,0-.1337.0058-.2034a4.3893,4.3893,0,0,1,1.1038-2.7652v-.0058L14.6359,133h0c.0058-.0058.0116-.0116.0116-.0174h.0058c0-.0117.0058-.0175.0116-.0175l.0117-.0116.0058-.0058.0058-.0058c0-.0058.0058-.0058.0116-.0116,0,.0116.0116-.0117.029-.0291v-.0058l.0291-.029.0174-.0175h0l.0291-.029h0l.0174-.0174L124.5072,23.2917a4.468,4.468,0,0,1,3.1544-1.3071h53.8406a2.6615,2.6615,0,0,1,.93.0871h0a.03.03,0,0,0,.029.0058l.0059.0058a4.5274,4.5274,0,0,1,1.034.3544,4.3475,4.3475,0,0,1,1.1212.7784,4.4231,4.4231,0,0,1,.9063,1.2258v.0058a.0057.0057,0,0,1,.0058.0058.018.018,0,0,1,.0058.0116.0057.0057,0,0,0,.0058.0058,4.3814,4.3814,0,0,1,.3253.9005l.0058.0058.0058.0232v.0058a4.8517,4.8517,0,0,1,.122.9063l.5112,13.7971a4.4543,4.4543,0,0,1-1.3071,3.3287L75.4128,152.6938a4.4554,4.4554,0,0,1-2.91,1.2955C72.421,153.9951,72.34,153.9951,72.2641,153.9951ZM22.4378,145.072H67.8026v-4.6532H22.4378Zm54.2879-7.2674v.9934L177.5286,38.4946l-.0639-1.65Zm-47.9674-6.3089H70.411L170.79,30.9076H129.509Z"/></svg>