<svg xmlns="http://www.w3.org/2000/svg" width="415.8611" height="183.89" viewBox="0 0 415.8611 183.89"><defs><style>.cls-1{fill:#fff;}</style></defs><g id="Layer_2" data-name="Layer 2"><g id="Layer_1-2" data-name="Layer 1"><rect class="cls-1" x="0.2206" y="158.4021" width="413.4614" height="1.6622"/><polygon class="cls-1" points="173.282 53.416 235.969 53.416 235.969 65.801 187.016 65.801 187.016 96.482 173.282 96.482 173.282 53.416"/><path class="cls-1" d="M171.6635,32.594V96.4821H157.93V27.174A26.01,26.01,0,0,1,183.9261,1.1772H278.152v60.97a8.8392,8.8392,0,0,0,8.8291,8.8292h53.5875l40.3686.0735c.3188,0,.6131-.0244.9074-.049a5.3425,5.3425,0,0,0,4.954-5.1749V65.703a.6821.6821,0,0,0-.0244-.2207,5.294,5.294,0,0,0-4.8315-5.1012c-.3189-.0246-.6377-.0491-1.0055-.0491h-42.723c-10.0308,0-18.05-2.5752-23.863-7.6273-5.9842-5.2239-9.05-12.8021-9.05-22.5387,0-9.761,3.0656-17.3394,9.05-22.5632C320.1637,2.5506,328.208,0,338.2142,0h72.0551V11.8212H338.0916a18.4062,18.4062,0,1,0,0,36.8123h47.3336a17.1431,17.1431,0,1,1,0,34.2862H282.0515a17.8408,17.8408,0,0,1-17.83-17.8053V13.1455h-73.11A19.4787,19.4787,0,0,0,171.6635,32.594Z"/><path class="cls-1" d="M415.8611,65.703c0,9.8837-3.0166,17.6091-9.0007,22.9312-5.7881,5.1993-13.8323,7.8479-23.8877,7.8479H275.0863A26.01,26.01,0,0,1,249.09,70.4854V26.6834H195.8453a8.8236,8.8236,0,0,0-8.829,8.8291V40.32h48.9523V51.7727H173.2821V32.594a17.8459,17.8459,0,0,1,17.83-17.83h71.491v50.35a19.4788,19.4788,0,0,0,19.4485,19.4485H385.4252a18.7864,18.7864,0,1,0,0-37.5727H338.0916a16.763,16.763,0,1,1,0-33.5259h72.1777V25.5061L340.25,25.359a11.9476,11.9476,0,0,0-2.428.2453,4.75,4.75,0,0,0-.098,9.0988,12.7677,12.7677,0,0,0,2.526.2453h42.7229c10.0309,0,18.0751,2.6,23.8877,7.75C412.8445,48.02,415.8611,55.7458,415.8611,65.703Z"/><path class="cls-1" d="M.1462,69.0325c2.2472-11.482,20.55-26.0687,36.4043-37.7564C60.3931,13.699,85.7819,1.3179,88.0793,1.832,52.293-2.3429-3.1118,34.9649.1366,69.14.1432,69.105.14,69.0642.1462,69.0325Z"/><path class="cls-1" d="M6.794,104.8335c-.4472-2.3508,1.2384-8.6548,17.5425-24.49.0257-.0252.0536-.0441.0725-.0659,23.9891-23.0847,65.4632-51.1566,94.5656-64.3386C93.82,6.5245,41.1424,35.4,15.8585,59.6467c-.0222.019-.044.0412-.0662.0569C11.3658,64.1523-.3845,75.9575.7483,84.606A65.383,65.383,0,0,0,6.9423,105.29a3.7126,3.7126,0,0,1-.1483-.4567Z"/><path class="cls-1" d="M64.173,146.9169c-12.36-2.17,43.1449-50.102,82.9293-66.9865-16.5974-22.509-155.9971,61.6589-82.409,67.0673-.1611-.0254-.3719-.0441-.52-.0808Z"/><path class="cls-1" d="M30.6949,90.2111C27.008,94.1,15.4431,104.561,14.77,113.0305c-.7791,9.8019,10.8533,17.0891,16.1739,21.2323C34.2624,101.6561,129.1842,52.06,141.2811,44.71,119.2391,31.3668,59.2644,62.8256,30.6949,90.2111Z"/><path class="cls-1" d="M208.2061,146.489l-.1227-20.65H184.0487v9.3441h9.2952c-2.06,2.0356-5.5182,3.0656-10.3988,3.0656-6.6217,0-10.693-2.0356-12.2626-6.1558a13.1327,13.1327,0,0,1-.8093-5.2239,13.3505,13.3505,0,0,1,.8093-5.2485c1.57-4.0465,5.6409-6.0822,12.2626-6.0822,3.5316,0,6.254.5151,8.1423,1.5206a8.59,8.59,0,0,1,3.9977,4.2919h12.5814a16.3952,16.3952,0,0,0-1.1037-3.9485,15.6324,15.6324,0,0,0-9.5647-9.197,38.53,38.53,0,0,0-14.053-2.0111,39.2323,39.2323,0,0,0-14.151,2.0111,15.7392,15.7392,0,0,0-9.5158,9.197,24.3994,24.3994,0,0,0-1.5942,9.4667,24.3152,24.3152,0,0,0,1.5942,9.4667,15.8074,15.8074,0,0,0,9.54,9.1725,35.7259,35.7259,0,0,0,6.6707,1.6186,52.7994,52.7994,0,0,0,7.4557.4906c6.72,0,11.8211-.9566,15.6716-3.9v2.7713Z"/><path class="cls-1" d="M255,131.97a14.0247,14.0247,0,0,0,3.1393-4.5862,14.905,14.905,0,0,0,0-11.2572,14.4424,14.4424,0,0,0-7.75-7.7008,14.0957,14.0957,0,0,0-5.6162-1.1282H215.3675V146.489h11.7966V136.2375H241.07l5.0522,10.2515h13.072L252.94,133.7115A11.5693,11.5693,0,0,0,255,131.97Zm-9.0252-6.6219a4.8863,4.8863,0,0,1-3.5806,1.4716h-15.23V116.691h15.23a4.8938,4.8938,0,0,1,3.556,1.496,4.99,4.99,0,0,1,1.4962,3.5806A4.9259,4.9259,0,0,1,245.9749,125.3483Z"/><path class="cls-1" d="M313.15,117.4513a15.5939,15.5939,0,0,0-9.5649-9.1726,37.51,37.51,0,0,0-14.0529-2.0109,38.19,38.19,0,0,0-14.1511,2.0109,15.6,15.6,0,0,0-9.4913,9.1726,24.418,24.418,0,0,0-1.6186,9.4912,24.3735,24.3735,0,0,0,1.6186,9.4667,15.815,15.815,0,0,0,9.4913,9.1479,38.6866,38.6866,0,0,0,14.1511,2.06,49.9878,49.9878,0,0,0,7.4556-.4169,31.85,31.85,0,0,0,6.6464-1.5451,15.17,15.17,0,0,0,9.5158-9.148,24.9927,24.9927,0,0,0,1.5942-9.4667A24.597,24.597,0,0,0,313.15,117.4513Zm-11.38,14.8623a8.3013,8.3013,0,0,1-3.9239,4.4145c-1.9131,1.0054-4.66,1.52-8.3141,1.52-6.6219,0-10.693-2.0356-12.2626-6.1067a12.9988,12.9988,0,0,1-.8094-5.1994,13.0509,13.0509,0,0,1,.8094-5.2239c1.57-4.0956,5.6407-6.1313,12.2626-6.1313q5.4446,0,8.24,1.6186a8.7262,8.7262,0,0,1,3.9976,4.5127,14.5491,14.5491,0,0,1,.7849,5.3465A13.7143,13.7143,0,0,1,301.77,132.3136Z"/><path class="cls-1" d="M353.4444,107.2978v19.5711a15.9533,15.9533,0,0,1-.4169,3.8014c-.54,2.1827-1.1773,3.4826-2.5262,4.5127a7.165,7.165,0,0,1-3.8259,1.6431,16,16,0,0,1-1.9374.2208c-.4169.0489-1.0546.0489-1.8149.0489s-1.3979,0-1.8394-.0489a16.55,16.55,0,0,1-1.9376-.2208,9.8721,9.8721,0,0,1-2.06-.54,7.8638,7.8638,0,0,1-3.409-2.9185,13.9077,13.9077,0,0,1-1.398-6.4992V107.2978H320.5316v19.5711a24.61,24.61,0,0,0,1.7168,9.5894,16.1118,16.1118,0,0,0,5.371,6.94q5.4813,4.2677,15.3037,4.2676a34.91,34.91,0,0,0,7.9216-.834,19.42,19.42,0,0,0,7.4312-3.4336,16.4164,16.4164,0,0,0,5.2729-6.99,24.6479,24.6479,0,0,0,1.6922-9.54V107.2978Z"/><path class="cls-1" d="M412.5257,116.1268a14.4348,14.4348,0,0,0-7.701-7.7008,14.6535,14.6535,0,0,0-5.6407-1.1282H372.476V146.489h11.7966V136.2375H399.184a14.8177,14.8177,0,0,0,5.6407-1.1036,14.5238,14.5238,0,0,0,7.701-7.75A14.6791,14.6791,0,0,0,412.5257,116.1268Zm-12.1646,9.2215a4.871,4.871,0,0,1-3.5562,1.4716H384.2726V116.691h12.5323a5.0468,5.0468,0,0,1,3.5562,8.6573Z"/><path class="cls-1" d="M.0116,170.818v3.0413H5.0638v9.6384H8.89v-9.6384h5.0767V170.818Z"/><path class="cls-1" d="M22.9671,170.818H18.7l-6.205,12.68h4.243l.76-1.5206h6.6953l.76,1.5206h4.2184Zm-4.0221,8.118,1.8885-3.8015,1.8394,3.8015Z"/><path class="cls-1" d="M30.619,170.818v12.68h3.8259v-12.68Z"/><path class="cls-1" d="M40.846,180.4566V170.818H37.02v12.68H49.7v-3.0411Z"/><path class="cls-1" d="M66.6956,174.1045a5.0039,5.0039,0,0,0-3.09-2.9676,12.0975,12.0975,0,0,0-4.5371-.6621,12.3618,12.3618,0,0,0-4.5863.6621,5.0262,5.0262,0,0,0-3.0657,2.9676,8.98,8.98,0,0,0,0,6.1313,5.1551,5.1551,0,0,0,3.0657,2.9676,12.8905,12.8905,0,0,0,4.5863.662,18.2723,18.2723,0,0,0,2.4035-.1226,11.0526,11.0526,0,0,0,2.1582-.5149,4.8673,4.8673,0,0,0,3.0656-2.943,8.0064,8.0064,0,0,0,.515-3.0657A7.7367,7.7367,0,0,0,66.6956,174.1045Zm-3.6787,4.807a2.581,2.581,0,0,1-1.2754,1.4223,5.5833,5.5833,0,0,1-2.6732.49c-2.1582,0-3.4581-.662-3.9732-1.9619a5.4439,5.4439,0,0,1,0-3.3845c.5151-1.3243,1.815-1.9866,3.9732-1.9866a5.3466,5.3466,0,0,1,2.6487.54,2.7578,2.7578,0,0,1,1.3,1.4469,4.6866,4.6866,0,0,1,.2452,1.7413A4.4055,4.4055,0,0,1,63.0169,178.9115Z"/><path class="cls-1" d="M82.1465,178.8133a4.353,4.353,0,0,0,1.0055-1.496,4.6825,4.6825,0,0,0-2.5015-6.1313,4.5318,4.5318,0,0,0-1.8148-.368H69.32v12.68h3.8259v-3.311h4.488l1.6433,3.311h4.2183l-2.0111-4.12A5.0036,5.0036,0,0,0,82.1465,178.8133ZM79.228,176.655a1.596,1.596,0,0,1-1.1526.4906h-4.93v-3.2863h4.93a1.6386,1.6386,0,0,1,1.1526.49,1.6585,1.6585,0,0,1,0,2.3053Z"/><path class="cls-1" d="M84.967,175.625v3.0411H95.1448V175.625Z"/><path class="cls-1" d="M109.6637,170.818l-3.924,7.8481-3.9-7.8481H97.0824v12.68h3.8014v-6.72l3.1882,6.72h3.36l3.1882-6.72v6.72h3.826v-12.68Z"/><path class="cls-1" d="M126.3164,170.818h-4.2429l-6.2294,12.68h4.2674l.7357-1.5206h6.72l.7358,1.5206h4.2428Zm-3.9976,8.118,1.8885-3.8015,1.8394,3.8015Z"/><path class="cls-1" d="M148.5608,174.5213a5.398,5.398,0,0,0-1.52-2.1336,6.3426,6.3426,0,0,0-2.3545-1.2263,10.9726,10.9726,0,0,0-2.8205-.3434h-7.8725v12.68h7.8725a10.9638,10.9638,0,0,0,2.8205-.3434,6.3034,6.3034,0,0,0,2.3545-1.2017,5.6654,5.6654,0,0,0,1.52-2.1583,7.2666,7.2666,0,0,0,.4414-2.6242A7.5005,7.5005,0,0,0,148.5608,174.5213Zm-6.9407,5.9353h-3.8013v-6.5973H141.62c2.3054,0,3.5808,1.1035,3.5808,3.2863S143.9255,180.4566,141.62,180.4566Z"/><path class="cls-1" d="M164.0117,173.8593V170.818H151.0623v12.68h12.9494v-3.0411h-9.1479v-1.7905h8.4121V175.625h-8.4121v-1.7657Z"/><path class="cls-1" d="M188.39,183.4977l-.0491-6.671h-7.7744v3.0167h3.0165a4.6637,4.6637,0,0,1-3.36.9809c-2.1582,0-3.458-.662-3.9731-1.9865a4.2542,4.2542,0,0,1-.27-1.6922,4.34,4.34,0,0,1,.27-1.6923c.5151-1.3,1.8149-1.962,3.9731-1.962a5.495,5.495,0,0,1,2.6242.4906,2.7173,2.7173,0,0,1,1.3,1.3734h4.0711a6.0011,6.0011,0,0,0-.3679-1.2754,5.067,5.067,0,0,0-3.09-2.9674,12.1054,12.1054,0,0,0-4.5372-.6377,12.37,12.37,0,0,0-4.5862.6377,5.09,5.09,0,0,0-3.0657,2.9674,7.6217,7.6217,0,0,0-.5394,3.0657,7.4626,7.4626,0,0,0,.5394,3.0656,5.0254,5.0254,0,0,0,3.0657,2.9676,11.4943,11.4943,0,0,0,2.1582.515,14.6716,14.6716,0,0,0,2.428.1716,8.2646,8.2646,0,0,0,5.0767-1.2506v.8829Z"/><path class="cls-1" d="M194.521,180.4566V170.818H190.72v12.68h12.68v-3.0411Z"/><path class="cls-1" d="M220.3951,174.1045a5.0642,5.0642,0,0,0-3.09-2.9676,16.0452,16.0452,0,0,0-9.1233,0,5.0642,5.0642,0,0,0-3.09,2.9676,9.38,9.38,0,0,0,0,6.1313,5.13,5.13,0,0,0,3.09,2.9676,12.7518,12.7518,0,0,0,4.5617.662,18.6573,18.6573,0,0,0,2.4279-.1226,11.2483,11.2483,0,0,0,2.1337-.5149,4.9627,4.9627,0,0,0,3.09-2.943,8.5075,8.5075,0,0,0,.5151-3.0657A8.1855,8.1855,0,0,0,220.3951,174.1045Zm-3.6788,4.807a2.674,2.674,0,0,1-1.2753,1.4223,5.6932,5.6932,0,0,1-2.6977.49c-2.1337,0-3.458-.662-3.9486-1.9619a5.44,5.44,0,0,1,0-3.3845c.4906-1.3243,1.8149-1.9866,3.9486-1.9866a5.52,5.52,0,0,1,2.6733.54,2.861,2.861,0,0,1,1.3,1.4469,4.6866,4.6866,0,0,1,.2452,1.7413A4.4055,4.4055,0,0,1,216.7163,178.9115Z"/><path class="cls-1" d="M237.1948,178.6172a2.8242,2.8242,0,0,0-1.3243-1.7414,3.0323,3.0323,0,0,0,.6622-.7848,3.5534,3.5534,0,0,0,.3924-1.2754,3.4884,3.4884,0,0,0-.2452-1.6186,3.7169,3.7169,0,0,0-.8585-1.2262,3.4489,3.4489,0,0,0-1.2507-.8583,5.4171,5.4171,0,0,0-1.9621-.2945h-9.5893v12.68h10.0063a5.622,5.622,0,0,0,2.0111-.2943,3.8325,3.8325,0,0,0,1.2263-.8585,3.6047,3.6047,0,0,0,.8338-1.2508A3.3282,3.3282,0,0,0,237.1948,178.6172Zm-10.3741-4.7579h5.371a.9379.9379,0,0,1,.9811.9074.9.9,0,0,1-.9811.8583h-5.371Zm5.7879,6.5973h-5.7879v-1.7905h5.7879a.9167.9167,0,0,1,1.0056.9074A.942.942,0,0,1,232.6086,180.4566Z"/><path class="cls-1" d="M248.6236,170.818h-4.2673l-6.205,12.68h4.243l.76-1.5206H249.85l.76,1.5206h4.2182Zm-4.0221,8.118,1.8885-3.8015,1.8394,3.8015Z"/><path class="cls-1" d="M260.1014,180.4566V170.818h-3.8259v12.68H268.955v-3.0411Z"/><path class="cls-1" d="M291.42,174.8893v-.3434a3.9249,3.9249,0,0,0-.3189-1.5206,3.5042,3.5042,0,0,0-1.52-1.6431c-1.1037-.6377-2.9676-.9565-5.6164-.9565h-.0735c-2.6733,0-4.5372.3188-5.6164.9565a3.3855,3.3855,0,0,0-1.52,1.6431,4.088,4.088,0,0,0-.3432,1.6923,3.59,3.59,0,0,0,.3432,1.6186,3.91,3.91,0,0,0,1.8394,1.6678,7.7137,7.7137,0,0,0,1.4716.4169c.5886.0981,1.1526.1472,1.7168.1963s1.2752.0735,2.1091.098l2.3054.1226a2.81,2.81,0,0,1,.7848.1717.6326.6326,0,0,1,.466.6131c.049.5151-.3188.8584-1.1282,1.0546a13.519,13.519,0,0,1-2.3545.1471h-.0735a14.3129,14.3129,0,0,1-2.428-.1471,1.9994,1.9994,0,0,1-.8584-.3923,1.2239,1.2239,0,0,1-.2452-.8094v-.0981h-3.9485v.3189a3.6527,3.6527,0,0,0,.3432,1.52,3.3833,3.3833,0,0,0,1.52,1.6923c1.0792.6131,2.9431.9319,5.6164.9319h.0735c2.6,0,4.4636-.3188,5.5918-.981a3.5042,3.5042,0,0,0,1.5206-1.6432,4.0878,4.0878,0,0,0,.3188-1.6922,3.134,3.134,0,0,0-.3434-1.5942,3.6274,3.6274,0,0,0-1.8394-1.6923,5.7825,5.7825,0,0,0-1.4469-.3923c-.5887-.0982-1.1527-.1717-1.7413-.2208-.564-.0491-1.2754-.0735-2.1337-.098l-2.2319-.1226a6.4436,6.4436,0,0,1-.7848-.1472.71.71,0,0,1-.5149-.5642c-.0737-.5394.27-.8828,1.03-1.0791a12.59,12.59,0,0,1,2.379-.1961h.1716a13.2144,13.2144,0,0,1,2.4281.1961,1.65,1.65,0,0,1,.8583.3925,1.0316,1.0316,0,0,1,.2452.8092v.0737Z"/><path class="cls-1" d="M308.9556,174.1045a5.0037,5.0037,0,0,0-3.09-2.9676,12.0969,12.0969,0,0,0-4.5371-.6621,12.3619,12.3619,0,0,0-4.5862.6621,5.025,5.025,0,0,0-3.0656,2.9676,8.9767,8.9767,0,0,0,0,6.1313,5.1536,5.1536,0,0,0,3.0656,2.9676,12.8907,12.8907,0,0,0,4.5862.662,18.0427,18.0427,0,0,0,2.4034-.1226,11.0485,11.0485,0,0,0,2.1583-.5149,4.8666,4.8666,0,0,0,3.0656-2.943,8.0063,8.0063,0,0,0,.5151-3.0657A7.3358,7.3358,0,0,0,308.9556,174.1045Zm-3.6788,4.807a2.58,2.58,0,0,1-1.2752,1.4223,5.5837,5.5837,0,0,1-2.6733.49c-2.1337,0-3.458-.662-3.9731-1.9619a5.4439,5.4439,0,0,1,0-3.3845q.7726-1.9864,3.9731-1.9866a5.52,5.52,0,0,1,2.6733.54,2.812,2.812,0,0,1,1.2752,1.4469,4.686,4.686,0,0,1,.2454,1.7413A4.4049,4.4049,0,0,1,305.2768,178.9115Z"/><path class="cls-1" d="M315.4058,180.4566V170.818H311.58v12.68h12.7041v-3.0411Z"/><path class="cls-1" d="M336.007,170.818v6.3276a5.92,5.92,0,0,1-.1226,1.2262,2.4724,2.4724,0,0,1-.8339,1.4716,2.4247,2.4247,0,0,1-1.2263.54c-.27.0491-.49.0491-.6377.0737h-1.1771c-.1472-.0246-.3434-.0246-.6132-.0737a3.0814,3.0814,0,0,1-.6867-.1717,3.04,3.04,0,0,1-1.1036-.9565,4.5093,4.5093,0,0,1-.4415-2.1091V170.818H325.363v6.3276a7.5971,7.5971,0,0,0,.5642,3.1147,5.3216,5.3216,0,0,0,1.7166,2.2317,7.88,7.88,0,0,0,4.9542,1.398,11.5364,11.5364,0,0,0,2.5751-.27,6.6059,6.6059,0,0,0,2.4035-1.1283,5.0589,5.0589,0,0,0,1.6923-2.2562,7.8147,7.8147,0,0,0,.564-3.09V170.818Z"/><path class="cls-1" d="M341.2309,170.818v3.0413h5.0767v9.6384h3.8259v-9.6384h5.0522V170.818Z"/><path class="cls-1" d="M356.8289,170.818v12.68h3.8259v-12.68Z"/><path class="cls-1" d="M378.5827,174.1045a5.0642,5.0642,0,0,0-3.09-2.9676,12.2292,12.2292,0,0,0-4.5616-.6621,12.4385,12.4385,0,0,0-4.5862.6621,5.0871,5.0871,0,0,0-3.0657,2.9676,9.38,9.38,0,0,0,0,6.1313,5.154,5.154,0,0,0,3.0657,2.9676,12.974,12.974,0,0,0,4.5862.662,18.0445,18.0445,0,0,0,2.4034-.1226,11.0509,11.0509,0,0,0,2.1582-.5149,4.9627,4.9627,0,0,0,3.09-2.943,8.5053,8.5053,0,0,0,.5151-3.0657A8.1855,8.1855,0,0,0,378.5827,174.1045Zm-3.6788,4.807a2.6736,2.6736,0,0,1-1.2753,1.4223,5.693,5.693,0,0,1-2.6977.49c-2.1337,0-3.458-.662-3.9731-1.9619a5.96,5.96,0,0,1,0-3.3845q.7726-1.9864,3.9731-1.9866a5.52,5.52,0,0,1,2.6733.54,2.8605,2.8605,0,0,1,1.3,1.4469,5.2617,5.2617,0,0,1,.2452,1.7413A4.9414,4.9414,0,0,1,374.9039,178.9115Z"/><path class="cls-1" d="M392.5376,170.818v7.8481l-6.8916-7.8481h-4.4391v12.68h3.8014v-7.235l6.4011,7.235h4.93v-12.68Z"/><path class="cls-1" d="M413.58,174.8893v-.3434a3.9212,3.9212,0,0,0-.3189-1.5206,3.6326,3.6326,0,0,0-1.52-1.6431c-1.1037-.6377-2.9676-.9565-5.6164-.9565h-.0981c-2.6487,0-4.5127.3188-5.6162.9565a3.6309,3.6309,0,0,0-1.52,1.6431,4.5218,4.5218,0,0,0-.3189,1.6923,3.589,3.589,0,0,0,.3433,1.6186,3.91,3.91,0,0,0,1.8394,1.6678,7.9657,7.9657,0,0,0,1.447.4169c.5886.0981,1.1772.1472,1.7414.1963s1.2752.0735,2.1091.098l2.3054.1226a2.47,2.47,0,0,1,.76.1717.655.655,0,0,1,.4906.6131c.0489.5151-.3434.8584-1.1282,1.0546a13.7138,13.7138,0,0,1-2.3545.1471h-.0981a13.9791,13.9791,0,0,1-2.4034-.1471,1.8668,1.8668,0,0,1-.8585-.3923,1.1048,1.1048,0,0,1-.2451-.8094v-.0981h-3.9486v.3189a4.08,4.08,0,0,0,.3189,1.52,3.622,3.622,0,0,0,1.52,1.6923,12.3239,12.3239,0,0,0,5.6162.9319h.0981c2.6,0,4.4636-.3188,5.5918-.981a3.5042,3.5042,0,0,0,1.5206-1.6432,4.0846,4.0846,0,0,0,.3188-1.6922,3.1319,3.1319,0,0,0-.3434-1.5942,3.6274,3.6274,0,0,0-1.8394-1.6923,6.0944,6.0944,0,0,0-1.4469-.3923c-.5887-.0982-1.1773-.1717-1.7413-.2208s-1.2754-.0735-2.1337-.098l-2.2563-.1226a6.99,6.99,0,0,1-.76-.1472.71.71,0,0,1-.515-.5642c-.0737-.5394.27-.8828,1.03-1.0791a12.3824,12.3824,0,0,1,2.379-.1961H406.1a13.214,13.214,0,0,1,2.428.1961,1.65,1.65,0,0,1,.8583.3925,1.0316,1.0316,0,0,1,.2452.8092v.0737Z"/></g></g></svg>