<?xml version="1.0" encoding="utf-8"?>
<!-- Generator: Adobe Illustrator 25.2.1, SVG Export Plug-In . SVG Version: 6.00 Build 0)  -->
<svg version="1.1" id="Layer_1" xmlns="http://www.w3.org/2000/svg" xmlns:xlink="http://www.w3.org/1999/xlink" x="0px" y="0px"
	 viewBox="0 0 1237 1160" style="enable-background:new 0 0 1237 1160;" xml:space="preserve">
<style type="text/css">
	.st0{opacity:0.7;fill:#010307;stroke:#FFFFFF;stroke-width:3;stroke-miterlimit:10;}
	.st1{fill:none;stroke:#FFFFFF;stroke-width:10;stroke-miterlimit:10;}
	.st2{fill:#006694;stroke:#FFFFFF;stroke-width:0.25;stroke-miterlimit:10;}
	.st3{fill:#FF0000;}
</style>
<g id="Layer_2_1_">
	<g id="Layer_1-2">
		<image style="overflow:visible;enable-background:new    ;" width="1237" height="1160" xlink:href="59AA51DEC17A1452.png" >
		</image>
		<rect x="95" y="95.4" class="st0" width="1046" height="969"/>
		<polyline class="st1" points="95,272.4 95,95.4 272,95.4 		"/>
		<polyline class="st1" points="964,95.4 1141,95.4 1141,272.4 		"/>
		<polyline class="st1" points="1141,887.4 1141,1064.4 964,1064.4 		"/>
		<polyline class="st1" points="272,1064.4 95,1064.4 95,887.4 		"/>
		
			<image style="overflow:visible;enable-background:new    ;" width="966" height="919" xlink:href="59AA51DEC17A1456.png"  transform="matrix(1 0 0 1 120 123)">
		</image>
		<path id="AU-NT" class="st2" d="M557,263v-0.6l1.1-1.4l-2.7-1.8l0.6-1.4l0.7-0.4l2.7,0.1l0.2-0.6l-0.2-1.7l-0.5-1.1l0.5-0.7
			l1.7,0.1l1.9,1.2l2.5,0.1l1.8,1.3l1.1,0.2l8.5-0.6l2.5,0.8l3.1-2.1h2.7l1.1,2.1l-0.7,1.4l1-1.1l0.1-0.5l-0.4-2.3l0.4-0.7l2.6-0.9
			l2,0.7l1.3-0.1l-0.7-0.1l-1.4-1l-0.2-0.9l0.1-5.6l1.1-1.7l-2.9-2.2l-1-1.4l-0.8-0.5l-1.5-0.3l-2.8,0.5l-2.4,1.3h-0.4l-1.8-1.8
			l-0.4-1.3l-2-1.1l-1.8,0.2l-0.1-0.2l2.1-2.5l2.1-1l2,2l1.5,3.4l0.7,0.1l0.6-1.1l-0.8-2.6l-0.9-1.6l0.7-0.2l1.8,0.6l1.2-0.7
			l3.2,2.6l0.2,0.9l3.1,3.9l1,0.2l0.9-0.7l2-2.9l0.8,0.1l1.5,1.6l2.9,5.2l0.7,0.6l1.3,0.4l1.1-0.7h1l1,1.4l2.7,1.2h1.3l0.9-0.3
			l1.9-1l0.7-1l2.1,0.4l0.2,0.6l-1.3,0.8l-0.3,0.5l0.1,0.5l0.6,0.6l1.4,0.6l1.1-0.5l0.6-0.7l0.4-0.1l2.6,2l-0.2,0.4l0.3,1.6l0.4,0.3
			l3.1-0.5l1,0.4l1.8,0.2l1.6-0.2l1.4-1.1l1.9-0.1l1.9,2.7l2.4,1.3l1.7,1.4l2.1,0.2l0.8,0.3l-0.1-0.4l0.8-2l1.2-1.2l1-0.4l1.1,0.5
			l2.9-0.3l1.5-1.2l-0.5-0.2l-1.1,0.7l-0.2-0.5l0.4-1.5l1.8-0.5h1.3l2.5-1.9l-0.1-1.4h0.7l0.7,0.8l-0.6,0.9l-3.3,2.8l0.8,1l-2.2,2.3
			l-0.1,0.6l0.4,0.9l0.9,0.9l1-0.4l0.3-0.8l1.6-1.3l2.7-0.8l-1.6,2.1l0.7,1l1.4-0.7l0.3,0.6L655,258l0.5,1.3l0.6,0.5l0.8-0.5
			l1.5-0.2l0.3,0.5l1.3-0.1l1-0.8l1.3-3.4l-0.5-0.7l-1.8,0.2l-1.2-0.5l-0.1-0.5l2-2l3.3-2.2l2.2-0.4l-0.4,1.5l1.2,3.4l1.4,2h0.9
			l0.8-0.5l-0.1-0.4l-1.3-0.5l0.1-0.4l1.6-0.4l2,1l2,2.7l-3.4,2.4l-1.1,1.3l-2,3.1l-0.4,2.4l-2.4-0.9l-0.2,1.3l1.2,2.2v1.9l-0.3,1.9
			l-1.3,2l-0.2-0.6l-1.6,0.5l0.1-3.5l-0.3-0.3l-0.6,0.1l-0.8,2.1l-1.7,1.4l-0.8,0l-0.3-0.8l-0.9-0.4l-2,0.8l-1.3,1l-0.7,1.2l0.1,0.6
			l0.8,0.6l-0.5,1.1l-0.8,0.7l-0.3,2.2l0.8,2.5l0.8,0.4l1.1-0.3l0.8-0.9l-0.1,1.5l-0.6,2.1l-1.2,1.9l-0.5,3.6l-0.5,1l-2.2,1.5
			l-2.5,3.3l-1.6,2.7v1.4l-2.4,1.6h-0.8l1.2,3.4l0.8,1.2l1.3,1.1l2.5,0.9l3.5,2.2l1.8,1.6l5.2,2.7l0.5,0.5l0.5,2.4l1.1,1.2l4.8,2.3
			l2,1.6l1.8,2l5.1,0.2l2,1.1l4.5,3.1l2.3,1h1.1l2,0.7l1.8,0.9l2.3,3.7l2.7,2.3l0,0v194.5l0,0H563.4l0,0h-25.7l0,0l-17.2,0.1l0,0
			l-0.1-180.4l0,0v-37.3l0,0V307l0,0l1.7,0.6l1.8,1.6l-0.2,3.6l0.3,0.4l1.3-1.6l-0.7-4.8l0.2-0.4l2,0.5l2.5,1.3l4,4.4l0.2,1l1.1-0.4
			l-1.3-1.7l-0.7-1.5l-0.2-1.5l0.4-0.8l0.2-1.3l3,0.5l1.2-0.4l1.5-1.5l-3.5,1.1l-1.8-1.1l-1.4-1.9l-0.3-0.9l0.7-0.4l1.5-0.2l1.3-0.9
			l0.1-0.4l-2.2,0.7l-2.3-0.4l-1.6-0.9l-1.9-1.7l0.2-1.6l1.2-2.2l1.2-1.6l4.6-2.9l1-4.9l-0.1-0.9l0.9-3.6l1.4-1.4l0.2,1.2l0.7,0.4
			l1.9-0.3l2.4-1.6l1.9-2l-0.2-0.7l-1.2-1.6l-0.7-0.5l-0.7-0.1l-0.2-0.4l0.2-3.5l0.3-0.9l0.8-0.4l0.3,0.5l0.6,0.3l0.7-0.2l1.3-1
			l0.5-1.1l-0.2-2.6l0.2-0.7l3-1.3l1.8,2l1.7-0.1l-1.6-0.5l-0.5-2.1l0.5-1.3l0.1-1.6l-0.6-0.5l0.9-0.4l2.7,0.9L557,263z
			 M558.2,249.3l-1.9-1.6l-3.5-1.4l-3.5-2.8l-1.4-3.8l-1-3.8l0.1-1.4l0.4-0.3l2.7,2.4l0.8,1.3l2.5,0.8l2.7-0.6l1-1l2,0.9l2.3-1.7
			l0.6-0.1l0.4,1.3l1,1.4l0.1-0.5l-0.7-1.6l0.2-1l1.3-1l2.8,1.1l2.1,2.8l0.2,1.5l-4.9,5.2l-0.6,0.1l-2.4,1.5L558.2,249.3
			L558.2,249.3z M672.9,293.3l0.3-0.5l0.8-0.1l-0.5,2.5l-1,0.4l-2.7-0.7l-2.3,0.3l-4.9-1.2l0.7-3.4l-0.1-1.5l0.4-1.6l0.5-0.9
			l2.6-0.5l0.6-0.5l-0.5-1.2l1.6-1.4l0.8,0.1l-0.2,0.9l-0.7,0.5l0.7,2.1l1.8,0.3l0.6-0.7l-0.2-0.7l0.4-0.5l0.6-0.2l0.6,0.4l0.2,0.7
			l-1.9,2l-1,0.7l-1.3,2.7v1.8l0.5,0.5l2.6,0.4L672.9,293.3L672.9,293.3z M549.2,247.3l-3.2-1.2l-4.5,1.1l-1.1-0.2l-0.3-0.5L540,246
			l1.1-1.9l0.9,0.5h0.7l0.7-0.7v-2.7l-0.3-0.8l1.6-2.8l1.7-0.4l2.8,7.1l1.4,0.4l1.4,1.3l-0.5,1L549.2,247.3L549.2,247.3z M665,239.9
			l0.1-0.9l2.6-3.8l1.7-3.3l0.9-0.5l-0.9,3.6l-3.1,4.4l-0.4,0.4L665,239.9z M589.7,237.7l-0.6-0.6l-0.7-1.9l-0.5-3.2l1.5-0.6l0.9,3
			v1.9L589.7,237.7L589.7,237.7z M675.6,326.1l-1.1-0.8l-1.2-1.8l0.4-1l1.1-1.1l0.9,1.1l0.7,2.4l-0.5,1.3L675.6,326.1z M659.2,287.1
			v-0.7l-0.6-1.1l-0.5,0.3l0.3,1h-0.8l-0.3-0.4l0.2-1.6l1.7-1.3l0.8,0.1l0.8,1.2l-0.3,1.3l-0.6,1L659.2,287.1z M658.8,244.5v-0.9
			l1.8-1.4l1.5-0.1l2.5-2l-0.2,1l-1.9,1.5L658.8,244.5z M665.4,322.5l-0.5-0.2l0.4-1.7l1.1-0.8l0.5,0.2l-0.3,2.2L665.4,322.5z"/>
		<path id="AU-WA" class="st2" d="M235.9,535.1l0.3-0.7v-2.6l-4.3-4.6l-2.3-4.3l-2.1-5.3l-2-1.2l-1.7-4.9l-0.2-0.9l0.2-1.9l-1.2-2
			l-2.4-2.8l-0.7-2l-0.1-4.2l0.8-2l0.4-2.6l1.6-5.3l1.3-2.7l2.7-2.1l0.5-1.8l0.3-2.4l-0.4-2.8l1.1-3.4l-0.2-2l-1.1-2.9l-1.6-2.2
			l-0.3-1.7l2.8-5.6l2.6-7.4l1.9-2.8l1.1-0.6l1.4-0.2l0.2,0.5l-1,1.8l-0.9,5.5l1.2,2.6l-0.6,3.8l0.8,0.9l4.2-1.8l0.5-2.2l1.2-3
			l3.2-5.5l0.5-1.7l5.6-3.1l2.1-0.2l3.7-1.8l4-1.5l3.2-3.8l1.2-0.9l2.4-1l2.3-3.5l4.5-2.1l0.5-1.3l1.2-0.7l1.2-0.1l3.2-1.1l2.5-1.6
			l2-1.6l1.6,0.3l0.8,0.8l0.9,0.2l3.7-2l1.9,0.7l0.6,0.7l1.4,0.6l1.4,0.3h1.2l5.4-1.1l3.2-1.4l4.2-4.1l2.1-1.3l0.3,0.5h0.8l6-1
			l2.2,0.1l2.8-0.9l2.9-3.5l0.6-1.5l1.9-1.5l2.1-0.2l4.7,1.2l2.8,1.1l3.9-2l8.8-1.3l1.9-0.6l10.4-4.4l2.9-1.5l4.8-4l4.1-5.5l2.9-6.3
			l2.7-3.6l-0.2-1.6l0.7-1.5l0.5-0.4l1.3,0.3l1-0.5l1.4-1.1l1-1.5l1.2-0.6l4-3.2l0.6-1.4l-0.1-1.1l-0.6-0.5l-1.5-0.4l-0.9-1.3
			l-0.2-3.8l-1.1-2.9v-3.9l0.6-2.4l1.6-2.7l2.4-2.2l1.3-0.8h2.5l-1-2.2l0.8-1.1l0.5-0.2l0.4,0.4h0.5l2.2-0.8l0.2-0.6l-0.5-0.7
			l0.5-1.9l0.5-0.6l1-0.2l1-1.1l0.1-1.1l0.4-0.7l1.4-0.5l1.3,1.3l-0.4,0.5l-1-0.1l-0.6,2.2l1.2,1.7l1.5,0.9l0.4,1.5l3.7,6.9l4.7,7.6
			l0.4,1.7l0.4-1.8l-0.7-1.3l0.1-1.6l1.1-3.2l-0.9-2.7l0.4-1.5h1.2l2.5,3l1.4,1.3l0.7,0.3l0.5-0.3l-0.7-0.4l-0.9-1.1l-0.7-2.8
			l1.8-2.1l-0.6-0.3l-1.5,0.4l-0.3-0.2l-0.9-2l-2.1-2.3l0.1-2.2h-2.2l-1.5-1.3l1.3,0l2.8,0.6l1.3-2l0.2-1l-0.2-0.8l-2.1-0.4
			l-0.7-0.6l-0.1-1.8l0.3-0.6l3-0.7l1.5,1.2l-0.4,0.9l-1,0.3l2.1,2.2l1,0.2v-0.8l1.4-1.9l2.3,0.3l1,0.5l0.5,0.3l0.7,1.6l0.5,0.4
			l2,0.1l1-1.1l1.8,0.9l2,0.2l2.9-0.4l2.1,0.9l1.1-0.5l-1.5-0.1l-2.3-1.1l-1.6-0.4l-1-0.1l-1.6,0.5h-1.2l-0.3-0.4l-0.5-2.1l1-2.4
			l0.8-0.2l0.9,1.4l1.4-1l-0.1-1.8l0.6-2.1l2.2-2.2l-1.1-0.4l-1,0.3l-1.6,2.7h-0.9l-1.7-1.5l-0.5-3.9l1.6-3.8l0.6-0.3l1.8,1l1.4-0.8
			l0.3-0.5l-0.2-3.8l0.8-0.2l4,2l1.6,1.5l3.6,1.8l-2-1.8l-0.1-0.5l0.9-1.7l-0.4-0.4h-1.6l-1.9,0.7l-0.2-1.1l0.7-1l0.8-0.4l0.5,0.4
			l0.8-1.3l-0.6-0.2l-2.5,1.7h-0.5l-0.6-1.5l0.6-0.8l0.8-0.4l1.1,0.3l0.4-0.1l1-0.7l-0.3-0.7l1.2-0.8l1.3,3l0.3,0.2l0.2-0.9
			l-0.2-1.7l2.3,1.3l0,0.7l0.8,0.4l1.8-0.1l0.4-0.4l-0.3-0.3l-0.6,0l-0.5-0.5l0.6-0.5l-2.1-1.5l-1.9-0.9l0.6-0.8l0.5-0.2l-1.9-3.1
			l2.1-3l1.8-1.5l1,0.4l3.9,0.1l0.2-2.4l-0.4-2.3l0.2-1.3l0.5-0.4l2.1,1l-1.7,7.1l0.4-0.4l1.2-4.1l2.3,1.2l-0.3,2.1l0.4,0.7l1.1,0.7
			l1.7-1.9l0.9-0.6l0.5-3.4l1.5-3l0.1-1.2l-1.3-3.2l-1.2-0.8l1-0.2l1.5,0.2l1.3,0.7l-0.2,1.5l-1,0.4l0.6,2.2l0.8,0.2l1,1l0.5-0.8
			l-0.4-1l0.8-1.8l1.9-1.5l1.4-0.2l-0.9,2.2l2.2,2.8l0.6,0.2l2-2.1l1.6-3l-0.8-3.5l2.2-0.9l1.9-0.5l1.2,1l1.1,1.4l-0.3,0.8l1.4,1.7
			l0.5-0.8v-0.6l1.7-0.1l3.5,1.1l1.9,2.6l2.6,1.8l5.8,8l0.8-0.4l3.3,2.8l0.4,1.9l-0.9,1.3l-1.4,4.6l0.2,2.1l-0.1,3.8l-1,2l0.9-0.5
			l0.5-0.7l0.7-4.4l1,0.4l1.5,1.4l0.6,1.9l0.1-1.9l-1.3-2.2l-0.6-2.5l2.2-3l0.4,0.1l0.5,2.5l1.8,0.1l0.2-0.9l-0.8-1.4l-0.6-2.6
			l2.9-0.8l9,2.2l0,0v10.5l0,0v37.3l0,0l0.1,180.4l0,0l-0.2,124.7l0,0l-4,1.7l-4.6,2.7l-7.2,3.2l-3.3,1.3l-5.3,1l-7.8,3l-4,0.7
			l-8.4,0.4l-5.5-0.5l-4.3-1.2l-2.1,1l-1.9-0.4l-3.2,1.7l-5.6,4.6l-1.4,0.6l-2.7,0.6l-5.9,3.3l-2.2,2l-2.6,1.5l-6.6,1.1l-2.3,0.9
			l-1.8,1.5l-1.6,2.1l-2,5.8l-0.9,3.8l-1.9,1.3l-1.7,1.8l-0.6,1.3v0.6l-0.9,0.9l-2.9,2l-3.3-0.2l-0.5,0.2l-1.1,1.6l-0.9,0.7L408,713
			l-1.3-3l-1.6-0.7l-3.3,1.1l-2.2-0.3l-2.6,0.1l-0.4,0.4l-2.8,0.3l-1.5-0.3l-1.1,0.4l-0.7,0.8l-0.2,1.2l-2.6,0.3l-0.7-0.2l0.4-0.9
			l-0.6-2l-1.1-1.4l-0.4-0.1l-1.5,0.3l-1.1,1l-1.6,0.4l-5-1.8l-1.2-0.1h-2.4l-5.5,1h-3.6l-1.4,0.7l-4.9,0.7l-2.4,1.3l-3.2-0.8
			l-4.8-0.2l-3.7,1.1l-1.4,1.6l-2.4,1.3l-1,1.2l-1.6,2.8l-0.3,1.4l-2.7,2.7l-2.2,1.3l-2.5-0.9l-3.2-0.3l-3.3,2.2l-0.4,0.6l0.7,0.8
			l-0.7,0.8l-1.6,1l-3.1,1l-1.1,1.2l-0.6,1.5l-2,1.5l-3.9,2.1l-4.7,0.9l-0.1,0.5l0.5,0.5l2.7,0.6l-1.2,0.7l-1.5-0.3l-1.4-1.1
			l-1.1-0.4l-1.2,0.1l-0.6,0.4l-0.5,1.6l-1.5-1.2l-3.9-1.6h-7.4l-1,1h-0.4l-2.9-0.9l-2.4,0.4l-2.7-0.8l-4.7-3.2l-4.7-1.1l-1.2-2.7
			l-1.9-2.2l-3.2-3.3l-2.9-2l-3.5-1.8l-1.4-0.2l-1.4,0.3l-0.9,1.2l-2.2-2.3v-2l-1-7.2l-0.1-4l0.8-3.9l0.8,0.2l1.2,1.8l2.3,1l1.8-0.2
			l1.6-0.6l0.6-0.4l5.5-7.8l-0.8-6.5L262,682l0.4-1.5l1.5-1.8l-0.1,0.7l-1.1,1.2v0.9l0.8,2.2l0.5,0.8l0.4-0.2V683l0.9-3.3l-0.6-5.7
			l0.5-2.9l-0.3-2.2l0.1-4.6l-0.7-4l-0.5-1.3l-4.8-8.5l-1.3-4l-1.2-2.6l-2.8-4.8l-2.3-6l0.1-0.6l-0.6-4.5l-1.3-4.4l-0.4-0.3l0.1-8.6
			l0.7-4l-1-3.3l-0.5-0.8l-0.3-2.1l-1-2.4l-4.1-4.9l-0.5-1.6l-0.1-3.6l-1.6-3.2l-3.8-5.6l-1.4-0.9l-1.5-2.1L233,575l0.2-1.6l0.6-1.5
			l-0.4-2.2l-0.9-3.3l-2.6-5.5l-2.7-5l-4.1-6l-5.9-6.2l-1.1-3.4l0.9-1.8l-0.1-2l0.1-0.5l0.4-0.3l0.3,4.2l0.6,1.2l0.6-3.4l2.9,3.5
			l0.4,1.2l0.2,3.6l0.4,1.3l1.4,1.8l0.6,0.1l0.1-0.5l1.2-0.9l0.8,0.2l1.4-2.1l0.1-3.7l-1.4-1.8l-2.6-1.7l-1.9-2l-1.1-4.6l-1.9-3.2
			l0.3-1.8l1.2-1.9l0.6,0.4l1.8,3.2l2,1.8l0.7,2l-0.5,2.5l-0.5,0.6l0.1,1.8l0.6,1.7l1,0.1l0.6-0.7l1.6-3l1,5l0.5,1.4l2.1,2.9
			l2.5-1.8l0.5-1.7l-0.6-0.8l-0.4-1.5l0.6-4.1L235.9,535.1L235.9,535.1z M215.9,538.2l-0.6-0.5l-2.9-4.3l-1.4-2.9l-0.9-3.3l0.1-1.9
			l0.8-1.1l1,0.2l-0.4,0.9l0.1,0.6l2.3,6.5l2,3.5l0.4,1.4L215.9,538.2z M434.1,318.4l-0.2-0.5l-1-1l0.1-0.9l0.5-0.8l1.3-0.5l1.7,2.8
			L434.1,318.4z M257.6,428.1l-0.7-0.5l-0.5,0.5l-0.1-0.2v-1.1l2-2.7l0.6-0.4l0.2,0.1l0.3,1.4l-0.1,0.6l-1.1,1.7L257.6,428.1z
			 M445.9,302.6l-1-0.5l0.1-1.5l0.4-1.1l0.9-0.9l0.9,1l-0.4,2.2l-0.7,0.3L445.9,302.6z"/>
		<path id="AU-ACT" class="st2" d="M906.8,757.5l-2.2-1.1l-2.5-3.8l-0.5-1.4v-3.3l0.9-4.5l5.1-3.7l2.3,1.3l1,1.2l1.8,0.7l1.2,0.8
			l-0.9,0.8L911,744l-1.4,0.7l-0.9,1.3l-1.1,4.4l0.4,4.9l-0.2,0.7L906.8,757.5z"/>
		<path id="AU-NSW" class="st2" d="M924.8,795.6l-34.2-17.2l-1.7-0.1l1.6-2.7l0.2-1.7l-1.8-3.6l-1.2-1.6l-1-7.8l-2.1-1.3l-3.2-1.4
			l-1.7,0.6l-2.7-0.5l-1.8,0.3l-1.8,2.2l-1.7,0.2l-3.2,1.1l-2.6-0.2l-4.3-1.3l-1.7-1.3l-2-0.3l-1.2,0.2l-0.7,0.7l-2,0.9l-4-0.4
			l-5.5-1l-1.3-0.6l-2.3-2.2l-1.4-1.1l-0.5,0l-1.5,0.3l-1.7,0.9l-1.7-0.2l-0.7-0.5H831l-2.4,0.6l-0.3,0.4l-0.7,2.5l0.3,2.4l-3.4,1
			l-0.7-0.2l-2.4-1.4l-4-4.7l-1-2.3l-0.5-0.5l-1.1-0.4l-2-1.7l-1.5-2.1l-3.2-1.8l-3-2.2l-1.4-0.5l-0.8,0.2l-1.2-0.9l-0.3-0.5
			l0.4-1.3l-0.7-1.2l-1.6-0.4L798,740l-0.9-2l-0.5-2.9l0.5-2.3v-1.5l-0.2-0.4l-4.1-2.2l-2.9-0.2l-2.3-0.9l-0.3-0.6l-1.2-0.8
			l-1.1,0.4l-0.3,0.5l-0.6,2.8l-0.9,1.1l-1.6-0.3l-0.7-0.8l0-0.5l-1-2.8l-1.7-1.6l-0.1-3.3l-2.7-4.5l-1.5-1l-2.2-1l-3,0.6l-2.9-0.8
			l-1.7,0.7l-1.1,1.5l-0.9,0.5l-0.3-0.5l-2.1-1.3l-3.2-1.5l-3.3-0.2l-0.6-0.2l-0.9-0.9l0,0l0-113.1H905l1.5-0.7l2.3-2.8l6.2-5.2
			l2.1-0.6l0.5,0.1l0.3,0.6l1.7,0.5l5.9-0.5l2.8-1.1l2.6-0.3l0.5,0.1l1.5,1.5l1.3,0.9l3.2,0.1l2.9-0.6l4.9,2.2l4.9,4.2l0.2,3.3
			l0.8,1.7l0.4,0.2l0.9-0.2l0.9-1l1.7-3.5l3.3-1.5l0.7,1.4l1.2,0.6l3.7-1.8l0.6-3.6l-1.6-4l1.9-1.5l2.2-1.1l3.8-1.3l0.8-0.5l0.4-1
			l1.1-0.9l0.8,0.1l1.3,1.3l3.2,0.7l3.6-0.4l3.2,0.2l1.5-2l2.6-0.5l2.1-0.8l1.4-1.2l0,0l1.4,1.3l0.3,1.4l-0.6,4.7l0.3,2.5l0.9,1.2
			l-0.4,4.4l-3,4l-2.1,6.3l0.5,1.5L988,621l-0.9,3.6l-3.6,10.1l-0.2,6l0.3,1.1l0.7,0.1l0.3,1.4l-2,6.6l-0.4,2.6l-2,6.7l-1.7,3.5
			l-3.9,4.9l-0.9,2.3l0.6,3l-0.2,3.2l-3.4,2.8l-1.4,1.7l-3,1.8l-0.2,1l0.5,1l-3.7,1.3L960,687l-2.8,4.1l-1.8,4.5L955,696l-1,0.1
			l-0.9,0.7l-0.2,1l0.8,0.7l-0.6,2.5l-2.2,3l-0.8,6.2l-0.5,1.7l-0.7,0.5l-1.1-0.1l-1.5,0.6l1.1,0.3l0.8,0.7l-1.6,2.5l-1.7,1.3
			l-1.7,2.5l-1.8,5.3l0.8,1l-1,4.4l-1.2,0.8l-0.4,1.3l0.7,2l1.3,1.4l-0.3,1.6l-0.5,0.5l-0.6-0.7l0.2-0.5l-0.3-1.1h-0.5l-1.2,0.8
			l-0.1,0.8l0.5,1.2l-1,1l-2.1,1.1l-1,2l-0.1,1l-1.4,4.1l-1,1.6l-3.8,8.2l-0.5,4.1v5.2l-1.1,1.5l-1,5.7l-1.1,4l-1.2,3.1l0.1,3.5
			l1.9,2.2l0.2,1.7v0.8l-0.6-0.2l-0.8,0.6v2.8L924.8,795.6L924.8,795.6z M907.9,756l0.2-0.7l-0.4-4.9l1.1-4.4l0.9-1.3l1.5-0.7
			l1.8,0.2l0.9-0.8l-1.2-0.8l-1.8-0.6l-1-1.2l-2.3-1.3l-5.1,3.7l-0.9,4.5v3.3l0.5,1.4l2.6,3.8l0.5,0.4l1.9,0.7L907.9,756L907.9,756z
			"/>
		<path id="AU-SA" class="st2" d="M661.2,717.2l-1.9,3.1l-1.6,0.7l-1.7,2.8l-2,1.2l-1.2,2.4l-1.4,4.1l0.5,0.2l0.9-0.1l2.6-1.8
			l0.3,1.2l-0.3,4.6l-0.9,0.4l-0.5-1l-1.6-1.8l-1.2-0.7l-1.2,0.2l-0.8,2h-0.7l-0.7-1.4l-2.5-3.3l-2.9-3l-1.5-1.2l-0.6-0.2l-2,0.7
			l0.8-2.1l1.1-1.6l0.1,1.5l2.5,2.7l1,0.7l1.9-0.6l-2-0.8l-0.2-0.7l-0.1-0.6l0.3-0.7l-0.8-4.8l-1.5-3.9l-0.2-2.6l-1.3-2l-3.1-3.5
			l-3.7-3l0.5-2.2l-0.2-1.6l-1-2.7l-2-4l-2.2-0.8l-3.6,0.6l-1.5,0.9l-1.2-1.3v-0.6l-1.4-3.8l-2.3-5.3l1.5,0.1l0.8,0.7l0.3,1.2
			l1.3-1.8l0.4-1.2l-0.4-2l-1.4-1.9l-1.2-1l-0.5-0.1l-3,1l-1.2,1.2l-0.7-0.1v-1.8l0.5-1.3l1,0.4l0.3-0.5l-2.4-3.3l-1.9-1.1l-1.2-1.1
			l0.2-0.8l-1.3-0.4l-0.5,0.4l-0.3,1.2l-1.6,1l-6.1-0.4l-0.6-0.2l-1.3-1.5l-1.8-0.6l-2.7-2.6l-0.9-0.5l-3.9-0.5l-1.8,0.4l-1.4,1.3
			l-1.7,0.6l-1.2,0.1l-1.3-0.3l-3.2-3.3l-5-3.6l-7.8-4l-4.2-1.6l-0.6,0.1l-2,1.6l-3.2,1.3l-1,0.1l-10.2-0.8l-2.2,0.1l-4.1,0.3
			l-1.9,0.5l-11.7,1l-4.4,0.7l0,0l0.1-124.6l0,0l17.2-0.1h214v64.9l0,0l-0.1,113.1l0,0l-0.5-0.7l-0.1,96.6l0,0l-2.2-0.2l-1.5,0.5
			l-1.4-0.1l-3.2-1.7l-3.4-3.4l-2.3-4.6l-2.3-3.4l-1.4-1H732l-3.5-4.7l-1.2-2.4l0.6-1.2v-1l-0.9-2.2l0.4-2.2l1.4-1.1l0.8-1.9v-3.2
			l-0.7-2.5l-3.4-8.2l-5.3-7.1l-3.5-3.8l-2.1-1.7l0.9,0.3l5.3,4.6l3.5,4.8l1.5,3l-0.2-1.7l-0.9-2.5l-0.7-1.1l-2.3-2.7l-6.7-6.4v-2.1
			l1.2-0.5l1.5,1.3l-0.2,3l0.3,0.4l1.8-0.2l0.5-2.1l0.2-3.1l-0.3-2.3l-2.8-1.4l-1.5,1.5l-1.1,0.3l-1.1-0.1l-1,0.4l-0.4,1l0.2,0.6
			l1.1,0.3l0.4,0.5l-0.9,1.1l-5.2-0.5l-1.4,0.6l-1.2,1.4l-1,0.7l-7,0.4l-1.6-1.2l1.2-2l2.5-1.3l3-3.2l0.5-3.1l-0.2-0.8l0.2-1.5
			l0.9-2.1l-0.6-3.8l0.4-2.1l-0.2-1l-1.2-2l-3.1-3.8l-1.1-3.8l-2.5-4.2l-0.5,0.1l-1,2.6l0.5,1l-0.3,1l-1.8,1.9l-0.7,2.3l-0.3,4.3
			l-2.4,7.9v2l-1.4,1.2l-2.7-1.2l-1.4-0.3l-0.7,0.1l-3.7,1.3l-0.8,1.3l-0.5,0.3l-2.7-0.4l-1.5,1.3l-1.1,0.4l-0.6-0.3l-0.5-0.9
			l0.7-1.2l1.3-1.3l0.5-1.1l0.3-3.3l0.9-1.3l1.6,0.6l1.7-0.4l1.7-0.1l0.3,0.5l1.7,0.7l1-0.5l0.4-1l0.8-5.6l-0.3-4.3l0.2-4.3
			l-0.8-2.9l0.3-0.4h0.9l0.6-1.1l1-3.2l0.2-1.7l3.4-4.3l2.2-2.1l0.8-0.2l0.3-0.8l-0.6-2.7l-2-3.8l0.6-1.7l1.1-0.8l1-0.4h1.2l0.5-0.4
			l-0.1-1.2l-0.6-1.1l-1-0.5l-1.1-5.1l-1-2.2l-0.5-2.8l-1-0.8l-0.2,3.7l0.5,0.2l0.4,0.8l0.1,2.4l-0.6,3.3h-1l-2.5,0.8l-2.1,2.2l-2,4
			l-0.1,1.9l-0.4,1.1l-2.9,5.5l-1.3,1.1l-2.3,0.1l-1.4-0.8l-1.3,1.9l0.4,0.2l-0.8,0.8l-5.5,2.9l-3.2,2.5l-1.1,1.1l-0.1,0.8
			L661.2,717.2L661.2,717.2z M692.2,753l2.9,0.8l0.9,1.3v1.2l-1.4,1.3l-2.3-1.1l-3.1-0.2l-2.7,1.3l-0.3,0.5l0.2,1.6l-0.5,0.5
			l-2.5,1.2l-1.9-1.9L679,759l-0.7,0.2l-0.2,0.9l-0.5,0.3l-2.3-0.2l-2.5,0.4l-3.6,0.1l-0.6-1l-2.7-2.3l-0.1-0.8l0.9-2.7l7.1-2.1h1.5
			l1.8-0.4l3.8-1.7l4,0.3l1.1,1.1v1.8l0.3,0.3l1.8,0.2l1.9,1.1l1.1,0.1L692.2,753L692.2,753z"/>
		<path id="AU-VIC" class="st2" d="M917.1,801l-2.3,1.2l-2.8,0.3h-9.3l-3.2,0.5l-3.2-0.1l-3.6,0.2l-6.7,2l-4,2l-4.2,3.2l-3.2,3
			l-3.1,3.1l-4.7,5.5l-1.8,1.6l-4.3,0.5l-4.2,1.1l-1.5-0.5l-1.8,0.1l-0.8,0.3l-0.7,1l2.2,3.9l2.2-1.6l0.4-1.5l0.7,0.3l0.3,6.7
			l-1.1,1.4l-0.6,0.3l-0.9-0.4l-0.5-0.8l-1.4-3.7l-2-2.5l-1.5-0.6l-1,0.3l-0.3,0.8l-1.9-0.2l-1.6-3.2l0.5-0.8l-0.6-1.1l-1.7-0.3
			l-1.3,0.9l-1,0.2l-0.8-0.5l-2.9-2.9l0.3-2.3l1.7-0.7l0.7-1.2l-1.3-3.1l-0.8-0.5l-3.6,0.3l-0.8,2.7l-3.5,3.6l-1.7,0.3l-0.8-0.1
			l-2.7-3.1h2.3l2-0.9l2.8-5l-0.6-2.3l-2.4-3.7l-1.1-0.6l-1.8,0.8l-2.6,2.5l-3.2,2.4l-2.7,0.3l-0.3,0.3l0.1,0.9l2.7,0.5l1.5-0.5
			l0.9-0.7l1.3,0.4l0.3,0.7l-0.2,1.1l-1,1.5l-0.5,0.3l-1.7-0.4l-3,0.6l-0.6,0.4l-5.8,3.9l-4.2,5.2l-2.1,0.6l-0.7,0.5l-0.4,1.1
			l-2.5,1.8l-0.7-0.2l-1.2-1.4l-1.1-0.6l-4-1.3l-0.9-0.9l-1.6-1l-1.5-0.2l-3.2-1.3l-5.2-4l-3-1.2l-2.1,0.5l-0.4,0.4h-1.7l-1.9-1.1
			l-1.9-1.6l-2.8-0.6H766l-1.4,0.4l-1.1,1v0.8l0.6,1.2l-1.5,0.4l-2.3-1.1l-1.7-2l-3.3-3.1l-1.7-1.1l-2.5-1.3l0,0l0.1-96.6l0.5,0.7
			l0,0l0.9,0.9l0.6,0.2l3.3,0.2l3.2,1.5l2.2,1.3l0.3,0.5l0.9-0.5l1.1-1.5l1.7-0.7l2.9,0.8l3-0.6l2.2,1l1.5,1.1l2.7,4.5l0.1,3.3
			l1.7,1.5l1,2.8v0.5l0.7,0.8l1.6,0.3l0.9-1.1l0.6-2.8l0.3-0.5l1.1-0.4l1.2,0.8l0.3,0.6l2.3,0.9l2.9,0.2l4.1,2.2l0.2,0.4v1.5
			l-0.5,2.3l0.5,2.9l0.9,2l1.4,0.9l1.6,0.4l0.7,1.2l-0.4,1.3l0.3,0.5l1.2,0.9l0.8-0.2l1.4,0.5l3,2.3l3.3,1.8l1.5,2.1l2,1.7l1.1,0.4
			l0.4,0.5l1,2.3l4,4.8l2.4,1.4l0.7,0.2l3.4-1l-0.3-2.4l0.7-2.5l0.3-0.4l2.4-0.6h2.4l0.7,0.5l1.7,0.2l1.7-0.9l1.5-0.3l0.5,0.1
			l1.4,1.1l2.3,2.2l1.3,0.6l5.5,1l4,0.3l2-0.9l0.7-0.7l1.2-0.2l2,0.3l1.7,1.3l4.3,1.3l2.6,0.2l3.2-1.1l1.7-0.2l1.8-2.2l1.8-0.3
			l2.7,0.5l1.7-0.6l3.2,1.4l2.1,1.3l1,7.8l1.2,1.6l1.8,3.6l-0.2,1.7l-1.6,2.7l1.7,0.2l34.2,17.2l0,0l-1.5,1l-2.2,0.2l-2.2,3.3
			L917.1,801L917.1,801z M835.7,818l-1.4-0.5l-0.2-1.1l0.5-1.6l3.1,0.6l0.8,0.9l-0.2,0.3H837L835.7,818L835.7,818z M835.7,821.4
			l-0.7-0.8l-0.9-0.4l-3,0.2v-0.3l1.3-1.3l1.8-0.4l0.5,0.3L835.7,821.4L835.7,821.4L835.7,821.4z"/>
		<path id="AU-QLD" class="st2" d="M924.8,463v0.3l1.2,1.1l-1-3.5l-1.3-2.6v-1l0.7-2l0.8-1l0.8-0.2l0.7,0.3l1.5,2.3l0.9,2.5l2.3,1
			l3.1,2.1l2.2,1l-1.1-2.6v-1.6l0.5-1.1l1.4,0.2l1.4,2l-0.6,1.3l0.1,1l2.6,3.7l-1.2,8.3l1.1,2.2l-0.2,3l1.3,2.6l1.6,0.9l1.4,0.2
			l0.5,1.3l1.3,1l0.9,2.7l1.4,0.7h0.6l0.9,0.6l2,2.5l1.3,0.4l1,0.8l-0.3,0.5l0.1,0.6l0.5,0.2l0.9-0.9v-1.1l0.5-0.5l0.8,0.2l2,2.3
			l2.8,2.5l1.5,4.4l2.3,3.8l2.8,2.1l2.7,1.1l1,1.1l0.6,1.4l0.2,2.5l3.2,5.2l2.6,0.8l1.9,0.1l0.8,3.1l-0.2,1.9l-0.8,0.8l0.1,2.5
			l0.4,1.2l0.6,0.6l0.6,0.2l1,2.5l2.8,1.3l0.1,0.5l-0.9,2l-1.3,5.2l0.4,1.4l0.5,6.3l0.5,1.3l0.3,7.6l-1.2,0.4l-1.2,1.7l0.6,3
			l2.1,1.6l1.6,2l1.2,4.1l1.6,2.3l0.6,1.5l-0.4,2.9l1,2.4l0.9,1.2l0,0l-1.4,1.2l-2.1,0.8l-2.6,0.5l-1.5,2l-3.2-0.2l-3.6,0.4
			l-3.2-0.7L974,584l-0.8-0.1l-1.1,0.9l-0.4,1l-0.8,0.5l-3.8,1.3l-2.2,1.1l-1.9,1.4l1.7,3.9l-0.6,3.6l-3.7,1.8l-1.2-0.6l-0.7-1.4
			l-3.3,1.5l-1.7,3.5l-0.9,1l-0.9,0.2l-0.4-0.2l-0.8-1.7l-0.2-3.3l-4.9-4.2l-4.9-2.2l-2.9,0.6l-3.2-0.1l-1.3-0.9l-1.5-1.6l-0.5-0.1
			l-2.6,0.3l-2.8,1.1l-5.9,0.5l-1.7-0.5l-0.3-0.6l-0.5-0.1l-2.1,0.6l-6.2,5.2l-2.3,2.8l-1.5,0.7H792.8h-38.7l0,0l-2.3,0l0,0v-64.9
			h-57.9V340.5l0,0l3.7,3.1l1.8,0.7l3.8,0.9l3-0.2l0.9,0.7l3,1.3l3.2,0.5l2.5,3.5l0.4,2.6l1,1.9l0.9,0.9l1.5,0.5l1.9,0.2l1.9,1.3
			l1.6,1.6l3.8,1.1l1.3,0.8l1.9,1.7l0.8,0.3l2.2,0.1l5.1-0.9l2.7-1l1.7-0.9l2.7-2.1l1.5-0.5l1-1.8l1.1-4.2l0.3-3l4.6-5.9l1.8-4
			l0.6-2.9l2.1-5.6l-0.5-3.4l1.2-7.4l3.4-7.7l0.6-2.4l-1.9-5.2l-0.9-5.6l0.3-1.6l1.1-2.8l0.2-2.2l-0.4-1.5l-1.9-2.3l-0.2-2.4
			l1.4-5.8l2.8-5.5l-0.2-0.9l-0.9-1l-0.9-3.4l0.2-0.6l0.2-0.4l2-1.2l0.8-0.9l0.9-2.6l1.2,0.4l0.6,1.1v1.6l0.8,1.2l0.2-0.8l-1.1-3.2
			l-0.8-0.6l-2.3-3.5l0.6-0.5l-0.4-0.3l-1.3-0.1l-0.2,1.1l0.6,0.8l-1.1,0.4l-0.7-0.3V261l1.8-3.9l1.7-2.3l-0.3-0.7l0.9-2.5l0.8-1.2
			l0.8-0.4l0.5,2.3l2.1-0.4l0.2-0.5l-1.6-1.5l-0.1-0.8l0.4-2.3l3-8.5l0.7-4.4l-0.4-3.4l0.2-0.5l0.7-0.5l3-0.5l1.1-1.4l0.9-2.2h1.4
			l1.8,0.9l-0.6,0.9l-1.4,1.1l-0.2,1.8l1.2-1.6l0.7,0.1l2.6,2.2l0.8,1.8l1.5,6.1l-0.5,2.4l0.5,4l-0.1,2.3l2.1,1.9l1.3,0.1l1.3-0.6
			l0.5,0.2l1.3,1.4l-1.9,3l-0.4,1.7l-0.1,2.1l1,0.3l0.6-0.2l1.7,0.8l0.5,0.6l0.1,2.1l0.8,0.9l0.7,0.1l1.3,1l-1.1,2.5l-0.2,2.1
			l0.8,0.4l1.9-0.2l0.2,0.4l-0.3,4.3l0.4,4l0.1,0.7l0.8,0.7l0.5,1.1l-0.2,1.9l-1,4.5l1.4,3.5l1.6,1.7l0.2,3.2l0.8,2.6l0.9,1.9
			l0.7,0.7l1.4,0.8h2.4l2.7-2.1l5.4-2.5l0.8-1.8l0.8,0.2l1.2,1.8l-0.2,1.9l0.9,2.5l1.2,1.4l2.9,1.1l1.3,0.1l1.2,2.7l4.8,2.1l2.1,1.6
			l-0.1,1.2l-1.5,2.6l0.1,1.2l0.8,1.3l0.2,1.5l-0.8,2.3l1.1,2.1l1,3.6v3.6l1,1l1,2.4l-0.3,4.1l-0.7,1l-0.1,2.1l0.2,0.6l1,0.6
			l6.6,8.2l0.6-0.5l1.8-0.3l0.5,0.6l-1.5,2.8l0.1,0.6l1.4,2.3l1.5,3.5l1,3.8l0.3,2.8l-0.3,1.9l0.3,2.1l-0.1,1.3l-1.8,3.8l0.1,1.9
			l3.9,5.1l2.3,0.9l-0.1,2.2l-0.9,2l-0.2,2.1l0.2,0.7l1.1,1.5l1.7,1.3l0.5,0.9l2.2,1.5l1.7,0.8l2.1,0.1l2.4,2.4h1.3l2.3,0.8l1.3,1.2
			l2.2,0.5l3.5-0.3l0.3-0.6l-0.9-1.5l1.1,1.3l1.9,3.4l0.8,3.9l0.5,0.9l1,1l1,0.2l0.9-0.2L882,405l0.1-0.7h1.2l0.6,0.6l0.2,2.3
			l0.9,0.9l1.2,0.5l2.4-0.1l2.4,0.7l1.5,1.9l-0.6,0.2l0.2,0.5l1.1,1.4l1.5,1.2l1-0.4l0.1-1.2l-0.6-0.5l0.3-0.7l1.3,0.5l2.9,2.6
			l1.8,0.3l0.7,0.9l1.2,3.5l0.7,0.2l0.6,1.6l-1.1-0.3l-0.9-0.9l-0.8-0.4l-0.9,0.4l-1.4,1.8l1.2,3.2l2.3,2.4l1.4,1l2.1,0.7l2.6,2
			l1,1.3l-0.2,1.5l0.7,2.5l1,0.8l0.7,2.5l1.1,1.9l1.1,1l-0.2,3.9l1.8,6.3l1.3,3.2l1.2,1.8l0.8,0.7l0.1,2.1l-0.6,0.9l1.3-0.6l1-0.9
			l0.5-0.8L924.8,463L924.8,463z M984.6,530.8l-0.8-0.2l-0.8-1l-1-3.8l1-2.5l1.3-2.2v-1.8l-0.3-0.5l0.8-1.7l2-1.6l0.9-1.7l0.2-0.9
			l-0.2-0.7l-1.2-1.9l-0.4-0.2l0.7-1.4l1.7-1.1l0.2,4.3l0.4,1l0.9,0.6l0.2,0.7l-4.7,11.1l-0.9,2.8l0.3,1.7L984.6,530.8L984.6,530.8z
			 M716,344.7l-0.2-1.2l0.5-2l1.1-1.5l1.6-1.2l3.3-0.4l1-0.6l3.7,0.6l0.1,1.2l-0.8,0.4l-1.3,0.3l-0.8-0.7l-1.8,0.7l0.3,0.6l-1.2,2
			l-2.2,0.8l-2.8,0.5L716,344.7z M948.9,488.3l-1-1l-0.8-1.6l-1.3-1.2l-0.7-1.7l-0.2-1.5l0.8-0.2l2.7,1.7l0.4,0.6l1.2,2.4l0.2,1.6
			l-0.5,0.6L948.9,488.3L948.9,488.3z M853.7,379.5l-1.3-0.5l-0.4-1.9l-0.9-1.1l-0.9-0.4l-0.5-0.9l0.8-0.2l2.7,1.3l1.6,2.3l-0.6,1.1
			L853.7,379.5L853.7,379.5z M990.9,572.3l-0.3-0.7l0.1-1.8l0.7-4.2l0.8-0.2l1.3,0.2l-1.3,4.2l-0.4,2.4L990.9,572.3z M991.2,564.4
			l-1.2-3.6v-2.9l1.7-0.9l0.4,0.3l-1,3.8L991.2,564.4L991.2,564.4z M774.5,226.5l-1.2-1l-0.1-1.2l1.2-0.8l0.8-0.2l0.9,1.4l-0.1,0.7
			l-0.9,0.2L774.5,226.5L774.5,226.5z M776.4,216.6l-1.3-0.6l-0.4-0.6l0.8-1.1l1.1-0.2l0.6,0.3l0.5,0.8L776.4,216.6z M721.4,352.4
			l-0.5-1.1l2-1.9l1,0.7l0.3,1.5l-2.3,0L721.4,352.4L721.4,352.4z"/>
		<path id="AU-TAS" class="st2" d="M865.8,950.2l-1.6,0.8l-0.4-0.8l-2.5-0.4l-1.7-1.3l-1.6-0.4l-4.2-0.2l-0.4-0.3l-0.3-0.8l-0.5-0.2
			l-2.3,0.7l-1.4-0.5l-2-3.2l1.1-0.8l2.1,0.3l1,0.6l1.5,0.3v-1.7l-1.4-1.1l-0.8,1.3l-5.1-0.7l-0.4-0.3l-2.1-4.3l-2.5-4l-0.4-0.4
			l-1.2,0l-1-1.6l-0.7-1.5l-1.3-4.9l-0.8-0.9l-1-0.3l-1.1-7.8l0.1-1.5l0.4-0.5l0.5,0.9l3.4,2.6l0.8,3.9l1.6-4.5l-1-0.7l-0.8,0.1
			l-3.4-3.8l-0.4-1.1v-1.6l-0.3-1.2l-1.2-2.5l-2.5-2.4l-1.9-3.5l-5.2-12.7l0.2-0.9l-0.5-2.7l-0.6-1.1l-0.4-2.6l1.5-1.4v-3l1.2-0.8
			l4.3,0.5l2.5,1.9l3-0.5l1.2,1l3.9,1.3l6.4,3.8l6.2,2.9l4.1,0.4l1.8-0.5l1.7,0.9l-0.1-0.9l1.5-1.6l1.4-0.5l1,0.3l0.4,1.7l1,0.5h1.6
			l-0.6-0.8l-1.3-0.3L864,885l-0.1-1.2l0.9-0.8l3-1.3l2.5,0.8l4-0.8l1.2,1l1.4-0.8l1.9-3.4l0.4-0.3l1.2-0.3l0.5,0.7l2,0.9h0.7
			l1.2-0.7l0.6-1l0.3-1.5l0.4-0.4h0.8l1.3,0.6l2.7,2l1,1.3l1.1,2.4l-1.2,4.4l0.1,1.3l0.8,1l0.1,1.9l-0.8,3l0.1,2.2l0.7,1.9l-1,5.2
			l0.6,5.7l1.2,1.9l0.1,3l-1,1.4l-0.7-0.6l-0.1-0.6l0.5-0.7l0.2-1.7l-1.4-3.7l-0.8-1.4l-2.2,4.4l-1.5,10.5l-0.9,0.9l-0.3,1.5
			l0.2,2.7l-1.4,1.4l-0.8,2.6l0.3,0.4h0.8l-0.4-0.8l0.6-0.4l1.2,0.7l0.5,1l0.1,1.8l-0.7,0.5l-0.3,2.3l1,2.3l-0.2,1.5H886l-1.4-1.2
			l-1.4,0.6l-0.7,1.1l-1.8-2.2l-1.3-2.6l-0.2-1.3l1.1-1.9l0.6-0.2l0.5,0.4l0.1,0.6l-0.3,0.6l1.2,1.3l1.7-0.1l0.6-0.5l-1.4-2.5
			l-4.5-2.8l-0.7,0.1l-1.1,0.8l0.4,1.8l0.6,1.3l-0.5,1l-1.9,0.6l-0.4-1.1l0.4-0.2l-0.3-2.7l-1.7-1.1l0.6,1.5l-0.4,2.7l-1.1,1.4
			l-0.5,1.9l0.4,1.8l-0.3,1.7l-0.7,0.4l-0.7-0.1l-1.5-1l-1.4-1.7l-0.3-1.7l-0.4-0.2l-0.4,0.7v1.8l2.4,2.2l-0.8,2l-1,1.6l-1,2.8
			l-0.3,1.9L865.8,950.2z M889.2,863.8l-1.7-1l-0.5-1.9l0.1-0.5l-2.2-4.1l-2.8-2.5l2.3-3.1l1.7-0.7l3.8,5.1l0.7,0.5l1.5,0.4l0.2,0.7
			l0.9,5l-0.1,0.7l-0.5,0.5l-2.4,0.4L889.2,863.8z M808.1,860.3l-0.7-0.5l-0.2-1.3l0.4-0.3v-1.7l-1.1-1.4v-1.4l0.3-4l1.5-1.1
			l0.2-0.7l-0.2-1.4l0.8-0.2l1.7,1l0.8,1.2l0.3,4.1l0.5,2.6l-0.2,1.4l-0.6,1.3L808.1,860.3z M893.2,869.6l-0.1-1.2l-0.3-0.5
			l-4.5,0.6l-1.7-0.7v-1l1.3-1l1.3-0.1l1.3,0.4l2.7-1.4l2.6,3.1v0.3l-1.3,0.5L893.2,869.6z M873.2,947.4l-1.2-0.6l-1.2,0.3l-1-2.1
			l3.4-4.2l1.2,3.2l-0.9,3.1L873.2,947.4z M874.3,940.8L873,938l1.2-2.2l0.8,1.2l0.7,3.2l0,0.3L874.3,940.8z M886.9,927.4l0.1-3.5
			l1.1-0.9l1,0.1l0.9,1.7l-0.1,0.3h-1.3L886.9,927.4z M826.7,875.3l-0.3-0.2l-0.1-1.2l1.2-1.4l1.7,2L826.7,875.3z"/>
		<circle class="st3" cx="990.4" cy="609.6" r="23.2"/>
		<circle class="st3" cx="260.8" cy="649.8" r="23.2"/>
	</g>
</g>
</svg>
