<?xml version="1.0" encoding="utf-8"?>
<!-- Generator: Adobe Illustrator 25.2.1, SVG Export Plug-In . SVG Version: 6.00 Build 0)  -->
<svg version="1.1" id="Layer_1" xmlns="http://www.w3.org/2000/svg" xmlns:xlink="http://www.w3.org/1999/xlink" x="0px" y="0px"
	 viewBox="0 0 1237 1160" style="enable-background:new 0 0 1237 1160;" xml:space="preserve">
<style type="text/css">
	.st0{opacity:0.7;fill:#010307;stroke:#FFFFFF;stroke-width:3;stroke-miterlimit:10;}
	.st1{fill:none;stroke:#FFFFFF;stroke-width:10;stroke-miterlimit:10;}
	.st2{fill:#006694;stroke:#FFFFFF;stroke-width:0.25;stroke-miterlimit:10;}
	.st3{fill:#FF0000;}
</style>
<g id="Layer_2_1_">
	<g id="Layer_1-2">
		<image style="overflow:visible;enable-background:new    ;" width="1237" height="1160" xlink:href="635C6857FC9742E8.png" >
		</image>
		<rect x="95" y="95.2" class="st0" width="1046" height="969"/>
		<polyline class="st1" points="95,272.2 95,95.2 272,95.2 		"/>
		<polyline class="st1" points="964,95.2 1141,95.2 1141,272.2 		"/>
		<polyline class="st1" points="1141,887.2 1141,1064.2 964,1064.2 		"/>
		<polyline class="st1" points="272,1064.2 95,1064.2 95,887.2 		"/>
		
			<image style="overflow:visible;enable-background:new    ;" width="1118" height="520" xlink:href="635C6857FC9742E9.png"  transform="matrix(1 0 0 1 62 340)">
		</image>
		<path id="ID-AC" class="st2" d="M195.5,504l-0.2,0.1l-0.8-1.3l-1.5-1.6l-1.2-0.5l-0.7-0.1l-0.3-0.2l0.1-0.2l1.2-0.2l2.4,0.1
			l0.8,1.3l0.4,1.2v1L195.5,504z M162.9,431.7l3.1,1.7l0.1,0.8l0.3,0.5l1.2,1.2l2.1,1.7l1,0.4l4.7,1.2l4.8,0.3l2.3-0.4l2.6-1h0.4
			l1.1,0.6l1.8-0.4l1.3,0.1l1.7,0.6l0.4,0.4l0.4,1l0.7,0.2l1.2-0.2l4.6-1.8h0.6l1,1.1l1.3,1.8l2.6,2.7l1.8,1.6l1.4,0.3l1.1,2.1
			l0.2,1.8l0.5,1.1l0.5,0.7l-0.1,1.1l1-0.1l1.1,0.4l0.8,0.4l2.4,1.9l0.2,1.6l-0.4,1l0,0l-0.5,0.2l-1-0.2l-0.9,0.2l-0.1,0.4l-0.3,0.1
			l-0.7,0.1l-0.4-0.1l-0.1,0.2l0.4,0.6v0.5l-0.5,0.3l0.2,0.6l-0.6,0.8v1.1l-0.2,0.3l-0.3,1.6l-1.4,0.8l0.1,0.5l-0.2,0.3l-0.7-0.5
			h-0.2l-0.1,0.4l0.5,0.9l-0.1,0.4l-1.8,1.4l-0.5,0.7l0.4,1l0.6,0.6v0.4l0.3,0.2v0.9l0.9,0.4l0.2,1l0.7,0.5l-0.4,0.6l0.3,0.7v0.5
			l0.8,0.5l0.3-0.1l0.4,0.8l-0.3,0.9l-2.8,0.8l0.1,0.2l0.7,0.1l0.6,0.6l0.1,0.9l0.7,0.8l-0.1,1.1l-0.6,0l-0.2,0.1l0.2,0.3v0.6l0.3,1
			v1.3l1.1,0.3l0.7,1.2l1.1,0.1v0.3l0.3,0.4l-0.4,0.6l-0.1,0.5l0.2,0.8l0.6,0.6v0.3l-0.7,0.2l-0.3,1.7l0.2,1.2l0.5,0.7l-0.1,0.8
			l1,0.4l0.6,1.9l-0.7,3.3l0,0l-4.1-2.3h-0.5l-1.1,0.5l-2.5-0.6l-1.9-2.7l-0.1-4.7l-0.4-2.6l-0.7-2.1l-0.2-0.2h-0.9l-1.9-0.7
			l-0.6-0.3l-0.8-0.7l-1.5-2l-0.6-2.3l-0.6-0.9l-1.8-0.6l-1.9-3l-1.4-2.7l-1.7-0.9l-0.6-0.6l-0.4-1.3l-1.9-1.3l-3.1-0.2l-1.6,0.3
			l-0.8-0.2l-0.6-0.4l-2-1.9l-2.2-3.3l-2-2.1l-0.9-0.3l-1.6-1.1l-1.2-0.5l-1.4-1.2l-2.3-2.8l-3.4-3.1l-2.7-2.2l-2.2-3.4l-2.9-5.5
			l0.4-0.8l-0.1-0.4l-1.4-2.2l0.5-2.5l-0.7-1.5l0.2-1.9h1l2.6-1.6l0.5-0.1l3.4,0.5L162.9,431.7L162.9,431.7z"/>
		<path id="ID-BA" class="st2" d="M569.3,725.2l-0.6-0.1l-1.3-0.7l-1-0.8l0.2-0.4l0.7-0.7l0.3-0.1h1.2l0.3,0.2l0.7,1.4v0.3
			L569.3,725.2z M546.5,710.5l0.5,0.2l0.4,0.7l0.4,0.1l0.8-0.4l3.9,1.1l2.3,0.4l2.1-0.2l0.8-0.3l2-1.7l1.1-0.5l0.4,0.1l5.4,2
			l2.2,1.4l1.5,1.9l1.5,0.8l0.2,0.4l-0.1,0.4l-0.4,0.5l-1.6,1.3l-2.3,1.2l-1.2,0.4l-1.1,0.1l-1.4,0.7l-1.2,1.1v0.9l-1.6,0.9l0.6,0.8
			l0.1-0.5l0.3,0.8l-0.4,0.6l-1.3,0.3l-1.1-0.1l-0.2-0.4l0.9-0.8l0.7-0.3l-0.3-0.5l0.3-0.8l-0.4-0.6l-1.7-1.7l-3-2.7l-0.8-0.5
			l-1.9-0.7l-1.7-0.3l-2.5,0.2l-2.9-3.7l-0.3-2.2l0.2-0.5L546.5,710.5z"/>
		<path id="ID-BB" class="st2" d="M391.2,606.9l-0.8,0.2l-0.7-0.2l-2-1.2l0.4-0.9l1.4-0.6l2,0.9l0.2,0.3L391.2,606.9L391.2,606.9z
			 M410.5,597l5.2,1.4l3.7,3l0.6,2.1l-1.8,3.1l-0.1,2.3l-1.9,0.9l-0.5,1.3l-1.9,0.4l-0.2-0.3l-0.1-1.4l-2-2.3l-0.4,0.2l-0.5,0.6
			l0.4,0.5l-0.1,0.9l-0.5,0.3l-3.5,1.1l-0.7-0.3l-0.7-4.2l0.7-2l0.1-2.7l0.4-0.5v-1.1l0.3-2.3l0.3-0.4l0.9-0.1l1.2,0.1L410.5,597
			L410.5,597z M374.8,581.5l1,1.6l0.6,1.7v2.1l0.4,2.3l1.1,3.3l0.6,1.3l0.9,1.2l0.9,0.8l0.6,0.2l4.7,0.9l3.4,1.3l-0.8,0.5l-1.3,1.4
			l-1.5,3.9l-0.1,1l0.2,0.5l0.9,0.5l0.4-0.1l1.4,0.7v1.5l-0.5,0.5l-4.1,0.1l-1.6-2.5l-3.3-1.5l-2.8-0.8l-1.1-0.5l-2-0.2l-0.5-0.3
			l-1.1-1.8l-0.4-1.6v-0.7l0.8-1.8l-0.1-1l-0.7-0.6l-0.9-0.2l-0.7-0.9l-0.4-4.2l-0.2-0.4l-0.9-0.7l-5.5-0.6l-1.3,0.4l-1.5,0.1
			l-4.2-1l-0.3-1l0.4-1.5l0.7-0.5l2.2-0.8l2-1.4l0.3-0.4l0.1-0.5l-0.3-0.5l-1.1-0.7l0.2-1.1l1-1l1.3-0.8l2.5-0.8l0.6,0.1l0.9,2.1
			l0.2,2l1.1,0.9l1.5,0.3l0.6,0l-2.1-5l0.7-0.4l2.9-0.8l0.5,0.1l2.4,1.6l0.3,0.5l-0.3,1l0.2,0.7L374.8,581.5L374.8,581.5z"/>
		<path id="ID-BE" class="st2" d="M292.3,601.7l0.2,0.7l1,0.6l0.2,0.8l1,0.6l0.2,0.3l0.5,0.2l0.4,1.4l0.5,0.8l0.7,0.2l0.6,0.5
			l1.4-0.5l1.1,0.3l0.8,0.7l0.3,0.9l-0.1,1.4l0.3,0.2l-0.2,0.6l2,1.8l0.8,0.1l0.3,0.3l0.9-0.7h1l1.1-0.7l0.3,0.1v0.4l0.4,0.5
			l0.3-0.1l0.7,0.3l0.7-0.3l-0.2,0.1l0.1,0.7l0.2,0.2l1-0.4l0.9,0.1l0.2,0.5l-0.2,0.4v1l-0.2,1.1v0.2l-0.4,0.1l-0.4,0.8l-0.9,0.9
			l-0.2-0.1l-0.4-0.8l-0.6-0.7l-0.6-0.4l-0.2,0l-0.1,1.7l-0.6,0.4l-0.8,0.9l-0.1,1.3l-1.6,0.6l-0.3,0.4l-0.5,0.2l0.8,0.2l0.5,0.5
			l0.2,0.5l1.1,0.6l1,1.3l0.8,0.5l0.9,0.2l0.7-0.3l0.5,0.2l0.3,0.6l0.2,0.1l1.5,0.1l1.1-0.2l0.3,0.3l0.5,0.1l0.6,1.6l0.5,0.8v1.9
			l2.3,0.4l0.6,0.7l0.9,0.5h0.9l0.7,0.2l0.5-0.1l0.4,0.7l0.6,0.4l1.2-0.4l0.7,0.2l0.4,0.8v0.7l-0.7,0.6l-0.3,0.6l1.3,1.2l-0.8,0.7
			h0.9l0.8,0.6l0.4,0.5l0.2,1l-0.5,0.6l0.4-0.1l0.7,0.3h0.5l0.4,0.7l-0.1,0.4l0,0l-0.1,0.1l0,0l-0.1,0.1l-1-0.1l-0.1,0.6l-0.6,0.5
			l-0.5,0.1l-0.7,0.6L324,645l-0.2,0.6l0,0l-1-0.1l-0.6-0.7l-0.5-0.3l-1-0.2l-0.4,0.2l-0.4-0.2l-0.1-0.3l0.3-0.2l-0.3-0.5l-0.6-0.5
			h-0.4l-0.3,0.3L318,643l-0.1-0.2l0.3-0.4l-1.9-2.1l-3.7-2.5l-3.1-1.1l0.1-0.3l-0.7-1l-1.2-0.8l-0.2-0.4l-4.2-3.2l-0.9-0.9
			l-5.4-3.9l-0.2-0.3v-1.3l0.5-0.1l0-0.3l-1-2l-0.3-1.9l-2.6-2.1l-2.4-1.5l-1.5-0.6l0.1-0.4L283,611l-1.7-2.2l0.1-0.3l-0.3-0.6
			l-0.4-0.3l-0.2-0.9l-0.4-0.3l-1.4-2.1l-1.4-3.4l-3.8-2.1l-1.3-1.9l-1-0.9l0,0l1.9-1.3l0.5-0.5l1.3-0.5l0.9-0.7l1-1.2l0,0l0,0l0,0
			l5.6,3.5l-0.4,2.3l0.2,0.1l0.3-0.6l0.5-0.1l0.3,0.2l0.7-0.2l0.1-0.3h0.4l0.5,0.8l1.7,1.9l0.5,0.2l0.2,0.4l0.4,0.1l0.6,0.6l0.8,0.2
			l1.6-0.2l1,0.6L292.3,601.7L292.3,601.7L292.3,601.7z"/>
		<path id="ID-BT" class="st2" d="M387.8,669.5l-0.7,0.3l0,1.3l0.7,0.4v0.8l0.5,0.1l0.2,0.9l0.5,0.9l0,0l0,0.2l0,0l-0.2,0.7h-3.4
			l-0.4-0.4l-1.2-0.3l-0.1,0.1l0.4,0.2v0.3l-0.6,0l-0.2-0.8l-0.4-0.1l-0.8,0.8l0.5,1.7l-0.3,0.4l-0.7,0.1l-0.1,1.1l0.7,1.5l-0.1,2
			l0.1,0.4h0.2l0.5,0.6h0.2l0.6,0.8l-0.4,0.3v0.3l-1.1,0.5l-0.1,0.8l-0.8,0.8l0.1,0.5l-0.2,0.2l0.2,0.9l0,0l-0.6,0.2l-1.2,0.1
			l-0.1-0.3h-0.8l-0.1-0.3l-0.4-0.1v-0.5l-1.1-0.5h-0.6l-0.6-0.5l-0.5-0.1l-0.8-1l-0.6-0.3l-1.7-0.1l-3.5,0.7l-1.8-0.2l-2.5,0.4
			l-0.5,0.3l-0.8-0.2l-0.4,0.1l-0.7-0.7l-0.4-0.1l-0.2,0.4h-0.2l0.1-0.3l-0.7-0.5l-1.4-0.3l-0.4,0.1l-0.2,0.5l-0.4,0.3l-0.5-0.1
			l-0.2-1.2l-0.2-0.3h-0.2l-0.1-0.3l1.2,0.1l0.4-0.5l1-0.7l-0.1-0.5l1-0.5l0.7,1.5l-0.2,0.1l-0.1,0.3l0.6,0.4l0.4,0.6l0.1,0.5
			l0.4,0.3l0.2,0l0.6-0.8l0.2-1.2l1.2-1l0.1-0.5l0.4-0.2l0.4-0.5l0.3-0.8l-0.1-1l0.6-1.1l0.5-0.4l0.2,0.6l-0.2,0.3l0.5,0.4l0.4,0.1
			l1.2-0.2l0.8-1.1l0.2-0.7l0.1-3.6l0.7-2.7l0.5-0.3v-0.7l0.9-0.6l0.3-0.5l0.9-0.8l0.2-1l-0.3,0.1l1-1l0.9-0.1l0.7,0.8v1.5l1.2,0.7
			h0.3l0.9-0.4l0.3-0.3l0.1-0.6l0.3-0.2l1,0.3l0.1,0.2l0.3,0.1l0.5-0.5l0.3,0.3h0.4l-0.1,0.2l0.3,0.6l0.6,0.3l0.5-0.1l0.9,0.3
			l0.9-0.6l0.6,0.4l1.1-0.2l0.2-0.2l0.5,0.3l0.6-0.2l0.6,0.5l-0.1,0.1L387.8,669.5z"/>
		<path id="ID-GO" class="st2" d="M704.5,524.7l0.7,0.2l2.8-0.1l2,0.2l4,1.2l0.3,0.4l3.5,2.2l1.3-0.8l1-1.4l3-0.4l0,0l0.2,1l0.6,0.5
			l1,0.3l0.8,0.8v0.6l0.3,1l0.7,0.6l1.4,1l2.4,0.4l0.6,0.7l0.4,1l-0.2,1.3l0.1,1.2l-1,1.7l-0.3,1.2l0,0h-2.5l-1.8-0.5l-1.5-1.4
			l-1-1.4l-1.2-1l-0.6,0.5l-1.6,0.2l-10-0.4h-2l-3.6,0.4h-2.8l-0.6,0.2l-0.7,0.6l-1.9,0.4l-2.1,0.1l-1.8-2l-3.5-0.4l-0.3,0.1
			l-0.2,0.8l-0.3,0.3l-3.3,0.4l0,0l0.3-0.6l-0.2-1.7h-0.8l-1.3-0.4l-0.6-0.9l-0.7-0.4l-0.3-0.5l0.4-0.2l0.1-1.3l0.4-0.4l1.2-0.5
			l1.2,0.5l0.6-0.1v-1.1l0.4-0.5l1.1,0.6l1.6,0.1l0.6-0.5h1.7l2.4-1.1l1.3-0.3l0.9-0.7l1-0.2l0.6,1l0.6,0.6l0.5,0.2l0.3-0.3l0.2-0.8
			h0.4l0.6-0.7h0.3L704.5,524.7z"/>
		<path id="ID-JA" class="st2" d="M342.1,579.2l-1.5-0.6l-0.6,0.1l-0.4,0.2l-0.2,0.3l0.1,0.9l-0.4,0.5l-1.2,0.3l-1.1-0.1l-1.1,0.5
			l-1.6,0.4l-1.3-0.3h-0.9l-0.6,0.2l-1.2-0.6l-0.5-0.1l-0.9,0.4l-0.3,0.6l-2,0.1l-2.6,1l-1.3,1.1v1l-0.2,0.9l0.1,0.4l-0.2,0.5v1.6
			l0.7,0.6l-0.8,0.6l-1.3,0.3l-0.1,0.5l0.2,1.8l-0.2,0.2l0.1,0.9h-0.2l-0.2-0.4l-0.6-0.1l-0.4-0.8l-1-0.5l-0.2-0.5l-0.8-0.7
			l-0.1-0.9l-0.4-0.4l-0.6-0.1l-0.3,0.3l-0.2,0.5l-0.4,0.1l-0.2,0.3l-0.3,0.7l0.8,0.8l0.2,0.9l-1.8,0.7l-1.3-0.4l-0.1-0.3l-0.2,0
			l-0.4,0.6l-2.2-0.4l-0.9-0.3l-0.7,1l0.7,1.2l-0.6,0.4l-1.2,2.1l-0.5,0.4h-0.3l-0.3-0.2l-1.1,0.9l-0.9,0.4l-0.2,0.2v0.4l-0.7,0.8
			l-0.6-0.2L302,600l-0.7,0.5l-0.1-0.2h-0.9l-0.8-0.2l-0.7-0.7l-0.6-0.3l-0.2,0.2h-0.3l-1-0.6l-0.7,0.3l-0.1,0.9l-0.5,0.5l-1,0.1
			l-0.2,0.2l-0.7,0.2l-0.5,0.9l0,0l-0.7-0.2l0,0l-0.5-0.1l-1-0.6l-1.6,0.2l-0.8-0.2l-0.6-0.6l-0.4-0.1l-0.2-0.4l-0.5-0.2l-1.7-1.9
			l-0.5-0.8h-0.4l-0.1,0.3l-0.7,0.2l-0.3-0.2l-0.5,0.1l-0.3,0.6l-0.2-0.1l0.4-2.3l-5.6-3.5l0,0l0.3-0.6l0,0l-0.2-2l-0.7-2l-0.5-0.9
			l-0.8-0.4l-0.4-0.5l-0.2-0.6l-0.5-0.6l-0.2-0.5l-0.2-4.3h0.2l0.6,0.4l0.2-0.4h0.2l0.8,0.8l0.7-0.4h1.3l0.6-0.3h0.7l0.7-0.2
			l0.5,0.4l1.2-0.3l1.4-2.1l2.4-1.5l0.7-1.3v-0.3l-0.5-0.4v-0.2l0.5-0.5l-0.5-1.9l0.7-0.7h0.7l0.4-0.3l0.7-0.2l1-1.2l0.4-1l-0.1-0.1
			l-0.4,0.3l-0.6-0.5l0.1-0.9l-0.2-0.1v-1.2l0,0l0,0l0,0l0.7,0.1l0-0.4l0.9-0.2l0.2-0.7l0.7-0.3l0.3,0.2l0.1-0.4l0.5-0.3l0.5,0.1
			l0.5,0.4l0.5-0.2l1.1,0.5l0.4-0.4h0.5l0.5,0.4v0.4l0.2,0.2l0.5,0l1-0.6l0.7,0l0.4,0.9l1.2,0.6l0,0.8l1.5,0.1l0.5,0.9h0.9l1,0.4
			l0.8-0.1l0.7,0.5l0.3-0.1l0.6-0.7l0.8-0.1l0.6-1l0.5-0.5l0.1-0.4l2.5-1.8l1-1.2l1-1.6l1.4,0.1l1-0.3l4.3,0.8l0.5,0.4l1-0.5
			l1.4-0.1l0,0l0.5,0.5l0.9,0.4l1,1.3l1.1,0.9l1.2,0.5l0.8,0.6l1.3,0.3l0.6,0.4l1-0.4v0.1l1.5-0.3l3.1,0.9l2.3,0.9l2.6-0.9l0.5,0.1
			l0.9,2.1l-0.4,1.7l0.3,1l0.8,1.4l0.1,1.2L341,576l0.5,2.2L342.1,579.2z"/>
		<path id="ID-JB" class="st2" d="M395.4,666.3l0.9,1l0.5,0.1l2.6-0.6l1.1,0.3l1,1.1l1.4,2.4l1.9,0.7l1.2,0.2l1,1.1l0.5-0.4l0.3,0.2
			h0.6l1.5-0.9h0.7l0.1,0.5l0.7-0.4l0.2,0.3h-0.3l0.1,0.6l1.3,0.5l1.7,1l1.9,0.6l1.2-0.7l0.5-0.5l-0.1-0.5l-0.4-0.4l0.4,0.1l0.3,0.3
			h1.6l0.7,0.5l0.1-0.6l0.2-0.1l0.4,0.5l0.2,0.6l-0.1,0.2l0.3,1l1.6,1.8l1.6,1l0.2,1.4l-0.1,0.7l0.4,2.2l0.8,1.4l0.7,0.2l0.3-0.4
			l0.6,0.3l0.1,0.7l1.4,0.3l1.1-0.5l0.1-0.4l-0.4-0.1l0.3-0.3h0.6l0,0l-0.1,1.7l-0.7,1l-0.3,0.1l-0.5,0.7l0.2,0.6l-0.1,0.8l0.8,0.4
			l0,0.4l-0.3,0.3l0.1,0.4l-0.2,0.4l0.1,0.4l-0.3,0.3l-0.8,0.1l-0.6,0.7l-0.7,0.1l-0.4-0.4h-0.4l-1.2,0.6v0.7l0.3,0.3v0.6l-0.5,1
			l0.1,1h0.2l0.2,0.3l1.4-0.1l0.6,0.6l0.1,0.6l0.6,0.7l-0.1,0.5l0.1,0.5l0.4,0.4l0.4,1.1l-0.1,0.6l-0.3,0.5l0.8,0.9l0.6,0.3l0,0
			l-0.8,0.5l-0.6-0.3L428,702l-0.6,0.4l0,0.2l0.4,0.4l-0.2,0.2l-0.4-0.3l-0.1-0.6h-1.2l-1.1,0.2l-0.5,0.5l-0.1,1.3l-0.5,0.4
			l-0.7,0.3h-2l-5.3-0.9l-1.8-0.6l-1.7-0.2l-1.2,0.1l-0.2-0.1l-0.1-0.6l-0.5-0.3l-0.6-0.2l-1.8-0.2l-0.4-0.9l-1.4-1l-2.6-0.9
			l-0.4-0.4l-1.5-0.3l-3-0.2l-2.4-0.6l-11.2-0.8l-1-0.3l-0.6-0.5l-1-0.3l-0.6,0.2v-0.4l-0.5-1.3v-1l0.7-1.1l1-0.2l-0.3-0.6l0.1-0.4
			l0.6-0.5l0.5-0.2l0.8-1l-0.1-1.1l-0.6-0.6l-1.5-0.2l-0.6,0.2l-0.4,0.4l0,0l-0.2-0.9l0.2-0.2l-0.1-0.5l0.8-0.8l0.1-0.8l1.1-0.5
			v-0.3l0.4-0.3l-0.6-0.8h-0.2L382,682h-0.2l-0.1-0.4l0.1-2l-0.7-1.5l0.1-1.1l0.7-0.1l0.3-0.4l-0.5-1.7l0.8-0.8l0.4,0.1l0.2,0.8
			l0.6,0v-0.3l-0.4-0.2l0.1-0.1l1.2,0.3l0.4,0.4h3.4l0.2-0.7l0,0l0-0.2l0,0l0.6-0.1l-0.3,0.8l0.1,0.2l1.1-0.3l1,0.6l0.2-0.1l0.2-1.1
			l-0.2-0.4l-0.1-0.7l0.7-0.2l0.5-1l0.1-2.3l0,0l0.4-0.1l0.2-0.3l-0.3-0.5l0.5-0.3l-0.2-0.3l-0.2,0.1l-0.1-0.4l0.4-0.3l0.1-0.8
			l-0.2-0.3l-0.3,0.1v-0.1l0.7-0.5L395.4,666.3z"/>
		<path id="ID-JI" class="st2" d="M522.5,717.8l0.8,0.2l1-0.1l0.6,0.3l-0.2,0.4l-1.2,0.3l-1.2,0.1l-0.5-0.2v-0.6l0.4-0.2l0.1-0.3
			L522.5,717.8L522.5,717.8z M572.9,690.4l0.6,0.2l-0.1,0.3l0.3,0.2l0.6,0.1l0.1,0.2h0.3l0.2-0.2v-0.4l0.5-0.2v-0.3l0.3-0.2
			l-0.3,1.8l-0.4,0.3l-0.9,0.1l-1.5-0.8l-0.2-0.4l0.3-0.5l-0.2-0.5l0.2-0.3L572.9,690.4L572.9,690.4z M544.8,691.8l-0.3,0.1
			l-0.8-0.2l-0.9-0.7l-0.4-0.7l0.3-0.7l1-0.3l0.6,0.4l0.9,1.8L544.8,691.8L544.8,691.8z M570.4,687.5l0.7,0.4l0.2,0.4l-0.7-0.2
			l-0.7,0.2l-0.6-0.2l-0.1-0.4H569l-0.1-0.3l0.3-0.4L570.4,687.5L570.4,687.5z M536.8,685.7l2.1,1.1l0.4,0.9h-0.7l-0.4,0.4l-0.6,0.2
			l-1.5,0.1l-0.4,0.3l-0.5-0.2l-0.2,0.2l0.7,0.3l0.5,0.5l1.7,0.1l0.3,0.8l-1.9-0.2l-0.8-0.5l0.1-0.4L535,689l-0.7,0.5l-0.2,0.3
			l0,0.2l0.3,0.1l0.1,0.4l-0.1,0.3l-4.2-0.5l-0.7,0.5l-0.2-0.1l-0.7,0.1l-0.5,0.6l-0.5,1.4l-0.8,0.5l-0.2-0.2l0.2-0.1l-0.1-0.2
			l-0.9-0.2l-3.7-0.1l-0.4,0.2h-1.5l-0.3-0.6l-0.4,0.1v-0.3l0.2-0.3l-0.4-0.4l-0.5,0.5l0.2,0.5l0.5,0.4l-1.1,0.1l-4.2-1l-0.6-0.3
			l-1.8-0.1l-0.5,0.3h-0.8l-0.5-0.4l0.3-1.1h-0.3l-0.3-0.8l0.2-0.5l0.7,0.2l1.5-1.2l0.7-1.1v-0.4l1.2-0.5h1.9l0.8-0.2l1.9,0.2
			l6.6-0.1l1.4,0.2l4.1-0.3l1.4,0.1l3-0.4L536.8,685.7L536.8,685.7z M563.1,684.6l2.6,0.2l1.1,0.4l1.8,1l0.3,0.5l-0.5,0.7l-0.5-0.3
			h-0.5l-0.5-0.5l-1.2,0.2l-0.4-0.5l-0.5,0.1l-0.1,0.2l-0.6-0.1l0.1,0.3l0.8,0.4l0.5,0.7l-1.4,0.2l-0.3-0.5h-0.2l-0.3,0.2v0.5
			l-0.3,0.1l-0.8-0.8l0.5-0.6l-0.4,0.1l-1-0.1l-0.2-0.4l0.2-0.7l0.6-0.1l0.3-0.4v-0.2l-0.5-0.3l0.1-0.1l0.4-0.2L563.1,684.6
			L563.1,684.6z M490.5,683.4l0.6,0.1l1,0.5h0.7l1.1-0.3l0.8-0.5l0.5,0.1l1.4,2.2l0.5,0.3l1.1,0.2l1-0.1l1.2-0.5l0.6,0.1l1.5-0.3
			l1.5,0.2l0.3-0.2l0.6,0.2l0.7,0.5l0.8,0.2l0.4-0.5l-0.3-0.3l0.3-0.2l-0.1-0.4l0.5,0.4l0.1-0.1v0.4l0.3,0.5h0.3l0.2,0.3l-0.1,0.3
			l-0.3-0.1v0.3l0.4,1.2l0.7,0.5l0.1,0.7l-0.5,0.5l-0.2,0.9l0.9,0.8v0.5l-0.3,0.2v0.3l0.3,0.2h0.7l0.2-0.5l1-0.1l0.4,0.3l0.5,0.8
			l0.8,0.7v0.6l-0.3,0.3l0.2,0.1l-0.2,1.4l0.1,1.5l-0.4,0.1l0.4,0.7l0.5,0.2l0.2,0.3l-0.2,1l0.2,0.1l0.3,0.6l0.9,0.3l0.3-0.2
			l0.4,0.5l0.6,0.3l0.5-0.2l0.5,0.1l0.9,1l1.7,0.9l0.8-0.2l0.8,0.1l0.7,0.8l0.5-0.3l0.3,0.1l0.6-0.2l0.5-0.5l0.7-0.1l2-0.8l1,0.3
			l0.6-0.1l1.8,0.5l0.9-0.5l0.8,0.5h0.3l0.6-0.2l0.5-0.6l0.7-0.3l1.5,0.4l1.3-1.3l1-0.5l0.7,0.5l0.7,1.5l0.2,0.1l1.9,0.1l0.8-0.4
			l1,1l1.8,0.3l1.2,0.7l0.5,0.7v1.1l-0.9,0.8l0.2,1.5v1.3l-0.5,0.9l-0.1,0.9l-0.4,0.8l0.1,0.9l-0.4,0.9l-0.5,2.6l-0.1,0.7l0.5,1
			l-0.3,0.8l0.3,0.2l0.2-0.1l0.2-1l-0.1-0.7l0.1-0.1l0.2,0.3v0.6l0.2,0.6L545,720l0.4,1.1l0.6,0.7l0.6-0.5l0.7,0.7l1.2,0.2l0.7,1.1
			l-0.3,0.9l-0.4,0.3l-0.8,0.2l-1.9-0.7h-1.3l-0.6-0.1l-0.1-0.3l0.5-0.3l0.1-0.4l-0.2-0.7l-0.7-0.7l-1.4-0.7l-0.6,0.1l-0.2,0.2
			l0,0.6l-0.2,0.1l-2.3-0.6l-1.2,0.4l-0.3-0.2v-0.5l-0.3-0.1l-0.3,0.2v0.2l-0.7,0.1l-0.3-0.3l0.4-0.1v-0.3l-0.3-0.4h-0.3l-0.4,0.4
			l-0.7-0.4l-1-0.2v-0.5l-0.4,0.4h-0.2v-1l-0.2-0.1l-0.8,0.3l-0.2,0.3l-0.3,0.1l-0.3-0.1l-0.2,0.2l-0.1-0.1l0.2-0.5l-0.2-0.3
			l-0.4,0.3l-0.2-0.2l-0.2,0.1l-0.9-1.1l-0.5-0.2l-0.5,0.1l0.1-0.1l-0.2-0.1l-0.3,0.2l-0.6-0.1l-0.9-0.4v-0.5l-0.4-0.2l-0.7,0.1
			l-0.7,0.4l-0.8-1.3l-0.3-0.3l-1-0.6l-1.1-0.3l-1-0.1l-3.2,0.5l-1.2,0.7l-0.4,0.7l-0.6,0.5l-4.3,0.6l0.1,0.6l-0.5,0.2l-1.4-0.8
			l-1.3-0.4l-2.4-0.2l-0.5-0.3h-0.5l-1-0.7l-0.9-0.3l-0.7,0.4l-0.7-0.1l-0.7-0.4l-3-0.1l-0.5-0.1l-0.3-0.4l-0.6-0.2l-0.8-0.1
			l-0.1,0.2l0.1,0.3h-0.9l-0.8-0.7h-0.3l-0.1,0.3l-0.8-0.2l-0.1-0.2l-0.5,0.1l0.1,1.2l-0.4,0.2h-0.4l0.1-0.4l-0.3-0.5H490l-0.1,0.2
			l0.2,0.4h-0.5l-0.1,0.2l0.5,0.4l0.1,0.3l-0.6,0.2h-0.4l-0.2-0.3l-0.9-0.1l0.2-0.2l-0.1-0.4h-0.3l0,0.2l-0.4-0.1l-0.2,0.2l-0.3-0.1
			v-0.4l-0.4-0.1l-0.3,0.5l-1.5-0.4l-0.2-0.9l-0.4-0.2l-0.8,0.4l-3-0.6l-0.6,0.4l-1.5,0.1l-1-0.7v-0.4H477l-0.1,0.5l-1.2,0.1
			l-2.3-0.8l0,0l-0.1-1l0.3-1.1l0.8-1.1l1.5,0.4l1-0.7l0.6,0.4l0.5-0.8l-0.1-1.2l0.3-0.2l0-0.4l0.2-0.2l0.8-0.2l0.1,0.3l0.5-0.1
			l0.3,0.4l0.4-0.1l0.7-0.8l0.2-0.8l0.4-0.3l-0.7-1.5l0.1-0.7l-1.1,0l-1-0.8l0.1-0.4l-0.1-0.9l0.2-0.7l-0.8-0.5l-0.2-0.9v-0.8
			L478,698l-0.4-1.2l0.5-1.2l-0.1-0.6l0.2-0.5l-0.2-0.2l0.2-0.8l0.1-0.2l0.4,0.1l0.5-0.2l0.1-0.2h0.2l0.5,0.7l1.4,0.5l0.9,0.6
			l1.4,0.3l0.3,0.3l0.5,0.2l0.1-0.3l-0.4-0.2l0.2-0.7H484l0.4-1l0.2-0.2l0.2,0.1l0.3-0.2l0.1,0.1l1.1-0.6l0.8-0.8l0.8-1.5l-0.1-0.6
			l0.2-0.4l-0.2-1.1l0.2-0.5l-1.2-0.8l0.4-0.6l0.5-0.2l0.3-1.6l0.8-0.1l0.2-0.2l0-0.7l0.2-0.2l0.2,0.2l0.2-0.4l0,0l0.5,0.3
			L490.5,683.4L490.5,683.4z M510.2,662.2l0.5,0.1v0.4l0.3,0.6l-0.2,1l-0.9,0.5l-0.8,0l-0.2-0.2l-0.4,0.2H508l-0.4-0.6l0.3-1.1
			l0.4-0.1l0.1-0.4l0.4-0.3l0.3-0.1l0.5,0.1l0.3-0.4L510.2,662.2L510.2,662.2z"/>
		<path id="ID-JK" class="st2" d="M358,678.5l-0.3,0.6l0.2,0.9l-0.4,0.7l-0.8,0.3l-0.5,0.7l-0.2-0.3l0.5-0.5v-0.5l-0.4-0.3v-0.5
			h-0.3l-0.6,0.6l-0.1,0.4l-0.3-0.2l0.3-0.7l1.2-0.9l0.6,0.1v-0.3h0.6l0.3-0.2L358,678.5L358,678.5z M388.3,669.7l2.1,0.4l0.9-0.5
			l1.7-0.1l0,0l-0.1,2.3l-0.5,1l-0.8,0.2l0.1,0.7l0.2,0.4l-0.2,1.1l-0.2,0.1l-1-0.6l-1.1,0.3l-0.1-0.2l0.3-0.8l-0.6,0.1l0,0
			l-0.5-0.9l-0.2-0.9l-0.5-0.1v-0.8l-0.7-0.4v-1.3l0.7-0.3l0,0L388.3,669.7L388.3,669.7z"/>
		<path id="ID-JT" class="st2" d="M489.6,683.1l-0.2,0.4l-0.2-0.2l-0.2,0.2l0,0.7l-0.2,0.2l-0.8,0.1l-0.3,1.6l-0.5,0.2l-0.4,0.6
			l1.2,0.8l-0.2,0.5l0.2,1.1l-0.2,0.4l0.1,0.6l-0.8,1.5l-0.8,0.8l-1.1,0.6l-0.1-0.1l-0.3,0.2l-0.2-0.1l-0.2,0.2l-0.4,1.1h0.5
			l-0.2,0.7l0.4,0.2l-0.1,0.3l-0.5-0.2l-0.3-0.3l-1.4-0.3l-0.9-0.6l-1.4-0.5l-0.5-0.7h-0.2l-0.1,0.2l-0.5,0.2l-0.4-0.1l-0.1,0.2
			l-0.2,0.8l0.2,0.1l-0.2,0.5l0.1,0.6l-0.5,1.1l0.3,1.2l0.3,0.4v0.8l0.2,1l0.8,0.5l-0.2,0.7l0.1,0.9l-0.1,0.4l1,0.8l1.1-0.1
			l-0.1,0.7l0.7,1.5l-0.4,0.3l-0.2,0.8l-0.7,0.8l-0.4,0.1l-0.3-0.4l-0.5,0.1l-0.1-0.3l-0.8,0.2l-0.2,0.2l0,0.3l-0.3,0.2l0.1,1.2
			l-0.5,0.8l-0.6-0.4l-1,0.7l-1.5-0.4l-0.8,1.1l-0.3,1.1l0.1,1l0,0l-1.4-0.3l0,0l0-0.6l-0.1-0.1l-0.2,0.2l-0.1-0.1l0.3-0.7h-0.3
			l-0.4,0.4l-0.3-0.2l0.1-0.9l-0.7-1.9l0.3-0.7v-1.3l0.4-1l0.1-1l-0.4-0.2l-0.3,0.3l-0.4-0.5l-0.4-0.2l-0.2,0.3l-0.5,0.1l-0.2-0.4
			l-0.3,0.3l-0.2-0.2l-1.3,0.3l-0.2-0.4l-0.3-0.1l-0.4,0.3l-0.5-0.5l-0.4-0.1l-1-4.6l-2.8,2.2l-0.7,0.9l-0.3-0.2v-0.7l-0.2-0.2
			l-0.3,0.2l-1.5-0.2l-0.7,0.2l-0.2,0.5l0.4,0.3l-0.1,1l-0.4,0.6l-0.3,0.1l-0.2,0.5l-0.5,0.3l-0.4,1.5H455l0,0l-2-0.7l-4.3-1.2
			l-4-0.6l-0.5-0.2l-1.4,0.3l-0.5-0.4l0.2-0.6l-2.2-0.5l-3.6-0.3l-0.9,0.2l-0.7,0.4l-0.2,0.3l-0.1,0.5l0.2,0.3l0.3-0.1l0.1,0.2
			l-0.2,0.3l-4.4-1l-0.6,0.1L430,703l0.2-0.3l-0.3-0.1l0.4-0.4l0.5-0.1l0.2-0.3h0.5v-0.2l-0.3-0.1l-1,0.3l0,0l-0.6-0.3l-0.8-0.9
			l0.3-0.5l0.1-0.6l-0.4-1.1l-0.4-0.4l-0.1-0.5l0.1-0.5l-0.6-0.7l-0.1-0.6l-0.6-0.6l-1.4,0.1l-0.2-0.3h-0.2l-0.1-1l0.5-1v-0.6
			l-0.3-0.3v-0.7l1.2-0.6h0.4l0.4,0.4l0.7-0.1l0.6-0.7l0.8-0.1l0.3-0.3l-0.1-0.4l0.2-0.4l-0.1-0.4l0.3-0.3l0-0.4l-0.8-0.4l0.1-0.8
			l-0.2-0.6l0.5-0.7l0.3-0.1l0.7-1l0.1-1.7l0,0l0.1,0.3l-0.1,0.3l0.3,0.1l0.3,0.5l1.9,0.6l0.3-0.5h0.4l0.8-0.6l0.4,0.1l0.4-0.5
			l0.2,1l0.8,0.7h1l0.5,0.3l1.4,0.2h0.9l0.7-0.2l0.5,0.1l1.3-0.3l1.2-0.7l0.8-0.8l1.1,1.2l1.8,0.2l4.4,1.4l1-0.1l0.8,0.2l0.9-0.1
			l2.8-0.9l0.5-0.3l0.1-0.3l0.9,0.3l0.6,1l1,0.4l0.4,0.3l1.2,0.4l1.3-0.3l0.1,0.3l0.7-0.3v-0.5l0.6-0.8l0.3-0.9l0.7-0.6l0.5-0.9H466
			l-0.2-0.3l0.5,0.1l-0.3-0.5l0.4-0.1l0.3,0.2l0.5-0.4l0.7-1l-0.1-1l0.3-0.1l0.1-0.9l-0.1-0.2l0.6-0.7l-0.3-0.4l0.3-0.1l0.8-1
			l1.3-0.4h0.6l0.4-0.3l1.5-0.2l1,0.2l0.6-0.2l1.3,0.4l1.2,3.7l0.8,1l1.2,0.3l0.8,0.4l2.8,0.3l1.7-0.7l0.2-0.6l0.6-0.3l0.3,0.2
			l0.5-0.1l0.8,0.3L489.6,683.1z"/>
		<path id="ID-KB" class="st2" d="M431.4,579.4l-0.5-0.1l-0.7-1.7l0.2-0.3l1.9-0.6l0.7,0.2l0.6,0.7v0.3l-0.4,0.7L431.4,579.4
			L431.4,579.4z M445.4,565.7l0.6,0.1l0.5-0.4l0.7,0l0.5,0.6l0.5,0.1l0.4-0.2l0.4-0.5l0.6,0.3l0.4,0.6l0.2,1l-0.1,0.6l0.3,0.3v0.3
			l-5.9,3.4l-1.5-0.5l-0.5-0.5l0.7-0.7l0.2-0.6l0.5-2.6v-0.5l0.9-1.2L445.4,565.7L445.4,565.7z M447.6,503.3l-0.6,1.6l-0.5,0.3
			l-0.4,0.9l-0.7,0.1l-0.1,0.6l0.2,0.8l0.5,0.4l0.5,0.7l1.4,0.4l0.2,0.4l-0.5,2.5l0.4,0.8l2.2,2.1l0.4,0.2l1,1.5l1.5,0.1l0.6,0.2
			l0.3,0.4l0.2,1.6l1.8,0.9l0.4,1l0.5,0.4l0.7-0.1l0.9,0.2l0.5,0.8l0.2,0.6l0.6,0.5l0.5,0.8l0.4,1.2h1.2l1.1,0.3l1,1.6l0.4,0.3
			l1.4,0.5l0.9,0.1l0.6-0.1l0.5-0.8l0.5,0.5h0.5l0.5-0.4l0.9-0.3l1.1-0.7l0.9-0.1l0.7-0.7l0.3-0.7l4.6-0.6l2.3-0.7l0.4,0.4l2.1,0.7
			l0.6,0.4h0.6l0.8-0.4l0.9,0.2l0.8,1.4h0.3l0.1-0.6l0.6-0.1l1.3-1h0.3l1.2,0.6l0.7-0.2l2,0.4l0.4-0.9l1.6-1.6l3.8-0.3v-0.8l0.3-0.7
			l0.2-1.8l1-1l0.1-0.8l-0.5-0.8l0.6-0.7h0.5l1.5-0.9l1.9-0.4l0.7-0.3l0.1-0.3l1.2-0.4l3.4,0.4l2-0.2l0.6,0.5h0.4l0.7-0.3l0.4-0.6
			l0.2-0.1l1,0.3l1.1-0.1l0.8,0.1l0.6,0.4l0.2,0.5l-0.2,0.1l-0.6,1.2l-0.6,0.2l-0.3,0.4l-0.2,0.5l0.9,0.1l1.6-0.5l0.4,0.1l0.5,0.8
			l0.9,0.3l1.9-0.2l0.9,0.2l0.9,0.6l0.2,0.4l0.7,0.4l0.3,0.4h0.5l0.4-0.4l0.7-0.3l1-0.1l0.8,0.4l0.9,1.6l0.4,0.1h0.4l0.4-0.3
			l0.5-0.5l2.2-0.9l0.3-1l-0.2-0.2l0.1-0.2l2.3-0.9l0.5-0.5l3.6-0.4l1.2,0.8l0.2,0.3l0,0l-1,0.5l-0.1,2l0.2,0.2l-0.4,0.5v0.8
			l-0.2,0.8l-0.4,0.3l-0.6-0.1l-0.7,0.4l-0.4-0.2l-0.8,0.1l-0.6,0.5l-0.1,0.8l-0.3,0.3l-0.8,0.2l-0.1,0.4l0.4,0.4l0.1,0.5l-0.2,0.6
			l-0.6,0.6l-0.1,0.3l0.3,0.8l0.7,0.6v0.4l-0.6,0.7l0.1,1l-0.2,0.4l-0.8,0.3l-0.2,0.6l0.1,0.3l0,0l-0.6,0.3l-0.3,0.8l-0.4,0.3
			l-0.2,0.5l-0.4,0.2l-0.2,0.5h-0.5L530,535l-0.3,1.3l-1.5,0.9l-0.2,0.4l-1.1,1l-0.1,0.3l-0.6,0.5L525,540l-1.6-0.3l-0.9,0.2
			l-0.7,0.5v0.2l1.2,1.2l1.8,1l-0.2,1.6l0.2,0.4l0.4,0.3l-0.3,0.5l-0.2,0.9l0.4,0.1l0.1,0.3l-0.4,0.9l-0.5,0.3l0.4,0.2l-0.1,0.4
			l-0.4,0.1l-0.3,0.7l-0.7,0.6l-1,0.2l-0.5,0.7l-0.6,0.4l-0.2,0.7l-0.3,0.3l0.9,0.8l0.2,0.9l-0.8,1l-0.2,0.6l-0.1,0.1l-0.2-0.2
			L520,555h-0.6l-0.2-0.4l-0.5,0.1l-0.3,0.6H518l-0.4,0.3l-1.6-0.2l-0.4,0.4l-1.7,0.5l-0.8,0.7l-0.8,0.1l-0.7-0.2l-0.7,0.2l-0.1,1
			H510l-0.3,0.5h-1.1l-0.7,0.4v0.2l-1.1,0.1l-0.1,0.2l-1-0.2l-0.1,0.5l-0.3,0.3L505,560v-0.7l-0.4-0.2l-0.6,0.5l-1,0.4l-0.5-0.2
			l-0.4,0.5l-0.5-0.6l-0.8-1.4l-0.4-0.3h-0.6l-1,1.3l0.3,0.8l-0.1,0.1h-0.5l-0.9-0.4l-1.3-0.1l-0.2,0.2l0.4,1.3l-0.1,0.4l-1.4,0.4
			l-0.4-0.2l-0.6-0.6l-0.2,1l0.3,0.9l-0.8-0.2l-0.2,0.1l-0.2,0.7l-0.5,0.3l-1.2-0.1l-0.9,0.3l-0.3,0.4l-1.1,0.7h-0.7l-0.4,0.4
			l0.2,0.8l-0.5,0.6l-0.6,0.2l-0.3,0.6l0.4,0.8l-0.3,0.6l0.4,0.3l-0.1,0.3l-1.4,0.2l-0.4,0.3h-1.3l-0.3,0.2l-0.1,0.6h-0.4l-0.4,0.9
			l-0.7,0.4l-0.2,0.7l-0.5,0.6H481l0,0.3l-1.3-0.3l-0.1,0.6l-0.5-0.2l0.2,0.9l-0.1,0.8l-0.4-0.2l0-0.6l-0.3-0.2l-1,0.6l0.3,0.5
			l0.1,0.5l-1,0.3l-0.4-0.5l-0.6,0.2l-0.4,0.4l-0.6-0.5l-0.5,0.6l-1,0.3L473,578l-0.6,0.5l0,0.9l0.5,0.1l0.2,0.5l0.3,0.2l0.5-0.1
			l0.2-0.2l0.1-0.5l0.5-0.2l0.4,0.2l0.3,0.6l0.1,1.4l-0.2,0.5l-0.4,0.4l-0.1,0.5v0.8l0.4,0.5l0,0.4l-0.4,0.5l0.2,0.5l0.4,0.3
			l0.6-0.2l1,0.1v0.2l-0.2,0.5l0.1,0.5l-0.8,0.7l0.8,1.5l0,0.3l-0.2,0.3v0.3l-0.7,0.8l0.8,1.3l0.6,2.2l0.1,1.6l0.6,2.4l-0.4,1
			l0.5,0.3h0.4l0.2,0.5l-0.6,1.1l-1.1,0.5l-1.7,0.4l-0.2,0.7l-0.7,0.6l-1.4,0.2l-0.9,0.6l-1.4,0.5l-0.5,0.3l-0.4,1.1l0,0l-1.6,1
			l-0.4-0.2l0.1-0.3l-0.2-0.8l0.1-1l-0.4-1l-0.5-0.7l-0.8-0.1l-1.3,0.4l-1.5,0.8l-2.2,1.9l-0.2-0.3l-0.6-0.1l-0.2-1.1l-0.4-0.7
			l0.6-1.3l0.1-0.7l-0.4-0.6l-0.5-0.2l-0.2-2l-1.5-0.4l0.8-1l0.3-1.5l-1.2-4.5l-0.9-1v-1.3l0.6-1.7V587l-0.8-2.1l-0.8-0.6l-2-0.8
			l-0.9-0.9l0.2-1.1l1.6-0.9l0.8-1.4l0.8-3.9v-1.8l-0.3-0.9l-0.2-0.5l-0.8-0.6l-1-0.2l-1-1.3l0.6-1.7l-2.3-0.8l-1.4-1.9l-0.8-0.5
			l-0.9,0.6l-1.3-0.9l-0.5-0.9l-0.4-0.3l-2.4-0.7l-0.3-0.3l-0.6,0.1l0.2,1l-0.3,0.5l-0.3,0.1l-2-0.7l-0.7-0.7l-0.5-1l0.2-3.1
			l0.5,0.2l0.4,0.4l1.4,0.4h0.9l1.2,0.8V560l-1.1-0.9h-1l-0.3-0.5l0.3-0.5l0-0.8h-1.7l-0.5,0.2l-2-0.7l-0.9-1l-0.5-2.3l-1.2-3
			l0.4-0.7l0.8-0.2l-0.2-1l1.3-2.1l0.5-1.9l-0.2-1.4l-1-2.2l-1.3-1.4l-1-0.3l-1.5,0l-0.3-0.3v-0.8l0.5-1.1v-0.6l-0.8-1l0.7-2.5
			l-0.3-1.1l-0.9-0.9l0.3-1l-0.9-1l0.2-0.5l0.8-0.7l0.6-0.1l0.8-0.8l0.5-1.3l-0.5-1.7l-0.6-0.5l-0.5-1.6l0.1-0.2l0.9,0.2v-0.9
			l0.7-1.3l0.9-0.9l0.3-0.9l-0.2-1.5l0.2-1l0.4-0.8l0.9-0.8l2.6-1.6l0.6-0.7v-0.5l0.6-1.3l0.8-1.1l0.1-1.2l-0.3-0.7l0.1-0.3l0.6-0.2
			h1.6l0.4-0.5l0.6-0.2h2l1.4-1.6L447.6,503.3z M431.1,487.5l-0.2,0.1l-1.1-0.9l1.1-0.9l0.4-1.2l0.6-0.2l0.3,0.1l0.2,0.4l-0.2,1.8
			L431.1,487.5z M367.7,487.7h-0.5l-0.3-0.3l-0.4-3.2l0.1-1h0.2l3,1.7l-0.7,1.6l-1,1L367.7,487.7z M420.3,470.6l-2.7,0.6l-1.7-1
			l0.7-1l1.5-1.1l-0.7-0.4l-2.1-0.7l-1.2-2.1l-0.3-1.3l0.7-0.8l0.9-0.2l2.3-2.4l1.4,0.3l0.1,1l0.3,0.6l2.6,2.6l0.2,2.1l-0.3,0.9
			L420.3,470.6L420.3,470.6z"/>
		<path id="ID-KI" class="st2" d="M618,495.3l1.7,1.9l0.9,1.5v0.5l-0.7,1.1l-3.2,2.9l-1.2-0.5h-0.4l0.6,0.5l0.2,0.8l-0.1,2.6
			l0.2,0.7l0.9,1.1l2.7,1.9l1.7,1.7l5.8,3.4l0.6,1.6l1.6,0.7l0.7-0.1l0.7,0.2l3.7,3.2l0.4,1.1l0.9,1l1.4,0.6h0.3l1.5,0.5l0.2,0.2
			l0.1,1.1l-0.7,1l-0.9,0.8l-2.9,2l-2.4-0.9l-3.5,0.3l-3.3-0.3l-3.6-0.7l-1.9-0.9l-0.8-0.9l-0.8-2.1l-0.8-0.7l-1-0.5l-0.3,0.1v0.5
			l2.8,4.9l0.1,0.9l-0.3,0.4l-0.5,0.1l-0.4-0.1l-0.9-0.8l-0.7-0.1l-1.9,0.6l-1.4,1.4l-0.4,0.9v1.1l-2,4.2l-1.1,0.8l-1,2l-0.8,2.5
			l-0.3,1.5l0.5,1.5l0.6,0.5l0.2,0.8l-0.2,0.5l-0.7,0.8l-0.9,2.9v0.6l0.7,1.5l-0.5,3.7l3-2l0.5-0.2l0.2,0.1l0.1,0.3l-1.3,4.2l1,2.1
			v0.5l-0.2,0.3l-3.3,1.5l-2.5-0.1l-0.8-1l-0.5,0.3l-0.2,0.9l-2.3,2.8l-2.4,4l-0.5,0.4l-1.7,0.7l-2.2,0.4l-1.6-3.5l0.4-1.3l-0.1-0.2
			l-0.3,0.1l-0.6,1.5v0.6l0.8,0.8l0.7,1.5l-0.7,2.4l-2.7,0.9l-1.8,1.2l-0.2,0.2l0.1,0.9l0.6,0.9l-0.1,0.6l-0.4,0.5l-2.8,1.1l-2,1
			l-1.7,1.1l0.1,0.4l0.6,0.3l0.8-0.2l0.7-0.5l1-0.2l0.8,0.1l0.4,0.2l0.3,2.7l0,2.7l-0.5,0.6l-1.3,0.5l-0.3,0.3l1.6,0.3h1l0.5-0.5
			l0.4,0.9l-0.1,0.4l1.6,0.4l-0.1,1.6l-0.8,2.9l0,0l-1.6-0.7l-1.3-0.3H583l-1.5-0.5l-3.2-0.2l-0.5-0.1l-0.6-0.6l-0.6,0.6l-0.9,0.3
			l-0.1,0.4l-0.5,0.4l-0.6,0.2l-0.3-0.6v-1.2l-0.8-2l0.2-1.8l0.4-0.7l-0.2-0.3l-0.7-0.3l-0.6,0.2l-0.4-0.3h-0.2l0.2-0.7l-0.3-0.4
			v-0.5l0.4-0.8l0.1-0.8l-0.2-2.2l-0.4-0.9l-0.6-0.7l-0.1-0.6l0.2-0.4l-0.8-0.7l-0.2-0.4l0.2-0.8l-0.3-0.5l-0.7-0.1l-0.7,0.3
			l-0.2-0.4l0.1-0.4l0.8-0.7l0.5-0.8l1-0.8l0.4,0.1l-0.2,0.9l0.3,0.1l1.3-1.5l0.3-1.2l0,0l0.3-1.5l0.5-0.6l1.1-0.8v-0.3l-0.9-0.8
			l-0.4,0.1l-0.4,0.4l-0.3-0.2l-0.2-0.8l-0.4-0.2l-0.5-0.5l-0.5,0.1l-0.2-1.1l-0.3-0.3l-1.6-1l-0.7-1.2l-0.9-0.8l-2-0.3l-0.5-1.2
			v-1.4l-0.3-2.2l-0.6-0.5l-0.5-1.2l-0.8-0.9l-0.3-0.1l0.2-1.3l-0.4-0.1l-0.2-1.7l0.5-0.1v-0.6l-0.3-0.5l0.7-1.1v-0.8l0.5-0.3
			l0.5-0.7l-0.4-1.3l-2.9,1.4l-0.3,0.8h-0.6l-0.5,0.3l-0.9,0.8l-1-0.3l-1.2,0.2v-0.6l-0.2-0.6l0.1-0.8l-0.5-1l-0.1-1.7l-0.3-0.4
			h-0.4l-0.4-0.4l-0.7,0.1l-0.3-0.6l0.4-1l-0.1-0.5l0.5-0.6v-0.4l0.5-0.1l0.2-0.2l0.6-1.3l0.8-0.5l0.3,0.1l0.1,0.2l0.4-0.2l0.9-0.1
			h0.2l0.4,0.6l0.2-0.4l1.4-1l0.2-0.5l0.1-0.8l-0.8-0.7l-0.4-0.8l-0.9-1l-0.7-1.4l-0.3-1.9l-0.5-0.8l-0.5-0.4l-0.6-0.2l-0.9,0.9
			l0,0.3l0.3,0.6l-0.5-0.1l-0.2-0.5l-0.6-0.4l-0.5,0.3l-0.6-0.1l-1,0.7l-0.4-0.2l-0.7,0.1l-0.6,0.8l-1,0.8h-0.9v0.8l-0.2,0.5h-1.2
			l-0.8,0.5l0.1,0.8l-0.2,0.1l-0.8-0.1l-0.6-0.5l-0.9-0.2l-1.8,0.2l-0.5-0.2l-0.1-0.5l-0.7-0.4v-0.2l0.4-0.4l-0.4-1.2l-0.9-0.5
			l-0.4,0.1l-0.4-0.1l-1.5,0.8l-0.6-0.1l-0.8,0.3l-0.3-0.1l-0.3,0.2l-0.5-0.4h-0.6l-0.2-0.3l0.2-0.6l0.8-0.3l0.2-0.4l-0.1-1l0.6-0.7
			v-0.4l-0.7-0.6l-0.3-0.8l0.1-0.3l0.6-0.6l0.2-0.6l-0.2-0.5l-0.4-0.3l0.1-0.4l0.8-0.2l0.4-0.3l0.1-0.8l0.6-0.5l0.8-0.1l0.3,0.2
			l0.7-0.4l0.6,0.1l0.4-0.4l0.2-0.8V520l0.4-0.5l-0.2-0.2l0.1-2l1-0.5l0,0l0.4-0.2l0,0l0.3-0.5l0.8-0.1l1.9-0.8l0.7-0.6l3,1.8
			l0.5-0.1l0.2-0.5l0,0l0.9,0.5l0.3,0.5l0.7,0.6l1.9,0.5l0.9,1l0.2,1.2l0.2,0.3l1-0.5l0.8,0.1l0.6,0.2l0.4,0.5l0.2,0.7l0.5,0.5
			l0.5,0.2h0.8l1-1.1h1.6l0.7,0.3l0.9,0.1l1-1.1l1.2,0.2l0.9-1.1l0.6-0.3l0.3-1.9l0.5-0.5l2.3,0.1l2.7-1l2.7-0.1l1.2-1l0.7-1.4
			l1-0.9l1.9-2.5l1.5-2.9l-0.4-1.4l0.1-0.8l0.5-0.7l1.3-0.7l0.3-0.8l0.8-0.5l0.2-1l0.1-2.6l0.2-0.8l1-1.6l0.4-0.3l0.4-1.6l0.3-0.4
			l0.6-0.1l0.7,0.7l0.9,0.4l0.3,0.4v0.5l0.7,0.4l0.9-0.1l1.2-0.4l2.1-1.3l2.7-0.9l2.4-1.4l1.5-0.1l1.7,0.4l1.9-0.5h1l0.6,1.3
			l0.7,0.5l1.5,0.7l0.6,0.1l1.3-0.3l0.5,0.4l1.3,1.6l1.6,0.6l0.4,0.1l1.5-0.9l1.5-0.2"/>
		<path id="ID-KR" class="st2" d="M341.9,552.3l0.1,0.3l0.9,0.3l0.1,0.5l0.7,1.1l0.5,0.4l-0.1,0.3l-1.2,1l-0.5,1l-0.2,1.3l-0.1,0.1
			l-0.5-0.1l-0.8-1h-0.2l-0.6,0.2l-0.2,1.5l-0.6,0.2l-0.3-0.3l-0.1-1.2l-0.4-1.4l-0.8-0.3l-0.6-0.7l0.3-1l0.3-0.4v-0.4l0.7-0.1
			l0.1-0.2l0.1-0.9l0.3,0.9l-0.5,0.5l0.5,0.8l0.2-0.2v-0.8l0.1-0.1l0.3,0.3l0.7,0.1l0.6-0.4v-0.7l0.2-0.2l0.7-0.2l0.2,0.1
			L341.9,552.3z M348.1,549.5l0.2,0.1l0.4-0.1v-1.1l0.3-0.2l1.4,1.9l1.1,0.9l0.9,0.1l0.1,0.5l-0.4,0.1l-1.4-0.6l-0.3,0.3l0.5,0.6
			l-0.1,0.3l-1.1-0.5l-0.5,0.1l-1.1-0.8l0.1-0.3l-0.2-0.1l-0.4,0.1l-0.4-0.6l-1-0.5l-1,0.2l-1,0.7l-0.6-0.1l-0.8,0.6l-0.4-0.2
			l-0.2-0.5l-0.8,0.2l-0.6-0.3l-0.1-0.3v-0.8l0.8-0.6l0.1-0.3l0.7-0.3l-0.2-2.7l1-0.4l1.2,0.6l0.8,0.7l0.6,1h0.3l0.3,0.6l0.7,0.6
			v0.5l0.2,0.3L348.1,549.5L348.1,549.5z M340,542.4l0.2,0.3l0.1-0.5l0.3,0.2l0.3-0.1l2.3,2.4l-0.5,0.2l-0.2-0.1l-0.5,0.4l-0.6-0.3
			l-1.5-1.7l-1.1-1.8l0.3,0L340,542.4L340,542.4z M342.9,540.6l2.1,2.5l0.9,0.9l0.7,0.4l0.1,0.3l-0.2,0.3l-0.8-0.4l-0.7-0.7
			l-1.1-0.7l-1-1.5l-0.9-0.7v-0.6l0.7,0.2l0.1-0.2L342.9,540.6z M340.5,538.7l0.7,0.5l-0.1,0.1l-0.5-0.1l-0.1,0.2l0.3,0.1l0.1,0.3
			l-0.3,0.1l-0.7-0.5l0.1,0.3l-0.2,0.1l-0.3,0.5l-0.4-0.1l-0.6-1l-0.3,0.1l-0.1-0.8l0.1-0.2l0.6,0.5l0.2-0.1l0.1-0.5l-0.5-0.3
			l-0.3-0.4l0.4,0.1L340.5,538.7L340.5,538.7z M337.6,529.4l-0.2,0.5v0.5l0.8,0.6l-0.4,0.1l-0.5,0.3l1.1,0.2l0.1-0.4l0.5,0.3
			l-0.2,0.3l-0.8-0.2v1.1l-0.1,0.1l-0.7-0.5l-1.5-2.6v-0.2l0.6-0.1h0.4l0.8-0.2L337.6,529.4z M330.5,529.9l-0.1,0.2l-0.6-0.8
			l-1.2-1.1l-0.3-0.4l-0.1-0.7l1.2,0.5l0.8,0.7l0.1,0.5l0.5,0.6l-0.1,0.3L330.5,529.9L330.5,529.9z M328.8,529.6l-0.3,0.6l-0.2-0.5
			l-0.4-0.1l-1-0.7l-0.6-0.9v-0.5h0.3l0.4-0.5l1.3,1.5L328.8,529.6L328.8,529.6z M321.5,527.3l0.1,0.8l1.3,1.6l-0.2,0.4l-1.2-0.9
			l0.5,0.8l-0.2,0.9l0.4,0.4l-0.5,1.2l-0.2,0.2h-0.4l-0.3-0.4l-0.2,0.2l-0.7-0.2l-0.4-0.8l-0.7-0.8l-0.2-2.1l0.4-0.6v-0.9l0.6,0.2
			l0.3,0.4l-0.1-0.7l0.2-0.5l-0.1-0.2l0.6-0.5l0.6,0.1l0.2,0.3L321.5,527.3L321.5,527.3z M334.5,526.1l0.4,0.1l0.2-0.5l0.5-0.1
			l0.4,0.5l-0.2,0.6l-0.4,0.1l0.1,0.6l0.5,0.2l0.4-0.1l0.9,0.4v0.2l-0.4,0.4l-1.1,0.8h-0.4L335,528l-0.8-0.4l-0.3,0.1v-1.1l-0.2-0.2
			l-0.4,0.4l-0.3-0.3l0.2-0.8l0.6-0.1l0.7,0.3L334.5,526.1L334.5,526.1z M328.1,525.8h-0.2l-0.8-0.9v-0.4l0.5-0.4l0.6,0.6V525.8z
			 M329.5,523.5l-0.1,0.3l0.4,0.4l0.3,0.3l0.3,0.3l1.5,0.8l0.1,0.6l-0.4-0.1l-0.1,0.2l-0.1,0.2l0.1,0.5l-0.2,0.2h-0.3l-0.6-0.7
			l-0.9-0.3l-0.8-0.6v-0.7l0.2-0.3l-0.8-0.7l0.1-0.3l0.4,0.2l0.4-0.3v-0.6l0.2,0.1L329.5,523.5z M319.9,522.2l0.1,0.2l-0.2,0.1
			l-0.4-0.1l-0.1,0.9l0.3,0.7l0.4,0.1l0.6,1.3l-1,0l-0.1-0.3l-0.7-0.1l-0.9-0.6v-0.9l0.2-0.2l0.2-0.6l0.8-0.2l0.4-0.7L319.9,522.2z
			 M335.1,522.2l0.1,0.6l-0.3,0.3v1.4l-0.9,0.1l-0.2,0.5l0.2,0.5l-1-0.3l-0.3,0.3l-0.6-0.2L332,525l-0.9-0.1l-0.8-0.5l-0.4-1.2
			l0.1-0.3l0.5-0.1l-0.1,0.7h0.4l-0.1-0.8l-0.2-0.1v-0.3l1.4,0.2l0.2-1l0.4-0.1l0.7,0.8l0.4,0.1l0.2-0.3l-0.3-0.2v-0.4l0.7-0.3
			l0.5,0.4L335.1,522.2L335.1,522.2z M343.9,521.5l0.2,0.8l0.9,0.5l0.6,1.4l-0.3,1.4l0.1,0.5l0.2,0.2v0.5l-0.3,0.1v0.3l0.3,0.1
			l0.7-0.1l-0.1,0.6l-0.9,1.2l-0.7-0.3h-1.1l-0.7-0.2l-0.9-0.8l-0.3,0.1l-0.8-0.2v-0.2l0.8-0.2l-0.5-0.5l0.1-0.3l-0.1-0.2l-0.5-0.4
			l0.3-0.4l0.7,0.1l-0.2-0.5l0.5-0.6l-0.5-0.5l-0.9,0.5v0.7l-0.2,0.2h-0.4l0.1-0.4l-0.6-0.2l-0.2,0.4l-0.3,0.1l-1.4-0.1l-0.4-0.4
			l-0.3-0.7l-0.1-0.5l0.6-0.9l1.8-0.3l-0.3-0.9l0.5-0.2l0.8,0.2l0.1-0.2l0.5-0.2l1.3,0.5h0.7l0.7-0.4l0.2-0.6l0.5-0.1l0.2,0.1
			L343.9,521.5L343.9,521.5z"/>
		<path id="ID-KS" class="st2" d="M585.7,619.3l-0.2,0.2l-1.3-2.1l0.8-2l1-1.3l0.3-0.1l0.2,0.5v0.7L585.7,619.3L585.7,619.3z
			 M580.1,627.6l-0.7,0.2l-0.6-0.1l-0.1-0.2l0.1-0.9l0.5-1.5l-0.1-2.1l-1.1-1.5l-0.3-1v-0.8l2.2-6.6l2.9-2.1l0.3,0.1l0.1,0.4
			l-0.4,2.7l0.3,3.1l1,4.7l-0.3,2.9l-3,2.2L580.1,627.6L580.1,627.6z M572.6,572.1l-0.3,1.2l-1.2,1.5l-0.3-0.1l0.2-0.9l-0.4-0.1
			l-1,0.8l-0.5,0.8l-0.8,0.7l-0.1,0.4l0.2,0.4l0.7-0.3l0.7,0.1l0.3,0.5l-0.2,0.8l0.2,0.4l0.8,0.7l-0.2,0.4l0.1,0.6l0.6,0.7l0.4,0.9
			l0.2,2.2l-0.1,0.8l-0.4,0.8v0.5l0.3,0.4l-0.2,0.7l0.2,0l0.4,0.3l0.6-0.2l0.7,0.3l0.2,0.3l-0.4,0.7l-0.2,1.8l0.8,2l0,1.2l0.3,0.6
			l0.6-0.2l0.5-0.4l0.1-0.4l0.9-0.3l0.6-0.6l0.6,0.6l0.5,0.1l3.2,0.2l1.5,0.5l3.2,0l1.3,0.3l1.6,0.7l0,0l-0.5,2.2l-0.6,0.8h-0.5
			l-0.2-0.2l-0.1-0.7l-0.9-0.5l-2.3,0.5l-0.1,1.9l1.2,1.1l0.2,3.7l-0.4,1l-1.7,2.1l-0.6,0.3l-0.3-0.1l-0.3-0.4l-0.2-1.4l-1.1-2
			l-0.2-0.2l-0.2,0.2l-0.5,2l0.2,1l1.2,1.7l0.7,0.6l0.1,1.2l-0.9,0.5l-1.5,2l-1.8,3.4l-0.5,2.9l-0.3,0.6l-0.5,0.3l-2.3,0.3l-1.4,1.3
			l-0.8,0.5l-3.8,1.6l-5.4,2.1l-7.3,3.1l-4.5,2.7l-1.5,0.2l-0.4-0.5l-0.2-0.7v-8.7l-0.1-1l-0.4-0.8l-1.2-1.6l-0.8-0.8l-0.9,0.1
			l-1.8-1l0,0v-1.1l0.9-2.8l1.7-2.7l0.5-2.7l1.8-3.5l1.2-0.3l0.4-0.3l0.2-0.2l-0.2-0.3l0.2-0.5l0.4,0.1l1-0.4l0.5-0.7l0.4-2.1
			l0.8-0.7l0.6-0.9v-0.8l0.2-0.4h0.7l7-5.1l0.5,0.3h0.4l0.2-1.5l0.5-1l-0.9-1.8v-0.5l1.1-0.9l0.3-1l-0.8-1.1l-0.1-0.9l0.8-2.6l1-4.6
			l0.2-0.2l2.2-0.2l2.1-0.8l0.5-0.4l0.6,0.1l1.2-0.9l0,0L572.6,572.1L572.6,572.1z"/>
		<path id="ID-KT" class="st2" d="M469.9,606.3l0.4-1.1l0.5-0.3l1.4-0.5l0.9-0.6l1.4-0.2l0.7-0.6l0.2-0.7l1.7-0.4l1.1-0.5l0.6-1.1
			l-0.2-0.5h-0.4l-0.5-0.3l0.4-1l-0.6-2.4l-0.1-1.5l-0.6-2.2L476,591l0.7-0.9v-0.3l0.2-0.3v-0.3l-0.8-1.5l0.8-0.7l-0.1-0.5l0.2-0.5
			l-0.1-0.2l-1-0.2l-0.6,0.2l-0.4-0.3l-0.2-0.5l0.4-0.5v-0.4l-0.4-0.5V583l0.1-0.5l0.4-0.4l0.2-0.5l-0.1-1.4l-0.3-0.6l-0.3-0.2
			l-0.5,0.2l-0.1,0.5l-0.2,0.2l-0.5,0.1l-0.3-0.2l-0.2-0.5l-0.5-0.1l0-0.9l0.6-0.5l0.3-0.5l1-0.2l0.5-0.7l0.6,0.5l0.4-0.4l0.6-0.2
			l0.4,0.5l1-0.3l-0.1-0.5l-0.3-0.5l1-0.6l0.3,0.2v0.6l0.4,0.2l0.1-0.8l-0.2-0.9l0.5,0.2l0.2-0.6l1.3,0.3l0-0.4h0.2l0.5-0.6l0.2-0.7
			l0.7-0.4l0.4-0.9h0.4l0.1-0.6l0.3-0.2h1.3l0.4-0.3l1.4-0.3l0.1-0.3l-0.4-0.3l0.3-0.6l-0.4-0.8l0.3-0.6l0.6-0.2l0.5-0.6l-0.2-0.8
			l0.4-0.4l0.7,0l1.1-0.7l0.3-0.3l0.9-0.3l1.2,0.1l0.5-0.3l0.2-0.7l0.2-0.1l0.8,0.2l-0.4-0.9l0.2-1l0.6,0.6l0.4,0.2l1.4-0.4l0.1-0.4
			l-0.4-1.3l0.2-0.2l1.3,0.1l0.9,0.4h0.4l0.1-0.1l-0.3-0.8l1-1.3h0.6l0.4,0.3l0.8,1.4l0.5,0.6l0.4-0.5l0.5,0.2l1-0.4l0.6-0.5
			l0.4,0.2v0.7l0.4,0.3l0.3-0.3l0.1-0.5l1,0.2l0.1-0.2l1.1-0.1v-0.2l0.7-0.4h1.1l0.3-0.5h0.9l0.1-1l0.7-0.2l0.7,0.2l0.8-0.1l0.8-0.7
			l1.7-0.5l0.4-0.4l1.6,0.2l0.4-0.3h0.4l0.3-0.6l0.5-0.1l0.2,0.4h0.6l0.3,0.6l0.2,0.2l0.2-0.1l0.2-0.6l0.8-1l-0.2-0.9l-0.9-0.8
			l0.3-0.2l0.2-0.7l0.6-0.4l0.5-0.7l1-0.2l0.7-0.6l0.3-0.7l0.4-0.1l0.1-0.4l-0.4-0.2l0.5-0.3l0.4-0.9l-0.1-0.3l-0.4-0.1l0.2-0.9
			l0.3-0.5l-0.4-0.3l-0.2-0.4l0.2-1.6l-1.8-1l-1.2-1.2v-0.2l0.7-0.5l0.9-0.2l1.6,0.3l1.1-0.7l0.6-0.5l0.1-0.3l1.1-1l0.2-0.4l1.6-0.9
			l0.3-1.3l0.8-0.5h0.5l0.2-0.5l0.4-0.2l0.2-0.5l0.4-0.3l0.3-0.8l0.6-0.3h0.6l0.5,0.4l0.3-0.2l0.3,0.1l0.8-0.3l0.6,0.1l1.5-0.8
			l0.4,0.1l0.4-0.1l0.9,0.5l0.4,1.2l-0.4,0.4v0.2l0.7,0.4l0.1,0.5l0.5,0.2l1.8-0.2l0.9,0.2l0.6,0.5l0.8,0.1l0.2-0.1l-0.1-0.8
			l0.8-0.5h1.2l0.2-0.5v-0.8h0.9l1-0.8l0.6-0.8l0.7-0.1l0.4,0.2l1-0.7l0.6,0.1l0.5-0.3l0.6,0.4l0.2,0.5l0.5,0.1l-0.3-0.6l0-0.3
			l0.9-0.9l0.6,0.2l0.5,0.4l0.5,0.8l0.3,1.9l0.7,1.4l0.9,1l0.4,0.8l0.8,0.7l-0.1,0.8l-0.2,0.5l-1.4,1l-0.2,0.4l-0.4-0.6h-0.2
			l-0.9,0.1l-0.4,0.2l-0.1-0.2l-0.3-0.1l-0.8,0.5l-0.6,1.3l-0.2,0.2l-0.5,0.1v0.4l-0.5,0.6l0.1,0.5l-0.4,1l0.3,0.6l0.7-0.1l0.4,0.4
			h0.4l0.3,0.4l0.1,1.7l0.5,1l-0.1,0.8l0.2,0.6v0.6l1.1-0.3l1.1,0.3l0.9-0.8l0.5-0.3h0.6l0.3-0.8l2.9-1.4l0.4,1.3l-0.5,0.7l-0.5,0.3
			v0.8l-0.7,1.1l0.3,0.5v0.6l-0.5,0.1l0.2,1.7l0.4,0.1l-0.2,1.3l0.3,0.1l0.8,0.9l0.5,1.2l0.6,0.5l0.3,2.2v1.4l0.5,1.2l2,0.3l0.9,0.8
			l0.7,1.2l1.6,1l0.3,0.3l0.2,1.1l0.5-0.1l0.5,0.5l0.4,0.2l0.2,0.8l0.3,0.2l0.4-0.4l0.4-0.1l0.9,0.8v0.3l-1.1,0.8l-0.5,0.6l-0.3,1.5
			l0,0l-0.4,0.4l0,0l-1.2,0.9l-0.6-0.1l-0.5,0.4l-2.1,0.8l-2.2,0.2l-0.2,0.2l-1,4.6l-0.8,2.6l0.1,0.9l0.8,1.1l-0.3,1l-1.1,0.9v0.5
			l0.8,1.8l-0.5,1l-0.2,1.5h-0.4l-0.5-0.3l-7,5.1h-0.7l-0.3,0.4l0,0.8l-0.6,0.9l-0.8,0.7l-0.4,2.1l-0.5,0.7l-1,0.4l-0.4-0.1
			l-0.2,0.5l0.2,0.3l-0.2,0.3l-0.4,0.3l-1.2,0.3l-1.9,3.4l-0.5,2.7l-1.7,2.7l-0.9,2.8v1.1l0,0l-2.9-1.4l-2.2-0.6l-1.5,0.1l-4.2,2
			l-2.2,0.3H530l-1.3-0.8l0.6-1.8l0.1-1.9l-0.3-1.1l-0.4-0.6l-2.7,0.2l-0.5,0.6l-0.2,0.7l-1.5,0.3l-2.5-1.6l-3.7-3.8l-0.6-0.1
			l-1.7,1.9l-0.1,0.7l0.5,0.7l-0.4,1.2l-3.9,2.4l-1.4,1l-0.8,0.9l-2.1,0.6h-0.4l-2.3-1.9l-2.3-0.8h-1.2l-1.7,0.7l-4.4,4.2l-0.7,0.4
			l-0.5,0.1l-1.7-0.7l0.8-2.7l-0.6-4.4v-1l0.3-1.3v-0.8l-1.6-2.9l-0.5-1.9l-0.6-0.1l0.1,1l-0.7,1l0.5,0.4l-0.1,0.5l-1.1,0.2
			l-0.4,0.4l-1.5,0.9l-0.2-0.6l-1.1-1l-0.9-0.7l-0.5-0.1h-1.8l-3.6,2.1l-1.5,0.6l-1.1,0.4l-1.8,0.2l-2.6-1.8L469.9,606.3z"/>
		<path id="ID-KU" class="st2" d="M611.8,478.6l-0.7,0.5l-1.5-1.2l-0.6-1.5V476l0.2-0.3l1.7-0.1l1,0.3l0.2,0.4L611.8,478.6z
			 M606.2,472.9l2.6,1.5v0.2l-0.6,0.5l-2-0.9l-2.3-0.1l-0.8-0.4l-0.5-0.6l0.1-0.5l1.1-0.5L606.2,472.9L606.2,472.9z M612.9,464.2
			l-0.9,0.4l-1.4-1l-0.2-1.1l0.1-0.3l0.9-1l0.6,0.1l1.5,1.2l0.1,0.6L612.9,464.2z M616.2,460.3l0.5,0.2l0.5,2.4l-0.7,0.5l-0.6,0.1
			l-0.7-0.4l-4.2-3.3l0.1-0.3l1.1-0.9h0.6l1.3,0.4l0.2,0.5l0.7,0.5L616.2,460.3z M571.2,462v-1.1l0.4-0.8h0.4l0.9-1.1l0.5,0.1
			l0.2,0.4l0.5-0.1l0.2-0.7l0.8-0.7l-0.2-0.5l0.2-1.2l0.6-0.2l0.4,0.7l1.8,0.4l0.3,0.2l0.1,0.6l0.8,0.6l0.2-0.2l0.5-0.9l1-0.4
			l0.2-0.8l0.2-0.1l1.7,0.2l0.4,0.2l1.8-0.4l1.4,1.1l0.2,0.8l0.7-0.2l0.3-0.6l0.4,0.2l0.5-0.1l-0.1-0.7l0.6-0.8l0.5,0.5l0.5,0.1
			l0.3,0.7l0.9-0.3l0.6,0.2l0.4-0.1l0.3-0.2l0.3-0.6l0.5,0.3l0.5,0.6l0.3-0.1l0.6,0.3l0.8-0.2l0.6-0.5l0.9,0.2l0.3,0.3l0.8,0.1
			l0.3,0.4l0.4-0.5l1.3,0.2l0.8-0.2l0.7,0.1l0.8-0.2l0.1-0.2l0.6-0.2l3.6,2.5l0.5,1l0.3,0.2l1.4,0.4l1-0.3l0.3,0.2l0,0l-1,0.6
			l-1.1,0.3l-1.8-0.5l-0.2,0.2v0.7l0.5,0.4l1.1,0.3l3.1,2.6l-2.1,0.3l2,1.1l1.8,0.2l1.5,1.6v0.3l-0.3,0.8l1.2,0.4L615,470l-1.4,1.3
			l-1.3,0.2l-3.8,0.3l-3.2-0.5l-2.1,0.4l-0.6,0.4l-0.5,0.8v0.5l0.7,1l1.8,1.1l1.5-0.2l1,0.2v1l-0.3,0.6l2.1,1.1l-0.2,0.3l-1.5,0.2
			l-1,0.4l-0.3,0.5l-1.1,0.2l-0.2,0.4l0.6,0.4l2.4,0.4l3.2,1.4l1.4,2.5l-0.3,1.9v1.5l1.2,0.2l0.9,0.6l0.2,0.4l0.2,1.6l0.3,0.9
			l3.3,3.2l0,0l-0.8,0.7l-1.5,0.2L614,497l-0.4-0.1l-1.6-0.6l-1.3-1.6l-0.5-0.4l-1.3,0.3l-0.6-0.1l-1.5-0.7l-0.7-0.5l-0.6-1.3h-1
			l-1.9,0.5l-1.7-0.4l-1.5,0.1l-2.4,1.4l-2.7,0.9l-2.1,1.3l-1.2,0.4l-0.8,0.1l-0.7-0.4v-0.5L589,495l-0.9-0.4l-0.7-0.7l-0.6,0.1
			l-0.3,0.4l-0.4,1.6l-0.4,0.3l-1,1.6l-0.2,0.9l-0.1,2.6l-0.2,1l-0.8,0.5l-0.3,0.8l-1.3,0.7l-0.5,0.7l-0.1,0.8l0.4,1.4l-1.5,2.9
			l-1.9,2.6l-1,0.9l-0.7,1.4l-1.2,1l-2.7,0.1l-2.7,1l-2.3-0.1l-0.5,0.5l-0.3,1.9l-0.6,0.3l-0.9,1.1l-1.2-0.2l-1,1.1l-0.9-0.1
			l-0.7-0.3h-1.6l-1,1.2l-0.8-0.1l-0.5-0.2l-0.5-0.5l-0.2-0.7l-0.4-0.5l-0.6-0.2l-0.9-0.1l-1,0.5l-0.2-0.3l-0.2-1.2l-0.9-1l-1.9-0.5
			l-0.7-0.6l-0.3-0.5l-0.9-0.5l0,0l0.6-1l-0.2-0.4l0.2-0.9l0.9-0.6l0.6-1.1l0.5-0.4l0.2-1.2l-0.1-1.4l-0.2-0.1l0.6-0.8l-0.1-0.3
			l0.7-0.2l0.6,0.3l0.5-0.8l0.8-0.1l0.4-0.4l-0.5-1l0.1-0.3l0.8-0.6v-0.3l-0.6-0.3l-0.9,0.4l-0.2-0.5l0.2-1.1l-0.4-0.2l-0.2-0.3v-1
			l0.4-1.5l2.2-0.2l0.9-0.6v-0.3l-0.4-0.5l0.4-0.7l0.8,0.1l0.5-0.3l0.6-0.7h0.8l0.2-0.7l0.5-0.5l0.7-0.2h0.9l0.7-0.6l0.1-0.4
			l-0.5-0.4l-0.1-0.4l-0.8-0.9l-1.2,0.4l-0.4-0.6l0.4-0.4l0.1-0.5v-0.6l-0.3-0.2V490l0.7-0.6V489l0.2-0.4l-0.2-0.3l-0.6-0.2v-0.2
			l1.1-0.9l0.3-1.2l1.9-1.3l0.4-1l0.7,0.8v0.5l1.5-0.1l1-0.9l1.2-0.2l0.2-0.4v-1l0.2-0.3l1-0.8v-0.2l-0.8-0.6L568,480l0.5-3.3
			l0.7-1.5h0.4l0.5,0.7l0.5-0.7l-0.7-1.2l-0.2-1.3l-0.5-0.6l-0.2-1l0.1-1.8l0.2-0.8l0.6-1.2v-0.7l-0.1-0.2l-0.9-0.7l-0.2-0.4l1-0.3
			l0.5-0.5l0.8-2.5l0,0V462H571.2z"/>
		<path id="ID-LA" class="st2" d="M327.5,643l0.8-0.1l0.1,0.6h0.5l0.5,0.6v0.6l-0.5,0.5v0.2h0.4l0.9,0.8l0.4-0.4l0.2-1.1l0.6,0.5
			l1.7-0.2l0.3-0.2l0.2,0.1l0.1,0.3l1.1,0.3l1.2-0.6l0.2-0.5l0.5-0.1l0.5,0.3h0.5l0.4-0.2l0.5,0.5l0.4-0.1l0.9-1.1v-0.4l-0.1-0.4
			l-0.8-0.7l-0.1-1l-0.6-0.4l0.3-0.9l0.8-0.8l-0.4-3.2l0.3-1l0.3-0.1l0.1-0.5l1-0.7l0.6-0.7l0.7,0.1l0.7-0.6l1.4-0.6l0.8-0.7
			l0.5,0.6l0.3,0.1l2.7,0.2l1.8-0.3l0.1-0.4l1.3-0.7l0.7-0.3h0.7l0.5-0.6l0.7-0.5l0.4-1.1l0.4-0.4l0.5-0.1l-0.4-0.4l0.5-0.5l0.3-1.3
			l0.3,0.2l0.2-0.1l0.1-0.6l0.6-0.3l0.8,0.3l0.8-0.8l0.3-0.6l-0.3-0.7l0.5-0.4l0.1-0.7l0.4-0.5l0.3,0.2l0.4,1.3l0.4-0.3l0.6-0.1
			l0.4,0.1l0.1,0.8l0.9-0.1l0.2,0.3h0.7l-0.1,1l0.1,0.2l0.5-0.2l0.4,0.3l-0.1,0.5l0.3,0.2l0.4-0.2l0.1,0.1l0.1,0.4h-0.5l0.5,0.5v0.3
			l0.4,0.4l-0.5,0.6l-0.1,0.3l0.3,0.1v-0.3l0.3,0.2l0.5-0.1l0.1,0.1l-0.4,0.3v0.3h0.8v0.3l0.3,0.1l-0.1,0.5l0.2,0.2l0.9,0.1l0.4-0.2
			l0.1-0.3l0.3-0.1l0.6,0.3l0.3,0.7l0,0l-0.2,3.2l1.7,2.8l0.1,0.4v1.5l-0.4,1v0.4l0.6,0.6l-0.7,1.4l-0.4,2.2l0.2,1l0.6,0.7l0.1,0.5
			l0,0.3l-0.6,0.3l-0.3,1.5l0.2,4.3l-0.2,0.6l-0.6,0.4l-0.1,0.6l0.1,2.6l-0.2,1.9l0.2,0.9l-0.7,2.5l0.1,1.4l-0.4,1.2l-0.9,1.3
			l-0.3,0.1l-0.2-1.2l-2-0.3l-0.4-0.3l-0.2-0.6v-0.6l0.2-0.4l-0.1-0.3l-0.7-0.7h-0.6l-0.2-0.3l-1.6-0.9l-1-0.9l-0.3-0.8l-1.4-2
			l-0.4-0.1l-0.4,0.2l-0.2,0.4v2.1l-0.1,0.3l-0.9-0.3l-0.7,0.5l0.5,0.6v0.4h0.4l-0.6,0.4l0.2,0.3v0.4l0.5,0.4l-0.1,0.1H356l-0.4,0.5
			l0.3,0.5l0.9-0.1l-0.6,0.6l-0.7,0.1l-2-1.1l-2-0.8l-3.6-2.3l-0.9-0.7l-0.9-1.1h-0.7l-1.2-0.4l-1,0.5l-0.5,0.5l0.5,0.3l0.2,0.7
			l1.2,1.4l0.4,0.3l0.3,0.6v0.4l-0.2,0.1l1.4,2.1l-0.1,0.3l0.6,1.4l-0.1,0.2l-2.9,0.2l-0.4-0.2l-0.1-0.3l0.4-0.2l-0.2-0.9l-2.5-2.3
			l-0.5-0.8l-1-0.7l-1.4-0.7l0.4-0.5l-1.1-1.4L334,656l-1.8-2l-0.1-1.2l-0.4-0.3l-1.6-0.3v-0.5l0.6-0.7l-0.2-0.6l-0.5-0.6l-0.3-0.3
			h-0.4l-0.5-0.7l-1.2-0.9h-0.4v0.2h-0.2l-0.2-0.1l0.1-0.8l-0.9-0.8h-0.8l-0.8-0.7l-0.6-0.2l0,0l0.2-0.6l0.4-0.1l0.7-0.6l0.5-0.1
			l0.6-0.5l0.1-0.6l1,0.1L327.5,643L327.5,643L327.5,643L327.5,643z"/>
		<path id="ID-MA" class="st2" d="M844.1,714.1l-1.8-0.1l-1.7-0.8l-0.2-0.4l1.2-0.5l1.6,0.1l1.2,0.6l0.1,0.6L844.1,714.1
			L844.1,714.1z M820.1,710.7l2.2,0.8l2.1,0.2l1-0.2l0.5,0.3v0.3l-1.9,2l-0.2,0.1l-4-1.3l-0.6-0.4l-0.8-1.5L820.1,710.7L820.1,710.7
			z M880.7,715.9l-0.8,0.1v-0.3l1.9-2l1.5-0.8l0.7-1.2l1.1-1.2l0.4-0.1l3,1l-0.8,0.7l-3.7,1.5l-1.3,0.9l-0.2,0.5l-1.4,0.9
			L880.7,715.9L880.7,715.9z M859.5,709.9l-1.5-0.4l-2.3-2.8l-0.2-0.5l0.2-0.9l0.1-0.5l0.3-0.4l1.9-0.3l2.4,0.7l0.5,0.4l0.4,1.7
			L859.5,709.9z M797.1,701.9h1l0.5,1.6l-1.7,0.1l-2,0.6l-1.1,0.8l-1.1,1.4l-1.7,0.9l-2.9-0.3l-3.2-0.6h-1.2l-2.7,0.6l-2.6,2.2
			l-0.4,0.1l-0.2-0.3l0.8-3.2l3.3-4l4.4,1.3l3.1-0.5l1.5-1.3l1.5-0.7l2.7-0.7l0.2,0.2l0.1,0.8L797.1,701.9L797.1,701.9z
			 M810.9,701.4l-0.3,0.2l-0.4-0.1l-0.3-0.5l0.4-2.4l0.4-0.3l2,0.7l0.1,0.3l-0.2,0.8L810.9,701.4z M886.2,698.6l-1.6-0.5l-0.3-0.6
			l0.4-0.6l0.6-0.2l2.8-0.3l0.2,0.2l-0.9,1.1L886.2,698.6L886.2,698.6z M899.9,692.4l-0.9,0.4l-0.5-0.1l-0.7,0.6l0.8,3.9v0.9l-1,3
			l-1.2,1.5l-3.5,2.6l-1.2,1.9l-0.1,1.5l-0.2,0.4l-0.5,0.3l-3.4-0.3l-0.6-0.3l-0.5-2.7l2.2-3.7l-0.3-0.6l1.2-3.4l1.4-1.1l0.6-0.2
			l1.1-1l1.5-1.8l1.6-2.8l0.9-0.5l1.5-0.2l1.2,0.6L899.9,692.4L899.9,692.4z M903.7,690.3l1.1,1.6l0.2,0.8l-0.3,0.6l-0.2,0.1l-1-0.7
			l-0.5-1.1l-1.2-0.2l-1.4,0.3l-0.6-0.1l-0.2-0.3l0.1-0.6l0.3-0.2L903.7,690.3z M836.7,692.3l-0.6,0.2l-1.8-1.1l-0.3-0.5l0.1-0.2
			l0.4-0.4l1.4-0.9l1.7,0.9l0.1,0.2l-0.5,1.2L836.7,692.3L836.7,692.3z M964.6,674.8l-0.4,0.4l-0.7,1.7l-0.1,0.8l-0.8,1.5l-0.3-0.3
			l-0.5,0.1l-0.1,0.5l0.2,0.5l0.4,0.2v0.5h-0.4l-0.4,0.2l-0.2,0.8l-0.8,1.2l-0.6,0.6h-0.3l-0.7-0.5l0.1-0.5l0.6-0.5l0.4-0.9l0.1-1
			l0.5-0.7h-0.4l-0.3-0.3l-0.4-1l0.1-0.6l0.8-0.5l0.9-0.3v-0.9l0.2-0.3l0.8-0.4l0.4-0.6l1.2-0.9h0.6l0.3,0.3L964.6,674.8
			L964.6,674.8z M921.1,666.3l-0.7,0.3l-1-0.3l-0.5-0.5l0.1-1.5l-0.3-2.5l-0.6-1.6l0.1-0.4l1.3-0.4l2.1,4.1v1.3L921.1,666.3z
			 M961.1,661.1l0.1,1.2l0.5,1.3l-0.7,0.2v0.4l1.6,0.8v0.4l-0.2,0.3l-0.5,0.1l-0.9-0.4v0.6l0.5,0.3l0.1,0.3l-0.1,0.5l-0.3,0.2
			l-0.4-0.1l-0.7-0.6l-0.2,0.2v0.4l1.1,0.8l0.2,0.4l0.7,0.4l0.4,0.7l-0.4,2.7l-0.4,1.1l-0.8,1.3l-1.5,0.8l-0.6-0.1l-0.3,0.2l0.4,1.2
			l0.6,0.4l-0.1,0.6l-1.3,1.2l-1.1-0.3l-0.4,0.2l-0.3,0.7l0.1,0.4l0.6-0.2v0.6l-0.7,1.2l-0.8,0.5l-1.6,1.8v0.8l-0.6,0.8l-2.4,1
			l-0.4,0.4l-0.5-0.1l-0.4-1l-0.4-0.4h-0.8l-0.9-1.6v-0.4l0.3-0.2l0.4-1.8l0.3-3.7l0.3-0.9V676l0.4-1.2l-0.2-2.1l-0.5-1.8l0.8-0.1
			l-0.5-1.4l0.3-0.7v-0.6l0.5-0.4l0.2,0.2v0.4h0.3l0.6-0.3h0.5l0.1,0.8l0.2,0.2l0.4-0.1l0.5-0.5l0.6-1.6v-0.2l-0.6-0.3v-0.4l0.2-0.3
			l0.6-0.5l0.1-0.4l0.5-0.4l0.3-0.7l-0.1-0.3l-0.3-0.2l-0.6,0.3l-0.9-0.7l-1-0.1l-0.6-0.6l0.1-0.4l0.8-0.8l1.2,0.8h0.4l1.5-1.2
			l0.8-2l0.9-0.6l0.1-0.8l-0.2-1l0.2-0.5l1.1-1.4l0.7-0.2l0.4,0.2l1.1,2l0.6,0.5v0.4l0.5,0.8v1.3l1,1.3l-0.1,0.6L961.1,661.1
			L961.1,661.1z M924.8,664.9l-2.2,2.8l-0.2-0.1v-0.4l1.9-5.9l0.4-0.7l0.7-0.7l2.6-6.6l0.5-0.2l0.7,0.1l0.4,0.8l-1.6,5.2l-0.6,0.8
			l-1,0.6l-1.3,1.9l-0.3,1.2L924.8,664.9z M834,619l-2.5,0.5l-0.2-0.2l0.3-0.7v-1.2l0.6-0.5l1.4,0.1l1.1,1.1v0.2L834,619z
			 M836.1,617l1,0.3l0.4-0.8h0.3l0.3,0.9v1.5l-1.7,0.3l-0.3-0.1l-1.4-2v-0.4l0.3-0.2h0.3L836.1,617L836.1,617z M830.2,619.1
			l-0.8,1.4l-1.2,1l-2.5,0.7h-0.5l2.1-2l0.3-0.5l-0.3-0.2l-4.3,2.7l-0.9-0.1l-0.5-0.6v-1l1.1-1.2l1.3-0.8l3.2-0.6l0.9-1.1l0.8-0.3
			l0.7,0.2l0.7,0.4l0.2,0.3L830.2,619.1L830.2,619.1z M815.8,613.8l-2.3-0.7l-0.8-0.8l0.9-0.7l0.9,0.1l1.1,1l0.5,0.8L815.8,613.8
			L815.8,613.8z M818.7,611.6h-2.1l-0.7-0.6l1.4-1.3l1-0.2l0.7,0.5v1.3L818.7,611.6L818.7,611.6z M802.7,609.3l2.2,1.4l0.2,1.2
			l-1.2-0.1l-0.3,0.4l0.2,0.9l0.9,0.8l0.6-0.2l0.4-0.4l2.4,0.8l-0.5,4.9l-0.4,0.7l-0.6,0.2l-0.8-0.2l-0.8,0.2l-1.8,0.8l-3,1.6
			l-3.5,1.1l-3.8-1.3l-2.6-1.2l-2.8-1.9l-4.1-3.8l-0.6-1.5l-0.2-3.4l0.3-0.7l1.5-1l0.5,0.1l0.5,0.7l0.7,0.5h0.7l0.7-0.9l0.8-0.5
			l2.7-0.7l6.6-0.3l1.8,0.3L802.7,609.3L802.7,609.3z M860.1,604.5l4.6,1.8l1.4,0.1l5.1-0.5l0.8,0.2l4.3,3.1l0.8,2.1v1.6l0.3,1.1
			l0.5,0.6h1.4l1,0.2l0.8,0.8l1,2.8l-0.1,0.7l-0.7,1l-0.3,3l0.2,1l-4.4-1.7l-1.2-1.3l-3.3-1.9l-5.4-1.8l-2.9-1.5l-0.7-0.9v-1
			l-0.9-0.7l-0.5-0.2l-4.8-0.4l-2.8-0.4l-0.3,0.4l0.1,0.6l0.9,1l0.2,0.7l-0.3,0.7l-0.6,0.1l-4.3-1l-1.2-0.1l-1.9-0.7l-0.9-0.5
			l-3.4,0.1l-0.4-0.3l0.2-0.5l0.8-0.7v-0.8l-0.8-0.6l-1-0.2l-2.3,1.4l-1.7,1.6l-0.3,0.5l-1.2,1l-2.4,0.5H833l-0.8-0.3l-0.6-0.5
			l-2.1-3.1l-1.7-1.2l-0.7-2.8h-0.8l-0.9,0.9l-0.7,1.8l-0.4,2.6l-0.5,0.8l-0.5,0.1l-1.1,2l-0.4,1.6l-0.2-0.3l-0.3-1.2l0.6-1.4
			l0.1-1.5l-1-1.6l-0.5-1.6l2.6-2l3.8-4.7l4.7,0.1l3.3-0.2l5.9,0.2l2.5-0.6l1-0.8h0.4l0.4,0.2l0.2,0.4v1.6l0.6,0.7l0.7,0.4l1.6-0.3
			l2.7-1.7l0.4-0.3l0.2-0.8l0.6-0.2l2.5-0.2l2.1,0.6l2.9,1.2l0.5,0.7L860.1,604.5z"/>
		<path id="ID-MU" class="st2" d="M783.8,595.8l-0.6,0.1l-0.6-0.3l-0.6-0.7l-0.4-0.8l-0.3-2l-1-1.5l-0.7-2.9l0.5-1.3l0.3-0.5
			l0.4-0.3l0.7,0.1l0.9,0.8v0.5l-0.6,1.7v0.7l2.4,5.3L783.8,595.8L783.8,595.8z M770.8,582.2l4.5,0.4l1.5-0.2l0.6-0.4l4.7-0.1
			l7.4,0.6l-0.3,0.5l-1.7,0.7l-5.6,0.6l-10.5,0.7l-2.4-1.2l-0.2-0.3v-1l0.8-0.9l0.7-0.1l0.2,0.5L770.8,582.2L770.8,582.2z M761,580
			l1.2,0.4l2.2-0.6l3.5,0.8l0.6,1.2v2l-0.5-0.2l-2.8-0.1l-2.1,0.3l-0.5,0.3l-0.2,0.7l-0.5,0.2l-3-1l-1.4,0.3l-1.9,1.2l-2.4,0.7
			l-1,0.2l-2.4,0.1l-1.6-2.7v-1.3l0.8-2.5l0.6-0.7l2.8-0.5h2.1L761,580z M820.9,574.4l4.7,2.8l0.6,0.5l0.3,0.6v0.5l-0.4,0.9l-1,0.5
			l-0.6,0.1l-7.2-0.6l-1.3,0.8l-2,0.3l-2.3-1.1l-0.8-0.6l-0.3-0.5l0.3-1.2l-0.1-0.6l0.3-1.2l0.4-0.9l0.3-0.4l0.4,0.3l3.5-2.1
			l1.9,0.4L820.9,574.4L820.9,574.4z M815.5,571l-2.4,0.2l-0.8-0.5v-0.2l1-0.9l0.8-0.3l2.1,0.8L815.5,571L815.5,571z M809.4,561.6
			l-0.8,0.3l-2.4-0.5l-0.2-0.2v-0.6l0.7-2.2l0.3-0.3l0.5-0.1l0.5,0.1l0.8,1.5L809.4,561.6L809.4,561.6z M814.6,552l2.3,3l-0.4,1
			l-0.8,0.8l-0.5,1l0.1,0.6l0.9,1.3l0.6,0.4l0.7-0.5l1.5-0.2l1.3,0.6l0.9,1.2l-0.1,0.6l-1.6,1.3l-1.2,0.3l-1.6-0.7l-1.4-1.7
			l-2.5,1.1l-0.5-0.2l-0.4-0.7l-0.7-3.2l-2-2.2l-0.3-1.2l0.6-2.3l1-0.3l0.9,0.8l1.4-0.3l1-0.8L814.6,552L814.6,552z M806.6,556.2
			l-1.4-0.1l-0.2-0.5v-4.2l0.8-0.5l1.9-0.2l0.5,0.5l0.5,2l-0.5,2.4L806.6,556.2L806.6,556.2z M820.7,508.7l0.6,0.2l0.4-0.1l0.5,0.1
			l1.1,1l0.3,0.6l0.5,4l-1,3.5l-1.7,2.9l-1.5,1.2l-3.7,2.6l-0.5,0.7l0.1,1.2l0.5,0.8l2,1.4l0.8,0.3l1-0.2l1.5-1.1l0.2-2.7l0.9-1.6
			l1.3-1l1-0.1l0.9,0.2l0.7-0.3l0.6-1.2l-0.2-0.6l-0.4-0.3l-0.5-0.1l-0.2-1l1.2-1.9l3.8-2.6l1.4-0.6l2.2-0.6l1.6-0.2h1.2l0.5,0.1
			l0.3,0.3l-0.4,9.3l-0.7,0.8l-4.5,2.6l-3,0.9l-1.8,1.7v0.5l0.5,1l1.3,1.1l1,0.6l4.9,1.8h0.9l0.9,0.2l0.4,2.9l-0.2,1l0.8,0.6
			l2.2,0.6l0.9,0.8l0.6,1.2l-1-0.8l-0.8-0.3l-5.5-1.3l-1.8-1.6h-1.9l-1.6,0.2l-1.3-0.3l-0.7-0.4l-0.4-0.6l-1.8-0.3l-2.4-0.2
			l-0.7,0.5l-0.3,0.4l-0.6,2.8l0.6,0.5l0.4,2.8l-0.8,1.3v1.6l3.1,8.1l1.2,2.2l0.9,1.2l1.5,2.6l3.9,3.8l-2.5-0.1l-0.6-0.2l-0.5-0.4
			l0.2-0.4l-2-1.6l-1.8-0.7l-0.6-0.5l-1.6-3.5l-1.7-2.8l-2.9-1.6l-1.1-1.7l0.8-5.7l-0.3-2.7l-0.7-2.9l-0.8-0.4l-1-1l-0.9-2.8
			l-0.1-1.1l0.5-2.3l0.9-0.9l0.6-1.3l-0.1-0.6l-2.2-0.7L813,527l0.3-1.2l-0.6-1.9l-1.7,0.3l-0.2-0.5l0.1-3.1l2.6-4.6l0.2-1.2
			l-0.2-0.5l0.9-4.5l2.5-3.8l4.5-4.8l0.8-0.7h2.2l-0.3,1.3l-1.9,2.9l-0.5,0.6l-0.6,0.2l-0.8,0.6l-0.1,1.9L820.7,508.7L820.7,508.7z
			 M833.5,503.7l-2.3,0.1l-2.3,0.6l-0.6-1.7l-0.4-3l0.1-1.2l1.2-2.3l1.1-1.4l1.8-1.7l2.6-1.2l0.3,0.1l2.2,3l0.2,0.9l-1.5,4.5l-1,1.9
			l-1.2,1.3L833.5,503.7L833.5,503.7z"/>
		<path id="ID-NB" class="st2" d="M644.8,716.9l0.1,0.4l0.8-0.4l0,0.2l0.3,0.4l-0.3,0.5l-0.4-0.3l-0.2,0.4l-0.2,0.1l-0.2-0.2
			l-0.2-1.1l0.2-0.1L644.8,716.9L644.8,716.9z M592.5,716.2l0.1,0.5l-0.2,0.4l-0.1,0.8l-0.7,0.6l-0.5,2l-1.9,2.8l-0.3,0.7l-0.9,1.2
			l-0.1,0.7h0.8l0.6,0.4l0.4,0.1l-0.6,0.8l-0.7,0.2l-0.1-0.2H588l-0.5,0.3h-0.7l0.6-1.8l-1,0.2l-0.5,0.5l0.1,0.6l-0.1,1.2h-0.5
			l-0.2-0.4l-1.4-0.5l-0.4,0.2l-1.3-0.2l-0.3,0.3l-0.5-0.1l-0.2-0.9l-0.4-0.1l-1,0.2l-0.3,0.3l-0.5-0.1l-0.3-0.3l-0.3,0.1l-0.2,0.5
			l-0.4,0.1l-0.7-0.5l-0.7-0.8L576,726l-0.5-0.2h-0.7l-0.4-0.5l-0.2-0.8l0.5-0.9l0.4-0.1l0.1,0.5l0.9,0.5h0.3l0.7-0.7h0.5l0.5,0.3
			l0.3-0.2v-0.2h0.4l0.3-0.3l0.2-1.9l-0.1-1.9l-0.7-0.6l-0.2-0.9l0.5-0.8l1-0.6l0.1-0.6l0.3,0.1l0.1-0.2l1.2-0.5l0.6-0.9l1.1-0.8
			l2-0.7l1.3,0.1l1,0.3l0.5,0.3l2.8,0.7l1.7,1.3L592.5,716.2L592.5,716.2z M610.3,711.8l1.4-0.1l0.5,0.3l0.1,0.2l-1.5,1.1l-1,2.2
			l-0.8,1.1l-1.2-0.7l0.7-1.5l-0.2-0.5H608l0.1-0.7l-0.1-0.8l0.7-0.5l0.9-0.4L610.3,711.8L610.3,711.8z M640.5,713.9h-0.8l-0.6-0.5
			v-1.1l0.4-0.7l0.6-0.4l0.9,0.1l0.5,0.5l0.2,0.6l-0.3,0.8l-0.5,0.5L640.5,713.9L640.5,713.9z M617.7,710.8l1.3-0.2l0.5,0.2l0.5-0.1
			l1.5,0.6l0.1,1l0.4,1.2l0.6,0.7l0.3,0.1l0.5,1.1l1.4,0.8h0.4l0.5-0.4l0.8-0.2l0.3-0.8l1.3-1h0.8l0.3,0.3h1l1.8,0.6l0.6,1l0.1,0.6
			l-0.2,1.8l-0.5,0.7l0.1,0.5l0.7-0.2l0.3-0.5l0.2-0.9l-0.3-0.5l0.1-0.5l0.5-1l0.4-0.5l1.2-0.9h0.5l0.2,0.3l1.2-0.1l1.9,0.5
			l-0.2,0.8l0.1,0.5l1.1,1.7l0.1,1.1l-0.6,0.3l0.1,0.4l-0.2,0.2l0.5,0.7v0.9l0.3,0.2h0.5l0.5-0.3l0.6-0.1l-0.4-0.7l0.5,0.1l0.3-0.2
			l0.1-0.4l0.4-0.2l0.4,0.6l-0.2,0.8l-0.4,0.5l0.2,1.3l-0.8,0.6l-0.4-0.1L641,724l-1.1-0.4l-1.4,0.3l-0.6-0.8l-0.7-0.5l-0.6,0.2
			l-0.2,0.4l-0.3,0.1l-1-0.3l-0.7,0l-0.2-0.2l-0.5,0.2l-0.2,0.5L633,724l0.1,0.2l0.6,0.3h3.3l1,0.5l0.2,0.5l-0.5,0.4L636,726
			l-0.5-0.2l-0.9-0.6l-1-0.2l-1.5,0.3l-2.6,1.2l-1.3,0.3l-1.5-0.6l-0.4-0.9l0.1-0.8l0.8-1l0.1-0.4l-0.2-0.3l0.3-0.5l-0.2-0.6
			l-0.3-0.5h-0.2l-0.1,0.2l0.1,0.7l0.2,0.1l-0.2,0.3l-0.3,0.2l-0.5-0.2l-0.5,0.7l-0.8,0.4l-0.2,0.6l-0.6,0.1l-1.6,1.6l-1.1,0.5
			l-1-0.7h-0.3l-0.3,0.3l-0.9,0.1l-0.4,0.7l-0.6,0.3h-0.4l-1.3,0.8l-0.7-0.3l-0.2-0.2v-0.4l-0.8,0.2l-0.2,0.3h-0.6l-0.3-0.3h-0.4
			l-0.5,0.2l-2.8,1.6l-2.8,0.9l-1.5,0.1l-2-0.7l-1.2,0.1l-1.2,1.2l-2,0.5l-1.2-0.4l-0.4-0.5l-0.8-0.2l-0.4,0.3l-2.3-0.9l-0.9-0.6
			l-0.4-0.6l0.3-0.3l0.1-0.5l-0.2-0.3l0.2-1l0.4-0.1l0.3-0.3l-0.1-0.5l0.9-0.2l-0.2-0.7l-0.8-1.2l0.3-0.3l-0.5-1.2l0.8-1.7l0.5-0.2
			l0.1-0.2l-0.3-1l0.6,0.4l1.9-0.3l2.7-1.9l0.8-1l0.6-0.2h0.3l1.2,0.7l0.3-0.1l3.5,1.4l0.2-0.6l0.5-0.5l0.7-0.3l0.5,0.2l1.4-0.2
			l0.3,0.3h0.5l0.6,0.6l0.7-0.1l0.4,1.1l-0.2,0.3l-0.7,0.2l-0.1,0.2l0.2,0.3l0.5,0.3l1.1-0.1l-0.4-1.5l0.5-0.2l0.4,1.1h0.7l0.1,0.5
			l-1,0.1l0.4,0.4l-0.1,0.7l0.4,1.4l0.4,0.5l1.8-0.4l1.5,0.7h0.5l1.7-1.4l1.6-0.3l0.8,0.1l0.4,0.4l1.9-0.8l-0.2-0.9l-0.5-0.1
			l-0.2-0.4l-0.7-0.2l-0.2,0.3l-0.4-0.7l-0.7-0.5l-0.4-0.6l-0.4,0.1l-0.6-0.9l-2,0.2l-3.5-2.2l-1-1.2l-1.1-1l-0.2-0.4l0.4-1.2l1.4-1
			l0.8,0.1l2-1l0.7,0.5L617.7,710.8z"/>
		<path id="ID-NT" class="st2" d="M729,760.1l0.8-0.1l0.1,0.2l-1.4,1.7l-0.4,0.2l0.2,0.2l1.2,0.2l0.2,1l-0.6,0.7H728l-0.7,0.3
			l-0.3,0.4l-0.9,0.3l-0.2,0.4l0.1,0.4l-0.4,1l-0.3-0.1l-0.4,0.3l-0.6-0.4l-0.5-0.1l-0.6,0.3l-0.4,0.6l-2.1,0.1l-0.7,0.5l0.4,0.4
			l-0.3,0.6h-0.5l-0.1-0.3h-0.5l-0.1-0.2l-0.7,0.2l-0.1,0.4l-0.6-0.3l-0.1-0.6l0.2-1l-0.5-1l0.2-0.4l1-0.4h0.8l0.8-0.4l0.9,0.1
			l0.4-0.3l0.9-0.1l1.7-1.6h0.6l0.6-0.4l0.3-0.8h0.5l-0.1-0.5l1-1l2-0.9l0.2-1l0.7,0.8l-0.4,0.3L729,760.1L729,760.1z M699.6,758.8
			l0.8,0.2l0.2,0.2l-0.2,1.6l-0.4,0.4l-0.7,0.2l-0.7,0.7l-0.9,0.5l-0.7,0.1l-0.6-0.3l-1.2,0.1l-1.3-0.8l3.1-1.7l0.3-1l0.5-0.3
			l0.8-0.3L699.6,758.8L699.6,758.8z M730.6,753.2l0.6-0.1l0.1,0.5l-0.9,0.3l-0.2,0.5l-0.5,0.3h-0.2v-0.4h-0.5v0.5l0.3,0.2l0.2,0.4
			l-0.1,0.3l0.2,0.4l-0.5-0.1l0.1,0.3l0.2,0.1l-0.1,0.5h-0.5l-0.2-0.6l-0.2,0l-0.5,0.1l-0.3,0.6h-0.2l-0.3-0.5l0.1-0.6l-0.2-0.3
			l0.5-0.7l0.6-0.3l0.6-1l0.2-0.7l1.2-0.5l0.3,0.4L730.6,753.2L730.6,753.2z M660,737.2l0.4,0.3l0.5,1l0.5,0.4l0.6,0.2l1.2-0.3
			l0.3,0.2l0.5,0.7l0.1,0.5l0.1,1.4l0.5,0.6l0.8,0.1l0.4,0.5h0.2l0.8-0.5l2-0.5l0.5,0.7l0.1,0.5l2,1l0.3,1l1.4,2.6l1.2,0.4l1.2,0.7
			l0.6,0.8l0.4,1.3l-0.3,1l-0.8,0.7l-0.6,0.1l-0.7,1.1l-1,0.7h-0.7l-0.5,0.4l-1.2-0.2l-0.6,0.1l-1.1,0.6l-0.1,0.4l-0.3,0.3h-0.4
			l-0.9-0.5L667,755l-1.7,0.1l-0.8-0.1l-0.5,0.1l-1.3-0.6l-0.9-0.9l-0.4-0.1l-0.9-1.1l-0.5-0.1l-0.2-0.2l0.2-0.4l-0.3-0.7l-1.2-1.4
			l-0.8-0.2l-0.1-0.4H657l-0.1-0.6l-1.5-0.2l-0.3,0.1l-0.4-0.5l-1.4-1l-0.3-0.4l-0.3-0.9h-0.4l-0.4,0.3l-0.3-0.4l-0.6-0.2l-1.4-0.2
			l-1-0.3l-1.1,0.5l-0.3,0.6l-1.2-0.6l-0.4,0.1l-0.3-0.4l-1.8-0.1l-0.7,0.1l-0.1-0.2l-2.4-0.8l-0.5-0.4l-1.2-1.6l-0.8-0.6l-0.4-0.7
			l0.8-1.3l0.7-0.7l0.8-0.5l1.7-0.4l1.3-0.8l0.3,0.1l0.3,0.3l1.2-0.6l0.6-0.1l0.9,0.4h1.3l1.1-0.3l1.5,0.4l0.9-0.6h1.2l0.9,0.6
			l1.2,0.3l0.4-0.1l0.7,0.3l0.7-0.7l1.4-0.9l0.7-1l0.2-0.1l0.6,1.2L660,737.2L660,737.2z M760.7,728.3l0.2,0.1l-0.4,0.8v0.6l0.3,0.4
			l0.6,0.3h0.5l0.8-0.6l0.7-0.2l0.4-0.4l0.3-0.7l0.5,0.5l0.3,0.1l0.7,0.6v1l-0.3,1l0.2,0.9l-0.8,0.1l-0.8,0.5v0.2l-0.8-0.7H762
			l-0.3,0.7l-0.1,0.5l0.3,1.3l1.2,0.8v0.7l0.6,0.7l0.2,1.4l0,0l-1.1,0.8l-0.9,1l-0.2,1.9L761,743l-1.3,0.5l-0.6,0.5l-1.7,2.2
			l-0.7,1.2l-0.8,0.3l-1,0.9l-2.2,1.3l-0.8,1.7l-1.7,1.3l-0.7,0.3h-0.6l-4-0.3l-0.6,0.1l-0.5,0.2l-0.6,0.6l-0.2,0.5l-1,0.6l-0.3,0.4
			l-1.2,0.2l-1.4,0.6l-0.3,0.4l-1.5,0.5h-0.9l-1.1,0.3l-0.6-0.3h-0.4l-0.8,0.4l-0.3-0.4l-1.1-0.4l-1.6,0.6v-0.6l0.3-0.2l0.5-1
			l-0.2-0.8l0.7-0.3l0.1-0.8l1.8-0.8h0.7l0.7-0.5l1.2-0.5l0.6-1l-0.2-0.3l-1.2-0.4l-0.4,0.2l-0.7-0.1l-0.5,0.2l-0.3,0.4l-0.3-0.1
			l-0.1-0.2v-2.1l0.4-0.5l0.3-0.1l0.4,0.1l0.5-0.6l0.1-1.3l-0.5-0.8l0.6-0.2l0.2-0.4v-0.8l-0.3-1.4l1.4-1.5l0.9-0.4l0.2-0.7l0.4-0.3
			h0.2l0.6-0.5l0.7-0.2l0.4-0.7l0.6-0.2l0.1-0.4l0.5-0.3l0.2-0.5l0.4-0.3l1-0.1l0,0l1,1.4h0.5l0.3,0.4l0.5-0.1l0.2-0.6l0.8-0.5h0.2
			l1,1l0.3,0.7l-0.2,1l1.4-0.3l0.3-0.6l-0.3-0.5l0.7-0.8l-0.2-0.3l0.1-0.3h0.2l0.4-0.5l0.6-0.1l0.2-0.5l0.3-0.2l-0.1-0.7l0.2-0.5
			v-0.7l0.2-0.3v-0.4l0,0l0.5,0.1l1-0.1l1-0.4l1.8-1.4l0.1-0.7l0.9-0.1l1.1-0.8l1.3-0.3l0.6-0.5l1-0.3L760.7,728.3z M655.4,725.5
			H655v-0.3l0.3-0.3l0.3,0.2L655.4,725.5L655.4,725.5z M652.8,725.2l-0.1,0.2l-0.7-0.3l0.5-0.3L652.8,725.2z M651.5,722.1l-0.3,0.2
			l-0.2-0.2l-0.4,0.1l-0.2,0.3l0.3,0.3h-0.2l-0.5-0.5l1.2-0.8l0.2,0.1L651.5,722.1z M652.4,721.2h0.3v0.7l0.2,0.8l0.1-0.2l0.6,0
			v-0.3l-0.4-0.4l0.5,0.2l0.2-0.5l0.4,0.1l0.4-0.2h0.6l0.3,0.2l-0.1,0.7l-0.8,0.2l-0.1,0.4l-0.3,0.2H654v-0.3h-0.2l-0.3,0.4
			l-0.1,0.4l0.6,0.2l0.2,0.4l-0.1,0.3l-0.7,0.8H653v-0.4l-0.3-0.3l-0.9,0.4l-0.2-0.8l0.3-1l0.3-0.1l0.5,0.1l-0.2-0.6l-0.3,0.2
			l-0.2-0.1l0.2-0.1v-0.4l-0.5-0.9l0.4-0.2L652.4,721.2L652.4,721.2z M708.2,717.4l0.7,0.4l0.1-0.2l0.1,0.2l-0.2,0.6l-0.5,0.4
			l-0.7-0.2l-0.4-0.5l0.1-0.6L708.2,717.4L708.2,717.4z M648.8,717.9v0.6l0.2,0.1l1.4,0.2l0.5-0.2v0.8l0.2,0.3h-0.2l-0.3-0.3
			l-0.1,0.2l0.2,0.3v0.8l0.3,0.1l-1.1,0.2v-0.6l-0.4-0.1l-0.1,0.3l-0.4,0.4h-0.4l0.2,0.4h0.3l0.2-0.3l0.1,0.2l-0.2,0.3v0.2l-0.2,0.2
			l-0.5-0.1l-0.4,0.5l0.5,0.5l-0.2,0.4l0.5,0.3l-0.6,0.3l-0.7-0.6l-0.6,0.3l0.1-0.6l0.5-0.4l0.1-0.7v-0.2l-0.4-0.3l-0.2,0.1l0.3-0.6
			l-0.3-0.3l0.3-0.6l0.2,0.1l0.5-0.2v-0.5h0.2v-0.3l-0.4-0.2l0.5-0.4v-0.2l-0.2-0.1l-0.1-0.6l0.6,0.1l0.1-0.5l0.3,0.5L648.8,717.9z
			 M724.3,717.4l0.1,0.4l-0.4,0.3l-1.6,0.6h-0.5l-0.4-0.2l-0.9,0.7l-0.9,1.7l-0.5,0.3h-0.5l-0.3-0.6l0.3-1.2l1.3-0.7l0.1-0.6
			l0.5-0.5h0.5l0.5,0.3l0.4-0.3h1.6l0.5-0.2L724.3,717.4L724.3,717.4z M694.8,714.7h0.2l0.3,0.6l-0.1,0.4l-0.3,0.2l-0.9-0.3
			l-0.2,0.2l-0.1-0.1l0.2-0.2l0.3-0.7l0.4-0.2L694.8,714.7L694.8,714.7z M725.4,713.5l0.2,0.1l0.2-0.3h0.3l0.4,0.4l0.7,0.1l0.7,0.4
			l-0.3,0.6l-0.3,0.1l0.1,1.2l-0.3,0.7l-1.1,0.1l-1.2-0.2l-2.2,0.5l-0.5-0.2l-0.9,0.2l-0.1-0.8l0.7-1.3l1.4-0.8l0.8-0.7l0.8,0.1
			l0.5-0.3h0.2L725.4,713.5L725.4,713.5z M746.9,715.8l-1,1.2l-0.2,1.3l-1.6,1.5l-1.2,0.2l-0.3-0.2l0.2-1l-0.7-1.5h-1l-0.8,0.6v0.2
			l-0.7-0.2v-0.2l0.6-0.6l0.4-1.2l1.9-1.1l0.6,0.3v0.8l0.2,0.2l0.5-0.1l0.8-0.8l0.2-0.5l0.8-0.5l0.8-1.4l0.5-0.4h0.8l0.3,0.2
			l0.1,0.5l-0.5,1l0.1,1.2l-0.2,0.4L746.9,715.8L746.9,715.8z M738.3,712.9l1.2,0.1l0.5,0.7l-1.7,0.7l-0.7-0.2l-0.8,0.3l-0.5,0.6
			l-0.1,0.5l-0.7,0.7l-0.1,0.4l-0.5,0.6h-0.4v-0.3l-0.2-0.1h-0.5l-0.6,0.7l-0.5,0.3l-0.2,0.5l0.5,0.6l0.1,0.6l-0.6,0.7h-0.7
			l-0.3-0.8l-0.2-0.1l-0.9,0.4l-0.5,0.9l-0.5,0.1l-0.9-0.4l-0.2-0.5l-0.6-0.3l-0.5,0.4l-1-0.2l-0.2,0.3l-0.4-0.4v-0.5h0.5l1.5-1.3
			l0.5-1l1-0.3l0.2-0.3l0.9-0.2l0.7-0.5l-0.9-0.9l-0.5-0.1l-1.2,0.2l0.7-0.9l0.5-0.2l0.3,0.3l0.8,0.1l0.6-0.6l0.7-0.1l0.7,0.1
			l0.2,0.1l-0.3,0.3l-0.1,0.6l-0.9,1l0,0.3l1.1,0.4l0.8-0.7v-0.4l-0.4-0.2v-0.5h0.6l-0.1,0.4l0.1,0.2l0.7-0.6l-0.2-0.8l-0.5-0.2
			v-0.4l0.8-0.1l0.3,0.1l0,0.5l0.8,0.2l0.2-0.2l-0.1-0.5l1.8-1.1l1.2,0.9L738.3,712.9z M752.1,711.1l1.7,0.1l-0.2,0.4v0.8l0.3,0.2
			l1-0.6l2-0.4l1.6,0.3h1.7l0.9-0.4l1,0.2l0.8-0.2h1.1l0.8,1.7l-0.1,1.3l0.1,0.6l-0.5,0.4l-1.1,0.3l-3.5,0.1l-1.8,0.7l-1.3,0.1
			l-1.6-0.2l-1.3,0.8l-1,0.2l-0.3-0.4l-0.7-0.2l-1.4,0.8h-0.2l-0.1-0.4l-1,0.1l-0.5-0.5v-0.4l0.1-0.4l1.1-1.3l0.1-0.5l0.5-0.2
			l0.9-0.8l0.8-0.1l0.6-0.4l-0.2-0.2l-0.8,0.2l-1.9,0.9l0.1-0.6l-0.2-0.5l1.1-1.5l0.4-0.4L752.1,711.1L752.1,711.1z M719.6,710.8
			l0.9,0.6v0.5l-0.2,0.7l0.3,0.4l0.1,0.7l0.8,0.8v0.5l-0.8,0.8l-0.3,0.1l-0.8-0.5l-0.2,0.1l-0.7,1l0.3,0.7l-0.1,0.7l-0.5,0.1
			l-0.6-0.4l-0.7-0.2l-0.2,0.2l0.1,1l1,1.1l0.1,0.7l-0.2,0.4l-1,0.4h-1l-0.1,0.5l-0.2-0.2h-1l-1,0.6l-0.3-0.1l-0.3,0.2l-0.6,0.1
			l-0.7,0.9L709,724l-0.9,0.1l-0.6-0.2l-1.3,0.3l-0.8-0.3l-0.8,0.2l-0.4-0.4h-1.2l-0.5,0.2l-0.4,0.5h-0.3l-0.6,0.6l-2.2,0.8h-1.1
			l-0.3,0.4l-1.4,0.6l-1-0.1l-0.6-0.5l-0.6-0.1l-0.2,0.2l0.1,0.5l-0.2,0.4l-0.3,0.1l-0.4-0.2l0.4-1.2l-0.7-0.3L692,725l-0.9,0.2
			l-3-0.4h-0.3l-0.2,0.7l0.1,1l-0.5,0.5l-0.7,0.2l-0.8-0.5L684,727l-0.3-0.2l-1.9,0.7l-1.1,0.7h-0.5l-1.7-0.6l-1.1-0.9l-0.3-1
			l-0.3-0.1l-1,0.2l-0.4,0.9l-0.5,0.2l-1.1-0.5l-1-0.1l-1.1-1.1h-3.1l-0.9,0.2l-0.3-0.2l-1.5,0.8l-0.3-0.2l-0.3,0.2l-1.4-0.4l-1-1
			l-0.4-0.1l-2.6,0.7l-1,0.1l-0.5-0.1L658,726v0.4l-0.2,0.1l-0.5-0.2l0.2-0.3l-0.2-0.1v-0.5l-0.9-0.1l-0.2-0.4l-0.6-0.5l-0.1-0.4
			v-0.3l0.1-0.4l-0.1-0.3l0.3-0.5v-1.3l-0.3-0.1l0.1-0.4l0.6-0.6l-0.1-0.2l0.6-0.2l0.4-0.4l0.1-0.7l-0.4-0.5l-0.1-0.5h0.5v0.7
			l0.3,0.1l0.1,0.2l0.6-0.4h0.3l0.5-0.5l0.6,0.6l0.3-0.4l-0.3-0.2v-0.3l0.4-0.7l0.6,0l0.3-0.2h0.2l0.2,0.5l0.3,0.2l-0.2,0.4h0.5
			l0.2-0.5V716l0.8,0.3l0.3-0.5h0.2l0.4-0.9l0.3,0l0.6-0.2l0.3-0.3h0.6h0.8l0.9,0.2l0.8-0.3l0.1-0.6l0.2-0.2l0.5,0.5v0.4l0.5,0.3
			l1-0.4l0.6,0.3h0.8l0.2-0.3l-0.3-0.3l0.1-0.2l0.9,0.4l0.9,1h0.6l0.5,0.5l1.4-0.2l1.1,0.3h1.4l0.6-0.2l0.6,0.1v0.4l0.2,0.2h0.6v0.4
			l0.2,0.5l0.8-0.1l0.8,0.3l0.7,0l0.5,0.3l0.5-0.1l0.9,0.5l0.9,0.1l0.6,0.2l0.9,1.4l1.4,0.7l1-0.5l0.3,0.4l0.4,0.2l0.2,0.6l0.6-0.7
			l0.7-0.2l-0.3-0.3v-0.4l0.2-0.1l0.8,0.5l-0.3-0.5l0.1-1l0.2-0.3l0.5,0.1v0.4l0.5-0.1l0.3,0.4l1-0.4l1,0.1l0.3,0.2l0.6-0.2l0.3-0.4
			l0.3,0.3h1l0.3-0.2l0.6-0.9l-0.1,0.6l0.6-0.5l0.6-0.2l0.3,0.1l-0.3,1l0.1,0.8l1.1-0.1l0.3,0.4l0.4-0.3l1.1,0.5l1.4,1.4l1.4,0.3
			l0.7-0.5l0.6-0.1l1.8-0.2l0.5,0.1l0.9-1.2l0-0.5l-0.7-0.6l0.3-0.4l1.3-0.4l0.3-0.6l0.4-0.1l0.2-0.7l0.3,0.1l0.3-0.3l0.6,0.2
			l1.4-0.6l0.7,0.1l0.9-1.3l1.3-0.1l0.4-0.3l0.4-1.3l0.5-0.3l-0.7-0.4h-0.7l-1.1,0.4l-0.5,0.8l-1.2-0.2v-0.2l0.6-0.5l0.5-0.9v-0.9
			l1-0.2l0.7-0.6l1.3,0.8L719.6,710.8z"/>
		<path id="ID-PA" class="st2" d="M1046.2,717.1l-3-0.2l-3.3-0.6l-0.4-0.2l-0.2-0.7l0.1-0.2l3.2-2.8l2-0.6l0.3,0.1l0.3,1l1.5,3.2
			v0.4L1046.2,717.1L1046.2,717.1z M1040.4,713.9l-3.1,2.5l-1.5,0.7l-1.6,0.3l-0.6-0.1l-0.5-0.4l-0.8-0.2l-7.1-0.5l-3.4,0.8
			l-0.6,0.4l-0.6,0.1l-0.3-0.5l0.1-0.6l1.9-5l3.6-7l2.3-3.5l0.6-0.7l3.5-2.5l2.9-1.1l5.7-1.1l2.5,0.1l0.9,0.3l0.4,0.4l1.3,2.1
			l0.7,0.7l1.6,0.3l0.7,1.2l-1.1,3.2l-1.4,2.2l-0.6,3.2l-0.7,0.9l-1.4,1.3l-2.3,0.5L1040.4,713.9L1040.4,713.9z M1040.9,682.5
			l0.7,0.6l1.5,0.3l1,1.4l-1.2,0.7l-0.9-0.3l-1.4-1.8l-0.2-0.6L1040.9,682.5L1040.9,682.5z M993.1,579.8l3.4,0.7l7,0.5l1.9,0.8
			l0.1,0.2l-0.5,0.5l-3.8,0.7l-3,1l-6.6-0.6l-4.8-1.1l-1-0.8l-1.2-0.5l-3-0.9l-1.2-0.2l-1.3,0l-2.5-0.4l-1.3-1.5l1.1-0.3l1.4,0.5
			l13.1,0.9L993.1,579.8L993.1,579.8z M1045.8,585.3h1.4l2.3,0.8l7.4,3.4l7.6,4l2.1,0.3l3-0.4l1.5-0.7l1.2,0.1l0.2,0.6l0.8,1l2.3,1
			l1.1-0.2l0.1-0.3h2l3.2,0.5l1.8,0.7l0.4,0.3l0.1,0.5l-0.3,0.7l-0.6,0.6l-0.1,0.4l0.5,0.5l2-0.6l2.9-0.1l0.7,0.1l0.1,0.1v75.9
			l-0.8,0.1l-0.8,2.3l0.5,0.6l-0.1,0.4l-1.1,2.1l-0.6,0.6l-0.1,1l0.2,2.2l0.7,1.4l1,1l0.7,0.1l0.5-0.3v45.9l-1.3-0.8l-1.4-0.4
			l-0.7-0.5l-1.7-2.2l-3-2.8l-2.2-3.5l-5.6-4.8l-3.6-2.7l-1.4-1.5l-0.2-0.3l0.2-0.8l1.6-1.4l1.5-2.7l0.3-1.1l-1.9,0.8l-0.3,1.4
			l0.1,1.2l-1.5,0.9l-1,0.4h-4.2l-1.9,0.2l-1.9,1.1l-2.3,0.5l-1.1,0.1l-0.8-0.1l-1-0.7l-1.2-1.7l-2.8,1l-2.3,1.7l-0.7,1.5l-0.6,0.1
			l-1.3-2.4l-0.2-1l1.4-1.9l0.2-2.5l0.2-0.3l1.4-0.7l0.3-1v-1.2l1-2.6l0.8-0.8v-0.6l-0.5-0.5l-1.3-0.5l-1.5-1l-0.8-1.7l-0.7-0.9
			l-2-1.3l-1.9-1l-0.2-0.5l0.2-0.2l5.3,0.2l1.2,0.7l1.1,0.3l2.6-0.3l1-1.6l-1,0.4l-0.3,0.4l-2.4,0.2l-4-1.2l-2-0.9l-3.4-3l-0.4-0.5
			v-0.7l0.7-0.6h1l1.1,0.4h0.9l1.3-0.8l2.1-0.3l1.5,0.5l1.3,1.3l1.2,0.8l0.6,0.2l1-0.2l-1.2-0.3l-0.8-0.4l-1.5-1.3l-0.6-0.4l-1-0.4
			l-1.1-0.1l-4.3-2.1l-0.3-1.3l0.8-0.2l-0.6-0.8l-4-3.8l-0.9-1.2l-0.6-1.3l-0.4-1.3l0.1-1l-0.6-1.7l-1.4-2.6v-2.4l-1.8-0.5l-0.9-0.8
			l0.5-0.7l3.3-1.6l-0.2-0.2h-0.6l-1.9,0.3l-1.2,0.7l-1.6,0.5l-0.3-0.2l-0.4-2.1l0.4-3.9l-0.2-0.6l-0.6,1l-1.7-0.6l-3.5-2.3
			l-0.6-0.7l-1.8-1.2l-1.1-0.3l-0.7-0.4l-0.1-0.2l0.5-0.4h-1.5l-2.2-1l-2.1-1.5l-0.7-0.9l-1.2,0.5l-4.2-1.2l-3.7-0.5l-0.5-0.5
			l-3.4-1.6l-5.6-3h-2.1l-4.6-1.8l-0.6-0.5l-0.7-1.1l-0.9-0.4l-2.6-0.1l-1.6,0.2l-6.1-1.3l-2,0.2l-2,0.5l-1.1-0.4l-4.4-2.5l-1.9-0.8
			l0,0l1.9-2.8l1.2-1l0.8-1.6l1.3-1.9l2.7-3.4l-1.1-0.5h-0.6l-1.4-0.7l-3.4-1.1l-3.6-1.4l-7.6-2.2l-2.3-1.2l-1.7-0.5l1.3-3l1.2-1.4
			l1.9-1.2l0.3-1v-1.3l1.8-1l2.9-2.7l0,0l0.7,2.9l0.5,0.4l0.8-0.2l0.8-0.6l0.1-0.6l0.4-0.4h0.5l0.1,0.8l-0.2,1.4l-0.6,0.5l-0.2,1.7
			l1.3,2.5l2.4,1.8l2.5,0.8l4.4,0.5l2.6-0.5l1.1-0.5l0.8-0.8l0.3-0.7v-0.5l0.8-0.9l0.6-0.4l1.6-0.5l1.1-0.9v-0.3l-0.5-0.4l0.5-0.6
			l2.9-1.3l0.6-0.9l0.4-3.2l1.5-1.7l0.5-0.1l2.7-1.3l1.5-1.2l0.5-0.9l1.3-3.4l0.1-0.8l-0.2-0.9l0.5-0.6l1.1-0.8l1.5-0.1l1,0.1
			l0.1,0.3l0.2,0.2l1.1,0.3l1.3,0.1l1.8-0.2l1.7-1l3.1-1.4l1.5-0.5l0.9,0.1l1.5-0.3l0.9-0.6v-0.3l-0.8-2.1l-0.8-0.3l-1.1-1.2
			l0.2-1.5l1.4-0.8l1.5-0.4l1.7-0.7l3-1.6l0.5-0.6l1.8-0.9l4.9-1.7h0.6l1.1,0.3l1,1.1l1.7,1.3l7.2,2.6l5,1.2l1.8,1.1l0.9,1.2l1.1,1
			l0.4,0.1L1045.8,585.3z M965.1,568.6h-1.2l-1.3-2l0.2-1.2l0.6-0.8l1-0.1l0.9,0.4l1.3,1.3l-0.1,1.2l-0.6,0.8L965.1,568.6z
			 M976.5,559.1h2.1l1.8,0.3l1.9,1.3l1.1-0.9l0.6-0.1l0.8,0.5l3.6,3l2.6,3.8l1.5-0.3l2,0.9l0.4,0.4l-1,0.8l-1.5,0.8l-2.2,0.5H989
			l-1-0.8l-0.6-0.2l-1.2,0l-0.9,0.3l-0.7-0.1l-1-1l-0.9-3.7v-1.1l-0.7-1.5l-0.6-0.1l-2.1,1l-2.1-1.8l-0.8-0.2l0.1,0.6l-0.5-0.2
			l-1.2-1.1l-0.7-1.6l0.3-0.6L976.5,559.1L976.5,559.1z"/>
		<path id="ID-PB" class="st2" d="M937.4,631.9l0.9,1.1l-5.9-2.7l-0.2-1.4l0.6,0.2l1.5,1.1L937.4,631.9L937.4,631.9z M868.2,587.4
			l-1.5,0l-4.3-1.3l-3.6-1.9l-0.4-0.5l0.7-0.6l4.2-1.5l1.7-0.8l6.4-1.2l0.1,0.6l1.6,2.3l0.1,3l-1.1,0.7L868.2,587.4z M862.9,570
			l-2,0.7L859,570l0.1-0.4l0.4-0.4l2.1-0.6l1.8,0.6L862.9,570L862.9,570z M882.7,563.5l0.7,0.9l1.3-0.2l0.8-0.3l0.8,1.2l-0.1,2.3
			l-0.7,3.2l-0.8,1.9l-0.2,0.3L884,573l-1.8-0.3l-2.4-2l-0.4-1.2l-0.9-1.3l0.4-0.6l-0.3-0.9l-0.5-0.8l-0.7-0.2l-0.1-0.3l0.1-0.3
			l0.4-0.2l4-1.3L882.7,563.5z M883.1,561.5l-0.5,0.9l-2,0.8l-2.6,0.5l-1.7,0.2l-2.2-0.1l-0.7,0.1l-0.7,0.3l-0.3-0.1l1-1.2l0.8-0.6
			l4.9-0.1l1.6-0.4l0.8-0.8h0.9L883.1,561.5L883.1,561.5z M876.7,556.4l-2.9-0.3l-0.2-1.2l0.5-0.4l2.8-0.8l0.9,0.3l0.7,0.5v0.3
			l-0.5,0.9L876.7,556.4L876.7,556.4z M937.5,560.8l3.6,0.1l0.1-0.7l4.6,0.1l2.7,2.1l-1.7,2.7l2,3.8l1.6,1.4l1.5,2.8l-0.9,1l-0.3,3
			l-2.7,2.4l0.7,4.2l0.5,1l-0.2,2.4l0.5,5.5l1.3,2.2l0.6,0.2l1.4,1.3l2.9,7.2h0.7l0.6-0.5l-1.1-4.2l-0.1-1.4l0.3-0.7l1.1-1.1
			l0.6,0.1l1.5,0.9l0.3,1.1l0.1,5.1l0,0l-2.9,2.7l-1.8,1v1.3l-0.3,1l-1.9,1.1l-1.2,1.5l-1.3,3l1.6,0.5l2.3,1.2l7.6,2.2l3.6,1.4
			l3.4,1l1.5,0.7h0.6l1.1,0.5l-2.7,3.4l-1.2,1.9l-0.8,1.6l-1.3,1l-1.9,2.8l0,0l-1.4-0.6l-3.2-2.7l-0.1-0.3l0.9-3.3l0.5-0.3l3,0.4
			l1.2,0.5h0.4l0.8-0.6v-0.2l-1.4-0.2l-4.7-0.3l-1.1,0.9l-0.5,1l-1.5,0.3l-1.1-1.6L955,625l-1.4-0.3l-0.5,1.9l-0.8,0.4l-1.9-1
			l-0.6-0.5l-0.4-0.8l0.1-0.6l0.5-0.3l0.1-0.3l-0.3-0.7l-0.7-0.7l-0.3-0.1l-2.1,1.1l-2.1-1.1l-1.9-3.3l-0.7,0.3l-0.1,0.2l0.2,1.2
			l-0.5,0.1l-1.5-0.9l-1.3-2.6l-0.2-0.7l0.1-0.3l1.1-0.7l0.1-0.3l0.1-1.2l-0.3-1.5l0.5-1.7l1.4-1.2l1.6-1v-1.5l-0.7-0.9l-2,1.8
			l-1.5,1.8l-0.4,3.1v2.5L938,615l-1.3,0.8l0.5,0.4l0.5,1.1l-0.1,0.7l-2,1.5l-1.8,1.8l-0.1,0.4l0.2,1.1l0.7,0.6l0.2,0.8l-2.8,3
			l-1.5,1.2l-0.8,0.1l-3.1-0.3l-0.4,0.2l-0.8,0.9l-1.6-0.4l-1.2-1.9l-0.7-1.5l0.2-0.2l-0.2-0.7l-1.4-3.5l0.7-1.7l2.2-0.8l0.6-0.5
			l0.1-0.3l-0.9-1.7l-0.3-0.1l-0.3,0.2l-0.6-0.5l-0.4-1.7l0.4-1l-0.1-0.3l-0.5-0.6l-0.6-0.2l-0.7,0.3v1.1l-0.2,0.2l-0.3,0.1
			l-0.9-0.4l-1.4-1.8l-0.1-1l-0.7-1.4l-1.9-1.5l-3.1-1.9l-0.9-0.2h-1.7l-2.2,0.6l-2.5-3.7l0.2-0.2l3.5-1.7l1.4-0.3l2.3,0.1l4,0.4
			l1.3,0.3l1.4,0.9l0.5,0.6l1.2,0.5l2.5-1.8l3.6-4.8l1.8-1l1.1-0.3l1.8-0.2l1.3,0.6l1.6,1.5l2.5,0.9h0.8l1.2-0.5l0.9,0.1l0.6,0.9
			l-0.1,1.1l0.1,1.6l0.3-0.4l0.4-3l-0.1-0.7h0.3l0.4,0.2l1.3,2.6l0.3,0.2l0.1-2.4l-0.3-0.9l-0.5-0.3l1.2-1.1l1.5-0.7l0.8-1.2
			l0.1-1.9l-0.2-0.5l-0.5,1.2l-1.7,0.6h-0.4l-0.7-0.9l0.1-0.2l2.4-0.9l0.7-0.6l-0.2-1.4l-1.2,0.2l-4.7,2.5l-2.1,0.2l-2.1-0.1
			l-0.8-0.4l-2.1-0.4l-2,0.3l-4.9,1.4l-1.3-0.1l-1.7-0.7l-0.7,0.2l-1.9,1l-1-0.5l-0.2-0.3l-0.2-0.9l-0.5-0.6L917,590l-2.4,0.6
			l-1.3,0.8l-1.1,0.3l-0.8-0.1l-2.9-2.4l-1-0.4l-1.3-1l-1.4-2.4l-0.8-1.9l-0.1-1.3l0.9-1l-0.3-1.1l-1.5-1.3l-3.3-1.2l-0.4-0.5v-0.3
			l-2.3-1.1l-6.5-2.2l0.2,0.5l1,0.6v0.5l-0.9,0.8l-1.6,0.6l-0.6-1l-1.4-0.5l-1.3,0.1l-1.7-1l1-1.4l0.5-1.2l0.5-0.6l2.4-0.5l1.4-2.5
			l0.8-3.6l-0.6-1.9l5.3-1.8l0.4,0.1l0.1,0.2l0.8,0.3l4-0.8l2-0.7l0.9-1.4l3.8-3.2l1.5-0.9l1.9-0.8l3.4-0.8l5.7,0.5l2.2,1.1l6,2.3
			l1.2,0.1l4.1,3.6l1.1,0.3L937.5,560.8L937.5,560.8z M882.2,545.8l3.4,1l2,0.2l3.3,1.9l0.3,0.7l0.2,1.5l-0.5,1.1l-0.8,1.2l-1.8-1
			l-1.3-0.1l-1.5,0.5l-1.2,0.1l-0.6-0.4l-1.5-1.9l-1.7-0.7l-1.7-2.5l-0.4-0.3l-1.5,0.2l0.3,1l2.1,2.2l2,0.9l1.2,0.2l0.7,0.4l0.5,0.9
			l-0.6,0.9l-1.4,0.7l-1.8,0.2l-0.7-0.2l-0.3-0.5l-0.6-2.3l-1.9,0.4l-0.9,0.9l-0.6-2.3L873,551l-1.4-0.2l-2.4-0.8l-0.5-0.3l0.4-0.3
			l0.5,0.2l2.5,0.2l0.9-0.5l-0.6-1h-1.3l0.1,0.7l-1-0.2l-0.4-0.8l0.2-0.7l1.6-0.4h1.7l4.3-0.7l0.9-0.3l0.4,0.3l1-0.1l-0.3-0.3
			l0.7-0.4l0.8-0.1L882.2,545.8L882.2,545.8z M855.2,549.8l-0.4,0.2l-1-1.2l-4-3.9v-0.2h0.3l0.7,0.5l4.2,3.4l0.5,0.8l0,0.4
			L855.2,549.8L855.2,549.8z"/>
		<path id="ID-RI" class="st2" d="M315.3,535.1l-0.7-0.2l-0.4-1l0.6-2l0.6-0.6l0.6-0.2l1,0.8l0.5,0.7l0.2,1.7l-0.5,0.4L315.3,535.1
			L315.3,535.1z M303.9,525.2l0.5,0.1l1.4-0.5l0.9,0.1l3.4,2l2.1,1.6l0.2,0.4l0.2,0.9l-0.3,1.2l-0.6,0.4l-1.5-1.5l-1.2-0.6l-4.1-0.1
			l-2,0.5h-0.6l-1.3-0.7l-1.5-1.5l0.6-0.9l1-0.1l0.2-0.2v-0.9l-0.6-1.3l0.1-1.2l0.3-0.5l0.7-0.1l0.7,0.3l1.2,1.6l-0.2,0.5
			L303.9,525.2z M312.3,524.3l2.6,3l0.1,0.6l-0.4,0.5l-0.7,0.2l-0.6-0.1l-2.9-2l-3.7-1.9l-0.7-0.1l-0.7,0.2l-0.7-0.6l1.1-2l0.6-0.2
			h0.8l1.7,0.5l1.8,0.8L312.3,524.3L312.3,524.3z M299.2,526.6h-0.5l-1.8-1.7l-0.4-0.4l-0.5-1l-0.8-4.1l0-2.3l0.1-0.3l1-0.2l0.6,0.2
			l3.5,3.1l0.3,0.5v0.4l-0.7,2l0.1,1.3l0.4,1.3l-0.1,0.3L299.2,526.6z M301.2,515.9l0.2,3.4l-0.3,0.4l-0.6-0.3l-3.1-3l-1-0.3
			l-2.4-0.2l-1-0.4l-1.1-1.1l-1-1.8l0.3-0.3l1,0l2.2,0.9l3.5,0.5l2.1,0.6l0.9,0.5L301.2,515.9z M282.9,510.6H282l-1.3-0.4l-0.5-0.2
			l-0.5-0.6l-1.1-3l0.1-1.6l0.2-0.8l0.6-0.6l4.1-1.2l0.8,0.2l0.4,0.4l1.5,2l0.1,1l-0.9,1.1v1.6l-0.3,0.6l-1.5,1.2L282.9,510.6
			L282.9,510.6z M262.9,502.3l1-0.2l1.1,0.7l0.9,0.2l0.6-0.5l-1.4-0.8l-0.4-0.8l-0.1-0.9l0.2-0.5l1.1-0.6l2.8-0.3l2.9,0.4l-0.1,0.6
			l0.4,0.9l4.1,2.7l0.9,0.9l0.3,1v1.6l0.9,2.5l0.8,1.3l2.8,1.3l0.9,0.1l2-0.5l1.4,0.4l5.3,4.5l2.4,1.3l1.3,3.6l-0.2,2l0.5,1.6
			l0.5,0.8l3.9,3.7l0.8,0.6l1.6,0.7l0.6,0.1l2.8-0.3l3.1,0.2l0.8,0.3l0.6,0.4l3,3.7l0.2,0.6l-0.2,0.8l-10.5,5.5l-0.8-0.4l-0.9-1
			h-1.2l2.2,1.6l1,0.3l1.5-1.3l5-0.9l5.3-3l0.3-0.2l0.9-1.3l2.7-1l0.7,0.1l1.4,0.7l5.9,4.5l0.3,0.7l1.2,5.1l-0.8,0.3l-3.5,0.2
			l-0.3,0.5l-0.1,1.1l-3.1,2.2l0.2,0.3l0.4-0.1l0.8-0.7l0.8-0.2l0.7,0l0,0.2l-0.4,0.6l1.9,0.2l0,0.2l1.9,0.6l1.1,1.5l-0.8-0.1
			l-1,0.2l-2,0.9l-0.2,0.2l0.2,0.3l-0.4,0.8l-3.1,2.1l-0.5,2.5l0.1,0.5l1.2,1.2l0,0l-1.4,0.1l-1,0.5l-0.5-0.4l-4.3-0.7l-1,0.2
			l-1.4-0.1l-1,1.6l-1,1.2l-2.5,1.8l-0.1,0.4l-0.6,0.5l-0.6,1l-0.8,0.1l-0.6,0.7l-0.3,0.1l-0.7-0.5l-0.8,0.1l-1-0.4h-0.9l-0.5-0.9
			l-1.5-0.2l0-0.8l-1.2-0.6l-0.4-0.9l-0.7,0l-1,0.6l-0.5,0l-0.2-0.2v-0.4l-0.5-0.4H294l-0.4,0.4l-1.1-0.5l-0.5,0.2l-0.5-0.4
			l-0.5-0.1l-0.5,0.3l-0.1,0.4l-0.3-0.2l-0.7,0.3l-0.2,0.7l-1,0.2l0,0.4l-0.7-0.1l0,0l-0.2-0.2h-1l-0.6-0.4l-1.5-0.4V564l-0.4-0.2
			l-0.8-1l-1.3-0.8h-0.5l-0.3-0.4l-1.7-1l-0.1-0.7l-0.6-0.1l-0.5-0.3l0.3-0.4l-0.1-0.1l-2-0.7l-0.5-0.7l-0.8-0.3l-0.1-0.5l-1.3-0.5
			l-0.4-0.5l-0.3,0.1l-0.4-0.2l-0.8-1.8l0.2-0.5v-0.8l-1-0.7l-0.5-0.1l-1,0.3l-0.1,0.2l0.2,0.1l-0.3,0.6l-0.7-0.5h-0.5l-0.2-0.4
			l-0.1-0.7l-0.6-0.3l-0.4-0.6l0,0l-0.1-0.4l0.1-0.5l0,0l-0.6-1.1V548l0.2-0.2l-0.3-1v-0.4l0.5-0.5h0.2l0.4,0.5l0.7-1.2l0.1-1
			L267,543v-0.6l0.3-1l-0.5-1.2l-0.2-0.3l-0.4-0.1l-0.8,0.3l-1.3,1.1l-0.3,0.5h-1.3l-3.4-0.9l-0.9-2l-0.4-0.3l-0.5-0.2l-1.1,0.6H256
			l-0.2-0.5v-1.4l-1.5-3.1l0.1-1.1l1-1.5l-0.6-0.9l-1.3-0.5l0,0l-1-1.2l0.3-0.2l-0.1-0.3l0.2-1h-0.5l-0.5-0.6v-0.3l0.9,0l0.3-0.3
			l0.2-0.8l-0.4-1.2l-0.5-0.2l0.1-0.5l0.6-0.4l0.8-0.1l-0.1-0.4l-0.7-0.5l-0.3-0.6l-0.2-1.9l-0.6-1.1h-0.3l-0.3-0.3l-0.1-0.5
			l0.5-0.3l3.6-0.2v-0.4l0.6-0.1l0.7,0.1l0.3-0.2v-0.5h0.9l1-0.8l0.1-0.5l-0.3-0.3l0.1-0.5l0.5-0.8l0.1-0.5l-0.2-0.4l0.1-0.5
			l-0.1-0.4l-0.7-0.1v-0.5l0.3-0.3l-0.3-0.9l-2.2-0.4l-0.3-0.4V508l0.6-1.5l0.3-3.5l0.6-2l-0.2-1.1l-0.8-1.9l-0.2-1.6v-0.8l0.4-1.5
			l1,3l0.7,1.4l1.6,1.6l1.8,1.4L262.9,502.3L262.9,502.3z"/>
		<path id="ID-SA" class="st2" d="M764.8,516.5l-1,1.5l-0.9,3l-1.2,2.2l-1.8,2.5l-1.6,0.7l-1.8,1.3l-1.4,1.4l-1.8,3l-0.5,1.3
			l-2.3,2.8l-2.5,1.3l-1.5,0.4h-1.2l-5,0.8l-3.5,0.8l-2.7,0.3l-1.2-0.4h-2.6l0,0l0.3-1.2l1-1.7l-0.1-1.2l0.2-1.3l-0.4-1l-0.6-0.7
			l-2.4-0.4l-1.4-1l-0.7-0.6l-0.3-1v-0.5l-0.8-0.8l-1-0.3l-0.6-0.5l-0.2-1l0,0l2.9-0.1l2.7,0.6l3.5,1.2l0.4,0l0.7-0.4l4.5,1.1
			l1.9-0.1l1.5-0.9l6.3-2.8l0.5-0.6l1-2.5l1.2-0.5l3.2,0.2l0.3-0.2l0.5-0.7v-0.7l-0.6-0.4h-0.7l-0.3-0.5v-0.4l0.5-0.9l1.3-1l1.2,0.4
			l0.8-0.1l2.4-1.3l0.2-0.6l-0.6-1.2v-0.3l3.1-2.4l1.3-0.1l2,0.6l0.8,0.6l-0.2,0.6l0.1,0.6l1.7,1.5l-0.4,1L766,516l-0.8,0.1
			L764.8,516.5z M770.4,491.9l-0.2,0.1l-0.5-0.2l-0.5-1.8l0.5-1.4l0.6-0.3l0.7,0.4l0.1,0.3l-0.1,0.4l-0.9,1v0.5l0.5,0.7L770.4,491.9
			L770.4,491.9z M774,471.8l-0.3,0.7l1.3,1.5l0.2-0.1l0.5,0.3l0.1,1.5l-0.8,1.1l-0.2-0.2l-0.2,0.1l-0.1,0.7l-0.2-0.1V477l-0.4-0.7
			h-0.6l-0.3-0.4l-0.5-0.1l-0.1-0.3l-0.3,0.1l-0.3-0.8v-0.6l0.6-1.2l-0.1-0.2h-0.3l-0.1-0.5l0.4-0.1l-0.1-0.2l-0.4,0.1l-1.4-0.9
			l-0.3-0.4l0.1-1.1l0.9-0.3l1.2,0.2L774,471.8z M797,468.1l-0.3,0.1l-0.2-0.4l-1.5-3.3l-0.2-1.2h0.3l0.5,0.4l1.7,2.2l0.1,0.5
			L797,468.1z M798,464.3l-1.3-0.2l-0.2-1.5l0.8-0.7l1.2-2.2v-0.5l-0.2-0.2l-1.2-0.3l-0.2-0.2l-0.3-1.1l0-0.7l0.6-2.9l0.4-0.8
			l1.5,0.3l0.9,0.8l1.1,4.3l-0.9,1.4l-1.5,3.8L798,464.3L798,464.3z"/>
		<path id="ID-SB" class="st2" d="M259.6,607.9v0.7l0.3,0.6l-0.1,0.2l-1.2,0.2l-0.6,0.3l1.6,3.1v0.3l-0.5,0.3l-0.4-0.2l-0.4-0.8
			h-0.2l-0.5-0.4l0.2-0.2l-0.2-0.4l-0.9-0.3l0.2-0.8l-0.2-0.5l0.1-0.7l-0.7-0.9l-0.7,0.1l-0.8-1l-0.8-1.5v-0.3l0.4-0.7l-0.6-2.3
			l0.1-0.3l1.2-0.3l1.6,2l1.1,0.6l1.4,1.8l0.6,0.4L259.6,607.9L259.6,607.9z M253.1,602.7v0.5h-1.2l-0.1,0.2l-0.6-0.5l-0.2,0.6
			l-0.3,0.2l-0.5-0.4l0.1-0.4l-0.4-0.5l0.4-1.1V600l-0.4-0.9v-0.7l-0.6-0.3l0.3-0.4l-0.1-1l0.3-0.4l0.6,0.1l0.9,1.2l1.2,0.7l0.4,0.5
			l0.8,0.4l0.6,1.2l0.4,0.5l-0.2,0.9l-0.8,0.3L253.1,602.7L253.1,602.7z M244.3,589.2l0.8,1.6l0.6,0.6l0.1,0.4l0.7,0.4l0.5,0.8
			l0.4,0.9v0.3l-0.2,0.2l-0.2-0.1v-0.4l-0.2-0.3l-0.3,0.2H246l-0.3-0.6h-0.9l-1.1-1l-0.6-0.2l-1,0.1l-0.3-1l-0.3-0.2l-0.9-1.5v-0.3
			l0.3-0.2l0.5,0.3l0.1-0.2l-0.4-0.5l-0.1-1.1l0.2-0.4l0.6-0.5h0.7l1.6,1.4L244.3,589.2z M228.3,564.8l0.4,1.2l-0.2,0.1l-0.2-0.6
			l-0.1,0.1l0.5,1.5l1.2,1l0.1,0.9l0.8,0.9v0.5l0.5,0.8l-0.1,0.3l0.7,0.8v0.7l1.2,1.2l0.1,0.4l0.1,0.8l-0.3-0.3h-0.4l0.5,0.6
			l0.9,0.3l0.1,0.3l-0.1,0.5l0.5,1.2l0.8-0.3l0.6,0.8l0.1,1.7l-0.4,0.6l-0.7-1.4h-0.2l0.2,1.2l0.3,0.7l-0.5,0.5l-0.4-0.4h-0.9
			l-0.5,0.2l-0.1,0.4l-0.7,0.1l-4.9-2.6l-0.2-0.7l-0.7-0.6l0.2-0.1v-0.3l-0.7-1.5l-3.2-4.7l-0.3-0.8l-0.5-0.3l-0.2-0.4l-0.1-0.5
			l0.4-0.5l0.9-2.5v-1.3l0.8-0.8l0.5-0.1l0.5,0.2l1.3-0.1l0.9-0.3l0.8-0.6h0.3L228.3,564.8L228.3,564.8z M247.8,527l0.5,0.4l0.8-0.1
			l0.4,0.8l1.5,0.5l0.3,0.4l2.5,0.8l-0.2-0.2l0,0l1.2,0.5l0.6,0.9l-1,1.5l-0.1,1.1l1.5,3.1v1.4l0.2,0.5h0.3l1.1-0.6l0.5,0.2l0.5,0.3
			l0.9,2l3.4,0.9h1.3l0.3-0.5l1.3-1.1l0.8-0.3l0.4,0.1l0.2,0.3l0.5,1.2l-0.3,1v0.6l0.5,1.1l-0.1,1l-0.7,1.2l-0.4-0.6H266l-0.6,0.5
			v0.4l0.3,1l-0.2,0.2v0.3l0.6,1.1l0,0l-0.1,0.3l0.1,0.6l0,0l0.4,0.6l0.6,0.3l0.1,0.7l0.2,0.4h0.6l0.7,0.5l0.3-0.6l-0.2-0.1l0.2,0
			l1-0.3l0.5,0.1l0.9,0.7v0.8l-0.2,0.5l0.8,1.8l0.4,0.2l0.3-0.1l0.4,0.5l1.3,0.5l0.1,0.5l0.8,0.3l0.5,0.7l2,0.7l0.1,0.1l-0.2,0.4
			l0.5,0.3l0.6,0.1l0.1,0.7l1.7,1l0.3,0.4h0.5l1.3,0.8l0.8,1l0.4,0.2v0.3l1.5,0.4l0.6,0.4h1l0.3,0.2l0,0v1.2l0.2,0.1l-0.1,0.9
			l0.6,0.5l0.4-0.3l0.1,0.1l-0.4,1l-1,1.2l-0.7,0.2l-0.4,0.3h-0.7l-0.7,0.7l0.1,0.7l0.4,1v0.3l-0.5,0.6v0.3l0.5,0.4v0.3l-0.6,1.3
			l-2.4,1.5l-1.4,2.1l-1.2,0.3l-0.5-0.4l-0.7,0.2h-0.7L277,580h-1.3l-0.7,0.4l-0.8-0.8h-0.2l-0.2,0.4l-0.6-0.4h-0.2l0.2,4.3l0.2,0.5
			l0.5,0.6l0.2,0.6l0.4,0.5l0.9,0.4l0.4,0.9l0.7,2l0.2,2l0,0l-0.3,0.6l0,0l-1,1.2l-0.9,0.7l-1.3,0.5l-0.5,0.5L271,596l0,0l-0.3-0.6
			l-2.4-2.6l-0.5-1.9l-1-1.4l0-0.5l0.9-0.8l0.4-0.7V586l-0.5-2l-2.4-3.4l-1.7-2.1l-1.1-2.8l-0.9-0.9l0.4-0.7l0.1-0.7l-0.5-1.2
			l-0.5-0.3l-0.9-0.1l-1-0.9l-0.5,0.3l-0.5-0.1l0.1-0.7l0.5,0.1l-0.3-0.8l-0.5-0.1l-0.6-1v-0.3h0.4l-0.4-0.9l0.4-0.4v-0.4l-0.6-1.8
			l-0.3-1.7l-0.3-0.6l-0.5-0.7l-3.4-3.3l-0.9-1.7l-0.8-1l-2.7-2.2v-0.3l-0.6-0.8l-1.3-0.8l-0.4-1V550l-0.8-1.4l-0.3-0.2l0.3-0.8
			l-0.2-0.4l0.2-0.4l-0.7-1l-1.1-0.7l-0.7-0.7l-1.6-0.9l-2.7-1.1l-0.8-0.2l-0.5-1.1l-0.4-0.4l-1-0.1l-1.3,0.5l-1.4-0.5l1.1-1.6
			l0.9-0.4l0.9-0.1l0.8-0.9l1-1.9l0.6-0.1l1.4-0.9l1.2,0.5l1.7-0.6l0.6,0.8l0.1,0.5l0.7,0.6l1-0.5l0.3,0l0.6,0.1l0.1,0.2l0.8,0
			l0.8-0.1l0.6-0.4l0.8-1v-0.8l-0.8-0.6l-0.1-1.4l-0.8-0.3h-0.7l-0.3-0.9v-0.4l0.3-0.4l-0.1-2.5l0.7-0.4L247.8,527L247.8,527z"/>
		<path id="ID-SG" class="st2" d="M681,601.6l1.9,0.5l0.7,0.3l0.5,0.6l0.5,0.2l0.8-0.7l0.8-0.2l0.5,0.1l0.7,1.6l-0.4,0.7v0.4
			l0.2,0.4l1.3,0.7l1.4,0.2l0.5-0.3l1.3-1.3l1.8-0.7l0,0l3.1,1.3l2.3,0.7l0.8-0.4l0.9,0.2l1.2-0.1l0.5,0.3l0.6,0.8l1.3,0.2l0.2,0.4
			l-0.1,1l0.5,0.2l0.5,0.7l0.7-0.1l0.5,1.2h0.6l0.2,0.2l-0.1,0.2l0.2,0.5l0,0l-1,1.4l0.2,0.9l1.6,0.5l0.4,0.4l0.6,0.2l0.8,1.4
			l-0.2,0.5l-0.4,0.2l-2.2-2.2l-0.7-0.4h-0.9l0.8,1.5l-0.5,1.5l-1.4,0.6v0.5l1,1.6l2,1.4l2.6,1.5l-0.1,0.3l0.7,0.8l0.1,0.6l0.5,0.4
			l1.9-0.2l0.7,0.1l0.1,0.5l-0.6,0.4l-0.2,1.2l0.8,0.4l0.1,0.4l-0.4,0.5l0.7,1.5l0.2,0.2l2.9-0.2l-0.1-0.5l-1-0.7l-0.2-0.5l0.2-0.1
			h0.8l0.8,0.6l0.8,1.9l0.2,1.3l-0.2,3.3l-1.4,1.1l-0.9-0.6l-2-1.7l-0.3,0.1l-0.2,0.2l0.2,0.5l1.4,1.2l0.4,0.7l0.1,0.5L716,637
			l-0.4,0.2l-0.4-0.5l-0.7,0.3l-0.8-1.6l-0.9-0.6l-1.6,0.9l-0.9,0.3l-1-0.1l-3.2,0.9l-0.9-0.2l-1.6,0.9l-1.1,0.2l-0.7,1.4l-0.4,1.7
			l0.4,1.3l1,0.9v0.4l-1.6,1.6h-2l-1.8-0.8l-2.4-0.3l-0.7,0.3l-0.5-0.1l-0.2-0.5l-0.5-0.4l-1.9-0.7l-0.6-0.6l-0.2-0.6l-0.7-0.7
			l-0.2-0.5l0.3-2.2l0.2-0.2l0.7-2.5l-0.1-1.7l0.5-1.4l0.6-0.3l0.8-1.7l-0.1-1.7l-0.3-0.7l-1.6-0.6l-2.8-0.4l-0.5-0.4l-1.3-1.9
			l-0.5-0.2l-0.2-0.4v-0.6l-0.6-0.1l-0.7,0.1l-1.2-1.6l-3.7-3.2l-0.7-0.9l-0.5-0.2l-0.3-0.8v-1l0.4-1.1l1.9-2.6l0.8-0.4l0.7-1.8
			l-0.1-2.7l0.2-0.7l0.4-0.5v-1.4l-0.2-0.1l0.2-0.5l-0.3,0.2l-0.3-0.2l-0.1-0.9h-0.2l-0.2,0.5l-0.7-0.2l0.2,0.3l0.2,0.1v0.3H680
			l-0.1-0.8l-0.3-0.2v-0.2l0.5,0.2l0.6-0.9L681,601.6z"/>
		<path id="ID-SN" class="st2" d="M678.6,693.9h1.3l1.4,0.4l-0.4,0.6L680,695l-3.8-0.6l-0.5-0.3v-0.3l0.5-0.3l1.2,0.4L678.6,693.9
			L678.6,693.9z M673.6,689l1.3,0.7l0.5-0.3l0.2,0.6l-0.3,1l-2,0.3l-0.7-0.5l-0.3-0.8l0.2-1.4l0.5,0.1L673.6,689L673.6,689z
			 M669.9,676.4l-0.5,1.1l-0.4-2.1l0.2-1.5l-0.5-2.9l-0.1-5.1l0.5-2.5l0.2-0.4h0.3l0.2,0.3v0.8l0.5,1l0.8,3.2l-0.5,4.6L669.9,676.4
			L669.9,676.4z M656.9,586.4l0.5,0.6l0.4-0.4l0.7-0.2l1.1-1.1l0.4,0.2l1.7-0.2l0.2,0.7l1,0.5h2.1l1.6,0.7l1-2.9v-0.5l0.3-0.1
			l1.5,1.7l0.2,0.5l1.7,2.4l1.3,1.3l1.5,0.8l0.9,0.4h1l0.1-0.4l0.5-0.2l1.2,0.2l0.3,0.2l0.9,0.1l5.6,2.4l2,0.3l1.1,0.7l1-0.1
			l0.8,0.1l1.5,1.2l0.7,0.2l1,0.1l0.8,1.2l0.5-0.1l0.8,0.6l1.5,3l-0.7,0.2l-0.3,0.3l-0.9,1.8l-0.5,0.3l-0.3,0.9l0,0l-1.8,0.7
			l-1.3,1.3l-0.5,0.3l-1.4-0.2l-1.3-0.7l-0.2-0.4v-0.4l0.4-0.7l-0.7-1.6l-0.5-0.1l-0.9,0.2l-0.8,0.7l-0.5-0.2l-0.5-0.6l-0.7-0.3
			l-1.9-0.5l0,0l0.5-0.5l-0.9-1.3l-4.4-1.2l-0.8-0.1l-1.9,0.7l-2.2,1.3l-4.1,2.9l-3.5,2.2l1.3,3.5l1.6,1.2l0.7,0.3l0.6,1l-0.2,1
			l-0.1,4.1l0.7,1.6l0.4,2.6l-0.2,0.6l-1.4,2.2l-0.4,1.2l-0.2,4l0.9,1.3l-0.6,4.4l0.8,2.2l0.5,3.8l-0.6,2.2l-1.1,1.1l-0.6,0.4v2.8
			l-0.9,3.3l2.4,4.1l1.6,5.4l-0.2,0.2l-1-0.3l-1.2-1.9l-0.4-0.2l-2.2,0.6l-1.6,0.8l-1,0.3l-3.4-0.7l-1.5,1.2l-0.3,0.9l-1.1,0.7
			l-2.3-0.1l-0.4-0.3l-0.3-0.6l0.1-0.3l-0.4-0.5l-3.3-1.1l-2.2-3.3v-1.3l0.5-3.2l0.5-0.9l1.4-1.8l1-2.6l0.1-0.9l-0.5-1.1l-0.2-1.7
			l2.1-3.5l0.6-4.9l0.1-2.8l-0.6-4.4l-1.3-2l-1.8-3.5l0.7-1.7l0.7-1l-0.5-1.6l0,0l-0.4-2.2l-0.6-1.4l-0.1-1.1l-0.8-0.8v-0.5l0.5-0.3
			h0.5l0.2,0.3l1-0.3l0.3-0.2l0.2-0.7l0.8-0.3h1.2v-0.5l-0.7-0.8l-0.6-1.4l0.3-0.8l-0.1-0.7l-0.3-0.4l0.2-1v-1.2l0.4-0.9l0.9,0.3
			l1.2-0.5h0.7l0.8-0.9l0.2-0.9l1.5-1.1l0.3-0.7l-0.1-0.9l-0.2-0.4l-0.7-0.4l-1.1-0.2l-0.2-0.2l-0.3-0.6v-1l-0.3-0.4l-1.8-0.9V591
			l2.1-1.5l0.5-0.5l0.2-0.4l0.8-0.1l0.2-0.4l-0.3-1.1L656.9,586.4L656.9,586.4z"/>
		<path id="ID-SR" class="st2" d="M650.6,562.4l0.1,1.1l-0.3,0.7v1.1l0.3,1.1l0.2,1.7l0.1,0.3l0.5-0.1v0.6l-0.7,1.4l0.1,0.7
			l-0.2,0.5l-1.8,0.2l-0.2,0.4l0.7-0.2l0.1,0.3l-0.7,0.4l-0.8,0.1v0.3l0.6,0.8l0.4,0.2l0.4-0.1l0.5,0.7l0.8-0.1l0.7-0.5h0.4l0.9,0.5
			l0.7,0.7l-0.1,0.3l-0.7,0.7l0.3,1l1.2,1.2l-0.1,0.8l0.5,0.2l0.5,0.9l-0.4,0.5l-0.1,0.6l0.5,0.3l0.7-0.1l0.7,0.3l0.4-0.1l0.1,3.3
			l0.2,0.4l-0.4,0.2l0.3,1.1l0,0l-1.2,0.5l0.3,1.1l-0.2,0.4l-0.8,0.1l-0.2,0.4l-0.5,0.5l-2.1,1.5l0,1.5l1.8,0.9l0.3,0.4v1l0.3,0.6
			l0.2,0.2l1.1,0.2l0.7,0.4l0.2,0.4l0.1,0.9l-0.3,0.7l-1.5,1.1l-0.2,0.9l-0.8,0.9h-0.6l-1.2,0.5l-0.9-0.3l-0.4,0.9v1.2l-0.2,1
			l0.3,0.4l0.1,0.7l-0.4,0.8l0.6,1.4l0.7,0.8l-0.1,0.5h-1.2l-0.8,0.3l-0.2,0.7l-0.3,0.2l-1,0.3l-0.2-0.3l-0.4,0l-0.4,0.3v0.5
			l0.8,0.8l0.1,1.1l0.6,1.4l0.4,2.2l0,0l-2.8-1.1l-1.2-0.2l-1.5,1.3l-0.6,0.1l-1.2-0.2l-1.7,0.3l-1.8,0.8l-0.5,0.7l-0.2-0.1
			l-1.7-3.8l-0.2-0.9V608l0.3-0.3l0.8-3.4l-0.1-0.5l-0.4-0.3l-1.1-0.2l-0.8,0.4l-0.2-1.8l0.5-2l0.4-0.8l0.4-0.3l0.8,0.7h0.8l2.1-1.4
			l2.8-2.8v-1.2l-0.4-1.3v-1l0.3-1.5l1.4-3.9l0.5-0.7l0.5-0.3l0.9-0.3l0.7,0.3l0.4-0.8l0.3-1.9l-0.2-0.4l-0.6-0.3l-0.1-0.3l-0.6-2
			v-0.6l0.5-1.3l-0.5-2.6l-0.1-1.5v-0.3l0.8-0.6l-0.2-1.1l-0.3-0.4v-0.3l0.9-1.8l2.1-1.8l0.5-2.3l0.6-1.6l0.3-0.6L650.6,562.4z"/>
		<path id="ID-SS" class="st2" d="M327.5,643l0.1-0.4l-0.4-0.7h-0.5l-0.7-0.3l-0.4,0.1l0.5-0.6l-0.2-1l-0.4-0.5l-0.8-0.6h-0.9
			l0.8-0.7l-1.3-1.2l0.3-0.6l0.7-0.6v-0.7l-0.4-0.8l-0.7-0.2l-1.2,0.4l-0.6-0.4l-0.4-0.7l-0.5,0.1l-0.7-0.2H319l-0.9-0.5l-0.6-0.7
			l-2.3-0.4v-1.9l-0.5-0.8l-0.6-1.6l-0.5-0.1l-0.3-0.3l-1.1,0.2l-1.5-0.1l-0.2-0.1l-0.3-0.6l-0.5-0.2l-0.7,0.3l-0.9-0.2l-0.8-0.5
			l-1-1.3l-1.1-0.6l-0.2-0.5l-0.5-0.5l-0.8-0.2l0.5-0.2l0.3-0.4l1.6-0.6l0.1-1.3l0.8-0.9l0.6-0.4l0.1-1.7l0.2,0l0.6,0.4l0.6,0.7
			l0.4,0.8l0.2,0.1l0.9-0.9l0.4-0.8l0.4-0.1v-0.2l0.2-1.1v-1l0.2-0.4l-0.2-0.5l-0.9-0.1l-1,0.4l-0.2-0.2l-0.1-0.7l0.2-0.1l-0.7,0.3
			l-0.7-0.3l-0.3,0.1l-0.3-0.5v-0.4l-0.3-0.1l-1.1,0.7h-1l-0.9,0.7l-0.3-0.3l-0.8-0.1l-2-1.8l0.2-0.6l-0.3-0.2l0.1-1.4l-0.3-0.9
			l-0.8-0.7l-1.1-0.3l-1.4,0.5l-0.6-0.5l-0.7-0.2l-0.5-0.8l-0.4-1.4l-0.5-0.2l-0.2-0.3l-1-0.6l-0.2-0.8l-1-0.6l-0.2-0.7l0,0l0.6,0.2
			l0,0l0.5-0.9l0.7-0.2l0.2-0.2l1-0.1l0.5-0.5l0.1-0.9l0.7-0.3l1,0.6h0.3l0.2-0.2l0.6,0.3l0.7,0.7l0.8,0.2h0.9l0.1,0.2l0.6-0.5
			l0.5-0.1l0.6,0.2l0.7-0.8V599l0.2-0.2l0.9-0.4l1.1-0.9l0.3,0.2h0.3l0.5-0.4l1.2-2.1l0.6-0.4l-0.7-1.2l0.7-1l0.9,0.3l2.2,0.4
			l0.4-0.6l0.2,0l0.1,0.3l1.3,0.4l1.8-0.7l-0.2-0.9l-0.8-0.8l0.3-0.7l0.2-0.3l0.4-0.1l0.2-0.5l0.3-0.3l0.6,0.1l0.4,0.4l0.1,0.9
			l0.8,0.7l0.2,0.5l1,0.5l0.4,0.8l0.6,0.1l0.2,0.4h0.2l-0.1-0.9l0.2-0.2l-0.2-1.8l0.1-0.5l1.3-0.3l0.8-0.6l-0.7-0.6V587l0.2-0.5
			l-0.1-0.4l0.2-0.9v-1l1.3-1.1l2.6-1l2-0.1l0.3-0.6l0.9-0.4l0.5,0.1l1.2,0.6l0.6-0.2h0.9l1.3,0.3l1.6-0.4l1.1-0.5l1.1,0.1l1.2-0.3
			l0.4-0.5l-0.1-0.9l0.2-0.3l0.4-0.2l0.6-0.1l1.5,0.6l0,0l0.8,1.2l0.2,1.1l-0.2,0.6l-0.6,0.5l-0.4,0.9v0.8l0.3,0.5l0.3-0.1l0.6-1.4
			l0.5,0.1l1.5,1.3l2.5,1.5l1.6,0.1l0.9,0.8l0.2,0.6l0.4,1.9l-0.1,0.5l-0.3,0.4l-0.5,0.1l-0.4,0.8l-0.4-0.1l-0.7,0.6l-1.3,2.1l1,0.2
			l0.3-0.2l1.2-1.7l1.2-0.3l0.5,1l1.3,0.1l0.6,0.5l1.8,0.5l1.8-1l2.9,1l3.6,0.4h1.9l0.3,0.7l-0.5,2l0.3,1.7l0.2,0.5l0.9,0.8l0.8,0.2
			h1l0.4,0.2l0.2,0.7l-0.2,2.4l0.8,1.5l0.8,0.7l1.2,0.1l0.9-0.2l0.4,0.1l1,0.4l0.5,0.5l0.2,1.2L374,609l0.9,1.9v0.5l-0.4,0.5l-2,1
			l-1.3,1.4l-1.4,3l-0.4,1.3l-0.2,1.3l0.3,1.1l0.5,0.6l1.5,0.9l0.5,1.2l-0.2,1l-1.1,1.7l-0.7,1.5l-0.3,2l-0.3,0.4l0,0l-0.4-0.7
			l-0.6-0.3h-0.2l-0.1,0.3l-0.3,0.2l-0.9-0.1l-0.2-0.2l0.1-0.5l-0.3-0.1v-0.3h-0.8v-0.3l0.4-0.4l-0.1-0.1l-0.5,0.1l-0.3-0.2v0.4
			l-0.3-0.1l0.1-0.3l0.5-0.6l-0.4-0.4v-0.3l-0.5-0.5h0.4l-0.1-0.4l-0.1-0.1l-0.4,0.2l-0.3-0.2l0.1-0.5l-0.4-0.3l-0.2,0.2l-0.4-0.2
			l0.2-1h-0.7l-0.2-0.3l-0.9,0.1l-0.1-0.8l-0.4-0.1l-0.6,0.1l-0.4,0.3l-0.3-1.3l-0.3-0.2l-0.4,0.5l-0.1,0.7l-0.5,0.4l0.3,0.7
			l-0.2,0.6l-0.8,0.8l-0.8-0.3L356,625l-0.1,0.6l-0.2,0.1l-0.3-0.2l-0.3,1.3l-0.5,0.5l0.4,0.4l-0.5,0.1l-0.4,0.4l-0.4,1.1l-0.7,0.5
			l-0.4,0.6h-0.7l-0.7,0.3l-1.3,0.7l-0.1,0.4L348,632l-2.6-0.1l-0.3-0.1l-0.5-0.6l-0.8,0.7l-1.4,0.6l-0.7,0.6L341,633l-0.6,0.7
			l-1,0.7l-0.1,0.5l-0.3,0.1l-0.3,1l0.4,3.2l-0.8,0.8l-0.3,0.9l0.6,0.4l0.1,1l0.8,0.7l0.1,0.4v0.4l-0.9,1.1l-0.4,0.1l-0.5-0.5
			l-0.4,0.2H337l-0.5-0.3l-0.4,0.1l-0.2,0.5l-1.2,0.6l-1.1-0.3l-0.1-0.3l-0.2-0.1l-0.3,0.3l-1.7,0.2l-0.6-0.5l-0.2,1.1l-0.4,0.4
			l-0.9-0.8h-0.4v-0.2l0.5-0.5v-0.6l-0.5-0.6h-0.5l-0.1-0.6l-0.8,0.1l0,0L327.5,643z"/>
		<path id="ID-ST" class="st2" d="M734,654.8l-1.4-0.1l-0.8-1.5l-0.1-0.9l1.5,0.2l0.6,0.5l0.2,0.4L734,654.8z M701,656.8l-1.2,0.1
			l-2-2.4l-1.2-1.8l0.1-1l1-2.7l1-0.7l1.2,0.2l0.2,0.2l1.6,3.1l-0.1,3.9l-0.2,0.7L701,656.8z M715.3,639.8l0.7,4.7l0.2,0.5l-0.1,1.2
			l-2.6,2.3l-1,2.1l0.1,0.5l0.6,0.4l0.5,1.2l-0.3,1.6l-0.8,1.4l-1.1,0.3l-1.9-0.7l-2.9-0.2l-0.5-0.2l-0.2-1.1l1-3.6l0.3-0.7l1-0.6
			l0.2-0.4l-0.2-1.7L707,644l0.9-1.9l0.5-0.2l1.2,0l1.3-0.4l1.7-1.3l1.9-0.9L715.3,639.8L715.3,639.8z M725.4,641v2.5l-0.2,1
			l-0.7-0.8l0.2-1.2l-0.9-1.3l-0.5,0.2l0.2,2.4l-0.4,0.3l-0.7-0.3l-0.2-0.3l0.1-0.5l0.4-0.6l-0.1-0.4l-0.2-0.2l-0.5,0.3l-0.6,1.6
			l-0.5,2.3l-0.2,3.3l0.9,0.7l0.4-0.1l3.5,2.7v0.4l-1.5,1.9l-1.9,0.8l-0.4-0.1l-0.7-0.5l-2,0.9l-0.5,0.5l-0.3,0.8l0.8,0.1l0.3,0.4
			l-0.2,0.7l-1.5,2.4l-0.5,0.3l-3-0.2l-1.1-1.8l-0.7-1.9l3.4-5.2l0.9-2.5l1.5-6.5l-0.2-3.3l0.4-1.5l1-2.1l2.4-1.7l0.5-0.2l0.4,0.2
			l-0.3,0.6l0.3,0.9l1.2,0.7l1.2,1.7l0.5,2.5L725.4,641z M722.7,627.2l0.4,0.1l1.8-0.4l0.8,0.8l0.4,0.8l-0.1,0.8l-1.9,2.4l-0.3,0.2
			l-1.6-0.1l-1-1l-1-1.4l-0.2-0.6V628l1.1-1.2l0.8-0.2l0.8,0.6L722.7,627.2z M725.3,569.3l0.6,1.2l-0.8,1.3l1,1.9l0.5-0.1l0.5-1.2
			l0.6-0.4l0.2-0.6l0.7-0.8l1-0.4l3,1.4l-0.5,3.3l-0.8,0.5l-0.7,1h-0.6l-1.4-0.7l-0.3-0.7l-0.8-0.8l-0.6,0.3l-0.3,0.6l-0.2,0.7
			l-0.1,2l-0.2,0.3h-0.4l-0.6,0.4l-0.6-0.3h-0.5l-0.4-0.2l-0.1-0.5l0.2-0.3h0.4l1-1.1l-0.3-1.3l-0.3-2.6l-0.2-0.4l-0.5,0.3l-1.4,1.6
			l-0.3,1.3l-0.9,1.1l0,0.3l-1.4,1.3l-0.5,0.2l-0.7-0.1l-0.8-1.9l-0.7-0.3l-0.2-0.4v-1l0.6-2.2l1.2-1.4l0.3-0.6l0.4-0.5h0.5l0.9,0.5
			l0.4-0.3l2.3-0.7l0.8,0.8l0.5-1h0.3L725.3,569.3L725.3,569.3z M685.1,520.3l0.5,0.1l2.4-0.4l1.1-1h0.4l0.4,0.3v0.5l-0.2,0.3h-0.7
			l-0.3,0.2l0.2,0.1l0.2,0.8l0.7,1l1.1,1.1l0.7,0.3l0.8,0.2l6.8-0.9l0.2,0.1l0.7,1.4l0.4,0.2l0.4-0.1l1-0.9h0.6l2.2,0.9l0,0l-2.7,1
			h-0.3l-0.6,0.7h-0.5l-0.2,0.8l-0.4,0.3l-0.5-0.2l-0.6-0.6l-0.6-1l-1,0.2l-0.9,0.7l-1.3,0.3l-2.5,1.1h-1.7l-0.6,0.5l-1.6-0.1
			l-1.1-0.6l-0.4,0.5v1.1l-0.6,0.1l-1.2-0.5l-1.2,0.5l-0.4,0.4l-0.1,1.3l-0.4,0.2l0.3,0.5l0.7,0.4l0.6,0.9l1.3,0.4h0.8l0.2,1.7
			l-0.3,0.6l0,0l-1.6-0.5l-2,0.5l-0.7,1l-2.4-0.3l-1.8,0.4l-0.7-0.2l-0.5-0.5l-2.3-0.7l-1-0.6l-4-0.2l-1.3,0.8l-2,0.7l-2,2l-2.6,3.8
			l0.4,0.4l-0.6,1l-0.2,2.5l-0.7,0.7l-0.6-0.1l0.1,1.6l-0.5,1.2l-0.1,1.6l0.4,0.7l0.1,1l0.7,1.7l-0.3,1l-0.2,2.6l0.3,0.8l1.4,2.1
			l2.8,3.1l0.2,0.5l0.6,0.3h0.4l0.9-0.6l0.4-0.1l0.7,0.5l0.3,0.7l1.3,0.1l1.7,2.8l-0.5,1.7l0.1,0.7l0.3,0.5l0.6,0.3l1.2,2.6l0.6,0.1
			l1-0.5l0.3-0.7l0.6-0.3h0.8v0.8l0.2,0.4l0.6,0.2l1.4-0.2l2.9,0.4l0.5-0.3l1.1-1.5l1.3-2.6l2.6-3.3l0.5-0.2l0.3-0.5l1-0.8l0.8-1.4
			l0.7-0.4l1.4-0.3l0.2-1.1l0.6-0.2h0.4l0.4,0.3l-0.4,1.8l0.3,0.4h0.3l1.3,0.8l2.6,0.3l1.1,0.5l1.6-1l0.9-0.2l0.8,0.3h0.6l0.6-0.6
			l0.5-2.3l1.8-0.7l1.2,0.5l3.2-1.2l4.4,0.6h2l3.1-0.3l0.8-0.4l-0.1-0.3l-1.7-0.6l-2.4-0.2l-0.6-0.3v-0.3l1.8-0.8l1.8-0.2h2.2
			l0.6-0.2l0.4-0.8h0.3l3.2,0.1l1.8,0.7l2,1.1l0.9,2.3l-0.2,1.5l-0.9,1.1l-0.4,2.3l-0.6,0.8l-0.4,0.2l-1.4-0.2l-0.5-0.2l-1.5-1.7
			l-0.4-1.1l-1.7-0.4l-5.1,0.7l-0.5,0.6l-0.1,0.9l-0.6,1.1l-1.5,1.7l-1.2,2l-1.4,1.1l-2.5,2.6l-1.3,1.7l-4.4,2.5l-3.1,0.4l-1.2,0.8
			l-2.4,0.5l-0.8,0.6l-1.2,2.8l-1,1l-0.6,0.3l-1.3,0.2l-1.3-0.1l-0.4-0.7l-1.5-1.5l-2.3-1l-0.6,0.3L686,583l1,3l0.5-0.4l1.3-0.1
			l1.1,1.2l1.8,2.6l1,0.4l1.1-0.2l0.9,0.3l2.5,2.6l2.7,4.6l0.9,3l2.4,2l3.6,2.5v0.8l-0.8,1.3v0.4l2.3,2l0.3,0.2l0.7-0.3l1.1,0.8
			l-1.3,1.5l-1.2-0.3l-0.4,0.4l0,0l-0.2-0.5l0.1-0.2l-0.2-0.2h-0.6l-0.5-1.2l-0.7,0.1l-0.5-0.7l-0.5-0.2l0.1-1l-0.2-0.4l-1.3-0.2
			l-0.6-0.8l-0.5-0.3l-1.2,0.1l-0.9-0.2L699,606l-2.3-0.7l-3.1-1.3l0,0l0.3-0.9l0.5-0.3l0.9-1.8l0.3-0.3l0.7-0.2l-1.5-3L694,597
			l-0.5,0.1l-0.8-1.2l-1-0.1l-0.7-0.2l-1.5-1.2l-0.8-0.1l-1,0.1l-1.1-0.7l-2-0.3l-5.6-2.4l-0.9-0.1l-0.3-0.2l-1.2-0.2l-0.5,0.2
			l-0.1,0.4h-1l-0.9-0.4l-1.5-0.8l-1.3-1.3l-1.7-2.4l-0.2-0.5l-1.5-1.7l-0.3,0.1v0.5l-1,2.9l-1.6-0.7h-2.1l-1-0.5l-0.2-0.7l-1.7,0.2
			l-0.4-0.2l-1.1,1.1l-0.7,0.2l-0.4,0.4l-0.5-0.6l0,0l-0.3-1l0.4-0.2l-0.2-0.4l-0.1-3.3l-0.4,0.1l-0.7-0.3l-0.7,0.1l-0.5-0.3
			l0.1-0.6l0.5-0.5l-0.5-0.9L654,579l0.1-0.8l-1.2-1.2l-0.3-1l0.7-0.7l0.1-0.3l-0.7-0.7l-0.9-0.5h-0.4l-0.7,0.5l-0.7,0.1l-0.5-0.7
			L649,574l-0.4-0.2L648,573v-0.3l0.8-0.1l0.7-0.4l-0.1-0.3l-0.7,0.2l0.2-0.5l1.8-0.2l0.3-0.5l-0.1-0.7l0.7-1.4v-0.6l-0.5,0.1
			l-0.1-0.3l-0.2-1.6l-0.3-1.1v-1.1l0.3-0.7l-0.1-1.1l0,0l2.3-1.8l0.2-1.2l0.7-0.7h0.4l1.1,2.3l0.2,1.2l0.7,1.1h0.2l0.3-0.6l0.1-0.6
			l-0.4-2.2l-1-1.3l-1-3.3l0.2-3h0.2l0.2-0.9l0.8-2l-0.4-1.4l-1.6,0.5l-0.4-0.2l-0.8-0.6l-1.2-2.2l1.3,0.2l-0.1-0.7l1,0.5l0.6,0.5
			l-0.1,0.5l0.6,0.4l0.2,0.6l0.8,0.2l0.8-0.9l0.5-1.2l0-1.9l-0.4-0.7l-1.6-1.6l-0.1-0.4l0.5-0.3l1,0.3h1.1l0.1-0.3l-0.3-1.2
			l-0.7-0.8v-0.3l0.6-1v-0.8l0.5-0.8l0.8-0.5l1.1-0.1l0.7-0.5l0.2-0.9l-0.4-2v-0.6l0.2-0.4l0.9-0.7h0.9l2.1-1.2l0.3-0.6v-1.8
			l0.3-0.8l0.7-0.5h0.7l0.4,0.2l0.1,0.6l-0.3,1.3l0.2,0.5l1.7,1.1l3.2,0.6l0.6-1.4l0.2-0.9l0.7-1.2l0.8-0.9l1.3-0.5l1-1l0.6-2.7
			l-0.2-1.7l0.2-0.9l2.5-0.4l2.9,0.4l1,0.4L685.1,520.3L685.1,520.3z"/>
		<path id="ID-SU" class="st2" d="M217.8,550.4l0.5,0l0.8,1l0.6,1.1v0.6l-0.4,0.4l0.2,0.3l-0.2,0.9l0.1,0.5l-0.2,0.4l-0.3,0.1
			l0.4,0.9l-0.1,0.2l-0.2,0.1l-0.4,0.1l0.3-0.7l-0.1-0.2l-0.4,0.3l-0.4-0.2l-0.3,0.1l-0.2,0.5l0.2,0.4l-0.1,0.3l-0.4-0.5l-0.7-0.5
			l-1.6-0.6l0.7-0.3v0.3h0.4l0.2-1l0.4-0.3l-0.1-1.4l0.2-1l0.5-0.4l0.5-0.2l0.2-0.5l-0.6-0.8L217.8,550.4L217.8,550.4z M217.2,545.4
			l0.1,0.3l0.4-0.3v0.6l1.3,1.5l0.1,0.7l-0.2,0.4l0.3,0.6l-0.1,0.4l1.2,0.8l0.5,0.7l-0.1,1.1h-0.4l-0.1,0.3l0.3,0.7l-0.1,0.2
			l-0.6-1.4l-0.3-0.3l-1.2-1.9l-0.3-0.1v-0.5l-1.3-1.6v-0.2l-0.4-1.1l-1.1-0.5l1.2-0.5L217.2,545.4L217.2,545.4z M221.8,541.9
			l1.2,0.1l0.6-0.2l0.4,0.4l1.5-0.3l1.2,1.2l-0.2,0.5l0.1,0.2l-0.5,0.1l-0.2-0.2l-0.7-0.1l-0.6,0.5l-0.4,0.1l-0.5-0.2l-1,0.2
			l-1.1-0.4h-1.1l-0.4-0.2l-0.1-0.8l0.9-0.6l0.8-0.1L221.8,541.9z M199.4,516.5l0.4,0.9l2.9,4l2.1,0.7l2.5,2.2l0.5,1.4l-0.8,1.9
			l-0.2,4.8l-0.3,0.6l-1.2,1.3l-2.3-0.6l-0.4-0.5l0.2-0.4l-1.6-4l-2.4-2.5l-1.1-0.1l-0.6-0.2l-0.4-1.1l-1-1.8l-1.9-3.2l-2.7-2.8
			l0.9-0.4l1.4,0.1l0.6-0.2l1.6-1.5l1.3-0.3l1.8,0.6L199.4,516.5z M219.4,511.7l0.8,0.1l0.4-0.6l0.5,0.3l0.5,0.8l-0.8,0.2l-1.5-0.1
			l-0.8-0.3l-0.2-0.6l0.6-0.7l0.7,0.3L219.4,511.7L219.4,511.7z M177.1,497.8l-2.1-0.2l-0.4-0.2l-0.4-1.2l-4.8-3.2l-3.7-1.3
			l-1.2-0.2l-2.4-2.3l-0.2-0.7l0.1-0.3l1.9-2.4l1.9,0.4l2.3,2.9l0.7,0.3l1.5,0.2l2.3,2.5l2.7,1.9l1.7,0.7l0.6,0.8v0.5l0.5,1.3
			L177.1,497.8L177.1,497.8z M212.3,501.7l0.7-3.3l-0.6-1.9l-1-0.4l0.1-0.8l-0.5-0.7l-0.2-1.2l0.3-1.7l0.7-0.2v-0.3l-0.6-0.6
			l-0.2-0.8l0.1-0.5l0.4-0.6l-0.3-0.3v-0.3l-1.1-0.1l-0.7-1.2l-1.1-0.3v-1.2l-0.3-1v-0.6l-0.2-0.3l0.3-0.2l0.7,0.1l0.1-1.1l-0.7-0.8
			l-0.1-0.9l-0.6-0.6l-0.7-0.1l-0.1-0.2l2.8-0.8l0.3-0.9l-0.4-0.8l-0.3,0.1l-0.8-0.5v-0.5l-0.3-0.7l0.4-0.6l-0.7-0.5l-0.2-1
			l-0.9-0.4v-0.9l-0.3-0.2v-0.4l-0.6-0.6l-0.4-1l0.5-0.7l1.8-1.4l0.1-0.4l-0.5-0.9l0.1-0.4h0.2l0.7,0.5l0.2-0.3l-0.1-0.5l1.4-0.8
			l0.3-1.6l0.2-0.3v-1.1l0.6-0.8l-0.2-0.6l0.4-0.3v-0.4l-0.4-0.6l0.1-0.2l0.4,0.1l0.7-0.1l0.3-0.1l0.1-0.4l0.9-0.2l0.9,0.2l0.5-0.2
			l0,0l0.1,3.2l0.9,1.2h1.4l1.8,0.8l1.3,0.8l1,1.5l2.1,0.5l0.4,0.7l-0.1,0.6l0.3,1l2.5,1.7l2.6,0.9l2.1,1.2l4.7,3l1.4,1.3l1.4,0.5
			l1.1,0.8l0.9,1.5l0.4,0.4l0.6,0.4l1.6,0.5l2.2,1.2l2.8,2.8l1.6,1.3l0.2,0.4l0.1,2.6l-0.2,0.7l-0.7,0.9l0.1,0.5l1.4,1.5l-0.3,0.3
			l0.6-0.2l-0.4-0.9l0.3-0.5l-0.6-0.5l-0.4,0v-0.2l1.1-0.8l0.5,0.1l0.8,0.9l-0.1,1.6l0.9,2h0.1l-0.5-1.9v-0.9l0.4-0.6l0.7-0.4h0.7
			l0.9,1.1l0.8,1.5l0.6,0.6l0.3,0.7l-0.5,1.5l0.1,2.4l0.8,1.9l0.2,1.1l-0.6,2l-0.3,3.5l-0.6,1.5v0.5l0.3,0.4l2.2,0.4l0.3,0.9
			l-0.4,0.3v0.5l0.7,0.1l0.1,0.4l-0.1,0.5l0.2,0.4l-0.1,0.6l-0.5,0.8l-0.1,0.5l0.3,0.3l-0.1,0.6l-1,0.8h-0.9l0,0.5l-0.3,0.2
			l-0.7-0.1l-0.6,0.1v0.3l-3.6,0.2l-0.5,0.3v0.5l0.3,0.3h0.3l0.6,1.1l0.2,1.9l0.3,0.6l0.7,0.5l0.1,0.4l-0.8,0.1l-0.6,0.4l-0.1,0.5
			l0.5,0.2l0.4,1.2l-0.2,0.8l-0.3,0.3h-0.9v0.3l0.5,0.5h0.5l-0.1,0.5l0.1,0.8l-0.3,0.2l0.6,0.9l0.6,0.5l-2.5-0.8l-0.3-0.4l-1.5-0.6
			l-0.4-0.8l-0.8,0.2l-0.5-0.4h-0.3l-0.7,0.4l0.1,2.5l-0.3,0.4v0.4l0.3,0.9h0.8l0.7,0.3l0.1,1.4l0.8,0.6v0.8l-0.8,1l-0.6,0.4l-0.8,0
			h-0.7l-0.1-0.2l-0.6-0.1h-0.3l-1,0.5l-0.8-0.5l-0.1-0.5l-0.6-0.8L241,535l-1.3-0.5l-1.4,0.9l-0.6,0.1l-1,1.9l-0.7,0.9l-0.9,0.1
			l-0.9,0.4l-1.1,1.6l-0.2-0.1l-0.3-0.2l0.4-0.2v-1l-0.9-0.6l0.5-1.4l-0.7-3.5l-1.4-3.9l-1.5-3.3l-2.6-7.6l-1.6-3.6l-1-1.3v-0.4h0.2
			l0.5,0.6l0.2,0.1l0.2-0.3l1-1.6v-1l-1-1.6l-0.9-0.7l-0.3,0l-0.3,0.3l0.6,0.2l0.2,0.8h-0.5l-0.9-0.5l-2.4-3.3l-0.7-0.6l-1.7-1
			l-4.1-2L212.3,501.7L212.3,501.7z"/>
		<path id="ID-YO" class="st2" d="M472,712.8l-2.4-0.1l-6.9-2.5l-0.5-0.4l-0.3-0.6l-2.3-0.7l-3-1.5l-1.5-0.6l0,0h0.7l0.4-1.5
			l0.5-0.3l0.2-0.5l0.3-0.1l0.4-0.6l0.1-1l-0.4-0.3l0.2-0.5l0.7-0.2l1.5,0.2l0.3-0.2l0.2,0.2v0.7l0.3,0.2l0.7-0.9l2.8-2.2l1,4.6
			l0.4,0.1l0.5,0.5l0.4-0.3l0.3,0.1l0.2,0.4l1.3-0.3l0.2,0.2l0.3-0.3l0.2,0.4l0.5-0.1l0.2-0.3l0.4,0.2l0.4,0.5l0.3-0.3l0.4,0.2
			l-0.1,1l-0.4,1v1.3l-0.3,0.7l0.7,1.9l-0.1,0.9l0.3,0.2l0.4-0.4h0.3l-0.3,0.7l0.1,0.1l0.2-0.2l0.1,0.1L472,712.8z"/>
		<path id="TL" class="st2" d="M751.2,732.8v0.4l-0.2,0.3v0.7l-0.2,0.5l0.1,0.7l-0.3,0.2l-0.2,0.5l-0.6,0.1l-0.4,0.5h-0.2l-0.1,0.3
			l0.2,0.3l-0.7,0.8l0.3,0.5l-0.3,0.6l-1.4,0.3l0.2-1l-0.3-0.7l-1-1h-0.2l-0.8,0.5l-0.2,0.6l-0.5,0.1l-0.3-0.4h-0.5l-1-1.4l0,0
			l2.2-0.8l0.7-0.8l2.2-0.8L751.2,732.8L751.2,732.8z M808,718.4l-3.3,2.6l-1.5,1.6l-4.7,1.5l-2.7,0.4l-1.5,0.7l-0.8,0.8l-0.4,1
			l-1,1l-3.1,0.5l-3.5,0.3l-4.3,2.8l-2,0.1l-1.3,0.3l-8,2.6l-1.3,0.8l-2.4,2.3l-1.7,0.2l-0.8,0.5l0,0l-0.2-1.4l-0.6-0.7V736
			l-1.2-0.8l-0.3-1.3l0.1-0.5l0.3-0.7h1.2l0.8,0.7v-0.2l0.8-0.5l0.8-0.1l-0.2-0.9l0.3-1v-1l-0.7-0.6l-0.3-0.1l-0.5-0.5l-0.3,0.8
			l-0.4,0.4l-0.7,0.2l-0.8,0.6h-0.5l-0.6-0.3l-0.3-0.4v-0.6l0.3-0.8l-0.2-0.1l0,0l0.7-0.5l2.5-3.6l0.3-1.6l0.7-0.9l1.7-0.5l4-0.8
			l5.8-0.8l2.8-1l1.9,0.1l1,0.3l0.7,0.4l1.1,0.1l3.2-0.5l1.1-0.5l1.5-1l1.1-0.1l1.9,0.6l0.8,0.6h0.5l4.3-1.3l2.6-1.3l2.2-0.7l4,0.2
			l2.1,1.3v0.8L808,718.4L808,718.4z"/>
		<circle class="st3" cx="566.5" cy="700.5" r="23.2"/>
		<circle class="st3" cx="393.4" cy="667.8" r="23.2"/>
	</g>
</g>
</svg>
