<?xml version="1.0" encoding="utf-8"?>
<!-- Generator: Adobe Illustrator 25.2.1, SVG Export Plug-In . SVG Version: 6.00 Build 0)  -->
<svg version="1.1" id="Layer_1" xmlns="http://www.w3.org/2000/svg" xmlns:xlink="http://www.w3.org/1999/xlink" x="0px" y="0px"
	 viewBox="0 0 1236 1160" style="enable-background:new 0 0 1236 1160;" xml:space="preserve">
<style type="text/css">
	.st0{opacity:0.7;fill:#010307;stroke:#FFFFFF;stroke-width:3;stroke-miterlimit:10;}
	.st1{fill:none;stroke:#FFFFFF;stroke-width:10;stroke-miterlimit:10;}
	.st2{fill:#006694;stroke:#FFFFFF;stroke-width:0.25;stroke-miterlimit:10;}
	.st3{fill:#FF0000;}
</style>
<g id="Layer_2_1_">
	<g id="Layer_1-2">
		<image style="overflow:visible;enable-background:new    ;" width="1236" height="1160" xlink:href="B696BC787498214D.png" >
		</image>
		<rect x="95" y="95.2" class="st0" width="1046" height="969"/>
		<polyline class="st1" points="95,272.2 95,95.2 272,95.2 		"/>
		<polyline class="st1" points="964,95.2 1141,95.2 1141,272.2 		"/>
		<polyline class="st1" points="1141,887.2 1141,1064.2 964,1064.2 		"/>
		<polyline class="st1" points="272,1064.2 95,1064.2 95,887.2 		"/>
		
			<image style="overflow:visible;enable-background:new    ;" width="1036" height="544" xlink:href="B696BC787498214F.png"  transform="matrix(1 0 0 1 116 324)">
		</image>
		<path id="BN" class="st2" d="M831.1,551.7l0.2,0.9l0.8,1.1l0.7,0.2l-0.1,0.6l0,0l0.8,0.7l0,0l1.8,1.2l0.7,0.8l-0.3,1.9l0.2,0.4
			l0.9,0.8l0.3,0.5l0.1,0.9l-0.3,1.1l0.2,0.6l0.6,0.5l-0.1,0.8l-0.4,0.5l0.4,0.5l1.1,0.8l0.2,1.6l-0.2,0.7v1.1l-0.9,1.2l0.2,0.7
			l-0.2,1.2l0.4,0.5v1.3l0.3,0.8l-0.3,1l0.2,0.8l0.3,0.6l0.9,1l2,1.5l0.6,1.2l0.8,0.8l-0.1,1l-0.8,0.8l-0.8,0.5l-0.4,0.1l-0.7-0.2
			l-0.5-0.5l-0.3-0.8l-0.4-0.3l-0.7-0.3l-1.7,0.2l-0.3-1.5l-0.4-0.3l-2.2,0.2l-2.9-1.1l0,0l-0.8,0.1l0,0l-0.2,0.1h-0.8l-0.7-0.5
			l-0.2-0.4l0.2-1.3l-0.5-1.8l0.2-1.8l-1.8-5.9l-0.7-1.2l-0.2-0.8v-1.2l-0.2-0.5l-0.1-1.3l-0.4-0.9l0,0v-0.6l0,0l0.2-0.9l-0.5-1.8
			l0.8-1.9l0,0v-0.2l-0.6-0.3l-0.1-0.5l0.1-0.1l0.7,0.2l0.1,0.7l0.5,0.5l-0.2-0.7l0.2-1.3l0.3-0.3l1.5-0.6l1.2-0.3l0.2-0.6l-0.2-0.4
			l-0.6-0.3l-0.2-0.4v-0.7l1-0.7L831.1,551.7L831.1,551.7z M825.6,544.4l0.4,0.2l1.4-0.1l-1.3,0.9l-0.3,1.1l-0.7-0.2l-0.8,0.1
			l0.1,1.2l0.5,0.5l-0.2,0.3l-1,0.7l-0.6,1v0.6l0.3,0.1l0.2,0.5l-0.1,0.5l-1.1,0.5l0,0l-1.7,3.2l-0.7,0.4l-3,0.4l-1.8,0.5l-0.7,0.5
			l-0.8,2.1l-0.6,0.5l-1.6,0.2l-0.5,0.2l-0.3,0.3l-0.2,1.1v1l1.2,2l0.2,1.4l0.6,5.2l-0.1,2l0.3,3.6l0.4,0.7l0.6,0.4l1.8,0.4l0.3,0.2
			l-0.1,2.7l-1.5,2.9l-1.9,2.1l-0.1,0.9l0.1,0.3h0.5l1.3-1.3l0.2,0.1l-0.6,1.7l-2.1,3.1l-0.7,0.6l-0.2,0.7l0.1,0.2l1.2-0.2l-0.1,0.4
			l-0.3,0.5L810,595l-0.9,1.5l-1,1.2l-1.3,1.2l-2.6,1.5l0,0l-2.3,0.7l0,0l-1-0.2l0,0l0.1-0.4l0,0l1-1l-0.2-0.6l-1.8-0.3l-1.3-0.8
			l-1.2-2l-0.4-1.1l-0.9-0.9l-2-0.2l-1.3-2.2l-0.9-2l-0.2-1.1l-0.1-1.4l-0.3-0.4l-0.5-0.1l-0.4,0.1l-0.6,0.9l-0.4,0.2l-1.9-0.6
			l-0.4,0.1l-0.6,0.5l-0.5,0.2l-1.4-0.3l-0.4-0.3l-0.1-1.8l0.7-2.4l-0.2-0.3l-1-0.8l-0.1-0.3l0.2-2.2l-2.5-4.3l-1.5-2l0,0l-1.1-0.7
			l0,0l-0.5-0.2l-0.7,0.2l-1.3-1.7l-0.9-0.5l0,0l-1.6-0.4l4-0.2l3.1-0.5l4.8-1.5l5.6-2.1l1.8-0.9l2-1.2l2.4-1.8l7.6-6.6l5.6-3.7
			l3.6-3l0.3,0.2l0.5-0.1l9.3-3.8l1.5-0.4L825.6,544.4L825.6,544.4z"/>
		<path id="MY-01" class="st2" d="M418.5,752.3l-0.2-0.1l-0.1-0.4l0.2-1.3l1,0.6v0.8L418.5,752.3L418.5,752.3z M366.5,707.5l1.3-0.3
			l0,0l0.9-0.5l0.1-1.3l-0.1-0.4l-0.7-0.6l-2.1-0.7l-0.2-0.7l0.1-0.4l0.8-0.5l0.3-0.4v-2.3l0.4-0.6l0.8-4.4l1.2-1l0.1-0.9l2.5-1
			l0.2-0.8l0,0l0.1-1.5l0.3-0.4l0.9-0.7l0.1-0.5l-0.3-1.2l0.5-1l-0.3-1.3l0-1.3l0.5-0.8l0.1-0.6l1-0.5l0.1-0.4l-0.6-1l-0.1-0.7
			l3.9-10.9l0,0l5.2,1.5l9.8,11.4l9.9,4.3h0.4l7.1-2.9l3.4-0.8h1l3.4,1.9l2,0.3l1.4,1.7l6.1,3.1l0.8,0.2l0.5-0.4l0.4,0.3h0.3l0.7-1
			l-0.4-0.4V686l-0.5-0.7v-0.8l-0.2-0.1l-1,0.3l-0.4-0.3l0.2-1.3l0.9-0.4h0.3l-0.1-0.6l-0.5,0.4l-0.2-0.1l-0.1-0.5l0.4-0.4l0.8-0.1
			l-0.4-0.4l0.1-0.5l0.3-0.2l-0.3-0.6v-0.4l0.2-0.2l-0.3-0.3l0-0.8l-0.3,0.9h-0.6l-0.3-0.4l-0.1-0.9l0.3-0.4l0.6-0.2l0.9,0.3h0.4
			l0.1-0.5l0,0l0.4,0.3l0.9,0.2l0.5-0.2h0.4l1.7,0.9l2.1,0.7l0.6-0.2v-0.6l0.5-0.2l0.5,0.6l-0.4,0.9l0.1,0.4l2.5,1.9l0.3,0.1
			l0.3-0.4l0.4,0.2v0.2l-0.5,0.3l0.4,1.8l0.5,1l0.8,0.8l-0.1,0.2l-1.2,0.3l-0.2,0.4l1.2,3l0.8,0.3l0.7,1.3l2.5,3.1l1.4,0.3l0.3,0.6
			l1.1,1.3L448,697l0.1,0.3l0.7,1.2l0.8,0.8l0.1,0.5l-0.6-0.2l-0.7,0.4l-0.1,1.4l0.2,0.6l3.2,4.4l1.6,3.5l3.8,5.5l0.5,1.7l0.4,0.6
			v0.4h-0.1l-0.4-0.3l-0.1-0.5l-0.4-0.1l-0.4,1.5v1.1l0.2,0.8l0.5,0.7l0.8,0.9l0.5,0.2l0.5-0.1v-0.5l0.6,0.5l-0.2,1.1l0.6,1l1.1,1.4
			l0.6,1.6v1l1.1,1.5l-0.4,0.5v0.4l1,1.4l0.9,0.9l0.1,0.3l-0.3,0.4l0.1,0.4l1.1,1.3L465,736l0.2,0.8L465,738l0.5,0.9l1.1,1.4
			l0.1,0.7l-0.6,0.3l-0.1,0.7l0.4,1l0.9,1.4v0.4l-0.9,0.5l-0.1,0.3l-0.1,1.2l0.5,2l-0.4,0.3l-1,0.3l-0.4-0.6h-0.4l-1.1,1H463
			l-0.7,0.7l-0.8-0.4l-0.6-0.1l-0.8,0.4l-0.4-0.3l-1.1,0.3l-0.4-0.7l-1.3-0.6l-0.9-0.2l0.2-0.5l0.6-0.5l1.2-1.5l-0.2-0.1l-0.8,0.5
			l-0.7-1l-3-2.2l1.1-1.5l-0.4-0.8l0.8-0.7h1.5l2-1.4l0.2-0.7l-1.2,1l-1.3,0.8h-0.5l-0.7-0.3l-1,0.6l-0.4,0.7v0.4h-0.2l-0.7-2.1
			l0.2-1l-0.2-0.5l-0.6-0.9l-1.6-1.4l-0.6-0.7l-0.5-1.7l-1.6-0.7L447,733l0.8,0.5l1.2,1.2l-0.1,0.7l0.4,1.1l0.1,0.2l1.5,1l0.9,2.1
			l-0.1,0.4l-0.6,0.7l0.3,2.5l-0.2,1l-1,0.9l-1.5,0.3l-2-0.6h-1.4l-0.9-0.4l-0.6-0.7l-0.2-0.7l-3-1h-1.2l-1.6,1.7l-0.4,0.1l-1.3-0.3
			l-0.5-0.5l-0.4-0.7l-0.4,0.1l0.2,0.8l-1.9,1.3l-1.7,1.9l-0.2,1l-0.5,0.8l-1.8,1.5l-1.3,0.1l-2-0.5l-0.5-1.7l0.1-1.1l-0.3-0.1
			l-0.2,0.2l0.2,2.6l0.7,1.2l-1.2,0.8l-0.6,0.8l-0.2,1.4l0.1,0.7l-0.3,0.1l-2.7-2.8l-0.7-0.3l-1.4-3.4l-1.1-3.6l-1.6-3.8l-0.8-1.2
			l-0.7-0.7l-1.5-1.1l-6.1-2.4l-2.2-1.1l-1.6-0.9l-1.5-1.3l-3.2-2.3l-1.9-0.9l-1.3-0.5l-1.2-0.2l-2.4,0.1l-3.1-2.9l0.5-0.5v-0.5
			l-3.8-2.3l-1.6-0.5l-1.5-0.2h-2.2l-1.1,0.8h-0.3l-1-0.8l-2-2.7l-2.2-2.7l-3.8-3.6l-0.4-1.7l-0.6-0.8l-2.2-1.5l-1-0.5l0,0l1-0.2
			l0,0L366.5,707.5L366.5,707.5z M460.3,663.9l0.5,0.2l-0.1,0.4l0.4,0.5l0.4,2.1l0.4,0.7l0.3,1.1l0.5,0.3l-0.1,0.3l-0.3-0.1
			l-0.2,0.3l0.1,0.6l1,0.7l-0.1,0.8l-0.4,0.5l0.2,0.5l-0.2,0.9l-0.1,0.1h-1.8l-0.8,0.2l-0.4-0.1l-0.6-0.3l-1.6-1.5l0.1-0.7l-0.3-1.2
			l1-1.1l1.4-0.9l0.3-0.5l-0.3-1l-0.6-0.5v-0.6l0.4-0.6l0.1-0.9L460.3,663.9L460.3,663.9z"/>
		<path id="MY-02" class="st2" d="M217.6,478.8l0.1,0.5l-0.1,0.4l-0.5,1.2l-0.2,0.1v0.8l-0.2,0l-0.4-0.6l-0.3-0.9h-0.2l-0.3,0.6
			l-0.3-0.1l0.1-0.5l-0.4-0.5l-0.5-0.2l-0.1-0.6l-0.2-0.2l0.5-0.6l0.7-0.5l0.4-1l0.1-0.9l1.1-0.4l0.5-0.4v-0.2l0.5-0.3h0.3v1.1
			l-0.9,0.5l-0.1,0.6l0.1,0.4l0.1,0.1l0.4-0.8l0.6-0.4l0.9,0.9v0.4l-0.3,0.4l0.5,0.1v0.3l-0.4,1l-0.2,0.2l-0.2-0.7l-1,0.1l-0.2,0.2
			L217.6,478.8z M217.9,464.4l1,0.6l0.2,0.6l-0.2,0.2l0.1,0.5l2.1,1.3l0.3,0.7l0.1,0.6l0.5-0.3l0.1,0.2l0.1,0.4l-0.3,0.8l-0.3,0.3
			l0.1,0.3l0.7,0.7l-0.2,1.1l-0.6,0.1l-1.1,0.5v0.4l-0.1,0.2l-0.8,0.3v0.3h-0.2l-0.5-0.1l-0.2-0.4l0.2-0.2l-0.4-0.6l-0.4-0.2
			l-1.4,0.2l-0.6,0.3v0.4l-0.2,0.4l-1.5,1.3L214,475h-0.5l-0.4,0.2l0.1,0.4l-0.1,0.2l-0.8,0.6h-0.4l-0.1-0.2l0.2-0.5l-0.1-0.6
			l-0.9-1.5l0.5-0.9l-0.1-1.2l-0.4-0.8l-1,0.3l-0.6-0.2l-0.2-0.4l-1.2,0.4l-0.2-0.1l-0.3-0.5l-0.3-1.3l0.2-0.6l-0.2-1.8l0.5-0.1
			l1,0.6l0.4-0.1l0.2-0.5l0.6,0.2l0.9-0.2l1.2,0.3h0.3l-0.2,0.7l0.1,0.2h0.3l0.2-0.6l0.3-0.1l1.8,0.3l0.9-0.2l1.2-1.7l0.6,0.2
			l0.4-0.3l0.9,0.6l-0.3-0.9l-1.2-0.2v-0.2l0.4-0.5L217.9,464.4z M248.6,461.2l2.4,0.6l1.6-0.6l0.6,0.6l1.2-0.2l0.3,0.2l0.5,1.2
			l1.3,0.8l1.2,0.1l0.2-0.3l0.5-0.3l0.7,0.7l1.9,0.7l1.6,0.8l1.5,0.4l1.2-0.1l1.4-1l0.2-0.6l1.1-1.5h0.2l0.5,0.3v0.9l0.2,1l0.4,0.6
			l1.7,0.2l1.6,0.6l0.7,0.8l0.1,0.5l-0.2,1.2v2.4l0.5,0.5l0.6-0.6l0.3,0.2l0.1,2.3l-0.7,0.8l-0.1,0.5l1,2.5l0.4,0.2l0.4-0.2l0.4-0.8
			l0.3-0.2l1.4,0.9l0.8-0.4l1.1,0.1l0.4-0.3l1.3-1.8l0.4-0.1l0.6,0.3l0.6,0.9l0.8,0.7l0.4,0.2l4.1-0.4l0.9,0.5l0.1,0.2l-0.4,0.6
			l1.2,2.4l-0.4,0.5l-0.6,0.3l-1.8,0.5L287,482l-0.7,0.9l1.9,0.7l2.2,1.5l0.1,0.3l-0.1,0.2l-0.6,0.4l-0.3,0.9l-0.5,0.5l-0.2,0.4
			l0.5,0.9l-0.3,2.2l1.1,1.2l-1.6,1.9l-0.6,1l0.1,0.4l-0.2,0.4l-0.6-0.4l-1.1,0.1l-1.1-0.1l-0.6,0.3l0.2,0.6l-1.1,1.6v1.5l0.2,0.8
			L283,501l-0.7,0.4l0,0.5l0.2,0.6l0,0l0.1,0.2l-0.3,0.8h-0.5l-1.1-0.3h-0.2l-0.2,0.3l0.1,1.5l0.6,0.8l0.7,0.4l0.3,0.4v0.4l-0.5,1.5
			v1l-0.2,0.7l-0.6,0.2l-0.5-0.1l-0.3,1.2l-0.8,0.6l-0.1,0.3v0.8l0.6,0.7l0.1,1.3l0.3,0.5v0.4l-1.3,2.7l-0.8,0.4l-1-0.2l-0.4,0.3
			l-0.3,0.6l-0.4,1.1v1.6l-0.7,1.1l0.1,0.9l-0.6,2.6l-0.7,0.4l-1.2,1.4l-0.7-0.1l-0.9,0.3l-0.7-0.2l-1.5,0.3l-0.1,0.6l-0.4,0.5v1.4
			l-0.5,0.5l-0.7,0.2l-0.6,0.3l-0.2,0.1l-0.5-0.1l-0.1,0.1l-0.1,0.7l-1,1.5l0.3,0.5l-0.4,0.9l-0.3,0.2h-0.7l-0.5,0.5l-0.5,0.1
			l-0.9,2.1l-0.3,0.2l-1.2,0.1l-0.8,1.4l-0.7,0.7h-0.4l-0.6-0.5l-0.8,0.3l-1-0.4l-0.2-0.5l0.4-0.5V540l-0.4-0.4l-0.6,0.2l-0.2-0.6
			l0.5-0.7l0,0l1.3,0.2l1,0.4l0.2-0.3l-0.9-7v-1.7l-0.5-3.9l0.1-1.3l-0.1-0.9l0.2-4l-0.1-4.4l-0.4-0.3l-0.9-0.2l-1,0.5l-0.5,0.1
			l-0.7-0.1l-1.1-0.4l-1.6,0.1l-1.6-1l-0.9-0.1l-0.6,0.4h-1l0,0l-0.3-0.1L246,514l0.1-2.1l-0.2-2.1l0.9-1.5l-0.2-1.1l0.7-1.6
			l0.3-2.1l-0.1-3l-0.7-6.4l-0.4-2l-1.1-3.7l-0.8-1.3l-1.2-1l-0.4-0.5l-0.7-3.1l-1-2.1l-1.6-2.2l-1.7-1.1l0.1-0.2l0,0l0.3-1.2
			l0.5-0.8l2.2-2.3l0.6-0.9l1.3-1.2l1.2-2l2.4-1.8l1-1.2l0.1-0.3l0.2-4l0,0L248.6,461.2L248.6,461.2z"/>
		<path id="MY-03" class="st2" d="M344.2,477.4l2.8,1.9l1.6,0.4l0.3-0.3l-0.1-0.5l2-0.6l0.5,0.1l0.5,1.1l0.2-0.2l0.2-0.5l3.3,1.6
			l1.5,0.5l1.3,0.9l1.5,2.3l4.2,9.5l1,1.9l0.8,1.1l-0.4,0.4l0.1,0.7l1.4,1.1l0.5-0.3l1.4,1.1l0,0l-1.2,1.5l-1.3,1l-1.1,1.5l-2,1.6
			l-1,1.3l-2,1.8l0.1,1.6l0.7,2.3l0.1,2l0.5,1.7l-0.2,0.7l-0.6,1l-0.1,0.6v1.9l0.4,0.9l0.1,1.6l-0.9,0.6l0,0.4l0.2,0.3l1.8,1.2
			l0.6,0.9l0.6,0.2l0.2,0.2l-0.5,0.9l-0.1,1l-0.6,1.1l-0.1,0.6l-0.1,3.3l0.3,1.6l-0.4,2l1,0.2l2.9,1.4l0.5,0.7l1.1,0.7l0.7,1.4
			l-0.2,0.5l-0.8,0.3l-0.4,0.7l0.1,0.5l0.7,0.8l0.3,1.3l-0.8,1.7l0.6,2.3v0.5l-0.2,0.8v1.7l0.2,0.3l0.4,0.1l0.8-0.2l0.9,0.1l1.1,0.7
			l0.6,0.7l0.9,0.1l2.4,1.5l0.1,0.3l-0.1,1.3l0.4,0.6l0.6,1.8l-0.1,0.5l-0.4,0.5l0,0h-0.5l-1.7-0.9l-0.5,0.2l-0.5,0.5l-0.1,0.6
			l0.6,3.1l-0.6,0.2l-1-0.1l-0.4-0.1l-0.7-0.5h-0.6l-1.1,1.5l-0.8,0.7l-0.4,0.1l-0.4-0.1l-0.9-0.7l-1.1-1.3l-0.6-0.4l-0.7-0.2
			l-2.2-0.1l-1.9,0.4l-0.2,0.4l0.2,1.3l-2,2.3L357,567l-1.1-0.4l-0.9-0.7h-2.4l-0.3,0.2l-0.3,1.3l-0.4,0.1l-0.6-0.2l-1.3-1.3
			l-0.9-0.6l-0.3-1.2l-0.5-0.8l-1.7-1.2l-0.2-1.4l-0.7-0.8l-0.4,0l-0.7,0.2l-2,1l-0.6,0.5l-0.8-0.6l-0.8,0.4l-0.4-0.2l-0.5-0.7
			L339,560l-0.4,0.2l-0.3,0.8l-0.5-0.2l-0.5-0.7L337,560l-0.5,0.3l-0.4,0.6l0.2,2l-0.5,2.2l-1,1l-0.7,2.1l-0.3,0.1l-0.6-0.4
			l-0.2-0.4l0.1-1.1l-0.3-1.3l-0.6-0.5l-1.4-0.3l-0.2-0.2l-0.6-1.8l-0.2-0.2h-0.6l-0.4-0.5l0.3-0.9l-0.2-0.5l-0.5-0.3h-1.4l-0.5,0.5
			l-0.2,0.7v0.7l0.3,1l-0.4,1.5l0.2,1.2l-0.6,1.9l-0.7,0.7l-1-0.4h-0.3l-0.5,0.9l-1.4,0.4l-0.9,0.5l-0.6,1.3l-0.6,0.4h-0.6l-0.9,0.4
			l-1.3-0.6l-0.7,0.5l-0.4-0.2l-0.6-0.8l-1-0.3l-1.5-1.8l-0.7-0.2l-1.3,0.2l-0.5,0.4l-0.7,1.1l-0.6,0.3l-1.3-0.7l-1.9-1.5l-1.3,0.3
			l0,0l-0.8-1l-1.1-2l-0.5-0.6l-0.3-0.5v-0.8l0.5-0.7l1.1,0.2l1-0.2l0.1-0.4l-0.5-2.1l0.2-0.3l1-0.3l0.9-2.2l0.1-0.3l-0.4-1.2
			l0.1-0.6l0.5-0.5l1.8-0.5l-0.6-0.5l0.1-0.4l0.6-0.5l0.2-0.8l-0.3-1.6v-1.2l-1.2-1l0-0.6l1.2-1.2l0.1-0.3l-0.2-0.4l0.6-0.8l0.4-2
			l1.1-1l-0.1-1.1l0.3-1.4l-0.1-0.8l0.2-0.6v-0.8l0.3-0.8l0.9-1.1l-0.1-1.1l0.9-1.2l-0.3-1l0.1-0.5l0.2-0.2l0.8,0.1l0.8-0.8l0.8-0.3
			l0.2-1.5l0.2-0.4l0.8-0.5l0.3-1.4l0.3-0.3l0.8,0.2l1.1,1.3l2.5,0.7h0.6l0.7-0.3l0.4-0.4l1.1-0.3l1-1.5v-0.6l-0.4-0.7l-0.1-0.6
			l0.4,0.4l2.8,2.2h2.2l2.6,0.3l1.2-0.1l0.6-0.5l2.6-2.7l0.1-0.4l-0.3-1.3l0-0.5l0.5-0.4l0.6-0.1l0.7-1v-0.3l-0.4-0.7l0.5-2.2
			l-0.9-0.3h-0.8l-0.1-0.3l0.4-1.9v-0.7l-0.4-0.6l-1-0.5l0.3-0.9l0.9-0.3l0.2-1.1l0.4-0.4l0-0.4l-0.8-1l-0.2-0.6v-0.4l0.5-0.5
			l0.1-0.5l-0.4-0.2l-0.5,0.4h-0.4l-0.5-0.9l-0.8-0.2l-0.2-0.7l-1.4-0.9l-0.2-0.5l-0.3-1.4l-0.7-1l0,0l-0.1-0.5l0.4-0.9l0.8-0.3h1.1
			l1.3-1.3l0.1-0.6l-0.5-1.5l-0.6-0.3l-0.1-0.4l0.5-1v-0.8h0.4l0.3-0.3v-1.5l0.2-0.3l1.5-1.1v-0.8l0.9-1l1.6-0.9l1.5-1.2l0.6-0.2
			l0.4-1.3l0.9-1l0.3-0.9l0.6-0.6l-0.8-1.4l-0.1-1.1l0.2-1.9l0.8-0.9L344.2,477.4z"/>
		<path id="MY-04" class="st2" d="M337.4,692.8l1.5-0.7l0.5-0.8l1.3-1l0.1-0.5l1,0.2l0.5-1.2l0.8-0.5l2,0.2l0.2-0.2h2l1.3-2l0.8,0.2
			l1.9,1.2l1.3,0.3l2.1-0.1l3.2-1.2l1.3-0.2l2.1,0.5l0.9,0.5l0.7,0.7l0.6,0.2l3.6,0.8l3.5,1.3l1.5-0.1l0,0l-0.2,0.8l-2.5,1l-0.1,0.9
			l-1.3,1l-0.8,4.4l-0.3,0.6v2.3l-0.3,0.4l-0.8,0.5l-0.1,0.4l0.2,0.7l2.1,0.7l0.7,0.6l0.1,0.4l-0.1,1.3l-0.9,0.5l0,0l-1.5,0.4l0,0
			l-1,0.2l0,0l-1.7-0.3l-2-1.1l-1.8-0.1l-1.5-1l-1.4-0.3l-0.7-0.6l-3.4-1.1l-2.8-1.8l-1.1-0.2l-0.7,0.3h-0.5l-0.8-1.5l-1.1-1.4
			l-1.5-0.9l-0.8-0.7L343,696l-0.7-1.1l-2.4-1.4l-0.8-0.2h-1.4L337.4,692.8L337.4,692.8z"/>
		<path id="MY-05" class="st2" d="M334.4,643.9l0.1-0.5l0.2-0.3l0.7-0.4h0.4l0.4,0.4l1,0.1l0.3,0.5l0.4,1.2l0.5,0.5l2.1,0.1l0.7,0.2
			l0.4,0.7l0.1,1l0.4,1.2l0.5,0.4l0.6-0.1l0.8-1l0.9-0.1l0.5-0.6l0.4,0.1l0.8-0.1l1.1,1.2l0.3,0.2l6.7,2l5.8,1.3l0.3,0.2l3.5,4.4
			l0.4,0.8l0.5,0.2l10.1,6.8l1.4,0.2l0.3,0.2l0.9,3l0,0l-3.9,10.9l0.1,0.7l0.6,1l-0.1,0.4l-1,0.5l-0.1,0.6l-0.5,0.8l-0.1,1.3
			l0.3,1.3l-0.5,1l0.3,1.2l-0.1,0.5l-0.9,0.7l-0.3,0.4l-0.1,1.5l0,0l-1.5,0.1l-3.5-1.3l-3.6-0.8l-0.6-0.2l-0.7-0.7l-0.9-0.5
			l-2.1-0.5l-1.3,0.2l-3.2,1.2l-2.1,0.1l-1.3-0.3l-1.9-1.2l-0.9-0.2l-1.3,2h-2l-0.2,0.2l-2-0.2l-0.8,0.5l-0.6,1.2l-1-0.2l-0.1,0.5
			l-1.3,1l-0.5,0.8l-1.5,0.7l0,0l-0.1-0.4l0.2-0.3l-0.2-0.6l-0.9-0.2l-0.4-0.3l-0.3-0.6L335,690h-0.5l-1.3,0.5l-0.8-0.2h-0.9
			l-0.4,0.2l0,0.6h-0.2l-0.3-0.4l0.5-0.5l0.1-0.9l-0.8-2.9l-1.4-1.8l-0.5-0.1l-0.4,0.2l-0.7-0.1l-0.1-0.5l0.5-0.6l-0.2-1.8l-0.9-0.9
			l-1.4-0.7h-0.7l-0.8,0.5l-0.8-0.1l-0.1-0.2l0,0l0.1-0.4l1.2-0.4l-0.1-1.2l0.9-0.8l-0.2-0.8l0.5-0.7l0.2-0.7l0.2-1.8l-0.7-8.5
			l6.8,0.2l0.9-1.1l2-4.6l0.9-1.5l0.1-0.8l1.5-0.9v-0.9l-1.2-2.7l0.1-0.7l0.6-1.1v-0.6l-0.7-1.4l-0.2-1.2v-1.4l-0.7-1.1l-0.1-1.2
			L334.4,643.9L334.4,643.9z"/>
		<path id="MY-06" class="st2" d="M304.6,568.5l1.3-0.3l1.9,1.5l1.3,0.7l0.6-0.3l0.7-1.1l0.5-0.4l1.4-0.2l0.6,0.2l1.5,1.8l1,0.3
			l0.6,0.8l0.4,0.2l0.7-0.5l1.3,0.6l0.9-0.4h0.6l0.6-0.4l0.6-1.3l0.9-0.5l1.4-0.4l0.5-0.9h0.3l1,0.4l0.7-0.7l0.6-1.9l-0.2-1.2
			l0.4-1.5l-0.3-1v-0.7l0.2-0.7l0.5-0.5h1.4l0.5,0.3l0.2,0.5l-0.3,0.9l0.5,0.5h0.6l0.2,0.2l0.5,1.8l0.2,0.2l1.4,0.3l0.6,0.5l0.3,1.3
			l-0.1,1.1l0.2,0.4l0.6,0.4l0.3-0.1l0.7-2.1l1-1l0.5-2.2l-0.2-2l0.4-0.6l0.5-0.3l0.3,0.2l0.5,0.7l0.5,0.2l0.3-0.8l0.4-0.2l0.2,0.7
			l0.5,0.7l0.4,0.2l0.8-0.4l0.8,0.6l0.6-0.5l2-1l0.7-0.2h0.4l0.7,0.8l0.2,1.4l1.7,1.2l0.5,0.8l0.3,1.2l0.9,0.5l1.2,1.2l0.6,0.2
			l0.4-0.1l0.3-1.3l0.3-0.2h2.4l0.9,0.7l1.1,0.4l0.8-0.2l2-2.3l-0.2-1.3l0.2-0.4l1.9-0.4l2.2,0.1l0.7,0.2l0.6,0.4l1.1,1.3l0.9,0.7
			l0.4,0.1l0.4-0.1l0.8-0.7l1.1-1.5h0.6l0.7,0.5l0.4,0.1l1,0.1l0.6-0.2l-0.6-3.1l0.1-0.6l0.4-0.5l0.5-0.2l1.7,0.9h0.5l1.7,2.4l1,0.5
			l1.1,1.2l3.1,0.7l1.7-0.2l1.9,0.2v0.3l1.1,0.9l0.3,1.2l0.9,1.1l-1.4,0.6v0.2l0.5,0.6l-0.3,0.9l-1.3,0.3l0.1,1.8l0.6,1.8l0.7,0.5
			l0.5,0.9l0.6,0.4h2.2l1.5-0.7l1,0.2l1.2,1.1l0.7,1l0.7,1.6l0.2,0.8l-0.8,1l-0.3,0.8l0.1,0.8l0.4,0.6v0.3l-0.4,0.3l-1-0.2l-0.9,0.3
			l-0.4,0.7l-0.3,1.2l-1.4,1.3l-0.1,0.6l0.2,1l-0.8,1.2l-0.1,0.5l0.4,1.8v0.6l-0.1,0.4l-1,1l-0.2,0.5l0.1,0.5l0.8,0.9l1.3,0.7
			l1.6-0.9l1.5-0.6l1.4,0.6l1.1-0.1l1.4,0.2l1,1l1.5,0.3l1.4,1.8l1.4,0.8l0.5,0.7h0.7l1.1-0.4h0.2l0.3,0.8l0.4,0.4h0.4l1-0.3
			l0.3,0.2l0.1,1.1l1.9,1.7l-0.4,0.5l0.1,0.5l1.4,2l0.4,1h0.3l0.6-0.3l-0.5-0.9V607l1.2-1l0.2-1v-0.5l-0.6-2v-2.6l-0.4-0.5l-0.8-0.5
			l-0.3-0.6l0.3-1.9l0.8-1l0.3-1l-0.5-2.9l0.2-0.1l0.7,0.8l0.6,0.3l1,0.2l4.3-0.6l0,0v0.2l-0.5,0.3l-0.6-0.2l-0.5,0.2l-0.3,0.6
			l-0.1,1.5l-1.3,1l-0.1,0.7l0.1,1.2l0.6,2.5l1.5,3.1l0.9,1.2l-0.4,0.4l-1.4-0.7l-0.4,0.1l-0.8,0.8l-1.1,1.9l-0.1,2l0.7,3.4
			l-0.3,0.3l0.1,0.6l-0.1,0.2l-0.8-0.5l-0.9,0.1l-0.8,2l-0.1,1.8l0.8,2.2l1.7,2.9l3.8,4.8l1,1l0.8,0.5l0.4,1.5v0.4l-0.2,0.4l-1,0.8
			l-0.6,1l-0.8,2.6l-0.3,2.8l0.1,2l0.8,3.5l0.4,2.9l-0.2,2.3l0.3,2.3l-0.1,1.2l-0.4,0.4l-0.2,1.3l-0.2,3l0.1,1.7l-0.4,1.7l0.3,2.1
			l0.5,1.7l0.8,1.6l4,5.1l5.1,4.7l0.5,0.8l0,0l-0.1,0.5h-0.4l-0.9-0.3l-0.6,0.2l-0.3,0.4l0.1,0.9l0.3,0.4h0.6l0.3-0.9v0.8l0.4,0.3
			l-0.2,0.2v0.4l0.3,0.6l-0.3,0.2l-0.1,0.5l0.4,0.4l-0.8,0.1l-0.4,0.4l0.1,0.5l0.2,0.1l0.5-0.4l0.1,0.6l-0.4-0.1l-0.9,0.4l-0.2,1.3
			l0.4,0.3l1.1-0.3l0.2,0.1v0.8l0.5,0.7v0.7l0.4,0.4l-0.7,1h-0.3l-0.4-0.3l-0.5,0.4l-0.8-0.2l-6.1-3.1l-1.4-1.7l-1.9-0.3l-3.4-1.9
			l-1,0l-3.4,0.8l-7.1,2.9h-0.4l-9.7-4.1l-9.8-11.4l-5.2-1.5l0,0l-0.9-3l-0.3-0.2l-1.4-0.2l-10.1-6.8l-0.5-0.2l-0.4-0.8l-3.5-4.4
			l-0.3-0.2l-5.8-1.3l-6.7-2l-0.3-0.2l-1.1-1.2l-0.8,0.1l-0.4-0.1l-0.5,0.6l-0.9,0.1l-0.8,1l-0.6,0.1l-0.5-0.4l-0.4-1.2l-0.1-1
			l-0.4-0.7l-0.7-0.2l-2.1-0.1l-0.5-0.5l-0.4-1.2l-0.3-0.5l-1-0.1l-0.4-0.4h-0.4l-0.7,0.4l-0.2,0.3l-0.1,0.5l0,0l-1.1-0.6h-1.6
			l-2.9-1.6l-2.1-3l-0.2-0.5l-1-0.7l0.4-1.5l1-0.8l0.2-0.6l-0.5-2.1l-1.1-2.2l1.3-2.4l1.1-0.4l0.2-0.2V626l0.4-0.8v-0.7l-0.2-0.4
			l-1-0.9l-0.3-0.4l-0.3-1.3l-0.6-1l-1.7-1.4l-0.7-0.4l-1.5,0.1l-1.1-0.2l-1.6-1l-1.8-2.3l0,0l-0.5-1l-1.4-0.6l0.1-1.9l0.6-0.7v-0.5
			l-0.4-1.5l-1.1-1l0-1.7l-0.2-0.6l0.2-0.8l-0.1-2.1l-0.1-0.4l-0.7-0.6l-0.2-0.5l0.2-1l1.2-1.7V598l-0.7-0.9l-2.1-1.4h-1l-0.4-0.3
			l-0.6-2.2l0.6-1.9v-0.4l-2.2-0.2l-0.4-0.2l-0.3-0.4l-0.2-0.9l0.6-0.7l-0.9-1.2l-0.1-0.4l0.3-0.8v-1.3l-0.1-0.3l-0.8-0.6l-0.2-0.4
			l0.8-1.8l-0.2-0.4l-0.6-0.4l-1.1-0.2l-0.8-0.5l-1.9,0.4l-0.3-0.2l-0.1-0.9l-0.2-0.5l-0.5-0.3h-0.4l-0.1-0.3l0.2-0.7l0.8-0.5
			l0.4-0.6l0.4-1.5l0.8-0.3l0.4-0.5l-0.1-0.5l-1-0.5l-0.4-0.5l-0.3-2.7l0.1-0.6l0.5-0.5l0.5-0.4L304.6,568.5z"/>
		<path id="MY-07" class="st2" d="M242.4,520l0.6,0.6l0.4-0.1l0.9,0.2l0.2,0.6v0.9l1,0.7l0.9,0.2l-0.1,0.5l-1.6,1.7l-0.1,1.8
			l-1.8,4.6l0.1,0.5l-0.2,0.2h-0.3l-0.4-0.8l-0.4-0.3h-0.6l-1.2-0.4l-0.6,0.3l-1.5,0.1l-0.2,0.3v0.5l-0.4-0.8l0.3-0.9l-0.1-0.5
			l0.4-0.2h0.4l-0.1-0.8l0.1-0.9l-0.5-1.6l-0.1-1.2v-2.1l-0.2-0.7l0.2-0.7l-0.1-0.6l-0.4-0.3v-0.2l0.2-0.2l0.4,0.4l1.3,0.6l1.5-0.3
			l1-1L242.4,520z M246.5,514.4h1l0.6-0.4l0.9,0.1l1.6,0.9l1.6-0.1l1.1,0.4l0.7,0.1l0.5-0.1l1-0.5l0.9,0.2l0.4,0.3l0,4.4l-0.2,4
			l0.1,0.9l-0.1,1.3l0.4,3.9v1.7l0.9,7l-0.2,0.3l-1-0.4l-1.3-0.2l0,0h-0.4l-0.5,0.5l-0.5,0.1l-4.2,0.4l-0.7-0.1l0,0l0.1-0.3l0.9-0.7
			l0.9-1.1v-0.3l-0.3-0.2l0.4-2.6l-0.8-2.6l0.4-0.4v-0.5l-0.4-1.5l-0.5-0.4l0.1-0.9l-2.3-2.8l-0.1-0.7l0.7-1.4l0.3-2.2l-0.5-3.4
			l-0.5-1.4l-0.4-0.6l-0.9-0.7v-0.2L246.5,514.4z"/>
		<path id="MY-08" class="st2" d="M261.5,566.3l2.7,2.3l-0.2,0.6h-0.3l-0.3,0.3l0.2,1.4l-0.7,0.1l-0.9,0.5l-0.5,0.1l-1.3-0.5h-0.4
			l-0.1-0.2l0.3-1.2l-0.1-0.8l0.3-0.8l0.7-1.2L261.5,566.3z M261.7,560.2l2.2,1l0.4,1l-1.4,2.6l-0.1,0.1l-0.8-0.2l-0.7,0.1l-0.9,0.4
			l-0.9-2.6l-0.2-1.4l0-0.6l0.4-0.8l0.8,0.3L261.7,560.2z M315.6,494.5l2.3,2l0.7,1.1l1.5,0.4l0.1,0.4v2.7l0.4,0.8l1.2,1.1l0.5,1.2
			l0.3,0l0.3-0.4l0.2-0.9l0.4-0.3l0.6-0.1l0.7-0.5l0.6-0.1l0.4,0.2l1,1.8l1,1l0.7,0.5l0.5,0l-0.1-1.5l0.5-1.3l1-0.1l1.1-1l0.7-0.3
			l0,0l0.7,0.9l0.3,1.4l0.3,0.4l1.4,0.9l0.2,0.7l0.8,0.2l0.5,0.9h0.4l0.5-0.4l0.4,0.2l-0.1,0.5l-0.5,0.5v0.4l0.2,0.6l0.8,1l0.1,0.4
			l-0.4,0.4l-0.2,1.1l-0.9,0.3l-0.3,0.9l1,0.5l0.4,0.6v0.7l-0.4,1.9l0.1,0.3h0.8l0.9,0.3l-0.5,2.2l0.3,0.7v0.3l-0.7,1l-0.6,0.1
			l-0.5,0.4v0.5l0.3,1.3L337,524l-2.5,2.8l-0.6,0.5l-1.2,0L330,527h-2.2l-2.9-2.2l-0.3-0.4v0.6l0.4,0.7v0.5l-1,1.5l-1.1,0.3
			l-0.4,0.4l-0.7,0.3h-0.6l-2.5-0.7l-1.1-1.3l-0.8-0.2l-0.3,0.3l-0.3,1.4l-0.8,0.5l-0.2,0.4l-0.2,1.5l-0.8,0.3l-0.7,0.8l-0.8-0.1
			l-0.2,0.2l-0.1,0.4l0.3,1l-0.9,1.2l0.2,1l-0.9,1.1l-0.4,0.8v0.8l-0.2,0.6l0.1,0.8l-0.3,1.4l0.2,1.1l-1.1,1l-0.4,2l-0.6,0.8
			l0.2,0.4l-0.1,0.3l-1.2,1.2l0.1,0.6l1.2,1v1.2l0.3,1.6l-0.2,0.8l-0.6,0.5l-0.1,0.4l0.5,0.5l-1.8,0.5l-0.5,0.5l-0.1,0.6l0.4,1.2
			l0,0.3l-0.9,2.2l-1,0.3l-0.2,0.3l0.6,2.1l-0.2,0.4l-1,0.2l-1.1-0.2l-0.4,0.7v0.8l0.3,0.5l0.5,0.6l1.1,2l0.8,1l0,0h-0.8l-0.5,0.4
			l-0.5,0.5l-0.1,0.6l0.3,2.7l0.4,0.5l1,0.5l0.1,0.5l-0.4,0.5l-0.8,0.3l-0.4,1.5l-0.4,0.6l-0.8,0.5l-0.2,0.7l0.1,0.3h0.4l0.5,0.3
			l0.2,0.5l0.1,0.9l0.3,0.2l1.9-0.4l0.8,0.5l1.1,0.2l0.6,0.4l0.2,0.4l-0.8,1.8l0.2,0.4l0.8,0.6l0.1,0.3v1.3l-0.3,0.8l0.1,0.4
			l0.9,1.2l-0.6,0.7l0.2,1l0.3,0.4l0.4,0.2l2.2,0.2v0.4l-0.6,1.9l0.6,2.2l0.4,0.3h1l2.1,1.4l0.7,0.9v0.8l-1.2,1.7l-0.2,1l0.2,0.5
			l0.7,0.6l0.2,0.4l0.1,2l-0.2,0.8l0.2,0.6l0,1.7l1.1,1l0.4,1.5v0.4l-0.6,0.7l-0.1,1.9l1.5,0.6l0.5,1.1l0,0l-1.4-0.1l-0.2,0.4
			l0.3,0.5l-0.1,0.6l-0.4,0.5l-0.4-0.2l-0.4,0.3L315,618l0.2,0.6l-0.2,0.5l-0.6,0.3l-0.6,0.1l-0.6,1.1l-0.8,0.2l-0.7-0.2l-1.9-1.8
			l-1.7-0.7l-0.3-1.1l-0.3-0.2l-1-0.4l-1.5-1l-0.5,0.1l-0.2-1.2l-0.6-0.5l-0.9-0.1l-0.6,0.3l-0.5,0.1l-0.1,0.4l-0.5,0.7l1.1,3v1.3
			l-0.5,0.3l-1.1,0.3l-0.5,0.6h-0.8l-1,0.4l-1.2-0.2l-0.5-0.2v-1.6l0.2-0.8h-0.2l-1.6,0.6l-0.7-0.5l-0.4-0.1l-1.2,0.3l-0.7-0.9
			l-0.3-0.8l-0.1,0.1l-0.1,0.6H291l-0.4-0.2l0.4-0.7l-0.5-0.6l-0.7,1.1l-0.5-0.1l-0.3,0.6h-0.2l-0.6-0.6l-0.9,0.8l-0.2-0.2v-0.2
			l0.3-1.5l0.3-0.1l0.7,0.3l0.2-0.1l-0.6-0.5v-0.7l-0.1-0.1l-1.2,1.4h-0.4l-0.2-1.3l0.1-0.7l-1.5,0.6l-0.1-0.3l0.1-0.6l-0.2-0.2
			l-0.3-0.1l-1.2,0.1l-0.5,0.3l-0.2,0.9l-0.3,0.4l-0.8-0.1l-0.3-0.3l-0.2-0.8l0.2-0.5l0.6-0.5l0.1-0.4l-0.3-0.3l-1.3-0.4l-0.3-0.3
			l0.1-1.5l-0.2-0.2l-1.9,0.6l-4.2,0.4l-0.4,0.3l-0.3,1.5l-0.4,0.5l0,0l0.5-2.2v-0.8l-0.9-0.1l-0.8,0.2l-0.7,0.5l-1.2-0.3l-2.2-1.5
			l-0.5-1.8l-0.2-2.5l0.2-2l0.2-0.5l0.3-0.2h0.8l1.8-0.7l0.4-1.5l-0.3-2.2l-0.7-1l-0.8-0.5l-1.5-2l-0.7-0.5l-1.8-0.6h-1.5l-0.6,0.8
			l-0.6-0.4l-0.2-0.8l-0.5-0.6v-0.4l0.4-0.3v-0.6l-0.8-0.7l-0.3-1l0.9,0.1l1,0.4l0.9-0.3l0.5-0.4l0.5-0.5l0.4-0.7l-0.1-0.8l0.4-1.2
			l-0.1-0.9l-0.5-0.2l0.1,0.5l-0.4,1.6l0,1.2l-0.9,0.8l-1.7-0.2l-0.9-0.3l-0.2-2l-0.6-1l-0.1-0.1l-0.8,0.1l0.1-0.6l0.4-0.6l1-2.4
			l0.1-2.1l-0.3-0.2l0.5-0.8l0.2,0.4l0.6-0.1l0.4-0.8l0.3-1.8v-2.2l0.2-0.8l1.4-1.1l0.7-1.5l-0.3-1.1l0.5-0.3l0.1-0.5l-2.3-2.3
			l2-1.9l0.8-2.5l-0.4-0.9l-1.2-0.8l-1.6-0.5l-0.2-0.2l0.1-0.7l0.5-0.3l0.3-0.5l-0.3-0.8l0.3-1.1l-0.3-0.4l-1.2-0.3h-0.9l-0.6-1H259
			l-0.6,0.3l-0.6-0.3l-0.1-0.7l0.3-0.2l0-0.3l-0.9-0.5l0.1-0.3l0.1-0.1h0.3l0.7,0.7h0.3l0.5-0.3l0.3-0.3l-0.1-0.9l0.2-0.2l-0.2-0.3
			l-0.4-0.2l-0.8,0.5l-0.5-0.8H257l-0.3,0.3l0.3,0.8h-0.2l-0.4-0.3l-0.2,0.2v0.2l0.4,0.5l-0.2,0.2l-0.4-0.7l-0.4-0.3l-2-0.7
			l-1.3,0.7h-0.3l-0.7-0.9l-0.5-1l-0.1-2.3l-0.1-0.2l-0.6,0.3l-0.2-0.2l-0.5-1.2l-0.3-1.2l-0.3-0.5l-0.1-0.5l-0.5-1l-0.7-0.8v-0.4
			l0.3-0.5l1-0.6l0.3-1l0,0l0.7,0.1l4.2-0.4l0.5-0.1l0.5-0.5h0.4l0,0l-0.5,0.7l0.3,0.6l0.6-0.2l0.4,0.4v0.2l-0.4,0.5l0.2,0.5l1,0.4
			l0.8-0.3l0.6,0.5h0.3l0.7-0.7l0.8-1.4l1.2-0.1l0.3-0.2l0.9-2.1h0.5l0.5-0.5h0.7l0.3-0.2l0.4-0.9l-0.3-0.5l1-1.5l0.1-0.7l0.1-0.1
			l0.4,0.1l0.2-0.1l0.5-0.4l0.7-0.2l0.5-0.5v-1.4l0.4-0.5l0.1-0.5l1.5-0.3l0.7,0.2l0.9-0.3l0.7,0.1l1.3-1.3l0.7-0.4l0.6-2.6
			l-0.1-0.9l0.7-1.1l0-1.6l0.4-1.1l0.3-0.6l0.4-0.3l1,0.2l0.8-0.4l1.3-2.7v-0.4l-0.3-0.5l-0.1-1.3l-0.6-0.7v-0.8l0.1-0.3l0.8-0.6
			l0.3-1.2l0.5,0.1l0.6-0.2l0.2-0.7v-1l0.5-1.5l-0.1-0.4l-0.3-0.4L281,506l-0.6-0.8l-0.1-1.5l0.1-0.3l0.2,0l1.1,0.3h0.5l0.3-0.8
			l-0.1-0.2l0,0l1.5,1l0.8,1.4l0.3,0.1l1.2-0.1l0.4,0.3l2.5,3.4l0.8,1.4l0.5,1.1l0.1,1.2l1.3-0.9l0.9-1l1.2-0.3l0.6-0.4l1.4-1.7
			l1.4-1.3l0.2-1l-0.6-1.6l0.8-2l1-1.1l0.4-0.2l0.3,0.1l1.2,0.7l1.6-0.6l1.3-0.9l1.4-2.2l0.9-0.2l3.4,0.2l0.8-0.2l3.1-2.3l1.4-0.3
			l1-0.6L315.6,494.5z"/>
		<path id="MY-09" class="st2" d="M238.6,450.4l0.5,0.2l1.1,1.5l1-0.2v-0.5l0.2-0.2l0.2,0.3v0.6l0.6,0.1v-0.3l0.3-0.6h0.9v1.2
			l0.4,0.7l1.2,0.7l-0.1,1.2l0.2,1.3l-0.7,0.5v0.3l2.3,1.9l0.3,1.3l0.7,0.5l0,0l-0.2,4l-0.1,0.3l-1,1.2l-2.4,1.7l-1.2,2l-1.3,1.2
			l-0.6,0.9l-2.2,2.3l-0.5,0.8l-0.3,1.2l0,0l-0.5-0.4l-0.9-1.6l-1.9-5.3l-0.5-0.6l-0.1-0.5l0.1-0.8l1.2-1.9l-0.1-0.3v-0.5l0.8-1
			l-0.3-3.7l0.2-1.3l0.1-0.1l0.3,0.3l0.9,0.1l0.2-0.3l-0.9-2l-0.2-1l0.4-1l0.4-0.3l-0.2-0.8l0.1-0.6l-0.4-0.2l-0.1-0.6l0.5-0.3
			l0.4-1L238.6,450.4z"/>
		<path id="MY-10" class="st2" d="M272.3,613.4l0.4-0.5l0.3-1.5l0.4-0.3l4.2-0.4l1.9-0.6l0.2,0.2l0,1.5l0.3,0.3l1.3,0.4l0.3,0.3
			l-0.1,0.4l-0.5,0.5l-0.2,0.5l0.2,0.8l0.3,0.3l0.8,0.1l0.3-0.4l0.2-0.9l0.5-0.3l1.1-0.1l0.3,0.1l0.2,0.2l-0.1,0.6l0.1,0.3l1.5-0.6
			l-0.1,0.7l0.2,1.3h0.4l1.2-1.4l0.1,0.1v0.7l0.6,0.5l-0.2,0.1l-0.7-0.3l-0.3,0.1l-0.3,1.5v0.2l0.2,0.2l0.9-0.8l0.6,0.6h0.2l0.3-0.6
			l0.6,0.1l0.7-1.1l0.5,0.6l-0.4,0.7l0.3,0.2h0.5l0.1-0.6l0.1-0.1l0.3,0.8l0.8,0.9l1.2-0.3l0.4,0.1l0.7,0.5l1.6-0.6l0.2,0.1
			l-0.1,0.8v1.6l0.5,0.2l1.2,0.2l1-0.4h0.8l0.5-0.5l1.1-0.3l0.5-0.3v-1.3l-1.1-3l0.5-0.7l0.1-0.4l0.5,0l0.6-0.3l0.9,0.1l0.6,0.5
			l0.2,1.2l0.5-0.1l1.5,1l1,0.4l0.3,0.2l0.3,1l1.7,0.7l1.9,1.8l0.7,0.2l0.8-0.2l0.6-1.1l0.6-0.1l0.5-0.3l0.2-0.5l-0.2-0.6l0.4-0.8
			l0.4-0.3l0.4,0.2l0.4-0.5l0.1-0.6l-0.4-0.5l0.2-0.4l1.4,0.1l0,0l1.8,2.3l1.6,1l1.1,0.2l1.5-0.1l0.7,0.4l1.6,1.6l0.6,1l0.3,1.3
			l0.3,0.4l1,0.9l0.2,0.4l0,0.7l-0.4,0.8v1.2l-0.2,0.2l-1.1,0.4l-1.3,2.4l1.1,2.2l0.5,2.1l-0.2,0.6l-1,0.8l-0.4,1.5l1,0.7l0.2,0.5
			l2.1,3l2.9,1.6h1.6l1.1,0.6l0,0l0.7,0.4l0.1,1.2l0.7,1.1v1.4l0.2,1.2l0.7,1.4v0.6l-0.6,1.1l-0.1,0.7l1.3,2.8v0.9l-1.5,0.9
			l-0.1,0.8l-0.9,1.5l-2,4.6l-0.9,1.1l-6.8-0.2l0.7,8.5l-0.2,1.8l-0.2,0.7l-0.5,0.7l0.2,0.8l-0.9,0.8l0.1,1.2l-1.2,0.4l-0.1,0.4l0,0
			v0.2l-0.9,0.1l-0.4-0.3l-0.3-0.5l-0.7-0.4l-2.4-0.8l-1-0.1l-1.8-1.1l-2.2-0.5l-2.3-1.2l-0.8-0.2l-1.2-1.2l-1.9-3.6l-1-0.8
			l-0.3-0.5l0.6-0.6l0.1-1l-0.3-0.5l0.2-0.7l0.5-0.2l0.1-0.8l1.1-0.1l0.1-0.7l0.4-0.5l-0.1-0.5l-0.8-0.2l-0.4-0.4l-0.3,0.2l0.4,0.5
			l-0.3,0.4v0.6h-0.2l0-0.5l-0.5-0.4l0.5-1h0.4l0.1-0.2l-0.4-0.8h-0.9l-0.1-0.3l0.6-0.3l0.4-0.5l0.8-0.3l0.1-0.4l-0.9-0.7H306
			l-0.3,0.3l-0.2,1l-0.9,0.9l-0.1,1.2l-0.2,0.5l-0.5,0.2l-0.7-0.7v-0.5l0.3-0.6l0.3-1.1l0.7-0.8l0.6-0.4l0.2-0.5l-0.3-0.8l-1.4,0.1
			l-0.5-0.7l0.3-2.7L303,654l-1-1.2l-1.1-1l-0.4-0.8l-0.5-4.8l-0.6-2.4l-0.6-1l-1-1.4l-1.3-1l-2-1.3l-0.9-0.4l-0.6-1.7l-1.8-2.8
			l-1.1-1.2l-1.5-2.3l-0.8-2.3l-1.3-3l-1.3-1.9l-1-1l-1.7-1.3l-2.8-0.8l-1.2-2.8l-1.1-1.3l-2.1-1.3l-0.8-0.2H273l-0.4-0.4
			L272.3,613.4L272.3,613.4z"/>
		<path id="MY-11" class="st2" d="M370.3,500.3l2.1,1.2l1.8,1.5l1.2,1.8l2,2.4l2.1,1.9l1.8,0.9l2.2,1.7l2.7,2.7l2.6,1.6l1.4,0.7
			l0.9,0.2l0.8-0.4l1.4,0.9l0.9,0.7l6.6,6.5l2.4,3.4l2.1,3.6l-0.2,0.8l0.7,1.4l1.8,2.7l3.1,6.5l3.7,6.8l4.2,7.2l0.8,1.9l-0.9,0.4
			l-0.1,0.4l1.6,4.4l-0.6,2.5l1,2.8l0.6,1.4l0.5,2.1l-0.5,0.7l-1.1,0.8l-0.2,1.7l0.7,2l-0.1,2.1l0.6,1.5l1.5,2.6l-1.2,3.8l-0.6,1
			l-1,0.5l-0.2,0.8l0.3,1.7l0,0l-4.3,0.6l-1-0.2l-0.6-0.3l-0.7-0.8l-0.2,0.1l0.5,2.8l-0.3,1l-0.8,1l-0.3,1.9l0.3,0.6l0.8,0.5
			l0.4,0.5v2.6l0.6,2v0.5l-0.2,1l-1.2,1v0.3l0.5,0.9l-0.6,0.3h-0.3l-0.4-1l-1.4-2l-0.1-0.5l0.4-0.5l-1.9-1.7l-0.1-1.1l-0.3-0.2
			l-1,0.3l-0.4,0l-0.4-0.4l-0.3-0.8h-0.2l-1.1,0.4h-0.7l-0.5-0.7l-1.4-0.8l-1.4-1.8l-1.5-0.3l-1-1l-1.4-0.2l-1.1,0.1l-1.4-0.6
			l-1.5,0.6l-1.6,0.9l-1.3-0.7l-0.8-0.9l-0.1-0.5l0.2-0.5l1-1l0.1-0.4v-0.6l-0.4-1.8l0.1-0.5l0.8-1.2l-0.2-1l0.1-0.6l1.4-1.3
			l0.3-1.2l0.4-0.7l0.9-0.3l1,0.2l0.4-0.3v-0.3l-0.4-0.6l-0.1-0.8l0.3-0.8l0.8-1l-0.2-0.8l-0.7-1.6l-0.7-1l-1.2-1.1l-1-0.2l-1.5,0.7
			h-2.2l-0.6-0.4l-0.5-0.9l-0.7-0.5l-0.6-1.8l-0.1-1.8l1.3-0.3l0.3-0.9l-0.5-0.6v-0.2l1.4-0.6l-0.9-1.1l-0.3-1.2l-1.1-0.9V565
			l-1.9-0.2l-1.7,0.2l-3.1-0.8l-1.1-1.2l-1-0.5l-1.7-2.4l0,0l0.4-0.5l0.1-0.5l-0.6-1.8l-0.4-0.6l0.1-1.3l-0.1-0.3l-2.4-1.5l-0.9-0.1
			l-0.6-0.7l-1.1-0.7h-1l-0.8,0.2l-0.4-0.1l-0.2-0.3v-1.7l0.2-0.8v-0.5l-0.6-2.3l0.8-1.7l-0.3-1.3l-0.7-0.8l-0.1-0.6l0.4-0.7
			l0.8-0.3l0.2-0.5l-0.7-1.4l-1.1-0.7l-0.5-0.7l-2.9-1.4l-1-0.2l0.4-2l-0.3-1.6l0.2-3.3l0.1-0.6l0.6-1.1l0.1-1l0.5-0.9l-0.2-0.2
			l-0.6-0.2l-0.5-0.9l-1.8-1.2l-0.2-0.3v-0.4l0.9-0.6l-0.1-1.6L361,520v-1.9v-0.6l0.6-1l0.2-0.7l-0.5-1.7l-0.1-2l-0.7-2.3l-0.1-1.6
			l2-1.8l1-1.3l2-1.5l1.1-1.5l1.3-1l1.2-1.5l0,0L370.3,500.3L370.3,500.3z"/>
		<path id="MY-12" class="st2" d="M952.2,454v-0.4l0.3-0.4l0.5-0.2l1.9-0.2l1.9,0.4l0.8-0.4l0.8-0.7l-0.7-0.7l-1.6-0.4l-0.4-1.1
			l0.2-0.5l1.5-0.7l0.5,0.2l1.2,0.2l1.4-0.6l0.2,0.3v0.4l1.1,2l0.9,1.1v1.1l-0.5,0.8l-1.2,0.8l-1.6,0.2l-1.2,0.9l-1-0.1l-0.9,0.3
			l-0.9-0.7l-2-0.2L952.2,454L952.2,454z M928.2,423.2V423l-0.7-0.3l-0.6,0.2l0.2-0.6l0.5-0.1l0.4,0.1l0.1,0.2l0.2-0.1l0.2-0.2
			l0.1-0.6h0.5l1,0.4l0.9-0.4l0.6-0.5l1.3,0.5l0.5-0.1l-0.3-1l-0.6-0.4l-0.3-0.6l0.1-0.8l0.7-0.9l1,0.3l-0.3,0.8l0.5,0.5l1.1,0.4
			l0.1-0.3l-0.4-0.9l0.3-1.5l-0.3-1.1l-0.5-0.9H934l-0.5,0.7l-0.1,0.9l-0.4,0.6l-0.8,0.3l-1.9,1.2h-0.6l-0.2-0.4H929l-0.1,0.3
			l-0.6,0.4l-0.5-0.1l-0.3,0.7v0.5l-0.5,0.5l-0.4,0.9v0.7l-0.2,0.8l-0.5,0.8l0.1,0.3l0.4,0.2L928.2,423.2L928.2,423.2z M937,424.2
			l0.1,0.4l0.5,0.1l-0.2,0.3l0.1,0.1l0.8-0.1l-0.1,0.4l-0.6,0.5l-0.2,1.5v0.3l0.9,0.6l-0.2,0.7l0.1,0.1l0.9-0.9l0.2-0.5l-0.1-0.6
			l0.2-0.2l2.4-1.3l1.2-0.9l1.5-0.6l0.4,0.2h1.6l0.7-1.2l0.7-0.8l0.1,0.2v1l-0.4,0.7l0.3,0.2l0.6-0.2l0.2-0.2l-0.1-0.3l0.2-0.6
			l0.5-0.4l0.6-1l-0.2-0.4v-0.5h-0.2l-0.3,0.3h-0.5l-0.2-0.5l1-0.5l-0.2-0.2l-0.5,0.1l-0.2-0.3v-0.4l0.7-1V418l1.1-0.8l0.1-0.5
			l-0.7-1.3l-0.3-0.3l-0.3,0.1h-0.6l-1.5-0.7l-1,0.2l-0.8,0.5l-0.3-0.1l-0.4-0.5l-0.4,0.1l-0.6,0.8l-0.3,0.2l-0.5-0.1l-0.1-0.4
			l-0.2-0.1l-0.4,0.9l-1.2,1.2l-0.9,0.4l-0.4-0.2h-0.5l-0.9,0.4l-0.8,0.7l0.5,1.8l-0.6,1.4l-0.2,1.3v0.3l0.7,0.2l-0.1,0.4l-0.3,0
			L937,424.2L937,424.2z M1020.3,568l0.6,1.6l0.3-0.4l0.1-0.9l0.3-0.4l0.3-0.2l0.5,0.1l0.4-0.3v-0.5l-1.7-0.8l-0.5-0.4h-0.3
			l-0.4,0.6l-0.9-0.2l0.1-0.4l-0.2-0.3h-0.5l-0.1,0.8l-0.3,0.3h-0.3l-0.1-1l-0.6-0.6l0.1-0.3l-0.7-0.1l-0.4-0.3l-0.2-0.3l0.1-0.4
			l-0.3-0.3h-0.3l-1,0.8l-0.3,0.1l-0.1,0.6l0.1,0.4l-0.1,0.2l-1.3,0.1l-0.9-0.3l-1.1,0.2l-1.5-0.3l-0.9,0.2l-0.4,0.4l1.2,0.7
			l0.5,0.1l1.1-0.2l2,0.8l1.7,0.2l0.3,0.3l0.2,0.8l1.1,0.2l0.2-0.4l0.5-0.2l2,1.2h1V569l-0.3-0.2l0.4-0.6l0.4-0.1L1020.3,568z
			 M1060.7,533l-0.6,0.3l-0.2-0.2l0.1-0.4l-0.3-0.7l0.1-0.4l0.4-0.3l0.5-1.8l-0.4-2.7l-0.9-1.6l-2.3-2.3l-2.3-1.2l-0.9,0.1l-1.8,0.7
			l-0.5,1.3l-1,0.4l-1.2,0.2l-2.7-0.4l-3.1-1.2l-0.7-0.1l-0.1,0.5l0.3,1.6l-0.1,0.7l-1.3,0.4h-0.9l-1.4-0.6l1.3-0.9l0.9-0.1l0.3-0.4
			l0.6-0.3l-0.8-1.1l-1.6-1.1l-2.4-1.2l-1.8-1.5l-0.6-0.2l0.2,1.4v1.2l-0.1,1.2l-0.4,0.3l-0.2-0.6v-1.8l0.4-1l-0.6-0.9l-1.2-1
			l-1.6-0.5l-2-1.4l-3.2-3.7l-0.6-0.5l-0.7-0.3l-0.7,0.1l-0.8,0.7l-0.6,0.3l-0.4,1.7l-0.1,1.4l-0.8,1l-0.5,1.7h-0.5l-0.4-0.4l0.4-2
			l0.7-0.6l0.5-1l-0.3-1.2l0.1-1h0.8l1.2-0.9l-0.3-0.7l-1.4-1.5l-1.5-0.8l-3.9-2.8l-4.1-2.3l-3.1-2.2l-0.3,0.1l0.1,1.1l0.3,0.5
			l-0.2,1.1l-0.2,0.2l-0.8-2.1l-0.4-0.3l-2-0.2l-2.8-1.1h-0.2l-0.4,0.6l-0.8,0.6l-3.5,0.9l-0.4,0.5l0.2,0.3l0.7,2l-0.4,0.6l-0.6,0.2
			l-0.4-0.2l-0.5,0.8l1.2,2l-0.3,0.4l-0.6,0.2l-0.2,0.7l-0.3,0.1l-0.2-0.2l-0.4-2.1l-0.8-0.3l-0.7,0.8l-1.1-0.4l0.1-1l-0.6,0
			l-1.4,0.5l-0.6,0.9l-0.8,0.2l-0.8,0.6l-0.8,0.1l-1.5-0.1l-0.6,0.7l0.1-0.7l0.7-0.7l-0.5-0.1l-0.4,0.3l-0.2-1.1l0.1-0.5l0.5-0.2
			l0.2-0.3l-0.1-0.4l-1.1-0.2h-0.7l-0.6-0.5l0.5-0.7l-0.3-0.1l-0.7,0.2l-0.6-0.4l1.3-0.6l-0.7-0.8l0.1-0.3h0.6l0.4-0.4l1.2,0.4h0.9
			l0.4-0.2l-0.3-0.4h1.9l1.1-0.7l0.5,1.4l0.7,0.2l1.5-1l1.2-0.1l0.3-0.5l-0.1-0.5l0.8-0.4l1.5-0.4l0.5-0.6l-1-1h-0.6l-0.4-0.7
			l0.2-1.3l-0.1-0.2l-1,0.3l-1.7-1.2l0.3-0.8l0.7-0.6v-0.5l-0.6-0.5l-1.3-1.8v-0.3l0.5-0.6l0.2-0.9v-0.3h-0.3l-0.9,0.5h-0.6
			l-0.2-1.9h-0.6l-0.8-0.3l-0.7,0.5v0.8l-0.3,0.3l-0.6,0.4l-0.4,0.7l-1.2,1l-0.7,0.3l-0.8,0.9l0.4,0.5l-0.5,1l-1.1,0.6l-1.8,0.4
			h-1.1l-1.9-0.2h-1.9v0.6l0.8,1.1l0.2,0.7v0.5l-0.3,0.5l-0.2-1.5h-0.6l-1.4,0.4l-1-0.1l-1.9-0.4l-3,0.8l-1.7-0.5l-5.3,1.4l-0.5,0.4
			l-0.3,0.5h-0.6l-0.3-0.2l0.7-0.9l0.3-0.2l1.8-0.4l3.4-1.8l-0.6-0.6L966,495h-0.2l-0.2-0.2l-0.1-1.3l0.1-0.4h0.4l0.1,0.7l0.2,0.1
			l0.3-1.7l0.3-0.1l0.3,0.3h0.4l1.4-1.2V491l-0.2-0.2v-1.4l0.5-1l0.7-0.5l0.6-0.1l0.1-0.4l-0.1-0.7l-0.9-1.7l-0.7,0.2v-0.4l0.5-0.5
			l-1.1-1.2l-0.4-1l-0.5-0.7l-0.8-0.5l1.3-1.6l2.8-1.8l1.5,0.1l1.3,0.3l0.2-0.4l0.8-2.2l0.3-1.4l-0.1-1.1l-0.4-1.1l-0.1-0.9l0.1-1.7
			l0.8-0.9l0.3-1.2l-4.5-3.6l-1.3-0.7l-0.4-0.5H969l-0.6,0.2l-0.5-0.1l-3-1.5l0.3-0.8l-1.3-1.6l-0.5-1.3l-0.3-1.6l-0.5,0.4l-1.2,1.8
			l-1.1,2.1h-0.6l-0.5-0.2l-1.5,0.2l-1.2-0.6l-0.7-1.5l0.1-0.5l-0.5-0.3l-1.4-0.2l-0.5-0.6l-1,0.7l-0.9-0.8l-0.5,0.7l-1-0.4
			l-0.6-2.1l-0.6-1.3l-0.3-1.3l1-0.8l0.1-0.7l-0.6-0.8l-1-0.5l-0.5-0.5l-0.3-1.7l-0.3-0.9l-0.5-0.2l-0.2-0.5l0.8-0.8l-0.3-0.5
			l0.2-0.4l1.2-0.9v-0.4l-0.2-0.2l-0.5-0.1l0.9-0.9l-0.2-1.2l-0.4-0.9l0.3-0.5v-0.2L948,438h-1.4l-0.7-0.2l-0.9-0.5l-0.3-0.3
			l-0.1-0.6l-0.6-0.8l-0.7-0.4l-0.9-1.1h-1.1l-0.3,0.3l0.4,0.9l-0.1,0.2h-0.6l-1.2-0.6l-1.5,0.7l-0.8,0.6l-0.2,0.6l0.2,0.2l0.8,0.6
			l0.6,0.1l-0.7,0.6l-0.5,0.1l-0.7-0.1l-0.1-0.5l-0.7-0.4l-0.3,0.1l-0.1,0.2l-0.1,0.6l0.4,0.5l-0.2,1.9l0.6,0.1l0.7,0.7v1l-0.3,0.9
			h0.5v0.3l-0.9,0.1l-0.9,0.4l-0.1,0.3l0.2,0.3l-0.9,1.6l-1,0.6l0.1,0.6l-1.1,1.1l-0.2,0.4l0.1,0.4l0.5,0.7l-0.2,1l-2.2,1.3
			l-0.7,0.8l-1.1,0.2l-1.8,2.3l-1.1,0.3l-0.2,0.9v1l-2.4,1h-1.1l-2-0.8l-0.1-0.5l0.3-2.6l1.1-1.1l0.4-0.6l1.9-3.8l2.2-2.1l-0.4-1.2
			l0.3-1.7l-1-0.8v-0.3l1-0.7l-1.5-0.3l-1.3,0.3l-0.4,0.3l-0.6-0.8l-0.1-1.1h0.3l1,0.8l0.2-0.1l0.3-0.8l0.4-0.2h0.4l1,0.9l0.5-0.1
			l0.1-0.6l-1.4-2.4l-0.1-0.4l0.2-0.5l-0.7-1.2l-0.9-0.3l-1.9-2.3l-1.4-1.2h-0.4l-1.2,2.7v1.2l-1.2,0.4l-0.1,0.3l0.3,0.8l-0.1,0.5
			l-1.3,2.4l-0.7,0.7l-1.6,0.6l0.2,1.5l1.2,0.5l0.2,0.5l-1.1,0.4l-0.6,1.5l-0.6,0.5l0.5,0.9l0.4,1.5l0.1,1.2l-0.1,0.5l-1.5,2.2
			l-0.7,0.4l-1,0.3l-0.5,0.4l-0.2,0.7l-1.4,1.9l-0.2,1l-2.1,2.7l-0.5,0.2l0.4,0.4l-0.4,1.5l-0.4,0.7l-0.5,0.6l-3,2.1l-3.3,2.1
			l-1.7,0.7l-0.1,0.2l0.6,0.5v0.4l-0.6,0.4l-0.3-0.5l-0.6,0.3l-0.3,0.4l0.5,1l-0.3,0.9l0.6,0.8l-0.5,0.5l-1,0.2l-0.4-0.1l0.2-0.7
			l-0.2-0.2l-0.3,0.1l-0.5,0.9l-0.4,0.3l-1.8,0.5l-0.5,0.4l-0.5,1.2l-0.9,0.6l-1.2,1.3l-0.8,1.9l-0.6,0.9l-0.6,0.6l-0.4,1l-1.7,1.5
			l-0.6,0.1l-0.8,0.4l1,1.6l0.8-1.1l0.7,0.5l-0.7,1.6l-0.5,0.5l0.1,1l-0.1,2l-0.6,0.4L883,491l-1,1l-0.6,0.1l-0.7,1.7v1.3l-0.2,0.7
			l-0.3,0.5l0.6,1.8l-0.3,0.9l-0.5,1v0.4l-1.2,0.3l-0.3,0.6v0.5l-1.9,1.3l-1.4,0.7l-2.4,0.9l-0.4,1.1l-0.1,3.3l-0.6,3.4l-0.4,1.2
			l-1,1.3l-1.3,0.9l-1.1,0.5l-1.9,0.6l-0.9,0.1h-1.3l-4.4-0.5l-1.2-0.3l-1-0.5l-0.9-0.8l0.5-1.5l0.3-0.5v-0.5l-0.2-0.5l-1.3-0.4
			l-0.9,2.4l-1.1,1.8l-0.7,0.9l-2.9,2.2l-4,4.2l-1,0.6l-1.2,0.1l-0.5,0.4l-0.3,0.5v2.2l-0.5,2l-0.4,0.6l-0.8,0.6v0.2h1.4l0.5-0.4
			l0.3-1l0.8-0.6h0.3l-0.4,1.2l-0.7,0.8l1.9,1.3V531l0.5-0.3l0.7,0.8v0.6H846l0.1,0.5l2.6,1.6l1.1,1l0.8-0.1l0.4,0.1l0.3,0.4
			l1.3-0.4l0.4,0.1l-0.2,0.6v0.4h0.1l0.7-0.3l1.2-2l0.6,0.2l0.1,0.2l-0.5,0.5l-0.1,0.3l0.2,1.3l-0.7,0.1l-0.4,0.6v0.4l-1.1,1.2
			l0.1,1.4l-0.4,2.3l-1.1,1.2l-0.9,1.3l-1.1,0.2l-1.3,0.6l-0.8,1.6l0,0l1.4,0.7l1.3,0.3l1-0.3l2.3-1.3l2.8-0.3l0.6,0.2l0.4,0.4
			l0.2,0.5l0.2,1.2l-0.1,0.7l0.7,1.6l0.3,1.9l0.7,2.6v2.7l-0.2,0.5l-0.5,0.3l-0.4,0.5l-1.9,4.6l-2.3,2.3l-0.4,1.1v0.7l0.2,0.5l1,1.5
			v1.5l0.6,1.1v0.9l-0.8,0.6l-0.1,0.4v0.3l1,1.5l0.8,1.8l-0.1,1l-0.3,1.1l0.1,0.8l1.2,1l2.1,0.5l0.9,0.9l0.3,0.7v1.1l-1.4,2.6
			l-0.5,3.5l0.8,2.8l0.5,0.4l0.9,0.4l0,0l0.3-1.7l1-1.9l0.4-0.2l0.8,0.2l0.3-0.1l0.4-0.8l1.1-0.5l0.8-1.5l0.3-0.1l0.9,0.1l0.7,1.2
			h0.6l0.6-0.4l0.2-0.4v-0.9l0.2-0.5l0.7-0.5l0.4-0.7l1.2-0.8l-0.5-1.4l0.5-3.4l0.3-0.5l0.5-0.1l0.9,0.1l0.8,1.3l0.6,0.5l1.9,0.1
			l1.8,0.3l1.7,1.1l0.6,2l1.9,1.2l0.5-0.3l1.1-2.2l0.6-0.9l1.7-0.2l0.6-0.4l0.3-0.7l0.1-1.2l0.3-0.4l4.5,0.6l1.2,0.7l1.3-0.5h1
			l1.8-0.8h0.8l2.4,1.5l0.7,1.3l0.8,0.3l0.2,0.4l0.1,1.3l0.2,0.2l0.5,0.2l1.2-0.3l0.5-0.3l0.7-1.8l1,0.6h1l0.6-0.2l0.1-0.3l-0.4-1.1
			l0.1-0.5l0.3-0.7l1.2-0.9l0.3-0.8l0.3,0.1l0.7,1.3l0.4,0.2l0.8,0.1l0.3,0.3l0.3,1.6l0.5,0.4l1.4-0.2l0.8-0.6l1,0.5h1.6l1.2-0.7
			l0.7-1.7l0.3-0.1l1.1,0.8l1,1.5l0.4,0.1l0.8-0.4l0.5,0.2l0.7,0.7h0.4l1.7-0.5l1.8-1.4l0.6-0.2l0.8,0.5l1.1,0.1l0.6,0.7l0.3,0.2
			l2.2-0.1l0.2,0.2l0.4,1l0.3,0.1l0.4-0.2l0.4-1l0.7-0.3l3.3,0.7l0.6-0.1l1.4-0.6l1.9,0.6l1.7-0.2l0.6-0.5v-0.6l0.2-0.2l1.8-0.8
			l1.6,1.7l2.3,1.9l6,3.7l0.5,0.7v1l0.3,0.5l1.2,1.1l3.8,1.1l0.2-0.1l0.5-1.2l-0.4-1.8l0.1-0.5l-0.2-0.5l1.5-1.2l-0.5-0.5v-0.4
			l-0.3-0.4l-0.2-0.8l0.2-0.3v-0.3l0.5-0.6l1.9,0.2l1.1-0.3l0.4,1h0.4l0.1-0.2l0.2-2.2l-0.3-0.5l-0.4-0.2l-0.3,0.8l-0.6-1.6
			l-0.5-0.9l0.5-0.3l0.5,0.2l0.9-0.2v-0.2l-1.3-0.4l0.1-0.3l0.6-0.2l0.4,0.4l0.8-0.7l1.4-0.6l1,0.5l0.3,0.7l-0.2,1l0.8,0.9l1.5,1.2
			h0.7l0.7,0.2l1,1.1l1.3,0.3l0.7-0.1l0.5,0.3l0.6,1.1l2.2,0.9l0.5,0.7l0.8,1.9l0.5,0.2h0.8l1-0.5h0.7l2,0.7l0.7,0.7l1,0.1l4.5-1.8
			l1.2-0.9l1.6-0.8l2.6-0.6l0.7,0.4h0.5l1.5-0.4l0.6-0.6l0.7-0.2l2.3-0.5l2.1-0.1l0.7-0.7l0.1-0.8l-0.2-0.2h-0.7l-0.3-0.4V582
			l1.4,0.3l0.8,1.2l0.6-0.3h0.8l0.5,0.8l0.5,0.1h0.6l1.3-0.9l2.8-0.9l1.3,0.2l1,0.4l1.4-0.1l-0.3-0.8v-0.4l0.2-0.3l0.3-0.1l-0.1,0.4
			l0.2,0.2h0.3l1.9-1.6l-0.6-0.9l-0.5-0.2l-0.1-0.4h1.1l0.5,0.3v0.9l0.5,0.2l0.3-0.2l0.1-0.6l1.3-1.4l-0.2-0.4l-0.9-0.9l-0.3-0.6
			l-0.4-0.3l-1-0.2l-0.1-0.5l-0.5-0.2l-0.2,0.2l0.1,0.4l-0.7-0.1l0.1-0.4l1.2-0.7l-0.1-0.3l-1.6-0.4l-1.1-0.2l-0.6,0.1l-1.3,1.6
			l-0.5,0.8l-0.7-0.2l-0.2-0.6l-0.4-0.4l-2.1-1.3l0.1-0.3l0.5-0.2l0.5,0.2l0.2,0.3l0.7-0.2l0.7-1.8l-0.2-0.4l-0.5-0.4l-0.7,0.3
			l-0.5-0.7l-1.1-1.1l-0.9,0l-0.4,0.8l-0.6,0.2l-0.3-0.6l-0.9-0.5l-0.6-0.7l0.1-0.8l-0.1-0.2l-0.9-0.3l-0.5,0.3l-0.7,0.1l-1.5-0.3
			l-0.1-1.2l-0.9-0.3l-1,0.1l-0.2-0.1l-0.6-1.3l-1.6-1.1l-0.4-1.1l-1.2-1.8l-0.1-2.1l-0.4-0.7l-1-0.6l-0.3-0.7l0.1-0.3l-0.2-0.1
			h-1.8l-0.1-1.3l-0.3-0.4v-0.3l1.2-0.4l0.6,0.3l0.3-0.9l0.1-0.9l1.6-0.6l0.1-0.3l-0.5-0.1l-0.1-0.2l0.4-0.5l0.8-0.7l1.7-0.9
			l0.9-0.1l1.7,0.5l0.2-0.5v-0.5l0.4-0.1l0.2,0.7l-0.2,0.4l0.7,0.1l0.3-1.6l0.4-0.8l0.6-0.8l0.4-0.2l1.2,0.2l1.9-0.1l1.4,0.6
			l0.9,0.2l0.6,0.5l0.5,0.7l-0.4,1.2l0.3,0.8l1,1l0.2,0.6h2.5l0.6-0.4l1.3-1.7l0.6,0.4l1.1,0.1l1.4,0.5l3.5,0.6h0.5l0.8-0.7l1.4-0.3
			l0.2,0.4l1.2-0.1l0.7-0.3l2.7-1.7l1.9-0.6h1.3l1.8-1.6l1.3-0.5l1.8-0.6l8-2l4.5-1.8l2.8-2.2l0.7-0.8l1.9-2.5l-0.1-0.3l0.2-1.2
			L1060.7,533L1060.7,533z M968.8,586.8l-1,0.2l-1.7-1.4l-0.7-0.2l-0.3,0.2l0.2-0.2l-0.2-0.4l-0.5,0.5l-0.2,0.6l0.2,0.4v0.4l0.4,0.3
			v0.5l0.4,0.5l0.4,0.1l1,0.9l1.7,0.7l0.9-0.9l1-0.5l-0.2-1L970,587L968.8,586.8L968.8,586.8z M1031,576.2l0.4,0.3l-0.3,0.8
			l-0.1-0.1v-0.5l-0.7-0.2l-0.1-0.4h-0.2l-0.1,0.2l-0.6-0.3l-0.5,0.1l-0.2-0.4l-0.4-0.2l0.1-0.2l-0.2-0.3h-0.5v-0.3l-1.2,0.2l-1-0.5
			l-0.2,0.1l0.6,0.6l-0.7,0.2l0.1,0.4l0.5,0.5v0.3l1,0.6v0.4l0.2,0.1l-0.8,1.2v0.3l0.3,0.1l0.5-0.3l0.2-0.3l0.6-0.1l0.7-0.8l2,0.2
			l0.2-0.3l0.8-0.1l0.8-0.8l-0.5-0.1l-0.1-0.5L1031,576.2L1031,576.2z"/>
		<path id="MY-13" class="st2" d="M569.9,734l1.3,0.4l0.4,0.7l0.3,1.3l0.5,0.7l-0.2,1.2l-0.2,0.4l-0.3,0.1l-1.3-0.9h-0.5L569,739
			l-0.2,0.4l0.1,0.4l0.4,0.4h0.4l0.2-0.2l0.2-0.7l0.4-0.2l0.2,0.2l-0.4,0.6v0.4l0.3,0.2h0.7l0.1,0.4l-1.2,0.2l-0.3-0.5h-0.3
			l-0.5,0.4l-0.4-0.1l-0.6,0.4l-0.2-0.2h-0.4l-0.3-0.4l-0.3-0.1l-0.5-1v-1.1l0.2-0.2l0.4,0.5l0.4-0.2l0.3-0.6l-0.5-0.5l1.2-0.1
			l0.4-0.6v-0.4l-0.5-0.9v-0.4l0.7-0.4L569.9,734L569.9,734z M557.2,729.8l0.4,0.1l0.2,0.3l0.2-0.2h0.4l0.1,0.6l-0.4,0.3l-0.1,0.5
			l0.8,1l0.6,0.3l-0.1,0.3l-0.9,1l-0.7,0.2H557l-0.3-0.2l0.1-0.5l-0.1-0.3l-0.5-0.3l0.1-0.8l-0.2-0.4l-1.7-0.3l-0.3-0.3v-0.4
			l0.4-0.5L557.2,729.8L557.2,729.8z M570.6,727.6h0.2l0.5,0.4l0.6,1.1l-0.7,0.2l-0.8,0.7l-0.5,1.4l0.2,0.5l-0.2,0.2l-0.7,0.1
			l-0.1,0.5l0.3,0.3l0.7,0.2l-1.2,0.4l-1.2,1v0.9l0.5,0.8l-0.3,0.2l-2,0.4l-0.5,0.4l-0.2-0.1v-0.4l-0.4-0.3l-0.3-0.1l-0.4,0.3H564
			l0.1-0.7l-0.1-0.2l-0.4,0.2l-0.6-0.3l-0.3-1.1l-0.5-1.1l0.8-0.5l0.5,0.2l0.3-0.2l0-0.4l-0.3-0.7v-0.9l0.8-0.3l1.1,0.2l0.7,0.7
			l0.7,0.2l-0.4-0.4l0.2-0.7l0.7-0.8l0.2-1.3l0.9-0.3h0.5l0.5,0.7l0.8-0.2l0.6-0.4l-0.3-0.8L570.6,727.6L570.6,727.6z M561.3,724.5
			l0.6,0.5l-0.5,0.7v0.4l0.4,0.7l0.5,0.4l-0.1,2.2l1.1,0.8v1.7l0.3,0.9l-0.1,0.3l-0.7-0.2l-0.3,0.4l-0.4,0.2l-0.7-1.5l0.2-1.7
			l-0.4-0.5l-0.3-0.2H560l-0.2-0.7l-0.6-0.5l0.2-0.7l0.5-0.3l0.2-0.3l-0.2-0.4l0.2-0.6l0.5-0.6l-0.1-0.2l0.1-0.4L561.3,724.5
			L561.3,724.5z M618.7,702.4l0.2-0.6l0.9-0.2v0.7l0.9,0.2l0.4,0.5l-0.4,0.5l-0.5,0.1l-0.3-0.6l-0.3-0.1l-0.3,0.1l-0.1,0.2v0.9
			l-1.2,0.4l-0.6,0.5l-0.2,0.5l0.1,1l-0.1,0.3l-0.3,0.2l-0.7-0.2L615,706l-2.8-0.7l-1.2,0.2l-0.8,0l-1.6,0.7l-1.4-1.2l0.4-1.5
			l0.9-0.3l1.2-1.1l0.5-1.1l0.3-0.2l0.2,0.1l0.6,1.3l0.7,1.1l1.1,0.2l0.9-0.5l0.3-0.3l0.2-0.9l-0.1-2l-0.4-1.2l0.1-0.2l1.3,0.3
			l1.4,0.8l0.7,0.6l0.5,1.2l-0.2,1.1l0.5,0.5L618.7,702.4L618.7,702.4z M612.3,689.4l0.2,0.1v0.2l-0.7,1.1l0.2,0.2l0.6-0.6l2,1
			l2,0.6l0.1,0.3l-0.1,0.3l-0.9,0.7l-0.4,0.7l0.1,0.4l0.7,0.4l0.1,0.4l-1,0.4l-0.1,0.7l-1.4,1.9v2.4l0.3,1.8l-0.4,0.4l-0.9,0.3
			l-0.4-0.1l-0.4-1.5l-0.8-1l-0.5-0.3L610,700l-1,0.9l-0.2-0.5l0.2-2.7l-0.3-2l-0.1-2.2l0.8-1.7l1.1-1.2l1.4-0.8l0.2-0.2
			L612.3,689.4z M620.4,673.8l-0.6-2l1.1-0.8l0.1,0.2L620.4,673.8z M617.1,669.1l0.6,0.4l1.2,2.5l1,0.8l0.2,0.5l-0.4,2.3l0.2,3.2
			v1.7l-0.3,1.5l0.2,2.9l-0.1,1.6l1,1.6l0.5,3l0.4,0.7l0.6,0.6l-0.2,0.6l-0.2,0.2h-0.4l-0.9-0.3l-0.7,0.2l-0.3,0.5l-0.2,0.7
			l-0.4,0.2l-1-1.2V692l-0.3-0.7l-0.8-0.8l-1.4-0.7l-0.1-1.9l0.6-2.6l-1.7-7.3v-3.5l0.5-2.2l0.6-1.3l0.8-1.3l0.8-0.5L617.1,669.1
			L617.1,669.1z M647.9,665.2l6.4-0.9l8.8-2l6.6-2l12.8-2.8l3.4-0.6l0.9,0.3l0.6-0.2l0.4-0.5l1.1-0.5l3.3-1l4.2-1l6.3-1.2l3.1-0.9
			l3.1-1.6l1.6-1l1.1-1l1.1-1.3l1.6-2.4l-0.1-0.3l-0.9-1l1.4-1.2l2.7-1.9l1.4-1.3l2.2-3.9l2.3-1.7l2.9-2.8l0.8-1.3l-0.5-0.9l0.6-0.9
			l3.8-3.8l2.4-4l0.6-1.3l-0.2-1.1l0.7-1.1l1.7-1.2l5-3.2l6.5-5.4l1.3-1.3l3.8-4.1l1.2-1.6l2-3.6l2.1-2.3l3.9-5l1.3-2.1l0.9-1.8
			l0.4-1.5l-0.4-0.3l-0.1-0.4l1.3-1.6l0.7-2.9l0.1-1.6l-0.2-1.6l-1.5-4.5l0.9-0.7l5.5,0.4h2.7l1.6,0.4l0,0l0.9,0.5l1.3,1.7l0.7-0.2
			l0.5,0.2l0,0l1.1,0.7l0,0l1.5,2l2.5,4.3l-0.2,2.2l0.1,0.3l1,0.8l0.2,0.3l-0.7,2.4l0.1,1.8l0.4,0.3l1.4,0.3l0.6-0.2l0.6-0.5
			l0.4-0.1l1.9,0.6l0.4-0.2l0.6-0.9l0.5-0.1l0.5,0.1l0.3,0.4l0.1,1.4l0.2,1.1l0.9,2l1.3,2.2l2,0.2l0.9,0.9l0.4,1.1l1.2,2l1.3,0.8
			l1.8,0.3l0.2,0.6l-1,1l0,0L801,601l0,0l0.9,0.2l0,0l2.3-0.7l0,0l2.6-1.5l1.3-1.2l1-1.2l0.9-1.5l1.8-1.3l0.3-0.5l0.1-0.4l-1.2,0.2
			l-0.1-0.2l0.2-0.7l0.7-0.6l2.1-3.1l0.6-1.8l-0.2-0.1l-1.3,1.3h-0.5l-0.1-0.3l0.1-0.9l1.9-2.1l1.5-2.9l0.1-2.7l-0.3-0.2l-1.8-0.4
			l-0.6-0.4l-0.4-0.7l-0.3-3.6l0.1-2l-0.6-5.2l-0.2-1.4l-1.2-2v-1l0.2-1.1l0.3-0.3l0.5-0.2l1.6-0.2l0.6-0.5l0.8-2.1l0.7-0.5l1.8-0.5
			l3-0.4l0.7-0.4l1.7-3.2l0,0l1.1-0.5l0.2,1l0.2,0.4l-1.5,1.8l-0.5,2.1v1.4l0.3,0.3l0.3-0.1l0.3-3.3l0.5-0.9l0.3-0.1l0.2,0.4
			l-0.2,0.8v0.7l0.6,0.9l0.9,0.6v0.2l0,0l-0.8,1.9l0.5,1.8l-0.2,0.9l0,0v0.6l0,0l0.4,0.9l0.1,1.3l0.2,0.5v1.2l0.2,0.8l0.7,1.2
			l1.8,5.9l-0.2,1.8l0.5,1.8l-0.2,1.3l0.2,0.4l0.7,0.5h0.8l0.2-0.1l0,0l0.8-0.1l0,0l2.9,1l2.2-0.2l0.4,0.3l0.3,1.5l1.7-0.2l0.7,0.3
			l0.4,0.3l0.3,0.8l0.5,0.5l0.7,0.2l0.4-0.1l0.8-0.5l0.8-0.8l0.1-1l-0.8-0.8l-0.6-1.2l-2-1.5l-0.9-1l-0.3-0.6l-0.2-0.8l0.3-1
			l-0.3-0.8v-1.3l-0.4-0.5l0.1-1.2l-0.2-0.7l0.9-1.2V569l0.2-0.7l-0.2-1.6l-1.1-0.8l-0.4-0.5l0.4-0.5l0.1-0.8l-0.6-0.6l-0.2-0.6
			l0.3-1.1L837,561l-0.3-0.5l-0.9-0.8l-0.2-0.4l0.3-1.9l-0.7-0.8l-1.8-1.2l0,0l-0.8-0.7l0,0l0.1-0.6l-0.7-0.2l-0.8-1.1l-0.2-0.9l0,0
			h-0.4l-0.3-0.5l2.9-1l0.3-0.6l-0.2-1.3l0.7-0.3h1l0.4,0.2l0.1,0.2l0.7,1.9l0.7,0.5l1.9,0.4l1.4,0.9h0.8l1.4-0.2l1-0.5l0.7-0.7
			l-0.2-0.5v-0.7l0.7-0.2l1.6-1.6l1.2-0.2l0,0l1.4,0.7l1.3,0.3l1-0.3l2.3-1.3l2.8-0.3l0.6,0.2l0.4,0.4l0.2,0.5l0.2,1.2l-0.1,0.7
			l0.7,1.6l0.3,1.9l0.7,2.6v2.7l-0.2,0.5l-0.5,0.3l-0.4,0.5l-1.9,4.6l-2.3,2.3l-0.4,1.1v0.7l0.2,0.5l1,1.5v1.5l0.6,1.1v0.9l-0.8,0.6
			l-0.1,0.4v0.3l1,1.5l0.8,1.8l-0.1,1l-0.3,1.1l0.1,0.8l1.2,1l2.1,0.5l0.9,0.9l0.3,0.7v1.1l-1.4,2.6l-0.5,3.5l0.8,2.8l0.5,0.4
			l0.9,0.4l0,0l0.3,0.1l-0.4,2.9l-1.5,4.7l-0.9,1.5l-0.9,0.7l-0.9,0.3h-1.5l-0.5,0.2l-0.1,0.2l0.3,0.7l0.7,0.8l1.8,1.1l0.4,0.4
			l0.1,0.5l-0.3,1.7l-1.4,3.2l-0.4,1.5l-0.4,1.8l-0.1,3.3l0.5,3.3l1.2,1.5l0.4,3.7l1.7,2.5l0.3,1l-0.9,1.7l-0.4,0.2l-0.3-0.1
			l-0.6-1.9l-1-0.3l-0.4,0.1l-2,3.9l-0.7,2.8l-0.3,0.7v2.8l0.2,0.9l-0.1,0.9l-0.5,1.2l0.7,0.7l1.7,1.2l0.1,0.5l-0.2,0.5l-2.6,2.5
			l-0.1,0.6l0.2,1.1l-0.1,1.4l-0.5,0.8l-1.5,1h-2l-0.8,0.2l-0.7,0.7l-0.3,0.6l-1,0.9l-3.4,0.3l-0.8-0.2l-0.4-1.8l-1.6-1.7l-0.8,2.4
			l-1.3,1.5l-2,0.8l-1,1.2l-1.3,0.5l-0.2,0.2l-0.5,3.1l-1.1,1.3l-1.2,0.6l-0.8,0.9l-0.1,0.3l0.8,0.5h1.2l0.3,0.3l0.2,0.5l-0.6,1.2
			l0.1,1.4l-0.4,0.5l-1.3,0.7l-0.3,0.4l0.1,1.3l0.7,2l-0.4,1.4l-1,0.8v0.6l0.7,0.6l0.3,0.7l0.2,0l0.9-0.1l0.8-0.7l0.9-0.3l0.6,0.1
			l1.2,1.6l1,0.9l0.2,1.2l1.4,0.5l0.2,0.6l-0.1,1.2l-0.6,0.6l-1.8,0.9l-1.8-0.2l-1.6,0.3l-1.3,1l-0.6,0.7l-0.5,1.9l-0.2,0.1
			l-1.4-0.2l-0.6,0.1l-1.2,1.1l-0.5,0.9l-0.8,0.3l-0.8,0.7l-0.5-0.2l-0.7-0.8l-0.7,0.2l-0.6,1l-0.3,1.4l0.2,0.6l0.7,0.6v0.5
			l-0.3,0.3l-1.1,0.3l-0.9,1.1l-0.6,0.2l-1.5-0.1l-3.6,0.5l-0.8,0.4l-0.1,1l-0.4,1l-0.4,2l-0.1,1.5l0.1,1l0.4,0.8l0.8,0.1l0.4,0.4
			l0.1,0.8l-0.5,0.5l-0.1,0.3v1.7l0.8,1.6h0.6l2-1.1l0.8,0.2l0.7,0.5l0.2,0.7l-2,1.8l-0.4,0.8l0.1,1l1.3,1.2l0.1,0.4l-1.3,1.1
			l-1.8,0.1l-1.2,1.3l-0.4,1l-0.5,0.2h-0.5l-0.9-0.7l-0.7-0.1l-0.7,0.1l-0.7,0.5l0.2,0.8l-0.1,0.5l-1.5,1.2l0.1,0.4l0.5,0.5l0.2,0.8
			l-0.2,1.4l0.4,1.5l-0.4,1l0.1,1.1l-0.2,1l-0.4,0.7l-1.1,0.8l-0.6,1.6l-0.6,1l-2.7,1.5v0.9l-0.5,1.2l0.5,1.3l-0.3,1.2l-1,1.4
			l-0.4,1l-0.9,1l-1.5-0.2l-2.4-2l-1.3-0.1l-3.9-2.5h-0.5l-0.3,0.4l-0.2,0.6l-0.4,0.4l-2.2,0.7l-1.7,0.7l-1.1,0.9l-0.8,0.2l-1.4-0.1
			l-0.4,0.2l-0.3,0.2l-1.2,1.6l-0.5,0.3l-0.5-0.8l-1.8-1.1l-1-1.1l-0.4-0.1l-1.6,0.5l-0.8-0.4h-0.8l-3.3,1l-0.9-0.1l-0.8-0.3h-0.6
			l-1.7,0.7l-0.4,0.5l-0.3,0.7L758,748l-1.5,0.8l-0.3,0.6l0.5,0.6l0.1,0.9l-0.8,1.5l-0.4,0.4l-3.6,1.6l-2.1,0.6l-2.4,2.3l-1-0.1
			l-0.9,0.2l-0.4-0.3v-1.2l-1.4-0.7l-1-2.4l-0.3-0.2l-0.8-0.1l-1.2-0.8H740L739,752h-1.1l-1.9,0.7l-1,0.9l-1,0.1l-0.6-0.4l-1.1-1.3
			l-1.5-0.6l-0.7-1.7l-0.3-0.2l-1.2-0.5l-3.2-1l-2.9-0.2l-1.1,0.5l-1.6,0.2l-2.1-0.7l-1.3-2.1l-0.9-0.7h-0.3l-2.2,1.1l-2.1,0.7h-2.3
			l-0.3-0.4v-0.9l0.5-0.9l3-1.3l0.2-0.2l0.5-2l0.5-0.6l0.6-0.4l0.1-0.3l-0.5-1.2l-1.7-0.5l-1.7-0.8l-0.4,0.1l-0.6,0.6h-0.8l-2.4-0.2
			L705,737l-0.7-0.2h-0.7l-0.4,0.2l-0.6,0.9l-0.8,0.7l-0.3,0.7l-2.5-0.1l-0.4-0.6l-1.4-0.6l-1,0.4h-0.4l-0.8-0.4l-1.9,0.6h-1.1
			l-0.5-0.2l-0.9-0.6l-1.1,0.3l-1.9-0.3l-4.8-0.3l-0.9-0.3l-0.9,0.3l-1.7,1.2l-0.3,0.3l-0.3,0.9l-0.5,0.5l-1.5,0.2l-3,1l-1.8-0.1
			l-2.4,1.9l-1.6,0.6l-1.4,0.2l-0.9,0.6l-0.3,0.4l-0.3,1.5l0.2,0.3l1.3,0.7l0.1,0.4l-1,2.8l-1.5,1.4l-0.3,0.5l-0.3,1.2l0.1,1.1
			l-0.7,0.9l0.3,1.1l-0.2,1l-0.9,1.3l0.4,1.1l-0.2,0.7l-0.8,0.4h-2.4l-2.9,0.5l-4.5,0.4l-0.7,0.3l-0.4,0.4l-0.6,1.3l-1.1,0.9l-1,0.5
			l-0.7,1.2v0.9l-0.2,1L647,769l-0.8,0.2l-1.4-0.2l-1.8-0.8l-0.2,0.1l-0.2,0.8h-0.3l-1-1.1l-1.7,0.5H639l-0.5-0.8l-2.8-1.2l-1.1,0.5
			l-2.4,2.1l-0.7,0.4l-0.8-0.1l-0.8,0.2l0.1,1.7l-0.1,0.3l-0.3,0.2l-1.2-0.5l-1-2.5l-0.8-0.8l-1.2-0.7h-0.9l-1.1,0.9l-0.6,0.3
			l-1.3,0.2l-1-0.1l-0.6-0.2l-1.7-1.1l-5.5-1.7l-1-0.9l-0.9,0.3l-1.3,0.7l-3.1,0.7l-4.5,0.3l-1.9,0.8l-5.1,0.5l-1.4-0.2l-0.6,0.4
			l-0.4,0.6l-0.1,0.9l-2.2,2.4l-1.5-0.1l-1.2,0.3l-0.1,0.6l0.5,0.9l-0.1,0.5l-0.2,0.3l-0.4,0.1l-0.5-0.3l-0.6-1l-0.5-0.2l-0.3,0.3
			l-0.1,0.9l-0.2,0.3l-0.4,0.1l-1.5-0.3l-1.7,1.2l-1.4,0.3l-0.8-0.3l-0.2-0.3l-0.1-0.8l-0.5-0.2l-0.3,0.1l-0.1,1.2l-0.4,0.6l-2.9,1
			l-2.3-0.8l-2.4-0.4l-2.4-1.8l-0.6-0.8v-0.3l0.3-0.3v-0.4l-0.5-0.2l-1.3-0.2l-0.1-1.5l-0.2-0.5l-0.5-0.4h-0.7l-1,0.5l-0.9-0.3
			l-0.6-0.4l-3,0.2l-0.4-0.1l-0.1-0.3l0.2-0.8v-1.7l-0.9-0.3l-1-1.7v-1.1l-0.2-0.5l-0.5-0.3l-1,0.1l-0.2-0.1l-0.2-0.6l0.1-1.3
			l-0.8-1.3l-0.4-0.4l-2-0.9l-1.9,0.2l-1-0.1l-0.8-0.9l-2.3,0.5l0.1-0.6l1-0.9l0.2-0.4l-0.2-1.1l-0.2-0.3l-2-0.9l-0.9-0.7h-1.1
			l-0.3-0.2l-1-3.5v-1.8l-1.3-1.2l-0.8-0.3l-3.9,0.1l-1.3-0.3l-0.2-1.8l0.5-1.4h-0.4l-0.9,0.9l-0.2,0.1l-0.4-0.2l-1.1-1.9l-4.9-5
			l-0.4-0.9l-1.1-0.4L523,734l0.7-5.4l0.9-2v-0.8l-0.5-0.5l-1.3-0.5l-1.6-0.2l-1.1-0.4l-0.4-0.5l-0.6-1.5l-0.4-0.2l-1-0.1l-0.2-0.3
			v-0.9l-0.4-0.5l-0.5-2l0.2-0.3l0.5-0.2l0.6,0.3l0.5-0.2l0.4-0.5l0.6-1.7l1.7-1l0.8-1.2l0.5-1l0.3-1.3l0.2,0.4l0.4,0.3l-0.2,0.1
			v0.7l-0.4,0.8l0.3,0.5l0.6,0.4l0.2,0.4l-0.5-0.1l-0.4,0.2v1.4l-0.2,0.4l0.2,1.9l0.4,0.8l1.5,1.4l-0.2,0.9l0.4,0.4l1.9,1l2.8,1
			l0.3,0.8l0.8,0.8l0.2,0l-0.1-0.4l-0.5-0.6l3.1,1.2l0.5,0.9l1.7,1l-0.6,1.2l0.9,0.5l1.4,0.5l0.7,0.6l-0.2,0.2l-0.5-0.4h-0.4
			l-0.5,0.2v0.2l0.7-0.1l0.3,0.4l0.7,0.3h0.8l0.6-0.3l0.1-0.5l0.5-0.1l0.9,0.4l-0.1,0.3l0.2,0.6l1-0.9l0.7-0.2h6.4l4.3-0.4l0.2,0.3
			l-0.1,1l0.9,0.5l1.2,0.1l0.3,0.3v0.8l0.1,0.3l0.5,0.3l-0.1,0.6l0.5,0.8l0.6-0.2l1.1-0.7l0.9-1l-0.2-1.2l-0.4-0.4l-0.1-0.3l0.8-0.4
			l0.2-0.5l1-0.5l0.3,0.1l0.4,0.5l-0.3,1.8l1.2,2.6l0.3,1.1l0.7,0.3l0.5-0.1v0.8l0.4,0.1l0.3-0.2l0.5,0.2l0.1,0.4l-0.2,0.5l-0.6,0.3
			l0.3,0.5h0.5l0.2-0.2l0.3-0.8l0.4-0.3l1.2,0.4l0.1,0.2l-0.4,0.5l-0.5-0.4l-0.3,0.3l0.1,1.4l0.3,0.7l0.4,0.2l0.3,0.5l0.6,0.3
			l0.7-0.3l0.3,0.2l0.7-0.4l0.6,0.6l0.3-0.2l0.7,0.1l0.3-0.2v-0.4l-0.2-0.2l-0.9-0.2l0.4-0.9l-0.2-0.4l-0.2-0.1l-0.5,0.3l-0.4,0.9
			l-0.3-0.1l-0.3-0.3v-0.5l0.9-1.2h0.2l1.1,0.9h0.7l0.4-0.5l0.3-1.5l1.4-0.7l1.4-0.2l1.1,0.2l3.5,1.7l1.6,0.6l1.3,0.3l0.4,0.3
			l0.7,1.8v1.3l-0.2,0.5l-1.8,0.8l-1.4,0.9l-1.8,0.7l-0.3,0.4l-0.1,1.1l0.2,0.4l0.8,0.6l0.6-0.1l1.1-0.9l0.8-0.4l1.2,0.5l1,0.8
			l0.2-0.1l-0.3-0.5l-0.8-0.5l-1.3-0.5l-0.7,0.2l-1.2,1l-0.6,0.2l-0.5-0.5l-0.2-0.8l0.4-0.4l1.6-0.4l2.6-1.1l1.2-0.8l0.6-1.2l0.3-2
			l-0.1-1.6l0.2-0.4l0.5-0.1l0.4-0.5h0.8l3.2,1.6l0.9,0.7l3.7,0.8l2.2,1.3l0.9,0.7l0.6,0.7l1,1.8l0.7,0.8l1,0.9l0.8,0.4l1.8,0.3
			l1.3,0.4l1.7,1.2l1,0.4l1.3-0.6l1.3-1.2l1.9-0.2l0.5,0.2l0.2,0.3l0.6,1.9l0.3,0.5l1.7,0.8h0.5l0.2-0.2v-0.4l-0.7-0.7l-0.2-0.7
			l0-1.6L615,747l-1.9-0.8l-1.2-0.1l-2.1,0.5l-1.7,1.1L606,746l-3.1-1.1l-0.7-0.5l-0.4-0.5l-0.3-1.3l-0.9-1.5l-1.3-0.8l-0.4-0.1
			l-0.4,0.2l-0.2-0.2l0.3-1l-0.3-1.7l0.3-0.5l1-3.9l0.6-0.8l0.7-0.7l2,0.2l1.4-0.5l1.4,0.3h0.8l0.2,0.2l0.1,1l0.4,1l1,0.7h0.8
			l1.3-0.6l0.3,0.1l0.5,0.8l0.8,0.4l1.7-0.2l0.4,0.2l0.6-0.3l-0.4-0.3l-0.7-0.2l-1.5,0.1l-0.8-0.9l-0.8-0.4h-0.6l-1.3,0.7l-0.5-0.1
			l-0.4-0.7l0.1-1.3l-0.3-0.8l-0.4-0.4l-1.4-0.2l-0.8-1.1l-0.1-0.7l-1.3-1.3l0.4-0.8l0.6-0.6l1.4-0.4l0.5-0.7l0.2-0.9l-0.2-0.2
			l-1,1.5l-0.7,0.1l-0.2-0.7l0.1-0.9l0.6-1.6l3.1-5.9l0.2-0.5l-0.2-0.4l0.2-1.1l0.4-1.3l0.9-1.9l0.8-2.7l1.2,1.2l1.2,0.5l1,0.1
			l0.7-0.4l0.6,0.2l0.5,0.7l0.8-0.1l0.7-0.5l0.1-0.6l0.9-0.8l-0.1-0.9l0.2-0.4l0.3-2.2h0.3l1,0.7l0.8-0.1l1-0.5l1.4,0.8l0.2-0.3
			l-0.8-0.3l-0.8-0.6h-0.6l-1.2,0.6l-0.6-0.7l0.2-0.4v-0.9l0.1-0.1l0.8,0.7l0.7,0.3l0.3-0.2l0.1-0.6l-0.2-0.7l-0.4-0.5l-0.9-0.3
			l0.2-0.5l-0.1-0.1l-1.1,0.2l-0.2,0.7h-0.3l-0.2-0.3l0.2-1l-0.5-1.3l-0.8-0.9l-1.4-1l-0.3-0.6l0.1-0.4l1.2-1.6l-0.1-0.6l-0.8-0.7
			l0.3-0.4l0.8-0.4l1.4,1.8h0.9l0.3-0.2l0.7-1.4l1.4,0.3l0.6-0.2l0.9-0.7l1.1,0.8l1,0.3l0.7,0.7h0.2l-0.3-0.8l-0.5-0.5l-1-0.8
			l-1.4-0.7l-1.2-1.2l-0.2-0.5l0.1-1.8l-0.2-0.4l-1-1.3l0.3-0.3h0.9l0.9,0.2l1.4,0.7l0.8,0.1l1-0.3l0.9-0.7l0.2,0.2v1l0.2,0.6
			l1.9,1.3l0.8-0.3l0.1-0.2l0.1-0.8l0.2-0.3l0.6,0.8l0.5,0.3l0.7,0.2l0.3-0.5l-1-0.2l-0.4-0.9l-0.7-0.1l-0.4,0.2l-0.4,1.3l-0.2,0.2
			h-0.2l-0.8-0.8l-0.8-0.6l-0.1-1.3l-0.4-0.5l-0.9-0.1l-1,0.7h-0.6l-2-1.1l-1.7-1.3l-0.1-0.3l0.1-1.4l1.2-3.8l0.4-2l0.2-1.7l0.9-0.6
			l1.5-0.5l0.5-1.2l0.4-0.3l3-1.2l3-1.6l0.6-0.6l0.5-1.3l1-1.1h0.8l0.5,1.1l2.2,1.1l2.4,0.8l0.2-0.3l-3.7-1.9l0.4-0.3l1.3-0.4
			l6.1-1.2l2.6-0.4L647.9,665.2L647.9,665.2z"/>
		<path id="MY-15" class="st2" d="M828.7,534.1l0.4-0.1l0.2,0.1l0.1,0.4l-0.6,0.2l-0.3-0.5l-0.4-0.3l0.2-0.2L828.7,534.1z
			 M840.5,531.6l-0.1,0.3l-0.3-0.2h-0.5l-0.2-0.2l0.5-0.6l0.5,0.1L840.5,531.6L840.5,531.6z M835.6,525.1l0.3,0.3l-0.1,0.2h-0.3
			l-0.3,0.7l0.1,1l0.3,0.4l0.2,1.2l0.8,0.8l0.2,0.7l0.4,0.5l-0.2,0.4l-0.5,0.3l-0.5,0.1l-0.4-0.3l-0.2,0.1l0.1,0.2v0.6l0.6,0.3
			l-0.3,0.5v0.3l-0.2,0.1l-0.3-0.4l-0.5-0.1l-0.1-0.2l0.1-0.1l-0.5-1l-0.7-0.1l-0.2-0.2l-0.2,0.2l-0.7,0.1l-0.3,0.6l-0.3,0.3h-0.3
			l-0.3,0.6l-0.8,0.1v-0.4l0.5-0.7l0.1-0.5l0.1-1l0.9-1.8l0.4-0.4V528l0.7-1l1.5-1.7h0.4L835.6,525.1L835.6,525.1L835.6,525.1z"/>
		<circle class="st3" cx="372" cy="692.7" r="23.2"/>
	</g>
</g>
</svg>
