<?xml version="1.0" encoding="utf-8"?>
<!-- Generator: Adobe Illustrator 25.2.1, SVG Export Plug-In . SVG Version: 6.00 Build 0)  -->
<svg version="1.1" id="Layer_1" xmlns="http://www.w3.org/2000/svg" xmlns:xlink="http://www.w3.org/1999/xlink" x="0px" y="0px"
	 viewBox="0 0 1236 1514" style="enable-background:new 0 0 1236 1514;" xml:space="preserve">
<style type="text/css">
	.st0{opacity:0.7;fill:#010307;stroke:#FFFFFF;stroke-width:3;stroke-miterlimit:10;}
	.st1{fill:none;stroke:#FFFFFF;stroke-width:10;stroke-miterlimit:10;}
	.st2{fill:#006694;stroke:#FFFFFF;stroke-width:0.25;stroke-miterlimit:10;}
	.st3{fill:#FF0000;}
</style>
<g id="Layer_2_1_">
	<g id="Layer_1-2">
		<image style="overflow:visible;enable-background:new    ;" width="1236" height="1514" xlink:href="733CC818CE1A1A61.png" >
		</image>
		<rect x="95" y="95.2" class="st0" width="1046" height="1323.5"/>
		<polyline class="st1" points="95,272.2 95,95.2 272,95.2 		"/>
		<polyline class="st1" points="964,95.2 1141,95.2 1141,272.2 		"/>
		<polyline class="st1" points="1141,1241.7 1141,1418.7 964,1418.7 		"/>
		<polyline class="st1" points="272,1418.7 95,1418.7 95,1241.7 		"/>
		
			<image style="overflow:visible;enable-background:new    ;" width="698" height="1329" xlink:href="733CC818CE1A1A63.png"  transform="matrix(1 0 0 1 252 78)">
		</image>
		<path id="MM-01" class="st2" d="M621.7,263.2L621.7,263.2l0.6,0l0.6-0.3l-3.2,4.9l-0.7,0.9l-0.3,0.2l-0.4,0.2l-0.7,0.3l-0.8,0.1
			l-4.4-0.3l-6.4,0.4l-3.6,1.2l-1.4,0.3h-3.1l-10,1.5h-1l-1-0.2L585,272l-3.3-0.8l-5.1-0.1l-0.8,0.3v0.5l0.8,0.6l2,1.2l0.3,0.5
			l-0.3,0.7l-0.5,0.9l-0.2,0.9l-0.1,1.1l-0.5,0.6l-0.8,0.3l-1.6,0.4l-0.7,0.4l-0.4,0.5l-0.1,2.9l-0.1,0.5l-0.2,0.4l-7.4,4.6l-1,1
			l-0.3,0.9l0.4,0.9l1.8,1.8l1.2,1l0.9,1l0.6,0.9l0.4,1l0.3,0.9l0.5,3.2l-0.1,0.3l-0.3,0.6l-1,1l-1.5,0.8l-1.5,0.6l-3.2,0.8
			l-0.7,1.1v0.6l0.2,0.8l0.3,0.6l3.1,4.3l0.6,1.1l0.2,1l0.1,1.6l0.3,0.7l0.8,1l0.9,1.4l0.4,1.6l0.4,1l1.3,2l0.8,4.9l-0.3,2.2
			l-0.4,0.7l-0.5,0.6l-0.5,0.3l-0.3,0.3l-0.1,0.1l0,0l-2.9,7.1l-0.1,1l0.1,0.8l1,2.5l0.7,2.9l0.5,1l3.1,3.8l0.6,1.9l-0.2,1.3
			l-0.7,1.2l-1.1,1.2l-3.3,2.6l-0.8,1l-0.4,0.7l-0.4,0.4l-0.4,0.3l-0.6,0.1l-0.5-0.2l-0.4-0.4l-0.3-0.5l-0.4-0.5l-0.6-0.5l-0.4-0.1
			l-0.5,0.1l-0.6,0.8l-0.6,2.5l-0.3,5.5l0.8,11.9l0.6,2.6l2.9,3.7l1.2,2.2l0.7,1.8l0.2,2.1l-0.1,1.1l-0.5,2.6l-0.3,0.7l-0.3,0.4
			l-0.4,0.4l-0.6,0.3h-0.5l-0.5-0.1l-0.3-0.3l-0.2-0.5v-0.7l0.3-1l0.3-0.6l0.4-1.6l0.1-0.5v-0.4l-0.1-0.3l-0.2-0.2l-0.3-0.1
			l-0.3,0.2l-0.2,0.4l-0.3,0.6l-0.5,0.5l-0.7,0.5l-1,0.6l-2.2,0.7l-2,0.6l-2,0.8l-1.2,0.8l2.6,6.5l3,9.6l0.6,1.3l0.6,0.6l0.7,0.4
			l1,0.4l5.4,1.2l1.3,0.7l1.8,5.2l0.2,0.4l1.6,1.8l2.3,2l0.5,0.6l0.4,0.7l0.6,0.6h0.6l0.5-0.3l0.4-0.5l0.4-0.4l0.6-0.2l3.6-0.6
			l3-0.9l1.8,0.1l8.4,3.4l1.2,0.3l1.1,0.2l0.7,0.2l2,1.2l-0.5,1.3l-1.7,1.3l-0.5,0.7l-0.2,0.6v6.6l0.2,1.4l0.6,1.1l1,1l0.9,0.8
			l1.2,2.4l-2.3,0.4l-2.5,0.7l-10.1,4.6l-0.8,0.7l-0.6,0.7l-0.2,0.9l0.2,0.8l0.7,1l0.5,0.2l0.5-0.1l0.5-0.5l0.6-1.1l0.7-0.7l0.2-0.1
			l0.7-0.2h0.4h0.4l0.3,0.1l0.3,0.1l0.2,0.1l0.2,0.2l0.2,0.1l0.4,0.4l0.1,0.5l0.1,3.3l0.1,0.4l0.4,0.9l0.1,0.3l0.4,1.5l0.1,0.3
			l0.2,0.3l0.8,0.8l0.2,0.3l0.2,0.3l0.1,0.4l0.1,0.4v0.6l-0.2,0.6l-1.8,3.4l-0.2,0.6l-1.2,2.2l-0.2,0.3l-0.3,0.2l-1,0.4l-0.7,0.5
			l-1.3,1.8v0.5l-0.1,0.4L587,481v0.2v0.5v0.5l-0.1,0.3l-0.4,1l-0.1,0.4l-0.2,0.5l-0.3,0.6l-1,1.7l-0.8,0.9l-0.9,0.8l-1.6,1.9
			l-1.1,0.7l-1.8-1.6h-0.6l-0.9,0.2l-2.7,1.4l-1.4,0.3l-1.2-0.4L570,490l-0.5-0.5l-0.3-0.6v-0.8l0.2-0.7l0.3-1l0.1-0.8v-0.8
			l-0.5-1.2l-0.7-0.5l-0.5-0.1l-1.3,0.1l-1.4,1.3l-1.3,1.5l-0.8,1.9l-0.2,0.8l-0.6,1.2l-3.6,4.4l-1.2,2l-0.5,1.2l-0.4,1.4l-0.1,1.2
			l0.1,0.9l1.6,5.2l0.3,0.8l0.1,0.2l0.1,0.2l0.2,0.4l0.4,1.1l0.6,2.6l0.5,1.5l-0.6,24l-0.2,0.6l-0.4,0.6l-0.7,0.4l-1.3,0.1l-0.6,0.2
			l-0.5,2l0.9,2.8l3.9,6.9l0.3,1.3l-0.5,1.2l-0.7,1.2l-0.3,1.2l-0.1,5l0.4,1.1l1.1,1.3l1.3,1.3l0,0.5l-0.4,0.9l-0.3,0.4l-0.3,0.3
			l-0.3,0.4l-0.2,0.7l-0.1,0.7l0.2,3.4l0.7,3.7l0.4,4.2l1,2l1.3,4l0.2,2.3l-0.6,2l-1.2,1.7l-1.6,1.2l-1.1,0.6l-1,0.4l-1.1,0.2
			l-1.3,0.1l-1.1-0.3l-0.6,0.6l-0.9,1.6l-1.9,7.5l-0.9,1.6L549,608l-0.4-0.4l-1.3-0.3l-4.9,0.7l-3.6-5l-1.9-2l-0.9-0.3h-1.3
			l-7.3,1.6l-0.9,0.7l-0.6,2.6l-0.8,1.8v0.4l-0.4,0.5l-0.4,0.8l-2.3-0.8l-1.1-0.6l-1.2-1.3l-0.8-0.5l-0.2-0.8v-1.5l-0.2-0.8
			l-0.5-0.6l-1-0.7l-0.6-0.8l-1-2.1l-1.6-1.9l-0.5-0.8l-1.4-0.4l-1-0.2l-1.8,0.4l-1.6,1.1l-7.5-0.2l-4.5-1l-2.6,0.2L492,596
			l-2.4,0.2l-2.3,0.5h-0.8l-0.9-0.2l-1.1-0.3l-1.7-0.2l-1,0.1l-3,1l-1.2,0.6l-1.3,1.2l-0.3,0.2l-0.6,0.2l-1-0.1l-1.1-0.4l-1.5-0.9
			l-1-0.8l-0.5-0.5l-0.3-0.8l1.1-10.2l-0.1-1.8l-0.2-1.2l-0.4-1.1l-0.4-0.5l-0.7-0.2l-0.7-0.4l-0.4-0.4l-1-1.9l-1.1-0.1l-1.7,0.5
			h-0.6l-0.5-0.2l-0.5-0.6l-0.4-0.7l-0.4-1.2l-0.8-7.2l0.1-0.9l0.1-0.6l0.4-1l2.2-4.7l0.3-0.8l-0.1-1.2l-0.2-0.8l-1.6-3.5l-2.6-4.9
			l-2.5-3l-1-0.9l-0.5-0.6l-0.6-1l-0.1-0.2l-0.1-0.6l-0.1-0.2l-0.1-0.1l-0.6-0.5v-0.2l0.1-0.3l0.1-0.5l-0.1-0.5l-0.4-0.9l-0.6-0.2
			h-0.3l-0.5,0.8l-0.3,0.3l-0.4,0.2l-0.8,0.4l-0.8,0.1H449l-1.6,0.2l-0.7-4.1l0.4-1.8l0.3-0.5l0.5-2.2l-0.3-4.1l-0.4-0.9l-0.2-0.8
			l-0.3-0.7v-0.8l1.3-4.9l0.3-2.5v-1.2l-1-6l-0.2-3.3l0.1-0.7l0.7-2.9l-0.1-1.1l-0.6-2.2l0.6-0.4l1.4,0.1l0.5-0.2l0.2-0.5l0.3-4.7
			l-0.1-0.9l-0.4-1.5v-1.9l0.3-0.5l0.2-0.1h0.4l0.4,0.1l0,0l1.9,1.2l0.8,0.3h0.5l0.3-0.2l0.4-0.5l0.2-0.4l0.1-0.4v-0.1l0.5-4.6
			l0.3-1.7l0.8-5.9l-0.4-1.6l-1-2.5l-0.3-1.1l-0.3-4.1l-0.3-0.6l0.2-0.2l0.2-1.3l-0.1-1.4l0.1-1.2l0.6-1.2l2.6-3.5l0.2-0.9l0.3-2.4
			l0.2-0.6l0.6-0.7l0.2-1.1l0.2-2.3l0.7-2.4l2.8-6.7l0.2-1l0.2-2.1l0.3-1l0.4-0.5l1.2-0.9l0.4-0.5l0.1-0.5l-0.2-1.1V435l0.6-0.7
			l0.7-0.5l0.5-0.7l0.2-2.6l0.4-0.8l0.6-0.5l0.9-0.6l0.8-3.2l0.4-0.9l0.7-0.7l2.6-1.7l0.7-1.5l1.2-4.3l0.5-1l0.8-0.2h0.7l0.7-0.1
			l0.8-0.5l0.7-0.9l0.5-1.1l0.2-1.2v-1.1l0.3-1.9l2.3-3.1l0.9-1.7l1.1-5.4l0.9-1.3l1.1-2l0.3-2.7l-0.4-2.6l-1-1.8l-2.1-1l-2.3-0.5
			l-2.1-0.8l-1.3-1.9l-0.2-2.6l3.3-9.5l1.3-2.1l1.2-1.2l0.5-0.6l1.9-1.3l1.1-0.4l2-0.2l1.1-0.3l1-0.8l1.5-2.4l0.8-1l0.5-0.2h1.1
			l0.5-0.3v-0.2l-0.5-0.6v-0.3l0.2-0.2l0.6-0.4l0.2-0.2l5.2-7.7l0.4-0.5l0.5-0.2l1.2-0.2l0.5-0.4l0.4-1.1l-0.1-1.4l-1.2-6.6l0.1-1.2
			l0.4-1.4l0.7-0.6l2.1-0.8l1-0.6l2.4-2.7l1.8-2.2l0.7-1.3l-0.1-1.3l-0.7-0.8l-2.1-0.7l-0.8-0.7l-0.6-4.3l0.2-0.5l0.4-0.5l0.3-0.5
			l-0.2-0.5l-0.5-0.3l-0.5-0.1l-0.5-0.2l-0.4-0.4l-0.7-2l-0.2-2.5l0.1-2.6l0.4-2l0.8-2.1l0.1-1l-0.2-1.2l-0.9-2.1l-0.1-1l0.8-1.2
			l0,0l0.9-0.7l1.7-1.9l0.6-1l0.3-0.7l0.1-0.4v-0.4l0.2-1.8l0.2-0.5l0.6-0.6l0.5-0.3l1.3-0.3l0.6-0.3l0.5-0.5l0.8-1.2l0.5-0.4
			l1.1-0.2l0.9,1.3h0.5l0.8,0.1l1-0.4l2.1-1l4.4-1.5l1-0.6l1.7-2.2l1.3-2.7l1.6-2.2l2.4-0.6l1.3,0.2h1.2l0.9-0.5l0.7-1.3l0.6-1.5
			l0.6-0.8l0.9-0.4l2.7-0.3l0.8-0.3l0.6-0.7l1.5-2.6l2.5-3.1l1.5-0.6l3.3-0.6l1.6-0.8l1.6-1.6l1.2-1.9l2.1-4l2.2-3.1l3.5-2.5
			l3.9-1.8l15.2-2.6l3.8,0.2l0.9,0.3l1.2-0.1l1.2-0.4l0.9-0.5l1.2-1.4l0.5-1.1l0.6-0.5l1.6,0.3l0.5,0.3l0.3,0.3l0.4,0.2h0.7l0.6-0.4
			l1-1.1l0.7-0.2l1,0.1l1.1,0.3l2,0.9l1,0.7l0.7,0.8l1.2,2.1l0.7,0.8l1.9,1.6l0.3,0.5l-0.5,1.3l-0.5,1.1l0.1,1l1.3,1.1l7.9,3.7
			l0.5,0.5l0.4,0.5l0.5,0.5L621.7,263.2L621.7,263.2z"/>
		<path id="MM-11" class="st2" d="M654.8,172.6L654.8,172.6l1.6-1.1l1.7-0.9l1.7,1.5l2.3,6.9l1.5,2l1.8,0.6l3.5-1.7l2.2,1l2.7,3.7
			l2,1.2l0.8,0.8v1.1l-0.5,1.9l0.3,0.7l2.3,0.4l1,0.6l3.8,3.6l0.2,0.2l0.5,1.1l0.1,1.2l-0.3,5.9l-0.2,1.3l-0.7,1.4l0.4,0.7l2,1.1
			l1,1l0.7,1.1v0.9l-1.1,0.6l-1,0.7l0.3,1.1l1,1.2l2,1.3l0.2,0.6l-0.1,0.9v1.3l0.2,0.6l0.4,0.3l0.2,0.4l-0.6,1.5l0.2,0.6l1.9,3
			l0.9,2.1l1.2,5.1l1.1,2.2l2,0.9l2-0.6l1.1-1.5l0.6-2l0.3-2.1v-2.4l0.2-1.2l0.6-0.5l0.7,0.2l3,1.5l1,0.9l1.7-0.8l1.2,0.9l1.2,2.5
			l0.8,0.8l1.5-0.1l0.7-0.4l0.5-0.5l0.5-0.4h0.7l0.5,0.3l0.6,0.6l0.5,0.7l0.3,0.6l0.1,1.3l-0.6,2.6l-0.2,2.6l0.3,5.7l0.2,0.7
			l0.4,0.2h0.4l0.3,0.3l0.6,2.1l-0.2,2.1l-1.4,4.4l-0.4,1.9l-0.1,2.1l0.6,4.2l0.5,1.1l0.6,0.4l0.8,0.3l0.8,0.9l0.4,1.3l-0.3,1.1
			l-0.6,1.1l-0.5,1.2l1.3,5.7v0.6l-0.2,0.7l-0.8,1l-0.2,0.7l0.2,1.2l1.4,2.1l0.5,1.2l-0.1,1.3l-0.9,2.4l-0.1,1.3l0.8,2.1l0,0.5v0.5
			v0.4l0.2,0.6l0.3,1.3l-0.4,1.2l-1.2,2.1l-0.4,2.2l-0.2,8.4l-0.2,1.2l-0.3,1.2l-0.6,1.1l-2.3,2.7l-0.5,1.4l-0.3,1.2l-0.1,1.1
			l0.3,0.6l1.2-0.2l0.5,0.6l1.4,3.1l0.2,1l-0.3,0.6l-0.4,0.3l-0.4,0.4v1.3l-0.3,0.5l-2.1,1.7l-0.8,0.1l-0.4-0.7l0.1-2.3l-0.4-0.1
			l-1,0.4l-2.3,0.6l-0.7,0.7l-0.3,1l0.1,1.1l0.4,1.1l1.1,2.3l0.3,1.2l-0.1,1.4l0.4,0.8l0.6,0.1l0.7-0.1l0.7,0.2l0.5,0.6l1.9,2.9
			l0.5,1.2l0.3,0.2l0.7,0.3l0.3,0.4l0.2,0.8l-0.1,0.9l-0.3,0.8l-0.4,0.6l-3,2.4l-0.9,0.4l-0.6-0.1l-0.5-0.3l-1.6-0.6l-1.3-1.1
			l-0.7-0.3h-1l-0.7,0.5l-1.4,1.6l-0.8,0.7l-0.5,1.1l-0.8,2.2l-0.4,0.5l-0.5,0.3l-0.3,0.4l-0.1,0.7v0.8l-0.2,0.5l-2.2,2.7l-0.3,0.8
			l-0.7,2.8l-0.5,1l-0.8,0.7l-1.2,0.6l-1.3,0.5l-0.7-0.1l-1.7-1.7l-0.8-0.5l-4.7-1.7l-0.6,0.1l-0.1,0.8v3.1l-0.3,1l-0.6,0.8l-1.1,1
			l-0.3,0.4v0.4l0.3,1.7l0.2,0.5l0.2,0.6l-0.1,2.4l0.1,0.9l-0.2,0.5l-1.1,0.2l-0.8,0.6l-0.8,1.4l-1,2.7l-0.7,0.7l-2.4,1.2l-0.9,0.6
			l-2.6,3.4l-1.2,0.7l-1.2,0.1l-0.6-0.5l-0.4-0.9l-0.7-1l-2.1-1.1l-1.3,1.5l-1.4,5l-1.3,2.9l-1,1.5l-0.9,0.7l-1,0.4l-0.2,0.6
			l0.3,2.3l-0.1,4.3l0.3,2.1l0.9,1.9l2.1,1.7l0.7,1l-0.4,1.3l-1,0.5h-1.2l-2.3-0.5l-1.3,0.2l-1.2,0.8l-2.2,1.9l-3.9,2.6l0,0
			l-0.2,1.4l0.3,8l-1.4,8.6v1.5l0.4,0.5l4.7-0.7h1.4l0.9,0.2l0.4,0.4l0.3,0.6l0.2,0.7l0.1,0.6l0.3,0.7l1.1,0.8l0.4,0.6v1.3l-0.9,0.4
			l-1.2,0.1l-0.9,0.7l0.4,1.6l4.2,1.6l0.3,2.3l-0.3,0.5l-0.4,0.4L660,446l-0.2,0.7l0.2,0.7l0.8,1.1l0.3,0.6l-0.2,1.5l-0.7,1.4
			l-11,11.5l1,1.2l2.3,1l2.1,1.5l0.3,0.5l0.3,0.6l0.3,1.2l0.7-1l0.6-0.3l0.1,1l-0.5,1.2l-0.4,0.5l-1,0.5l-1.7,0.7l-5.8,1.1l-0.8,0.2
			l-2.9,2.2l-1.3,0.1l-0.7-0.1l-0.2-0.1l0,0h-0.2l-0.5,0.4l-1.5,1.5l-0.5-0.3h-0.2l-0.3,0.1l-0.3,0.3l-0.2,0.2l-0.1,0.2l-0.1,0.2
			l-0.2,0.1l-0.2,0.1l-0.9-0.2h-0.3l-1,0.1l-0.4,0.1l-0.4,0.2l-0.5,0.4l-0.7,0.7l-0.2,0.1l-0.2,0.1l-0.3,0.1h-0.4h-1.7l-0.6,0.1
			l-4.4,1.9H623l-1.2,0.1h-0.5l-0.8-0.1l-0.4-0.2l-0.2-0.2l-0.2-0.3l-0.2-0.6l-0.1-0.4l0.1-1.4v-0.3l-0.5-0.5l-2-0.7l-2.7-0.5h-0.9
			l-0.7,0.3h-0.3l-5.4-1.8v-0.1l-0.2-0.4l-0.1-0.4v-0.3l0.2-0.3l0.4-0.2l4.8-1.9l0.7-0.5l0.6-0.6l0.7-1.2l0.6-2v-2l-0.3-1.5L614,463
			l-0.3-1.5l-0.4-0.7l-0.4-0.3h-0.5l-0.6,0.3l-0.6,0.5l-0.4,0.5l-0.4,0.3h-0.6l-0.7-0.2l-1-0.6l-4.2-3.1l-1.2-1.5l-0.5-1.1l-0.2-3
			l-1.3-1.5l-1.2-2.4l-0.9-0.8l-1-1l-0.6-1.1l-0.2-1.4v-6.6l0.2-0.6l0.5-0.7l1.7-1.3l0.5-1.3l-2-1.2l-0.7-0.2L596,432l-1.2-0.3
			l-8.4-3.4l-1.8-0.1l-3,0.9l-3.6,0.6l-0.6,0.2l-0.4,0.4l-0.4,0.5l-0.5,0.3h-0.6l-0.6-0.6l-0.4-0.7l-0.5-0.6l-2.3-2l-1.6-1.8
			l-0.2-0.4l-1.8-5.2l-1.3-0.7l-5.4-1.2l-1-0.4l-0.7-0.4l-0.6-0.6l-0.6-1.3l-3-9.6l-2.6-6.5l1.2-0.8l2-0.8l2-0.6l2.2-0.7l1-0.6
			l0.7-0.5l0.5-0.5l0.3-0.6l0.2-0.4l0.3-0.2l0.3,0.1l0.2,0.2l0.1,0.3v0.4l-0.1,0.5l-0.4,1.6l-0.3,0.6l-0.3,1v0.7l0.2,0.5l0.3,0.3
			l0.5,0.1h0.5l0.6-0.3l0.4-0.4l0.3-0.4l0.3-0.7l0.5-2.6l0.1-1.1l-0.2-2.1l-0.7-1.8l-1.2-2.2l-2.9-3.7l-0.6-2.6l-0.7-12l0.3-5.5
			l0.6-2.5l0.6-0.8l0.5-0.1l0.4,0.1l0.6,0.5l0.4,0.5l0.3,0.5l0.4,0.4l0.5,0.2l0.6-0.1l0.4-0.3l0.4-0.4l0.4-0.7l0.8-1l3.3-2.6
			l1.1-1.2l0.7-1.2l0.2-1.3l-0.6-1.9l-3.1-3.8l-0.5-1l-0.7-2.9l-1-2.5l-0.1-0.8l0.1-1l2.9-7.1l0,0l0.1-0.1l0.3-0.3l0.5-0.3l0.5-0.6
			l0.4-0.7l0.3-2.2L571,324l-1.3-2l-0.4-1l-0.4-1.6L568,318l-0.8-1.1l-0.3-0.7l-0.1-1.6l-0.2-1l-0.6-1.1l-3.1-4.3l-0.3-0.6l-0.2-0.8
			v-0.6l0.7-1.1l3.2-0.8l1.5-0.6l1.5-0.8l1-1l0.3-0.6l0.1-0.3l-0.5-3.2L570,297l-0.4-1l-0.6-1l-0.9-1l-1.2-1l-1.8-1.8l-0.4-0.9
			l0.3-0.9l1-1l7.4-4.6l0.2-0.4l0.1-0.5l0.1-2.9l0.4-0.5l0.7-0.4l1.6-0.4l0.8-0.3l0.5-0.6l0.1-1.1l0.2-0.9l0.5-0.9l0.3-0.7l-0.3-0.5
			l-2-1.2l-0.8-0.6v-0.5l0.8-0.3l5.1,0.1l3.3,0.8l0.9,0.3l1,0.2h1l10-1.5h3.1l1.4-0.3l3.6-1.2l6.4-0.4l4.4,0.3l0.8-0.1l0.7-0.3
			l0.4-0.2l0.3-0.2l0.7-0.9l3.2-4.9l0.5-0.2l0.6-0.1l0.7,0.3l0.5,0.4l0.5,0.2l0.8-0.3l0.2-0.4l0.6-1.7l0.1-0.5l-0.3-0.7l-0.5-0.4
			l-0.5-0.3l-0.4-0.5l-0.2-0.6v-1.1l-0.3-0.5l-1.6-1.7l-9.4-12.4l-1.4-2.3l-0.3-1.2l0.8-1.9l-0.1-1l-0.2-0.6l-0.2-1.2v-0.6l-0.2-0.6
			l-0.6-1l-0.2-0.6V230l0.5-1.3l0.8-1.1l0.9-0.8l2.3-1.6l1-0.9l2-2.5l0.8-0.5l1.8-0.6l0.8-0.2h0.3l0.2-0.2l0.1-0.8l0.2-0.7l0.4-0.3
			l1.2-0.4l0.3-0.4l0.5-0.9l0.4-0.2l0.6-0.2l0.5-0.3l2.9-2.6l0.9-1.1l0.7-1.1l0.7-0.7l1.1-0.5l1.1-0.3l0.9,0.1l0.7,0.8v0.9l0.2,0.4
			l1.3-0.5l1.1-0.6l0.3-0.5l-0.1-0.8v-1.5l0.2-1.1l1-1.9l0.3-0.9l-0.4-1.8l-2.8-3l-0.8-1.7l0.3-2.2l1.7-4l-0.3-1.8l0.6-1.2l2-1.2
			l0.5-0.7l0.4-1.4l0.8-0.2l1.1,0.2h1.2l0.6-0.7l0.2-1.3v-2.4l-0.1-0.6l-0.2-0.6l-0.1-0.6l0.3-0.6l0.9-1l0.3-0.5l0.2-0.7l0.8-1
			l0.9-2.3l0.6-1.1l0.8-2.3l1.1-0.6l1.2,0.9l1.3,2L654.8,172.6L654.8,172.6z"/>
		<path id="MM-05" class="st2" d="M680.3,1315.8L680.3,1315.8l-1.2,0.3l-1.1-0.2l-0.6-0.7l0.4-1.1l0.9-0.4l0.9,0.3l0.6,0.8
			L680.3,1315.8L680.3,1315.8z M691.6,1300.2L691.6,1300.2l1.2,0.4l0.2-0.2l0.2-0.1l0.8,0.2v0.4l-0.9-0.1l-0.3,0.2v0.3l0.1,0.4
			l0.3,0.4l0.5,0.2l0.3,0.3l-0.3,0.6l-1.1,0.3l-0.6,1l-0.4,1l-0.4,0.5l-0.9,0.3l-2,1.3l-0.8-0.1l-0.2,0.7l-0.3,0.6l-0.1,0.4l0.2,0.4
			l-1.5,2.4l-0.7,0.7l-0.1-1.1l-0.6,0.2l-0.2-1.2l0.1-1.5l0.1-0.8l0.2-0.5l0.2-1.7l0.8-0.2l0.4-0.4l0.2-0.4l0.2-0.2l0.3-0.2l0.2-0.5
			l0.2-0.5l0.2-0.4l0.4-0.3l1.5-0.9l1.7-1.5L691.6,1300.2L691.6,1300.2z M688.2,1299.8L688.2,1299.8l-0.5,1.7v-4.6l-0.1-0.3
			l-0.6-0.8l-0.1-0.5l0.2-0.7l0.4-0.6l0.2-0.5l-0.4-0.5v-0.4h1l1.5,0.9l1,0.3v0.3l-0.1,0.1h-0.2l-0.2,0.1l-0.2,0.3l-0.2,0.2v0.3
			l0.3,0.4l-0.9,0.5l-0.6,0.4l-0.4,0.6L688.2,1299.8L688.2,1299.8z M671.8,1276.2L671.8,1276.2h0.6l0.3-0.1l0.3,0.3l0.3,0.4l0.5,1
			l-0.3,0.3l-0.3,0.2l-0.4,0.1l-0.5-0.1l0.5,0.9l0.3,0.3l-1.2,0.6l-0.9-0.2l-0.2-0.8l0.8-1.1l-0.4-0.7l-0.3-1.1l0.2-1l0.9-0.4
			l-0.5,0.9L671.8,1276.2L671.8,1276.2z M688.9,1275.7L688.9,1275.7l-0.8,0.1l-0.4-1.1l0.3-0.8l0.7-0.5l0.9-0.2l0.9-0.1l-0.1,0.2
			l-0.2,0.2l-0.1,0.2l-0.4,1.3L688.9,1275.7L688.9,1275.7z M708.8,1255.2L708.8,1255.2l-0.7,2.1l-0.8,0.6h-1l-0.6-0.4l0.3-0.7
			l0.5-0.2h0.4l0.3-0.1l0.1-0.5l-0.2-0.4l-0.4-0.2l-0.5,0.1l-0.5,0.3v-0.8l-0.3-0.8l-0.2-0.9v-0.8l0.2-0.6l1.4,0.7l1.3,1.1
			L708.8,1255.2z M671.8,1253.8L671.8,1253.8l-1.5,0.7l0.4-0.6l0.2-0.6v-0.6l-0.2-0.7l0.3-1.7l0.9-0.7h1.2l1.2,0.3l-0.6,1.6
			l-0.8,1.2L671.8,1253.8L671.8,1253.8z M689.8,1249.7L689.8,1249.7l0.2,1.1l0.1,1.1l0.3,1l0.7,0.7l0.8,0.5l0.6,0.7l0.2,1.1v1.2
			l0.3,0.8l1.1,0.2l-0.5,0.8l-0.2,0.7l0.1,0.7l0.6,0.6h-0.3l-0.1,0.1v0.2l-0.1,0.2l-0.7,1.3l-0.5,0.5l-1,0.2l-0.8-0.2l-0.3-0.6
			l0.1-1.9l0.3,0.2l0.1,0.2l0.9-0.7l-0.2-0.6l-1-0.7v-0.9l0.5-1.8l-0.1-1l-0.2-0.2l-0.8-0.3l-0.2-0.2v-0.5l-0.1-0.3l-0.1-0.2l-1-1.3
			l-1.1-1l-0.1,0.3l-0.2,0.3l-0.1,0.2l-0.3-2l-0.5-0.3h-0.5l-0.4,0.3l-0.2,0.6l-0.4,0.4l-1.8,1.2l-0.6,0.2l-0.7-0.6l0.5-0.9l1.4-1.5
			l0.2-0.3l0.8-0.5l0.3-0.2l0.1-0.4l0.2-1.1l0.2-0.4l0.7-0.2l1,0.1l1.1,0.4l0.8,0.7l0.6,0.9L689.8,1249.7L689.8,1249.7z
			 M702.3,1247.5L702.3,1247.5h-0.4l-0.2-0.8l0.2-0.9l0.5-0.6l0.5,0.1l0.1,0.9l-0.3,0.7L702.3,1247.5z M708.2,1246.1L708.2,1246.1
			l0.1,1.6l-0.1,0.4l-0.5,0.2l-0.2-0.4l-0.1-0.6v-0.4l-0.5,0.2l-0.4,0.4l-0.2,0.5v0.6l-1.3-0.6l-0.5-1l0.1-1.2l0.5-0.9l0.9-0.7
			l0.4-0.4l0.3-0.5l0.1-0.6l-0.1-1v-0.4l0.6-1l0.4,0.2l0.3,0.9l0.4,2.2v0.9L708.2,1246.1L708.2,1246.1z M692.9,1230.9L692.9,1230.9
			l0.3,0.1l0.5-0.1h0.5l0.2,0.4l-0.4,0.6l-0.9,0.5l-1.8,0.5v-0.8l-0.2-0.9l-0.6-0.6l-0.6-0.5l-0.1-0.4l0.7-0.3l1.2-0.1h1.7l-0.4,1.2
			L692.9,1230.9L692.9,1230.9z M693.3,1215.6L693.3,1215.6l-0.5,1.7l-0.4-0.4l-0.1,0.3l-0.1,0.3l-0.1,0.3v0.4l-0.5-0.5l-0.8-1
			l-0.2-0.5l-0.4,0.4l-0.2,0.3v0.3l0.2,0.5l-1,0.1l-0.5,0.4l0.2,0.4l0.9,0.3l-0.6,0.3l-0.7,0.2h-0.7l-0.6-0.2l-0.7-0.2v-0.3v-0.9
			l0.6,0.2l0.5-0.1l0.5-0.3l0.4-0.6l-0.2-0.5l-0.2-1.2l-0.2-0.4l-0.1-0.6l0.5-0.4l0.6-0.3l0.3-0.3l-0.1-0.5l-0.3-0.2l-0.3-0.3
			l-0.1-0.7l0.2-0.5l0.8-0.6l0.3-1.1l0.4-0.2l0.4-0.1l0.2-0.2v-0.7l-0.4-1.2l-0.1-0.6l0.3-1.2l1.7-3.2l0.3-2.6l0.3-0.8l0.8,0.1
			l0.8,1.3l0.7,1.6l0.3,1.1l-0.2,0.5l-0.4,0.2l-0.4,0.1l-0.2,0.2l-0.1,0.6l0.1,1.8l-0.7,2.4l-0.1,1.2l0.5,1.2l-0.8,1.5L693.3,1215.6
			L693.3,1215.6z M647,1199.2L647,1199.2l0.2,0.6l-0.9-0.3l-0.3-0.2l-0.8-0.8h1L647,1199.2z M708.3,1198.6L708.3,1198.6l0.3,0.4
			l0.2,0.6l0.2,0.7l0.1,0.6l-0.1,1.8l-0.5,1.7l0.2,4.5l-0.2,0.7l-0.8,0.9l-0.2,0.7l0.1,0.8l0.2,1.4l0.1,0.8l-0.7-0.5l-0.9-1.1
			l-0.5-0.4l-0.6-0.2l-0.7-0.2l-0.7-0.3l-0.3-0.5l-1,1.2l-0.5-0.2l-0.2-1l0.1-1.3l-0.5,0.3h-0.3l-0.2-0.3l-0.2-0.4l0.4-1.2l-0.5-0.8
			l-0.7-0.6l-0.4-0.4l-0.7-1.7l0.2-0.8l1.3-0.2l-0.4-0.5l-1-0.9l-0.2-0.4l0.1-0.8l0.3-0.3l0.4-0.1l0.3-0.3l0.2-0.1l0.5-0.3l0.2-0.3
			l-0.7-0.1h-0.6l-0.5-0.1l-0.4-0.2l-0.3-0.6l1.3-0.3l2.5,0.4l0.8-0.1l-0.2-0.2l-0.1-0.2l-0.1-0.4h0.8l1.6,0.4l0.7-0.1l1.3-0.4
			l0.8,0.1L708.3,1198.6L708.3,1198.6z M680,1201.5L680,1201.5l0.3,1.2l1.4-0.3l-0.1,0.7l-0.3,0.5l-0.5,0.4l-0.6,0.3l0.5,0.2
			l0.2,0.4v0.5l-0.3,0.6l1,1.2l0.3,0.5l0.2,0.8l-1.4-0.8l-0.4-0.4l-0.1-0.4l-0.3-0.3l-0.8-1.3l-1-0.6l-0.3-0.4l0.7-0.2l0.2-0.5v-1.2
			l-0.3-1.1l-0.9-0.4l0.3-1.5l-0.7-3.2l0.8-1.4l-0.1,2.2l0.1,0.7l0.3,0.3l1.5,1.2l0.4,0.8L680,1201.5L680,1201.5z M657.8,1194.8
			L657.8,1194.8l0.3,1.5h-0.2l-1-0.4l-0.5-1.3v-0.7l1.2-1.5l0.6,0.5l0.2,0.6l-0.1,0.6l-0.4,0.6L657.8,1194.8L657.8,1194.8z
			 M693.3,1194.7L693.3,1194.7l-0.6,0.7H692l-0.4-0.2v-1.5l0.2-1.1l0.5-0.4l1.1,0.7l0.2,0.8L693.3,1194.7L693.3,1194.7z M692,1191.1
			L692,1191.1l-0.5,0.2l-0.5-0.1l-1.1-1.7l0.5-0.8l0.9-0.4l0.5,0.2l0.1,0.6l0.3,1.1l-0.1,0.5L692,1191.1z M706.9,1186.4
			L706.9,1186.4l1.2,0.7l1-0.3l0.9,0.4l1.7,1.5l2.2,0.6l1,0.5v0.9v-0.3l-1.5,0.5h-3.4l-1.2,0.5l-1,0.8l-1.1,0.8l-1.2,0.4l-1-0.1
			l-0.9-1.8l-0.2-0.8v-0.8l0.1-0.5l0.6-0.9l0.1-0.4l-0.1-0.6l-0.3-0.3l-0.4-0.2l-0.6-0.7l-0.3-0.2l-0.2-0.3l-0.1-0.6v-1.8l-0.5-1.8
			v-0.8l0.5-0.7l0.4,0.6l1.6,1.4l1.2,1.7l0.9,1.9L706.9,1186.4L706.9,1186.4z M682.6,1175.1L682.6,1175.1l-0.1,0.7l0.5-0.3l0.8-0.3
			l0.7-0.1l0.3,0.5l0.2,2.5l-0.2,0.6l-0.4-0.9l-0.8-0.7l-1-0.2l-1,0.6l-0.3-0.2l-0.1-0.1l-0.1-0.1l-0.8-1.4l-1.1-1.1l-0.3-0.8
			l0.2-1.1l0.5-1.3l0.7-1.1l0.8-0.5l1.1,0.1l1,0.2l0.6,0.5l0.2,1v0.6l-0.2,1.2l-0.2,0.5l-0.3,0.4l-0.4,0.4L682.6,1175.1
			L682.6,1175.1z M682.5,1165.3L682.5,1165.3l-0.5,0.3h-0.3l-0.4-0.2l-0.5-0.1v0.3l-1,1.7l-0.5,0.5l-0.6,0.4l-0.6,0.2l-0.5,0.1
			l-0.1,0.3l-0.5,2.1l-0.5-1l-0.2-0.2l-0.2-1l-0.7-0.1l-0.8,0.2l-0.5-0.3l0.2-0.8l0.7-0.6l0.6-0.6l-0.3-0.8l-0.8,0.6l-0.2,0.3
			l-0.2,0.4h-0.4l0.1-1.7l0.8-0.7l1.2-0.3l1.8-1l0.6-0.1l0.3,0.2l-0.3,0.6l-0.5,0.5l-0.2,0.4l0.1,0.4l0.5,0.5l0.7-0.2h0.3l0.5,0.1
			v-0.6l0-0.7l0.2-0.5l1-0.5l0.3-0.7l0.2-0.7l0.2-0.4l0.9,0.3l0.6,1l0.2,1.3L682.5,1165.3L682.5,1165.3z M706.2,1162.7L706.2,1162.7
			l-0.8,0.2l-0.8-0.3l-0.5-0.9l0.8-4l0.6-1.2l0.8,1l0.2,1l-0.2,3.3L706.2,1162.7L706.2,1162.7z M693.2,1157.1L693.2,1157.1l-1.3,0.5
			l-1.3-0.6l-0.4-0.7v-0.6l0.2-1.5l0.2-0.2l0.4-0.1l0.4-0.1l0.2-0.4l0.2-0.4l0.3,0.3l0.3,0.5v0.2l1.3,1.8L693.2,1157.1z M669,1153.8
			L669,1153.8l-0.7,1.3v-0.2l-0.1-0.2l-0.2-0.1l-0.2-0.2l-0.1-0.4l-0.1-0.1h-0.2l-0.3,0.1v-0.4l0.2-0.4l-0.2-0.2l-0.3-0.2l-0.2-0.5
			l0.2-0.2l0.5-0.3l0.5-0.2l0.2,0.2l0.2,1l0.4,0.5L669,1153.8L669,1153.8z M700,1153.1L700,1153.1l1.4,2.5l0.2-1.5l0.5-1.9l0.7-1
			l0.9,1.2l0.2,1.6v2.3l-0.3,2.2l-0.5,1.3l-3.7,5.7l-2.4,2.1l-2.8-0.7l0.5-1.3l0.2-0.3l0.2-1.2l0.8-2.4l0.2-1.4l-0.1-0.5l-0.5-0.8
			l-0.3-0.8l-0.2-0.2l-0.1-0.3l0.2-0.3l0.5-0.3l0.4-0.3l0-0.4l-1.1-2l-0.7-2.7v-2.8l0.8-2.4l1,1l3.1,0.8l1,1.1v0.5l-0.4,2.5
			L700,1153.1L700,1153.1z M669.1,1141.7L669.1,1141.7h-0.6l-0.9-0.4l-0.1-1.2l0.4-0.8h0.6l0.7,1l0.2,0.9L669.1,1141.7L669.1,1141.7
			z M694,1122.9L694,1122.9l0.5,0.1l0.4-0.3l0.5-0.2l0.7,0.4l0.4,0.6l-0.1,0.4l-0.6,0.6l-0.4,0.5l-0.3,0.2l-0.3,0.3l-0.2,0.7
			l-0.1,0.5l0.1,1.9l0.6,2.5l0.1,1.2l-0.7,0.7v-1.2l-0.8-1.4v-1l-0.4-1.1l-0.8-3.7l-1.3-3.6l-0.3-1.2l-0.1-1.2l0.2-2.7l0.3-0.7h0.8
			l0.4,0.9l1.2,5.9L694,1122.9L694,1122.9z M672.7,1081.6h-0.4l-0.2-1v-1.7l0.3-1.5l0.8-0.3l0.3,0.4l-0.3,0.7l-0.2,1.2L672.7,1081.6
			L672.7,1081.6z M683.8,1009.8L683.8,1009.8l1,0.1l3.1-0.1v0.3l0.2,0.6l1.1,2l0.4,1.3l-0.1,2.2l0.1,1.2l0.2,0.3l0.6,0.5l0.2,0.4
			v0.3l-0.2,0.9l0.5,1.2l3.1,5l6.9,6.7l0.8,1.2l0.5,1.3l0.3,1.4l0.4,0.8l0.7,0.3l0.7,0.4l4,8.2l2.6,3.3l0.5,0.5l0.8,0.5l0.4,0.2
			l0.9,0.2l0.4,0.2l0.4,0.4l0.7,1l0.4,0.3h0.9l0.7-0.3l0.6,0.1l1.4,2.8l1.3,1.4l6.8,5.2l1.2,0.6l1.4,0.4l1,0.7l0.6,1l0.1,1.3
			l0.3,1.1l1.8,2.2l0.7,1.1l0.6,1.3l0.5,0.7l1.8,1.4l0.3,0.3l0.3,0.9l0.2,0.3l0.3,0.2l0.8,0.2l0.3,0.2l0.3,0.5l0.1,0.4v0.4l-0.1,0.7
			v1l0.6,2.8l0.5,1l1.9,1.8l0.3,0.5l0.3,0.5v1.5l-0.2,1.3l0.1,5l2.1,9.2l0.1,1.1l-0.3,2.9l0.2,1.1v0.6l-0.2,0.6l-0.3,0.5l-0.2,0.6
			v0.8l0.7,2.2l0.2,1.2l-0.2,1v0.1l-0.8,0.7l-2.3,0.3l-1.1,0.4l-0.7,1v1.2l0.2,1.3l-0.2,1.5l-0.5,1.4l-0.3,1.3l0.3,1.2l1.3,1l1,0.6
			l1.1,1l0.8,1.1l0.1,1.2l-0.2,0.7l-0.3,0.5l-0.2,0.5l0,0.8l0.1,0.6l0.8,1.8l0.2,1.8l0.2,0.6l0.5,0.6l1.2,1.1l0.4,0.7l0.2,1.2
			l-0.1,1.1v1l0.6,1l0.5,0.2l1.3,0.2l0.6,0.4l0.2,0.6l0.1,1.2l0.2,0.5l0.5,0.3l1.3,0.4l0.4,0.4l0.4,0.6l0.6,0.6l0.6,0.5l2.8,1.6
			l0.5,0.8l0.1,0.5l0.2,0.9v1.3l-0.2,1.3l-0.2,0.6l-0.6,1.2l-0.1,0.6l0.2,1.2l1.3,2.4l0.4,1.3l0.2,3.3l0.2,1.1l0.3,0.7l0.9,1.1
			l0.4,0.7l0.2,0.6l-0.1,1.1v0.6l0.2,0.6l0.6,1.2l0.2,0.6l-0.1,0.8l-0.5,0.5l-0.5,0.4l-0.3,0.6l0.2,1.1l0.8,0.2l3.2-1.1h0.6l0.5,0.2
			l0.2,0.5l-0.1,0.6l-0.2,0.6l-0.1,0.7l-0.9,2.8l-0.2,1.6l0.9,0.8l1.1,0.4l0.8,0.7l0.4,1l-0.1,1.2l-0.9,2.4l-0.2,1.2l0.4,1.3
			l0.7,0.9l1,0.9l1.1,0.7l1,0.3l0.1,0.6l-0.8,3.9l-0.5,1.4l-3.7,5l-0.7,0.6l-2.4,0.1l-1.3,0.3l-0.9,0.6l-0.5,1l-0.1,1.4l0.1,2.4
			l-0.2,1l-0.5,1.2l-0.7,1l-1.7,1.7l-0.5,1l-0.3,1.4l-0.1,1l-0.4,1l-2.2,2.4l-0.6,0.9l-0.9,2.4l-0.7,1.3l-1.9,2.2l-0.7,1.3l-1.7,5.2
			l-0.4,0.5l-1.2,0.4l-0.6,0.3l-0.4,0.5l-0.5,1.2l-0.4,0.6l-0.6,0.5l-0.4,0.3l-2.3,1.2l-0.9,1l-0.2,0.5l-0.5,1.8l-0.5,0.7H737
			l-0.6-0.3l-0.7-0.2l-0.7-0.1l-0.3-0.2l-0.2,0.1l-0.5,0.6l-0.3,0.5l-0.2,0.6l-0.1,0.6v0.6l0.1,0.7l0.5,1.2v0.9l-0.2,1.2l-0.2,0.4
			l-0.4,0.5l-0.3,0.1l-2,0.9h-0.6l-0.5-0.2l-0.5-0.1l-0.8,0.3l-0.5,0.6l-0.2,0.6l-0.2,0.6l-0.4,0.5l-0.4,0.1l-1.2,0.1l-0.5,0.2
			l-1.1,1l-2.5,3.4l-0.6,1.3l-0.5,2.5l0.2,0.8l1.1,1l0.4,0.6l0.8,3.7l-0.1,1.2l-0.8,2.2l-0.6,3l-1.1,3.5l-0.4,0.2l-0.3,0.2l-0.2,0.3
			l-0.7,1.4l-0.9,2.9l-0.4,2.3l-0.5,0.9l-1.3,1.3l-1.2,1.8l-3.1,6.6l-1.7,2.3l-1,0.9l-0.5-0.6l-0.1-0.5l-0.5-0.8l-0.2-0.5l-0.1-0.6
			l0.1-1.2v-0.6l-0.3-1.9l-0.1-2.7l-1.2-1.9l-0.2-0.7v-0.4l0.1-0.4l1-2.4l0.2-1l0.3-2.7l0.7-2.1v-1.2l-0.9-3.4l-1-1.7v-1.2l0.4-2.5
			l-0.3-2.4l-1.9-4.3l-0.2-2.5v-2.5l0.2-0.8l0.7-0.3l1.2,0.2l0.7,0.5l1,1.7l0.6-0.7v-0.8l-0.4-0.8l-0.6-0.5l0.7-0.3l0.7,0.1l0.6,0.4
			l0.5,0.6l0.4-0.9l0.4-1.6l0.3-0.7l1-1.4l0.2-0.8l-0.3-1h0.6l0.5-0.1l0.5-0.3l0.4-0.4l-0.6-0.2l-1.4-0.1l-0.5-0.2l-0.2-0.3
			l-0.2-0.5l0.2-0.4l1.8-0.5l0.6-0.7l0.5-0.7l0.8-0.3l0.3,0.1l0.6,0.5l0.5,0.2l0.1-0.2l0.8-0.3l0.8-0.2l0.2,0.2l0.4-0.7l0.2-1
			l0.1-1.1l-0.3-0.8l0.4-0.3l-0.4-0.6l-1-0.7l-0.2-0.3l0.1-0.7l0.3-0.3l0.4-0.2l0.5-0.3l0.3-0.7l-0.2-0.8l-0.5-1l-0.2-1.3l-1,0.3
			l-0.7-0.5l-1-1.8l2.5-0.7l1.2-0.7l0.5-1.2v-1.8l0.7-1.7l0.3-1.2l0.3-0.4l0.1-0.3l-0.7-1l-1.2-2.8l-0.3-1v-1l0.3-1l-1.4,0.3
			l-0.3-0.5l0.5-2l0.5-1.2l1.2-0.4l2.3-0.2l-0.9-1.3l-0.1-2.3l-0.5-1l-0.5-0.1l-0.9,0.4l-0.5-0.3l-0.1-0.5l0.5-1l-0.3-0.5l0.8-1
			l0.2-0.9l-0.2-2.1l0.1-1l0.3-1.3l0.6-1l0.9,0.1l0.7-0.4l0.4,0.2l0.4,0.4l0.6,0.2l0.6-0.2l0.1-0.6v-0.7l0.2-0.6l0.7-0.1l1.1,0.2
			l1.1,0.4l0.7,0.4h0.4l-0.9-1.7l-4.1-0.8l-1.2-1.1l0.4-1.4l1.2-1.3l0.8-1.4l-1-1.5l0.4,1l-0.3,0.7l-0.6,0.5l-0.5,0.7l-1.3,2.4
			l-0.4,0.1l-1-0.1l-0.2,0.2l-0.2,0.1l-0.7,0.7l-0.1,0.2l-0.7,0.3l-0.2,0.7v0.9l-0.3,0.7l-0.6,0.6l-0.5,0.2l-0.6-0.1l-1.5-0.9
			l-1.8-1.4l-0.4-0.4l-0.1-0.6l-0.3-0.7v-0.5l0.1-0.4l0.7-1.2l0.3-0.2l0.3,0.1l0.2-0.1l-0.1-0.6h-1.6l0.9-1.3l0.3-0.3l0.4-0.1h0.5
			l0.5,0.1l0.2,0.1l0.5-0.9l0.5-1.1l0.7-0.8l1.5-0.1l-0.7-0.8h-1.2l-2.4,0.8h-4.7l0.5-1.2l1.2-0.4l2.8,0.1l1-0.2l1.1-0.6l0.9-0.7
			l0.7-1.3l0.7-0.3l0.7-0.1l0.3-0.2l0.1-2l-0.1-0.6l-0.4-1l-0.5-0.7l-0.1-0.7l0.5-0.9l-2.7,0.2l-0.4-0.4l-0.8-0.6l-0.7-0.7v-0.6
			l0.4-0.7l-0.3-0.5l-0.4-0.6l0.1-0.8l0.4-0.3l0.7-0.2l1.3-0.3v-0.2h-0.8l0.5-0.6l1.6-0.9l0.8-0.7l0.2-0.7l-0.2-0.7l-0.4-0.6
			l-0.4-0.2l-1.9,0.3l-1.3,0.7l-1.1,0.9l-1.4,0.9l-0.5-0.2l-1-0.3l-0.4-0.2l-0.9-0.9l-0.5-1.1l0.1-1.1l0.7-1.1l0.9-0.7l1.1-0.4
			l5.1-1l1.2-0.8l0.5-1.2l-0.4-0.9l-0.9-0.5l-1.9-0.8l-1.4-1.4l-0.3-0.2l-0.8-0.3l-0.1-0.6l0.3-1.3l0.1-1.3l0.3-0.7l0.7-0.4l1.3-0.2
			h2.2l0.7-0.2l0.4-0.4l0.1-0.4l-0.4-0.2l-0.5-0.1l-0.8-0.5l-0.5-0.3l-0.6-0.1h-0.6h-0.6l-0.5-0.3l-0.5-1.2l0.5-1.2l0.8-1.2l0.4-1.3
			l0.2-0.2h0.4l0.4,0.1l0.2-0.1l0-0.4l-0.4-0.9l0.2-1.7l0.3-0.7l0.4-0.6l0.4-0.3l0.3-0.4l0.1-0.9l-0.2-0.2l-1.6,0.4l-0.8-0.1
			l-0.4-0.3v-0.4l0.2-0.4l0.5-0.2h0.6l0.6-0.1l0.3-0.6l-0.5-0.3l-2.4,0.3l-0.6-0.6v-0.7l0.1,0.1l0.3-0.1l0.6-0.3l0.4-0.1l0.3-0.2
			l0.3-0.7l-1-4.8l-0.5-0.3l-1.3-1.6l-0.7-0.5l0.6-1.3l0.4-0.5l0.4-0.2l-0.2-0.3l-0.8-2.1l-0.6-1.2l-0.1-0.6l-0.2-2.3l0.1-0.7
			l0.5-0.4l-0.4-1.7l-0.3-4.3l-0.7-0.9l-0.7-0.4l-3-2.4l-0.3-2.2l-0.3-0.7l-0.6,0.8l-0.2-0.5l-0.2-0.6v-0.6v-0.7l-0.7-1.8v-0.8
			l0.7-0.6l-0.1-0.4v-0.5l0.1-1.1l-0.5,0.3l-0.3,0.5l-0.4,1.2l0.1-1l-0.2-0.9l-0.3-0.8l-0.3-0.6l-0.3-0.3l-0.3-0.2l-0.3-0.3
			l-0.2-0.5v-0.4l0.6-0.5l0.1-0.4l-0.3-0.7l-1.3-1.9l-0.5-1.2l-0.6-0.6l-0.8-0.4l-0.8-0.2l0.2-0.7l-0.2-0.5l-1.2-0.8v-1.3l-2.2-3
			l-0.6-1.4l0.4,0.4l0.4-0.8l-1.5-0.4l-1.1,0.1l-0.7-0.5l-0.3-1.9l0.7-2.1l0.1-0.9l-0.1-0.8l-0.2-0.8v-0.8l0.4-0.9l-0.3-0.6
			l-0.8-3.2v-2.6l-0.1-0.6l-0.2-0.5v-0.4l0.4-0.4v-0.4l-0.6-0.6l-0.8-1l-0.7-1.1l-0.3-1h-0.4l-0.1,0.7l-0.3,1.2l-0.1,0.7l0.2,0.3
			l0.8,1l0.2,0.3l-0.1,1.7l-0.3,0.8l-0.6,0.8l-0.1,0.8l0.9,2.3l0.2,1l-0.1,1.1l-0.5,2.1l-0.5,4.9l0.8,2.7l0.1,1.1l-0.1,1l-0.5,1.1
			l-0.2,0.3l-0.2,0.3l-0.2,0.3l-0.2,0.6l-0.1,0.7v0.6l0.2,1.2l0.7,0.7l0.2,0.5l-0.5,0.4h-0.5l-0.4-0.3l-0.7-0.8l-0.1,0.4l-0.2,0.4
			l-0.1,0.3l-0.1-0.7v-0.8l-0.1-0.7l-0.4-0.3l-0.2-0.2l0.3-0.6l0.5-0.6l0.4-0.3l-0.2-0.3l-0.3-0.6l-0.2-0.3l0.8-0.2l0.4-0.7v-0.9
			l-0.4-0.9h1l0.1-0.5l-0.5-0.5l-0.7-0.3l-1.4,0.1l-0.4-0.1l-0.8-0.3l0.2-0.4l0.4-0.9l0.2-0.4l-1.4-0.6l-0.5-1.8l0.4-1.5l1.2,0.3
			l-0.3-2.6v-2.5l0.3-0.9l0.1-0.6l-0.2-0.2l-0.3-0.1l-0.5-0.2l-0.5-0.3l-0.2-0.4l-0.2-1.4l-0.8-2.4l-0.2-1.2l0.3-1.3l1.3-1.8
			l0.5-0.9l0.1-0.8l0.6-1l0.1-0.8l-0.1-0.6l-0.7-2.1h0.8l-0.2-0.8l-0.3-0.6l-0.3-0.1l-0.3,0.8l-2.7-3.7l-1.6-3.4l-1.2-1.8l-0.4-1.3
			l-0.3-1.4l-0.1-1.2l0.2-1.3l0.8-1.8l0.1-1.1l-0.5,0.5l-0.4,0.6l-0.5,0.3l-0.6-0.3l-0.2-0.6l-0.6-2.7l-1.8-3.2l-0.5-1.7l0.7-1.6
			l-1.5-1l-0.8-1.5v-1.7l1.1-1.5l2.2-0.7l1.5,1.4l1.4,2l2,0.9l-2-2.7l-0.6-1.3l1-0.4l-0.9-0.3l-0.8-0.5l-0.4-0.7l0.5-1l-0.4-0.3
			l-0.4-0.5l-0.3-0.5l-0.1-0.4l-0.1-0.3l-0.3,0.2l-0.4,0.6l0.1,0.1l0.2,0.3l0.2,0.4v0.4l-0.8,0.7l-0.8-0.4l-0.6-1l-0.2-1.3h-0.4
			l-0.2,1.1l0.4,2.5l-0.5,0.5l-0.3,0.1l-0.3,0.3l-0.4,0.3l-0.7,0.1l-0.4-0.2l-0.3-0.3l-0.3-0.4l-0.2-0.4l-1.6-6.8l-1.2-1.8l0,0
			l0.1-0.1l1.4-1l0.8-0.9l1.2-1.8l1-2l0.5-1.3l0.4-1.6l0.3-2.2l0.2-0.5l0.3-0.4l1.2-0.1h0.7l2-0.2l1-0.2l1.5-0.6l0.5-0.1l0.4,0.2
			l0.5,0.5l2.2,3.7l0.7,0.8l0.6,0.5l0.2,0.1l0.3,0.2L683.8,1009.8L683.8,1009.8z"/>
		<path id="MM-17" class="st2" d="M723.6,492.9L723.6,492.9l1.2-0.4h1.1l0.9,0.9l0.7,1.3l0.8,2.5l0.2,1.2l-0.1,1.2l-0.5,1.1
			l-0.5,0.3l-0.7,0.3l-0.5,0.4v0.6l0.4,0.2l2.1-0.1l0.8,1.6l-2.9,5.3l-0.1,2l4.3,0.5l2.2,0.6l1.1,0.1l1.1-0.1l1,0.1l0.4,0.9l0.3,1.2
			l0.9,1.1l1.1,0.5h1l2.2-0.3l0.5,0.1l1.5,0.5l0.8,0.1l0.2,0.1h0.1l0.5-0.1l0.3,0.2v1.2l0.1,0.4l0.4,0.3l0.4,0.2h0.5l0.6-0.3
			l1.2-1.1l0.5-0.3l1-0.3l0.5-0.5l0.5-1l0.7-0.9l1.1-0.2l1,0.6l1.7,2.4l1.3,0.8l4.3,0.2l0.8,0.5l0.1,0.9l-0.2,1l-0.1,1l0.5,1
			l2.1,2.8l0.2,1.4l-1.3,1.1l-1.8-0.1l-3.1-1.6l-1,0.4l-0.1,0.7l0.3,2.8l-0.1,1.1l-0.6,1l-1.4,1.7l-1.1,2.4l-0.5,0.4l-0.7,0.2
			l-0.6,0.3l-0.6,0.4l-0.5,0.5v1.6l2.7,6.9l0.1,1.3l-0.6,2.1l-0.2,1.2l0.1,0.7l0.6,1l0.1,0.7l-0.2,0.7l-0.5,0.7l-3.6,3.8l-2.3,1.2
			l-0.3,0.8l0.2,0.4l0.3,0.5l0.1,0.8l-0.3,0.8l-1,1.2l-0.4,0.7l-0.7,3l-0.4,1l-1.9,2.5l-0.4,1.2l0.9,1l-1.8,0.9l1.3,1.3l2.6,1.2
			l2.3,0.6l4.4,0.5l2-0.2l3.5-1.5l0.8-0.1l3,1.2l0.8,0.1l2-0.2l5.4,1.4l0.5,0.3l0.4,0.5l0.5,1.1l0.2,0.4l1.2,0.6l0.6-0.5l0.6-0.9
			l1.1-0.6l0.9,0.2l3.5,1.8l0.4,0.4l0.3,0.5l0.4,0.3l0.7-0.1l0.5-0.5v-1.2l0.3-0.5l1.1-0.2l4.3,0.8l-0.4,0.8v0.8l0.3,0.8l0.6,0.7
			l0.9,2l-0.6,2.4l-2,4.5l-0.1,1.4l0.2,1l1,2.2l0.6,3.5l0.6,1l2.1,1.2l4.9,0.1l2.2,0.7l0.8,0.7l0.5,0.5l0.2,0.3l-0.1,0.6l-0.5,0.2
			l-0.6,0.1l-0.6,0.3l-0.7,0.8l-0.5,1l-0.4,1l-0.2,0.9v1l0.2,1.4l0.4,1.3l0.6,0.8l1.2,0.8l2,2.8l1.4,0.5l0.6-0.3l1.9-1.5l0.7-0.2
			l1.8-0.7l0.8-0.5l0.7-0.7l0,0l0,0l0.7-1.1l0.7-0.7l0.9-0.4l1.2-0.1l1.2,0.1l0.9,0.6l1.7,1.4l0.3,1.1l0.5,0.9l0.8,0.5l1-0.1
			l1.3-0.3l2.8,0.5l1.5-0.1l2.9-0.9l1.4-0.7l0.9-0.9l0,0l0,0l2.4-1.3l3-3.3l2.3-3.5l2.2-2l2.5-1.2l5.6-1.7l1-0.4l2.9-2.1l0.7-0.6
			l0.8-0.4l0.8-0.3l2.1,0.4l0.3,1l0.2,3l0.5,0.6l0.7,0.5l0.7,1.2l0.4,1.3l-0.1,0.9l0.4,0.7l-0.3,0.7l-0.6,0.9l-0.2,1.1l0.3,1
			l0.1,1.1l-0.2,0.9l-0.8,0.4l-8,6.6l-5.4,2.8l-0.8,0.2l-1.9,2l-0.7,0.5l-2.1,0.9l-1.3,0.2l-1.1-0.4l-0.4-0.3l-0.5-0.2l-0.5-0.1
			h-0.5l-0.7,0.2l-0.2,0.5v0.7l-0.1,0.7l-1.8,7.5l-3,5.5l-0.7,1l-1.1,0.6l-2.6,0.5l-1,0.5l0.7,1.7l0.1,0.5l-0.3,0.4l-1.1,0.7
			l-0.2,0.3l-0.1,1.3l-0.5,2.5l-0.1,1.2l1.1,0.8l5.1-0.9l1.7,0.3v0.4l-1.3,1.4l-1.1,0.8l-0.5,0.4l-1.7,1l-1.8,0.6h-1.3l-2.4-0.7
			l-5-0.8l-1.1,0.2l-0.8,0.8l-0.5,1l-0.7,0.8l-2.3,0.7l-0.9,0.8l-1.5,1.8l-1.6,1.4l-0.6,0.7l-0.2,1l-0.3,0.8l-1.3,1.8l-0.4,1v0.8
			l-0.7,1.6l-0.6,2.1l-0.7,5.4l-0.5,1.9l-0.1,1.3l-0.2,1.1l-0.5,0.8l-0.7,0.8l-0.2,0.9v0.8l0.1,1l-2.5-1.6l-0.5-0.7l-0.3-0.6
			L794,685l-0.7-0.5l-0.8-0.2h-0.7l-0.6-0.2l-0.7-0.8l-0.5-0.5l-0.2-0.5l-0.1-0.6l-0.3-0.5l-0.6-0.5h-0.3l-0.3,0.1l-3.1,0.5
			l-1.3,0.4l-1,0.7l-0.7,0.9l-0.8,2.2l-0.5,1l-1,0.9l-1,0.3h-2.3l-1.2,0.2l-2.1,0.9l-1.1,0.2l-0.6-0.1l-0.9-0.6l-0.5-0.2l-0.6-0.1
			l-1.1,0.2h-0.5l-4.4-1.5l-2.8-2l-0.8-0.3l-1.1,0.4l0.5,1l2.1,2.2l0.5,1.1l0.7,3.6l1.9,2l0.4,1l-0.3,1.5l-0.6,1.1l-0.1,0.1
			l-0.5,0.4l-0.7,0.3l-0.7,0.8l-1.9,1.6l-6.9,2.2l-1.5,0.2l-1.2-0.6l-2.2-1.8l-1-0.5l-2.4-0.7l-1.1-0.1l-2.3,0.3l-2.5,1l-2.1,1.6
			l-1.1,2.1l-0.6,4.2l0.1,0.6l0.3,1.1v0.6l-0.2,0.3l-0.3,0.3l-0.3,0.5l-0.1,0.6l0.2,1.5l0.3,1.2l0.1,1.2l-0.5,1.5l-0.8,1.3l-0.8,0.7
			l-2.2,0.9l-2.1,1.5l-0.9,0.2l-1.1-1.7l-0.7-0.7l-0.8-0.6l-1.7-0.8l-3.4,2.6l-1.1,0.4l-5.1,0.7l-1,0.5l-0.5,0.5l-1,1.3L711,726
			l-1.3,0.3l-1.2,0.4l-0.6,0.5l-0.1,0.4l-0.2,0.1l-1-0.5l-0.6-0.5l-0.5-0.6l-0.5-0.4l-0.6,0.1h-0.2l-2,1.1l-2.6,0.1l-2.7-0.3
			l-2.3,0.1l-2.5,1.2l-1.4,0.3l-1.1-0.8l-0.2-0.6l0.1-1.2l-0.3-0.6l-0.4-0.2l-2-0.6l-2.3-2.1l-1.2-0.7l-1.5,0.2l-0.8-0.2l-0.7-1
			l-0.9-0.8l-1.2,0.3l-0.4,0.8l-0.8,4l0.1,1.1l0.5,2.2v1.1l-0.3,0.8l-0.5,0.2h-0.6l-0.6,0.2l-0.5,0.5l-0.8,1l-0.5,0.4l-3.6,1.8
			l-1,0.1l0,0l-0.6-2.4l-0.1-0.8l-0.3-0.7l-0.3-0.4l-0.5-0.3l-0.4-0.2h-0.3l-0.4,0.1H666l-0.7-0.2l-1.1-0.7l-0.6-0.3l-0.5-0.1
			l-0.3,0.1l0,0l-0.3,0.2l-0.2,0.3l-0.4,0.2l0,0h-0.5l-4.4-1.2l-1.5-0.2l-0.7-0.5l-0.3-0.3l-0.7-1.2l-0.4-0.5l-0.5-0.4l-0.7-0.4
			l-0.3-0.3l-0.1-0.3v-0.3l0.2-0.7l0.2-0.8l1-2.4l0.1-0.5v-0.5l-0.2-0.3l-0.2-0.1l-0.5-0.1l-0.4-0.2l-0.5-0.3l-0.8-1.1l-0.8-1.9
			l-0.3-0.4L649,714h-0.3h-0.1l-0.2,0.1l-0.2,0.1l-0.2,0.2l-0.2,0.3l-0.3,0.2l-0.4,0.2l0,0l-0.4,0.1H646l-0.8-0.1l-3.1-3.6l-0.1-0.8
			l-1.4,0.5l0,0l-0.8,1l-0.2,1l-0.3,0.7l-0.3,0.3l-0.3,0.1l0,0h-0.3h-0.3h-0.4l-2.1,0.4h-0.5l-0.5-0.1l-0.4-0.2l-0.8-0.5l-0.2-0.2
			l-0.2-0.3l-0.2-0.8v-0.4v-0.4v-0.4V711v-0.3l-0.2-0.7l-0.2-0.4l-0.5-0.4l-1.2-0.5l-0.5-0.2h-1.2l0,0l-0.3,1.2l0.3,2l-0.5,3.4
			l-0.2,0.3l-0.5,0.7l-0.1,6.5l-0.4,1.9l-6.2,3.7L618,731l-2,2.4l-1.4,2.2l-0.9,2l-0.2,0.6v0.3v0.3l0.2,0.5l0.2,0.5l0.9,1.5l0.5,1.2
			v1.9l-1.5,3.1l-2.1,2.6l-1.4,1.3v0.1v-0.1l-0.1-0.8l0.1-1l0.1-0.2l0.2-0.4l0.1-0.2v-0.2v-0.2l-0.1-0.2l-0.1-0.2l-0.8-1.3l-0.1-0.2
			l-0.2-0.5l-0.2-0.3l-0.3-0.3l-1.6-0.9l-2.5-1.8l-0.7-0.4l-0.5-0.2L603,742h-0.2l-0.2-0.1l-0.2-0.2l-0.4-1l-1.2-1.8l0.4-1.3
			l-0.1-0.4l-0.2-0.6l-0.7-1.6l-0.4-0.5l-0.4-0.2H599l-0.4,0.1h-0.3l-0.7-0.1h-0.3H597l-0.6-0.3l-0.6-0.1l-0.4-0.2l-1-0.6l-0.3-0.4
			L594,732l0-0.3l0.2-0.3l0.3-0.2l0.3-0.2l0.4-0.1h0.3h0.3l0.3-0.1l0.3-0.2l0.7-0.3l0.3-0.2l0.3-0.3l0.2-0.5l0.2-0.4l0.3-0.3
			l0.8-0.4l0.4-0.3l0.3-0.6v-0.5l-0.1-0.4l-0.2-0.3l-0.2-0.3l-0.3-0.3l-0.3-0.2l-0.4-0.2l-0.8-0.5l-0.8-1.3l-2.3-2.8l-0.4-0.6
			l-0.7-1.6l-0.3-0.5l-0.3-0.3l-0.6-0.2l-0.7-0.1h-0.3l-0.4,0.1l-1,0.4h-0.3h-0.4l-0.7-0.3l-0.3-0.2l-0.2-0.2v-0.2V716v-0.2l0.1-0.5
			l0.1-0.2l-0.3-1l-3-4l-1.2-2.2l-0.1-0.4l-0.1-0.6l0.1-0.2l0.2-0.1h0.2l0.2,0.1l0.2,0.1l0.2,0.1h0.2l0.3-0.3l0.2-0.2l0.2-0.1h0.2
			l0.3,0.2l0.3,0.3h0.3l0.3-0.1l0.5-0.4l0.3-0.3l0.2-0.3l0.3-0.5l0.3-0.4l0.5-0.5l0.2-0.3l0.1-0.3l-0.1-0.2l-0.1-0.2l-0.1-0.2
			l-0.1-0.1l-0.2-0.1l-0.4-0.2l-0.1-0.1l-0.1-0.2v-0.7l-0.1-0.5l-0.2-0.5l-0.1-0.4v-0.3l0.1-0.2l0.1-0.1l0.2-0.1l1-0.7l0.5-0.4
			l0.2-0.2l0.5-0.8l0.1-0.1l0.4-0.2l0.5-0.3l1.5-1.3l0.5-0.7l0.1-0.5V694l-0.1-0.2l-0.2-0.4l-0.4-0.7l-2-5v-0.2l-0.1-0.3l-0.2-0.3
			l-0.5-1.4l-0.6-2.9l-0.1-0.6l0.2-0.9l0.1-1l0.1-0.2l0.1-0.2l0.1-0.2l0.3-0.3l0.2-0.2l0.2-0.3v-0.3v-0.2l-0.4-0.9l0.2-0.5l2.1-0.1
			l0.3-0.1l0.5-0.3l0.1-0.3l0.1-0.2v-0.2l-0.2-0.9V674l0.1-1.6v-0.3v-0.3l-0.1-0.2l-0.1-0.1h-0.2l-0.5,0.2h-0.2l-0.2-0.2l-0.2-0.4
			L592,671l-0.2-0.1h-0.2l-0.2-0.1l-0.1-0.1l-0.1-0.1l-0.1-0.3l-0.3-0.7l-0.8-1.5l-0.1-0.2l-0.1-0.1l-0.2-0.1l-0.6-0.3l-0.2-0.3
			l-0.3-0.4l-0.1-0.4V666l0.2-0.2l0.3-0.8l-0.3-1.4l1.6-1.2l0.3-0.3l0,0v-0.1l0.3-0.6l0.4-0.2l0.3-0.1l0.3-0.1h0.5l1,0.1l1.8-0.1
			l0.2-1.2l-0.1-1.5l0.2-0.6l0.4-0.4l0.3-0.4l0.1-0.3v-0.3l-0.1-0.3l-0.1-0.4l-0.2-0.5l-0.8-0.9l-0.1-0.1l-0.2-0.1l-0.2-0.1h-0.2
			h-0.2h-0.2l-0.2,0.1l-0.3-0.2l-0.4-0.3l-0.7-1l-0.4-0.4l-0.3-0.2l-0.1,0.1l-0.4,0.3l-0.5,0.5l-0.2,0.1l-0.2,0.1h-0.3l-0.5-0.3
			l-2.3-1.6l-0.4-0.1l-0.2,0.1l-0.6,0.2l-0.2,0.1h-0.3l-0.4-0.1l-1-0.5l-0.5-0.2l-2.4-1.2l-1.7-0.6l-1-0.2l-1.1-0.4l-0.5-0.3l-2-1.7
			l-0.3-3.2l0.2-0.8l0.2-0.1l0.2-0.2l0.2-0.3l0.3-0.5l0.1-0.3v-0.3l-0.4-1.7v-0.3l0.1-0.2l0.8-0.7l1.4-0.8l1.3-0.3h0.3l0.2,0.1
			l0.2,0.1l0.9,0.2l0.6-0.2h0.4h0.4l0.9,0.2h0.3l0.2-0.1l0.2-0.2l0.2-0.3v-0.2l-0.1-0.2l-0.1-0.2l-0.1-0.2l-0.1-0.5v-0.2l-0.3-0.5
			l-0.3-0.8l-0.4-0.7l-0.4-0.5l-0.2-0.3l-0.2-0.3l-0.1-0.2l-0.8-4.2l-0.3-0.8l-0.1-0.8v-0.2l-0.1-0.2l-0.1-0.1l-0.1-0.2l-0.1-0.3
			v-0.6l-0.7-3.7l-0.2-1.8l2.5-1.5l0.4-0.6l-0.5-0.7v-0.3l0.1-0.5l0.3-0.9l0.2-0.4l0.3-0.2l1.8-0.1l3-0.6h0.5l0.3,0.1l1-0.1l4.2-2.2
			l0.5-0.2h0.2h0.3h0.4l0.8-0.2l0.4-0.2l0.2-0.2l0.1-0.1l0.1-0.2l2-1.5l0.2-0.3l0.1-0.2l0.2-0.4l0.1-0.2l0.2-0.2l0.4-0.3l1.3-1.5
			l0.3-0.5l0.6-0.6l0.7-0.6l0.5-0.5l0.4-0.2h0.3l0.2,0.1l0.2,0.1l0.1,0.2l0.1,0.2h0.7l2.8-1.2l0.8-1l0.2-0.5l0.4-0.2h0.2l0.2,0.1
			l0.5,0.5l0.3,0.4l0.3,0.2l0.2,0.1l0.3,0.1l1.4,0.3h0.5l0.3-0.1l0.1-0.2l0.1-0.2v-0.2v-1l-0.1-0.5l-0.1-0.2l-0.1-0.2l-0.3-0.3
			l-0.1-0.2l-0.1-0.2v-0.3l0.1-0.4V597v-0.2l-0.2-0.4l-0.1-0.2l-0.2-0.1l-0.2-0.1l-0.6-0.2l-0.2-0.1l-0.1-0.3V595l0.1-0.9v-0.4v-0.3
			l-0.2-0.6l-0.1-0.2l-1.7-2l-0.1-0.2l-0.2-0.7l-0.8-1.7l-0.2-0.3l-1.5-1.7l-0.2-0.3l-0.1-0.3l-0.6-1.7l-0.4-2.8l-0.5-0.8l-0.7-0.4
			l-0.2-0.1l-0.7-0.1h-1.5l-0.2,0l-1-0.3l-2-1l-2.2-0.7l-0.9-0.2l-1.5-1l-3-0.9l-0.6-0.3l-0.3-0.3v-0.3v-0.2v-0.2l0.2-0.7V573v-1.2
			l-0.1-0.6l-0.1-0.2l-0.9-2.2l-0.5-0.8l-0.9-0.7l-0.2-2.5l-0.1-0.3l-0.2-0.5l-0.3-0.3l-0.5-0.8l-0.3-0.4l-0.3-0.2l-0.2-0.1h-0.5
			l-0.8,0.1l-2.2-0.2l-0.5-0.2l-0.2-0.2l-0.1-0.2l-0.2-1.3l0.4-1.7l0.1-1.7l0.1-0.7l0.3-0.8v-0.4v-0.3l-0.5-1.1l-0.1-0.2l-0.1-0.2
			l-0.2-0.1l-0.2-0.1h-0.2l-0.3,0l-0.3-0.2l-0.3-0.5l-0.1-0.5l0.1-1.4v-0.5l-0.1-0.3l-0.2-0.4l-1.9-2.3l-0.5-0.7l-0.6-1.2l-0.1-0.4
			v-0.2l0.1-2.3l-0.1-0.2h-0.1l-0.4,0.2l-0.2,0.1l-0.3-0.1l-0.1-0.2l0-1l-0.1-0.4l-0.7-1.4l2-1.5l1.4-1.1l0.3-0.1l0.4-0.1l0.6,0.3
			l0.8,0.2l2.1,0.2h0.7l0.4-0.1l0.2-0.2l0.8-0.5h0.5l0.6-0.3l0.4-0.2l0.3-0.1l0.2,0.1l0.2,0.1l0.5,0.4l0.5,0.3l2.4-0.2l0.7-0.2
			l0.2-0.2l1.6-0.8l1.2-0.8l0.4-0.2l0.4-0.1l1.5,0.1l1.3,0.5h0.3l0.3-0.1l0.7-0.5l0.3-0.1h0.4l0.3-0.1l1-1l0.2-0.2l0.1-1l0.1-0.2
			l0.2-0.4l0.2-0.3l0.1-0.2l0.5-0.7l0.1-0.2l0.7-0.9l0.3-0.5l0.2-0.2l0.6-0.5l0.2-0.2l0.1-0.3v-0.2l-0.1-0.5l-0.1-0.2l-0.1-0.2
			l-0.3-0.3l-1.7-0.8l-0.9-0.2l-1.8-0.1l-0.5-0.1l-0.5-0.2l-1.6-1l-0.2-0.2v-0.1l0,0v-0.1l0.1-0.2l0.1-0.2V522v-0.5v-0.2l0.1-0.2
			l0.1-0.2v-0.2l-0.1-0.3l-0.2-0.1h-0.2l-0.3,0.2l-0.2,0.1l-0.3,0.1h-0.5l-0.3-0.1l-0.2-0.2l-0.2-0.3l-0.3-0.3l-0.8-0.7l-0.5-0.3
			l-0.3-0.1l-0.3,0.1l-0.6,0.3l-0.1,0.1l-0.5,0.7l-0.1,0.1l-0.2,0.1l-0.3,0.1h-1h-0.3l-0.8,0.3l-0.2,0.1h-0.8l-4.5,0.8l-4.9-0.3
			l-2.8-1.7l-0.5-0.7l0.1-0.2l0.1-0.2l0.1-0.2v-0.3l-0.1-0.5l-0.4-1l-0.4-0.5l-1.3-1.3l-0.3-0.5l-0.2-0.5l-0.1-0.9v-0.3l0.1-0.2
			l0.1-0.2l0.1-0.1l0.5-0.3l0.1-0.2l0.1-0.2l0.1-0.5l0.1-0.2l0.1-0.2l0.4-0.5l0.2-0.3l0.1-0.2v-0.2v-0.5v-0.4v-0.3l0.1-1.4v-1.3
			l0.2-0.9l0.3-0.8v-0.4v-0.3l-0.2-0.1l-0.2-0.2l-0.2-0.4l-0.3-0.8v-0.4l0.1-0.3l0.1-0.2l0.2-0.1h0.2h0.2l0.2,0.1l0.2,0.1l0.3,0.3
			l0.2,0.1l0.2,0.1l0.2,0.1l0.2-0.1l0.2-0.2l0.3-0.3l0.1-0.2l-0.1-0.3l-0.1-0.2l-0.1-0.4l0.1-0.3l0.2-0.3l0.6-0.8l0.1-0.2l0.1-0.1
			l0.5-0.4l1.3-1.3l0.2-0.1l0.5-0.1l0.4-0.1l0.2-0.2v-0.2v-0.2l-0.3-0.5l-0.1-0.2l-0.1-1l0.1-0.3l0.2-0.3l0.8-0.5l0.1-0.3l0.1-0.3
			v-1l1.1-0.7l1.6-1.9l0.9-0.8l0.8-0.9l1-1.7l0.3-0.6l0.2-0.5l0.1-0.4l0.4-1l0.1-0.3v-0.5v-0.5V481l0.2-0.6l0.1-0.4v-0.5l1.3-1.8
			l0.7-0.5l1-0.4l0.3-0.2l0.2-0.3l1.2-2.2l0.2-0.6l1.8-3.4l0.2-0.6v-0.6l-0.1-0.4l-0.1-0.4l-0.2-0.3l-0.2-0.3l-0.8-0.8l-0.2-0.3
			l-0.1-0.3l-0.4-1.5l-0.1-0.3l-0.4-0.9l-0.1-0.4l-0.1-3.3l-0.1-0.5l-0.4-0.4l-0.2-0.1l-0.2-0.2l-0.2-0.1l-0.3-0.1l-0.3-0.1h-0.4
			h-0.4l-0.7,0.2l-0.2,0.1l-0.7,0.7l-0.6,1.1l-0.5,0.5l-0.5,0.1l-0.5-0.2l-0.7-1l-0.2-0.8l0.2-0.9l0.6-0.7l0.8-0.7l10.1-4.6l2.5-0.7
			l2.3-0.4l1.3,1.5l0.2,3l0.5,1.1l1.2,1.5l4.2,3.1l1,0.6l0.7,0.2h0.6l0.4-0.3l0.4-0.5l0.6-0.5l0.6-0.3h0.6l0.4,0.3l0.4,0.7l0.3,1.5
			l0.5,1.4l0.3,1.5v2l-0.6,2l-0.7,1.2l-0.6,0.6l-0.7,0.5l-4.8,1.8l-0.4,0.2l-0.2,0.3v0.3l0.1,0.4l0.2,0.4v0.1l5.4,1.8h0.3l0.7-0.3
			h0.9l2.7,0.5l2,0.7l0.5,0.5v0.3l-0.1,1.4l0.1,0.4l0.2,0.6l0.2,0.3l0.2,0.2l0.4,0.2l0.8,0.1h0.5l1.2-0.1h2.1l4.4-1.9l0.6-0.1h1.7
			h0.4l0.3-0.1l0.2-0.1l0.2-0.1l0.7-0.7l0.5-0.4l0.4-0.2l0.4-0.1l1-0.1h0.3l0.9,0.2l0.2-0.1l0.2-0.1l0.1-0.2l0.1-0.2l0.2-0.2
			l0.3-0.3l0.3-0.1h0.2l0.5,0.3l1.5-1.5l0.5-0.4h0.2l0,0l0.2,0.1l0.7,0.1l1.3-0.1l2.9-2.2l0.8-0.2l5.8-1.1l1.7-0.7l1-0.5l0.4-0.5
			l0.5-1.2l-0.1-1l0.5-0.3l1.2-0.4l1.2-0.5l3-3l1.1-0.8l1.2-0.4l0.8-0.1l0.8-0.2l1.1-0.9l2.3-2.7l0.8-0.5l12.4-5l4.4-1.1l2.2,0.1
			l4.2,1.1h2.2l1-0.4l1.8-1.1l1-0.4l2.3-0.1l2.3,0.2l1.7,0.4l2.3,1.7l1.6,0.8l0.9,0.4l0.7-0.5l0.9-0.3l1.6-0.8l2.4-0.4l2-0.9
			l5.8-0.5l2.1-0.6l0.6-0.4l0.1,0.2l0.4,1.8l-1,1.9l-5.2,3.6l-2.8,2.4l-1,0.4l-1.1,0.3l-1,0.4l-0.3,0.5l0.4,0.5l0.5,1l-0.1,0.5
			l-0.5,1.6v0.8l0.4,4.6l-0.2,0.5l-0.3,0.4v0.4l0.7,0.6l0.5,0.2h1.3l1.7,0.6l2.3,0.4l0.9,0.7l0.3,1l0.1,3.2l0.4,1.1l2.4,3.8l0.4,0.3
			l0.1,0.4l-0.4,0.9l-0.4,0.4l-2.7,1.6l-0.7,0.7l-0.2,0.9l1.1,3.3l0.6,0.4L723.6,492.9z"/>
		<path id="MM-03" class="st2" d="M464.3,578.4L464.3,578.4l1.7-0.5l1.1,0.1l1,1.9l0.4,0.4l0.7,0.4l0.7,0.2l0.4,0.5l0.4,1.1l0.2,1.2
			l0.1,1.8l-1.2,10.2l0.3,0.8l0.5,0.5l1,0.8l1.5,0.9l1.1,0.4l1,0.1l0.6-0.2l0.3-0.2l1.3-1.2l1.2-0.6l3-1l1-0.1l1.7,0.2l1.1,0.3
			l0.9,0.2h0.8l2.3-0.5l2.4-0.2l1.1-0.3l2.6-0.2l4.5,1l7.5,0.2l1.6-1.1l1.8-0.4l1,0.2l1.4,0.4l0.5,0.8l1.6,1.9l1,2.1l0.6,0.8l1,0.7
			l0.5,0.6l0.2,0.8v1.4l0.2,0.8l0.8,0.5l1.2,1.3l1.1,0.6l2.3,0.8l-0.3,0.8l-0.6,3.1l-0.2,0.5l0.3,4.5l-0.5-0.1l-0.5,0.8l-0.5,0.1
			l-0.5-0.2h-0.6l-0.4,0.2l-0.3,0.2l-0.2,0.2l-0.2,0.2l-0.8,1.1l-3.7,3.2l-1.8,2.5l-1,1l-1.3,0.4L509,628l-0.5-0.1l-0.7-0.5
			l-0.5-0.2l-1.5,0.2l-1.1,0.9l-0.7,1.3l-0.2,1.6l-0.6,0.3l-3.8,1.2h-2.7l-0.2-0.1h-0.2l-0.5,0.1l-0.3,0.2l-0.5,0.5l-0.8,0.6
			l-0.5,1.1l-0.4,1.4l-0.2,1.2l0.1,2.7l0.9,5.2l0.2,2.7l-0.3,1.2l1.4,0.5l-0.1,0.7l1.6,1.4l2.2,1.3l1.4,0.5l1.2,0.2l2.9-0.1h0.1
			l2.8,1.3l1.5,1.3l0.4,0.5l0.1,0.3v0.4v0.6l-0.2,1.1L509,660l-0.2,0.3l-0.6,1.1L508,662v0.8l0.7,3.8l-0.1,0.7l-0.2,1l-0.3,0.9
			l-0.1,1.4l0.4,1.3l1.4,2.8l0.5,0.6l0.4,0.2l0.5-0.1l0.3-0.2l0.4-0.9l0.6-2.6l0.6-0.7l2.1-1.8l0.8-0.5l1.6-0.4h0.7l1.5,0.1l0.9-0.2
			l0.5-0.3l2.3-2l1.3-0.6l2.7-0.7l2.2-0.8l0.7-0.6l1.2-1.3l0.6-0.3l0.9-0.2h0.5h2.2l2.4,0.4l0.9,0.4l0.2,0.2l0.2,0.2l0.5,0.8
			l0.2,0.6l0.2,2.2l0.3,2.7l4.9,8.9l0.6,1.8l0.4,2.6l0.3,1l0.4,0.7l0.6,1.4v0.3l-0.1,0.5l-0.5,0.8l-0.3,0.3l-0.2,0.3l-0.1,0.2l0.3,1
			l0.6,2.6l0.4,0.7l0.1,0.1l0.3,0.3l0.3,0.5v0.1l0.3,1.3l0.1,0.4l0.2,0.3l0.1,0.2l0.3,0.6l0.2,0.4l0.1,0.2l0.1,0.3l0.3,1.8l0.1,0.3
			l0.1,0.2l0.3,0.3l0.3,0.2l0.8,0.4l0.1,0.2l0.1,0.3l-0.2,0.6l-0.3,0.5l-0.9,1.2l-0.2,0.7v0.7l-0.1,0.3l-0.1,0.2l-1.1,0.9l0.4,1.6
			v0.3l-0.1,0.5l-0.3,0.4l-0.1,0.2l-0.8,1.2v0.2l0.1,0.2l0.3,0.3l0.5,0.3l0.2,0.2l0.4,1.2l0.1,2.2l0.4,0.4l0.3,0.3l0.2,0.3l0.1,0.2
			l0.1,0.2v1.4l0.1,0.2l0.1,0.2l0.2,0.4l0.1,0.2v0.3l-0.2,0.3l-0.4,0.4l-0.2,0.1h-0.5l-0.1,0.2l-0.1,0.4l-0.2,0.9l-0.2,0.6l-0.9,1.6
			l-0.1,0.3l0.1,0.5l0.1,0.3l0.1,0.2l0.1,0.2l0.1,0.2l0.1,0.2v0.5l-0.1,0.6l-0.4,1.2l-0.3,0.5l-0.5,0.4l-0.3,0.3l-0.7,1.5l-0.6,2.4
			l0.4,4.4l0.4,1.8l0.3,0.5l0.4,0.6l1.5,1.1l1.3,0.5v0.7l0.6,1.1l0.4,1.8l0.1,1l0.1,0.5l0.1,0.4l1.3,1.8l0.4,0.7l0.1,0.6l0.1,1v1.7
			l-0.3,2.2l-0.1,0.3l-0.2,0.2l-0.7,0.7l-0.3,0.3l-0.1,0.2l-0.1,0.3v0.4v1.5v0.2l-0.1,0.2l-0.1,0.2l-0.1,0.1l-0.4,0.2l-1.5-0.9
			l-0.5-0.1l-0.8-0.1h-1.7l-7.6,1.1l-3.4-0.1l-1.2,0.2l-3.5,1.1l-1.8,0.9l-3,3.8l-4.2,0.8l-1,1.3v2.5l-0.1,0.5l-0.2,0.5l-0.4,0.8
			l-0.8,0.7l-3,1.9l-1.4,1.4l-0.2,0.5l-0.1,0.3v0.8l0.5,0.5l0.6,1.1l0.5,2.6l-0.5,2.3l-1.1,1.8l-1.2,1.2l-0.6,0.4l-1.8,0.8h-0.3
			l-0.6-0.1h-0.2l-0.1,0.2l-0.2,0.9l-0.9,0.7l-0.2,1.3l-0.1,2.7l-0.4,1.3l-0.2,1.1l0.2,1.1l1,1.3l4,3.1H513l-1,0.1l-1.1,0.7
			l-0.5,0.9v1.4l-0.5,1.5l-0.5,1.1l-1.1,1h-1.5l-1.5-0.7l-1.2-1.3l-1.4-1.1l-1.7-0.4l-1.4,0.4l-1.5,1l-1.8,1.5l-0.9,0.8l0,0l0,0
			l-0.9-0.9l-0.7-1l-2.6-4.6v-0.5v-0.6l0.3-1.4l0.3-0.8l0.2-0.9l-0.2-1.1l-1.6-3.1l-0.1-1.1l0.6-1.2l1.8-1.7l0.3-0.7l0.1-0.8
			l-1.1-1.8l-2.5-2.3l-0.2-0.3l-0.2-0.3v-0.4l0.1-0.5l0.7-0.3l1.9-0.3l1-0.3l0.7-0.4l0.4-0.6v-0.8l-0.5-1.2l-0.4-0.7l-2.5-3.3h-0.7
			l-0.9-1.2l-2.1-4.9l-2.8-3.1l-1.9-1l-1-0.2l-0.8-0.2l-0.7-1l-0.6-1.5l-0.9-3.5l0.1-1.4l0.4-0.8h0.6l0.4-0.2l0.1-0.6l-0.3-1.1
			l-1.4-2.5l-5.3-7.7l-0.5-1.2l-1.2-6.6l-2.2-10.5l-2.4-5.3l-0.2-0.8v-1l0.3-1.6l0.6-1.9l0.2-0.8l-0.1-0.8l-0.4-1l-1-1.3l-1.7-1.7
			l-0.1-0.1l-1.1-0.9l-0.4-1l-0.3-1l0.2-3.8l-2.8-3.4l-0.8-1.5l-1.4-4.2l-0.8-1.7l-7.4-12.6l-0.2-0.6l-0.6-1l-0.7-0.9l-0.9-0.8
			l-0.9-0.4l-2.4-0.4l-0.7-0.4l-0.6-1V665l4.2,2.8l1,0.2l1.6,0.1l4.9-1.3l1.3-0.6l0.5-0.7V665l-0.1-0.3l-0.2-0.4l-1.6-2.1l-0.5-0.9
			l-0.3-1l-0.5-2.6l-0.5-1.4l-1.9-4l-0.1-0.6l0.4-2.5l3.6-6.7l0.4-1.3l0.1-1.5l-0.2-4.1l-0.2-1.2l-0.4-0.8l-0.8-0.7l-2.3-1.4
			l-1.4-1.4l1.7-3.4l1-7.2l2.9-6.3l0.3-1v-1.1l-0.3-0.8l-1-1.8l-2.7-4.5l-2.2-4.2l-0.9-2.1l-0.2-2.4l0.2-3.9l0.6-1.9l0.4-0.5
			l0.5-0.5l0.9-0.5l0.2-0.4v-0.4l-0.1-0.2l-0.5-1.2l-1.3-4.2l0.3-1.3l1.2-2.8l0.2-1.5v-1.2l-1.6-8.3v-1.2l0.2-0.8l1.2-2.1l0.2-0.9
			l-0.2-0.5l-0.5-0.2l-0.8-0.1l-0.1-0.5l0.6-1.5l0.1-0.9l-0.7-6.4l0.2-2.3l-0.1-1.1l-0.6-2.1l-0.5-3.4l1.6-0.2h0.8l0.8-0.1l0.8-0.4
			l0.4-0.2l0.3-0.3l0.5-0.8h0.3l0.6,0.2l0.4,0.9l0.1,0.5l0,0.4L454,543v0.2l0.6,0.5l0.1,0.1l0.1,0.2l0.1,0.6l0.1,0.2l0.6,1l0.5,0.6
			l1,0.9l2.5,3l2.6,4.9l1.6,3.5l0.2,0.8l0.1,1.2l-0.3,0.8l-2.2,4.7l-0.4,1l-0.1,0.6l-0.1,0.9l0.8,7.2l0.4,1.2l0.4,0.7l0.5,0.6
			l0.5,0.2L464.3,578.4L464.3,578.4z"/>
		<path id="MM-07" class="st2" d="M412.3,1064.3L412.3,1064.3l-1.1,0.7l0.5-4.4l0.2-0.7l0.2-0.2l0.3,0.8l0.2,2.7L412.3,1064.3
			L412.3,1064.3z M430.1,1017.1L430.1,1017.1l-0.8,0.8l-0.8-0.1l0.6-0.8l0.4-1l0.6-0.9l1.2-0.5v0.3l-0.5,1L430.1,1017.1z
			 M493.3,961.9L493.3,961.9l-1.5,0.3l-1.7-0.5l-1.3-0.7v-0.4l1.1-0.8l0.8-1.2l1.2-2.5l1.5-2.2l0.9-0.9l0.3,0.8l0,0l0.1,0.9l0.5,1.6
			l0.1,0.7l-0.2,0.8l-1,1.8L493.3,961.9L493.3,961.9z M470.7,959.4h-0.4v-0.5l0.8-1.5l-0.5-2.2l-1.5-3.7l0.4-1.9l1.6-1l2-0.9
			l1.9-1.5l0.6-1l0.9-1.9l0.5-0.8l1.8-1.7l3.6-4.4l1.8-1.4l1.1,1.4l0.3,3l-0.7,3l-1.4,2.8l-2.9,3.7l-0.6,0.5l-0.9,0.5l-3.1,1
			l-0.9,0.5l-0.4,0.3v0.5l0.1,0.5v0.4L474,954l-1.2,1l-0.6,0.7l0.2,0.9l-0.4,0.9L470.7,959.4z M515.9,803.4L515.9,803.4l3.6,4.7
			l0.7,1l0.6,0.5l0.3,0.6l1.4,1.2l2.5,3l0.3,0.3l0.9,0.6l0.3,0.3l0.3,0.7l0.4,1.5l0.3,0.5l0.2,0.6v1.3l0.2,0.6l0.3,0.5l2.2,6.2
			l0.2,2.2l-0.5,2.4l1.4,1.1l1,1l0.2,0.4v0.5l-0.1,0.2l-0.2,1.5v2.4l-0.2,0.9l-1.1,1.2l-0.7,0.7v1.2l0.5,2.7l0.9,2.4l1.1,1.8
			l0.6,0.6l0.8,0.7l1,0.5l1,0.2l0.8,0.4l0.9,0.5l3.9,1.5l1.3,0.9l1.2,1.5l3.1,4.8l-0.7,2.7l-1.7,3.5l-0.4,1.2l-0.5,2.4l0.1,1.7
			l0.9,3.9l1,0.8l0.3,0.4l0.2,0.6l0.3,0.6l0.6,0.7l1.2,0.9l1.4,1.4l0.5,0.8l0.5,1.2l0.9,1.6l0.8,0.8l0.5,0.8v1.1v0.5v0.5l0.1,0.5
			l0.4,0.7l1.2,1.2l1.2,1.5l0.2,1.7l-1.2,2.4h-0.2v0.3l-0.4,1.1v1.4l0.6,1.3l1,1.6l0.4,1.7l-0.3,2.3l-0.8,2l-0.6,0.7l-0.8,0.4
			l0.6,1.2l0.3,0.2l0.2,0.5l0.1,0.4l-0.1,2.5l0.3,0.6l0.1,0.3l0.1,0.3l-0.2,0.5l-0.4,0.6l-2,2l-0.3,0.4l-0.3,0.9l0.5,0.6l1,0.5
			l0.2,0.4l0.1,0.3l0.1,0.8l1,1l1.2,0.7l0.4,0.1l1.1,0.3h2.9l0.5,0.2l0.3,0.2l0.6,0.6l0.6,0.3l0,0l2.8,2.6l0.1,1.5l-2.8,3.2l-2.2,2
			l-1,0.4l-1.1-0.2v-0.4l0.4-0.8l0.2-1.1l-1,0.9l-0.7,1l-0.8,0.8l-1.4,0.2l0.2-0.5l0.2-1.6l-4.1,4.1l-1.2,1.8l-1.2,0.3l-1.2-0.3
			l-0.6-0.8l-0.1-1l-0.2-1.2l-0.4-1.1l-0.6-0.6l0.4,5.7l-0.4,1.2l-1.6,2.4l-0.4,1.1v2.9l-0.2,0.7l-1.3,2.3l-8.1,8.7l-3.5,2.6
			l-1.7,1.6l-0.9,0.7l-1.1,0.4l-1.3,0.1l-3.7-0.5l-0.9-0.3l-0.4-0.7l-0.3-5.9l0.5-0.5l0.7-0.3l0.6-0.8l0.3-1.1l-0.2-1l1.4-1.3
			l0.9-1.8l0.5-2l0.3-2v-1.3l-0.3-1l-0.8-1.9l-0.2-1.1l0.2-0.7l0.4-0.7l0.3-1.2H525l-0.4,0.6L524,942l-0.5,0.6l-0.2,0.7l0.2,1
			l0.8,1.8l0.2,1.2l-0.2,2.7l-0.2,0.8l-1.7,2.2l-0.9,2.6l-1.3,1.6l-1.3,0.5l-0.7-1.5l0.4-1.3l1-1.5l0.8-1.8l-0.2-2l-2,3.2l-0.9,1.9
			l-0.4,2l0.4,4.5l-0.7,1.4l-2.3,0.5l-1.7-0.7l-1.1-1.7l-0.5-2.3l-0.1-2.3l1.3-6.8l-0.5-1.9l-1.2,3.3l-0.6-2.5l0.7-2.5l1.6-2l2-0.8
			l1.9,0.1l0.6-0.1l0.5-0.4l-0.2-0.3l-0.6-0.2h-0.7l-0.4-0.1l-0.3-0.6l-0.3-0.1l-0.3,0.1l-0.9,0.3l-0.4,0.1l-0.4,0.1l-0.4-0.2
			l-0.4-0.8H512l-0.4,1l-1.6,2.3l-1.4,1.1l-0.1,1.6l0.3,3l-0.1,1.6l-1,7.4l-0.5,1.4l-0.7,1l-0.6,0.2l-0.8,0.2l-0.7,0.2l-0.3,0.4
			l-0.1,0.4l-0.2,0.5l-0.3,0.4l-0.3,0.2l-1.5,0.1l-0.7-0.1l-2-0.8l-2.6-0.3l-0.7-0.5l0.7-1.1l0.6-0.4l0.6-0.3l0.6-0.4l0.4-0.7v-0.5
			l-0.2-0.5l-0.3-0.5l-0.3-0.2l-1.1,1.4l-0.6,0.2l-0.3-1.4l0.1-1.9l-0.1-0.8l-0.7-1.7l-0.1-0.8l0.3-0.8l0.6-1l0.7-0.8l0.6-0.3l1-0.1
			l1-0.4l0.8-0.7l0.2-1.2l-2,1.3l-0.3-1.1l-0.2-2.6l-1-1.9v-0.9l0.3-0.9l1.1-1.7l0.7-0.8l1-0.5l1.4-0.2l1-0.3l0.9-0.8l0.7-1.1
			l0.3-1.1l-0.2,0.4l-0.8,0.8l-0.2,0.3l-0.3,0.3l-1.4,0.2l-1,0.5l-1.3-0.1l-0.5,0.2l-1.5,1.9l-0.1,0.3l-0.6,0.5l-0.3,1.2l-0.1,2.6
			l0.1,0.6l0.5,1.2l0.1,0.6l0.1,0.3l0.2,0.3l0.1,0.2l-0.7,1.3l-0.1,0.3l-0.5,0.8l-3.4,2.2l-0.7,1.1l-1.6,3.8l-0.6,0.7l-0.8,0.7
			l-1,0.5l-1.1,0.1l-1.5-0.5l-0.5-0.9l-0.3-1.1l-0.5-1.3l-0.2,1.1l-0.6-0.1l-0.7-0.8l-0.5-1l1.6-1.1l2.1-1.1l2.1-1.5l1.7-2.1l0.5-3
			l0.4-0.5l0.5-0.5l0.5-0.6l0.2-0.5l0.1-0.5v-1.2l0.2-0.2l0.5-0.3l0.4-0.5v-0.8l-1,0.6l-0.5,0.7l-0.8,1.9l-1.5,2.7l-0.4,1.2
			l-0.7,1.4l-0.9,0.8l-1,0.7l-3.2,3.2l-1.4,0.7l-1.3-0.2l-0.2-1.6l1.5-2.1l3.1-2.9l1.2-2.1l0.9-2.5l0.5-2.7l-0.1-2.6l-0.9-1.9
			l-0.2-1l0.5-1l0.7-1l1.1-3.7l0.3-0.4l0.6-0.1l0.7,0.1v-0.4l-0.6-0.7l-0.9-5.7v-0.7l0.3-0.9l0.4-0.4l0.5-0.1l0.4-0.3v-0.9l-2,1
			l-0.8-0.2l-0.4-1.3l-0.4,1.3l0.8,5.2v3.5l-0.3,0.9l-1.3,1.5l-0.3,0.8l-0.4,1.5l-0.9,1.4l-1.2,1l-1.3,0.4l-0.1-0.4l0.6-1l1.3-1.6
			l1.2-2.4l-0.3-1.1l-0.7,0.1l-0.7,1l-0.5,1.9l-0.4,0.6l-0.5,0.5l-0.5,0.2l-0.7-0.1L479,933l-0.4-0.4l-0.5-0.3l-1.1-0.2l-0.3,0.5
			l0.2,2.4l-0.1,1.4l-0.2,1.1l-0.4,0.9l-3,5l-1.6,1.9l-1.8,0.9l-1.2,0.2l-0.9,0.4l-0.5,0.9l-0.2,1.6l-0.5,0.7l-1.1,0.4h-1.2
			l-0.8-0.5l-1.2,1.3l-0.8,0.4l-0.7-0.5l-1.4-2.3l-0.3-0.8V947l0.3-6.8l1.3-6.9l-0.1-4.5l0.1-0.7l0.2-0.3l0.7-0.8l0.2-0.5l0.8-4.8
			l-0.3-3.7l0.3-0.6l2,0.6l1.3-0.1l0.6-1.2l0.4-1.8l-0.2-0.9l-1-0.5v-0.4l1.4-0.7l0.6-1v-3l0.1-0.9l0.5-1.7l0.1-0.7l0.2-0.9l1.1-1.2
			l0.2-0.7l-0.1-2.5l-0.2-1l-0.8-1.5l-0.2-0.9l0.2-0.9l0.5-0.3l0.6,0.1l0.6,0.2h0.6l0.7-0.5l1.7-2.4h-1.2l0.5-0.9l0.2-1.1l-0.1-4.1
			l0.1-0.5l0.2-0.6l1-1.4l0.3-0.8l0.3-1.1l-0.2-1l-1.6-0.8l-0.3-0.7l0.1-0.8l0.6-0.5l2.6,1.2l0.5-0.2l0.2-0.3l0.5-0.2l0.4-0.3
			l0.1-0.5l-0.3-0.5l-0.5-0.3l-0.5-0.2l-0.3-0.3l-0.2-0.8l0.2-2.7l0.4-0.8l0.8-0.1l0.7-0.3l0.1-1.4l0.8,0.2l0.7,0.3l0.7,0.5l0.6,0.7
			l-1-4l-0.5-6.3l0,0l3.9,2.8l1.1,0.5l1.4,0.1l0.9,0.2l1.1,0.8l0.9,0.9l0.4,0.3l0.4,0.2l0.6-0.3l1.9-3.5l0.7-2.1l0.1-4.5l0.3-2.2
			v-1.8l0.1-1.1l0.5-1l2.9-3.3l0.8-2l0.4-3.2l0.7-1.9l0.1-1.1v-1l-1.6-2.9l-0.5-0.8l-0.2-0.4l-0.2-0.6l-0.1-0.9v-0.9l1-2.5l-0.1-6.2
			l1-4.8l-0.1-3.4l-0.6-2.5l-2.4-4.9l0,0l0.9-0.8l1.8-1.5l1.5-1l1.4-0.4l1.7,0.4l1.4,1.1l1.2,1.3l1.5,0.7h1.5l1.1-1l0.5-1.1l0.5-1.5
			v-1.4l0.5-0.9l1.1-0.7l1-0.1h0.4l0.5,0.4l0.9,1l1,1L515.9,803.4z"/>
		<path id="MM-14" class="st2" d="M416.9,462.6L416.9,462.6l1.2-0.1l1.8-1l1-0.4l0.4,0.2l0.3,0.4l0.4,0.3l0.5-0.1l0.4-0.3l0.3-0.4
			l0.2-0.5l0.1-0.5l1.4-0.9l2.8-0.1l2.9,0.4l1.8,0.6l2.3,3.1l1.2,0.6l4.6-0.6l1.7,0.4l1.6,0.6l2,0.5l1.3,0.2l3.3,1.8l0.9,0.7
			l0.8,1.2l0.8,0.9l1,0.1l0.7-0.8l0.3,0.6l0.3,4.1l0.3,1.1l1,2.5l0.4,1.6l-0.8,5.9l-0.3,1.7l-0.5,4.6v0.1l-0.1,0.4l-0.2,0.4
			l-0.4,0.5l-0.3,0.2h-0.5l-0.8-0.3l-1.9-1.3l0,0l-0.4-0.1h-0.4l-0.2,0.1l-0.3,0.5v1.9l0.4,1.5l0.1,0.9l-0.3,4.7l-0.2,0.5l-0.5,0.2
			l-1.4-0.1l-0.6,0.4l0.6,2.2l0.1,1.1l-0.7,2.9l-0.1,0.7l0.2,3.3l1,6v1.2l-0.3,2.5l-1.3,4.9v0.8l0.3,0.7l0.2,0.8l0.4,0.9l0.3,4.1
			l-0.5,2.2l-0.3,0.5l-0.4,1.8l0.7,4.1l0.5,3.4l0.6,2.1l0.1,1.1l-0.2,2.3l0.7,6.4l-0.1,0.9l-0.6,1.5l0.1,0.5l0.8,0.1l0.5,0.2
			l0.2,0.5l-0.2,0.9l-1.2,2.1l-0.2,0.8v1.2l1.6,8.3v1.2l-0.2,1.5l-1.2,2.8l-0.3,1.3l1.3,4.2l0.5,1.2l0.1,0.2v0.4l-0.2,0.4l-0.9,0.5
			l-0.5,0.5l-0.4,0.5l-0.6,1.9l-0.2,3.9l0.2,2.4l0.9,2.1l2.2,4.2l2.7,4.5l1,1.8l0.3,0.8v1.1l-0.3,1l-2.9,6.3l-1,7.2l-1.7,3.4
			l1.4,1.4l2.3,1.4l0.8,0.7l0.4,0.8l0.2,1.2l0.2,4.1l-0.1,1.5l-0.4,1.3l-3.6,6.7l-0.4,2.5l0.1,0.6l1.9,4l0.5,1.4l0.5,2.6l0.3,1
			l0.5,0.9l1.6,2.1l0.2,0.4l0.1,0.3v0.5l-0.5,0.6l-1.3,0.6l-4.9,1.2l-1.6-0.1l-1-0.2l-4.2-2.8L441,664l-1.4-1.5l-0.9-0.6l-1-0.3
			l-1.6-0.1l-0.4-0.3l-0.3-0.7l-0.2-0.9l-0.4-1.2l-0.3-0.5l-0.1-0.3l-0.8-1.6l-0.9-1.3l-0.8-0.8l-0.6-0.4l-2-0.2l-1.2,0.8l-0.4,0.7
			l-0.3,0.8l-0.3,3.6v0.8l0.1,0.4l0.1,0.4l0.2,0.3l0.2,0.4l0.2,0.2l0.8,1.7l0.2,0.7l-0.2,0.6l-0.5,0.5l-1.2,0.4l-0.7,0.5l-1.2,1.1
			l-0.7,0.1l-0.9-0.1l-1.2-0.6l-1-0.2l-1.2,0l-1.5,0.5l-1.6-0.2l-3.6-1.7l-8.6-5.7l-1-0.8l-0.5-0.7l-0.2-0.5l-0.5-2.1l-2.7-1.8
			l-0.5-0.8l-0.5-1l-0.7-6.2l-0.4-0.9l-0.6-0.5l-10-2.1l-1-0.1l-0.7,0.1l-0.7,0.4l-1.3,1.5l-0.7,0.5l-0.7,0.1l-0.8-0.4l-1.1-1
			l-0.8-1.3l-0.5-1.1l-0.5-1.3L377,637l-3.5-4l-2.9-4.7l-1.6-0.7l-0.1-0.6l-2.1-6.3l-0.6-3.1l-0.2-1.6l-0.8-14.7l1-9.5l-0.2-1.9
			l-0.8-3.7l0.5-0.2l0.4-0.2l0.4-0.3l0.3-0.4l0.7-0.8l0.7-0.2h0.7l0.6-0.3l0.4-0.9V582l-0.1-0.9v-0.9l0.3-1.2h0.1l0.3,0.1l0.2-0.2
			v-0.7l-0.2-1.8l0.2-0.8l0.6-0.5l1.4,0.4l3.6,2.7l3.7,3.6l1,1.4l0.5,1.8l0.3,1.8l0.6,0.6l0.7-0.6l0.5-1.8l0.5-1.3l0.8-0.3l1,0.5
			l0.7,1.1l0.3,0.3l0.4,0.2h0.4l0.4-0.2l0.1-0.1l0.1-0.1l0.1-0.4v-0.5l-0.1-0.5l-0.2-0.4l-0.4-0.8l-0.2-0.8l0.1-0.8l1-2l0.6-0.5
			l0.7-0.2l1-0.4l-0.1-0.5l0.1-4.2l-0.1-0.5l0.1-0.3l0.7-0.3h0.5l1.5,0.3l1,0.3l0.8,0.6l0.9,0.4l1.3-0.4l-1.1-1.9v-0.8l0.1-0.1h0.3
			l1.2-0.6l0.6-0.1l0.5-0.3l0.3-0.8v-0.6l-0.5-7.3l-0.7-2.5l-2.1-2.2l-0.5-1l-0.6-2v-1.4l0.6-2.5l0.1-1.3l-0.4-1.2l-1.3-2.3
			l-0.5-1.2l-0.2-1.3l0.5-5l1.9-1.7l0.2,0.1l0.5-1.4l2.1-2.5l0.8-1.3l0.1-1.2l-0.4-1.3l-1.1-2.2l-0.5-1.3l-0.3-1.7l0.1-1.7l0.7-1.1
			l1.4-0.5l1.1,0.3l0.9,0.8l0.8,1.2l1.2,1l1.5-0.1l1.5-0.7l1.1-1l0.9-1.2l2.4-4.8v-0.8l-0.1-0.8v-1l0.5-4.2l-0.3-2.6l0.1-1.1l0.4-1
			l1.1-1.6l0.2-0.5v-0.6l-0.1-0.7l-0.4-3.7v-1.7l1.9-12.1l-0.1-2.1l-0.2-0.7l-0.8-1.1l-0.3-0.7l-1.8-1.2l-1-7.3l0.1-2.2l-0.2-1
			l-0.2-0.5l-0.3-0.3l-0.5-0.6l-1.2-2.1l-0.5-1l-0.3-1.1l-0.1-1.3l0.1-1.2v-0.3l0.4-1.5l0.7-1l1.5-0.5l1.1,0.6l1.6,2.6l0.6,0.7
			l1.9,1.9l0.4,0.9l0.2,0.8l0.4,0.6l1,0.2L416.9,462.6z"/>
		<path id="MM-16" class="st2" d="M428.9,776.9L428.9,776.9l1.4,0.1l2-0.3l0.4,0.4l0.1,1.5l-0.3,1.8v0.7l0.2,0.7l0.5,1.4l0.1,0.6
			l-0.2,1.4l-0.5,1.4l-0.9,1.2l-1.2,0.8l-1,0.2l-1.5-0.1l-1.3-0.3l-0.6-0.5l-0.3-0.8l-0.7-0.7l-1.4-1.2l-5.5-6.7l-0.3-0.5l-0.5-1.6
			l5.3-0.4l1.3-0.5l0.6-0.9l0.6-0.3l1.1,1.3l1.2,1l0.6,0.2L428.9,776.9L428.9,776.9z M435.8,739.3L435.8,739.3l1,1l1-0.5l1.2-0.2
			l1.3,0.2l1.1,0.7l1.1,0.8l2.2,1.3l0.8,1l0.2,0.9l-0.1,1.3l-0.4,1.2l-0.7,0.5l-0.8,0.4l-1.3,1.8l-0.9,0.8l-0.1,0.1l-0.2,0.1
			l-0.4,0.1l-0.3-0.1l-0.2-0.3l-0.1-0.3l-0.2-0.1l-0.7,0.4v0.5l0.2,0.5l-0.1,0.5l-0.5,0.2h-0.7L437,752l-1.2,0.2l-0.3-0.1l-0.6-0.5
			l-0.7-0.7l-1.4-2.1l-0.2-0.7l-0.1-0.6l-0.6-0.8l-0.1-0.7l-0.1-0.2l-0.1-0.1l-0.1-0.2l-0.1-0.4l0.1-0.2h0.3h0.3l0.1-0.4l-0.5-1
			l-0.8-0.5l-1.9-0.6l-0.8-0.6l-0.6-0.7l-1-2.1l0.6-0.1l0.2-0.2l-0.1-0.4l-0.4-0.5l2.2-2.8l0.5-0.1l0.5,0.1l1.1,0.1l0.4,0.1l0.5,0.5
			l0.3,0.4l0.2,0.5l0.4,0.5L435.8,739.3L435.8,739.3z M419.4,722.5L419.4,722.5l-0.4,1l-3.1-2.6l-0.9-1.3l-2-6.7l-0.2-2l1.1,0.1
			l1.2,0.8l0.6,0.6l0.5,0.5l0.1,0.4l0.4,0.5l0.8,0.5l0.8,0.6l0.4,0.9l-0.2,2.8l0.2,1.1l0.7,1.8L419.4,722.5L419.4,722.5z M391,718.5
			h-0.4l-0.3-1.2l-0.3-2.7l-0.4-1l-0.8-1.1l-3.5-6.7l-0.2-1l-0.1-0.3l-0.3-0.2l-0.3-0.3v-0.6l0.2-0.6l0.3-0.2l0.3,0.1l0.4,0.4l1,0.7
			l0.4,0.4l0.3,0.5l0.2,0.5l0.1,0.6l0.2,0.9l2.7,7.1l0.4,2.2L391,718.5z M353.5,620.8L353.5,620.8l0.1,1l0.4,1.1l0.5,0.5l0.6,0.3
			l1.3,0.4l2.4,0.2l1.9-0.4l1.5,0.3l1.1,2.5l0.4,2.5l0.4,1.3l0.7,0.8l1.2-0.1l1.4-0.9l1.1-1.2l0.5-1l-0.1-0.6l1.6,0.7l2.9,4.7l3.5,4
			l1.4,2.2l0.5,1.3l0.5,1.1l0.8,1.3l1.1,1l0.8,0.4l0.7-0.1l0.7-0.5l1.3-1.5l0.7-0.4l0.7-0.1l1,0.1l10,2.1l0.6,0.5l0.4,0.9l0.7,6.2
			l0.5,1l0.5,0.8l2.7,1.8l0.5,2.1l0.2,0.5l0.5,0.7l1,0.8l8.6,5.7l3.5,1.7l1.6,0.2l1.5-0.5l1.2-0.1l1,0.2l1.2,0.6l0.9,0.1l0.7-0.1
			l1.3-1.1l0.7-0.5l1.2-0.4l0.5-0.5l0.2-0.6l-0.2-0.7l-0.8-1.7l-0.2-0.2l-0.2-0.4l-0.2-0.3l-0.1-0.4l-0.1-0.4v-0.8l0.3-3.6l0.3-0.8
			l0.4-0.7l1.2-0.8l2,0.2l0.6,0.4l0.8,0.8l0.9,1.3l0.8,1.6l0.1,0.3l0.3,0.5l0.4,1.2l0.2,0.9l0.3,0.7l0.4,0.3l1.6,0.1l1,0.3l0.9,0.6
			l1.5,1.5l0.6,0.9v7.4l0.6,1l0.7,0.4l2.4,0.4l0.9,0.4l0.9,0.8l0.7,0.9l0.6,1l0.2,0.6l7.4,12.6l0.8,1.7l1.4,4.2l0.8,1.5l2.8,3.4
			l-0.2,3.8l0.3,1l0.4,1l1.1,0.9l0.1,0.1l1.8,1.8l1,1.3l0.4,1l0.1,0.8l-0.2,0.8l-0.6,1.9l-0.3,1.6v1l0.2,0.8l2.4,5.3l2.2,10.5
			l1.2,6.6l0.5,1.2l5.3,7.7l1.4,2.5l0.3,1.1l-0.1,0.6l-0.4,0.2h-0.6l-0.4,0.8l-0.1,1.4l0.9,3.5l0.6,1.5l0.7,1l0.8,0.2l1,0.2l1.9,1
			l2.8,3.1l2.1,4.9l0.9,1.2h0.6l2.5,3.3l0.4,0.7l0.5,1.2v0.8l-0.4,0.6l-0.7,0.4l-1,0.3l-1.9,0.3l-0.7,0.3l-0.1,0.5v0.4l0.2,0.3
			l0.2,0.3l2.5,2.3l1.1,1.8l-0.1,0.8l-0.3,0.7l-1.8,1.7l-0.6,1.2l0.1,1.1l1.5,3.1l0.2,1.1l-0.2,0.9l-0.2,0.8l-0.2,1.4v0.6v0.5
			l2.6,4.7l0.7,1l0.9,0.9l0,0l2.4,4.9l0.6,2.5l0.1,3.4l-1,4.8l0.1,6.2l-1,2.5v0.9l0.1,0.9l0.2,0.6l0.2,0.4l0.5,0.8l1.6,2.9v1
			l-0.1,1.1l-0.7,1.9l-0.4,3.2l-0.8,2l-2.9,3.3l-0.5,1l-0.1,1.1v1.8l-0.3,2.2l-0.1,4.5l-0.7,2.1l-1.9,3.5l-0.6,0.3l-0.4-0.2
			l-0.4-0.3l-0.9-0.9l-1.1-0.8l-0.9-0.2l-1.4-0.1l-1.1-0.5l-3.9-2.7l0,0l-0.1-0.8l0.2-1v-0.7l-0.2-0.8l-0.4-0.9l-0.2-0.3l-0.1-0.3
			v-0.8l0.4-1.6l1,0.3l1.2,1.1l1,0.7l-0.3-0.8l-1.1-2v-0.7l0.2-0.7l-0.3-0.7l-0.9-0.9l-0.6-1.2l-0.4-1.2l-0.2-2.7l-0.5-1.2l-2.4-2.3
			l-0.5-1.8l-0.2-3.6l-0.4-1.6l-2.1-4.3l-0.2-0.9l0.4-0.9l1.8-0.8l0.6-0.6l0.1-1.4l-0.2-1.4l-0.5-1.3l-1.1-1.7l0-0.7v-0.7l-0.2-0.7
			l-0.3-0.6l-0.6-0.7l-0.2-0.3l-0.4-2.4l-0.4-1.2l-0.9-0.5l-2.6,0.3l-1.1-0.1l-0.8-0.7l-0.1-0.5v-0.8l0.1-0.8l0.2-0.5l0.5-0.2
			l0.6,0.8l0.9-0.3l0.7,0.7l0.6,0.1l0.5-0.3l0.7-1l0.5-0.3l-0.7-1l-0.3-1.1l-0.6-0.9l-1.4-0.3l-0.9-0.4l-0.4-1l-0.3-1.1l-0.5-1
			l-3-3.3l-1.1-1.8l-0.8-1.8l0.8,0.2l0.2-0.6l-0.5-5l-0.2-0.7l-5.7-5.6v-0.5h0.4l1,0.8h2.1l3.9-0.8l-0.9-0.4l-0.6-0.4l-1.4,1
			l-0.9-0.4l-1.7-2.7l-1.7-2.2l-0.3-1.2l0.1-1.7l-0.6,0.5l-0.3,0.8v0.9l0.1,0.7l-0.9,0.2l-1.2-0.3l-1.1-0.7l-0.7-0.9l-0.6,0.3
			l-0.2,0.2l-0.9-1.1l-0.4-1.8l0.3-1.8l1-1.1l-0.8-2.1l-0.1-0.8l0.1-0.8l0.6-1l0.1-0.5l0.6-1.1l0.2-0.2l-0.1-0.4l-0.2-0.5l-0.1-0.4
			l1.5-1l0.4-0.4h-0.8l-1.4,0.4h-0.6l-0.9-0.4l-0.1-0.5l0.3-0.6l0.3-1l-0.1-0.6l-0.3-1.3v-0.9l0.3-0.8l0.8-1.6l0.2-0.8l-0.4-5.1
			l0.2-1l0.6-0.5l0.6-1.3l0.3-1.4l-0.4-0.9l-0.6,1.6l-1.5,2.9l-0.3,1.8l0.5,3.1v1.8l-0.6,0.8l-0.7,0.7l-0.9,1.3l-1.2,0.8l-1.5-0.8
			l-0.2-0.6l-0.1-1.5l-0.2-0.6l-0.7-0.3l-0.5,0.4l-0.3,0.8v0.9l0.3,0.4l1.9,1.8l0.5,0.7v0.5l-0.2,0.5l-0.1,0.7l0.1,4l0.3,1.2
			l0.4,0.7l1,1.2l0.2,0.8l-0.1,0.7l-0.3,0.9l-0.1,0.5l-0.2,0.6l-1.4,1.7l-0.1,0.1l-0.5,0.2l-0.1,0.1v0.3l0.1,0.5l0.2,0.4l0.1,0.1
			l-0.8,0.6l-0.6-0.5l-0.7-0.8l-2.4-0.8l-3-3l-1.1-0.6l-2.5-1l-0.9-0.7l-0.5-0.6l-0.3-0.6l-0.4-0.5l-0.6-0.5l-0.6-0.1l-0.4,0.1
			l-0.4-0.1l-0.5-0.8l-0.1-0.7l0.2-1.4l-0.3-0.7l-0.3-0.5l-0.3-0.7l-0.2-0.7l-0.1-0.6l-0.4-1l-2-1.7l-0.8-0.9l-1.5-3.3l-0.6-0.4
			l-3.4-4.6l-0.6-1.2l-0.2-1V745l0.4-0.9l1-0.9l1.3-0.6l1.3,0.1l0.4,0.4l0.2,0.5l0.2,0.5l0.5,0.2h2l1.1,1.9l0.4,1.4l-0.9,0.9
			l2.5,1.7l1.3,0.5l1.7,0.2l0.3,1.5l1.8,1.3l2.4,0.7l2.1-0.2l1.8-1l3.7-2.8l1.2-1.3v-0.3l-0.1-0.7l0.1-0.3l0.2-0.1l0.5-0.2l0.1-0.1
			l1-1.5l0.4-0.9l0.1-1.1l-0.2-2l0.3-0.8V741l-0.4-0.4h-0.4L444,741l-1.3-0.3l-0.5-0.6l0.3-0.7l1-0.5l-0.6-0.3l-0.6-0.1h-1.4
			l-0.6-0.2l-1.5-1.5l-2.3-1.6l-1.2-1.1l-0.5-1.2l-0.5-0.7l-2.2-0.9l-0.5-0.9l0.4-1.2l1-0.6l1.3-0.1l1.2,0.3l-0.3-1l0.5-0.9l0.8-0.9
			l0.6-0.9l-0.8-1.3l-0.4-0.4l-0.4,1.7l-0.9,1.6l-1.3,1l-1.7-0.2l-0.6-0.5l-0.5-0.8l-0.2-1l0.1-1.1l0.4-0.7l1.3-0.6l0.6-0.7L431,722
			l-0.8,0.9l-0.4,1.2l-0.5,0.6h-2.6l-0.7-0.6l-0.1-1.5l-0.7,1.6l-0.4,0.6l-0.8,0.3v-4l0.3-0.8l3.1-4.6l1.1-0.8l1.4-0.1l2,0.2
			l-0.5-0.7l-0.2-0.7l0.3-0.5l0.9-0.1l-0.3-0.5l-0.4-0.4l-0.4-0.3l-0.5-0.1l-0.3,0.2v0.9l-0.2,0.2h-3l-0.6,0.2l-0.4,0.2l-0.5,0.1
			l-1-0.1l-0.2,0.2l-0.4,1.1l-0.4,0.4l-0.8,0.1l-0.8-0.3l-0.7-0.5l-0.5-0.6l0.3-0.2l0.5-0.5l0.4-0.2l-2.1-0.8l-0.6-0.6l0.8-0.7
			l-0.9-0.5l-0.3-0.7l0.3-0.7l0.9-0.2l-0.1-0.5l-0.2-0.4l-0.7,0.4l-0.6,0.4l-0.4,0.5l-0.2,0.8l-0.3-0.3l-0.7-0.6l-0.3-0.3l-0.4,1.4
			l-0.4,0.4l-0.6,0.2l-0.6-0.2l-0.7-0.6l-0.5-0.8l-0.2-0.7l-0.3-1.5l-1.1-3.1l-0.1-1.5h-0.4v2.3L411,706l-0.6,0.3l-0.4-0.7l-0.9-3.9
			h-0.4l-0.4,1.3l-0.8,1l-1.1,0.7l-1.2,0.4l-1.6-0.1l-1.7-0.6l-1.4-0.3l-0.8,0.7l-0.9-0.4l-0.8-0.6l-0.7-0.7l-0.4-0.8l0.1,1.2l0.4,1
			l1.1,2l1.2,4.2l3.4,6.8l0.1,1.6l-1.2-1l-0.9-1.6l-1.4-3.3l-0.9-3l-0.7-1.7l-1-0.8l-1.3,0.8l-0.4,1.8l0.2,2l1.1,2.3l0.3,1.9
			l0.3,0.9l0.7,0.9l0.2,0.2l0.2,0.1l0.2,0.2l0.6,0.9v0.1l-1.1-1.3l-0.6-0.2l-0.3-0.2l-0.5-0.8l-0.7-1.7L393,711l-0.4-1l-0.2-1.6
			l-0.6-1.1l-1.5-1.7l-1.2-1.7l-0.6-0.6l-0.3-0.6l-0.1-1.8l-0.2-0.7l1.1,0.3l3.1-0.3l0.7-0.3l0.6-0.8l0.9-1.4l0.2,0.3l0.1,0.2
			l0.1,0.3v0.4h0.4l1.2-3.2l0.3-0.6v-0.4l-1.8,0.5l-2.4,2.6l-1.7,1.1l-1.6-0.3l-0.2-2l0.8-3.2l1-1l1.3-4.6l0.9-1.1l1.4-0.6l0.6-1.4
			l0.5-3.1l-1.1,0.9l-0.5,2.5l-0.7,0.9l-1-0.2l-0.5-1.2l-0.2-1.6l0.1-1.3l2.2-4l0.9-2.3l-0.7-1.3l-0.2,1.2l-0.5,1.4l-0.6,1.3l-0.8,1
			l-0.7,1.4l-0.2,1.8l0.3,3.4l-0.5,2.7l-1.2,2.3L386,695l-2.2,4.7l-0.2,0.2l-0.3,0.3l-0.5,0.3l-0.8,0.1l-0.4-0.2l-0.3-0.3l-0.5-0.8
			l-3.7-2.9l-0.6-0.7l0.1-0.9l0.3-0.9l0.5-0.9l0.7-0.8l3.7-2.5l2.1-0.5l2.4-0.8l-0.5-0.3l-0.5-0.1h-1.1l-0.7-0.1l-0.2-0.2l-0.1-0.4
			l-0.4-0.5l-1.4-1.1l-0.5-0.6l-0.4-0.8l-0.5-5.5l-0.3-1L379,677l-1.3-0.1l0.2,1.4l-0.6,1.3l-0.9,0.5l-0.6-1l0.9-0.3l0.3-0.1
			l-1.6-1.2l-0.5-1.9l-0.3-2.1l-0.9-1.8l-1.2-1.7l-2.1-3.7l-1.6-1.2l1.4,2.8l2.6,3.9l0.2,0.6l0.5,4.8l1.2,3.4l0,1l-0.4,2.8l0.4,6.3
			l-0.4,1.2l-0.4-0.7l-1-1.3l-0.5-0.9l-2.5-6.8l-1.2-1.7l-5.3-5l-0.6-1l-0.5-2.8l-0.7-1.2l-2.1-2.1l-0.4-0.7l-0.2-0.5l-0.3-0.4
			l-0.8-0.1l-0.6-0.2l-1.2-0.9l-0.6-0.2l-1-0.5l-0.6-1.3l-0.6-2.8l-3.2-9.3l-1-1.6l-0.4-1l-0.6-5.5l-0.3-0.7l-2.4-2l-0.3-1l-0.4-0.9
			l-1.3-1.2l-0.4-0.9l-0.3-1.1l0.2-1l0.3-1.8l0.1-1.2l-0.4-2.4v-1.2l0.3-1.1l1.6-2.3l0.8-2.6l0.6-1.2l1-0.2h1.8l2.2-2.7l1.9,0.6
			l0.8,1l0.2,1L353.5,620.8z"/>
		<path id="MM-15" class="st2" d="M658,978.6L658,978.6l-0.3,0.8l-0.4-1.2l-0.4-4.1l0.3,0.3l0.2,0.3l0.2,0.4l0.1,0.5l0.4,0.9v1
			L658,978.6L658,978.6z M652.4,936.4L652.4,936.4l-1.4,1.4l-1.8-0.6l-0.3-2.7l-0.7-0.9l-2.3-1.9l0.6-1.9l0.8-0.6l0.1-1.3l-0.3-1.5
			l-0.4-1.2l-0.7-1l-0.3-0.7l-0.1-0.7l0.2-0.4l0.4-0.3l0.2-0.3l-0.4-0.6l0.6-0.8l0.9-0.7l1.1-0.4l0.9-0.2l2.4,1.1l1.3,0.4l1.2,0.2
			l0.2,1.2l0.1,1.1l-1.2,1.8v0.9l0.2,2.3l-0.1,1.3l-0.3,0.7l-0.4,0.5l-0.3,0.5l-0.2,0.8l0.1,0.5l-0.2,2.2L652.4,936.4L652.4,936.4z
			 M664.6,918.6L664.6,918.6l0.2,0.1h0.4l0.7-0.2l2.3-1l0.5,0.2l-0.2,1.4l0.2,0.7l0.2,0.3l0.1,0.4l0.1,0.2l0.1,0.2l0.2,0.1l0.2,0.1
			l1,0.3l0.2,0.1l0.3,0.2l0.3,0.3l0.1,0.2l0.2,0.3l0.1,0.2l0.3,1l0.1,0.2l0.1,0.2l0.1,0.2l0.2,0.1l0.2,0.1l0.2,0l0.4,0.1l1.5,0.1
			h0.2l0.2-0.1l0.5-0.2h0.2l0.1,0.1l0.1,0.1l0.1,0.4l0.1,0.7l0.3,1.2l0.2,2.1l0.1,0.4l0.1,0.2l0.1,0.2l0.2,0.1l0.2,0.1l0.2,0.1
			l0.2,0.1l0.5,0.1l0.6,0.2l0.2,0.1l0.5,0.5l0.7,1.2l0.1,0.1l0.2,0.1l0.4,0.2l0.1,0.1l0.1,0.2l0.1,0.2l0.1,0.2v0.2l0.1,0.4v0.3v0.3
			l-0.1,0.4l0.1,0.2l0.1,0.2l0.2,0.1l0.2,0.1l0.1,0.1l0.1,0.2l0.2,0.4l0.1,0.2l0.1,0.2l0.9,0.8l0.8,0.6l0.1,0.2l0.1,0.2v0.1l0.1,1.2
			l-0.1,0.3l-0.2,0.2l-0.7,0.3l-0.8,0.5l-0.2,0.1l-0.4,0.1l-0.2,0.1l-0.2,0.1l-0.1,0.2l-0.2,0.4l-0.2,0.3l-0.2,0.1H681l-0.5-0.2
			l-0.5-0.3l-0.2-0.1l-0.5-0.1l-0.2-0.1l-0.2-0.1l-1.1-0.8l-0.5-0.1l-2.4,0.1l-1.7,0.5l-0.3,0.2l-0.5,0.1h-3.2l-2.4,0.4l-0.1,0.5
			l0.2,0.5l1.2,1.8l0.2,0.5l0.2,1.2l0.5,0.7l0.1,0.2v0.3v0.3l-0.1,0.6l-0.2,0.3l-0.2,0.2l-0.1,0.2l-0.1,0.2l-0.1,0.2l-0.1,0.2v0.2
			v0.8l-0.1,0.3l-0.1,0.2l-0.1,0.2l-0.1,0.1l-0.1,0.2l-0.1,0.2v0.2l0.1,2l-0.1,0.5l-0.1,0.3l-0.1,0.2v1l0.2,2l0.1,0.5l0.5,0.9
			l0.8,1.7l0.1,0.3v0.2v0.4v0.3l0.4,0.7l0.1,0.3l0.1,0.4v0.5l0.1,0.4l0.4,0.7l0.1,0.2v0.2l-0.1,0.3l-0.2,0.2l-0.3,0.2l-0.1,0.2
			l-0.1,0.2l-0.1,0.5l-0.2,0.4v0.3v0.3l0.1,0.5l0.3,0.6l1.6,0.5l1.3,1.2l0.2,0.1l0.5,0.2l0.1,0.1l0.1,0.1l0.1,0.2l0.1,0.3l0.1,0.4
			v0.8l0.1,0.3l0.2,0.3l1,0.9l0.6,0.4l0.6,0.5l0.2,0.2l0.1,0.2l0.1,0.2l0.5,1.2l0.3,0.5l0.5,0.7l0.9,0.9l0.2,0.2l1.9,4l0.2,0.3
			l0.6,0.4l0.3,0.3l0.9,1.5l0.5,1l0.5,0.9l1.1,1.5l0.5,0.5l0.4,0.3l0.2,0.1l1.2,0.8l0.3,0.2l0.4,0.8l0.6,1.6l0.2,0.7l-0.2,1.2
			l0.1,0.5l0,0l-1.8-0.1v0.7l0,0l0.4,0.9l0.4,0.8l-0.3,1.1l-1.2,2.1l-0.3,1.2l0.5,1.4l0,0l1.8,1.8l0,0l0.3,1.3l-0.2,0.6l-0.3,0.5
			l-0.2,0.6v0.5l-3.1,0.1l-1-0.1l-0.7-0.2l-0.3-0.2l-0.2-0.1l-0.6-0.5l-0.7-0.8l-2.2-3.7l-0.5-0.5l-0.4-0.2l-0.5,0.1l-1.5,0.6
			l-1,0.2l-2,0.2h-0.7l-1.2,0.1l-0.3,0.4l-0.2,0.5l-0.3,2.2l-0.4,1.6l-0.5,1.3l-1,2l-1.2,1.8l-0.8,0.9l-1.4,1l-0.1,0.1l0,0l0.3-0.6
			l0.1-0.6v-1.4l0.1-0.7l0.5-0.8l0.1-0.5l-0.2-1.5l-0.5-0.9l-0.8-0.6l-1-0.5l0.3-0.5l0.5-0.3l0.5-0.1l0.7,0.1l-0.2-0.4l-0.3-0.8
			l-0.2-0.4l0.7-1l0.2-1.2l-0.2-4.8l0.2-1l0.7-1.1h-1.6l-0.8-0.2l-0.6-0.7l-1.5-2.6l-0.1-0.5v-1l0.1-1.5l-0.2-0.7l-0.7-0.6l0.2-0.5
			l0.3-0.4l0.4-0.2l0.5-0.1l0.6-2l0.4,0.3l0.5-0.2l1.1-0.9l-0.5-0.7l-1.5-4.2v-0.8l0.7-1.6l-0.4-0.8l-1.4-3.6V973l0.2-0.4V972
			l-0.2-0.5l-0.2-0.4l0.2-0.6v-0.9l-0.3-0.9l-0.5-0.7l-0.2-0.5l0.1-0.5l0.2-0.5l0.1-0.5l-0.2-0.5l-0.8-0.9l-0.2-0.5l0.1-0.3l0.5-0.5
			l0.2-0.3v-3.9l-0.3-0.8L660,958l0.3-1.6l-1.1-1.4l-3.1-2.2l-1.6-2.1l-1.6-1.5l-0.4-0.5v-0.3l-0.4-2.4v-0.6l0.1-0.4l0.3-0.3
			l0.5-0.1l0.9-0.4l0.6-0.9l0.4-1.1l1.1-6.8l0.5-1.2l0.1-0.7v-0.7l-0.2-0.6l-0.5-1.2l-0.6-2.4l-0.2-2.5l0.2-2.6l0.6-2.4l0.8-1.8
			l1.3-1.6l1.7-1.1l2.1-0.4l0,0l0.6,0.5L664.6,918.6L664.6,918.6z M643.8,847.3L643.8,847.3l0.1,0.3v0.3v0.2l-0.3,0.5l-1.2,0.9
			L642,850l-0.4,1.2v0.2v0.3l0.1,0.4l1.3,3.2l0.2,0.3l0.3,0.3l0.6,0.5l0.2,0.1l0.6,0.2l0.3,0.2l0.5,0.4l0.1,0.2l0.1,0.2v0.3
			l-0.7,3.4v0.3l0.1,0.3l0.3,0.4l0.2,0.4l0.2,0.7l0.2,1.3l0.6,2.1l0.2,0.3l0.1,0.1l0.2,0.3l0.6,1.3l0.2,0.3l0.1,0.1l0.3,0.3l0.1,0.1
			l0.1,0.1l0.1,0.3l0.4,1l0.1,0.4v0.4l-0.3,0.5l-0.2,0.3l-0.3,0.3l-0.1,0.2l-0.1,0.3v0.4l0.5,1.5l0.1,0.2l0.3,0.8l0.2,0.7l-0.1,0.6
			l-0.7,1l0.9,2.6l0.3,0.5l0.1,0.2v0.2l-0.1,0.4l-0.5,0.8l-0.2,0.1l-0.2,0.1l-0.2,0.1l-0.1,0.2l-0.1,0.2v0.3l-0.2,0.3l-0.1,0.1
			l-0.2,0.2l-0.4,0.2l-0.2,0.1v0.2l0.1,0.3l0.2,0.4l0.1,0.3l0.1,0.3l-0.1,0.5l-0.1,0.3l-0.1,0.2l-0.1,0.1l-0.2,0.1H647h-0.2h-0.2
			l-0.1,0.3v0.5l0.3,2l0.1,0.2l0.2,0.3l1.2,1.4l0.1,0.2v0.2v0.5l-0.2,0.7l0.1,1.2v0.2l-0.1,0.4v0.2l0.1,0.3l0.4,0.5l0.3,0.4l0.2,0.5
			l0.4,0.4l0.7,0.5l0.1,0.2l0.1,0.3v0.5l-0.1,0.3v0.4l0.1,0.2l1,1.2l0,0.9l-0.1,0.7l0.2,0.9l0.1,0.9l0.1,0.5l0.3,0.5l1.8,2.4
			l1.1,1.2l1,0.4l0.2,0.2l0.2,0.2l0.1,0.5v0.3l-0.1,0.3v0.2l0.8,1.1l0.2,0.2l0.3,0.2l0.5,0.1h0.3l0.3-0.1l0.6-0.2h0.1h0.2l0.2,0.2
			l0.1,0.2l0.2,1.3l-2.9,2l-1.3,0.5l-1,0.1l-3.7-0.5l-1.5,0.1l-1.3,0.3l-0.3,0.2l-0.2,0.3l-0.3,0.2l-0.5,0.1l-0.3-0.1l-0.7-0.2
			l-0.4-0.1l-1.7,0.1l-1.2,0.4l-0.9,0.8l-0.9,1.2l-1.9-8.8v-1.4l-0.4-1.5l-1.1,1.7l-1.5-0.4l-1.7-2.4l-0.9-2l-0.6-2.2v-1.6l0.8-1.2
			l-0.5-0.7l-0.2-0.6v-0.5l0.4-1.5h-0.4l-0.5,1.3l-0.2,0.8l-0.1,0.9l-0.6-0.4l-0.2-0.7v-0.9l0.1-0.9l0.8-1.6l-0.5-0.4l-0.5,0.1
			l-0.6,0.3l-0.5-1.2l0.2-1.5l0.7-3v-1l-0.2-0.5l-1-1l-0.4-0.5l-0.4-0.8l-0.3-0.9l-0.1-0.8l1-1.5l1.6,0.4l1.8,0.7l1.6-0.7l-2.2-1.1
			l-1.1-0.3l-1.2-0.2l-1.4,0.3l-0.6,0.7l-0.3,1l-0.6,1.2l-0.9-1.2l-0.8-2l-0.2-1.9l0.8-1v-0.4l-1.2-0.3l-0.4-1l-0.2-1.3l-0.6-1.2
			l-1.2-0.6l-1.4-0.4l-0.9-0.6l0.3-1.3l-6.3-4.6l-0.5-0.6l-0.3-0.6l-0.2-1l0.1-2l-0.3-0.8l0,0v-6.8l0.4-2l0.5-0.2l0.5-0.2l0.4-0.1
			h0.2l0.6,0.2h0.8h0.2l0.2-0.1l0.2-0.1l0.2-0.1l0.2-0.1h0.3l0.5,0.1l0.8,0.3l0.7,0.1h0.1l0.2,0.2l0.3,0.3l1.3,1.7l0.2,0.2l0.3,0.2
			l1,0.4l0.6,0.1l0.4,0.2l0.4,0.3l0.8,0.7l0.4,0.5l0.2,0.7v0.6v0.2l0.1,0.2v0.1l0.2,0.8l0.2,0.1l0.2,0.1l1.2-0.2l3.3-1.5l1-0.7
			l0.8-0.7l0.4-0.7l0.5,0.1h0.2l0.2-0.1l0.1-0.4V856v-0.2l0.1-0.2l0.2-0.2l0.3-0.2l0.5-0.3l0.9-1l0.2-0.1h0.4l0.2,0.1l1.4,0.6
			l0.2-0.1l0.2-0.2l0.5-1.1l0.1-0.4v-0.3v-0.2v-0.2v-0.2l0.1-0.2l0.8-1.4l0.2-0.2l0.3-0.2l0.4-0.2l0.1-0.1v-0.2l-0.1-0.7V848
			l0.1-0.2l0.1-0.2l0.2-0.2l0.3-0.1h0.3l0.2,0.1l0.2,0.1l0.2,0.1l0.2,0.1h0.2l0.1-0.1l0.2-0.4l0.1-0.1h0.2l0.2,0.1l0.1,0.2
			L643.8,847.3z"/>
		<path id="MM-06" class="st2" d="M587.6,890.7L587.6,890.7l7.4-0.5l5,0.4l3.1,0.6l0.7,0.3l0.5,0.3l0.5,0.4l1.8,2.1l2.1,1.9l0.8,0.3
			l0.4,0.3l0.6,0.7l0.3,0.8l-0.1,0.9l-0.9,1.4l-0.3,1.3l-0.8,2.1l-0.9,0.1l-0.4,0.4l0.1,0.5l0.6,0.6l-1,1.5l-1,0.9l-2.3,1.7
			l-0.5,0.6l-1,1.7l-1.1,3.3l-2.3,1.8l-1.4,1.6l-3.3,1.2l-3.5,0.8l-3.5,0.4l-2.1-1.6l-1.3-0.3l-1.2-0.6l-3.9-2.9l-1-0.9l-0.4-0.9
			l-0.1-1.5l-0.2-1.1l-0.3-1l-1.1-2.4l-0.3-1.2l-0.2-1.2v-1.3l0.5-1l2.3-1.5l0.7-0.6l-1.7-0.2l-2.9,2.3l-2,0.3l0.3,0.6l1,1.1
			l0.2,0.5l0.4,2.3l0.6,1l1.5,1.8l0.3,1.1l-0.1,0.7l-0.6,1.3l-0.1,0.6l0.2,0.7l0.7,1.3l2.8,3.8l0.9,1.6l1,0.7l0.5,0.8l-0.9,1.4
			l-1,0.5l-1.1,2.4l-3.6,1.3l-3.3,0.7l-1.2,0.5l-1.4,0.2l-1.2-0.4l-0.5-1.3l-0.7-0.7l-4-1.6l0.6,0.5l0,0l-0.6-0.3l-0.6-0.6l-0.3-0.2
			l-0.5-0.2h-2.9l-1.3-0.3l-0.4-0.1l-1.2-0.7l-1-1l-0.1-0.8l-0.1-0.3l-0.2-0.4l-1-0.5l-0.5-0.6l0.3-0.9l0.3-0.4l2-2l0.4-0.6l0.2-0.5
			l-0.1-0.3l-0.1-0.3l-0.3-0.6l0.1-2.5l-0.1-0.4l-0.2-0.5l-0.3-0.2l-0.6-1.2l0.8-0.4l0.6-0.7l0.8-2l0.3-2.3l-0.4-1.7l-1-1.6
			l-0.6-1.3v-1.4l0.4-1.1v-0.3h0.2l1.2-2.4l-0.2-1.7l-1.2-1.5l-1.1-1.2l-0.4-0.7l-0.1-0.5v-0.5V889v-1.1L553,887l-0.8-0.8l-0.9-1.6
			l-0.5-1.2l-0.5-0.8l-1.4-1.4l-1.2-0.9l-0.6-0.7l-0.3-0.6l-0.2-0.6l-0.3-0.4l-1-0.8l-0.9-3.9l-0.1-1.7l0.5-2.4l0.4-1.2l1.7-3.5
			l0.7-2.7l1.5-3.1l1.1-1.2l1.3-0.7l1.9-1.5l0.9-1.2l1.5-2.7l0.7-0.8l3.3-1.8l1-0.7l0.7-0.6l0.7-1.1l1.5-1.8l0.7-0.5l0.6-0.2
			l0.5,0.2l0.3,0.3l0.4,0.6l1.8,4.3l10.4,18.1l0.4,1l2,8.9l0.3,0.8l0.4,0.7l0.8,1l1.1,1.7l0.7,1.4l0.5,2.3v0.8l-0.3,2.7l0.2,1.5
			L587.6,890.7L587.6,890.7z"/>
		<path id="MM-02" class="st2" d="M578.4,740.2L578.4,740.2h0.4l0.9-0.2l1.5-0.1l3.8,0.4l0.9,1.2l0.3,0.3l0.3,0.5l0.1,0.4l-0.1,0.6
			l-0.1,0.4v0.4l0.1,0.5l0.4,0.8l0.4,0.5l0.4,0.3l0.6,0.4l0.3,0.3l0.2,0.4l0.1,0.6v1.1l-0.2,1.1l0.1,0.3l0.4,0.4l0.3,0.5l0.3,0.6
			l0.3,1l0.3,0.5l0.3,0.3l0.2,0.2l0.2,0.4l0.2,0.7l0.3,1.4l0.3,0.5l0.3,0.3l0.3,0.1l0.4,0.2l0.2,0.3v0.4l-1.1,1.1l-0.7,0.5l-0.2,0.2
			v0.1l0.2,0.9l0.5,0.2l0.2,0.3l0.2,0.6l0.1,0.4l0.2,0.6l0.3,0.6l1.2,1.7l2.2,2.2l1.8,1.4l1.7,1.6l0.3,0.3l0.2,0.4l0.3,0.8l0.2,0.3
			l0.6,0.5l0.2,0.3l0.1,0.3l-0.3,0.7L599,776l-0.8,0.5l-0.5,0.5l-0.2,0.6l0.1,0.8l0.6,1l0.8,1.1l0.1,0.9l-1.5,1.8l-0.1,1l1.4,2.9
			l0.7,2l0.4,0.9l1,1.2l0.2,0.3l0.2,0.8l0.2,0.3l0.3,0.2h0.4l0.7-0.4l0.4-0.4l0.4-0.3l0.3-0.1h0.4l0.5,0.2l0.7,0.5l0.5,0.2l0.6,0.2
			l0.9,0.1l0.9,0.3l0.5-0.1l0.6-0.3l2.9-1.6l2.8-0.9h0.5l0.3,0.1l0.3,0.3l0.2,0.4l0.1,0.5l0.1,0.3l0.7,0.5l0.3,0.3l0.2,0.4l0.2,0.6
			l0.1,0.6v0.5v0.5l0.3,1.5v1.2l-0.5,2v0.4v0.3v0.6l-0.1,0.4l-0.1,0.4l-0.4,0.8v0.6l0.3,0.8l0.8,1.4l0.5,0.7l0.5,0.5l0.6,0.4l1,0.4
			l0.3,0.2l0.3,0.2l0.8,0.9l0.2,0.3v0.5l-0.1,0.9v0.3l0.2,0.4l0.3,0.3l0.5,0.2l0.4,0l0.2-0.3l0.2-0.6l0.1-0.3l0.3-0.3l0.3-0.2
			l0.4-0.1l0.4,0.2l0.4,0.6l0.5,1.5l0.2,1.1v1.6l-0.1,0.7v1l0.9,1.1l2.2,1.6l0.3,0.3l0.2,0.3l0.1,0.5v0.6l-0.2,0.8l-0.5,0.9
			l-0.1,0.4l-0.1,0.3l-0.1,1.4l-0.1,0.5l-0.7,1.6l-0.2,0.3l-0.2,0.3l-0.2,0.3l-0.2,0.7l-0.2,0.3l-0.2,0.3l-0.5,0.5l-0.2,0.3
			l-0.2,0.3l-0.3,0.7v0.5l0.1,0.6l2.5,5.3l0.1,0.4l0.1,0.5v0.5l0.2,0.5l0.3,0.2l0.3,0.2l0.3,0.2l0.2,0.5l0.1,0.7l-0.2,1.3l-0.3,1.2
			l-0.1,0.3l-0.7,1l-0.2,0.4l0.1,0.9l0.3,1.3l1.9,4.9l0,2.4l-0.1,0.3l-0.1,0.3v0.7l1.2,0.9l-0.2,0.7l-0.8,0.7l-1,0.7l-3.3,1.5
			l-1.2,0.2l-0.2-0.1l-0.2-0.1l-0.2-0.8v-0.1l-0.1-0.2v-0.2v-0.6l-0.2-0.7l-0.4-0.5l-0.8-0.7l-0.4-0.3l-0.4-0.2l-0.6-0.1l-1-0.4
			l-0.3-0.2l-0.2-0.2l-1.3-1.7l-0.3-0.3l-0.2-0.2h-0.1l-0.7-0.1l-0.8-0.3l-0.5-0.1h-0.3l-0.2,0.1L617,853l-0.2,0.1l-0.2,0.1h-0.2
			h-0.8L615,853h-0.2l-0.4,0.1l-0.5,0.2l-0.5,0.2l-0.4,2v6.8l0,0l-0.7,0.9l-0.5,2.3l-0.4,0.9l-0.2-0.3l-0.5-0.5l-0.1-0.4l-0.3,0.2
			l-0.3,0.2l-0.3,0.2l-0.2,0.2l0.4,0.4l1.3,1.7l1.9,1.2l1.5,1.3v2l-1.2,1.4l-1.4,1.2l-0.9,1.6l0.4,2.7l2.3,4l0.8,2.1v2.5l-0.3,0.9
			l-1.1,1.8l-0.5,2.7l-0.6,0.4l-1.9-0.5l0.2,0.6l0.2,0.5l0.3,0.5l0.4,0.5l-0.8-0.1l-1.2-0.3l-0.8-0.1v0.5l0.8,0.4l0.3,0.2l-0.8-0.3
			l-2.1-1.9l-1.8-2.1l-0.5-0.4l-0.5-0.3l-0.7-0.3l-3.1-0.6l-5-0.4l-7.4,0.5l-2.9-0.3l-0.2-1.5l0.3-2.7v-0.8l-0.5-2.3l-0.7-1.4
			l-1.1-1.7l-0.8-1l-0.4-0.7l-0.3-0.8l-2-8.9l-0.4-1l-10.4-18.1l-1.8-4.3l-0.4-0.6l-0.3-0.3L565,844l-0.7,0.2l-0.7,0.5l-1.5,1.8
			l-0.7,1.1l-0.7,0.6l-1,0.7l-3.3,1.8l-0.7,0.8l-1.5,2.7l-0.9,1.2l-1.9,1.5l-1.3,0.7l-1.1,1.2l-1.5,3.1l-3.1-4.8l-1.2-1.5l-1.3-0.9
			l-3.9-1.5l-0.9-0.5l-0.8-0.4l-1-0.2l-1-0.5l-0.8-0.7l-0.6-0.6l-1.1-1.8l-0.9-2.4l-0.5-2.7v-1.2l0.7-0.7l1.1-1.2l0.2-0.9V837
			l0.2-1.5l0.1-0.2v-0.5l-0.2-0.4l-1-1l-1.4-1.1l0.5-2.4l-0.2-2.2l-2.2-6.2l-0.3-0.5l-0.2-0.6v-1.3l-0.2-0.6l-0.3-0.5l-0.4-1.5
			l-0.3-0.7l-0.3-0.3l-0.9-0.6l-0.3-0.3l-2.5-3l-1.4-1.2l-0.3-0.6l-0.6-0.5l-0.7-1l-3.6-4.7l-1-1l-0.9-1l-0.5-0.4l-4-3.1l-1-1.3
			l-0.2-1.1l0.2-1.1l0.4-1.3l0.1-2.7l0.2-1.3l0.9-0.7l0.2-0.9l0.1-0.2h0.2l0.6,0.1h0.3l1.8-0.8l0.6-0.4l1.3-1.2l1.1-1.8l0.5-2.3
			l-0.5-2.6l-0.6-1.1l-0.5-0.5v-0.8l0.1-0.3l0.2-0.5l1.5-1.3l3-1.9l0.8-0.7l0.4-0.8l0.2-0.5l0.1-0.5v-2.5l1-1.3l4.2-0.8l3-3.8
			l1.8-0.9l3.5-1.1l1.2-0.2l3.4,0.1l7.6-1.1h1.7l0.8,0.1l0.5,0.1l1.5,0.9l0.4-0.2l0.1-0.1l0.1-0.2l0.1-0.2v-0.2v-1.5v-0.4l0.1-0.3
			l0.1-0.2l0.3-0.3l0.7-0.7l0.2-0.2l0.1-0.3l0.3-2.2v-1.7l-0.1-1l-0.1-0.6l-0.4-0.7l-1.3-1.8l-0.1-0.4l-0.1-0.5l-0.1-1l-0.4-1.8
			l-0.6-1.1v-0.7l1.6,0.3l0.6,0.3l0.2,0.1l0.3,0.2l0.4,0.2h0.3l1.4-0.1l0.5-0.3l0.2-0.3v-0.5l0.1-0.2l0.1-0.2l0.1-0.1l0.2-0.1
			l0.4-0.2l1.2-0.2l0.3-0.1h0.4h0.3l0.6,0.2l0.6,0.2l0.2,0.1l0.8,0.3l0.2,0.1l0.5,0.4l0.5,0.2l0.6,0.2l2.4,0.3l0.3,0.1l0.1,0.2
			l0.1,0.2l0.3,0.3l0.3,0.2l0.3,0.2l0.2,0.1l0.2,0.3l0.2,0.1l0.7,0.2h0.3l0.3-0.1l0.5-0.4l0.6-0.6l0.2-0.1l1-0.5l0.2-0.2l0.1-0.2
			l0.1-0.7l0.2-0.4l0.1-0.2l0.1-0.5l0.1-0.2l0.1-0.1h0.2l0.4,0.2l0.5,0.1l3.3,0.1l1,0.2l0.3,0.2L578.4,740.2L578.4,740.2z"/>
		<path id="MM-04" class="st2" d="M573.2,491.3L573.2,491.3l1.4-0.3l2.6-1.4l0.9-0.2h0.6l1.8,1.6v1l-0.1,0.3l-0.1,0.3l-0.8,0.5
			l-0.2,0.3l-0.1,0.3l0.1,1l0.1,0.2l0.3,0.5v0.2v0.2l-0.2,0.2l-0.4,0.1l-0.5,0.1l-0.2,0.1l-1.3,1.3l-0.5,0.4l-0.1,0.1l-0.1,0.2
			l-0.6,0.8l-0.2,0.3l-0.1,0.3l0.1,0.4l0.1,0.2l0.1,0.3l-0.1,0.2l-0.3,0.3l-0.2,0.2l-0.2,0.1l-0.2-0.1l-0.2-0.1l-0.2-0.1l-0.3-0.3
			l-0.2-0.1l-0.2-0.1h-0.2h-0.2l-0.2,0.1l-0.1,0.2l-0.1,0.3v0.4l0.3,0.8l0.2,0.4l0.2,0.2l0.2,0.1v0.3v0.4l-0.3,0.7l-0.2,0.9v1.3
			l-0.1,1.4v0.3v0.4v0.5v0.2l-0.1,0.2l-0.2,0.3l-0.4,0.5l-0.1,0.2l-0.1,0.2l-0.1,0.5l-0.1,0.2l-0.1,0.2l-0.5,0.3l-0.1,0.2l-0.1,0.2
			l-0.1,0.2v0.3l0.1,0.9l0.2,0.5l0.3,0.5l1.3,1.3l0.4,0.5l0.4,1l0.1,0.5v0.3l-0.1,0.2l-0.1,0.2l-0.1,0.2l0.5,0.7l2.8,1.7l4.9,0.3
			l4.5-0.8h0.8l0.2-0.1l0.8-0.3h0.3h1l0.3-0.1l0.2-0.1l0.1-0.1l0.4-0.7l0.1-0.1l0.7-0.3l0.2-0.1l0.3,0.1l0.5,0.3l0.8,0.7l0.3,0.3
			l0.2,0.3l0.2,0.2l0.3,0.1h0.5l0.3-0.1l0.2-0.1l0.3-0.2h0.2l0.2,0.1l0.1,0.3v0.2l-0.1,0.2l-0.1,0.2v0.2v0.5v0.2l-0.1,0.2l-0.1,0.2
			v0.1l0,0v0.1l0.2,0.2l1.6,1l0.5,0.2l0.5,0.1l1.8,0.1l0.9,0.2l1.7,0.8l0.3,0.3l0.1,0.2l0.1,0.2l0.1,0.5v0.2l-0.1,0.3l-0.2,0.2
			l-0.6,0.5l-0.2,0.2l-0.3,0.5l-0.7,0.9l-0.1,0.2l-0.5,0.7l-0.1,0.2l-0.2,0.3l-0.2,0.4l-0.1,0.2l-0.1,1l-0.2,0.2l-1,1l-0.3,0.1h-0.4
			l-0.3,0.1l-0.6,0.5l-0.3,0.1h-0.3l-1.3-0.5l-1.5-0.1l-0.4,0.1l-0.4,0.2l-1.2,0.8l-1.6,0.8l-0.2,0.2l-0.7,0.2l-2.4,0.2l-0.5-0.3
			l-0.5-0.4l-0.2-0.1l-0.2-0.1l-0.3,0.1l-0.4,0.2l-0.6,0.3h-0.5l-0.8,0.5l-0.2,0.2l-0.4,0.1h-0.7l-2.1-0.2l-0.8-0.2l-0.6-0.3
			l-0.4,0.1l-0.3,0.1l-1.5,1.1l-2.2,1.4l0.7,1.4l0.1,0.4l0,1l0.1,0.2l0.3,0.1l0.2-0.1l0.4-0.2h0.1l0.1,0.2l-0.1,2.3v0.2l0.1,0.4
			l0.6,1.2l0.5,0.7l1.9,2.3l0.2,0.4l0.1,0.3v0.5l-0.1,1.4l0.1,0.5l0.3,0.5l0.3,0.2l0.3,0h0.2l0.2,0.1l0.2,0.1l0.1,0.2l0.1,0.2
			l0.5,1.1v0.3v0.4l-0.3,0.8l-0.1,0.7l-0.1,1.7l-0.4,1.7l0.2,1.3l0.1,0.2l0.2,0.2l0.5,0.2l2.2,0.2l0.8-0.1h0.5l0.2,0.1l0.3,0.2
			l0.3,0.4l0.5,0.8l0.3,0.3l0.2,0.5l0.1,0.3l0.2,2.5l0.9,0.7l0.5,0.8l0.9,2.2l0.1,0.2l0.1,0.6v1.2v0.2l-0.2,0.7v0.3v0.2v0.3l0.3,0.3
			l0.6,0.3l3,0.9l1.5,1l0.9,0.2l2.2,0.8l2,1l1,0.3l0.2,0h1.5l0.7,0.1l0.2,0.1l0.7,0.4l0.5,0.8l0.4,2.8l0.6,1.7l0.1,0.3l0.2,0.3
			l1.5,1.7l0.2,0.3l0.8,1.7l0.2,0.7l0.1,0.2l1.7,2l0.1,0.2l0.2,0.6v0.3v0.4l-0.1,0.9v0.4l0.1,0.3l0.2,0.1l0.6,0.3l0.2,0.1l0.2,0.1
			l0.1,0.2l0.2,0.4v0.2v0.3l-0.1,0.4v0.3l0.1,0.2l0.1,0.2l0.3,0.3l0.1,0.2l0.1,0.2l0.1,0.5v1v0.2l-0.1,0.2l-0.1,0.2l-0.3,0.1h-0.5
			l-1.4-0.3l-0.3-0.1l-0.2-0.1l-0.3-0.2l-0.3-0.4l-0.5-0.5l-0.2-0.1h-0.2l-0.4,0.2l-0.2,0.5l-0.8,1l-2.8,1.2h-0.7l-0.1-0.2l-0.1-0.2
			l-0.2-0.1l-0.2-0.1h-0.3l-0.4,0.2l-0.5,0.5l-0.7,0.6l-0.6,0.6l-0.3,0.5l-1.3,1.5l-0.4,0.3l-0.2,0.2l-0.1,0.2l-0.2,0.4l-0.1,0.2
			l-0.2,0.3l-2,1.5l-0.1,0.2l-0.1,0.1l-0.2,0.2l-0.4,0.2l-0.8,0.2h-0.4h-0.3h-0.2l-0.5,0.2l-4.2,2.2l-1,0.1l-0.3-0.1h-0.5l-3,0.6
			l-1.8,0.1l-0.3,0.2l-0.2,0.4l-0.3,0.9l-0.1,0.5v0.3l0.5,0.7l-0.4,0.6l-2.5,1.5l0.2,1.8l0.7,3.7v0.6l0.1,0.3l0.1,0.2l0.1,0.1
			l0.1,0.2v0.2l0.1,0.8l0.3,0.8l0.8,4.2l0.1,0.2l0.2,0.3l0.2,0.3l0.4,0.5l0.4,0.7l0.3,0.8l0.3,0.5v0.2l0.1,0.5l0.1,0.2l0.1,0.2
			l0.1,0.2v0.2l-0.2,0.3l-0.2,0.2l-0.2,0.1h-0.3l-0.9-0.2h-0.4h-0.4l-0.6,0.2l-0.9-0.2l-0.2-0.1l-0.2-0.1h-0.3l-1.3,0.3l-1.4,0.8
			l-0.8,0.7l-0.1,0.2v0.3l0.4,1.7v0.3l-0.1,0.3l-0.3,0.5l-0.2,0.3l-0.2,0.2l-0.2,0.1l-0.2,0.8l0.3,3.2l2,1.7l0.5,0.3l1.1,0.4l1,0.2
			l1.7,0.6l2.4,1.2l0.5,0.2l1,0.5l0.4,0.1h0.3l0.2-0.1l0.6-0.2l0.2-0.1l0.4,0.1l2.2,1.6l0.5,0.3h0.3l0.2-0.1l0.2-0.1l0.5-0.5
			l0.4-0.3l0.1-0.1l0.3,0.2l0.4,0.4l0.7,1l0.4,0.3l0.3,0.2l0.2-0.1h0.2h0.2h0.2l0.2,0.1l0.2,0.1l0.1,0.1l0.8,0.9l0.2,0.5l0.1,0.4
			l0.1,0.3v0.3l-0.1,0.3l-0.3,0.4l-0.4,0.4l-0.2,0.6l0.1,1.5l-0.2,1.2l-1.8,0.1l-1-0.1h-0.5l-0.3,0.1l-0.3,0.1l-0.4,0.2l-0.3,0.6
			v0.1l0,0l-0.3,0.3l-1.6,1.2l0.3,1.4l-0.3,0.8l-0.2,0.2v0.3l0.1,0.4l0.3,0.4l0.2,0.3l0.6,0.3l0.2,0.1l0.1,0.1l0.1,0.2l0.8,1.5
			l0.3,0.7l0.1,0.3l0.1,0.1l0.1,0.1l0.2,0.1h0.2l0.2,0.1l0.2,0.2l0.2,0.4l0.2,0.2h0.2l0.5-0.2h0.2l0.1,0.1l0.1,0.2v0.3v0.3l-0.1,1.6
			v0.5l0.2,0.9v0.2l-0.1,0.2l-0.1,0.3l-0.5,0.3l-0.3,0.1l-2.1,0.1l-0.2,0.5l0.4,0.9v0.2v0.3l-0.2,0.3l-0.2,0.2l-0.3,0.3l-0.1,0.2
			l-0.1,0.2l-0.1,0.2l-0.1,1l-0.2,0.9l0.1,0.6l0.6,2.9l0.5,1.4l0.2,0.3l0.1,0.3v0.2l2,5l0.4,0.7l0.2,0.4l0.1,0.2v0.3l-0.1,0.5
			l-0.5,0.7l-1.5,1.3l-0.5,0.3l-0.2,0.2l-0.1,0.1l-0.5,0.8l-0.2,0.2l-0.5,0.4l-1,0.7l-0.2,0.1l-0.1,0.1l-0.1,0.2v0.3l0.1,0.4
			l0.2,0.5l0.1,0.5v0.7l0.1,0.2l0.1,0.1l0.4,0.2l0.2,0.1l0.1,0.1l0.1,0.2l0.1,0.2l0.1,0.2l-0.1,0.3l-0.2,0.3l-0.5,0.5l-0.3,0.4
			l-0.3,0.5l-0.2,0.3l-0.3,0.3l-0.5,0.4l-0.3,0.1h-0.3l-0.3-0.3l-0.3-0.2h-0.2l-0.2,0.1l-0.2,0.2l-0.3,0.3h-0.2l-0.2-0.1l-0.2-0.1
			l-0.2-0.1h-0.2l-0.2,0.1l-0.1,0.2l0.1,0.6l0.1,0.4l1.2,2.2l3,4l0.3,1l-0.1,0.2l-0.1,0.5v0.2v0.2v0.2l0.2,0.2l0.3,0.2l0.7,0.3h0.4
			h0.3l1-0.4l0.4-0.1h0.3l0.7,0.1l0.6,0.2l0.3,0.3l0.3,0.5l0.7,1.6l0.4,0.6l2.3,2.8l0.8,1.3l0.8,0.5l0.4,0.2l0.3,0.2l0.3,0.3
			l0.2,0.3l0.2,0.3l0.1,0.4v0.5l-0.3,0.6l-0.4,0.3l-0.8,0.4l-0.3,0.3l-0.2,0.4l-0.2,0.5l-0.3,0.3l-0.3,0.2l-0.7,0.3l-0.3,0.2
			l-0.3,0.1h-0.3h-0.3l-0.4,0.1l-0.3,0.2l-0.3,0.2l-0.2,0.3l0.2,0.4l0.1,0.4l0.3,0.4l1,0.6l0.4,0.2l0.6,0.1l0.6,0.3h0.3h0.3l0.7,0.1
			h0.3l0.4-0.1h0.4l0.4,0.2l0.4,0.5l0.7,1.6l0.2,0.6l0.1,0.4l-0.4,1.3l-0.4,0.4l-0.2,0.4l-0.1,0.2l-0.6,0.5l-0.5,0.6l-0.1,0.2
			l-0.2,0.3l-0.1,0.1l-0.2,0.1l-0.8,0.4l-0.6,0.2l-0.2,0.1l-0.5,0.4h-0.2l-0.2-0.1l-0.3-0.5v-0.3v-0.2l0.1-0.2l0.1-0.2v-0.2
			l-0.1-0.2l-0.9-0.3l-1.3-0.2l-1.1-0.5l-1.1-0.2l-6.1,0.6l-3.8-0.4l-1.5,0.1l-0.9,0.2h-0.4h-0.3l-0.3-0.2l-1-0.2l-3.3-0.1l-0.5-0.1
			l-0.4-0.2h-0.2l-0.1,0.1l-0.1,0.2l-0.1,0.5l-0.1,0.2l-0.2,0.4l-0.1,0.7l-0.1,0.2l-0.2,0.2l-1,0.5l-0.2,0.1l-0.6,0.6l-0.5,0.4
			l-0.3,0.1h-0.3l-0.7-0.2l-0.2-0.1l-0.2-0.3l-0.2-0.1l-0.3-0.2l-0.3-0.2l-0.3-0.3l-0.1-0.2l-0.1-0.2l-0.3-0.1l-2.4-0.3l-0.6-0.2
			l-0.5-0.2l-0.5-0.4l-0.2-0.1l-0.8-0.3l-0.2-0.1l-0.6-0.2l-0.6-0.2h-0.3h-0.4l-0.3,0.1l-1.2,0.2l-0.4,0.2l-0.2,0.1l-0.1,0.1
			l-0.1,0.2l-0.1,0.2v0.5l-0.2,0.3l-0.5,0.3l-1.4,0.1h-0.3l-0.4-0.2l-0.3-0.2l-0.2-0.1l-0.6-0.3l-1.6-0.3l-1.3-0.5l-1.5-1.1
			l-0.4-0.6l-0.3-0.5l-0.4-1.8l-0.4-4.4l0.6-2.4l0.7-1.5l0.3-0.3l0.5-0.4l0.3-0.5l0.4-1.2l0.1-0.6v-0.4l-0.1-0.2l-0.1-0.2L549,724
			l-0.1-0.2l-0.1-0.3l-0.1-0.5l0.1-0.3l0.9-1.6l0.2-0.6l0.2-0.9l0.1-0.4l0.1-0.2h0.5l0.2-0.1l0.4-0.4l0.2-0.3v-0.3l-0.1-0.2
			l-0.2-0.4l-0.1-0.2l-0.1-0.2v-1.4l-0.1-0.2L551,715l-0.2-0.3l-0.3-0.3l-0.4-0.4l-0.1-2.2l-0.4-1.2l-0.2-0.2l-0.5-0.3l-0.3-0.3
			l-0.1-0.2v-0.2l0.8-1.2l0.1-0.2l0.3-0.4l0.1-0.5v-0.3l-0.4-1.6l1.1-0.9l0.1-0.2l0.1-0.3V703l0.2-0.7l0.9-1.2l0.3-0.5l0.2-0.6
			l-0.1-0.3l-0.1-0.2l-0.8-0.4l-0.3-0.2l-0.3-0.3l-0.1-0.2l-0.1-0.3l-0.3-1.8l-0.1-0.3l-0.1-0.2l-0.2-0.4l-0.3-0.6l-0.1-0.2
			l-0.2-0.3l-0.1-0.4l-0.3-1.3v-0.1l-0.3-0.5l-0.3-0.3l-0.1-0.1l-0.4-0.7l-0.6-2.6l-0.3-1l0.1-0.2l0.2-0.3l0.3-0.3l0.5-0.8l0.1-0.5
			v-0.3l-0.6-1.4l-0.4-0.7l-0.3-1l-0.4-2.6l-0.6-1.8l-4.9-8.9l-0.3-2.7l-0.2-2.2l-0.2-0.6l-0.5-0.8l-0.2-0.2l-0.2-0.2l-0.9-0.4
			l-2.4-0.4h-2.2h-0.5l-0.9,0.2l-0.6,0.3l-1.2,1.3l-0.7,0.6l-2.2,0.8l-2.7,0.7l-1.3,0.6l-2.3,2l-0.5,0.3l-0.9,0.2l-1.5-0.1h-0.7
			l-1.6,0.4l-0.8,0.5l-2.1,1.8l-0.6,0.7l-0.6,2.6l-0.4,0.9l-0.3,0.2l-0.5,0.1l-0.4-0.2l-0.5-0.6l-1.4-2.8l-0.4-1.3l0.1-1.4l0.3-0.9
			l0.2-1l0.1-0.7l-0.7-3.8V662l0.2-0.6l0.6-1.1l0.2-0.3l0.2-0.5l0.2-1.1v-0.6v-0.4l-0.1-0.3l-0.4-0.5l-1.5-1.3l-2.8-1.3h-0.1
			l-2.9,0.1l-1.2-0.2l-1.4-0.5l-2.2-1.4l-1.6-1.4l0.1-0.7l-1.4-0.5l0.3-1.2l-0.2-2.7l-0.9-5.2l-0.1-2.7l0.2-1.2l0.4-1.4l0.5-1.1
			l0.8-0.6l0.5-0.5l0.3-0.2l0.5-0.1h0.2l0.2,0.1h2.7l3.8-1.2l0.6-0.3l0.2-1.6l0.7-1.3l1.1-0.9l1.5-0.2l0.5,0.2l0.7,0.5l0.5,0.1
			l2.4-0.4l1.3-0.4l1-1l1.8-2.5l3.7-3.2l0.8-1.1l0.2-0.2l0.2-0.2l0.3-0.2l0.4-0.2h0.6l0.5,0.2l0.5-0.1l0.5-0.8l0.5,0.1l-0.3-4.5
			l0.2-0.5l0.6-3.1l0.3-0.8l0.4-0.8l0.4-0.5v-0.4l0.8-1.8l0.6-2.6l0.9-0.7l7.3-1.6h1.3l0.9,0.3l1.9,2l3.6,5l4.9-0.7l1.3,0.3l0.4,0.4
			l2.8-3.3l0.9-1.6l1.9-7.5l0.9-1.6l0.6-0.6l1.1,0.3l1.3-0.1l1.1-0.2l1-0.4l1.1-0.6l1.6-1.2l1.2-1.7l0.6-2l-0.2-2.3l-1.3-4l-1-2
			l-0.4-4.2l-0.7-3.7l-0.2-3.4l0.1-0.7l0.2-0.7l0.3-0.4l0.3-0.3l0.3-0.4l0.4-0.9l-0.1-0.5l-1.3-1.3l-1.1-1.3l-0.4-1.1l0.1-5l0.3-1.2
			l0.7-1.2l0.5-1.2l-0.3-1.3l-3.9-6.9l-0.9-2.8l0.5-2l0.6-0.2l1.3-0.1l0.7-0.4l0.4-0.6l0.1-0.5l0.6-24l-0.5-1.5l-0.6-2.6l-0.4-1.1
			l-0.2-0.4l-0.1-0.2l-0.1-0.2l-0.3-0.8l-1.6-5.2l-0.1-0.9l0.1-1.2l0.4-1.4l0.5-1.2l1.2-2l3.6-4.4l0.6-1.2l0.2-0.8l0.8-1.9l1.3-1.5
			l1.4-1.3l1.3-0.1l0.5,0.1l0.7,0.5l0.5,1.2v0.8l-0.1,0.8l-0.3,1l-0.2,0.7v0.8l0.3,0.6l0.5,0.5l1.9,0.9L573.2,491.3L573.2,491.3z"/>
		<path id="MM-13" class="st2" d="M610.3,751.4L610.3,751.4l-0.2,1.7l0.1,0.7l0.5,1.2l0.2,0.3l0.5,1.3l0.1,1.2l0.2,0.5l0.2,0.3
			l0.6,0.3l0.2,0.1l0.4,0.4l0.2,0.1l0.2,0.1h0.2l0.4,0.3l0.5,0.5l1,1.4l0.3,0.8l0.2,0.7l0.1,0.4l0.2,0.3l0.4,0.5l0.2,0.3v0.3
			l-0.1,0.6l0.2,1.5l0.3,1.2v0.4v1l0.2,0.7l0.5,1.2l0.4,0.9l0.5,0.6l0.4,0.4l0.7,0.9l0.1,0.3v0.3l-0.2,0.4l-0.1,0.7v0.3l0.1,0.2
			l0.2,0.1l0.2,0.1l0.2,0.1l0.6,0.5l1.3,2l0.2,1.2l3.3,6.5l0.5,0.7h0.2h0.2l0.6-0.1h0.2l1.8,0.4l2,0.2l5.1-0.1l0.6,0.2l0.3,0.2
			l0.2,0.2l0.3,0.5l0.3,0.8l0.3,0.5l0.5,0.6l0.2,0.3l0.1,0.2l0.7,2.5l0.7,2.1l0,0l-1.2-0.2l0.3,0.7l1.2,1.2l0.7,1.2l0.2,0.9l1.3,2.8
			l1.5,2.3l0.2,1.3v1.4l0.3,1.5l0.8,1.3l1.2,1.2l1.2,1l1.2,0.7l0.5-0.5l0.2-0.5l1.1-2.9l0.1-0.1l0.7-0.2l2.9,1.2l0.7,0.4l0.4,0.9
			v1.1l-0.4,0.9l-0.8,0.4l-0.2,0.6l0.6,1.3l3,4.1l0.2,0.4l0.1,0.4v0.5l0.1,0.7l0.5,1.1l0.1,0.7l-0.1,0.4l-0.2,0.6l-0.1,0.3l0.1,0.5
			h0.2l0.3-0.1l0.2,0.2l0.8,0.4l0.1,0.2l0.2,0.7l0.8,2l0.2,0.3l0.2,0.3l0.3,0.7l0.1,0.7l-0.2,0.3l-0.2,0.2l-1.5,1.2l-1.6,2.9
			l-0.3,0.9l0.8,2.9l-1.3,0.2l0.5,0.8l0.7,0.6l0.6,0.7l0.3,0.8l0.3,0.7l1.4,1.2l0.5,0.6l0.1,0.6v0.7l0.1,0.8l0.3,0.8l0.5,0.7l8,7.5
			l1.5,1.4l0.9,0.6l1.4,0.6l0.6,0.4l0.5,0.6l0.2,0.9l1.3,2l0.6,1.7l0.4,0.8l0.8,0.8l0.8,0.4l0.8,0.3l0.7,0.4l0.3,0.8v0.7l-0.2,1.3
			l0.1,0.8l0.5,0.6l4.9,4.7l0.9,0.5l1.1,0.9l2,3l1.3,0.9l-0.5,0.5l-0.3,0.7l0.1,0.5h1.5l0.1,0.4l-0.3,0.5l-0.2,0.2l0.8,1.4l0.8,0.8
			l1,0.3l2.8,0.1l1.2,0.3l1,0.7l1,1.1l0.6,0.9l1,2l0.6,0.8l0.3,0.8v1l0.2,0.9l0.9,0.4l0.5,0.4l0.4,0.8l0.5,1.7l-0.7-0.5l-0.7-0.2
			l-0.5,0.3l-0.1,0.8l0.3,0.7l0.5,0.3l0.6,0.2l0.4,0.5l-0.2,0.7l-0.7,0.7l-0.9,0.6l-0.8,0.2l-0.7,1l-0.4,1.2l0.1,1.1l1.7,1.3
			l0.3,0.7l0.4,1.6l0.8,1.2l2,1.4l0.8,1.1l0.2,0.6l0.1,0.5v0.5l-0.2,0.7v0.6l0.4,0.6l3.5,4.7l0.5,1.1l-0.1,0.6l-0.6,1.2l0.1,0.7
			l0.7,1.7l0.8,4.3l0.4,0.9l1.1,0.8l0.9-0.7l1.7-2.6l3.5-2.8l0.8-1.4l0.5-2.5l0.5-1l1.2-1l0.2,2l1.1,1l1.3,0.9l1,1.5v1.1l-0.6,2.6
			l-0.3,2.7l-0.3,1l-1.6,1.9l-0.7,1.1l-0.4,1.2l-0.1,1.3v1.4l-0.3,0.5l-1.3,1.5l-0.5,0.3l-0.9,0.1l-0.4-0.2l-0.3-0.4l-0.7-0.3
			l-3.5-0.5l-1,0.1l-1.2,0.6l-0.5,1L714,945l-0.8,1.2l-0.6,0.5l-0.5,0.2l-0.5,0.1h-0.7l-0.6-0.2l-0.7-0.3l-0.7-0.1l-0.5,0.5l0.2,0.8
			l1.5,2.2l0.4,1.2l-0.2,1.1l-0.7,2.3v1.4l0.4,2.5l-0.1,1.1l-1.8,6L708,967l0.2,2.2l0.1,1l-0.1,3.4l1.3,8.9l0.1,3l-0.5,2.8l-1.4,1.8
			l-0.2-1.3l-0.8-0.9l-1.2-0.7l-1.2-0.5l-1.1,0.6l-0.9,0.4l-2.1,0.5l-0.4,0.3l-0.1,0.5l0.3,1l-0.1,0.5l-0.3,0.3l-0.5,0.3l-0.1,0.1
			l-0.2,0.2l-0.1,0.3l-0.1,0.3l0.2,0.2l0.3,0.2l0.3,0.3l0.2,0.3v0.9l-0.1,0.4l-0.4,0.1l-0.9-0.3l-2-1.2l-1-0.4L694,992l-0.7,0.2
			l-2,2.9l-0.9,0.8l-1,0.5H689l0,0l-0.1-0.5l0.2-1.2l-0.2-0.7l-0.6-1.6l-0.4-0.8l-0.3-0.2l-1.2-0.8l-0.2-0.1L686,990l-0.5-0.5
			l-1.1-1.5l-0.5-0.9l-0.4-1.1l-0.9-1.5l-0.3-0.3l-0.6-0.4l-0.2-0.3l-1.9-4l-0.2-0.2l-0.9-0.9l-0.5-0.7l-0.3-0.5l-0.5-1.2l-0.1-0.2
			l-0.1-0.2l-0.2-0.2l-0.6-0.5l-0.6-0.4l-1-0.9l-0.2-0.3l-0.1-0.3v-0.8l-0.1-0.4l-0.1-0.3l-0.1-0.2l-0.1-0.1l-0.1-0.1l-0.5-0.2
			l-0.2-0.1l-1.3-1.2l-1.6-0.5l-0.3-0.6l-0.1-0.5v-0.3v-0.3l0.2-0.4l0.1-0.5l0.1-0.2l0.1-0.2l0.3-0.2l0.2-0.2l0.1-0.3v-0.2l-0.1-0.2
			l-0.4-0.7l-0.1-0.4v-0.5l-0.1-0.4l-0.1-0.3l-0.4-0.7v-0.3v-0.4v-0.2l-0.1-0.3l-0.8-1.7l-0.5-0.9l-0.1-0.5l-0.2-2v-1l0.1-0.2
			l0.1-0.3l0.1-0.5l-0.1-2v-0.2l0.1-0.2l0.1-0.2l0.1-0.1l0.1-0.2l0.1-0.2l0.1-0.3v-0.8v-0.2l0.1-0.2l0.1-0.2l0.1-0.2l0.1-0.2
			l0.2-0.2l0.2-0.3l0.1-0.6v-0.3v-0.3l-0.1-0.2l-0.5-0.7l-0.2-1.2l-0.2-0.5l-1.1-1.8l-0.2-0.5l0.1-0.5l2.4-0.4h3.2l0.5-0.1l0.3-0.2
			l1.7-0.5l2.4-0.1l0.5,0.1l1.1,0.8l0.2,0.1l0.2,0.1l0.5,0.1l0.2,0.1l0.5,0.3l0.5,0.2h0.3l0.2-0.1l0.2-0.3l0.2-0.4l0.1-0.2l0.2-0.1
			l0.2-0.1l0.4-0.1l0.2-0.1l0.8-0.5l0.7-0.3l0.2-0.2l0.1-0.3l-0.1-1.2v-0.1l-0.1-0.2l-0.1-0.2l-0.8-0.6l-0.9-0.8l-0.1-0.2l-0.1-0.2
			l-0.2-0.4l-0.1-0.2l-0.1-0.1l-0.2-0.1l-0.2-0.1l-0.1-0.2l-0.1-0.2l0.1-0.4v-0.3v-0.3l-0.1-0.4l-0.1-0.2l-0.1-0.2l-0.1-0.2
			l-0.1-0.2l-0.1-0.1l-0.4-0.2l-0.2-0.1l-0.1-0.1l-0.7-1.2l-0.5-0.5l-0.2-0.1l-0.6-0.2l-0.5-0.1L678,930l-0.2-0.1l-0.2-0.1l-0.2-0.1
			l-0.1-0.2l-0.1-0.2l-0.1-0.4l-0.2-2.1l-0.3-1.2l-0.1-0.7l-0.1-0.4l-0.1-0.1l-0.1-0.1h-0.2l-0.5,0.2l-0.2,0.1h-0.2l-1.5-0.1
			l-0.4-0.1l-0.2,0l-0.2-0.1l-0.2-0.1l-0.1-0.2l-0.1-0.2l-0.1-0.2l-0.3-1l-0.1-0.2l-0.2-0.3l-0.1-0.2l-0.3-0.3l-0.3-0.2l-0.2-0.1
			l-1-0.3l-0.2-0.1l-0.2-0.1l-0.1-0.2l-0.1-0.2l-0.1-0.4l-0.2-0.3l-0.2-0.7l0.2-1.4l-0.5-0.2l-2.3,1l-0.7,0.2h-0.4l-0.2-0.1
			l-1.9-1.9l-0.6-0.5l-0.3-0.5l-0.3-0.3l-0.4-0.3l-0.5-0.2l-0.5,0.4l0,0l-0.2-1.3l-0.1-0.2l-0.2-0.2h-0.2h-0.1l-0.6,0.2l-0.3,0.1
			h-0.3l-0.5-0.1l-0.3-0.2l-0.2-0.2l-0.8-1.1V912l0.1-0.3v-0.3l-0.1-0.5l-0.2-0.2l-0.2-0.2l-1-0.4l-1.1-1.2l-1.8-2.4l-0.3-0.5
			l-0.1-0.5l-0.1-0.9l-0.2-0.9l0.1-0.7l0-0.9l-1-1.2l-0.1-0.2v-0.4l0.1-0.3v-0.5l-0.1-0.2l-0.1-0.2l-0.7-0.5l-0.4-0.4l-0.2-0.5
			l-0.3-0.4l-0.4-0.5l-0.1-0.3v-0.2l0.1-0.4v-0.2l-0.1-1.2l0.2-0.7v-0.5V893l-0.1-0.2l-1.2-1.3l-0.2-0.3l-0.1-0.2l-0.3-2v-0.5
			l0.1-0.3h0.2h0.2h0.2l0.2-0.1l0.1-0.1l0.1-0.2l0.1-0.3l0.1-0.5l-0.1-0.3l-0.1-0.3l-0.2-0.4l-0.1-0.3v-0.2l0.2-0.1l0.4-0.2l0.2-0.2
			l0.1-0.1l0.2-0.3v-0.3l0.1-0.2l0.1-0.2l0.2-0.1l0.2-0.1l0.2-0.1l0.5-0.8l0.1-0.4v-0.2l-0.1-0.2l-0.3-0.5l-0.9-2.6l0.7-1l0.1-0.6
			l-0.2-0.7l-0.3-0.8l-0.1-0.2l-0.5-1.5v-0.4l0.1-0.3l0.1-0.2l0.3-0.3l0.2-0.3l0.3-0.5v-0.4l-0.1-0.4l-0.4-1l-0.1-0.3l-0.1-0.1
			l-0.1-0.1l-0.3-0.3l-0.1-0.1l-0.2-0.3l-0.6-1.3l-0.2-0.3l-0.1-0.1l-0.2-0.3l-0.6-2.1l-0.2-1.3l-0.2-0.7l-0.2-0.4l-0.3-0.4
			l-0.1-0.3v-0.3l0.7-3.4v-0.3l-0.1-0.2l-0.1-0.2l-0.5-0.4l-0.3-0.2l-0.6-0.2l-0.2-0.1l-0.6-0.5l-0.3-0.3l-0.2-0.3l-1.3-3.2
			l-0.1-0.4v-0.3v-0.2l0.4-1.2l0.2-0.4l1.2-0.9l0.3-0.5V848v-0.3l-0.1-0.3l-0.1-0.2l-0.2-0.1h-0.2l-0.1,0.1l-0.2,0.4l-0.1,0.1h-0.2
			l-0.2-0.1l-0.2-0.1l-0.2-0.1l-0.2-0.1h-0.3l-0.3,0.1l-0.2,0.2l-0.1,0.2L641,848v0.3l0.1,0.7v0.2l-0.1,0.1l-0.4,0.2l-0.3,0.2
			l-0.2,0.2l-0.8,1.4l-0.1,0.2v0.2v0.2v0.2v0.3l-0.1,0.4l-0.5,1.1l-0.2,0.2l-0.2,0.1l-1.4-0.6h-0.2h-0.4l-0.2,0.1l-0.9,1.1l-0.5,0.3
			l-0.3,0.2l-0.2,0.2l-0.1,0.2v0.2v0.5l-0.1,0.3l-0.2,0.1h-0.2L633,857l-1.2-0.8v-0.7l0.1-0.3l0.1-0.3l0.1-2.4l-1.9-4.9l-0.3-1.3
			l-0.1-0.9l0.2-0.4l0.7-1l0.1-0.3l0.3-1.2l0.2-1.3l-0.1-0.8L631,840l-0.3-0.2l-0.3-0.2l-0.3-0.2l-0.2-0.5v-0.5l-0.1-0.5l-0.1-0.4
			l-2.5-5.3l-0.1-0.6v-0.5l0.3-0.7l0.2-0.3l0.2-0.3l0.5-0.5l0.2-0.3l0.2-0.3l0.2-0.7l0.2-0.3l0.2-0.3l0.2-0.3l0.7-1.6l0.1-0.5
			l0.1-1.4l0.1-0.3l0.1-0.4l0.5-0.9l0.2-0.8v-0.6l-0.1-0.5L631,820l-0.3-0.3l-2.2-1.6l-0.9-1.1v-1l0.1-0.7v-1.6l-0.2-1.1l-0.5-1.5
			l-0.4-0.6l-0.4-0.2l-0.4,0.1l-0.3,0.2l-0.3,0.3l-0.1,0.3l-0.2,0.6l-0.2,0.2l-0.4,0.1l-0.5-0.2l-0.3-0.3l-0.2-0.4v-0.3l0.1-0.9
			v-0.5l-0.2-0.3l-0.8-0.9l-0.3-0.2l-0.3-0.2l-1-0.4l-0.6-0.4l-0.5-0.5l-0.5-0.7l-0.8-1.4l-0.3-0.8v-0.6l0.4-0.8l0.1-0.4l0.1-0.4
			v-0.6v-0.3v-0.4l0.5-2v-1.2l-0.3-1.5V795v-0.5l-0.1-0.6l-0.2-0.6l-0.2-0.4l-0.3-0.3l-0.7-0.5l-0.1-0.3l-0.1-0.5l-0.2-0.4l-0.3-0.3
			l-0.3-0.1h-0.5l-2.8,0.9l-2.9,1.6l-0.6,0.3l-0.5,0.1l-0.9-0.3l-0.9-0.1l-0.6-0.2l-0.5-0.2l-0.7-0.5l-0.5-0.2h-0.4l-0.3,0.1
			l-0.4,0.3l-0.4,0.3l-0.7,0.4h-0.4l-0.3-0.2l-0.2-0.3l-0.2-0.8l-0.2-0.3l-1-1.2l-0.4-0.9l-0.7-2l-1.5-2.8l0.1-1l1.5-1.8l-0.1-0.9
			l-0.8-1.1l-0.6-1l-0.1-0.8l0.2-0.6l0.5-0.5l0.8-0.5l2.2-1.5l0.3-0.7l-0.1-0.3l-0.2-0.3l-0.6-0.5l-0.2-0.3l-0.3-0.8l-0.2-0.3
			l-0.3-0.3l-1.7-1.6l-1.9-1.5l-2.2-2.2l-1.2-1.7l-0.3-0.6l-0.2-0.6l-0.1-0.4l-0.2-0.6l-0.2-0.3l-0.5-0.2l-0.2-0.9v-0.1l0.2-0.2
			l0.7-0.5l1.1-1.1V758l-0.2-0.3l-0.4-0.2l-0.3-0.1l-0.3-0.3l-0.3-0.5l-0.3-1.4l-0.2-0.7l-0.2-0.5l-0.2-0.2l-0.3-0.3l-0.3-0.5
			l-0.3-1l-0.3-0.6l-0.3-0.5l-0.4-0.4l-0.1-0.3l0.2-1.1V748l-0.1-0.6l-0.2-0.4l-0.3-0.3l-0.6-0.4l-0.4-0.3l-0.4-0.5l-0.4-0.8
			l-0.1-0.5v-0.4l0.1-0.4l0.1-0.6l-0.1-0.5l-0.3-0.4l-0.3-0.3l-0.9-1.2l6.1-0.6l1.1,0.2l1.1,0.5l1.3,0.2l0.9,0.3l0.1,0.2v0.2
			l-0.1,0.2l-0.1,0.2v0.2v0.3l0.3,0.5l0.2,0.1h0.2l0.5-0.4l0.2-0.1l0.6-0.2l0.8-0.4l0.2-0.1l0.1-0.1l0.2-0.3l0.1-0.2l0.5-0.6
			l0.6-0.5l0.1-0.2l0.2-0.4l0.4-0.5l1.2,1.8l0.4,1l0.2,0.2l0.2,0.1l0.2,0.1l0.7,0.1l0.5,0.2l0.7,0.4l2.5,1.8l1.6,0.9l0.3,0.3
			l0.2,0.3l0.2,0.5l0.1,0.2l0.8,1.3l0.1,0.2l0.1,0.2v0.2v0.2l-0.1,0.2l-0.2,0.3l-0.1,0.2l-0.1,1l0.1,0.8v0.1L610.3,751.4z"/>
		<path id="MM-12" class="st2" d="M635.7,714.6L635.7,714.6l2.1-0.4h0.4h0.3h0.3l0,0l0.3-0.1l0.3-0.3l0.3-0.7l0.2-1l0.8-1l0,0
			l1.4-0.5l0.1,0.8l3.1,3.6l0.8,0.1h0.6l0.4-0.1l0,0l0.4-0.2l0.3-0.2l0.2-0.3l0.2-0.2l0.2-0.1l0.2-0.1h0.1h0.3l0.3,0.2l0.3,0.4
			l0.8,1.9l0.8,1.1l0.5,0.3l0.4,0.2h0.5l0.2,0.1l0.2,0.3v0.5l-0.1,0.5l-1,2.4l-0.2,0.8l-0.2,0.7v0.3l0.1,0.3l0.3,0.3l0.7,0.4
			l0.5,0.4l0.4,0.5l0.7,1.2l0.2,0.3l0.7,0.5l1.5,0.2l4.4,1.2h0.5l0,0l0.4-0.2l0.2-0.3l0.3-0.2l0,0l0.3-0.1l0.5,0.1l0.6,0.3l1.1,0.7
			l0.7,0.2h0.5l0.4-0.1h0.3l0.4,0.2l0.5,0.3l0.3,0.4l0.3,0.7l0.1,0.8l0.6,2.4l0,0l-1.2,0.2l-0.5,0.8v1.1l0.1,1.2l0.2,0.8l0.2,0.3
			v0.3l-0.4,0.9l-0.5,0.7l-1.9,1.7l-1.9,2.6v0.5l0.4,1.2l0.1,0.6l0.4,1.5l0.8,1.2l0.5,1l-0.5,1.2l-0.5,0.2h-0.7l-0.5,0.1l-0.2,0.7
			l0.3,0.5l1.5,1.3l0.5,0.6l0.4,1.2l0.2,1.1l-0.2,4.8l-0.4,0.9l-0.8,0.9l-3.6,2.8l-0.6,1.2l-0.4,2.3l-0.4,0.9l-0.8,0.9l-1.2,0.9
			l-0.6,0.6l0.2,0.7l1.3,1.3l1.4,1.1l0.6,0.6l0.2,0.8l-0.2,1.6v0.5l0.7,2.3l0.2,1.1v1.3l0.3,2.3l0.6,2.4l0.4,2.5l-0.5,2.4l-0.3,0.7
			l-0.2,0.1l-0.1,0l-2.7,0.8l-3-0.1l-1.1,0.4l-4,2.7l-2.2,1.1l-2.7-0.1l-1.4,0.2l-0.6-0.1l-0.6-0.4l-0.3-0.4l-0.2-0.5l-1.2-1.9
			l-0.5-0.3l-0.4-0.1l0,0l-0.7-2.1l-0.7-2.5l-0.1-0.2l-0.2-0.3l-0.5-0.6l-0.3-0.5l-0.3-0.8l-0.3-0.5l-0.2-0.2l-0.3-0.2l-0.6-0.2
			l-5.1,0.1l-2-0.2l-1.8-0.4h-0.2l-0.6,0.1h-0.2h-0.2l-0.5-0.7l-3.3-6.5l-0.2-1.2l-1.3-2l-0.6-0.5l-0.2-0.1l-0.2-0.1l-0.2-0.1
			l-0.1-0.2v-0.3l0.1-0.7l0.2-0.4v-0.3l-0.1-0.3l-0.7-0.9l-0.4-0.4l-0.5-0.6l-0.4-0.9l-0.5-1.2l-0.2-0.7v-1v-0.4l-0.3-1.2l-0.2-1.5
			l0.1-0.6v-0.3l-0.2-0.3l-0.4-0.5l-0.2-0.3l-0.1-0.4l-0.2-0.7l-0.3-0.8l-1-1.4l-0.5-0.5l-0.4-0.3h-0.2l-0.2-0.1l-0.2-0.1l-0.4-0.4
			l-0.2-0.1l-0.6-0.3l-0.2-0.3l-0.2-0.5l-0.1-1.2l-0.5-1.3l-0.2-0.3l-0.5-1.2l-0.1-0.7l0.2-1.7v-0.1l1.4-1.3l2.1-2.6l1.5-3.1v-2
			l-0.5-1.2l-0.9-1.5l-0.2-0.5l-0.2-0.5v-0.3v-0.3l0.2-0.6l0.9-2l1.4-2.2l2-2.4l3.1-2.6l6.2-3.7l0.4-1.9l0.1-6.5l0.5-0.6l0.2-0.3
			l0.5-3.4l-0.3-2l0.3-1.2l0,0h1.2l0.5,0.2l1.2,0.5l0.5,0.4l0.2,0.4l0.2,0.7v0.3v0.4v0.4v0.4v0.4l0.2,0.8l0.2,0.3l0.2,0.2l0.8,0.5
			l0.4,0.2l0.5,0.1L635.7,714.6L635.7,714.6z"/>
		<circle class="st3" cx="554.7" cy="899.3" r="23.2"/>
	</g>
</g>
</svg>
