<?xml version="1.0" encoding="utf-8"?>
<!-- Generator: Adobe Illustrator 25.2.1, SVG Export Plug-In . SVG Version: 6.00 Build 0)  -->
<svg version="1.1" id="Layer_1" xmlns="http://www.w3.org/2000/svg" xmlns:xlink="http://www.w3.org/1999/xlink" x="0px" y="0px"
	 viewBox="0 0 1237 1160" style="enable-background:new 0 0 1237 1160;" xml:space="preserve">
<style type="text/css">
	.st0{opacity:0.7;fill:#010307;stroke:#FFFFFF;stroke-width:3;stroke-miterlimit:10;}
	.st1{fill:none;stroke:#FFFFFF;stroke-width:10;stroke-miterlimit:10;}
	.st2{fill:#006694;stroke:#FFFFFF;stroke-width:0.25;stroke-miterlimit:10;}
	.st3{fill:#FF0000;}
</style>
<g id="Layer_2_1_">
	<g id="Layer_1-2">
		<image style="overflow:visible;enable-background:new    ;" width="1237" height="1160" xlink:href="E3E16A5F6E93F416.png" >
		</image>
		<rect x="95.2" y="95.9" class="st0" width="1046" height="969"/>
		<polyline class="st1" points="95.2,272.9 95.2,95.9 272.2,95.9 		"/>
		<polyline class="st1" points="964.2,95.9 1141.2,95.9 1141.2,272.9 		"/>
		<polyline class="st1" points="1141.2,887.9 1141.2,1064.9 964.2,1064.9 		"/>
		<polyline class="st1" points="272.2,1064.9 95.2,1064.9 95.2,887.9 		"/>
		
			<image style="overflow:visible;enable-background:new    ;" width="1021" height="702" xlink:href="E3E16A5F6E93F41A.png"  transform="matrix(1 0 0 1 122 258)">
		</image>
		<path id="SG-01" class="st2" d="M665,429.9l1.2,0.4l2,0.5l1.5,1.7l1.9,1.4l1.2,1.7l0.8,1.4l0.1,1.4l1,1.6l2.1,2.1l1.3,1.3l1.5,0.7
			l1.3,1l1.8,0.5l1,0.1l0.3,0.8l1,0.4l1.2,0.1l0.7-1.3l1.5-1.4h1.1l2.1,0.1l1.4,0.4l2.4,1.6l1.7,1.1l1.7,0.6l1.7,0.5l2,0.5h2.9
			l2.1,0.5l1.3,0.1l1.2,0.6l0.9,0.8l1.1,1l1.1,0.7l1.7,1.4l-0.3,0.3l-1.7,2.6l-3.7,5.7L706,465l-3.2,1.6l-2.7,1.8l-1.6,1.9l-0.4,5.1
			l-0.7,1.2l-0.7,1.7l-0.4,1.9l-0.2,0.8l-2.5,4L691,486l-2.5,1.3l-0.1,6.5l-1.4,1.9l-1.7,0.9l-0.1,1.8l-1.8,3.1l-2,3.6l-1,3.8
			l-1,4.4l-1.4,5.4l-1.8,4.6l-1.9,3.3l-3.7-0.2l-4.8-0.9l-3.5-0.6l-3.8-0.3l-3.5,1.7l-2.7,4.3l-1.8,4.7l-1.7,6.5l-2.7,4.8l-2.9,4.6
			l-0.2,6.2l2.3,2.4l2.1,4.5l1,4.1l0.2,3.2l-2,2l-5.4,0.3L638,575v4l4.4,0.1l5.4,0.9l3.9,0.9l0.8,3l0.2,4.7l2,4.8l2.4,4l1.8,0.9
			l4.8,1.5l3.5,1.5l2.7,4l4.5,3.2l0.6,5.1l1.8,2.7l-0.4,1.4l-0.5,1.8l-2.5,1l-1.5,0.9l-1.4,2.4l-3.9,3.2l-1,3.6l0.5,1.5l1,1.8
			l0.7,1.7l0.8,2.9l-0.5,1.1l0.1,0.8l0.1,1.7l-0.2,1.1l-0.6,1.6l-0.8,1.5l-1.6,1.5l-1.9,1.4l-1.1,0.7l-0.8,0.5l-0.1,0.6l-0.8,1.7
			l-1.2,0.7l-1.8,2l-1.7,1.7l-0.3,2.1l-0.4,3.4l0.4,3.2l0.5,2.3l0.9,2.8l-0.1,1.9l-0.1,2.3l-2.3,0.6h-1.7l-2.5-0.1l-2.7-0.2
			l-2.1-0.4l-2.1,0.2l-3.8-0.3l-1,3.6l-0.5,1.1l-0.3,2.5l-0.2,1.6l0.3,3.5l0.7,0.6l1.3,3.3l2.1,0.2l1.2-2.8l1.8-2.7l1.3-2.5l0.9-1.5
			l0.4-1.9l1.6-0.1l2.1,0.2l1.5,0.6l1.3,0.8l2.2,0.6l3.4,1.5l3.5,2.3l2.7,2.4l2.5,2.9l1.3,1.8l-0.2,2l-17.9,14h-2l-1.6-0.5l-2.5-0.8
			l-2.8-1l-0.8-0.7l-0.7-0.3l0.1-1l0.6-0.4v-1.1l-0.9-0.6l-1.6,0.2l-0.3-0.2l-1.4-0.8l-1.5-0.4l-1.5-0.7l-2.7,2.1l0.2,1V720
			l-1.2,0.9l0.2,1.4l1.9,2l-0.6,0.4l-0.9-0.8l-1.5-1.8l-1.8-1.8l-1.7-1.7l-1.9-2.2l-2-1.8l-1.2,0.1l-0.7,0.6l-0.6,1.4l-1.1,1
			l1.5,1.7l1.2,1.5l1,1.3l0.1,1.1h-0.7l-3-3.4l-1.6-1.2l-1.5-1l-0.9-1.4l-1.1-1.1l-0.9-0.7l-1.1-1.2l-4.1-0.3l-10-0.1l-0.7,0.5
			l-1.8,1l-2.2,1.2l-3.9,2.4l-1.8,1.2l-1.5,0.2l-1.8,1.1h-8.5l-0.2-1.2l-0.9-0.1l-0.7-0.5l-1.5-0.1l-0.3,0.7l-0.6-0.1v-0.6l1.2-0.9
			l-2.2-1.5l-0.5,1.3l-1.2,1.8l-1.1-0.4l-1.2-1.2l-1-1l0.4-0.7l1.4-1.4l-1.2-0.8l-0.8-0.1l-1.8-0.9l-2.6-2.2l-1.8-3.4l-1-3.2
			l0.8-3.2l2.4-3.4l2-2l3.2-2.8l-0.4-3.6l-1.6-2.4l-4.8,0.2l-4.2-0.2l-3-1.2l-4.4-0.2l-2.4,1.6l-4.4-1.4l-4.4-3.8l-1.8-3.4l-0.8-5.8
			l-0.8-5.2l-0.8-3.6l-1.4-3.6l-2.8-2l-1.6-4.2l1.4-3.2l2-3.6l0.6-3.6l2.4,1.9l2,1.8l1.5,1.5l1.8-0.2l0.8-3.6l0.5-2l0.8-2.8v-2.8
			l-0.2-2.8l0.8-2.8l2.6-4.1l2.8-4.1l2.3-2.6l1.8-2.3l2.3-0.5l3.3-1.3l2.6-3.3v-3.1l1.3-4.1l-0.5-3.8l1.3-2.6l2.3-1.5l1.8-2.3
			l-0.5-3.3l-2.6-0.5h-3.1l-3.3-2l-4.1-4.4l-4.1-3.6l-2.6-2.8l-4.1-2.8l-1-4.4l1.5-4.6l3.1-3.8l3.1-1.8l2.6-3.6l1.3-4.4l5.4-4.6
			l4.1-3.1l3.3-2.6l2.1-4.9l2-6.2l3-4.8l1.5-6.1l0,0l-1.7-2.8l-1.8-2.3l-1-3.6l-0.8-4.6l0.5-5.9v-7l-1.5-6.2l-3.1-4.1l-2.6-4.6
			l-1.3-2.3l1.8-2.3l4.1-0.8l4.6-0.5l3.6-2.8l3.6-4.9l3.1-6.1l2.6-6.4l1.5-5.1l1.8-5.9l3.1-4.1l4.1-1.8l6.7,0.8l3.1,1.3l3.3,3.6
			l2,3.3l3.3,3.9l4.9,0.5l4.4-2.3l5.2-0.1l0,0l1.6-0.7l2.3-0.9l1.5-0.1h1.7l-0.5,1.4l-0.4,1.1l-0.9,1.5l-1.5,2.2l-1.6,1.4l-2.6,2.3
			L623,458l-1.7,0.6L619,460l-3.6,0.9l-3.7,1.4l-3,0.6l-3.2,0.7l-4.5,0.5l-1.6,1.2l-1.9,0.9l-0.5,2.3l-2,1.3l-0.7,1.2l0.9,1.8
			l0.6,1.4l0.1,2l0.2,1l0.9,0.5l1.2-0.5l1.6-1.7l1.2-1.4l1.6-2.3l0.8-2.6l0.6-1.2h2.5l5.9,0.2l6-0.5l3.3-1.4l2.2-1.8l0.4-0.2
			l3.4-1.5l3.7-0.8l1.4-1.7l2.4-0.9l1-1.2l1.2-1.8l0.8-1.4l1.2-1l0.8-0.7l1.2-1.5l1.6-1.4l0.5-1.6l0.2-2.3l0.7-1.8l1-1.3l1.3-1.4
			l1.3-0.7l0.6-0.3v-1.3l1.1-1.9l1.1-3.1l1.8-2.1l1-0.4l1.8-0.6l0.6-0.3h1.3v-0.1l0.8-0.6l1.6-0.3l1.2-0.2l1.8,0.2l1.4-0.5
			L665,429.9L665,429.9z M714,445.1l-1.2,1l-0.7,0.1l-0.9-0.4l-1.7-0.1l-2.6,0.2l-3.5-0.3l-2.9-0.4l-1.8-0.8l-1.7-1l-1.2-0.8l-2-0.4
			l-1.8-0.5l-0.2-0.7l0.7-1.3l1.5-1.1l1.2-1.5l1.5-2.4l1.9-2l1.7-2.6l1.7-0.1l1.5,1l3.3,1.9l2.1,1.2l2.2,1.5l2.5,1.6l1.6,1.3
			l0.9,1.5l-0.2,1l-0.5,1l-0.3,1.7L714,445.1L714,445.1z M690.2,438.8l-1.7,1.9l-5.3-0.1l-1.8-1.2l-2.2-1.7l-1.7-1.8l-1-1.3
			l-0.8-1.3l-1.4-1l-2.2-1.6L669,428l-2.1-1.2l-1-0.7l0.1-1.9l1-1.6l2.5-1.5l2.8-2.3l1.9-1.2l1.5-0.7l5.1-0.3l2.2,1l5.1,2.8l4.1,3
			l4.3,2.9l1,0.9l-0.1,1.2l-3.5,4.9l-2.2,2.9L690.2,438.8L690.2,438.8z"/>
		<path id="SG-02" class="st2" d="M772,464.3l1.3,1.1l1.4,1.1l0.5,1.2l0.1,1.5l-0.2,0.8l-1,0.3l-1.1-0.3l-0.5-1.1l-1.1-0.9l-1.5-1.5
			l-0.8-0.5l-1.2-0.7l-1.3-0.8h-0.9l-0.8,0.9l-0.4,1h-0.5l-0.7-0.5l0.3-1l0.6-0.7l0.1-1l-0.3-1.5l-1.4-1.1l-2.4-1.9l-1.4-0.5l-1-1.2
			l-0.3-1.8l-0.6-1.3l-0.6-0.6l-0.8-1.3l-1.3-0.7l-0.7-0.6l-1.2-0.3l-0.4-1.1l-0.9-0.8l-1.3-0.8l-1.2-1l-0.4-1l0.1-1.1l1.1-0.4
			l1,0.1l1,0.8l1.1,0.9l1.1,1.5l0.6,1.6l1.1,0.5l2.2,0.9l1.1,0.5l1.5,0.8l1.1,1.2l1.7,1.6l1.6,2.1l1.3,1.6l1.7,1.6l1.3,1.3l1.8,1.8
			L772,464.3z M743.9,445.8l0.4,2.3l-0.2,1.8l-0.5,1.7v1.6l0.5,1.3l2.7,1.2l4.4,4l6.2,6l3.8,2.8l5.2,3.6l-1.2,2.8l-5.6,3.4l0.4,2.4
			l1.4,1.7l2.6-1.9l5-2.8l3.4-1.6l3.4-0.4l2.8,2l2.6,2.6l2.4,3.8l2,4.4l2.4,4l3,1.2l3.8,1.8l3.3,3.3l1.5,1.6l1.9,1.5l1.8,0.1
			l1.5,1.3l1.3,0.5l1,0.9l1.2,0.8l1.6,0.1l1.9,1.1l2-0.1l1.5,0.5l0.6,1.6l-0.3,1.2l1.2,0.6l0.1-0.8l0.8-1.7h2l0.7,1l1.1-0.6l0.8-0.3
			l1.2,0.6l1.6,0.3h2.5l1.2-1l1.8-0.3l1.6-0.4l1.4-0.4l1.3-0.3l1.6,0.5l1.6,1.2l1,0.3l1.7,0.2l0.5-1.9v-1.5l0.7-1.6l1.4-0.5l0.6-1
			l1.1-0.7l0.5,3.1l1,3l2.4,3l3.2,2.8l2.4,1.4l1.2,3.4L855,522l-3.2,1.6l-1.4,1.6l-2.4,4l-3.8,3.8l-2.2,2.6l-2.8,2.2l-3.6,2.8
			l-1.6,1l0.6,3l1.8,2l1.2,4.2l0.4,4.4l-0.4,4.6l-3.6,1.4l-5.8,1.2l-3,1.4l-3.4,2.4l-3.6,3.4l-3.4,2.6l-3.6,3.2l-4.3,1.1h-3.2
			l-2.4-2.2l-3-2l-3.4,0.2l-7.2,0.6l-5.6,0.6l-4.2-1l-3.8-0.8l-3.6-0.4l-1.1,3.1l1.6,0.5l2.6,0.2v0.8l0.4,1.7l1.3,0.2l0.4,2.2
			l1.5,0.1l1,0.8l1.5,1.7l0.2,1.6l0.6,0.5v1.3l-1.6,2l-3,0.8h-4.8l-3,1.8l-3,2.6l-2.6,0.8l-2.2,0.4l-2.4,2.6l1.4,3l-2,1.6l-2.2,3.2
			l2,2.2l1.8,1.2v3l-0.4,2l-1.6,1.6l-5.8-0.2l-5.4,0.6l-6,0.8l-5.6,0.8l-3.2-0.4l-1.8-2.4l-1.2-3.8l2-3.2l0.2-3.2l-3.4-2.2l-1.4-3.2
			l-2.4-3.6l-4.8-4.6l-4.2-3.4l-3.8-4.6l-4.2-1.6l-2.8-2.6l-2.2-2.6l0.6-3.4l-1-4.4l-2-2.2l-7-0.4l-3.4-1.2l-3.2-1.2l-3.6-0.8
			l-2.6-3.4L678,556l-0.2-4l-2.4-3l-3.6-2.6l-2-3.8v-6l1.4-4.4l2-4.4l0.9-1.5l1.9-3.3l1.8-4.6l1.4-5.4l1-4.4l1-3.8l2-3.6l1.8-3.1
			l0.1-1.8l1.7-0.9l1.4-1.9l0.1-6.5l2.6-1.2l2.7-1.1l2.5-4l0.6-2.8l0.7-1.7l0.7-1.2l0.4-5.1l1.6-1.9l2.7-1.8l3.3-1.6l3-2.3l5.4-8.2
			l0.3-0.3l1.2-1.1l0.4-1.9l3.2-1.6l4.8-1.5l1.1-1.1l1.8,0.1l0.2-1.4l0.8-0.8l1.5-0.4l-0.4-1.8l1-1l0.9-0.9l0.8-0.8l0.3-1.6l0.9-0.9
			h1.1l2.9-0.2l0.8-0.8l0.8-0.8l1.2-0.3l1.3,0.6l0.8,0.7l0.1,1.5l-0.6,0.9l-0.7,0.6l-0.1,1.1l1.2,0.1l0.3,0.8l0.3,1.2l0.8,1
			L743.9,445.8L743.9,445.8z"/>
		<path id="SG-03" class="st2" d="M644.8,385.7h1l1.1,1.1l0.4,1.2l0.7,0.9l0.8,0.8l0.9,0.5l0.4,0.3l1.1,0.9l0.5,1.5l0.3,1.6l0.6,0.9
			l0.7,1.1l1.1,0.8l0.6,0.8l0.3,0.9l1,0.6l0.9,1.3l0.1,1.9l0.7,1l0.5,0.9l0.2,1.2l-0.8,0.7l-1.4-0.4l-0.5-1.1l-0.6-0.5l-0.5-1.1
			l-0.7-0.8l-1-1.3l-0.8-0.8l-0.8-1l-0.8-1.1l-0.7-0.5l-0.3-1.3l-0.8-1l-0.4-1l0.2-1.2l0.4-0.6l-0.4-1.1l-0.7-0.7l-0.5-0.7l0.2-0.7
			l-0.6-0.5l-1-0.6l-0.3-1.3l0.1-0.9L644.8,385.7z M644.8,385.7h-0.2l-0.2-0.2L644.8,385.7z M575.8,354.5l-1.3,1.4l-0.7,1.5
			l-0.8,1.8l1.3,1.5l1.3-0.6l1.3-0.9l0.7-1.2l1.3-1.8l0.3-0.2l0.8-0.3l1,0.2l0.1,1l0.1,0.4l0.3,1.3l0.4,0.9l1,0.4v0.2l0,0v0.8
			l-0.6,0.9l-1,1.3l-1,1.2l0.9,0.8l1.6-0.1l0.7-1.8l1.3-1.9l1.5-0.6l0.9-1l1-2.2l1.8-2.6l1.2-2l1.7-0.3l1.5,0.9l4.5,2.6l2.8,2.1
			l-0.3,1l-0.7,1.1l-1,1.7l-0.4,1.2l-0.7,0.9l-0.4,1.1l0.1,0.8l0.6,0.7l1.1,0.6l1.4-0.5l1.1-1.4l0.6-1.5l0.9-1.2l0.5-1.1l0.5-1.5
			h2.7l1.3,0.8l1.8,0.9l1.4,0.9l1.4,1.4l2.4,1.5l1.3,1l1.4,0.7l2,1.9l1.9,1.4l2.4,1.8l2.1,0.9l1.5,0.7l1.8,0.6l1.3,1.4l0.6,1.3
			l1.2,1.4l0.8,1.7l-0.2,2.5l0.2,0.1l0.5,1.2l0.9,1.4l1,0.9l0.9,1l0.9,1l0.3,0.1l0.6,1.2l0.5,1l0.5,1.5l0.4,1.9l1.1,2.6l0,0l0.8,0.8
			l0.8,0.8l0.4,0.8l0.5,1.2h0.1l1.3,1.1l1.2,1.8l0.5,1.8l1,1l2.1,2.4l1.3,2.1l0.2,2.1l0.5,1.1l-0.5,2.5l-0.5,0.7l-1.2,0.9l-1.3,1.1
			l-1.2,0.4l-0.3,0.5l0.4,0.6l0.3,0.6l0.7,0.2l-0.7,0.8l-1.1,0.2l-1.1,0.1l-0.9,1.1l-0.5,2.1l-0.6,1l-0.7,1.6l-1.4,0.3l-1.1,0.8v1.4
			l-0.2,1.9l-0.4,2.6l-0.9,1.3l-0.5,1.4l-1,0.8l-0.6,0.6l0,0.5l-0.9,1.1l-0.7,0.9l-0.5,0.8l-0.3,1.7l-0.6,1.5l-0.9,1.8h-1.7
			l-1.5,0.1l-2.2,0.9l-1.6,0.7l-5.2,0.1l-4.4,2.3l-4.9-0.5l-3.3-3.9l-2-3.3l-3.3-3.6l-3.2-1.3l-6.7-0.8l-4.1,1.8l-3.1,4.1l-3.3,11
			l-2.6,6.4l-3.1,6.2l-3.6,4.9l-3.6,2.9l-4.6,0.5l-4.1,0.8l-1.8,2.3l3.8,6.9l3.1,4.1l1.5,6.2v6.9l-0.5,5.9l0.8,4.6l1,3.6l1.8,2.3
			l1.7,2.8l-1.5,6.1l-3,4.8l-2,6.2l-2,4.9l-3.3,2.6l-4.1,3.1l-5.4,4.6l-1.3,4.4l-2.6,3.6l-3.1,1.8l-3.1,3.8l-1.5,4.6l1,4.4l4.1,2.8
			l2.6,2.8l4.1,3.6l4.1,4.4l3.3,2h3.1l2.6,0.5l0.5,3.3l-1.8,2.3l-2.3,1.6l-1.3,2.6l0.5,3.8l-1.3,4.1v3.1l-2.6,3.3l-3.4,1.3l-2.3,0.5
			l-1.8,2.3l-2.3,2.6l-2.8,4.1l-2.6,4.1l-0.8,2.8l0.2,2.8v2.8l-0.8,2.8l-0.5,2l-0.8,3.6l-1.8,0.2l-1.5-1.5l-2-1.8l-2.4-1.9l-1-3.6
			l-5-1l-5.4-3l-4.6-2.8l-4.4-3.2l-2.2-2.4h-6l-4.6-2.6l-5.6-4.4l-4.4-5l-6.6-4.2l-5.2-4.2l-2.2-2.4l-2-3l-0.6-2.2v-6.4l4,0.8h4.4
			l3.4-1l3.2-2.4l2.8-2l3.4-0.8l0.6-4.6h4.6l4.2-0.6l2.2-2.4l-0.6-4.6l-2.4-2.4l-2.8-1.6l-3-1.4l-4.4-5.4l-5.7-6.3l-4.2-5.8l-0.8-6
			l-0.6-9.6l-0.6-5.6l-2.4-3.8l-3-5.6l-1.4-6l-2.6-6.4l-1.8-5.6l-2-5l-3.8-4l-4.4-6.6l-3.2-6.6l-1.4-9l-1-5.8l2.8-5.8l2.4-3.4
			l-0.6-8v-5.6l0.8-9l5.8-5.6l4.6-5.4l2.4-3.8l-0.4-6.4l-1.6-5l-0.4-3.1l1.5-0.1l1.1-0.2l0.3,0.5l0.2-0.6l0.8-0.7l1.1-0.7l0.7-0.5
			l0.4-0.9l0.6-1.5l0.6-0.6l0.8-1.1l0.6-1.8l0.5-1l0.6-1l1.4-0.5l3.1-0.2l0.1-1.1l-0.5-0.7l0.1-1.2l0.6-1.4l0.8-1.1l1.8-1.1l1.2-0.9
			l0.7-0.9l1.9-0.8l1.7-0.5l0.1-0.2h0.5l0.5-0.4l0.7-0.5l0.8-0.5l1.1-0.1l1.1-0.3l0.9-0.6l0.3-0.2l1.9-0.1l2.4-1.5v-0.1h0.2l1.2-0.7
			l2.2-1.3l3.5-2.5l2.3-2.2l2.4-1.9l2.7-1.3l2-1.6l3.8-2.9l1.5-0.5l2-1.1l3.2-2l3-2.5l2.7-1.7l1.2-0.9l0.9-0.3l0.5-0.7l0.4-0.3
			l1.7-0.8l1.7-0.6l1.6-0.9l0,0h0l0,0l1.2-1.1l1.4-2l1.7-0.8l2.5-0.1l1.2-0.5l2.8-0.4l1.6-0.5h2.2l2.5-0.2l2.6-0.6l3.9,0l3-0.5
			l2.9-0.1h2.2l2.9,0.3l1.8,0.4l1.7,1.1l1.8,0.7l0.3,0.8l0.2,0.4l-0.6,0.2l-1.2,0.4l-1.6,0.5L575.8,354.5L575.8,354.5z"/>
		<path id="SG-04" class="st2" d="M877.7,486.8l2.3,0.8l1.4-0.1l3.3,1.5l2.6,0.7l2.6,0.8l2.8,0.4l1.3,0.8l1.9,0.4l0.1,0.2l2.4,1.1
			l1.7,1.2l2.1,1.1l2.6,2.5l2.7,2.3l2.6,3.8l1.6,2.8l0.6,2.6l1.2,2.6l0.9,2.4l0.5,6.8l-0.3,4l-0.4,3.1l0.1,0.1l-0.1,11l2.8,0.2
			l3,1.2l2.6,1.6l-2.1,5.4l-3.5,8.1l-4.7,11.2l-3.9,9.1l-2.9,7l-4.5,9.6l-4,9.8l-1.4,3.4l-0.3,2l-0.7,2.3l1.4,2.2l2.4,0.6l2.2,0.2
			l2.4-0.4l3.5-0.7l2.4-0.2l1.4-0.4l1.7-0.3l1.8-0.8l3.1-0.8l1.7,0.2l1.9,0.6l2.3,0.8l1.8,1l1.3,0.9l1.5,1.2l1.4,0.5l2.1,0.4
			l1.3,0.9l2.3,0.7l2,1.4v1.2l0.1,2.9l-0.5,2l-0.7,0.9l0,0l0,0l-1.1,1l-2.6,0.7l-2.2,0.7l-2,0.5l-2.7,0.9l-2.5,1.2l-2,1.1l-2,0.5
			l-1.8,0.8l-2.2,0.8l-1.7,0.7l-1.1,0.4l-3.2,0.3l-5.4,0.6l-4-0.2l-3.3-1.9l-4.2-2l-6.7-2.4l-6.6,1.5l-4,1.4l-1.3-6.7l-0.8-1.4
			l6-13.5l-1.3-0.2l-2.4,5.8l-2.2,4l-1.1,3.9l-2.2,0.5l-4.9-0.3l-2.7,0.9l-1,0.5l-1,0.6l-0.7-0.3l-0.2-1.5L857,624l-0.9,1.6
			l-1.4-0.4l-4.2,0.1h-1.4l-0.7,0.7l-1.3-0.6h-0.8l-1.2,0.5l-0.6,0.6H842l-0.7,0.8l-1.3,0.3h-1.2l-1.4,0.7h-2.7l-0.1,0.2l-1.8-0.2
			l-1.4,0.3l-0.7,0.8h-1.3l-1.3,0.7l-1,0.7l-1.3,0.2l-0.2,0.8l-1.6-0.1l-2.2,0.6l-1.3,1.2l-2.1,1.3l-3.5,0.6l-2.4,0.5l-2.3,0.8
			l-1.5,1l-2.2,0.2l-1.5,0.5l-1.9,0.5l-2.8,0.6l-1.2,0.6l-1.8,1.3l-1.3,0.7l-3.3,0.3l-3.6,0.7l-2.7-0.6l-1.4,2.1l-1.7-0.8h0
			l-1.5-0.3l-1.5,1l-1.8-0.1l-2.3,0.6l-1.2,1.2l-1.6-0.2l-1.2,0.1l-2.1-0.4l-1.3,0.6l-1.4,0.5l-1.7,0.4l-1.4,1.3l-2.5,0.5l-1.2,0.2
			h-1.8l-1.2,0.4l-1,1l-1.1-0.1l-2-0.2l-0.3,0.7l-2,0.4l-2,0.2l-2,0.6l-1.3,1.5l-1.7,0.3l-1.4,0.6l-0.9,1.3l-2.2,0.1l-1.9,0.6
			l-1.5,0.2l-2.6,0.1l-1.8,0.3l-2.7,0.5l-3.2,1.4l-2.6,0.6l-3.1,1l-2.4,1.7l-1.7,1.9l-2.5,1.7l-3.6,1.5l-1.7,1.2l-1.7,0.8l-1.6,1
			l-2.3,0.9l-1.2-0.8l-0.8,0.1l-1.8,0.9l-2.4,2.2l-1,1.3l-1.2,0.5h-0.9l-1-0.1l-1.3,0.6l-0.4,1.1l-1.4,1.3l-1.3,1.3l-2.2,2l-1.8-0.5
			h-1.3l-1.2,0.9l-1.3,1.3l-1.3,1.3l-0.7,1.4l-1.4,0.6l-0.5,1.4l-1.1-0.4l-1.4-1.4l-1-1.7l-1.9-1.4l-1.5-2.1l-1.2-1.6l-1.1-1.7
			l-1.3-2l-1-1.2l-0.7-2.5l-1.5-3.5l-1.9-3.3l-0.1-5.3l0.3-1.1l1.3-0.2l0.9,0.8l3.7,0.2l1.3-0.5l1.1-0.4l1.5-0.4h3l1.3,0.6l2.8,0.3
			l1.1-1.2l-0.3-1.4l-0.5-0.7l-1.5-0.9l-1.9-0.2l-1.7-1.7l-1.6-1.7l-0.2-4.3l-1.6-1.4l-2.3,0.1l0.8-1.5l0.6-1.6l0.2-1.2l-0.2-1.6
			l-0.1-0.8l0.5-1.1l-0.8-2.9l-0.7-1.6l-1-1.8l-0.5-1.5l1-3.6l2.1-1.7l1.8-1.5l1.4-2.4l1.5-0.9l2.5-1l0.9-3.2l-1.8-2.7l-0.6-5.1
			l-4.5-3.2l-2.7-4l-3.5-1.5l-4.8-1.5l-1.8-0.9l-2.4-4l-2-4.8l-0.2-4.7l-0.8-3l-3.9-0.9l-5.4-0.9L638,579v-3.9l3.5-1.5l5.4-0.3l2-2
			l-0.2-3.2l-1-4l-2.1-4.5l-2.3-2.4l0.2-6.2l2.8-4.7l2.7-4.8l1.7-6.5l1.8-4.7l2.7-4.4l3.5-1.7l3.8,0.3l3.5,0.6l4.8,0.9l3.7,0.2
			l-0.9,1.5l-2,4.4l-1.4,4.4v6l2,3.8l3.6,2.6l2.4,3l0.2,4l1.2,2.4l2.6,3.4l3.6,0.8l3.2,1.2l3.4,1.2l7,0.4l2,2.2l1,4.4l-0.6,3.4
			l2.2,2.6l2.8,2.6l4.2,1.6l3.8,4.6l4.2,3.4l4.8,4.6l2.4,3.6l1.4,3.2l3.4,2.2l-0.2,3.2l-2,3.2l1.2,3.8l1.8,2.4l3.2,0.4l5.6-0.8
			l6-0.8l5.4-0.6l5.8,0.2l1.6-1.6l0.4-2v-3l-2-1.2l-2-2.2l2.2-3.2l2-1.6l-1.4-3l2.4-2.6l2.2-0.4l2.6-0.8l3-2.6l3-1.8h4.8l3-0.8
			l1.6-2v-1.3l-0.6-0.5l-0.2-1.6l-1.5-1.7l-1-0.8l-1.5-0.1l-0.4-2.2l-1.3-0.2l-0.4-1.7v-0.8l-2.6-0.2l-1.6-0.5l1.1-3.1l3.6,0.4
			l3.8,0.8l4.2,1l5.6-0.6l7.2-0.6l3.4-0.2l3,2l2.4,2.2h3.1l4.4-1.2l3.6-3.2l3.4-2.6l3.6-3.4l3.4-2.4l3-1.4l5.8-1.2l3.6-1.4l0.4-4.6
			l-0.4-4.4l-1.2-4.2l-1.8-2l-0.6-3l1.6-1l3.6-2.8l2.8-2.2l2.2-2.6l3.8-3.8l2.4-4l1.4-1.6l3.2-1.6l0.8-3.8l-1.2-3.4l-2.4-1.4
			l-3.2-2.8l-2.4-3l-1-3l-0.5-3.1l1.8-1.4l1.1-1.8l0.6-0.6l0.6-0.3l2.3-2.5l1.9-1.6l0.6-2l1.8-0.8l0.8-1.3l1.3-0.5l2.1-0.6l2.9-0.4
			l1.7,0.4l2.8-0.8l2.3,1.1h1.4l2-0.9l1.4-0.3l1.6-0.2L877.7,486.8L877.7,486.8z M816.1,474.4l-0.5,0.1l-0.6-0.1l-0.8-0.5l-2-2.1
			l-2.2-2l-0.1-1.1l-1-1.3l0.7-0.2l1,0.8l1,0.2l0.9,0.5l1.1,0.5l1.1,0.4l-0.1,0.9l0.2,0.6l0.5,0.4l0.5,0.7l-0.3,0.6v0.6l0.6,0.6
			L816.1,474.4L816.1,474.4z M806.2,463.6l-0.4,0.4l-0.9-0.3l-0.6-0.9l-1.1-1.1l-1.3-1.1l0.7-0.4l0.3,0.2l1,0.2l0.7,0.5l0.7,0.7
			l0.4,1.1L806.2,463.6L806.2,463.6z M940.9,451.3l-1.7,0.2l-1.2-0.4l-1.4-0.8l-1.7-1.4l-1.1-0.8l-1.1-1.4L932,445l-0.4-1.4
			l-0.5-1.5l0.7-0.9l0.6-0.7l0.7-1l1-1.2l0.4-1.3l0.7-1.4l0.5-0.9l0.1-0.9l-0.4-0.5l0.2-0.6l0.4-0.5l0.5,0.4l0.2,1.2l0.2,1.1
			l0.6,0.5l0.5,0.6l0.3,0.9l1.6,0.4l1.6,0.2l1.5,0.6l1.4,0.5l0.7,1.5l1,1.2l1.5,1.8l0.7,1.7v1.4l-0.4,1.4l-0.4,1.2l-0.8,0.9
			l-1.4,0.1l-1.7,0.4l-1.6,0.4L940.9,451.3L940.9,451.3z M819.9,442.1l0.7,0.6h12.1l1.7-0.7l1.5-0.7l1.3-0.4l7.9,0.1l1.3-0.4h3.7
			l3.3,0.5l3.2,0.5l2.4,0.7l2.1,0.4l1.3,0.4l1.7,0.1l1-1.3l2,0.3l2.1,0.4h2l1.6-0.6l1-0.4l1,0.1l0.4,1.6l0.3,0.6l1.4-0.2l1-0.8
			l0.6-0.5l2.4-0.3l0.4,1l0.8,0.5l0.8,1l-0.1,1l0.3,1.9l0.4,1l-0.1,1.5l0.3,1.5l-0.4,1l-0.6,1.7l0.2,2.1l1.2,1l0.6,0.6l0.6,0.3
			l-0.3,0.7l-1.2-0.3l-1.8-0.5l-2.4,0.3l-1.2,0.7l-1.5-0.6l-2,0.6l-1.3,0.5l-0.8,0.4h-2.1l-1-0.5l-1.7-0.4l-0.6,0.6l-0.9,0.3
			l-1.7-0.3l-1.8-0.4l-1.6,0.4l-2,0.1l-1,0.5l-1.4,0.8l-1.2,0.3l-0.3,0.8l-1.2,0.3l-1.7,0.4l-0.6,1.5L852,466l-0.8,0.4l-1,0.5
			l-0.7,1l-1,0.9l-1.6,0.3l-0.2-1.2l-1.4-0.1l-0.7,0.3l-0.3,0.7l-1.6,0.9l-2,0.2l-1.9,0.6l-1.8,0.4l-2.4,0.7l-2.3,0.8l-2.7,0.4
			l-2.3,0.2l-1.2,0.8l-1.8-0.2l-0.8-1.5l-0.7-1.8l-1.5-2.2l-1.5-1l-0.7-1.9l-1.2-1.8l-1.4-0.8l-1.8-0.3h-2.8l-1.2-1.3L810,460
			l-0.5-1.4l-0.5-2.2l-2.3-2.1l-2.1-0.7l-3.5-0.3l-1.9-1l-2.4-0.7l-1.7-0.8l-2.7-2.3l-1.2-1l-1.4-0.7h-0.8l-1.6,0.4l-2-0.5h-1.6
			l-1.9-1l-0.2-0.7l-1.3-1.8l-0.8-1h-1.4l-0.8,1l-1,0.1l-1-0.6l-0.7-0.5l-0.6-0.7l-0.6-0.9l-1.3-0.5l-1.3-1.4l-0.2-1.3l-0.6-1.5
			l-0.2-1.4l-0.4-0.8l0.1-1.5l1.3-0.3l2.4-0.5l1.6-0.9l1-0.8l0.6-1.6l3.5-0.3l0.7-0.7l0.4-1.4l0.7-0.7h1l2.3,0.6l1.7,1.3l2.1,0.6
			l2.8,1.5l3.6,1.4l3.6,1l3.8,0.7l2,1l1.3,1l2.1,0.7l0.4,0.8v1.7l2,1.8l2.4,1l1.6,0.4l4,0.5L819.9,442.1L819.9,442.1z M1022.5,424.4
			l3.7,1.4l2.1,1.8l1.9,1.3l1.8,1.3l2.2,1.7l2.1,2.4l1.7,0.8l2,0.7l1.5,1.3l1.4,1.4l1.6,0.8l1.2,0.4l1.2,1.5l0.1,2.1l1.4,1.7
			l1.5,1.7l0.5,1.4l1.8,2.5l0.6,1.9l0.1,4.1l-0.8,2.2l-1,1.6l-0.1,2l-1.2,1.8l-0.4,1.5l-0.4,2.9l-0.5,1.1l-0.6,1.6l-0.3,2.3l-0.2,3
			l-0.8,0.9l-0.4,2.6l-1,2.7l-0.7,2.1l-1.2,1.4l-0.6,0.9l-3,1l-2.1,1l-1.8,0.6l-1-0.6l-2.4-1l-2.2-1l-1.6-0.7l-1.7,0.4l-1.7,1
			l-2.8,0.8l-3.8,1.8l-3,1.7l-3.1,1.9l-3,1.4l-1,0.5l-3.3,0.8l-2.2,1.2l-0.4,1.7l-1.2,0.8l-0.8,0.6l-0.9,0.7l-1.7,1.9l-1.8,1.5
			l-1.3,0.2l-1.5,0.9l-1.5,0.5l-1.3-1l-0.4-1.4l-1-0.8l-1-0.3l-0.6-1.7l-1.3-0.5l-0.5-0.8l-0.6-1.5l-1.4-1.7l-1.2-0.9l-0.2-2.3
			l-1.3-0.4v-1.6l-1.7-1.1l-2-2.2l-2.1-2.6l-1.3-1.8l-1.3-1.8l-1.2-1.1h-1.8l-0.9-1l0.2-1l0.1-2l-0.9-2l-0.8-1.4l-0.7-1.1l-0.8-1.4
			l-1.9-1.9l-1.6-1l-2.2-0.6l-0.9-2.2l-2.5-0.6l-1.9-0.6l-0.5-1.3l-0.7-1.8l-0.8-0.6l-0.7-0.6l1.7-1.2l0.3-0.9l0.5-1.5l0.8-2.1
			l1.2-1.9l0.7-1.4l0.8-3.5l-0.7-2.5l-0.8-0.9L955,442l-0.8-2.1l-0.5-2.6l-0.4-2.2l-0.3-2.5l-0.6-3.5l1.2-1.3l1.2-0.2l1.5,1l1.2,0.3
			l1.5,0.6l1.5,0.2h3.4l1.5,0.7l1.5-0.2l1.6-0.4l1.2-0.3l1.5-0.6l1.2-1.4l2-1.9l1.2-0.7l0.8-1v-1.6l1-0.9l0.8-0.7l0.5-0.9l0.4-1.3
			l1-0.2l0.9,0.4l0.6,0.9l1,1.3l1.2,1l3,0.2l1-0.7l1.4,0.3l1.4,1.4l1.2,0.2l1.9,0.3l1,1.4l1.3,0.2l1-0.7l1-1.9l0.8-0.8l2-1l0.4-2
			l1.9-0.8l2.3,0.3l1.3,0.2l1.2,0.9l1.9,0.6l2.5,0.5l2,0.7l2.8,0.6l2,1L1022.5,424.4L1022.5,424.4z"/>
		<path id="SG-05" class="st2" d="M407.9,857.6v0.8l-0.9-0.1l-1.4,0.2l-0.1,0.7l0.1,0.8l1.2,0.3l1.5,0.6l0.8,1.2l-0.6,1l-0.6,1
			l-1.4,0.1l-2.1,0.4l-1.2,0.4l-1.8,0.2l-2.4,0.8l-0.6,0.4l-1.2,1.1l-1.5,1.1l-1.5,1.5h-0.7l-0.5-1.1l-0.4-1.1l0.1-2.5V863l-0.7-0.8
			l0.4-1l0.9-0.7l1.1,0.1l2-0.3l2.1-0.4l1.1-0.6l0.9-1l0.7-0.9l0.7-1.1l-0.2-0.8l-0.4-0.6V854l0.4-1.2l1.2-0.1l1.1,0.4l1.6,0.4
			l1,0.8l0.6,0.7l-0.6,0.4l-0.1,0.8l0.8,0.7L407.9,857.6L407.9,857.6z M418.4,828.3l-0.6,0.7l-0.7-0.2l-0.2-0.6l-0.3-0.7l-0.7-0.3
			v-0.8h0.8l0.6,0.1l0.4,0.8L418.4,828.3L418.4,828.3z M501.1,821.8l-1,0.1l-0.1-0.6l-0.8-0.4l-0.8-0.1l-0.3-0.5l0.1-0.5l1,0.1
			l1.1,0.3l1.4,0.4l-0.1,0.5l-0.3,0.4L501.1,821.8L501.1,821.8z M541.6,832.4l-0.2,0.5l-1.4-0.3l-2.1-0.4l-1.3-0.8l-0.8-0.6
			l-2.4-1.2l-2.5-1.4l-1.8-1.5l-0.7-1.3l-1-1.9l-0.7-1l-0.4-1.3l-0.5-1.2v-2.3l0.1-1.5l0.8-0.8l0.8,0.6l0.6,0.7l0.8,1.2l0.8,0.7
			l1.4,1.2l1.6,1l1.9,1.6l0.4,1.5l1.5,1.6l0.6,0.9l1.8,1.5l1.2,1.7l0.5,1.3l0.8,0.7L541.6,832.4L541.6,832.4z M468.4,818.6l0.6,1.1
			l1.1-0.1l0.8-0.2l0.6,0.1l0.4,0.8l0.7,0.5l0.8,0.9l0.8,1.1l0.2,1.1l-0.1,1.5l-0.7,0.3l-0.7,0.5l-0.7,0.9l-0.8,1.2l-0.4,1.8
			l-0.4,0.5l-0.4,0.1l-0.2-0.8l-1.5-0.1l-0.5,0.6l-0.7,1l-0.8,0.4l-0.6-0.8l-0.2-1l-0.5-1.7l-0.6-2.2l-0.7-1.8l-0.1-1.8l0.5-1.4
			l0.1-1.5l0.4-1.3l0.7-1.7l0.7-0.9l0.6-0.8l0.1-0.6l0.3-1l0.4-1l1.9-0.1l0.2,0.5l-0.3,0.4l-1,0.2l-0.4,0.2l-0.3,0.7l-0.4,0.9
			l0.3,0.5l0.1,1.2l0.2,1L468.4,818.6L468.4,818.6z M403.6,818.2l1.5,0.5l1-0.7l1.2-0.9l1.1-0.7l0.8-0.7l0.7-0.2l0.6,0.7l0.8,0.9
			v0.5l-0.6,0.5h-1l-1.1,0.4l-0.7,1.4l-0.2,1.4l0.6,1.1l1.1,0.9l1.9,0.2l1.2,0.3l0.8,0.8l1.1,1.1l-0.5,0.8l-1.9,0.2l-0.4,1.5l-0.8,2
			l-1.8,0.2l-1.8,0.4l-1.4-0.2l-1.4-0.5l-1.6-0.4l-2.7,0.1h-5.3l-0.8,0.4l-2,0.7l-1.8-0.2l-3.1-0.8l-3.6-0.5l-2.8-0.3l-1.9-0.6
			l-2.8-0.2l-2.4-0.3l-1.2-0.7l-0.2-1.3l0.8-1.2l0.8-1l2-0.2l1.1-0.4l1-0.7l1.4-1.1l1.1-1.3l1-1.5l1.1-1.1l2.1-1.4l1.7-1l1.6-0.8
			l3.9-0.5l1.5-0.4l1.4-0.5l1.8-0.8l1.4-0.2l1.7,0.3l0.5,1.2l0.1,0.7l0.4,1.4l1.3,1.5L403.6,818.2L403.6,818.2z M602.6,809.4
			l-0.4,0.1l-0.7-0.3v-0.5l0.4-0.2l0.2-0.2l0.4-0.3l0.2-0.5l0.4-0.6l0.3-0.6l0.6-0.2l0.1,0.6l0.4,0.3l-0.2,0.5l-0.3,0.1l-0.3,0.5
			l-0.4,0.4l-0.4,0.4L602.6,809.4z M599,805.2l-0.6,0.1l-0.2-0.6l0.1-0.6l0.4-0.5l0.8,0.1l0.3,0.7l-0.3,0.6L599,805.2z M625.5,793.7
			l0.8,0.7l1-0.1l1,1l0.9,0.6l1,0.2l0.9,0.7l0.1,0.6l-0.4,1.3l0.3,2.3l0.4,1.4l0.2,2.1l0.1,1.8l-0.6,0.5l-0.5-0.3l-0.9-0.8l-0.6-0.7
			l-0.4-0.7l-0.5-0.8l0.2-0.9l-0.2-1l-0.9-0.3l-1-0.8l-1.7-1.4l-1-1.2l-1.4-1.2l-1.1-1.4l-1.2-0.8l-0.9-0.6l-0.1-1.1l0.6-0.7
			l0.6-0.8l1.3-0.3l0.5,0.5l0.5,1l1.2,0.4L625.5,793.7L625.5,793.7z M643,797.6l-0.6,0.4l-1-0.5l-0.7-0.7l-1-0.5l-1.2-1.1l-1-1.2
			l-0.8-1l-0.8-0.9l-0.1-1.8l-0.1-1l-0.7-1l0.2-1.2l0.6-0.3l1,0.1l0.2,0.6l0.9,0.6l0.8,0.8l1.2,1.2l1,1.1l0.6,1l1.2,0.4l0.9,0.8
			l0.5,0.8l-0.1,1.2l-0.5,0.6l-0.5,1.2L643,797.6L643,797.6z M454.3,791.7l-1.3,0.5l-2.3-0.1l-1.7,0.2l-1.5,0.3l-1.5-1l-0.6-0.6
			l-1-0.9l-0.3-1.5l0.2-1.2l0.1-1.5l-0.3-1l0.6-1l1.4-0.1l1.7,0.6l2.2,0.8l1.7,0.7l1.4,1l1.9,1.3l1.3,1.3l0.4,1l-0.8,1L454.3,791.7z
			 M634.6,779.6l-0.7,0.9l-0.9,0.6l-1,0.1l-1-0.5l-0.9-0.4l0.3-0.5l0.9-0.1l0.5,0.2l0.8,0.1l0.5-0.1l0.5-0.9l0.7-0.8l0.4-1l0.6,0.2
			v1.2l-0.6,0.4L634.6,779.6L634.6,779.6z M641.8,779.6l-1.1,0.1l-0.4-0.3l0.1-0.5l0.6-0.3l0.5-0.3l0.6-0.3l0.2-1.1l0.3-0.7l0.7-0.2
			l0.4,0.8l-0.2,0.9l-0.6,0.7l-0.6,0.6L641.8,779.6z M612,780.9l-0.6,0.1l-0.7-0.6l-0.6-0.7l-0.7-0.9l-0.7-0.7l-0.6-0.9l-0.8-1.1
			l-0.3-1.2l0.9,0.8l0.4,0.6l0.6,0.5l0.8,0.6l1,1l0.6,0.8l0.5,0.8L612,780.9L612,780.9z M463.5,781.7l-1.2,0.2l-0.9-1v-1l-0.7-0.8
			l-1-1l-0.6-0.7l-1.3-0.9l-0.3-1.4l0.2-1.8l1-2.1l1-1.7l2.4-0.7l0.8,0.5l0.5,0.4l0.5,1.6l0.6,1.7l0.4,1.3l0.6,1.6l-0.1,1.6
			l-0.7,1.5l-0.7,1.6L463.5,781.7L463.5,781.7z M439.7,776.7l-2.1,0.7l-1.8-0.3l-1.7-0.6l-0.8-0.4l-0.9-1l0.1-0.9l-0.5-1.3l0.9-1.3
			l1.7-0.6l1.2-1l2-0.9l2-1l1.2-0.5l1.6-0.5h2.3l1.9,0.4l1.6,0.9l0.8,1.5l0.7,1l-0.3,1.2l-0.7,0.8l-1.1,0.7l-2.2,0.9l-3,1.6
			L439.7,776.7L439.7,776.7z M486.1,772.1l0.6,1l1.4-0.2l0.6-0.2l0.4,0.6l0.3,0.5l1.7,1l0.4,1l1,1l2.1,1.8l1.8,1.6l1.3,1.5l0.8,1.2
			l-0.5,0.5l-0.1,0.8l1.3,1.3l0.6,0.8l0.8,1.4l0.2,1.2l-1,0.6l-1.7-0.1l-2.2-0.1l-0.4-1.2l-1,0.2l-0.7,0.6l-1.4-0.1l-0.8-1l-0.3-1.3
			l-0.3-1.9l-0.6-1l-0.6-0.8l-2.7-1.9l-0.9-0.7l-1-0.4l-1.6-0.4l-1-0.5h-1.3l-0.5,0.9l0.2,0.8l0.8,0.2l1.2,0.7l1.1,0.6l1,0.8l1,0.7
			l-0.2,0.7l-0.8,0.3l-0.4,0.8l-1.5,0.3l-0.6,1l-0.8,0.8l-2.2,0.1l-2,0.3l-3.3-0.3l-2.1-0.5l-1.6-0.4l-1.9-0.2l-1.3-0.5l-0.8-1
			l-0.1-1.5l0.6-1.4l0.5-1l1-1l0.6-0.6l0.2-0.7l1-0.1l1.2,0.7l2,0.8l1.8,0.1l1.5-0.4l0.6-1.7l-1-1H474l-1.7-0.7l-2-1.3l-0.6-1.5
			l-0.4-2l-0.8-2l-0.5-1.2l-0.2-1.5l0.1-2.1v-0.8l0.7-0.8l0.5-1l1.6-0.4l1.2,0.2l2.3,0.4l1.3,0.4l1.9,0.6l0.7,0.8l0.7,1.2l0.9,0.7
			l1.2,1.2l1.5,0.6l1.5,0.8l1,1l0.7,0.9L486.1,772.1L486.1,772.1z M562.4,728.2l2.2,0.6l2.5-0.2l1.3,0.6l1.3,0.2l1-0.2l1-0.6
			l0.8-0.5l0.5-0.9l0.7-0.4l0.1,1l0.9,1.2l2.1,0.7l2.4,1.7l3.8,1.3l2.1,2l2,0.7l2.1,0.9l2.5,0.3l2.5-0.1l2.3-0.3h1.7l1.7,0.9l1,0.4
			l1.1,0.8l1.8,0.8l2,0.2l1.2-0.7l1.3-0.9l2-0.2h1.5l1.6,0.3l1.6,0.2l0.7,0.7l0.2,1.7l-0.5,1.2l1.1,0.7l1.2-0.2l0.4-0.9l0.7-0.2
			l1.4-1l1.1-0.4l1.4-0.6l2.3-0.3l1.4,0.6l1.1,0.7v1.2l-0.6,1l-0.4,1.4l-1.2,1.6l-1.3,1.4l-1,1.7l-1.2,1.7l-0.7,1.4l-1.6,2.1
			l-0.9,0.6l-0.8,0.6l-0.3,1.3l-0.6-0.2v-1l-0.1-1.1l-0.2-0.7l-1-0.8l-0.7-0.7l-0.7-0.4l-0.8-0.6h-0.9l-0.3,1.2l0.2,1.1v2.7
			l-0.6,1.2l-0.2,1.2l0.9,1.2l0.7,0.8v0.5l-0.7,0.2l-0.6,0.8l-1.2,1l-0.7,0.4l-1.4,0.7l-0.8,0.5l-0.5,0.5l-0.8-0.6l-0.8-0.2
			l-0.8,0.5l-1.6,0.3l-1.2,0.4l-1.1,0.2l-1,0.7l-0.5,1l-1.5,0.2l-1.6-0.5l-0.7-0.5l-1-0.8l-0.3-1.6l-0.5-1.8l-1.2-0.8l-1.2-0.7
			l-0.1-1l-0.8-0.4l-1.7-1l-1.4-1.2l-1-1.4l-1.3-1.2l-1-1.5l-0.8-1.8l-0.8-1.2l-1.1-0.8l0.1,0.5l-1.5-0.7l-0.7-0.2l-0.5-1.2
			l-0.6-0.7l-1.1-0.8l-2.4-0.1l-0.4,0.3l-0.3,0.5l-1.2-0.2l-0.8-0.6l-1.1-0.8l-0.9-1.1l-0.9-1.1l-1.2-1.7l-1.2-0.7l-1.5-1.1
			l-1.2-0.7l-0.3-1.2l-1.1-0.7l-1.6-1.2l-1.2-1.3l-1.4-0.7L557,733l-0.7-0.9l-0.6-1.2l-0.4-1l-0.8-1.3l-0.5-0.7l0.2-0.8l1.1-0.2
			l1.1-0.2l2,0.3l2.2,0.7L562.4,728.2L562.4,728.2z M614.4,730.2l0.2,1l-0.6,0.3l-0.7,0.6H611l-1,0.4l-0.8,0.6l-0.8,0.7l-1.5,0.5
			l-0.9,0.7l-0.8,0.7l-0.6,0.2l-0.9-0.5l-0.8-0.1l-1.1-0.6l-1.6-0.2l-1.1-0.5H598l-0.3-0.6l0.2-0.4l0.2-0.6l-0.6-0.8l-1.2-0.6
			l-1-0.2l-0.9,1l-0.7,0.5l-1.2,0.2l-0.7-0.5l-0.9-0.5l-1.3-0.6l-1.2-0.2l-1.2-0.3l-1-0.7l-0.8-1.1l-0.8-0.9l0.9-1.9l1.7-0.7
			l1.5-0.9l2.1-0.9l2.2-0.9l2.2-0.4l2.1-0.6h4.1l2.4-0.3l1.7,0.5l1.6,1.1l1.3,1.4l1.5,1.4l0.7,0.7l1.2,1.2l1.2,1.6L614.4,730.2
			L614.4,730.2z M562.7,721l-0.7,0.4l-1.2-0.2h-1.3l0.1-0.6l0.6-0.3l0.4-0.5l0.4-0.2l0.7,0.2l0.3,0.3l0.5,0.5L562.7,721L562.7,721z
			 M406.4,676l0.7,3l0.2,5.4l0.8,0.6l1.2,1.6l1.9,2l2.4,2.8l2.1,1l1.6,0.6l6.2,0.4l3.2,0.3l2.6,1.5l2.6,1.7l1.5,2.8l0.2,3l-0.5,1.2
			l-2.4,2l-2.8,2.4l-2.6,1.9l-1.6,0.8l-3,0.3l-2.4-0.6l-1.4-1l-2.4-1.3l-3.9-1.9l-2.6-0.7l-2.5-0.3l-1.6,0.2l-1.4,1l-1.8,1.2l-2,1.6
			l-1.7,1.5l-0.3,1.8l1.5,1.6l2.3,0.4l1.3,0.5h1.6l0.6-0.8l0.9-0.2l-0.2,1.3l-0.5,0.8l0.9,0.5l0.1,1.3l-0.5,0.6l-0.7,1.3l-1.9,1.8
			l-1.8,1.4l-0.5,1.2l-2.6,0.3l-2.2-1.4l-1.8-1.7l-1.8-0.1l-0.7-1.2l-1.7-1.3l-5-2.7l-3.7-1.6l-0.1-4l-0.8-1l-1.1,0.5l-1,0.5
			l-0.6,1.5l-1-0.1l-1.6-0.4l-1.4-0.2l-0.7,0.5l-1.1,1.2l-0.8,1.7l-0.2,1.6l0.7,0.4l2.3,1l3.4,2l3.2,2.2l4,2l2.4,1.5l1.7,1.2l0.4,1
			l-0.8,0.8l-1.3,0.3l-2.4,1.2l-1.9,0.8l-1.7,1h-2.2l-2.3,1.4l-3.8,3.2l-4.2,3.1l-5.8,3.3l-3.4,2.5l-1.6,0.1l-0.5-2.1l-1.9-4.1
			l-1.9-4.9l-1.6-3.5l-0.8-2.5l-1.9-3.8H346l-1.1,0.5l-2.2,1.6l-1.9,1.3l-1.9,1.4l0.3,1.4l1,3.5l1.7,4.4l2.1,6.4l1.8,5.1l-0.1,1.8
			l-1,1l-2.2,1.5l-2.4,1.7l-1.6,0.5l-0.1-1.6l-2.5-6l-3.1-8l-2.2-5.8l-1-0.5l-0.7,0.5l-3.2,2.3l-2.4,1.9l-1,1.3l0.1,2.7l4.1,10.5
			l2.2,7.5l-0.1,1.7l-0.7,0.6L324,765l-4.4,2l-4.1,0.8l-3.7,0.4l-3.8-1.4l-3.1-1.9l-2.5-2.8l-2.6-3.4l-0.9-1.6l-0.6-1l-2.7-4.1
			l-3.3-5.6l-2.5-4.6l-2.2-4.8l-1.7-4l-0.7-2.6l-0.5-1.3l-1.4-3.4l-1-3.8l-0.7-3.1l-0.4-2.2l1.1-1.6l1.2-2.2l2.6-2.2l2.7-2.4
			l3.3-2.5l4.2-3.6l3.1-3l2.4-2.8l2.9-2l2.6-2l4.4-2.6l5-4l2.6-2l3.1-1.9l2.4-1.9l2.4-1.5l2.6-1.8l2.2-1.8l3.3-0.9l3-0.4l1-0.6
			l1.3,0.2l0.7,0.6l3.3,0.1l1.2-0.8l0.4-1.8l1.4-1l2.4-0.3h2.1l1,0.6l-0.3,2.2l-1.5,0.9l-0.9,0.6l-1.9,1.7l-2.9,2.2l-1.4,1.3
			l-1.1,2.1l-0.4,2.2l-0.5,0.7l-1.6,1.8l-1.7,2.5l-2.6,2.8l-2.5,2.3l-2,1.8l0.1,1.9l0.5,0.6l1.5,1.6l2.2,1.8l1.9,1.2l0.5-1l1.5-0.9
			l1.9-1.2l1.4-1l1.2-1.3l0.7-0.6l0.6,0.3l0.5,0.7l1.4,0.6l0.8-0.6l1-0.8h1.3l1.3-0.2l0.5-1.6l-1.1-1.3l-0.2-1.5l0.2-1.6l1-1.9
			l1.5-1.9l2.1-2.1l1.7-1.3l1-1l1.4-0.3l0.8,0.3l0.7,0.7l1.4-0.2l1.1-1.2l0.4-1.1l-0.1-1l-0.6-0.8l-0.1-1.4l0.4-0.5l0.5,0.6l0.5,0.5
			l1,0.5h1.5l0.9-1.5l1-1.3l-0.6-1.4l-1.3-1l-0.9-0.4v-1l0.6-0.7l1.6-1l2-1.3l2-1l1.6-0.2l2.1-0.1l2.5-1.2l2.2-0.4l3-0.6l4-0.6
			l3.4,0.4l2.7,0.6l2.2,1l2.7,1l2.1,2l1.7,1.4l1.7,1.6l1,1.1l0.9,1.9L406.4,676z M356,654.7h-2.3l-1.2-0.8l-0.5-1.1v-1.5l-0.2-2
			l-0.5-1.2l-0.4-1.6l-0.4-1.1l-0.2-1.2l0.2-1l1.1-0.1l1,0.2l0.7,0.8l0.8,1.1l1.9,1.9l0.8,1.2l0.4,0.8l-0.2,1l-0.2,0.9l-0.1,2.9
			L356,654.7L356,654.7z M399.4,389.6l1.6,0.8l1.8-0.5l3.3-0.6l1.8-1.5l2.4-0.9l1.6,0.2h1.4l0.6,1.7l-0.1,1.2l1.1,0.6l1.7,0.6l0.8,1
			l0.2,1.3l0.6,1.5l1.2,1.1l1.8,0.5l1.7,0.5l1.2,1.3l1.2,0.6l-0.1,1.4l-1.5,1.2l-0.3,2.2l1.5,1.4l2.5,0.1l1.7-0.1l8.1-0.4l1.9-1.2
			l0.4-0.1l1.8,0.7l2.6,0.8l2.7,1.8l1.4,1.9l1.4,0.2l1-0.1l2.5-0.2l1.5,0.1l1-1.1l1-0.7l1.3-0.1l2.2-0.5l0.9,0.1l0.8,0.3l0.9-0.1
			l0.8,0.1h0.8l0.6-0.2l1.3-0.3h1l0.5,0.2l0.4,3.1l1.6,5l0.4,6.4l-2.4,3.8l-4.6,5.4l-5.8,5.6l-0.8,9v5.6l0.6,8l-2.4,3.4l-2.8,5.8
			l1,5.8l1.4,9l3.1,6.6l4.4,6.6l3.8,4l2,5l1.8,5.6l2.6,6.4l1.4,6l3,5.6l2.4,3.8l0.6,5.6l0.6,9.6l0.8,6l4.2,5.8l5.8,6.4l4.4,5.4
			l3,1.4l2.8,1.6l2.4,2.4l0.6,4.6l-2.2,2.4l-4.2,0.6H493l-0.6,4.6L489,589l-2.8,2l-3.2,2.4l-3.4,1h-4.4l-4-0.8v6.4l0.6,2.2l2,3
			l2.2,2.4l5.2,4.2l6.6,4.2l4.4,5l5.6,4.4l4.6,2.6h6l2.2,2.4l4.4,3.2l4.6,2.8l5.4,3l5,1l1,3.6l-0.6,3.6l-2,3.6l-1.4,3.2l1.6,4.2
			l2.8,2l1.4,3.6l0.8,3.6l0.8,5.2l0.8,5.8l1.8,3.4l4.4,3.8l4.4,1.4l2.4-1.6l4.4,0.2l3,1.2l4.2,0.2l4.8-0.2l1.6,2.4l0.4,3.6l-3.2,2.8
			l-2,2l-2.4,3.3l-0.8,3.2l1,3.2l1.8,3.4l2.6,2.2l1.2,0.6l-1.4,2.3l-2.9-0.1l-1.3,0.6l-0.5,0.9l-1,0.9l-1.5-0.1l-1.4-0.2l-1.2-1.2
			l-1.7-1.3l-4.7-4.6l-1.6-0.1l0.2,1.8l4.8,4.7l0.1,1.9l-0.6,0.6l-0.8,0.5l-1.6-0.1l-0.9-0.5l-1.2-1.3l-1-1.2l-0.8-0.4l-0.4-1.6
			l-1.3-1.3l-1.5-1.1l-0.4-1.1l-1.1-0.7l-1.5-0.2l-0.8-0.7l-0.3-0.9l-0.5-1.2l-0.7-0.8l-1.5-0.7h-1.7l-0.8-0.5l-0.4-0.6l-1.4-0.1
			l-0.4,0.7l-0.5,0.6l-0.4,0.5H527l-0.8-0.6l-1.9-0.9l-2.2-1.3l-1.2-0.4l-1.6-1.4l-3.3-2l-2.8-1.5l-4-2.3l-3.9-2.4l-2.8-1.5
			l-0.7-0.3l-0.2,0.4l-2.8,4.5l-2.8,4.8l-3.5,5.5l-2.3,4.4l-3.2,5.6h-1.1l-7.6-4.9l-7-4.7l-11.3-7.3l-8.4-5.4l-2.2-1.7l-1.3-1.1
			l-2.7-1.1l-1.9-1.2l-1.1-0.7l0.4-1.1l1.6-2.2l5.7-9.2l0.8-1.1l2.4-0.4l2.1,0.3l2.1,1.1l7.5,5.2v0.7l-0.5,0.1l0.2,1.9l0.9,0.7
			l1.1,0.6l1.8,1h2.6l0.8-0.3l1-0.9l0.6-1.1l1-0.3l1,0.4v3.6l2.1,1.5l1,0.6l1.7-0.1l0.6-0.7h1.1l1.1,0.7l1,0.3l1.9,0l1.2-2.6
			l1.1-2.4l0.7-1.2l0.2-1.2l-11.2-7.1l-7.6-5l2-3.6l0.4-2.8l0.3-1.9l-0.4-0.4l-1.2-0.8l-1-0.3l-1.2-1.2l-1.2-1.8l-2.5-3.1l-2-1.5
			l-0.3-2.4l-1.4-1.9l-1.4-2.6l-0.5-2.8l-1.2-2.5l-1-0.7l-1.3-1.4l-1.5-1.5l-1.8-1.2l-1.7-0.6l-2.8-0.3h-2.7l-2.1,0.2l-2.5-0.1
			l-2,0.5l0.2,1l0.5,0.7l2.3,0.6l1.4-0.4l4,0.3l2.1,0.9l1.9,0.4l0.4,1.2l2.5,1.7l0.5,1.2l-0.6,1.1l0.1,1.5l1,0.5l-0.2,0.5l-0.2,1.3
			l1.9,0.8l0.8,2.1l0.7,2.4l1.4,2.2l0.2,2l-4.2,0.1l-3.6,0.5l-4.9,0.1l-5.1-1.4l-5.5-1.6l-4.7-0.9l-5.9-1.3l-4.5-1.3l-4.3-1.5
			l-2.5-1l-3.1-0.1l-0.5,0.7h-1.5l-0.7,0.9l-0.6,0.5v-1.8l0.8-6.6l0.6-6.8l0.4-2.8l0.7-4.3l1.3-2.5l3.2-3.1l2.5-3.4l0.5-1.8
			l-0.9-0.6l-1.4-0.2l-1.9,0.2l-1.4,0.8l-0.8,1.8l-1.8,3.5l-3.4,2.9l-0.7,1l-0.6,2.7l-0.6,4.5l-0.5,2.1l-0.1,2.7l-0.1,1.1l-0.5,1
			v3.5l-0.3,1.6l-0.6,1.5l-0.2,0.8l-2.4-1.4l-3.3-2.2l-3.7-3.3l-3.5-2.8l-2.3-1.7l-2.6-0.2l-2-0.3l-2-0.2l-2.4,0.1l-1,1.5l-1.2,0.6
			l-2.3,0.2l-0.6,1.2l-0.2,2.1l-0.6,1.7l-0.2,3.3v0.4v0.2l-1,1h-6.8l-0.2-3L363,646l-2.4-0.4l-1.8-1.3l-2-1.8l-1-1.7l-1.1-0.9
			l-3.2-0.6l-1.2,0.8l-1.5,0.5l-1.3,1.5l-0.6,2l-0.6,1.7l0.1,1.4l0.2,1.5l0.9,1l-0.1,3.4l-2.1,0.3l-1.6,0.4l-3.3,0.7H338l-2.5,0.8
			l-4.4-0.1l-0.6-5.4l-1-4.3l-0.2-3.8l-0.4-2.6l-1-1l-0.6-0.8l-1-1l-1.4,0.5l-0.5,1.5l-0.8,1v2.6l0.5,2.7l0.2,5.1l0.6,8.4l-1.3,0.9
			l-1.6,0.3l-0.8,0.5l-1.7-0.3l-8-8.9l-0.6-4.6l-0.9-3.6l-3.1-0.1l-3.9,0.8l-0.9,1.1l0.3,4.7l0.8,5.8l7.4,8.1v1.1l-2.8,2.4l-2.1,2
			l-4.2,3.2l-3.2,3.1l-2.2-2.7l-1.5-1.8l-1.2-0.2l-1.9,1.5l-3.7,3.2l-0.8-1.9l-3.2-3.8l-1.1-0.7l-2.3-2.4l-1.5-2.1l-1.2-1.2
			l-0.4-1.3l1.3-1.1l0.9-1.1l0.1-1.1l-0.4-1.1l-1.7-1.9l-1.4-2h-1.7l-0.9,0.8l-1.3,0.9l-0.9-0.1l-1.9-1.3l-0.6-1.2l1.3-0.6l4.2-4.6
			l3.5-4.4l2.7-2.4l1.1-1.2l1.1-1.3l0.4-2.4l-1.2-1.1l-1.3-0.3l-1.3,0.3l-1.1,0.4l-1.7,1.6l-1.9,1.8l-1.9,2.5l-1.5,1.1l-1.2,1.6
			l-0.7,0.9l-0.7,0.6h-1.1l-1.2-1.2l-1.2-1.5l-1.3-1.2l-0.3-1.3l0.8-1.8l1-1l1.9-1.6l2-2.1l3-3.9l0.2-1.2l-1.2-1.2l-1.5-1.6
			l-1.6-0.7l-2,1.5l-2.4,2.4l-3.4,3.1l-3.5,3.7l-1.7-1.4l-1.9-1.8l-1.9-1.2l-1.6-1.8l-2.2-1.4l-6.8,5.8l-1,1l1.4,1.2l5.4,4.8
			l0.3,1.2l9.1,16.4l0.5,2.6l6.7,11.9l3.5,6.8l2.6,4.9l0.9,1.7l0.2,2.5l-0.8,1.7l-1.9,0.8l-3.2,0.5l-14.9,0.3l-14.2-0.2l-6.8-0.5
			l-5.2-1.9l-4.9-3.2l-3.3-2.9l-1.9-3.8l-0.4-4.2l-0.2-4.4l0.4-6.4l1-3.3l0.1-1l1.2-2.7l1.1-3.4l1.1-3.6l1.6-3.7l1.4-3.8l1.5-4.2
			l1.4-4.3l1.3-3.1l0.8-3.1l8-21.1l3.5-9.6l2.9-6.9l0.2-2.2l2.1-5.1l1.1-3.9l1.3-3.5l-0.5-2.1l-0.9-3.3l0.4-2.8l1.2-1.6l1.4-1
			l2.1-1.7l1.5,0.1l0.5-2.6l1.5-3.1l1.1-3.3l0.4-0.9l0.6-1l1.5-0.9l1.3-1.3l1.8-3.2l1.2-2.1l1.2-2.3l1.3-2.3l1.7-2.9l1.1-2.6
			l1.7-3.3l1.2-1.8l0.2-1.3l0.9-1.1l1,0.1h1.1l0.1-1.1l2-0.7l1.2-0.6l0.8-0.2v-1.2l0.9-0.8l0.7-2.7l1-1.5l0.5-2l1.1-1.9l3-5.7
			l0.3-1.2v-2.1l0.7-1l0.7-0.7l1.1-0.3l1.2-0.2l0.7-0.7l0.1-1.2l0.8-1.2l0.2-1l1.5-0.2l0.9-1.5l-0.2-1l0.2-1.9l0.5-1l0-1.1l0.1-9.2
			l0.5-1.1l0.3-2.2l0.5-0.1v-1.4l0.4-1.4l0.2-1.5l0.3-1.3l0.4-0.3l-0.1-2l-0.5-0.6l-0.4-1.2l0.1-1.8l0.8-0.4l1.5-0.4l1.2-2l0.8-0.3
			l0.2-1.2l-0.1-1.7l-0.4-1l0.3-1.1l2.4-0.3l1.2-0.3l0.4,1.5l-1.1,0.4l-0.4,2l0.5,1.1l2-0.1l1-1.1l0.1-1l0.1-0.9h1.3l0.7,0.8
			l1.1-0.4l0.8-0.7l0.8-0.9l0.1-0.7l-0.4-1.2l-0.5-1.3l-0.4-1.3l-0.9-0.4l0.3-0.8l1-0.4l3.6-0.4l-0.1-1.6l-0.9-0.3l-0.9-0.6l0.1-1.4
			l-0.1-1l0.1-1v-0.9l1.6-0.1l0.6-1.1l0.5-0.6l-0.6-0.8l-0.9-0.6l0.4-0.5l0.7,0.1l0.6,0.4l1.9-0.2l0.3-1.9l0.7-2.3l-0.9-0.9
			l-1.5,0.8v-2.2l0.8-0.5v-2.1l0.3-1.1l0.9-0.7l1.8-0.3l0.7-0.9l0.7-1l0.5-1l0.1-1.2l0.8-0.5l0.9-1l1,0.1l1,0.9l1.8-0.6l1-0.2
			l1.3-1.1l0.9-1.6l0.8-1.3l1.5-0.7l1-0.2l0.9,0.2l1.4,0.7l2.2,0.5v-2.7l1.8-0.3l1,0.7l1.8,0.1l0.6-1.9l0.5-1l1.3-0.3l1.1,0.4
			l1.8-0.7h1.9l1.6-1l2.7-1.3l2.4-2l2.6-2.1l3.8-3.2l1.8-2.5l2.4-1.1l2.3-0.4l1.1-2.3l1.6-0.4l-0.1-2.3l1.2-1.8l3.5-2.5l2.9-1.6
			l3.1-2.5l2.8-2.1l2.5-0.6l3.1-0.5l4.1-1.1l2.3-1.1l4.2-0.3l1.1,0.8l-0.1,2.1L399.4,389.6L399.4,389.6z"/>
		<circle class="st3" cx="451.1" cy="625.7" r="23.2"/>
	</g>
</g>
</svg>
