<?xml version="1.0" encoding="utf-8"?>
<!-- Generator: Adobe Illustrator 25.2.1, SVG Export Plug-In . SVG Version: 6.00 Build 0)  -->
<svg version="1.1" id="Layer_1" xmlns="http://www.w3.org/2000/svg" xmlns:xlink="http://www.w3.org/1999/xlink" x="0px" y="0px"
	 viewBox="0 0 1236 1515" style="enable-background:new 0 0 1236 1515;" xml:space="preserve">
<style type="text/css">
	.st0{opacity:0.7;fill:#010307;stroke:#FFFFFF;stroke-width:3;stroke-miterlimit:10;}
	.st1{fill:none;stroke:#FFFFFF;stroke-width:10;stroke-miterlimit:10;}
	.st2{fill:#006694;stroke:#FFFFFF;stroke-width:0.25;stroke-miterlimit:10;}
	.st3{fill:#FF0000;}
</style>
<g id="Layer_2_1_">
	<g id="Layer_1-2">
		<image style="overflow:visible;enable-background:new    ;" width="1236" height="1515" xlink:href="6DF503A1D160040.png" >
		</image>
		<rect x="95" y="95.8" class="st0" width="1046" height="1323.5"/>
		<polyline class="st1" points="95,272.8 95,95.8 272,95.8 		"/>
		<polyline class="st1" points="964,95.8 1141,95.8 1141,272.8 		"/>
		<polyline class="st1" points="1141,1242.2 1141,1419.2 964,1419.2 		"/>
		<polyline class="st1" points="272,1419.2 95,1419.2 95,1242.2 		"/>
		
			<image style="overflow:visible;enable-background:new    ;" width="887" height="1150" xlink:href="6DF503A1D160041.png"  transform="matrix(1 0 0 1 115 195)">
		</image>
		<path id="TW-TP" class="st2" d="M785.5,334.4l11.2,4.3l7.2,13.2l3,11.6l-7.8,10.4l-13.4,12l-17.5,6.1l-10.1-2.6l0,0l-0.4-13.9
			l7-11.6l0,0l5.1-11.5l3.8-3.5l-2.3-7.6L785.5,334.4z"/>
		<path id="TW-TW" class="st2" d="M799.5,1202l0.3,0.3l0.4-0.2l0.4,0.1v0.6l-0.4,0.2l-0.7-0.2l-0.3-0.3v-0.5H799.5z M796.9,1200.4
			v0.5l0.8,1.1v0.7l-0.4,0.5v0.4l-0.4,0.2l0.2,2.4l0.7,0.4l0.3,0.5l0.4,0.1l0.4,0.6v0.4l-0.3,0.2l-0.1-0.5h-1.2l-0.1,0.6l-0.5-0.1
			l-0.5,0.6l-0.1,0.4l-0.4,0.2v1.2l0.3,0.2l0.8,2.4l3,2.3l1.3,0.6l0.9,0.2l2.5,1.3l0.5,0.5l0.1,0.5l0.4,0.2l0.1,0.8l-0.5,0.9
			l-0.7,0.5l-0.9,2.7l-1,0.8l-1.2,0.1l-1.2-0.8l-2.9,0.4l-0.4-2.1l-0.7-0.5l-0.3-0.8l-1.7-1.8l-1.4-0.7l-0.3-0.4l-0.7-0.2H791
			l-2,0.7l-0.3-0.4l-0.8-0.4l-0.7-1l-0.8-0.6l-0.9-1.9h-0.8l-0.4-0.3l-0.6-1l-0.6-0.4v-0.6h-1.2l-0.2,0.4h-0.2l-0.3-0.8l0.6-0.6
			v-0.6l-0.3-0.6l-0.4-0.2v-0.6l-0.3,0.1l-0.1-0.2l0.4-0.7l0.4-0.1l-0.1-1.1l0.4-0.2l0.1-0.3l-0.2-0.1l-0.4-1.6l-2.4-2.7v-0.5
			l0.3-0.3l1.1-0.6h0.5l1.5,1.2h2.1l0.7-0.4l0.6,0.2l0.4-0.2l0.7,0.2l0.1,0.5l0.3,0.2l0.3-0.4l2.4-0.4l4.1-0.3l0.7,0.8h0.2l1.1-0.7
			l0.6-0.7L796.9,1200.4L796.9,1200.4z M485.4,1124.5l0.5,0.3l0.4,0.6h0.6v0.3l0.7,0.2l0.2,1.1l-0.4,1.3l-2.9,1.9v0.5l-1.2,0.7
			l-0.5,0.6l-0.1,0.5l-0.4,0.6l-0.6,0.3v0.2l-1.7,0.7l-1.6-0.6l-0.2-0.7l0.4-1.2l1.5-1l0.3-1.2l0.6-0.4v-0.6l-0.5-0.8l-0.1-0.6
			l0.8-0.5l0.7-1l0.6-0.3l0.6-0.1l1.6-0.9L485.4,1124.5L485.4,1124.5z M455.3,1051.4l2.4,0.6l0.2,0.5l0.5,0.3v0.4l0.4,0.2l0.1,0.7
			l-0.3,0.8l0.6-0.2l0.4,0.5l0.2,0.6l-0.3,0.2l-0.1,0.7l0.6,1v0.6l1.4,0.6l1.4,2l1.7,1.9l0.2,1l-0.4,0.5l0.4,0.2l0.6-0.7l1.1,2
			l0.4,0.2l0.3,0.6h0.3l1.5,1.6l-0.7,0.8l-0.6-0.3l-0.9-1.3h-0.4l-0.4,0.3l-0.6-0.6l-1-2.4l-1.7-1.8l-2.7-3.8l-1.6-1.7l-0.8-1.6
			l-1.5-1.8l-0.1-0.6l-1-1l-0.3,0.3l-0.4-0.2v-0.6l0.4-0.5L455.3,1051.4z M776.8,1033l0.4,1l0.8-0.2l0.4,0.2l3-0.9l0.1,0.5l0.4,0.6
			l-0.2,0.3l0.3,1.2l-0.1,0.7l0.2,0.2l0.5-0.1l0.3,0.2l-0.6,0.4l0.1,0.2h-0.5l-0.4,0.5l0.1,0.5l-0.6,1l0.1,0.5l0.8-0.2v0.7l-0.2,0.2
			H781l-0.1,0.4l-0.4,0.2h-0.7l-0.6,1.4v0.2l1.3,1.2l0.1,0.8l0.9,1.1l0.1,0.3l-0.2,0.2l-2.3-0.2l-0.3,0.4l-0.9-0.1l-0.5-0.6
			l-0.4-1.3l-0.7-0.4l-0.4-0.6l-2.9-0.6l-0.2-0.2l-0.4,0.2l-0.5-0.4v-0.6l0.4-0.9v-1.9l-1-1.9l-0.7-0.8l-1-0.7l-0.2-0.6l0.2-1.2
			l0.4-0.5h0.7l2.3,0.6l0.1,0.4h0.5l0.5-0.2l0.1-0.3l0.9-0.7l1.5,0.2l0.1-0.3L776.8,1033z M782,1032.3l0.5,0.3v0.4l-0.4,0.2
			l-0.6-0.6l0.1-0.4L782,1032.3z M757.5,906.3l0.2,0.5l0.7-0.3h0.6l0.2,0.4l-0.4,0.5l-0.7,0.1l-0.4,0.4l-0.5-0.2l-1.1,0.2v-0.4
			L757.5,906.3L757.5,906.3z M239.5,879.7l1.8,0.5l-0.5,1.2l-0.6,0.2l-0.1,0.3l0.1,0.9l-0.2,0.2l-0.1,1.3l0.4,0.3l0.1,0.7l-0.5,0.6
			l-0.4-0.3l-1.2-0.3l-0.9,1.3l-0.7,0.2l0.1,1l0.4,0.4v0.8l-0.4,0.7h-0.3l-0.2-0.2l0.1-0.5l-0.3-0.3l-0.7-0.2l-0.2-0.3l-0.8,0.2
			v-0.6l-0.9-0.1l0.1-0.3h0.7l0.2-0.2l-0.1-0.3l-1,0.2l0.2-0.6l0.5-0.3v-1.5l-0.9-0.6l-1.2-1.6h-0.3l-0.3-0.3l-0.1-0.8l0.5-0.1
			l0.3,0.5l0.2-0.2l-0.2-0.5l0.5,0.1l0.3-0.4l1.1,0.1l0.6-0.5l1.2,0.1l1-0.5L239.5,879.7L239.5,879.7z M285.3,870.7l1.3,0.2v0.7
			l-0.4,0.3v0.4l0.7,1l-0.1,0.2l-0.6-0.3l-0.9,0.5l-0.7-0.5h-0.5l-0.5-0.4v-0.5l-0.5-0.2l0.1-0.8l0.3-0.2l0.4,0.1l0.3-0.4
			L285.3,870.7L285.3,870.7z M301.3,867.8l0.7,0.2l0.2,1l-0.2,0.2l-0.3-0.2v1.1l-0.3,0.2v0.3l-0.8,0.5v0.4l-0.4-0.1l0.4,1.3
			l-0.4,0.2l-0.5,0.8l-0.3-0.6l-0.2,0.1l-0.1-0.6l-0.9-0.5l0.1-0.4l-0.3-0.2l0.3-0.8l0.4-0.1v-0.5l-0.7-0.6v-0.5l0.4-0.6l0.5-0.3
			l1-0.2l0.6,0.2L301.3,867.8z M297.1,867.6l0.2,0.5l-0.5,0.8h-1l0.1-0.9h0.1l0.2-0.4L297.1,867.6L297.1,867.6z M260,867.4l0.9,0.6
			l-0.1,0.6l-0.4,0.3H260l-0.9,1.6l-0.7-0.2l-0.3,0.8l-0.8-0.3L257,870l0.4-0.3h0.4l0.6-0.7v-1l0.9-0.4l0.2-0.3l0.3,0.1L260,867.4z
			 M257.4,865.2l0.4,0.7l0,1.3l-0.4,0.1l-0.1-0.2l-0.8-0.1l-0.8-0.6l-0.1-1.1L257.4,865.2L257.4,865.2z M255.2,859.8l0.1,0.2
			l0.4,0.1v0.3l-0.9,1.1V860L255.2,859.8z M211.9,851l0.4,0.5l-0.1,0.6l0.3,0.2v0.4L212,853l-0.5-0.2l-0.2-0.6l0.1-0.7L211.9,851
			L211.9,851z M207.7,849.7l0.4,0.8l0.9,0.2l-0.1,0.4l-0.6-0.2l-0.5,0.2l-1-0.4l0.1-0.4l0.4-0.1l-0.1-0.6L207.7,849.7z M264.8,843.2
			l0.4,0.1v0.4l-0.3,0.2h-0.3l-0.2-0.3L264.8,843.2z M264.4,839.5l0.4,0.6l-0.1,0.7l-0.7-0.2v-0.7L264.4,839.5L264.4,839.5z
			 M425.2,839.4l0.1,0.2h0.7l0.2,0.8l-0.3,0.3l0.4,0.9l-0.3-0.1l-0.4-0.6L425,841l-0.4-0.7l-0.1-0.3l0.1-0.5L425.2,839.4
			L425.2,839.4z M260.9,836.2l0.2,0.2l0.5-0.2l0.3,0.7l-1.2-0.2l-0.1-0.5L260.9,836.2L260.9,836.2z M264.4,835.8l0.3,0.6l0.9,0.7
			l0.3,0.7l-0.2,0.7l0.4,0.1l0.4,0.6l-0.9,0.2l-0.2-0.4l-0.8,0.2l-1.2-0.5l-0.1,0.4l-0.5,0.1l-0.8,0.8h-0.3l0.2,0.9l-0.4,0.5
			l-0.6,0.1l-0.1-0.3l0.2-0.1l-0.1-0.3l0.2-0.2l-0.6-0.2l-0.6,0.3l-0.1-0.6l0.2-0.2l-0.7-0.4l0.1-0.6l0.4-0.4h0.6l0.6,0.3l0.6-0.7
			l0.1-0.4l-0.3-0.1l0.1-0.6l0.5-0.2l0.1,0.2l0.5,0.1l0.2-0.5l0.3,0.2l0.5-0.1l0.4-0.2l-0.1-0.5L264.4,835.8L264.4,835.8z
			 M262.1,835.1l0.4,0.5l-0.1,0.5h-0.3l-0.6-0.8l0.1-0.2L262.1,835.1z M258.5,833.5l0.4,1l-0.1,0.2h-0.6l-0.2-0.2v-0.5l0.3-0.1
			l-0.1-0.5L258.5,833.5L258.5,833.5z M253.3,830l0.2,0.2l-0.1,0.4l0.5,0l0.3,0.3v0.7l0.6-0.2l0.1,0.4h0.2l-0.1-0.4l0.5-0.2l0.1-0.7
			h0.4l0.2,0.2l-0.1,0.3l0.5,0.3l0.1,0.5l-0.3,0.6l-0.1,1.6l0.4-0.1l0.1,1.7l0.8,0.1l0.2,0.3l-0.9,1.1h1l0.4-1h0.3l0.4,0.5l-0.4,0.6
			l0.3,0.8l-0.2,0.5l-0.3-0.1L258,839l-0.1,0.3h-0.4l-0.1-0.4l-0.6,0.3l0.6,0.9l-0.4,0.6l0.2,1l0.6,0.1l0.2,0.5l0.4,0.2l-0.1,0.3
			h-0.6l-0.4-0.3l-0.9,0.3l-0.2-0.8l-0.9-0.2l-0.6,0.7l-0.9-0.3l-0.3,0.3l-1.2,0.5l-0.1-0.9l-1.2-0.4l0.1-0.2l0.5-0.2l0.6-1.2
			l0.6-0.5l0.1-0.5h0.5l-0.1-0.6l-0.5-0.8v-0.3l0.6-0.4l-0.5,0.1l-0.2-0.9V836l0.4-0.2v-0.2l-0.5-0.2l-0.1-0.3l0.1-0.7l0.9-0.9v-0.6
			l-0.6-0.4l-0.3-1.2l-0.8-0.2l0.6-1.1L253.3,830L253.3,830z M207.6,825.5l0.5,0.6l0.8,0.2l0.3,0.4l-0.1,0.3l1-0.1l0.4,0.6v0.5
			l-0.8,0.5v0.9l-0.5-0.1l-0.6,0.4h-0.8l-0.3,0.4h-1.1v-0.5l-0.3-0.1l-0.1-1.2l0.8-0.9h0.2l0.2-0.8L207,826l0.3-0.4L207.6,825.5z
			 M425.9,818l0.1,0.5l0.6,0.2l-0.3,0.9l-0.8-0.5l-0.1-0.8L425.9,818z M779.4,810.4l0.2,0.2l-0.2,0.9l-0.7-0.1l-0.1-0.5l0.2-0.3
			L779.4,810.4z M264.6,801.2l1.1,0.9l0.8,0.2l-0.1,0.5l-1.5,0.2l-0.1,0.2h-0.4l-1.9,1.6h-1.8l-0.7,0.4h-1l-0.3,0.6l-0.3,0.1h-0.9
			l-0.6-0.5l0.2-2.1l1,0.1l0.2,1.2l0.2,0.1l0.3-0.5h0.3l0.1,0.3l0.5-0.5l0.2-1l1.5-0.1l0.6-0.9l1-0.2l0.7,0.2L264.6,801.2
			L264.6,801.2z M260.4,796.6l0.2,0.6l-0.1,1l-0.9,0.3l-0.9-0.1l-0.4-0.3l0.1-0.5l0.3-0.2l0.1-0.8h0.6l0.3,0.4v0.4l0.2-0.2l-0.1-0.5
			l0.4-0.2L260.4,796.6L260.4,796.6z M263.5,788.9l0.1,0.9l-0.1,0.2l-0.5-0.2l-0.1-0.5h-0.7l0.1-0.3L263.5,788.9z M265.7,784.9
			l0.6,0.4v0.3l-0.7,0.3l-0.1-0.9L265.7,784.9L265.7,784.9z M301.2,770.8l0.1,0.4l-0.9,0.6l-0.4-0.5h-0.4l0.1-0.3L301.2,770.8
			L301.2,770.8z M294.4,769.4l0.5,0.4l0.5-0.1l0.1,0.4l0.5,0.3v1.1l-0.5,0.6l0.1,0.6l0.6,0.3l0.8-0.2l0.3,0.4l-0.4,0.2l-0.1,0.5
			l-0.3,0.1l0.1,0.8l0.5,0.2l0.3-0.5l0.5,0.2l0.6-0.5l0.1-0.7h-0.7l-0.4,0.2l-0.6-0.1v-0.2l1.5-0.4v-0.6l0.2-0.2l-0.2-0.4l0.3-0.1
			l0.1-0.3l0.9,0.4l-0.1,0.7l0.1,0.4l0.3,0.1v0.3l0.3,0.1l0.4-0.5l0.2,0.1l0.2,0.5l-0.3,0.5l0.2,0.2l-0.1,0.6l0.6,0.3v0.7l0.7,0.6
			l-0.4,1v0.7l0.3,0.5l-0.3,0.1l-0.3,0.8l0.2,0.2h0.4l-0.2,0.7l0.3,0.2l-0.2,0.5l0.2,0.8l0.2,0.4l1,0.2l0.4,0.3l0.4-0.2l0.4,0.2
			l-0.1,0.3h0.6l-0.1,1.6l0.4,0.5l-0.8-0.2l-1,0.3l-0.2-0.4l-0.1,0.6l-0.8,0.4l-0.4-0.5h-0.4v0.3l-0.5,0.5l-0.1-0.2l-1-0.1l-0.6-0.8
			l0.2-0.6l0.6-0.1l-0.1-0.5l-0.5-0.5l-0.7,0.2l-0.2-0.5l-0.6-0.3l-0.8,0.1l-0.4,0.5l-2.5-0.3l-1.4,0.2l-1-0.5l-0.6,0.9l-1,0.5v0.4
			l-0.4,0.4l0.1,0.5l0.2-0.2l0.4,0.2l0.1,0.4l-0.3,0.1l-0.3-0.3l-0.8,0.1l-0.2,1.7l-1,0.2l-0.1-0.5l-0.3-0.1l-0.3,0.2v0.5l-0.8,0.1
			l-0.1,0.3l-1,0.6l0.3,0.6l-0.3,1l-0.4,0.2l-0.3-0.5l-0.3-0.2l-0.9,0.2l-0.4,0.6l0.1,0.7l-0.6,0.1l-0.4,0.9l-0.6,0.2v1.4l-0.2,0.2
			l0.7,0.3l0.4-0.2l0.6,0.2l-0.3,1.1l-0.6,0.5l-0.6,0.2v0.2l0.6,0.5l0.2,1.7l-1,0.1l-0.2-0.4l-1-0.1l-0.4-0.8h-0.5l-0.3,0.4
			l-0.2-0.2l0.1-0.6l-0.7,0.2l-0.6-0.4l-0.4,0.2l0.1,0.6l-0.8,0.5l-1.9,0.1l-0.7,0.6l-1.2-0.3l-0.3-0.3L273,797l0.9-1l-0.3-1.4
			l-1.7-1.2l-0.4,0.2l-0.3-0.1l-0.4,0.6l-1.5,0.1l-0.8-1.4l0.2-0.5l-0.1-0.4l-0.5-0.4h-0.9l-0.1-0.8l0.6-0.5l-0.3-0.6l-1.3,0.6
			l-1-0.2l-0.1-1.2h0.4l-0.1-0.5l0.3-0.2v-1l0.4-0.2l-0.1,0.3l0.2,0.2l0.6-0.3l-0.1-0.4l0.2-1.2l0.5-0.3l0.2,0.1l0.1,0.5l-0.4,0.2
			v0.4l0.4,0.2l0.1,0.2h0.4l0.2,0.3l-0.1,0.3l-0.4,0.1l0.2,1.7l0.4,0.5l0.6-0.2l0.5,0.6l-0.2,0.8l0.3,0.6l-0.6,0.6l-0.1,0.6l0.8,0.5
			h0.6l-0.4-0.4l0.1-0.5l0.3-0.2l1-0.2l-0.1-0.8l0.3-0.3l0.4,0.2l-0.1,0.5l0.3,0.5l0.6-0.6h0.4v0.5l0.9,1l-0.9,1l0.6,1.3h0.2
			l0.2-0.5h0.4l0.1-0.5l0.3-0.2l-0.1-0.3l0.4-0.3l-0.3-1.7l0.5-0.2l0.1-0.3h0.2l0.2,0.4l0.6,0.2l0.1,0.7l0.4-0.6l0.4-0.2l0.8,0.3
			v0.7l0.2,0.2l0.6-0.2l-0.1-0.7h0.6v-0.2l-0.7-0.4v-0.5l-0.9-0.8l-0.1-0.8l0.2-0.1l0.6,0.4h0.4l0.1-0.2l0.5,0.1l-0.1-0.5l0.2-0.1
			l0.3-1.3l0.3-0.2l0.2,0.2l0.4-0.3l0.3-0.9l-0.9,0.2l-0.6,0.5l-0.6-0.1l-0.2,0.3l-0.3-0.2v-0.2h-0.6l-0.2-0.3l-0.6,0.2l-0.5-0.2
			l-0.6,0.8h-0.5l-0.4-0.3l-1.1,0.6l-0.6-0.1l-0.1,0.2l-0.3-0.1l-0.1-0.5l-0.8-0.1l-0.4-0.6l-0.6,0.2l0.1,0.4l-0.3,0.4l-0.2-0.1
			l0.1-0.3L271,787l0.1-0.9l0.4-0.2v-0.2l-0.6,0.1l0.1-0.4l-0.2-0.4l0.2-0.2l0.7-0.3l0.3,0.2l0.4-0.2l0.1,0.2l0.6-0.2l0.4,0.3
			l0.5-0.4v-0.2h-0.2l0.1-0.5l0.9,0.5l0.1-0.3l-0.4-0.4l0.6-0.5l-0.1-0.4l0.4,0.1v-0.3l-1.2-1l-0.9,1l-0.8,0.1l-0.5,0.8l-0.2-0.1
			V783l-0.6,0.3l-0.4-0.2l-0.1,0.3l-0.6,0.2l-0.8-0.7l0.1-0.4l1.1-0.1l0.1-0.9l0.7-0.5l-0.2-0.6l1-0.6l0.2-0.5l-0.1-0.9l-1.3-1.6
			l-0.2-0.7l0.8-0.2l1,0.2l0.5-0.5l1.2,0.2l0.2-0.6l0.6-0.6l0.9,0.1l0.2-0.3v-0.7l0.7-0.3l0.1,0.8l0.6,0.4l-0.1,0.6l0.2,0.4
			l-0.1,0.5l-0.6,0.3l-0.1,0.5l0.6,0.5v0.6l0.4-0.2l0.4,0.1l-0.4,1.4l0.7,0.2l0.4-0.6l0.7,0.1l0.2,1l0.3,0.2v-0.6l0.4-0.5v-0.3
			l-0.4-0.2l0.4-1l-0.2-0.2l-0.1-1.2l-0.4-0.2l0.1-0.6h0.6l0.5,0.6h1.5l0.1-0.2v-0.5l-0.4-0.6l0.1-1.1l-0.4-0.2l-0.1-0.7l-0.5-0.2
			l0.4-0.9l0.6-0.5l0.2-0.8l1.5,0.2l-0.1,0.7h0.7v-0.2l0.4-0.1l0.1-0.3h0.4l-0.1,0.6l0.3,0.1l0.1-0.3l0.4-0.1l-0.4-0.5l0.6-0.5v-0.3
			l0.4-0.1l0.2,0.3l0.8-0.1l0.1,0.3l0.3-0.1l0.3,0.3l0.5-0.2v0.6l0.5,0.2l-0.4,0.6l-0.8-0.2l-0.4,0.6v0.8l0.4,0.1l0.4,1l-0.5,0.2
			l0.1,1.2l-0.4,0.7l0.2,0.5l-0.1,0.4l0.3,0.5l-0.3,0.2l-0.2,0.8l-0.4,0.2l0.1,0.5l-0.5,0.6l0.3,0.1l0.7-0.6l-0.1-0.5l0.6-1l0.6-0.3
			l0.4-0.6l-0.1-0.5l0.5-1v-0.7h-0.4l-0.1-0.4l0.4-0.5l0.9-0.4l0.1-0.5l0.6-0.1l0.7,0.2l0.1,0.9l-0.6,0.9l0.1,0.5h0.2l0.1-0.5h0.3
			l0.1,0.7h1.9v-1.3l-0.4-0.2l-0.1-0.5l-0.5,0.1L293,774h-0.6l-0.1-0.4l0.8-0.9l0.3-1.2l0.4-0.2l0.1-0.3l-0.1-0.5h-0.8l-0.1-0.2
			l0.9-0.3l0.1-0.5L294.4,769.4L294.4,769.4z M307.4,766.8l0.1,0.6l-0.4,0.2v0.4h-0.5l-0.1-0.3l0.4-0.3v-0.5H307.4z M272.9,765.8
			l0.4,0.8l-0.1,0.3l0.2,0.2l-0.2,0.4l-0.7,0.1l-1-0.5l0.1-0.3l0.5-0.1l-0.1-0.5l0.2-0.2L272.9,765.8L272.9,765.8z M282.9,765.7
			l0.5,0.6l0.4-0.2l0.9,0.6l-0.1,2.4l-0.5,0.2l-0.4,1.1l-0.6-0.6l-0.5,0.2l-0.4-0.3l-0.5,0.2l-0.1-0.3l-0.6-0.3l-0.1-0.5l-1-0.6
			v-0.7h1.4l0.5-0.6l0.2-0.8l0.4,0.1L282.9,765.7L282.9,765.7z M292.2,765.7l0.1,0.3l-0.4,0.5l-1,0.2l0.2-0.4L292.2,765.7
			L292.2,765.7z M303.5,764.5l0.3,0.2v0.3l-0.7,0.5l-0.4-0.6L303.5,764.5L303.5,764.5z M266.5,757.8l0.3,0.1v0.5l-0.5,0.3l-0.1-0.4
			L266.5,757.8z M290.1,757.6l0.1,0.2h0.5l-0.2,1.1l-0.6,0.2l-0.1,0.5l-0.5,0.2l-0.3,0.9h0.4l0.1,0.2l-0.5,0.3l-0.2-0.2v-0.6
			l0.4-1.2l-0.4,0.1l-0.1-0.3l0.5-0.2v-0.6l0.3-0.5L290.1,757.6L290.1,757.6z M293.9,754.7l0.3,0.3l-0.1,0.4l-0.3-0.3h-0.5l-0.3,0.2
			h-1.5l-0.4,0.6l-0.1-0.1l0.6-0.9l1.5,0.2l0.1-0.4L293.9,754.7z M297.4,753.7l0.5,0.7l0.5,0.2l-0.2,0.3l0.1,0.3l-1.6,0.4l-0.4-0.1
			l-0.1-0.3l-0.8,0.3l-0.3-0.2v-0.4l0.4-0.2l0.3-0.7h0.3l0.1,0.4l0.4-0.1l0.3-0.2l0.1-0.6L297.4,753.7L297.4,753.7z M298.1,752.5
			l0.2,1l-0.4-0.1l-0.3,0.3l-0.1-0.2l0.1-0.9L298.1,752.5z M276.7,750.3l0.1,0.2h0.4l0.1,0.4h0.3l0.3,0.9l0.9,0.2h0.6l0.1-0.7h0.4
			l0.6-0.8l0.4,0.3l0.5,0.1l0.1,0.2l-0.3,0.3l0.2,0.8l1.1,0.5l-0.2,1.3l0.5-0.1l0.1,0.3h0.4l0.1-0.4h1.1l0.5-1l0.3-0.1l0.1-1.5
			l0.2-0.2l0.4,0.2l-1.2,3h-1l-1,1.2v0.6l0.4,0.2l0.4,0.9h0.7l0.3,0.2l-0.4,0.4l-0.2,1.3l-0.4,0.2l-0.7-0.5l-0.7-0.1l-0.3,0.5
			l-0.6,0.3l0.3,1.2h0.4l0.6,0.9l-0.2,0.1l-0.7-0.5l-0.3-0.5l-0.7,0.1l-0.4,0.3l0.7,0.6v0.5l0.6-0.6l0.3,1.1l1.1-1l0.9,0.6l-0.1,1.1
			l-0.6,0.4l-0.4-0.2l-0.6,0.5l-0.1,0.6l0.4,0.8h-0.4l-0.4,0.4l-0.2,0.7l-0.4,0.2l-0.6-0.1v-0.9l-0.6,0.1l-0.6-0.3l-0.9-0.1
			l-0.1,0.9l-0.6-0.1l0.2-0.6l-0.1-0.9l0.4-0.2l0.1-0.6l0.4-0.3v-0.3l0.5,0.1l0.4-0.5v-0.3l-0.5-0.6l0.1-0.5l-0.2-0.2h0.2l0.1-0.3
			l-0.2-0.5l-1.6-0.9l-0.6-0.8l-0.9,0.2l-0.2-0.2l0.1-0.3l0.6,0.2l0.4-0.3v-0.2l-0.7-0.3l-0.1-0.9l0.4-0.2v-0.2l-0.4,0.1l-0.4-0.4
			l0-0.6l-0.4-0.2l-0.2-0.5l-0.7,0.2l-0.1-0.5l-0.8,0.1l-0.4,0.4l0.1,0.3l-0.7,0.6v0.4l-0.4,0.3l-0.1,1l-0.5,0.3l-0.2-0.1l-0.1-0.7
			h-0.4l-0.2-0.5l-0.4-0.2l-0.6,0.3l0.1-0.3l-0.5-0.5l-3.4,4.6l0.1,0.2l0.6-0.2l0.1,0.6l-0.3,0.5h-0.5l0.1,0.7l-0.2,0.3l-0.2-0.1
			l-0.1,0.5l-1.9-0.3l-0.8,1l-1.2-0.1l-0.4,0.3v-0.5l-0.5-0.1l-0.6,0.4l-0.2,0.4l0.2,0.7l0.8,1.2l-0.6,0.7v0.4l0.7,0.8l-0.1,1
			l-0.4,0.3l0.6,0.6v0.5l0.3,0.4l-0.2,0.1l0.1,0.9l-0.2,0.2l-0.5,1.6l-0.4,0.2h-1.2l-0.4,0.4l0.4,1.4l0.6,0.5l-0.2,0.9l-1,0.9v0.9
			l0.8,0.3v0.4l-0.4,0.2l-0.1,1l0.2,0.2l1,0.2l-0.6,1.1l-1.5,0.1l-0.3-0.3l-1.1-0.4h-0.8l-0.5,0.2l-0.2-0.7l-0.9-0.1l-0.7,0.2
			l-0.3,0.4v0.5l-0.4,0.5l-0.7,0.1l-1-0.4l-0.8,0.3l-0.1,0.3h-0.6l-0.4,0.7l-0.5-0.2l-0.8,0.2l-1-0.4l-0.2-0.2l0.2-1l0.6-0.5l2-0.9
			l0.9-1.9l0.8,0.1l1.2,1.4l0.7-0.1l0.1,0.2l1-0.6l0.5-0.6v-0.4l1.2-0.9l-0.1-1l0.4-0.5l-0.1-0.5l0.2-0.1l-0.1-0.6l-1.5-1.2h-0.7
			l-0.8-0.4l-0.8,0.2l-0.1-0.6l0.2-0.2l0.5,0.1l-0.2-1l0.5-0.6h0.2l0.1,0.3h0.3l0.2-0.3l0.5,0.4l0.1,0.7l-0.4,0.5v0.4l0.2,0.1l1-1.2
			l-0.2-1.2l0.4-0.6v-0.5l0.4-0.4l0.1-0.5l1-0.5l-0.4-1l-0.6-0.3l-0.3,0.3l-0.5-0.3l-0.6-0.6l-0.2-0.5l0.5-0.6l0.9-0.5v-0.5
			l-0.5-0.4l-0.1-1.1l0.4-0.4l0.2-1.1h0.9l0.1-0.2v-0.5l0.4-0.7l0.6-2.1l0.7,0.1l0.4-0.6l0.2,0.6l0.5-0.1l-0.5-0.7l0.1-0.2l-0.4-0.1
			l-0.3,0.2l-0.3-0.3v-0.7l1.5-0.1l0.1-0.2l1.1,0.2l0.3,0.3l-0.2,0.4l0.1,0.6l-0.7,0.6l-0.1,0.3l-0.3,0v0.7l0.5,0.5l1-0.3l0.3,0.9
			l0.8,0.4l0.4-0.1l0.3,0.4l0.7,0.1l0.6-0.7l0.7-0.2l0.3-0.6l1.5-1.8l-0.1-1.1h0.9l0.8-0.9l-0.1-0.4l-0.7,0.4l-0.2-0.1l0.3-0.8
			l-0.2-0.7l0.4-0.3l0.1-0.8l0.4-0.1l0.1-0.8l1.3-0.2l0.1-1.2l0.2,0.1v0.8l0.2,0.2h0.5l1.2-0.3l0.1-0.3h0.6l0.3-0.5l0.4,0.2l0.3-0.3
			l0.6,0.2l0.5-0.8L276.7,750.3L276.7,750.3z M298.8,748.8l0.1,0.7l-0.2,0.3l0.5,0.4v0.3l-0.3,0.2l-1.1-0.3l0.1-0.3l0.2,0.1
			l-0.2-0.9L298.8,748.8z M300,746.8v1.4l-0.2,0.3l0.1,0.5l-0.2,0.1l-0.4-0.4l0.2-0.3l-0.2-1l0.5-0.6L300,746.8L300,746.8z
			 M294.6,745.7l0.4,0.4l-0.1,0.6l-0.7-0.3l-0.2-0.3l0.2-0.4L294.6,745.7L294.6,745.7z M270.6,745l0.3,0.1v0.2l-0.3,0.3l0.1,0.4
			l-0.3,0.1l-0.1-0.7L270.6,745L270.6,745z M279.3,744.8l0.1,0.4l-0.2,0.2l0.5,0.2l0.3,0.8l0.4,0.2l-0.1,0.2h-0.4l-0.1,0.2l-0.5-0.5
			l-0.4-1.2V745L279.3,744.8L279.3,744.8z M270.9,744l-0.1,0.5l-0.4,0.4l-0.1-0.2l0.1-0.5l0.3-0.3L270.9,744z M283.8,740l-0.1,0.8
			l0.7-0.2l0.1,0.2l-0.3,0.3h-0.6l-0.3,0.4l-0.3-0.5v-0.7L283.8,740L283.8,740z M428,738.1l0.1,0.7l0.4,0.1l0.1-0.6h0.4l0.4,0.6
			l-0.4,0.2h-1.5l-0.1-0.2l0.2-0.4L428,738.1L428,738.1z M269.7,737.9l0.2,0.5h0.4v0.2l-0.4,0.2l0.1,0.3l-0.4,0.7l0.3,0.2l0.2,0.8
			l-0.9,0.6l-0.6-1l0.6-0.5l-0.2-0.9l0.4-0.2l-0.6-0.4l-0.1-0.5l0.4-0.2L269.7,737.9L269.7,737.9z M280.6,728l0.5,0.8L281,729
			l-0.8-0.6l0.1-0.4L280.6,728z M284,727.1l0.2,0.4l0.4,0.2l-0.3,0.3l-0.1,0.8l0.3,0.3h0.4l0.2-0.7h1l-0.2,0.9l1,0.4v0.4l0.3,0.1
			v1.2l-0.1,0.3l-0.5,0.2l-0.2,0.7h-0.6l0-0.4h-0.3l-0.1,0.5l0.2,0.8l-2.1-0.4l-0.6,0.7l-0.2,0.9l-0.6,0.5l-0.4-0.3l-0.3-1l-0.9-0.1
			l-0.4-0.4V733l0.5-0.4l-0.2-0.8l0.3-0.1l0.4,0.3l1.2-0.6l0.3-0.8l0.7-1h0.2l-0.1-0.5h-0.4l-0.1-0.4l0.6-0.2l0.4-0.6l0.6-0.1
			l-0.3-0.5L284,727.1L284,727.1z M282.4,722.6l0.4,0.2v0.5l0.2,0.2l-0.6,0.7l-1,0.2l-0.1-0.5l0.4-0.1l0.1-0.5L282.4,722.6
			L282.4,722.6z M281.4,718.8l0.1,0.4l-0.2,0.5l-0.4,0.2l-0.2-0.2v-0.4l0.2-0.1l0.1-0.5L281.4,718.8z M813.6,665.7l-0.2,0.6l-0.9,1
			l0.1-0.7l1.5-2.2l0.1-1.2h0.2v1.2L813.6,665.7z M495.2,633.8l0.4,0.3l-0.1,0.6l-1,2.4l-1.4,0.8l-0.3,0.5l0.1,0.6l-0.3,0.1
			l-0.3,1.2l-1.4,1.5l-2.9,0.1l-0.6,0.1l-0.2,0.3l-1.1-0.3l-3.9,0.2l-0.6-0.4l-0.1-0.3l0.1-0.7l2.9-6.7l0.6-0.2l6.5,0.1L495.2,633.8
			L495.2,633.8z M625.5,431.9h-0.2l0.1-0.5l0.4-0.2L625.5,431.9z M897.4,414.9l1.3,0.5l0.6,0.5l0.5,1.8l0.7,0.2l0.2,0.3l-0.4,1
			l-0.7,0.2l-0.8-0.6l-0.5,0.3h-1l-0.1-0.2l-0.7,0.2l-0.1-0.3l-0.6,0.2l-0.3-0.4l-0.8,0.2l-0.9-1.6l-0.9-0.8l0.3-0.1l0.8,0.5
			l1.2,0.2l1-2L897.4,414.9L897.4,414.9z M788.8,285.6l0.7,0.7l-0.3,0.8l0.1,0.5l0.5,0.3l0.9,0.1l0.3,0.2l0.7-0.1l0.4,0.2l0.8-0.8
			l1.5,0.3h0.4l0.1-0.2l1.2,0.1l0.1-0.9l0.4-0.2l0.2-0.6h1l1.2-0.3l1,0.6l0.2,0.4l0.7-0.3l-0.1,0.5l1.2,1l1-0.2l0.7,0.2l0.1-0.2h0.7
			l-0.1,0.8l0.5,0.1l0.4,0.6h0.5l0.5,0.6h0.2l0.4,1l0.9,0.2l0.4,0.3l1.3,0.2l0.1,0.4h0.3l0.9,1l1.5,1.2l0.2,0.5l0.9,1l0.7,1.4
			l-0.1,1l0.4,2l-0.4,3.1l0.9,0.2l0.4,1l0.4,0.4l0.4-0.3l0.4,0.1l-0.1,1.2h0.7l0.1-0.5l0.8,0.2l-0.1-0.6l0.7-0.3l-0.1,0.6l0.6,0.6
			l-0.4,0.4l0.1,0.5l-0.9,0.8l0.3,0.2l0.4,1.1l2.4,2.8l0.6-0.2l0.1,0.4l0.6,0.2l0.6,0.8l0.9,0.6l0.4,0.2l0.7-0.2v-0.6l0.2-0.2h0.4
			l0.6,0.6l1.8-1.9h0.2l0.1,1l0.3-0.6h0.5l0.9-0.7l0.5-1.2h0.3l0.6-0.6l0.5-0.2l0.2,0.5l-0.4,0.5l-1,0.7l-0.3,0.5l-0.7,0.3l-0.3,1
			l0.7,0.6l-0.6,0.5l0.1,0.5h-0.4l-0.4,0.4l-0.1,0.7l-0.9,0.5l-0.3,1.2l0.3,0.7l0.6,1l1,1l0.7-0.3l0.1,0.4h0.2l0.2-0.5l0.3,0.3
			l1.1,0.3l0.5,1l1.3,0.2l0.1,0.3l-0.3,0.2l0.2,1l-0.4,0.2l-0.3,0.9l0.2,0.4l2-0.4l0.7,0.3l1.8-0.2l0.4,0.5h1l0.4,0.6l0.7,0.5l1-0.2
			v0.5l0.7,0.6l0.5-0.2l0.7,0.2h1.1l0.1,0.2l0.5,0.2l-0.1,0.3l-1,0.1l-0.6,1l0.6,0.2l0.1-0.9l0.5-0.2l0.3,0.6l-0.6,0.1l0.1,0.3
			l0.4-0.1l-0.4,0.5v0.3l0.3,0.2l0.3-0.4h0.4l0.1,0.3l-0.6,0.5l0.1,0.5l-0.7,0.2l-0.4,0.5l-1.2,0.6l0.1,0.5l-0.5,0.6l-0.1,1.3
			l0.4-0.2l1-1.8l1.4-0.5l0.4-0.7l1-0.6v-0.5l0.4-0.6l1.8-1.4l-0.1-0.5h-0.4l-0.3,0.6l-0.5,0.2l-0.1-0.5l-0.4-0.2l0.1-0.9l-0.5-0.2
			l-0.3,0.5l-0.1-0.2l0.4-1.3l0.9-0.1l0.1-0.6l0.7-0.1l1.2,0.5l0.3,0.6l1.6,0.1l0.1,0.5l-0.6,0.5l-0.7-0.1l-0.2,0.4h0.8l0.4,0.7h0.4
			l0.2,0.3l1.4-0.1l0.1,0.4l0.7,0.3l-0.1,0.5h-0.3l0.1,0.3l0.8,0.2l0.1,0.6l1-0.2l0.4,0.8l0.4,0.1l0.1-0.5l-0.6-0.8l0.1-0.4l0.8-0.2
			l1.1,0.4l0.1-0.3l1.2,0.1l0.4-0.3v0.3l0.3,0.2l-1,0.6l-0.5,1.3l0.3,0.3v0.9l0.7,0.2l0.7,0.7l1.2-0.2l0.3,0.2l1-0.1l0.8-0.7l1,0.2
			l-0.5,0.7l-0.5,0.1l0.2,0.6l-0.4,0.2l-0.4,0.6l0.4,0.9l-0.1,0.5l0.6,0.4h0.7l0.3-0.2l0.2-0.5l0.5-0.2l0.1-0.8l0.3,0.2l0.4-0.2
			l2.8-0.2l0.3,0.4l1.7,0.1l0.9,0.5h0.4l0.3,0.3l1.5-0.5l0.4,0.3l0.2,0.6h0.7l0.7-0.4l0.1-0.3h1.4l0.6,0.7l0.1-0.3l1.7-0.1l0.5,0.3
			l1-0.1l0.1,0.9l1.3-0.3l1,0.3l0.2-0.2l0.2,0.2l0.9-1h0.3l0.4,0.4l0.6-0.1l1-0.5l0.5,0.1l0.4-0.9l1-0.1l0.8-0.5l0.5,0.1l-0.5,1.7
			l-0.5,0.3l-0.3,1l-1.8,1.4l0.1,0.2l1.2,0.2l1.2-0.6v0.3l0.3,0.1l-0.1,1l0.3,0.6l-0.2,0.2l0.1,0.9l-0.6,0.1l-0.7,0.7l0.3,1.3
			l-0.3,0.5h-0.4l-0.2,0.3v0.6l-0.6,0.4l-0.1,1.5l0.1,0.6h0.4l0.1,0.3v0.8l-0.3,0.3l0.2,0.7l0.6-0.2l0.8,1.2l0.7,0.1l0.1,1.1l2,1
			v0.9l-0.2,0.2l-0.9,0.3l-0.6-0.1v0.4l0.4-0.2l0.1,0.6l0.6-0.1l0.4,0.2v0.9l-0.6,0.3l-0.1,0.6l-0.4-0.1l0.1,0.3l0.5,0.1l0.1,1
			l-0.1,0.3l-0.5,0.2l-0.1,0.6l0.9,1.4l0.1,0.7l0.4,0.3l0.1,0.4l1.9,1.8l-0.2,0.4l-0.9-0.1l-0.1,0.5l1.1,0.1l1.3,0.6h1.1l0.2-0.9
			l2.6,0.2l0.9-0.3l0.5,0.1l1.6-0.9l1.3-0.1l0.6,0.2l0.3,0.4l0.9-0.1l0.5,0.6h0.5l0.7,0.5l-0.1,1.7l0.2,0.6l0.4-0.1l1-1l0.2-1
			l0.7,0.9l0.7,0.1l0.5,0.7l0.6,0.2l0.1,0.8l-0.3,0.4l0.1,0.3l-0.1,1.3l-0.4,0.3l-1.7,0.1l-0.4,0.2l-0.1,0.5h-1.1l-0.6,0.2l-1.6,1.7
			l-1.5,0.2l-1.5,1.8h-0.5l-1.7,1h-1.7l-0.7,0.6l-2.3,1l-1.4,0.9l-2.3,0.6l-1.2,0.6l-1.2,1.3l-0.1,1l-1.2,1l-0.4,1.5l-0.6,0.4
			l-1.3,0.3l-0.4,0.8l-1,0.5l0.1,1.2l-0.2,0.6h-1.3l-0.9-0.2l-1.5,1l-1.2,1.4v0.5l0.4,0.4l0.1,1.1l-0.7,0.6l0.2,1.6l-1,1l-0.5,0.2
			l-0.4,0.8l-0.6,0.5l-1.4,1.8l-0.4,0.2h-0.9l-0.7,1.6l-1.2,1.3l-1,0.4h-0.7l-0.4,0.4l-0.4,1.5l-1.2,1l-0.7,1.2l-0.6,1.8l-1,1.9
			l-2.1,6.4l-1,4.1l-1.4,9.6l-0.1,6.6l0.3,4.4l1,4.5l3.7,9.2l-0.2,4.5l0.5,6.1l1.3,6.3l1.5,4.1l2.5,5.3l1.8,1.7l1,0.4l1.1-0.1
			l0.4,0.2l0.3,0.7h1.3l0.4,0.6h1l-0.3,0.5l0.4,0.6l-0.1,0.3l-2.2,0.2l-0.7,0.5l-0.2-0.1l0.1-0.2l1.5-0.9l-0.2-0.6l-2,0.7l-0.3-0.7
			l-1.4-0.8l-1.4,0.4l-0.4,0.5l0.3,1.1l-0.1,0.3l0.7-0.2l0.1,0.9l0.2,0.2l1-1l0.6,0.2l-0.1,1l-0.5,0.4l0.2,0.6l-0.5,0.3l0.1,0.6
			l0.8-0.2l0.5-0.4l0.3,0.6h0.8l1.2-1.8l0.4-0.4l0.2,0.1l-1.3,2l-0.6,0.4l-0.1,0.4l1.3,1.3l-0.3,0.3l-0.5-0.2l-0.4,0.4l-0.7-0.2
			l-0.5,1.1l0.3,1.6l0.1,4.1l0.3,0.7v0.8l0.7,0.7l-0.6,1.2v0.8l0.2,0.8l0.4,0.6h0.4l0.1,0.2l-1,0.2l-0.3,0.6L876,507l-0.1,0.5
			l-1.2,0.1l-0.1-0.2l-1.2,0.4l-0.8,0.7l-1.2,0.5l-2.3,0.4l-0.6,0.5l-0.7,2.5l-0.1,1.8l0.2,1.3l0.4,0.5l1-0.1l0.3,0.4l0.7-0.1
			l0.1,0.3l0.7,0.2l0.1,0.4l-0.4,0.3l0.1,2.2l0.4,0.4l2.1-0.1l0.5,0.6l0.1,0.5l-0.6,0.3h-0.8l-0.3-0.4l-2,0.3l-0.5,0.6l-0.9,0.1
			l-0.5,0.4l-0.9,1.4l-0.8,0.1l-0.5,0.4l-0.1,0.4l-2.3,1l-0.7,0.6l0.1,0.7l-0.3,0.2l-0.1,0.4l0.3,0.2l0.1,0.9l-0.6,0.3l-0.8,1
			l-0.4,0.9l-0.7,0.8l-2.1,1.5l-1.4,1.8l-2,5.2l-0.5,3.2l-0.3,0.7l-0.1,3.2l-0.4,1.6l0.1,1.5l-0.2,0.7l0.2,0.3l-0.1,0.9l-0.7,0.6
			l-0.1,0.8l-0.4,0.5l-0.1,0.9l-1,1.5l-0.1,1l-1,2l-0.7,2.4l-0.4,0.6v1l0.9,4l-0.3,3.2l-0.6,0.7l-0.3,0.9l-1.2,1l-0.3,0.5l-1.9,1.3
			l-1.2,1.4l-1.5,3.4L843,584l-2.2,2l-0.6,1l-2.4,1.8l-1.4-0.2l-1.2,0.9l-1.5,2.5l-0.2,1.5l-0.6,0.8l-2.5,1.2L830,596l-0.6,0.3
			l-0.7,0.2l-1.5,1.5l-0.7,0.1l-0.6,0.5l-1,0.2l-1,0.9l-0.5,1.4l-0.2,0.1v0.4l-0.9,0.8l-0.2,0.8l-0.4,0.4l-0.7,1.8l-0.6,2.5l0.4,4
			l1.2,2l0.3,1.4v2.7l-0.7,2.2l-2,3.4l-0.9,0.9l-2,1.6l-1.8,0.9l-2.6,2.3l-2.5,4.8l-0.5,2.5l0.1,4l1.2,4.4l2,4l0.8,1l0.4,0.9
			l1.2,1.2l1.2,0.6l0.4,0.5l0.9,2.2l0.1,1l-0.8,1l-0.4,1.3l-0.4,0.1l-0.7,1l-0.3,0.6L815,662l-0.8,1.1l0.1-1.3l0.7-1.1l0.1-1.8
			l0.3-0.2l0.1-1.2l-0.3-0.4l-0.2,0.1v1.1l-0.3-0.5h-0.2v0.9l0.4,0.9l-0.4,1.7l-1.3,1.7l-1.1,0.6l-0.3,0.5l0.1,0.6l0.6,0.6l-0.1,0.8
			h-0.2l-0.9-1.1h-0.8l-0.9,0.5v0.4l-0.7,0.9v0.9l-1.6,1.6l0.1,1l-0.4,0.5v1.2l1,2.4l0.5,3.3l-0.6,1v1.2l-0.7,1.3l-0.4,2.2l-0.2,0.3
			l-0.2,1.7l0.3,0.4l0.1,1.2l-1,7.2l-1.5,6.2l-1.1,3.4l-0.6,0.5v0.5l-0.9,2.1l-0.4,0.1l-0.1,0.7l0.1,0.6l-0.6,1.8l-1.2,1.6l-0.4,0.1
			l-0.2,0.6l-0.4,0.2l0.1,0.7l-0.6,1.3l-0.4,1.9l0.1,1l-0.1,1.1h-0.1l0.1,0.6l-0.4,1.3l0.2,0.5v3.2l-0.2,1.3l0.7,0.3l0.2,0.7l-0.2,1
			l-0.4,0.5l0.2,0.3l-0.7,1.1l-0.1,0.7l-0.5,0.5v1l-0.4,0.8l-0.6,0.5l0.1,0.6l-0.7,0.5l-0.2,1.3l-0.7,0.6l0.1,0.3L794,737l-0.9,0.1
			l-0.6,1.6l-0.4,0.3l0.1,0.5l-0.3,0.2l-0.1,1.6l0.4,1.7l-0.1,0.5l0.4,0.7l0.7-0.4l0.3,0.2l-0.3,0.4l-0.2,1.2l-0.6,0.4v1.1l-0.5,0.5
			l0.3,0.2l-0.2,1.1l-0.8,1.6L791,751l0.4,0.5l-0.4,0.9l-0.4,0.4l0.4,0.9l-0.5,0.4l-0.4,1.4l0.4,1.3l-0.4,0.6l-1,0.2l-0.8,1.3
			l-0.3,1l-0.1,1.9l-0.8,1.8l-0.2,3.6l0.1,5.3l-0.2,1.8l-0.2,0.2l-0.2,1.2l0.1,0.2l-0.1,0.7l-0.3,0.1l-0.2,0.5l0.2,1.7l-0.2,0.1v0.4
			l-0.5,0.5l-0.1,0.4l-0.3,0.2l-0.1,1.3l-0.6,0.2l-0.8,1.3l0.1,0.5l-0.6,0.3l-0.4,1.5l-0.4,0.2l0.1,0.5l-0.4,0.5l-0.1,1l-0.7,2
			l0.3,0.3l-0.4,1.1l0.1,0.7l-0.6,0.5v1.3l-0.5,1.4l0.5,2.5l-0.4,1.2l0.2,0.1l-0.1,0.7l0.5,0.1l-0.3,1.6l0.6,0.7l0.1,1l1.5-0.1
			l-0.1,1l0.3,0.2v0.4l-0.3,0.3l-0.1,0.9l0.1,0.2l0.8-0.2v0.5l-1.6,0.5l-0.3,0.6l0.1,0.7l-0.2,0.2l-0.1,0.5l0.2,0.5l-1,0.2l-0.7,1.2
			l-1.1-0.3l-0.4,0.4l-1.2,0.1l-0.9-0.5l-0.4,0.1l0.8,0.6h0.4l0.4,0.5h0.4l0.4,0.4l0.4-0.1l0.4,0.2l0.3,0.2v0.3l-0.8,2.7l-0.6,5.4
			l-0.5,0.1v0.6l-0.4,0.2l-0.2,0.8l-0.7,0.8l-0.3,1.6l-0.3,0.3l-0.3,1l-0.5,0.5l-0.2,1.2l0.1,0.7l-0.6,0.8l0.1,1.3l-1,0.2l-0.3,0.6
			l-0.1,1.6l-0.6,0.4l0.1,1.4l-0.2,0.1l-0.7,3.1v0.7l0.4,0.9l-0.1,0.5l0.3,0.2l-0.8,1.5l0.2,1.5l-0.4,0.1l-0.3,0.4l-0.5,1.5l0.1,1.1
			l-0.1,2l0.2,1l-0.3,0.1l-0.3,0.5l0.1,1.5l-0.3,0.8l-0.5,0.3l-0.4,0.9l0.2,0.6l-0.2,0.6h-0.7l-0.3-0.3l-0.8-0.1l-0.8,0.2l-1.4,1.2
			l-0.3,0.6l-1.2,1.3l-0.7,1.7l-1.2,1.6l-0.1,1l-0.5,0.2l-0.4,0.5l-0.9,2.8l0.4,0.7l-0.2,2.1l-1,0.4l-0.4,0.8v0.5l-0.6,1.3v1.4
			l-0.3,0.6l-0.2,2.4l-0.2,0.6l-0.4,0.4l-0.2,1.1l0.3,0.9l0.7-0.3l0.6,0.5v0.6l-1,1.1l-0.4,0.2l-1.2,2l-0.6,0.4l-1.3-0.1l-0.3,0.9
			l-1,0.5l-0.4,0.8l-0.3,2.3l0.1,0.9l0.4,0.6l0.1,2l0.9,1.5l0.3-0.1l0.3,0.3l0.1-0.3l0.4-0.1l-0.8,2l0.6,0.4l0.4,0.7h0.2l0.2,0.8
			v0.9l-0.4,1l-0.3,1.6l-0.6,0.8l-0.9,0.6l-0.1,0.5l0.1,1.1l-0.4,1.7l0.4,0.5l0.4,1.6l0.7,0.8l1.5,0.8h0.4v0.7l-0.5,0.3l-1,1.4
			l-0.8,0.5l-0.7,0.1l-0.7-0.8h-0.4l-0.5,0.9l-0.1,0.9h-0.2l-0.7,1.1l-0.5,0.3l-0.1,0.6l-0.3,0.2l0.1,0.6l-0.3,0.2v0.7l-0.4,0.4
			l-0.1,0.7h-0.3l-0.2-0.6h-0.6l0.1-0.5h-0.6l-0.2,0.5l-0.5-0.2l-0.6,0.2l-1.6-0.2l-0.4,0.2v0.3l-0.4,0.2L743,917l-0.4,0.2l-0.7,0.9
			l-0.1,0.6l-0.3,0.2l0.1,0.4l0.3-0.1v0.5l-0.9,0.7v0.3l0.5,0.6l0.1,0.8l-1,0.4l-0.3,0.6l-0.7,0.1l-0.5,1.2l-0.1,1.6l-0.3,0.5
			l0.1,1.9l-0.6,0.6l0.1,1.2l-1,1.2l0.1,0.8l-0.4,0.2l-0.4,1.6l-0.1,0.8l0.4,0.1v0.4l-0.3,0.4l-0.6,0.2l-0.1,0.6l-0.2-0.1l-0.1,0.2
			l0.1,0.2l0.5,0.2l0.1,0.4l-0.8,0.6h-0.7l-0.7,0.5l-0.1,0.8l0.2,0.1v0.6l-0.6,0.2l0.3,0.4l-0.1,0.4l-1,0.5l-0.6,2l0.4,0.7v0.9
			l-0.4,1l-0.8,0.9l-0.4,1.5l-0.7,0.7v0.8l-1.1,1.4l-0.6,0.1l-0.4,0.7l-1.3,1.2l-0.3,1.1l-0.9,0.3v0.2l-1.1,1l-1,0.1l-0.6,0.5
			l-0.1,0.6l-0.7,0.2l-1.1,2.7l-0.1,2.5l-1.1,0.8l-0.1,1.1l-0.6,0.9l0.1,0.7l-0.8,0.9l-0.1,0.8l-1.8,1.4l-0.5,1.2l-0.1,1.2l-0.2,0.2
			h-0.5l-0.7,2.4l-0.1-0.1l-0.1,0.5l-0.4,0.2l-0.8,1.5l-0.4,0.2l-1.2-0.1l-0.6,0.5l-1,1.8l-0.1,0.9l0.3,0.4l-0.4,0.8l-1,0.3
			l-1.3-0.9h-0.4l-1,0.2l-0.2,0.6l-1.5-0.1l-0.7,0.4l-1.3-0.3l-0.2,1l-1.5,0.7l-0.5,1l-0.4,0.4l-0.8,0.3l-1.2,1.5l0.1,1.3l-0.3,1.4
			l-0.8,1l-0.1,1.1l0.2,0.5l0.8,0.2l0.4,0.4l0.1,1l0.1,0.3l0.4,0.2l-0.2,0.7l0.7,1l0.9,2.7l0.4,3.2l-0.4,0.1l-0.1,0.5l-1.4,0.9h-0.3
			l-0.6-0.6l-0.6,0.2l-1.6,1.7l-0.3,0.5l-0.2,2.4l-0.4,1.5l-0.3,0.2l-0.2,0.6l-0.4-0.1l-0.5,0.3l0.1,0.6l0.3,0.1l0.1,0.8h0.2
			l0.6-1.4l0.2-0.1l-0.2,0.9l-1,1.9l-2.5,1.6l-1.5,0.3l-2.7,2.5l-0.4,0.8l-0.5,0.2l-0.1,0.4l-5.5,5.5l-1.9,0.6l-3.6,2.4h-1.5
			l-1.5,0.6l-2.5,1.4l-2,1.6l-0.7,0.1l-2.9,3.3l-1.3,1l-4,1.6l-1.2,0.9l-2.3,2.8l-2.5,6l-1.2,4.8l-0.7,6.3l0.1,1.6l-0.1,0.8
			l-2.3,2.5l-0.7,0.2l0.1,0.2H647l-3.3,3l-0.9,1.2l-0.9,2l-1.5,4.2l-0.2,1.3l-1.2,3.3v0.6l-0.2,0.2l-0.6,2l-1.2,2.8l-0.3,2l-2,6.4
			l-1.4,6.1l-0.4,0.2l-0.1,0.5l0.2,0.2l-1.1,2.3l-2,6.2l-0.4,1l-0.9,1.1l-0.3,1.1l-0.4,0.6l-0.8,3.3l-1.8,3.2l-0.8,3.9l-0.6,1.5
			l0.1,1.2l-0.2,0.8l-1.6,1.5l-0.4,1.6l-0.9,1.6v0.7l-0.9,1.5l-0.2,2.1l-0.2,0.2l-0.4,4.5l-0.1,8.5l0.3,4.3l0.8,4.1v1.9l0.9,2
			l0.1,1.6l-0.2,0.5l-0.5,0.2l-0.7,2.7l0.4,2.6l0.4,0.6v1.2l-0.3,0.3l0.1,0.4l-0.2,0.3l-0.5,0.6l-0.4,0.1l-0.4,0.6l-0.1,1.4l0.3,0.8
			v1.9l0.6,1.6v1.5l-0.5,1l-0.1,1l0.1,0.6l0.4,0.5l0.1,1.5l-0.7,1.7l1.1,1l0.3,0.6l-0.6,1l-2.5,1.9v0.6l0.2,1.6l1,3.3l0.7,1l0.9,0.2
			l0.5,0.5l1.3,0.4l-0.1,0.4h-0.5l-0.5,0.5l0.1,1.1l-0.2,1.2l-0.2,0.1l-0.4,1l-1.2,1.2l0.1,1.2l-0.2,1.1l0.1,1.1l0.4,0.6l-0.1,1.6
			l0.2,1.3v3.8l0.6,0.9l0.4,1.3l0.6,0.8l0.1,1l-0.8,0.4l-2.1,1.8l-0.3,0.5l0.1,1.9l-0.1,0.2l-1.4,1l-1.4,0.4v2.3l-0.4,1.1l-2.5,1.2
			l-1.2,1.1l-0.5-0.1l-1.3,0.8l-1.5-0.2l-0.7,0.5l-0.9-0.2l0.1,0.4l0.3,0.1l0.1,0.7l-0.2,0.1l-0.1,1.2l0.4,0.1l0.1,1.5l-1.3,4.2
			l0.4,3.2l0.7,1.9l0.9,1.3l-0.1,0.8l1.4,1l2.1,3.6l0.1,1.5l-0.2,0.6l0.3,1.1l0.7,0.8l0.5,0.2l0.1,0.4l-0.5,0.6l-1,0.6h-2.2
			l-0.7-0.5l-0.6-0.9v-0.8l-0.3-0.6l0.1-2l-0.3-0.3l-1.5,0.1l-1-0.5l-0.6-0.6l-0.6-1.6l-2-1.9l-0.8-1.4l-1.5,0.6h-1.1l-1.1-0.6
			l-0.7-1.6h-0.3l-0.3,1l-0.4,0.2l-0.6-0.2l-0.1-1.5l-0.3-0.2l-2-0.4l-1.6,0.3l-0.2-0.4l-1-0.6l-0.1-0.5l-0.8-0.2l-1-0.6l-0.9-1.7
			l-0.8-0.5l-1,0.1l-0.3,0.6l-0.7,0.2l-0.3,0.8l-1.5,0.6l-0.4,0.6l-0.6,1.4l-0.1,0.9l0.1,0.8l0.3,0.6v1.4l-0.2,0.2l-0.4-0.2l-0.5,1
			l-0.7,0.3v1.9l-0.2,0.2l-3.2,0.3l-1.1-0.8l-1-1.8l-0.1-2l-0.7-0.2l-0.7,0.4l-0.4-0.1l-0.3-1v-1.7l0.4-1.8l0.2-2.8l-0.1-1.6
			l0.8-1.4l0.1-1.9l-0.7-1.8l-1.2-1l-0.1-1l-0.5-1.2l-0.3-0.2l-0.8-0.1l-0.6-0.5l-1.5-2.2l-0.4-1.9l-0.8-1.1l-0.1-0.6l-0.7-1.3
			l-0.2-1.6l0.5-1.6l0.7-0.9l2-1.2l0.1-0.5l-0.6-0.2l-0.4-1.3l0.7-1.9l0.4-0.3l0.7,0.2l0.8-0.1l0.4-0.7l0.3-1.3l1-0.7v-0.2h-0.3
			l-0.7,0.6l-0.1-1.5l-0.9-2.8l-0.2-0.4l-0.5-0.2l-0.1-0.5l0.8-0.9l1.2-0.1l1-0.6l0.4-0.5l0.1-0.5l0.1,0.4l0.5-0.2l0.2-0.7l-0.5-1.1
			l0.1-2.2l-0.7-1l-0.2-1.7l-0.7-1.2l0.1-1.3l-0.4-0.2l-0.1-0.7l-1-0.6l-0.4-0.7l-0.1-0.7l0.3-1l-1-0.3l-0.3-0.5l-0.1-1.2l0.7-1.4
			l-0.3-0.8l-0.7-0.6l-0.1-1.2l0.3-0.9l-0.9-2.4l-0.2-2.4l-1.1-2.7l-0.8-0.9l-0.5-1.6v-0.7l0.6-1l0.1-1.2l-0.6-1.3l-0.6-0.6
			l-0.1-0.5l-1-0.8l-0.2-1.3l-0.4-0.3l-0.1-1.1l-1.1-1.9l-3.1-3.2l-2-1.3l-0.6-0.7v-1.2l0.2-1.1l0.4-0.6v-1l-0.7-1.3l-0.6-2.6
			l-0.8-1.2l-0.5-4.8l-1.1-1.4l-0.5-1.3l-4.5-4.7l-1.8-1.2l-1.2-1.2l-1.2-2.2l-0.6-2l-0.9-1l-0.4-1l-0.4,0.2l-0.7-0.5l0.3-0.7
			l-1.4-1.6l-0.7-0.3l-3.7-3l-1.2-0.6l-0.5-0.6l-0.6-0.2l-1.2-1.1l-1.6-0.8l-0.7-0.8l-0.7-0.2l-3.8-2.3l-3.8-1.8l0.2-0.6l-0.1-0.7
			l0.6-0.7l0.9-2.1l-0.1-1.3l-0.3,0.2l-0.1,0.8l-0.4,0.2l-0.3,1l-1,1.1l-0.1,0.5l-0.4,0.5l-0.7,0.3l-2.8-2l-5.9-3l-5.9-4.1l-0.1-0.4
			l0.6-0.3h0.9l0.4,0.6l1.2,0.6l-0.1,0.4l0.2,0.2l1.4,0.5l0.4,1l1.2,0.6l0.4-0.1l1.2,0.7l0.8-0.8l-0.1-0.6l0.7-1.4l-1-0.2l-0.3-1.4
			l-1.2,0.1l-0.1-1.4l-0.4-0.2l0.1-0.2l-1-0.2l-0.2-0.2l-0.2,0.1l0.1,0.2l-1-0.2l0.1,0.6h-0.3l-0.7-0.3l0.1-0.6l-0.1-0.2l-0.6-0.2
			l-0.3,0.7h-0.3l-0.5,0.6v1.1l-0.7-0.1l-1,0.7l-3.6-4.3l0.1-0.5l-0.5-0.1l0.3-0.7l0.6-0.3l1.1-0.1l-0.6-0.8H501l-1.4,1l-0.1-1
			l-0.3-0.6l-2-0.9l-0.4-0.6l-1.8,0.3v0.3l-0.5,0.3l-1,0.1l-1.1-0.3l-2.5-1.2l-1.8-1.5l-4.7-3.2l-2.9-2.7H480l-0.1,0.2l-0.5-0.1
			l-0.3-1.2l-1.5-1.6l-0.7-0.3l0.1-0.8l-1-0.6l-0.4-1l-0.5,0.1l-0.2-0.7l-0.6-0.3l-0.5-0.9l-1.1-0.1l-1.2-1.5l-1.4-1.1h-0.4
			l-1.3-1.3l-0.4-0.1l0.9-1.1l1.4,0.1l1.8,2.7l0.6,0.5h1.2l1.1-0.6l0.9,0.6h0.4l0.7,0.7l0.5-0.2l-3.4-3l-0.1-0.6l1.2-1l0.2-0.2
			l-0.1-0.3H475l-1.3,1l-0.5,0.2l-0.4,0.5l-0.6-0.6l2.3-1.6l0.1-0.4l-0.2-0.2H474l-2.4,1.7l-0.6-0.9l1.3-0.8l-0.4-0.6l-0.4,0.1l-1,1
			l-0.6,0.2l-1.3-1.5l-0.3-0.8l-0.9-1.1l0.7,0.6l1-0.6l-1-1l-0.4,0.1l-0.6,0.6l-0.6-0.4l-2-2.6l-0.4-1l-0.5-0.2l-1.1-1.4l-3-5.6
			l0.1-0.3l0.4,0.1l2.4,1.3l0.8,2l0.2,0.4l0.5,0.2l0.6,1.4l-0.7-2.6l4.8-2.7l-0.5-11.2l0,0l-4-16.8l0,0l-7.7-9.1l-8.3-2.9l-0.5-1.5
			l-1-1.6l0.1-0.4l-0.4-1.1l-1.4-2.7l-3.3-8.4l-0.5-0.2l-1.3,0.5l-2.1,0.1l-0.4-0.6l-0.1-0.8l0.5,0.4l0.1,0.8l1.1-0.2l-0.2-1.6
			l1.2-0.2l0.6-0.5v-0.2l-2.2-6.7l-0.8-1.5l-1.2-4.4l0.9-0.3l1.7,0.7l0.7-0.7l0.4-0.5l0.1-2l0.8-0.6l0.1-0.5l-0.8-0.1l-0.1-0.4
			l0.8-0.1l0.1-0.6l-1.5-0.1l-0.9,0.7l0.6,1.5l-0.4-0.5l-0.5,0.2l0.4,1.2l-0.1,0.6l-1.5,0.4l0.3-0.5l-0.4-1.3l-0.6,0.1l-0.1,0.3
			l0.6,1.6l-0.6,0.2l-1-3.3l-2-5l-1.5-4.8l0.3-1l2.5-1.9l-0.2-0.1l-0.5,0.3l-2,1.6l-0.5-0.3l0.6-4.9l-0.1-2l-0.9-3.5l-1.4-2.8
			l-0.9-1.3l-0.1-0.7l-0.2-0.2v-0.3l0.7-0.5l0.5,0.2l0.6,0.8h0.4l-0.1-0.9l0.6-0.5l0.5-1.1l-0.1-0.8l-0.3-0.3l-0.4,0.1V948h0.4
			l0.3-0.3v-0.4l-0.7-0.2h-2.5l-1.5-1v-1.7l1.4-0.3l0.6-0.9l-0.9,0.6l-1.1,0.3h-0.3v-0.4l0.6-0.2l0.1-0.2l-0.9,0.2l-0.1,0.6l-0.6,1
			l-0.7-0.6l-0.5,0.4l3.7,3.1l0.8,1.9l0.4,0.4l-0.1,0.5l-0.8,0.2l-0.4-1l-0.5-0.5l-0.7-1.4l-3.7-3.8v-1l0.8-0.9h0.4l1.2-1l-0.1-0.3
			l-0.9,0.6l-1.2-0.2l0.5-1.9l1.1-0.7h1l0.7-0.5l1.5-0.4h1.2l0.4-0.2l1.2-1.5l0.4-0.2V936h-0.5l0.1-0.7l-0.3-0.3l-0.3,0.1v0.5
			l-0.2,0.1l-0.3,1l-0.6-0.7l-0.4,0.1l0.4,0.7l-0.2,0.5l0.4,0.5l-1.8,0.2l-1.6,0.6h-0.3l0.3-0.2V938l-0.6-1.8l-0.3-0.2l-0.2,1.4
			l0.4,0.1l-1,0.2l-0.2,0.6l0.1,0.4l0.4,0.2l-0.6,0.4l0.1-0.6l-0.5-0.1l-0.1,0.7l0.2,0.2l-0.6,0.3l-0.4,0.5l0.2,0.6l-0.3,0.3
			l-0.1,1.8l-0.5,0.1l-2.9-2.8l-4.4-3.5l0.6-1.4l-0.3,0.1l-0.5,0.8H414l-0.1,0.2l-0.3-0.1l-1-0.8l-4.8-2.8l-0.3-0.4l-0.9-0.2
			l-0.6-0.5l-1.5-0.3l-1.2-0.6l-0.1-0.5l0.5-0.4l0.4-1.6l-1-0.7l-1.2,1.1l-0.9,0.6h-0.4l-0.9-1.2l-0.9-1.4v-0.3l0.3-0.6l1.1,0.1
			l0.9-0.4v-1l-0.8-2l0.9-0.4l-0.1-0.6l-1,0.4l-0.5-1.6l-4,0.1l0.1,0.8l-0.3,0.3l-1.4-0.5l1-5.4l0-2l3.6-2.4l0.6-0.7l5.5-2.8
			l2.1-0.2h0.8l0.6,0.3l2,2l1.9,0.4l0.1-0.5l-2.2-0.5l-0.2-1.3H409l-0.9-1.5l-0.1-1l0.4-1.4l-0.4-1l0.1-0.8l-0.3-0.2l1.2-1.6
			l0.2-0.7l-0.1-5.1l-0.6-0.7h-2.8l-0.8-0.5l-0.6-1.1l0.3-1.5H404v-0.2l1.2-2.9l1-1.4l0.9-2.3l-0.3-0.3l-0.9-0.1l-0.8-1l0.1-0.1
			l0.6,0.8l0.7,0.1l0.5,0.3l0.4-0.6l0.1-1.3l-1.8,0.2l-0.2-0.2l1.5-0.2l0.4-0.5h0.3l-0.1-2l0.4-3l0.6,0.1l-0.2,0.5l-0.1,2.1l1.5,0.3
			l0.4,1.6l0.8-0.2v-1l0.2-0.1V879h0.2l0.2,0.6l0.4,0.2l0.6-0.1l0.6-0.6l0.6,0.1l0.3-0.3l1.2,0.2l0.8-0.5l3.4,0.2l-0.1,0.2h0.2
			l-0.1-0.2l0.6-0.1l0.4-0.3l-0.1-0.2l-2.4,0.2l-2.5-0.5l-1.6,0.2l-3.2-0.2l-0.2-2.1l-1-0.7l0.1-0.3l0.5,0.2l1.1-0.2l0.6-0.8v-1
			l1.3-1l0.1-0.8h0.6l0.4-0.6l0.4-0.1l-0.1-1.3h-0.3l-0.2,0.7h-0.4l-0.1-0.6l0.1-1.7l0.8-0.9l1.1-0.2l1.2-1v-0.4l-0.7-0.1l-2.5,1.8
			h-1.2l-1-0.6l-0.9-1.7l0.4-4.1l0.3-0.8l0.4-0.2l0.1,0.4h0.4l0.1-0.3l0.5-0.2l2.3,0.2l0.1-1.4l-1.5,0.1l-0.1-1l0.3-0.2l1.2-2.2
			l0.7-2.5l0.2-1.8l0.6-0.1l1.5,1.3l1.5,0.2l2.9-1l1.8,1.4l1.1,1.9l1.5,1.8l0.9,0.6l-3.6-4.8l-1.8-1.1l-2.8,0.2l-1.5-0.7l-0.4-0.4
			l-0.1-0.6h0.8l0.1-0.4l-0.4-0.2v-0.9L418,848l-0.1,0.5h-0.4l0.9-1.3l1.4,0.2l0.2-0.2l0.1-0.4l-0.4-0.7h-0.4l-0.1,0.4h-0.3
			l-0.1-0.9l-0.6-0.2v-0.2l2.4-4.3l-0.6-0.2l-0.6,0.5l-1.5,2.4l-0.6,1.4l-0.1-0.3l0.9-1.8l0.4-0.4l1.2-2.1l0.4-1.7l1.2-1l0.6-0.1
			l0.1-0.2l-0.1-0.2h-1.8V837l1.5,0.1l1.1-0.2l-0.2,0.6l-0.5,0.1l0.2,0.6l-0.3,0.2l-0.1,0.5l-1.9,1.7h0.5l0.3,0.4l0.5,0.1l0.5-0.6
			l0.1-0.7h0.2l-0.1,0.5h0.3l0.1,0.4h0.9l-0.1,1l0.2,0.1l-0.1,0.9l0.4-0.3l0.1-0.7l-0.3-0.3l0.4-0.5l1.2,1l0.5,1.3l2.5,1.1l0.4,1.1
			l1.6-0.2l1.2,0.3l0.4-0.6h0.2l0.3-0.9l0.9-0.5l0.2,0.7l-0.6-0.2l0.1,0.5l-0.7,0.4l-0.8,1.1l0.3,0.1l0.2,0.8l0.9,0.3V847l-0.5-0.2
			l-0.1-0.3l0.1-0.3l0.4-0.2l0.5,1.6h0.3V847l0.4,0.2l0.1,0.5l-0.7,0.2l-0.3,0.5l0.3,1.5l0.4,0.6l1.5-0.6l0.4-0.5l-0.1-0.4l-0.8-0.9
			l-0.5-1.3l0.6-0.6h-0.4l0.1-0.3l0.9-0.6l0.1-1.8l-0.7-1.3h-0.4l-0.4,0.8l-0.9,0.1l-0.4-0.3v-1.5l0.4-0.6l-0.4-1.3l0.5-0.5
			l-0.9-2.2l-2.1-0.6l-0.5-0.4h-0.6l-0.7,0.4l-1.6-0.1l-0.1-0.3H425l-0.1-0.4l-0.9-0.3l-1.4,0.1l-0.6,1.2l-2,0.1l0.1-2.8h-1.1
			l-0.3,0.4l-0.3-0.2l0.5-0.5l1.4-0.1h6.1l0.1,0.2l1.2-1.2l0.7-1.2v-0.4l-0.8-2.8l-0.1,0.1l-0.1-0.3l-1.2,0.2L426,829l-0.6,0.3
			l-0.5-1.7l-0.1-3.2l0.2-0.2l0.1-2l1.2-0.6l0.3-1l-0.1-1.5l0.6-0.2l0.2-0.7v-0.7H427l-0.1,0.2l-0.1-0.3l0.2-0.3l-0.4-0.1l-0.1-0.5
			l0.4,0.1l0.2-0.4h-0.6l0.1-0.4l-0.1-0.2l-0.4,0.2l-0.1-0.2l0.3-0.5h0.4l0.9,0.6l0.4,0.7l0.6-0.6l0.3,0.6l0.5,0.3l1.1,0.1l2-1
			l0.4-1.3l-0.1-3.5l0.2-0.4l-0.3-0.1l-0.6,0.6l0.1,1.6l-0.3,0.9l-0.3,0.2l-0.3,1.4l-0.5-0.1l-0.2,0.3h-1.1l-1.1-1l-0.8-1.3
			l-1.3-0.4l-0.9,0.4l-0.3,0.4l-0.6,0.1l-2.2,1.2h-0.1l0.1-0.6l-0.4-0.1v0.4l-0.4,0.1l0.1,0.2l0.4,0.1v0.2l-0.7,0.2l-0.4-1l0.1-0.7
			l1.3-1.3l1.1-0.4l0.5,0.2l0.5-0.1l0.2-0.9l0.4-0.2l-0.1-0.2l0.6-0.3l0.1-0.9l-0.6,0.5l0.5-1.2l-0.8,0.9l-0.3,0.7l-0.4-0.1l0.1-0.2
			l-0.4-0.2l-0.1-1l0.3-0.3l0.1-0.7l0.8-0.6l0.7-1.4l1.1-1l0.2-1.1l-0.4-0.2v-0.5l0.8-0.2l1.9,0.2h1.2V803l-2.3-0.5l-2.2-0.1
			l-4.9,1.7l-2,0.1l-0.6-0.3l-0.9-1l-0.4-1l-0.1-1.6l0.1-4.1l0.1-0.5l0.6-0.7l0.6-0.2l1,0.1l2.8,0.7h1l0.2-0.2l0.9-0.1l-0.1-2
			l0.8,0.1l0.5-1.1v-0.6l-0.3-0.2l-0.1-0.5h0.5l0.1-0.2l-1.4-0.9l-0.6-0.9h-0.2v-0.3l-0.7-0.9l-0.3-1.3l0.3-1.7l-0.2-1.5l0.7-0.8
			l0.3-1.1v-1l-0.7-0.4l-0.1-0.8l0.2-4.2l0.2-0.7l0.6-0.2l0.2-0.5l0.9-0.2l0.2-0.4l-0.6-0.1l0.4-1.3h-0.5l-0.5,1.3h-1.1l0.1-3.7
			l-0.2-0.7l0.2-2.1l-0.4-1l0.6-4.7l0.4-0.1l0.6-1.5l0.4-0.2l0.6-1.3l0.3-1.5l0.6-1l0.4-2.1l0.8-1.1l1.3-3.4l1.3-1.3l1.1-2.1
			l1.6-1.6l0.7-0.1l0.9,1l0.2-0.3h0.5v-0.9l-3-0.6h-0.5l-0.1,0.3H431l-0.9-0.7l0.4-4.4l-1.1-0.2v0.7h-0.2l-0.2-0.6h-0.6v-0.2h0.6
			l-0.1-0.6l-0.4-0.2l0.1-0.2l-0.1-1l1-1.6l0.5,0.1l-0.1,0.4l-0.2,0.1l-0.2-0.2l-0.6,1l-0.1,0.7l0.9,0.3v1l1.1,0.3l0.4-3.6l0.2-0.9
			l0.5-0.2l-0.4-0.6l0.1-0.4l0.6-1.7l1.7,0.1v-1.9h-1l-0.5-1l-2.1,0.1l-1.5-3l-0.4-1.8l0.1-0.9l0.2-0.1v1.5l1.5,3.9l1.4,0.2
			l-0.2-0.2h0.2l1-2.1l-0.3-0.5l-0.4-0.2l0.1-1.1l0.6-0.4l0.6-1.9l1-0.2l1.3-2.8l-0.2-0.4h-0.3l-0.6,1.1l-0.6,0.4l-0.5-0.4h-0.4
			l0.8-1.5l0.4,0.2v0.2h0.4l0.4-1l-0.5-0.4l0.1-0.5L434,715l-0.4,0.1l-0.7,0.8l-0.2-0.1v-0.3l-0.9-0.1l-0.1-0.2l0.1,0.4L431,716
			l-0.8,1.1l-0.6,0.2l0.2-0.5l-0.4-0.1l-1.7,2.7l-0.1-0.6l1.5-2.4l1.1-0.6l1.4-1.3l0.1-0.2l-0.3-0.2l-1.2-0.2l0.1-0.5l2.3,0.6
			l1.3-1.4l3.8-2.3l0.4-0.7l1.3-1.1l0.6,0.1l0.3,1.4l1.2,0.5l0.2-0.1v-0.3l0.5,0.2l0.1,0.4l0.5,0.2v0.3H443l-0.1,0.3l1.1,0.6
			l0.9-1.8l1.4,0.4l0.4-0.3l1.2-0.2l-0.1-0.4l-2.2-0.6l0.1-0.5l0.8-0.1l3.5,0.8h1.2l0.8-1.9l0.2-1.9l2.5,0.3l-1,0.2l-0.1,0.6
			l0.1,0.3l1.2,0.6l2.5-0.8l0.1-1.7h-0.2l-0.3-0.7l-0.2-0.1l-0.1-0.5l-1.1-0.4l-1.8-1.3l0.1-0.4l0.6-0.5v-0.8l-1.3-0.6l-1-0.2
			l-0.5-0.5h-0.3l0.3-1l0.7-0.2l0.7,0.6h0.4l0.8-2.7l0.7,1l0.5-0.7l0.4-0.2l1.1,0.1l0.9,0.5l1.2-1.3l1.5-1v-0.6l0.2-0.2l0.3-1.1
			l1.6-2.1l0.6-2.5l2.2-3.1l0.1-0.7l1.4-2.8l0.8-2.4h0.2l1-2l-0.1-0.2l-3.1-0.5l-0.4-0.2l-0.1-0.5l4-6.7l0.7-0.9h0.5l-0.3-1.1
			l1.8-5.1l0.6-0.5l3.4-0.1l0.3,0.3l0.5-0.3l-0.2-1l0.5-2.8l1.1-1.6l1.4-3.3l2.5-3.3l0.1-0.9l0.5-1.2l0.7-0.1l0.2-0.4h0.4l6-3.6
			l0.8,0.1l0.2,0.3l0.1,0.4l-0.2,0.2l-0.1,0.5l0.2,1.4l0.3,0.1l-0.2-1l0.1-2.2l0.9-0.6l-0.1-1.6l0.5-0.8v-0.5l0.8-1.6l0.6,0.2
			l0.4-0.2V637l1-2.2l0.5-0.4l-0.1-0.6l-1-0.6l-0.3-0.9l1.8-0.9l0.5-0.8l-1.2,1l-1-0.3l-0.6,0.1L494,632l-0.6,0.6l-0.8,0.1l-1-0.4
			l-0.2-0.5l0.3-1.3l1.3,0.1l1.5-1.9l0.1-0.5l-0.3-0.2l-0.2,1l-0.4,0.2l-0.5,0.8l-0.6,0.2h-1.7l-0.4,0.4l-0.2,0.7l0.5,0.2l-0.1,0.6
			l-4.6,0.3l-0.9-0.5l0.1-0.9l0.5-0.4l0.5-1l0.8-0.8l0.8-1.6l0.4-0.1l0.4-0.9l0.7-0.6v-0.6h0.4l0.1-0.4l1.6-2l2.5,0.2l0.1-0.6h0.2
			l0.2,0.4l0.4-0.2l-0.1-0.5l0.6-1.2l-0.1-0.8l1.5-2l-1.2-1.2l2.9-3.8h1.1l0.2-0.2l0.6,0.2l1.7,0.1l0.4-0.2l0.9,0.2l1.3-0.5l0.6,0.3
			l-0.1,0.9l-2,2.6l-0.6,0.5l-1.1,1.9l-1,1.2l-0.3,2.2l0.5,0.1l0.1-2.2h0.2l0.6-0.7l0.8-1.5l0.3-0.1l1-1.3l1.9-2.8l0.4-0.2v-0.6
			l0.5-0.3v-0.3l0.9-0.1l-0.1-0.7l0.6-0.3l-0.7-0.6l-0.4,0.1l-0.1-0.5l1.9-2.5h0.4l0.5-1l0.4-0.2l0.1-0.4h0.3l1-1l0.4-0.9l0.1-0.9
			l0.5-0.8l0.3-0.1l0.1,0.3l1.2,0.4l0.7,0.5l0.7-0.7l0.1-1.3h-0.2v-0.3l-0.6-0.1l-0.4-0.5l-0.7-0.6h-0.3l-0.8-0.9l-0.4,0.2l-0.4-0.3
			v-0.3h-0.6l-0.4-0.5l-0.4,0.1V598l-0.8,0.1l-0.2-0.4l-0.6,0.1l-0.1-0.3l-1.9-0.6l-0.1-0.3l0.4-0.1l1.8,0.6l1-3.4l0.6-0.9l0.9-2.7
			l0.4-0.1l0.1,0.3l0.7-0.1l0.2-1.1l0.1,0.1l1-2.3l0.3-1.3l-0.1-0.3l-0.6-0.2l-0.1-0.2h0.5l0.3-0.5l1.2-3.2l0.3-0.1l0.1,0.3l0.6-0.1
			l0.3,0.3l0.4-0.1l2-4.4h0.3l0.2,0.4l0.4-0.1l0.2,0.9l-0.8,0.8v0.6l-0.4,0.9v1.6l-0.5,0.8l-0.4,1.2l-0.6,0.7l-0.9,2.2l-0.4,0.1V587
			l-0.7-0.2l-0.3-0.4h-0.9l-0.1,0.9l-0.3,0.2l-0.4,1.5l-0.3,0.2l-0.4,1.9l-1.3,3.4l0.8,0.4l0.6-0.2v-1l0.6-0.3l0.4-1.7l0.9-1.9
			l1.2,0.4l0.6,1v0.5l0.4,0.2l0.2,0.6h0.4l0.5-1.6l-0.6-0.5l-0.4-1.4l0.4-0.6l0.2-1l0.4-0.8l-0.1-0.3l1.2-2.5l0.1-0.8l0.3-0.2
			l-0.1-0.5l0.3-0.1l0.4-1v-0.7l0.4-0.3l0.3-1.3l1.4,0.5l0.4,0.8v0.3l-0.5,0.3l-0.7,1l0.2,1.2l-0.5,0.7l0.2,0.3h0.3l1.3-1.7l-0.2-1
			l0.6-1.2l-0.1-1l-0.8-1l0.4-0.5l1.2-0.7h0.6v0.5l0.2,0.1l1.2-0.2l0.4-0.8v-0.6h-0.4l-0.5,0.5l-1.2,0.1l-0.3,0.2l-0.6-0.2l-0.6,0.4
			l-1.7-0.2l-0.5-0.4l0.1-0.9l1.4,0.1l0.8-0.3l-0.1-0.2l-0.8,0.2l-0.4-0.3h-0.6v-0.2l0.5-1.1l0.2-0.1l1.2-2.8l0.6-1l0.9,0.4l0.4,0.6
			l0.6-0.2l0.3-0.6l1.6,1l1.1,0.3l0.1,1.4l0.2-0.1l0.1-1.7l0.3-0.4l0.4-0.1l0.2-0.8l-0.1-1.2l0.5-1.3l-0.3-1.1l0.4-0.7l-0.5-0.3
			l-0.2-0.6l0.3-0.5l0.1-1.1l0.6-0.7l0.3,0.5l0.6-0.3l0.6-1.1l0.4-0.2l0.1-1.3l1-0.8l0.8-1.2l1-0.5l1-1l0.5-1.3l0.8-1V553l-0.4-0.2
			l0.1-0.5l-0.2-0.4l0.6-0.2l0.7-1.1l0.3-0.9l-0.2-0.2l0.4-1l1.2-1.8l-0.1-1.1l0.6-1.1l-0.3-0.5l0.1-0.5l0.4,0.2l0.5-0.2l-0.1-0.6
			h-0.5l0.1-0.5l1-1.3l0.8-0.2l-0.1-0.3l0.4-0.6l0.9-0.9h0.3l0.3-0.5l0.5-0.2l0.2-0.7l1-1.6h1l0.1-0.5l0.8-1.4l0.1-0.7l0.5-0.6v-0.6
			l0.7-0.3l0.9-1l1.3-0.2l0.3-0.8h0.7l0.7-1l0.9-0.4v-0.3l0.5-0.2l0.4-0.7l0.1-1.2l0.4,0.1l0.2-0.5l0.5-0.1l-0.1,0.8l0.9-0.1v-0.6
			l0.4-0.5l0.1-0.7l-0.5-0.2l-0.7,0.9v-0.5l0.4-0.5l-0.1-0.3l0.4-0.2l0.4,0.2l0.5-0.7l1.2-1l0.3-0.9l0.4-0.4l-0.2-0.9l0.1-0.3
			l0.9-0.1l0.1-0.2V519l-0.6-0.9l1.2-1.3l0.3,0.1v-1.6l0.6-0.3l0.4-1.3l0.7-0.7l-0.1-0.5l0.5-0.5v-0.6l1.2-1.8l0.4-0.2l0.4-1.5
			l1.2-2.9l-0.2-0.6l0.4-0.4l0.5-1.2l0.3-1.5l1.4-3.2l0.2-0.3l0.2,0.1v-0.5l0.5-0.8l1.1-3l0.2-2.2l0.6-1.2l0.9-2.5l2-2.9l0.8-0.7
			l1.6-0.1l0.5-0.7l0.3-0.1h0.6l0.4,0.4l1,0.4l0.4,0.5h0.4l0.4-0.3l0.2-0.5h0.4l0.8-0.6l0.3,0.1l0.4-0.4l0.2,0.2l0.4-0.1l1.2,0.5
			l1,0.7v0.2l0.8,0.4l1.5-0.1l0.4-0.2l0.1-0.3h1l0.2-0.3l-1.9,0.1l0.1-0.2l-0.4-0.1l-0.8-0.7l-2-2.3l-0.4-0.2l-0.7,0.1l-0.3-0.3
			l-0.9,0.7l-0.1-0.4l0.4-1l1.4-2.1l0.1-2.1l1.8-2.1l0.8-0.6l-0.4-0.5l0.1-0.3h0.7l0.1-0.3l0.6-0.2l1.7-2.5l3.7-0.3l2.5-0.5l0.7-0.4
			l1,0.2l0.6-0.5l2.2,0.2l0.5-0.2h1.7l-0.1-1.1l0.1-1.3l1.9-1.4l2.2-2.3l1.8-1.4l0.5-0.5l0.2-1.4l1,0.2l-0.1-1l0.3-0.2l0.4-0.9
			l0.3-1.4l-0.1-0.7l0.6-1.4l0.1-0.8l0.4-0.7l0.7-0.3l0.9-1.1l1.9-1.6l1.3-0.7l0.4-0.5l0.7,0.1l1.7-0.7l2-1.6l0.7-1.8l-0.1-3.1
			l0.3-0.2l1.3,0.1l0.6-1.3l0.1-2.5l0.3-0.2v-0.7l-0.4-0.7l0.2-0.1v-1l0.4-0.6l-0.1-0.6l0.2-0.1l-0.2-0.3l0.1-2.6l-0.4-1l0.6-0.1
			l-0.4-0.5l0.2-0.4l-0.3-0.2l-1.7,0.4l-0.3-0.7l-0.5-0.5l-0.2-0.8l0.5-1.5l0.9-1.2l0.1-0.8l0.6-1.2l1.5-1.7l-0.1-0.5l0.2-1.2
			l-0.3-0.2V416l0.4-0.3l0.6,0.7h0.3l0.3-0.8l-0.2-0.4l0.4,0.1l0.1-0.4l-0.4-0.2l-0.5,0.2v-0.4l0.4-0.4l1.2,0.2l0.5,0.3v0.4l0.4,0.4
			l0.1,0.9l0.2,0.2l0.7-0.1l-0.2-1.2l0.4-0.2l0.4,0.7l0.1,1l1.7,0.7l1,0.7l0.2-0.1l-0.1-0.3l-1.9-1l-0.7-0.8l0.2-1.1l-0.7-0.4
			l-0.2-0.6l0.1-0.3l0.8,0.4l0.4-0.1l0.1-0.9l0.7-0.4l0.8-0.2l1.6,0.2l0.1-0.2l-1.8-0.5l-2.3,0.5l0.1-0.3l-0.4-0.2l0.3-0.2l0.5-1.3
			l0.8-0.7l0.7-1.5l0.3-0.2l0.4-1.4l0.6-0.8v-0.5l0.4-0.6l-0.1-0.4l0.3-0.2l0.4-1.4l1.1-1l0.1-0.4l0.6-0.5l1.2-2.1l0.4-0.1l-0.4-1.1
			l-0.3-0.2l0.6-2.5l0.7-0.7l0.9-1.7l1-0.8l1-1.8l1.2-0.5l-0.1-0.7l0.3-0.4l-0.2-0.9l0.6-0.9l2.1-1.1l1-1.2l1.2-2.3l1.5-1.2l0.7-1
			l0.7-2.2l0.1-2.1l-0.4-1l1.2-1.2V373l1-2.6l1-0.9l1.7-2.3l0.6-0.5l-0.4-0.1l-0.9,1v-0.3l1-1.7l1.5-1.2V364l1.1-0.9l1.3-1.9
			l1.2-0.4l0.6-0.6l1.3-0.6l1.9-0.2l1.3-0.6l0.4-0.6l1.5-0.6l0.4-0.6l0.7-0.2l0.2-0.6l1.7-1l0.3-0.6l0.7-0.2l0.3-0.5l1.5-1l1.7-0.2
			l1.7-1l0.8,0.2l0.4-0.5l1.7-0.1l0.3-0.4l1.8-0.2l0.1-0.2l1.1-0.4l0.6,0.1l0.4-0.4l1.7-0.2l0.4,0.2l0.6-0.5l2-0.6l1.3-0.9l1-0.3
			l0.7,0.1l1.6-1.8l0.9-0.2l0.7-0.5l0.9,0.1l2-1.7l2.3-1.3l0.2-0.4h0.6l0.3-0.5l0.5-0.1l0.4-0.4l2.5-0.7l1-0.1l0.1,0.2l0.4-0.3
			l0.6,0.1l0.7-1h0.5l0.2,0.4l0.4-0.1l0.3,0.3l0.7-0.1l0.6-0.8V338l-1-0.1v-0.3l0.4-0.4l2.2,0.3l0.1-0.6l0.8,0.2l1.7-0.6l1.6,0.4
			l0.3,0.4l-0.1,0.5l0.7,0.2l0.5-0.2l1,0.3l0.7-0.2l0.6,0.2l2.5-0.1l0.9-0.4l0.9-0.8l0.2,0.1l0.5-0.7l0.7,0.1l0.7,0.5l0.1-1.1
			l1.5-0.1l0.3,1.2h2l0.3,0.2l1-0.7l0.9-0.2l1.1,0.1l0.7-0.4l1.4-0.2l0.4-0.3l2.3-0.6l0.4-0.6l0.9,0.1l0.7-0.8l0.3,0.3l1.2-0.7
			l0.4,0.1l1.1-0.8l0.4,0.1l0.4-0.3l0.1-0.6l1.5-0.3l2.1-1l0.4,0.1l0.3-0.4l0.3,0.1l-0.4-1.6l-1-1l0.1-0.1l0.6,0.7l0.6,0.3l0.4-0.6
			l1-0.5l0.1-1l0.4-0.2l0.2-0.5l-1.5-1.4l-0.2-0.6l3,2.8l1-0.6l0.3-0.5l1.2-1.2l0.4-0.1l0.1-0.3l0.5-0.2l1,0.2l0.2-2.1l-0.2-0.1
			l-0.6-1.2l-1.8-0.5l-1.4-0.1l-0.2-0.3l0.8-1l0.6,0.1l1.5-0.4v-0.2l0.8-0.6v-0.4l-1-0.6l1-2l0.5-0.3l0.6,0.1l0.2-0.5l0.4-0.2
			l0.4-0.6l0.4-0.1l0.4-0.9l1.1-1.5l1-0.2l0.7-0.9l0.2-1l-0.3-0.6l0.1-0.6l0.2-0.4h0.6l0.4-0.3v-0.3h0.2l0.1-0.4l-0.4-0.4l-0.1-0.5
			l1.2-1.7l0.1-0.5l-0.1-0.4l0.4-1l0.6-0.9l1-0.3l0.8,1l1.3-0.1l0.3-0.4l0.7-0.2l1.3-1l0.4-1l0.2-0.1v-0.6l0.7-0.5l0.1-0.5H773
			l0.1-0.8l0.6-0.6l0.4-0.1l0.2-0.5h0.8l0.1-0.3l0.7-0.4l0.4,0.1l1-0.5l0.4-0.5l0.7-0.1l0.3-0.4l0.8,0.2l0.5-0.6l0.7-0.1V291
			l0.7-0.2l0.1-0.4l-0.2-0.1v-0.9l-0.3-0.7l0.2-0.5l0.6-0.2l0.4,0.4l0.1,1.2l0.7,0.2l0.4,0.4l0.9-0.2l0.2-0.7l0.8,0.1l0.4,0.5h0.2
			l0.1-0.5l0.8-0.2l0.1-0.5l0.2,0.2l0.4-0.2l0.5-1.1l-0.4-0.2l-0.1-0.8l0.9-1.3h0.2L788.8,285.6z M773.5,348.9l-3.8,3.5l-5.1,11.5
			l0,0l-7,11.5l0.4,13.9l0,0l10.2,2.6l17.5-6.1l13.4-12l7.8-10.4l-3.1-11.6l-7.2-13.2l-11.2-4.3l-14.2,6.9L773.5,348.9L773.5,348.9z
			"/>
		<path id="TW-KH" class="st2" d="M468.3,1041.7L468.3,1041.7l-4-16.8l0,0l-7.7-9.1l-8.1-2.9l1.7,3.3l-0.1,0.2l0.2,0.7l1.1,2.1
			l0.2,0.9l0.3,0.4l0.4-0.2l0.1-0.5l0.4,0.3l-0.1,0.3l-0.5,0.1l-0.1,0.5l1,1.8l-0.2,0.7l1,1.7l0.6,2l0.1,1l-0.6,0.2l-0.1,0.3
			l1.1-0.4l0.4,0.1v-0.3l-0.6-0.3v-0.5l0.4-1.2l0.6-0.5l-0.1-0.4l-0.5,0.1l0.2-0.3l1-0.2l1.3,0.8v1.3l-0.3,0.3h-0.6v1l0.6-0.2
			l0.3,0.2l-0.1,0.2h-0.8l0.4,0.6l0.1,1.2l-0.4,0.5l0.2,1l-0.4,0.3v0.6l-0.6,0.2l-0.2-0.2l-0.4-2.4l-1.1,0.1v0.4l0.5,0.1l0.1,1.6
			l0.4,0.8l-0.3,0.2v1.5l-1.4,1.2l-0.7,0.1l-1.5,1.8l0.1,0.8l-0.3,0.7l0.1,0.6l-0.2,1.2l0.6,2.1l0.4,0.4l0.6,1.6l1.4,1.2l0.7,1.6
			l-0.5,1l0.9,0.3l0.1,1l0.2,0.2l0.9-0.3l0.6,0.2l1.2-0.4l3.1,1.4l0.1-1l0.5-0.3l0.2,0.2v0.5l-0.5,0.8l1.2,0.4l-0.1,0.5l0.5,0.4
			l0.6,2l4.8-2.7L468.3,1041.7L468.3,1041.7z"/>
		<circle class="st3" cx="768.2" cy="368.7" r="23.2"/>
	</g>
</g>
</svg>
