<?xml version="1.0" encoding="utf-8"?>
<!-- Generator: Adobe Illustrator 25.2.1, SVG Export Plug-In . SVG Version: 6.00 Build 0)  -->
<svg version="1.1" id="Layer_1" xmlns="http://www.w3.org/2000/svg" xmlns:xlink="http://www.w3.org/1999/xlink" x="0px" y="0px"
	 viewBox="0 0 1237 1160" style="enable-background:new 0 0 1237 1160;" xml:space="preserve">
<style type="text/css">
	.st0{opacity:0.7;fill:#010307;stroke:#FFFFFF;stroke-width:3;stroke-miterlimit:10;}
	.st1{fill:none;stroke:#FFFFFF;stroke-width:10;stroke-miterlimit:10;}
	.st2{fill:#006694;stroke:#FFFFFF;stroke-width:0.25;stroke-miterlimit:10;}
	.st3{fill:#FF0000;}
</style>
<g id="Layer_2_1_">
	<g id="Layer_1-2">
		<image style="overflow:visible;enable-background:new    ;" width="1237" height="1160" xlink:href="30C4A774023956EF.png" >
		</image>
		<rect x="95" y="95.9" class="st0" width="1046" height="969"/>
		<polyline class="st1" points="95,272.9 95,95.9 272,95.9 		"/>
		<polyline class="st1" points="964,95.9 1141,95.9 1141,272.9 		"/>
		<polyline class="st1" points="1141,887.9 1141,1064.9 964,1064.9 		"/>
		<polyline class="st1" points="272,1064.9 95,1064.9 95,887.9 		"/>
		<path class="st2" d="M806.5,586.7c-1.2,1.3-2.8,0.5-4.2,1.1c-0.7,0.2-0.9,0.9-1.5,1.1s-1.4,0-2.1,0.2c-1.7,0.5-1.5,1.2-1.7,3
			c-0.2,1.5-0.6,3-1,4.5c-2.1,0.8-3,1.1-3.2,3.6c0,0.8,0.2,2.1-0.2,2.8c-1,1.7-1,0.3-2.2,0.4c-0.9,0.1-1.3,0.9-2.1,0.8
			s-1.9-1.3-2.5-1.8c-0.8-0.6-0.9-1.3-2.1-1.1c-0.9,0.2-1.6,1-1.7,2c0.2,0,0.5,0,0.7,0.1c0.3,2.2-1.3,4.2-3.5,4.5
			c-0.3,0-0.5,0-0.8,0c-1.3-0.2-1.8-0.8-3.2-0.2c-0.7,0.3-0.5,0.8-1.5,0.9c-0.7,0.1-1.2-0.3-1.9-0.4c-2.2-0.6-4.5-0.8-6.8-0.3
			c-2.3,0.4-4.2,0.2-4.8,2.9c-0.1,0.4-0.1,0.7-0.1,1.1c-0.7-1.3-0.9-2.9-0.5-4.3c0.3-1.1,1-2,0.8-3c-0.2-1.2-1-1.1-0.7-2.5
			c0.2-0.9,1.3-1.8,1.7-2.7s0.5-1.8,0.9-2.8c1.1-1.7,1.6-3.7,1.7-5.7c1.2-0.1,0.6-0.7,0.8-1.4c0-0.1,0.2-1.8,0.2-1.8
			c-0.5-1.2-1.8-1.5-2.3-2.8c-0.6-1.8,0.3-2,0.7-3.6c0.9-3.5-0.2-8.4-0.6-12c-1.1-12.2-2.8-29.4-4-42.4c0.4,1.2,1,2.4,1.8,3.4
			c2.3,2.8,6.3,1.5,8.9-0.2c0.7-0.5,1.4-1,2-1.5c0.3-0.3,0.6-0.6,0.9-0.9c7.2-0.6,23.2-2.1,27.2-2.7l0.1,1.5c0,0-0.2,0,0.2,0l7.9,55
			c-0.6,0.2-1.2,0.7-1.5,1.3C806,584.5,808,585,806.5,586.7z"/>
		<path class="st2" d="M918,668c-1.4,1.2-2.5,2.6-3.4,4.3c-0.8,1.8-1.5,3.5-2.3,5.2s-1.5,5.1-3.6,6c-0.2-0.6-0.5-1.1-0.8-1.7
			c-2.1,1-0.3,4.1,0,5.6c-2.1,0.1-3.4-0.6-4,2c-0.5,1.7-0.8,3.6-2.9,4.4c-0.5-0.7-1.2-1.6-2.3-1.3c-1.5,0.4-0.6,1-0.6,2.1
			c0,1.5-2,3-3.8,3c-0.1-0.4-0.2-0.8-0.2-1.2c-0.3,0.9-0.5,2.3-1.2,2.9s-2.2,0-2.7,1.1s1.6,1.8,0.8,2.9s-2.5-0.2-2.7-1.2
			c-1.4,1,1.3,2.6,0.9,3.9c-0.9,0.3-0.5,1.4-0.7,2.1c-0.2,0.7-0.6,1.4-1.2,2c-0.6-0.6-1.2-1.1-1.8-1.6c-0.4-0.1-0.7-0.4-0.9-0.8
			c-0.7-0.8-1.6-1.4-2.6-1.7c-1.1-0.4-0.8-1.1-0.9-2.1c0-0.5-0.2-0.9-0.4-1.3c-0.4-0.4-0.9-0.6-1.3-0.9c-0.1-0.5-0.4-0.9-0.8-1.3
			c-0.2-0.6-0.8-0.6-1.1-0.9c-0.6-0.6-0.6-1.5-0.9-2.2c-0.2-0.4-0.6-0.8-0.6-1.1c-0.2-0.6-0.2-1.1-0.4-1.5c-0.4-0.8-0.8-2.1-1.3-2.4
			c-0.9-0.5-1.8-1-2.6-1.7c-0.7-0.6-1.4-1.1-2.2-1.5c-2.8-1.1-3.4-3.1-5.6-4.7c-1.2-0.9-2.3-1.8-3.6-2.6c-1.1-0.7-1.8-1.9-2.9-2.6
			c-2.2-1.4-2.3-0.9-3.1-3.4c-0.6-1.9-2.2-2.4-3.1-4.1c-0.4-1-1.1-1.8-1.9-2.4c-0.6-0.2-0.8,0.2-1.3-0.4c-0.3-0.5-0.7-1-1.1-1.3
			c-0.9-0.4-1.7,0-2.6-0.2c-1.5-0.4-1.9-2.2-2.2-3.4c-0.3-0.8-0.2-1.8,0.4-2.4c0.2-0.6,0.2-0.9,0.4-1.7c0.3-0.9,0.8-1.7,1.4-2.3
			c0.3-0.3,0.6-0.6,0.9-0.8c0.7-0.6,1.5-0.9,2.4-1.1c0.4,0,0.9,0,1.3-0.2c0.4,0,0.8-0.4,1.1-0.6c0.9-0.4,1.7,0.2,2.6-0.4
			c0.8-0.4,1.3-1.3,2.2-1.5c0.9-0.2,1.7-0.2,2.6-0.2c0.9,0,1.8-0.3,2.4-0.9l14.2-0.9c0.4,0.8,0.2,1.9,0.9,2.1c0.6,0,1.1-0.2,1.7-0.2
			l3,3.9l17.2-2.8v-0.4L918,668z"/>
		<polygon class="st2" points="758.8,758.2 758.8,758.3 758.6,758.4 758.6,758.2 		"/>
		<path class="st2" d="M748.6,774.8c-0.5,0.9-1.6,1.2-1.2,2.5c1.1,0.8,2.2,1.7,3.2,2.7c0.7,0.6,2.6,2.5,0.3,2.1c-1.3-0.2-2-2.3-3-3
			c-1.4-0.9-2.4,0.4-4,0.5c-0.2-0.8,0.8-3.5-1-3.2c-1.2,0.2-1.5,2.9-1.7,3.9c0,0.7-0.2,1.4-0.5,2c-0.6,0.8-1.1,0.3-1.8,0.8
			s-1.5,3.2-2.5,1.4c-0.3-0.5,0.5-1.1,0-1.5c-0.3-0.2-2,0.5-2.4,0.5c-1,0.1-2.9-0.8-3.8-0.2c-1.5,1-0.4,2.7-2.9,1.6
			c-1.1-0.6-2.3-1-3.5-1.2c-1.5,0-3-0.4-4.3-1c-2.3-1.3-0.3-1.9,1.1-3.2c-1.6-1.5-4.2-1.8-6.6-2c-0.1-0.5,0-1,0.1-1.4
			c-1.8-0.8-3.3,0.8-5,0.3c-0.9-0.3-0.9-1-2-0.9c-0.7,0.1-1.3,0.8-1.9,1c-1.3,0.4-1.5,0-2.8-0.5s-1.8-0.2-3.1,0
			c-1.8,0.2-3.7,0.1-5.5-0.2c-0.9-0.1-1.8-0.3-2.7-0.7c-0.8-0.3-1.3-1.2-2-1.6c-1.3-0.6-4.2,0.6-5.7,0.9c-2.4,0.4-4.6,0.6-6.8,1
			l0.2-0.2c0.2-0.2,0.4-0.5,0.6-0.8s0.2-0.3,0.2-0.4l0.4-0.4c0.3-0.6,0.4-1.3,0.3-1.9c0-0.3,0-0.6,0-0.9c0.1-0.4,0.4-0.6,0.6-0.9
			c0.3-0.6,0.5-1.3,0.4-2c-0.1-0.8-0.8-1.3-1.1-1.9c-0.4-0.6-0.6-1.2-0.7-1.9c0.1-0.7,0.9-1.1,1.2-1.8c0.1-0.7,0-1.4-0.3-2
			c-0.2-0.7-0.1-1.5,0.2-2.2c0.1-0.4,0.3-0.8,0.4-1.1c0.2-0.3,0.4-0.7,0.6-1.1c0.1-0.7,0.2-1.4,0.2-2.1c0.1-0.4,0.4-0.5,0.6-0.8
			c0.2-0.3,0.2-0.7,0.1-1.1c-0.2-0.7-0.4-1.4-0.8-2c-0.2-0.3-0.3-0.7-0.4-1c0-0.4,0-0.7,0.1-1.1c0.3-1,0.4-2.1,0.3-3.2
			c-0.2-0.7-0.5-1.4-0.9-1.9c-0.4-0.6-0.9-1.1-1.3-1.7c-0.2-0.3-0.4-0.7-0.6-1c-0.2-0.3-0.4-0.5-0.6-0.8c-0.3-0.5-0.5-1.1-0.6-1.6
			c-0.1-0.5,0-1.2-0.3-1.6c-0.6-0.7-1-0.9-1.1-1.9c-0.1-0.9-0.3-0.8-0.9-1.4c-0.8-0.8-1.4-1.9-1.5-3l-0.6-18l47.1-1.9
			c0.1,0.5,0.3,0.9,0.5,1.3c0.5,0.4,1.5-0.6,1.6,0.5c0.1,0.6-1.2,1.4-1.4,1.9c-0.2,1.3-0.1,2.7,0.3,3.9c0.8,1.3,2-0.3,2.9,0.3
			s-0.5,2.4-0.7,2.9c-0.2,0.5-0.4,1-0.4,1.5c0.1,0.7,0.5,0.6,0.7,1.1c0.3,0.9,0,1.8-0.6,2.5c-0.3,0.4-0.8,0.6-1,1
			c-0.3,0.7,0,0.9,0,1.5c0,1.3-0.5,1-1.5,1.6s-0.6,1.7-1.3,2.3s-1.7,0.2-1.8,1.4c0,0.3,0,0.7,0,1c1.3-0.2,1.1,0.5,0.5,1
			s-2,0.9-1.9,2c0.1,0.9,1.4,0.6,0.7,1.5s-1.9,0.5-1.2,2c0.4,0.9,1.3,0.9,0.2,1.9c-1.3,1.3-2,1.2-1.5,3c0.3,1.3,0.5,2.7,0.5,4
			c1.1,0.1,2.2,0,3.2-0.2l11-0.7l8.6-0.6c1.8-0.1,4.4-0.8,6.1-0.4c1.9,0.4,0.5,2.7-0.1,4c-0.5,0.8-0.6,1.7-0.5,2.7
			c0.2,0.7,0.8,1.1,1.1,1.8s0.2,1.1,1,1.7c0.6,0.5,1.4,0.8,2,1.3c0.8,0.7,1.2,1.7,1.4,2.7c0,0.4-0.1,1.2,0.1,1.5s1,0.4,1.4,0.5
			c0.8,0.4,1.5,0.9,2.1,1.6c-0.2,0.7-0.6,1.3-1.1,1.8c0.8,1,2.8,0.6,3.4,1.5c0.9,1.2-1.3,2.3-2.1,3
			C749.4,772.7,749.3,773.6,748.6,774.8z"/>
		<path class="st2" d="M531.5,389.6l-4.2,60.3l-1.3,18.8l-96.9-9.9l-1.1,7.1c-0.9-0.2-4-0.8-4.9-0.9c-1.6-0.3-3.2-0.1-4.7,0.5
			c-3,1.1-5.8-0.1-8.8,0.1c-3.3,0.3-4.7,0.2-7.4-2c-1.3-1-1.8-2.4-2.7-3.6s-1.8-1.5-3-2.3c-2.1-1.3-1.2-3.2-0.9-5.1
			c0.3-1.8,0-3.7-0.7-5.4c-0.4-1.3-0.6-2.6-0.6-3.9c-0.2-3.1-1.6-5.8-4.5-3.2c-1.4,1.2-1.5,1.6-3.1,0.6c-1.1-0.8-2.1-1.7-3-2.8
			c-1.9-1.8-2-4.8-0.2-6.7c0.2-0.2,0.4-0.4,0.6-0.5c1-0.8,2.2-1.2,2.8-2.4c0.7-1.4,0.1-2.7,0.2-4.3c0.1-1.3,1.1-2.4,0.9-3.8
			c-0.3-2.6-5.2-2.3-7-3.7c-2-1.7-3.5-3.9-4.4-6.4c-1.1-2.7-2.5-4.9-2.3-7.9c0.1-1.8,0.9-1.8,1.7-3.1c1.1-1.6,0.3-1.7-0.2-3.2
			c-0.2-0.6,0.1-1.6-0.2-2.2s-1.1-0.9-1.3-1.2c-0.9-1.7,0.5-5.2,0.9-7.1c0.4-2.2,0.9-4.4,1.3-6.7c0.6-3,1.1-6,1.7-9
			C428.8,379.3,480.1,385.9,531.5,389.6z"/>
		<path class="st2" d="M900.2,556.4c-1,0.8-1.1,2.3-1.1,3.6v0.3c0,0.3,0,0.7,0,1v0.5c0,0.2,0,0.3-0.1,0.5c-0.1,0.4-0.2,0.8-0.3,1.2
			l0,0c-0.1,0.2-0.1,0.3-0.2,0.5l0,0c-0.1,0.1-0.1,0.2-0.2,0.3l-0.1,0.3c0,0,0,0.1,0,0.1c0,0.2-0.1,0.4-0.2,0.6l-0.1,0.2v0.1
			l-0.1,0.2l-0.2,0.2c-0.4,0.5-0.8,1-1.2,1.5c-0.3,0.6-0.5,1.1-0.6,1.8l0,0c0,0.2,0,0.4,0,0.7c0,0.1,0,0.2,0,0.2v0.1
			c0,0.1,0,0.2-0.1,0.3c0,0.1-0.1,0.3-0.1,0.4c-0.1,0.3-0.4,0.5-0.7,0.5l-0.2,0h-0.2h-0.2l-0.2,0.1l0,0l-0.1,0
			c-0.1,0-0.2,0.1-0.2,0.2c0,0-0.1,0.1-0.1,0.1c-0.1,0.1-0.2,0.2-0.2,0.4c-0.1,0.1-0.1,0.2-0.2,0.4l0,0c-0.1,0.1-0.1,0.3-0.2,0.4
			s-0.1,0.3-0.2,0.4s-0.1,0.3-0.2,0.4l0,0c0,0.1-0.1,0.3-0.1,0.4c-0.1,0.3-0.2,0.6-0.3,0.8c-0.3,0.6-0.6,1.2-1,1.8l-0.3,0.4
			l-0.1,0.2c-0.2,0.3-0.4,0.6-0.6,0.9l-0.3,0.4c-0.2,0.4-0.4,0.7-0.7,1l-0.1,0.1l0,0c0,0-0.1,0.1-0.1,0.1c-0.1,0.1-0.1,0.2-0.2,0.2
			h0l-0.1,0.1l0,0h-0.6v-0.1c-0.4,0.1-0.8-0.4-1.1-0.5h-0.4h-0.2l-0.3,0c-0.2,0-0.5,0.1-0.7,0.2l-0.4,0.1l0,0H885
			c-0.1,0-0.1,0.1-0.2,0.1h-0.1l-0.1,0.1c-0.1,0.1-0.2,0.1-0.3,0.2l-0.1,0.1l-0.1,0.1c-0.5,0.5-0.8,1.1-1,1.7
			c-0.1,0.2-0.1,0.4-0.2,0.7c-0.2,0.7-0.3,1.4-0.4,2c-0.1,0.2-0.1,0.5-0.2,0.8v0.2c0,0.1,0,0.1-0.1,0.2c0,0.1,0,0.1-0.1,0.2
			c-0.1,0.4-0.5,0.6-0.8,1.1l0,0v0.1c0,0,0,0.1,0,0.1c0,0,0,0.1,0,0.2c-0.1,0.5,0,1,0,1.4c0,0.1,0,0.2,0,0.3c0,0.1-0.1,0.2-0.1,0.3
			l-0.2,0.3l-0.2,0.3c-0.1,0.1-0.2,0.2-0.3,0.3l-0.1,0.1h-0.1l0,0l-0.2,0.1l0,0c-0.2,0.1-0.4,0.1-0.6,0.2h-0.1l-0.3,0.1h-0.1h-0.1
			c-0.2,0.2-0.4,0.4-0.5,0.7c0,0.1-0.1,0.2-0.1,0.3c0,0.1,0,0.2,0,0.3h-0.1c0,0.2-0.1,0.3-0.1,0.5c-0.3,1.1-0.6,2.2-1,3.3l-0.2,0.7
			l0,0c-0.1,0.2-0.2,0.4-0.3,0.7l-0.1,0.3c-0.5,1-0.9,2-1.4,2.9c-0.1,0.2-0.3,0.4-0.4,0.7l-0.1,0.2c0,0.1-0.1,0.2-0.1,0.2l-0.1,0.1
			c-0.1,0.1-0.1,0.2-0.2,0.2l-0.1,0.1l-0.2,0.2l-0.1,0.1c-0.2,0.1-0.4,0.2-0.7,0.2c-0.3,0.5-0.7,1-1.1,1.4l-0.2,0.2l-0.1,0.1
			c-0.1,0.1-0.1,0.2-0.2,0.2l-0.1,0.1l-0.4,0.3c-0.1,0.1-0.3,0.2-0.4,0.3l0,0c-0.1,0.1-0.3,0.2-0.4,0.2l-0.4,0.2l0,0l-0.3,0.1
			l-0.2,0.1h-0.1h-0.1c-0.2,0.1-0.4,0.2-0.7,0.3c-0.2,0.1-0.3,0.1-0.5,0.2c-0.4,0.3-0.7,0.6-1.1,0.8c-0.1,0.1-0.3,0.2-0.4,0.3l0,0
			l-0.2,0.2l-0.2,0.2l0,0c-0.1,0.1-0.3,0.2-0.5,0.3l0,0c-0.4,0.2-0.8,0.4-1.2,0.7c-0.8,0.4-1.4,1-2.1,1.4c-0.5,0.2-1.1,0.2-1.6,0.1
			c-0.6,0.1-1.3,0.2-1.9,0.4c-0.6,0.1-1.2,0.1-1.9,0.3c-0.3,0.1-0.5,0.1-0.8,0.3l0,0l-0.3,0.2l0,0c-0.2,0.1-0.4,0.2-0.7,0.3
			c-0.6,0.2-1.2,0.1-1.8-0.2c-0.2-0.2-0.4-0.5-0.4-0.9c0-0.1,0-0.2,0-0.3c0-0.1,0-0.1,0-0.2c0-0.1-0.1-0.2-0.2-0.3
			c-0.6-0.6-1-1.3-1.3-2l0,0l-0.1-0.2l-0.1-0.2l0,0c0-0.1-0.1-0.1-0.1-0.2c-0.2-0.3-0.5-0.4-0.9-0.5c-0.4,0-0.7,0.1-1,0.3l0,0
			c-0.3-1.3-1-2.5-1.8-3.5c-1.7-2.1-3.1-3.5-4.3-5.9s-3-4.8-3.4-7.3c0-0.2-0.1-0.5-0.1-0.7s0-0.2-0.1-0.3v-0.1l-0.1-0.2l-0.1-0.3
			l-0.1-0.2l0,0L839,589c0-0.1-0.1-0.2-0.1-0.2c0.9-0.2,2.9,0.1,3.5-0.4c0.8-0.6,0.4-1.7,1.1-2.2c0.6-0.2,0.8,0,1.3-0.6
			c0.2-0.2,0.6-0.6,0.6-0.9c0.2-0.9-0.9-1.7-1.1-2.4c-0.4-1.1,0-1.5,0.4-2.4c0.6-1.1,0.2-3,1.1-3.8c0.9-0.9,1.3,0.2,2.1,0.6
			c0.6,0.1,1.3,0.1,1.9-0.2c0.6-0.6,0.4-0.9,0.4-1.5c-0.1-0.9-0.1-1.9,0.2-2.8c0.6-0.8,1.4-1.4,2.2-1.9c0.8-0.9,2.3-1.1,3.2-1.9
			c0.5-0.4,0.9-0.8,1.3-1.3c0.2-0.6,0.9-1.1,1.1-1.7s0.2-1.5,0.8-1.9c0-0.4,0.2-0.4,0.4-0.8c0.4-0.7,1-1.3,1.7-1.7
			c0.5-0.2,1-0.6,1.5-0.9c0.2-0.5,0.2-1.1,0.2-1.7c0-1.1-0.6-2.1-0.6-3.2c-0.1-1.2,0.1-2.4,0.4-3.6c0.4-1,0.8-2.1,1.1-3.2
			c0.4-1.5,0.3-3-0.4-4.4c-0.2-0.3-0.3-0.7-0.5-1c0.4-0.6,0.2-1.5,0.4-2.1c0.4-0.6,1.3-0.8,1.5-1.3c0.2,0.1,0.3,0.1,0.5,0l3.1,18.2
			l13.8-2.5c0.1,0.5,0.1,1,0.2,1.6c0.1,1,0.2,2.2,0.3,3.3s0.2,2.3,0.4,3.5c0.2,0.9,0.3,1.7,0.4,2.6c0.2-0.1,0.7-0.2,0.7-0.5
			c0.5-0.4,1-0.9,1.3-1.5c0.3-0.7,0.2-1.5,0.5-2.1c0.9-1.5,2.5,0,3.3-1.5c0.4-0.7,0.4-1.3,1-2c0.6-0.5,1.2-0.9,1.9-1.3
			c1.3-0.9,2.9-1.4,4.5-1.3h0.2h0.2h0.3h0.2l0.8,0.1l0.5,0h0.2h0.3h0.3h0.3c0.1,0,0.2,0,0.3,0C900,556.4,900.1,556.4,900.2,556.4z"
			/>
		<path class="st2" d="M958.6,534.9c0.3,1.4,0.4,2.9,0.4,4.4c-0.1,1.3-0.5,2.6-1.3,3.7c-0.8,1.5-0.8,3.1-0.9,4.7
			c-0.1,1.4-0.6,2.7-1.4,3.8c-0.8,1-1.3,2.2-1.5,3.4c-0.1,0.7-0.8,3.5-1.8,2.3c-0.8-1,0.9-7.9-1.9-5.8c-0.4,0.3-1,1.2-1.6,1.2
			s-0.8-0.6-1.2-1c-1-1.1-2.1-0.7-3.2-1.4c-0.3-0.2-1-1.2-1.6-1.7c0,0,0,0,0,0c-0.3-0.7-0.8-0.8-0.8-1.5v-1c0-0.7-0.9-1.2-0.9-2.1
			c0-0.5,0.2-0.9,0.6-1.2c0.2-0.2,0.5-0.4,0.7-0.7c0.5-0.4,1-0.8,1.4-1.3c0.3-0.5,0.7-0.9,1.1-1.3c0.5-0.4,1.2-0.8,1.5-1.4
			c0.1-0.3,0-0.7,0.1-1s0.5-0.5,0.6-0.8c0.2-0.7,0.1-1.4-0.3-2c-0.5-1.1-0.2-2.8-0.9-3.9c-1.7-0.1-1.5-1.9-2.3-2.8
			c-0.5-0.5-1.1-0.6-1.5-1.2c-0.3-0.6-0.5-1.3-0.4-2.1c0.1-1.6,0-3.2-0.3-4.7c-0.2-1-0.2-1.1,0.5-1.9c0.4-0.6,0.8-1.3,0.9-2
			c0.2-0.6,0.6-0.7,0.9-1.1s0.2-1.2,0.3-1.9c0.3-0.8,0.8-1.6,1.4-2.2c0,0.1,0.1,0.1,0.1,0.2c0.3,0.4,0.4,0.4,0.8,0.4
			c0.8,0,1.7,0.1,2.4,0.4c0.4,0.1,0.8,0.2,1.2,0.3c0.4,0.2,0.9,0.4,1.3,0.6c0.9,0.2,1.8,0.5,2.6,0.8c1.5,0.5,2.8,0.5,3.5,2.2
			c0.5,1.1,1,1.9,0.6,3c-0.3,0.5-0.4,1.2-0.3,1.8c0.2,0.5,0.6,0.8,0.8,1.3c0.2,0.7-0.3,1.1-0.3,1.8c-0.9-0.5-1.5-0.1-2.1,1.1
			c-0.7,1.6-0.2,2.1,1.2,2.9c1.7,0.9,2.1,1.9,1.4,3.7C958.2,531.8,958.2,533.4,958.6,534.9z"/>
		<path class="st2" d="M971,434c-0.2,0.6-0.2,1.3,0,1.9c0.1,0.3,0.2,0.6,0.3,0.9v1c0,2.1-1.3,4.1-2.6,5.7c-0.5,0.6-1.3,0.6-1.7,1.3
			c-0.5,0.8,0,1.8,0.2,2.6s0.5,1.3,0.7,2.1c0.3,1.4-0.4,2.9-0.7,4.2c-0.2,0.8,0.4,1.3,0.5,2.1c0,0.9,0,1.7-0.3,2.5
			c-0.1,0.7-0.6,1.4-0.4,2s1,0.9,0.9,1.8c0,0.7-0.6,1.3-0.5,2.1s0.6,1.5,0.7,2.4c0.2,1.7-0.9,2.9-0.6,4.5c0.3,1.5,1.5,2.8,1.7,4.2
			c0.1,0.5,0.1,1,0,1.6c-4.8,1-9.3,2-11.1,2.3c-0.1-0.5-0.2-1-0.3-1.5c0-0.5,0-0.9-0.1-1.4c-0.1-1,0.1-2.1-0.1-3.1
			c-0.2-1-0.5-2-0.8-2.9c-0.2-0.5-0.4-1-0.5-1.5c-0.1-0.2,0-0.5-0.1-0.8c-0.1-0.3-0.3-0.5-0.5-0.8c-0.4-0.9-0.9-1.8-1.2-2.7
			c-0.5-1-1-1.9-1.7-2.7c-0.2-0.5-0.3-1.1-0.3-1.7v-1.5c0-0.6,0-1.1,0-1.7c0.1-0.5,0-1.1-0.1-1.6c-0.5-1.9-1.2-3.8-0.6-5.8
			c0.1-0.5,0.2-0.9,0.3-1.4c0-0.4,0-0.8,0.2-1.2c0.1-0.3,0.3-0.5,0.4-0.8s0.1-0.5,0.1-0.8c0-0.4-0.2-0.9-0.4-1.2
			c-0.3-0.5-0.6-1-0.8-1.6c-0.1-0.4-0.2-0.9-0.1-1.3c0-0.7-0.2-1.4-0.6-2.1c-0.3-0.9-0.4-1.9-0.4-2.8c-0.1-0.8-0.2-1.7-0.3-2.5
			l3.5-0.8c3.6-0.8,7.2-1.5,10.8-2.4c1.9-0.5,4-0.5,5.7-1.4l0.1,0c0,0.2,0,0.5,0,0.8c0.2,0.7,0.8,1,0.9,1.7c0.1,0.3,0.1,0.7,0,1
			C971.3,433.3,971.2,433.6,971,434z"/>
		<path class="st2" d="M765,589.6c-0.2,0.7,0.4,1.3-0.8,1.4c0,2-0.6,4-1.7,5.7c-0.5,0.9-0.5,1.8-0.9,2.8s-1.5,1.8-1.7,2.7
			c-0.4,1.4,0.5,1.3,0.7,2.5c0.1,0.9-0.6,1.9-0.8,3c-0.4,1.5-0.2,3,0.5,4.3c0.1,0.6-0.1,1.1-0.4,1.6c-0.5,0.8-1.7,0.7-1.7,1.8
			c0,0.9,0.8,1.7,0.9,2.6c-0.2,2.4-4.7,0-4.7,1.9c0,0.6,0.8,0.9,0.9,1.5c0.2,0.4-0.2,0.9-0.2,1.3c-0.6,1.7-0.9,3-2.8,2.6
			c-1.5-0.2-2.8-0.8-4.3-0.6c-1.7,0.2-2.2,1.5-3.2,2.8c-0.4,0.8-1,1.4-1.7,1.9c-0.2-0.4-0.6-0.6-1-0.8c-1.3-0.4-1.3,0-2-1.2
			c-0.6-1-1.2-1.3-1.9-2.1c-1-1.3-0.3-4.2-0.5-5.9c0-1-0.3-1.9-0.8-2.8c-0.6-0.8-1.5-1.2-1.9-2.2c-0.3-0.7-0.1-2.1-0.9-2.6
			s-2,0.2-3-0.1c-1.5-0.6-3.1-2.9-4.2-4.2s-3.4-1.7-3-4c0.1-0.6,0.4-0.8,0.6-1.2c0.1-0.4,0.2-0.9,0.2-1.4c0.1-0.9,0.4-1.8,0.8-2.6
			c0.9-1.9,0.9-4-0.1-5.9c-0.5-1.3-2-1.9-3.3-1.3c-0.4,0.2-0.8,0.5-1,0.8c-0.9,1-1,0.9-2.1,0c-0.8-0.7-1.3-1.5-1.5-2.5
			c-0.3-1.6-0.4-3.9-1.7-5.1c-0.6-0.6-1.6-0.7-2.3-1.3c-0.7-0.6-1.3-1.4-1.8-2.2c-1.1-1.6-2.7-1.8-4-3.4c-1.2-1.3-2-3-2.4-4.7
			c-0.3-1.7-1.3-3.5-1.2-5.3c0.2-0.9,0.4-1.8,0.4-2.8c-0.1-0.9-0.7-1.9-0.7-2.8c0-0.1,0-0.2,0.1-0.3c0.4-1.3,2.3-3,3.3-3.8
			c1.9-1.5,2.9-1.7,2.8-4.5c-0.1-2.2,1.2-3.7-1-5.3c0.5-3.4,2.4-5,5.5-5.8c1.4-0.4,2-1.5,3.4-2.1c1.6-0.6,1.6-1.6,2.2-3.2
			c0.5-0.7,0.8-1.5,1-2.4c-0.1-1-0.2-2.1-0.4-3.1c0-0.9,0.3-2.3,0-3.1s-1.5-1.2-2-2c-0.4-0.8-0.8-1.6-1.1-2.5
			c-0.5-0.9-1.4-1.1-2.1-1.8c-0.6-0.6-1-1.2-1.3-2l41.1-3.8c-0.1,2.1,0.3,4.1,1.1,6.1c0.6,1.4,1.4,2.7,2.1,4.1l0.3,0.8
			c1.2,13,2.9,30.2,4,42.4c0.3,3.6,1.5,8.6,0.6,12c-0.4,1.6-1.3,1.8-0.7,3.6c0.5,1.3,1.8,1.6,2.3,2.8
			C765.2,587.8,765,589.5,765,589.6z"/>
		<path class="st2" d="M719,411.1c-3.5,2.8-8.2,3.3-11.4,6.8c-1.4,1.4-2.5,3.1-3.9,4.5s-2.8,2.4-4.2,3.6c-3,2.5-5.7,5.4-8.6,8
			c-1.3,1.2-1.3,1.9-0.5,2.3c-0.2,0-0.4,0-0.7,0c-3.2,0-2.2,3.3-2.1,5.3s0.2,3.9,0.2,5.9s0.4,2.8-1.3,4c-2.3,1.6-4.9,3.9-5.2,6.8
			c-0.1,0.8-0.4,2,0.1,2.8s1.6,0.9,2.1,1.6c0.7,1,0.3,1.6-0.3,2.6c-0.5,0.8-0.9,1.7-0.9,2.7c-0.2,2-0.3,4.1-0.6,6.1
			c-0.2,0.9-0.2,1.9,0.1,2.9c0.4,0.7,1.8,1.1,2.4,1.6c0.9,0.8,1.2,1.3,2.3,1.5c0.9,0.1,1.9,0.3,2.8,0.6c0.8,0.3,1.7,0.6,2.6,0.6
			c1,0,1.8-0.4,2.6,0.4c0.5,0.7,1,1.5,1.5,2.3c0.6,0.8,1.1,1.6,1.6,2.4c0.5,0.8,1.3,1.5,2.2,2c1.1,0.7,0.9,1.1,1.5,2.1
			c1,1.7,3.2,1.8,4.3,3.3c0.5,0.8,0.8,1.8,0.8,2.7c0.1,0.6,0.5,0.5,0.3,1.1s-0.7,0.8-0.9,1.2c-0.2,0.6-0.2,1.3-0.1,1.9
			c0,0.1,0,0.2,0,0.4c-11.4,2-58.8,2-72.2,1.9l-0.4-35.6c-1.5-1.3-2.8-2.9-3.9-4.6c-0.7-1.1-0.9-2.5-0.7-3.8
			c0.1-1.8,1.1-3.4,1.5-5.1c0.3-1.1,0.2-2.2-0.3-3.2l-1.5-3c-0.2-0.5-0.4-1-0.5-1.5c-0.2-0.4-0.3-0.9-0.1-1.4c0-0.5,0-1.1-0.1-1.6
			c-0.1-0.6-0.6-1-0.9-1.6c-0.3-1-0.3-2,0-3c0.1-0.6,0.5-1,0.5-1.6s-0.2-0.9-0.2-1.4c-0.1-0.9,0.2-1.6,0.1-2.5
			c-0.4-1.3-1.1-2.2-0.6-3.8c0.2-0.5,0.4-1.1,0.6-1.8c0.2-0.5,0.4-1.1,0.5-1.6c0-0.6-0.2-1.2-0.5-1.8c-0.1-0.3-0.3-0.6-0.5-0.9
			c-0.2-0.2-0.2-0.5-0.5-0.8c-0.4-0.4-0.8-1-1.1-1.5c-0.1-0.6,0.1-1.2-0.1-1.8s-1-1.1-1.2-1.8c-0.1-0.6-0.2-1.2-0.2-1.8
			c-0.2-1.3-0.3-2.7-0.1-4c0.2-1.1,0.2-2.2,0.1-3.4c-0.1-0.4-0.3-0.9-0.5-1.2c0-0.1-0.1-0.1-0.2-0.2c-0.1-0.2-0.2-0.4-0.4-0.6
			c-0.1-0.4-0.4-2,0-2.2c0-0.8,0.1-1.4,0.1-2c0.4-0.5,0.4-1.5,0.6-2.1c0.2-0.6,0.1-1.2-0.2-1.8c-0.2-0.5-0.4-1.1-0.6-1.6
			s-0.4-0.8-0.5-1.1v-1c0-0.6-0.2-1.2-0.4-1.8c4.8,0,9.7,0,14.6-0.1c1.8,0,3.6,0,5.4,0c1.2,0,2.4,0,3.6,0s1.6-0.2,1.8,1.1
			c0.1,0.8-0.1,2.5,1.3,1.7c1-0.5,1.1-1.9,2.3-2.4s2.7-0.9,3.4,0.6c0.5,1.1,0.2,2.3,1.5,2.7c1,0.3,2.5-0.5,3.5,0.5
			c1.1,1.1,1.8,0.1,3.1,0.3s2.1,1.5,3.2,2c1,0.4,1.7,1.2,2,2.2c0.8,0.2,1.1-0.7,1.7-1c1.1-0.7,2.3-1.1,3.6-1.3
			c1.4-0.1,2.3,0.7,3.5,1.1c0.9,0.3,1.8-0.1,2.7,0.5s1,1.2,2,1.4s1.6,0.1,2.3,0.9s0.7,1.8,1.3,2.4c0.8,0.9,1.1,0.2,2-0.1
			c1.5-0.5,3.5,1.3,4.8,2.1c0.7,0.5,1.4,0.9,2.2,1.3c0.8,0.3,1.8,0.2,2.6,0.5c1,0.4,1.1,0.9,2.1,0c0.6-0.5,0.7-1.2,1.2-1.8
			c0.8-0.8,1.6-0.2,2.5-0.4s1.3-0.9,2.4-0.8s1.3,0.6,2.4-0.1c0.5-0.3,0.4-0.6,1-0.5s0.9,0.7,1.5,0.8c1.5,0.2,1.8-0.8,3.2,0.2
			s1.6,0.4,3.1,0.5c1,0,1.8,0.9,2.8,1.2S720.4,410,719,411.1z"/>
		<path class="st2" d="M446.8,540.8l-10,79.9c-25.6-3.1-51.5-7-75.8-11.8l16.6-98.2c13.9,2,28.3,3.8,43,5.2l-3.1,20.8
			C417.5,536.6,429.6,538.5,446.8,540.8z"/>
		<path class="st2" d="M855.4,633c-0.8,0.4-0.4,0.9-0.8,1.5c-0.3,0.4-1.3,0.7-1.8,1c-0.6,0.3-1.1,0.8-1.4,1.3
			c-0.3,0.5-0.6,0.9-1,1.3c-0.4,0.3-0.9,0.6-1.4,0.8c-0.5,0.3-1.2,0.5-1.6,0.1s-0.2-0.9-0.2-1.3s0.7-2.2-0.5-2c-0.9,0.4-1.6,1.1-2,2
			c-0.4,0.9-0.7,1.9-0.9,2.9c-0.2,1.1-1,2-2,2.3c-1,0.2-1.9,0.6-2.7,1.1c-0.5,0.3-0.9,0.8-1.2,1.2c-0.2,0.3-0.2,0.5-0.4,0.7
			c-0.3,0.1-0.5,0.3-0.8,0.5c-0.4,0.3-1,0.5-1.5,0.5c-0.5,0-1,0.1-1.4,0.3c-0.5,0.1-1.1,0.2-1.6,0.2c-0.5,0.1-0.9,0.4-1.3,0.7
			c-0.9,0.7-1.7,1.7-2.2,2.7c-0.4,0.9-0.9,1.7-1.6,2.4c-0.8,0.8-1.9,0.8-2.2,2.1c-0.2,0.5,0.1,0.8,0.1,1.4s-0.4,0.8-0.7,1.2
			s-0.2,1.4-0.2,1.9s0,0.7,0,1c-6.3,0.9-13.3,1.7-20.5,2.5c-13.6,1.5-28.1,2.7-40.6,3.7c-16.7,1.3-30,2.2-33.5,2.4l0.2-0.2
			c0.7-0.8,1.7-0.9,2.4-1.7s0.6-1.5,0.5-2.5c-0.1-1-0.2-1.9-0.2-2.9c0-1.2,0.5-1.3,1.2-2.2s0.4-2,0.6-3.2c0.2-0.9,0.6-1.7,1.2-2.3
			c1.4-1.7,2.4-3.7,2.9-5.8c0-0.3,0.1-0.6,0.1-0.9c-0.1-1.9-0.1-3.8,0.1-5.8c0.2-0.8,0.6-1.6,1.1-2.3c0.1-0.1,0.1-0.3,0.2-0.5
			c0-0.1,0-0.1,0-0.2l0.1-0.3c5.4,0,23.2-0.6,23.2-0.6l0.2-4.9c14.9,0.1,37.1-2,61-5.1c8.3-1,16.8-2.2,25.3-3.4l1.1-0.2l3.2-0.5
			L855.4,633z"/>
		<path class="st2" d="M530.3,628.9l-0.6,10.5l-5,87l-60.7-3.6v0.1c0,0.1,0.1,0.3,0.2,0.4c0,0,0,0.1,0,0.1s0.1,0.1,0.1,0.2
			c0,0.1,0.1,0.2,0.2,0.2c0.1,0.1,0.2,0.1,0.3,0.2c0.1,0.1,0.2,0.1,0.3,0.2c0.2,0.1,0.5,0.2,0.4,0.5l-0.1,0.2l-28.8-3v0.1l-0.6,9.8
			v0.1l-13.1-1.6l13.8-109.6C468.8,624.5,500.9,627.1,530.3,628.9z"/>
		<path class="st2" d="M1005.3,488.8c-0.3,1.1-1,2.1-2,2.6c-1.4,0.7-2.1-0.7-2.6-1.8c-0.6-1.5-0.9-1.8-1.9-0.4
			c-0.7,0.9-1.8,1.7-2.1,2.8c-0.1,0.5-0.2,1-0.2,1.5c-2.9-2.1-5.2-5-6.5-8.4c-2.3,0.2-4.6,0.6-6.9,1.2c-8.7,1.8-22.5,5.1-25.2,5.8
			c0-0.2,0.1-0.6,0.1-0.8c0-0.5,0-0.9,0.1-1.4c0.1-1,0.4-1.9,0.4-3c0.2-2.5,0.1-5.1-0.2-7.6l0,0l0,0c1.8-0.4,6.2-1.3,11.1-2.3
			c6.2-1.4,12.9-2.9,15.5-3.8c0.7-0.1,1.3-0.4,1.7-1c0.8-0.8,1.7-1.7,2.5-2.5c0.7-0.9,1.5-1.7,2.2-2.4c0.6-0.4,1.5-1.1,2.3-1.7
			c-0.2,0.7-0.3,1.4-0.2,2.2c0.1,1.3,0.4,2.3,1.7,2.9c0.9,0.4,2.3,0.6,1,1.6s-2,1-2.4,2.6c-0.2,0.9-1,2.6-0.3,3.3s2.6,0.5,3.6,1.2
			s1.1,2.2,1.7,3.3s1.8,1,2.7,1.8s0.9,2,2,2.5S1005.5,487.4,1005.3,488.8z"/>
		<path class="st2" d="M947,536c-0.1,0.3-0.5,0.5-0.6,0.8s0,0.7-0.1,1c-0.3,0.6-1,1-1.5,1.4c-0.4,0.4-0.8,0.9-1.1,1.3
			c-0.4,0.5-0.9,0.9-1.4,1.3c-0.2,0.2-0.5,0.4-0.7,0.7c-0.2-0.1-0.3-0.1-0.5-0.2c-0.6-0.2-1.3-0.4-2-0.4c-0.6-0.2-1.2-0.1-1.8,0.2
			c-0.6,0.4-1.3,0.7-2,1c-0.4,0.1-0.8,0.2-0.8,0.6s-0.1,0.6-0.2,0.8c-0.2,0.3-0.5,0.5-0.8,0.7c-0.2,0.2-0.4,0.5-0.5,0.8l-51,9.2
			l-13.8,2.5l-3.1-18.2l-4.8-28.8c0.8-0.2,1.7-0.3,2.5-0.6c1.3-0.4,1.6-1.5,2.4-2.5c0.7-0.8,1.5-1.5,2.3-2.1c0.6-0.4,1.3-0.7,2-0.8
			l1.1,8c0,0,48.8-10.3,61.2-13.5c0.1,0,0.3,0.1,0.4,0.1c0.4,0.1,1,0,1.4,0.3c0.5,0.3,0.9,0.6,1.3,0.9c0.4,0.2,0.9,0.3,1.3,0.4
			c0.7,0.1,1.4,0.3,1.4,1.1c-0.1,0.9,0,1.8,0.3,2.7c0.2,0.4,0.6,0.8,0.9,1.1c0.2,0.3,0.1,0.4,0.5,0.5c0.2,0.1,0.5,0,0.7,0
			c0.5-0.1,1,0.1,1.4,0.4c0.5,0.3,0.6,0.9,1.1,1.2c0.8,0.3,2.2,0.2,2.5,1c0.2,0.4,0.2,0.8,0.3,1.1c-0.6,0.7-1.1,1.4-1.4,2.2
			c-0.2,0.7,0,1.3-0.3,1.9s-0.7,0.5-0.9,1.1c-0.2,0.7-0.5,1.4-0.9,2c-0.7,0.8-0.7,0.9-0.5,1.9c0.3,1.5,0.4,3.1,0.3,4.7
			c-0.1,0.7,0.1,1.5,0.5,2.1c0.4,0.6,1,0.7,1.5,1.2c0.8,1,0.7,2.7,2.3,2.8c0.7,1.2,0.4,2.8,0.9,3.9C947.2,534.6,947.2,535.3,947,536
			z"/>
		<path class="st2" d="M887.2,710.1l-0.1,0.2c-0.3,0.3-0.7,0.2-1,0.5s-0.2,0.8-0.3,1c-0.6,0.8-0.9,0.8-1.9,0.9
			c-0.8,0.1-1.5-0.5-2.1,0.6s0.3,0.9,0.7,1.7c0.5,1-0.3,3-1.4,3.6c0,0.6,0.5,1.1,0.5,1.8c-0.8,0.2-2.1,1-2,2s1.3,1.2,1.2,2.7
			s-1.1,1.8-2,2.7c-0.6,0.6-1.2,0.5-0.2,1.2c0.6,0.2,1.2,0.3,1.8,0.3c-0.5,1.6-1,3-0.4,4.7c0.1,0.3,0.2,0.5,0.3,0.8
			c-0.7,0.7-1.4,1.3-2.1,2c-0.9,0.9-2.2,0.2-3.4-0.2c-0.9-0.5-2.1-0.2-2.6,0.7c-0.1,0.1-0.2,0.3-0.2,0.5c-0.4,1.3,0,2.2,0,3.4
			c-0.2,1.3-0.6,2.6-2.1,2.2c-1.3-0.2-1.3-1.7-2.4-1.9c-0.6-0.1-1.3-0.1-1.9,0l-42,3.4c-0.3,0-0.6,0-0.9,0c0.1-0.1,0.2-0.2,0.4-0.2
			c0.5-0.1,0.9-0.2,1.4-0.3h-0.5c-1.3-0.1-2.4-2.8-2.8-4.5c-0.1-0.4-0.1-0.7-0.2-1.1c0-0.9-0.2-0.9-0.7-1.7
			c-0.8-0.6-1.1-1.5-0.8-2.4c0-0.4,0.2-1.1,0.2-1.3c-0.2-0.6-0.6-0.9-0.6-1.5c-0.2-0.9-0.2-1.1-0.4-1.9c-0.4-0.8-0.7-1.6-0.9-2.4
			c-0.1-0.9,0.1-1.7,0.6-2.4c0.4-0.8,0.6-1.7,0.6-2.6c0-0.9,0-1.9-0.2-2.8c-0.3-0.8-0.4-1.6-0.4-2.4c0.2-1.3,1.7-3.9,0.6-5.2
			c-0.6-0.4-1.1-0.2-1.3-0.9c0-0.4,0.4-0.9,0.2-1.3c-0.2-1.1-0.9-0.8-1.7-0.9c-1.5-0.4-2.1-2.2-1.7-3.6l-10.6-41.7
			c7.2-0.8,14.1-1.6,20.5-2.5c7.8-1.1,14.6-2.2,19.8-3.4c-0.6,0.7-1.1,1.5-1.4,2.3c-0.2,0.8-0.2,1.1-0.4,1.7
			c-0.6,0.7-0.7,1.6-0.4,2.4c0.4,1.1,0.8,3,2.2,3.4c0.9,0.2,1.7-0.2,2.6,0.2c0.5,0.3,0.9,0.8,1.1,1.3c0.6,0.6,0.8,0.2,1.3,0.4
			c0.8,0.6,1.5,1.5,1.9,2.4c0.9,1.8,2.5,2.2,3.1,4.1c0.8,2.5,0.9,2,3.1,3.4c1.1,0.7,1.8,1.9,2.9,2.6c1.2,0.8,2.3,1.7,3.6,2.6
			c2.2,1.6,2.8,3.6,5.6,4.7c0.8,0.4,1.6,0.9,2.2,1.5c0.8,0.7,1.7,1.2,2.6,1.7c0.6,0.4,0.9,1.7,1.3,2.4c0.2,0.4,0.2,0.9,0.4,1.5
			c0,0.4,0.4,0.8,0.6,1.1c0.4,0.8,0.4,1.7,0.9,2.2c0.4,0.4,0.9,0.4,1.1,0.9c0.4,0.4,0.6,0.8,0.8,1.3c0.4,0.4,0.9,0.6,1.3,0.9
			c0.2,0.4,0.3,0.9,0.4,1.3c0.2,0.9-0.2,1.7,0.9,2.1c1,0.3,1.9,0.9,2.6,1.7c0.2,0.3,0.6,0.6,0.9,0.8
			C886,709,886.6,709.5,887.2,710.1z"/>
		<path class="st2" d="M721.3,534.3c-0.2,0.8-0.5,1.6-1,2.4c-0.6,1.6-0.6,2.5-2.2,3.2c-1.4,0.5-2,1.7-3.4,2.1
			c-3.1,0.9-5,2.5-5.5,5.8c2.2,1.5,0.9,3.1,1,5.3c0.1,2.7-0.9,3-2.8,4.5c-0.9,0.8-2.9,2.5-3.3,3.8l-0.3-0.2
			c-0.4-0.2-0.7-0.4-1.1-0.6c-0.2-0.2-0.4-0.3-0.6-0.6c-0.2-0.2-0.6-0.5-0.8-0.8s-0.4-0.4-0.4-0.6l-57.7,1.9c0-0.1,0-0.1,0-0.2
			c-0.2-1.3-0.9-2.4-1.9-3.2c-1.6-1.3-0.7-1.9-0.9-3.6c-0.1-0.6-0.3-1.3-0.6-1.9c-0.4-1.4,0.5-2.8-0.4-4.2c-0.4-0.6-1.2-1.1-1.3-1.9
			c0-0.8,0-1.6,0.1-2.3c-0.1-1.8-1-2.1-2.2-3.2c0.3-1.1,0.4-2.3,0.2-3.5c0.1-1.1-0.5-2.2-1.5-2.7c-0.2-0.7,0.1-1.3,0-2
			s-0.4-0.6-0.8-1.1c-1-1,0.2-1.7,0-2.8s-1.3-1.6-1.5-2.6c-0.2-0.9-0.3-1.7-0.4-2.6c-0.1-0.7-0.4-1.4-0.8-2
			c-0.2-0.3-0.3-0.6-0.3-0.9l0,0c0-0.2,0-0.3-0.1-0.5c-0.3-0.9-0.5-1.9-0.4-2.8c0.1-0.5,0.2-0.9,0.3-1.4v-1.4
			c-0.1-0.5-0.2-1-0.5-1.5c-0.1-0.4,0-0.9,0.1-1.3c0-0.5,0.1-1,0.4-1.5c0.3-0.4,0.4-0.8,0.4-1.3c-0.1-0.6-0.6-0.8-0.8-1.2
			c-0.3-0.4-0.4-0.9-0.3-1.4c0.1-0.6,0.6-0.8,0.5-1.3c0-0.4-0.1-0.8-0.2-1.1h3.4c13.3,0,60.8,0,72.2-1.9c0.1,1.3,0.4,2.6,1,3.7
			c0.5,0.8,0.8,1.8,0.8,2.8c-0.1,1.1-0.8,1.2-1.2,2c-1,2,1.3,3.5,1.9,5.1c0.3,0.9,0.2,1.9,1.1,2.6s1.9,0.3,2.8,0.5
			c1,0.3,1.8,1,2.1,2c0.3,0.8,0.7,1.4,1.3,2c0.7,0.6,1.6,0.9,2.1,1.8c0.3,0.9,0.7,1.7,1.1,2.5c0.6,0.8,1.7,1.1,2,2s-0.1,2.2,0,3.1
			C721.1,532.2,721.2,533.3,721.3,534.3z"/>
		<path class="st2" d="M336,503.4c-15.6-3-30-6.2-42.8-9.4l-13.1,52.7l-1.7,5.2l67.7,94.5c0-0.3,0-0.5,0-0.8
			c-0.1-0.4-0.2-0.9-0.3-1.3c0-0.5,0.3-0.9,0.3-1.3s-0.3-0.8-0.3-1.3s0.4-0.7,0.6-1c0.5-0.9,0.6-1.9,0.3-2.9c-1.6-0.6,0.5-3.3,0.6-4
			c0.1-1-0.4-1.5,0.1-2.4c0.3-0.6,0.9-1,1.1-1.7c0.6-1.6-1-3.5-0.3-5c0.4-0.8,1.3-0.6,1.9-0.3c0.7,0.5,1.6,0.8,2.4,0.8
			c1.2,0,1.1,0.5,1.8,1.2c0.9,1,0.8,0.4,1.5-0.2s1.3-0.2,2-0.6s0.5-0.7,0.4-1.1v0.1c0-0.2,0-0.3,0-0.5c0,0.1,0,0.2,0,0.3
			c0.1-0.3,0.2-0.7,0.2-1v1.4l2.7-16l16.6-98.2C363,508.4,349.1,506,336,503.4z M358.1,624c0-0.1,0-0.2,0-0.3
			C358.1,623.8,358.1,623.9,358.1,624z"/>
		<path class="st2" d="M428,465.9L428,465.9l-7.4,49.9l-3.1,20.8c0,0,12.1,1.8,29.3,4.2c21.2,2.8,50.2,6.4,73.5,8l2.8-40.3l2.8-39.7
			l-96.9-9.9L428,465.9z"/>
		<path class="st2" d="M730.6,644.2c0.2-0.4,0.5-0.9,0.6-1.4c0.2-0.4,0.2-0.9,0.2-1.3c-0.1-0.8-0.4-1.5-0.9-2.1l0,0
			c-2.1,0.1-56.9,3.5-69.1,3.6l2,55.6l0.3,0.3c0.3,0.4,0.5,1,1,1.2s1.1-0.5,1.7-0.6c0.5,0,0.9-0.2,1.4-0.4c0.9-0.6,1.8-1.3,2.8-0.9
			l0.4,13.3l47.1-1.9l0,0c-0.1-0.2-0.1-0.5-0.1-0.6c-0.1-0.8,0.1-1.6,0.5-2.2c1.2-2.4-0.2-1.4-1.7-2.5c0-1.4,2.7-2.7,1.7-4.3
			c-0.8-1.5-2,1.1-2.9,1.8c-1.4-1.2,0.5-3.4,0.8-4.7s0.4-1.1,1.3-2c0.6-0.7,0.9-1.5,1-2.4c-0.1-1-0.1-2,0-3c0.3-1.3,0.8-0.8,1.6-1.4
			c1.2-1-0.4-4.2,1.1-4.2c0.2-0.7,1.8-1.7,2-0.6c1.5,0.1,1.5-3.6,1.8-4.6c0.1-0.5,0.3-1,0.6-1.4c0.4-0.3,0.9-0.1,1-0.1
			c0.8-0.5,0.6-1.6,0.8-2.5c0.3-1.8,1-3.5,2-5.1l0.2-0.2c0.7-0.8,1.7-1,2.4-1.7s0.6-1.5,0.5-2.5c-0.1-1-0.2-1.9-0.2-2.9
			c0-1.2,0.5-1.3,1.2-2.2s0.4-2,0.6-3.2c0.2-0.9,0.6-1.7,1.2-2.3c1.4-1.7,2.4-3.7,2.9-5.8c-2.6,0.4-5.3,0.4-7.9,0.6
			S730.1,645.3,730.6,644.2z"/>
		<path class="st2" d="M657.1,587.5c-0.7-0.6-1.2-1.3-1.9-1.9s-1.5-0.9-1.9-1.6s-0.1-1.5-0.1-2.2c-0.2-0.7-0.1-1.4,0.1-2.1
			c0.6-1.3,1.7-2.8,0.7-4.3s-2.6,0-3.9-1.2c-0.4-0.4-0.6-0.8-0.8-1.3c-27.9,1.9-86.4-1.8-101.2-2.7l-2.8,59.5
			c61.6,3.2,109,2.8,115.7,2.7l-1.5-41.7C659.7,589.3,658,588.3,657.1,587.5z"/>
		<path class="st2" d="M679.5,749.6c-0.2-0.3-0.3-0.7-0.4-1c0-0.4,0-0.7,0.1-1.1c0.3-1,0.4-2.1,0.3-3.2c-0.2-0.7-0.5-1.4-0.9-1.9
			c-0.4-0.6-0.9-1.1-1.3-1.7c-0.2-0.3-0.4-0.7-0.6-1c-0.2-0.3-0.4-0.5-0.6-0.8c-0.3-0.5-0.5-1.1-0.6-1.6c-0.1-0.5,0-1.2-0.3-1.6
			c-0.6-0.7-1-0.9-1.1-1.9c-0.1-0.9-0.3-0.8-0.9-1.4c-0.8-0.8-1.4-1.9-1.5-3l-0.6-18l-0.4-13.3c-1-0.4-1.9,0.4-2.8,0.9
			c-0.4,0.2-0.9,0.4-1.4,0.4c-0.6,0.1-1.1,0.8-1.7,0.6s-0.7-0.7-1-1.2l-0.3-0.3L663,698c-0.3-0.5-0.8-0.9-1.3-1.2
			c-0.5-0.3-1.1-0.3-1.6-0.2c-1.1,0-1.4-1.2-2.4-1.5c-0.5-0.1-1,0.2-1.4,0.1s-0.9-0.6-1.3-0.9c-0.8-0.5-1.7-0.8-2.6-1
			c-0.6-0.1-1.1-0.1-1.7,0.1c-0.6,0.2-0.9,0.8-1.6,0.9c-1.1,0.2-1.7-0.9-2.8-0.8c-1.8,0.2-3.8,0.6-5.6,1c-1.2,0.3-2.4,0.4-3.6,0.4
			c-1.2,0-2.4,0-3.6,0.2c-1.1,0.3-2.3,0.1-3.2-0.5c-1-0.5-2.1-0.6-3.2-0.3c-0.6,0.1-1.1,0.6-1.7,0.6c-0.8,0-0.7-0.8-1.6-0.7
			c-0.6,0.1-1.2,0.1-1.8,0c-0.5-0.1-0.9-0.4-1.4-0.3c-1.1,0.2-1.6,1.3-2.7,1.6c-0.9,0.2-2.3,0.3-2.8-0.5c-0.3-0.4-0.7-0.8-1.1-1.2
			c-0.8-0.9-1.1-1.7-2.3-0.6c-0.6,0.6-1.8,2-2.8,1.6s-1.5-2.1-2.1-2.8c-0.4-0.5-0.7-1.4-1.3-1.6s-0.8,0.1-1.3,0.3s-0.7,0-1.3-0.3
			s-1.1,0.1-1.6-0.1c-0.7,0.3-1.7-0.4-2.1-0.9c-0.3-0.3-0.5-0.7-0.9-0.8s-0.7,0.2-1.1,0.1c-0.8-0.6-2,0-3-0.3
			c-0.5-0.1-1-0.2-1.6-0.2c-0.6-0.1-1.2-0.2-1.9-0.3c-0.6,0-1.1-0.3-1.3-0.8c-0.5-1.1-1-2.6-2-3.4c-1.3-0.8-2.4,0-3.7-0.1
			c-1.1-0.1-1.6-1.2-2.8-1c-0.6,0.1-0.9,0.4-1.6,0.1s-0.5-0.8-0.9-1.3s-0.7-0.3-1-1c-0.4-0.9-1.3-1.5-2.2-1.5c-0.1,0-0.3,0-0.4-0.1
			s-0.1-0.3-0.2-0.4l1.2-37.1l-46.2-1.7l-5,87l-60.8-3.7v0.1c0,0.1,0.1,0.3,0.2,0.4c0,0,0,0.1,0,0.1s0.1,0.1,0.1,0.2
			c0,0.1,0.1,0.2,0.2,0.2c0.1,0.1,0.2,0.1,0.3,0.2c0.1,0.1,0.2,0.1,0.3,0.2c0.2,0.1,0.5,0.2,0.4,0.5l-0.1,0.2l1,0.1
			c0.1,0.4,0.3,0.7,0.5,1.1c0.4,0.7,1,1.2,1.6,1.6c0.9,0.5,0.6,1.2,1,2c0.6,1.4,2.5,1.8,2.6,3.4c0,0.7,0.4,1.4,1.1,1.6
			c0.8,0.4,1.6,1,2.2,1.8c1,1.1,1.8,2.2,2.5,3.5c0.4,0.5,0.9,1,1.6,1.2c0.7,0.4,1.2,1.1,1.4,1.9c0,0.7,0.3,1.4,0.9,2
			c0.6,0.4,1.5,0.8,1.9,1.4s0.6,1.4,1.1,2s1.2,0.5,2,0.4c1.2-0.3,1.2,1,1.8,1.6s1.3,0.6,1.6,1.2s0,1.9,0,2.7
			c-0.1,0.9-0.1,1.8,0.1,2.7c0.6,1.7,1.9,3.1,2.5,4.9c0.6,2,0.8,4.2,1.9,6.1c0.9,1.6,2,3,3,4.6c1.1,1.6,2.5,3,4,4.3
			c0.8,0.8,1.6,1.4,2.6,2c0.9,0.5,1.9,0.9,2.9,1.2c1,0.4,2,0.9,2.8,1.6c0.7,0.7,1.3,1.5,2,2.1c1.8,1.5,4.1,2,6.4,1.5
			c2-0.7,2.1-3.3,3.2-4.8c0.6-0.9,1.5-1.5,2.2-2.4c0.6-0.8,1.1-1.7,1.4-2.7c0.5-1.9,1.7-3.5,3.4-4.6c1.5-1,3.3-1.6,5.1-1.8
			c0.1-0.2,0.3-0.2,0.5-0.2c0.5,0.1,0.6,0.9,1.1,1s1.2-0.2,1.7-0.2c0.5,0.1,1.1,0.2,1.6,0.2c0.5-0.1,1-0.4,1.5-0.1s0.6,0.7,1.1,0.9
			c0.5,0.1,1,0.1,1.5-0.1c0.6-0.3,1.2-0.4,1.8-0.3c0.5,0.2,0.7,0.6,1.2,0.8s1,0,1.5,0.2c0.4,0.2,0.7,0.6,1,1c0.6,1,0.6,2.3,2,2.5
			c1.1,0,2.2,0.5,2.8,1.5c0.5,0.9,1.2,1.6,1.9,2.3c0.4,0.3,0.8,0.4,1.1,0.9s0.2,0.9,0.4,1.4c0.3,0.6,0.7,1.1,1.3,1.4
			c0.5,0.3,1.2,0.3,1.6,0.7s0.4,1.2,0.5,1.9s1.1,0.6,1.2,1.6c0,0.3,0.2,0.7,0.4,0.9c0.2,0.3,0.3,0.6,0.3,1c0.1,0.8,0.2,1.5,0.5,2.2
			c0.4,1.1,1.4,1.8,2.1,2.7c0.4,0.7,0.7,1.5,0.8,2.3c0.2,0.8,0.5,1.6,0.9,2.4c0.3,0.9,0.9,1.3,1.4,2.1c0.1,0.3,0.2,0.7,0.3,1.1
			c0.2,0.5,0.7,0.8,1,1.2c0.6,0.7,1.6,1,2.2,1.8s0,1.3,0.8,1.9c0.3,0.2,0.6,0.3,0.8,0.6c0.2,0.3,0.3,0.7,0.4,1
			c0.3,0.7,1,1.1,1.3,1.8c0.3,0.7,0.6,1.4,0.8,2.1c0.3,0.9,0.6,1.1,1.4,1.6c0.7,0.4,1.4,0.9,1.9,1.4c0.5,0.6,0.9,1.3,1.2,2
			c0.4,0.6,0.8,1.3,1.1,2c0.2,0.8,0.2,1.5,0.2,2.3c0,0.6-0.1,1.2,0,1.8c0.1,0.3,0.2,0.7,0.2,1c0,1-0.9,1.3,0.1,2.2
			c0.5,0.5,0.2,1,0.5,1.5s0.9,0.8,1.2,1.2c0.3,0.5,0.4,1.1,0.4,1.6c0.1,0.7,0.6,0.8,1.2,1.2c1.1,0.8,1.6,2.1,1.3,3.5
			c0,0.5-0.3,1-0.3,1.5c0,0.6,0.2,1.2,0.6,1.7c0.1-0.1,0.2-0.1,0.3-0.2c0.5,0.1,0.9,0.3,1.3,0.5c0.4,0.3,0.8,0.7,1.2,1
			s0.9,0.5,1.4,0.8s0.6,0.6,1,0.8c1,0.7,2.3,1,3.1,1.9c0.3,0.4,0.5,0.7,1.1,0.5c0.4-0.1,0.8-0.3,1.2-0.5c0.4-0.3,0.8-0.5,1.3-0.6
			c0.6-0.1,1.1-0.1,1.7,0c0.4,0,0.8,0.2,1.2,0.5c0.3,0.3,0.4,0.6,0.8,0.8s0.6,0.2,0.9,0.7c0.1,0.4,0.3,0.8,0.6,1
			c0.7,0.4,1.5,0.6,2.3,0.6c0.4,0,0.8,0,1.2,0c0.4,0.1,0.6,0.4,1,0.5c1.3,0.6,2.9-0.7,4,0.6c0.7,0.8,1.5,0.8,2.5,1.1
			c0.4,0.1,0.7,0.3,1,0.5c0.3,0.3,0.6,0.7,1,0.8s0.6-0.2,1-0.2s0.7,0.2,1,0.1c0.4-0.4,0.8-0.9,0.9-1.4c0-0.5-0.2-1.1-0.4-1.5
			c-0.4-1-0.8-1.9-1.3-2.8c-0.5-0.8-1.2-1.2-1.8-2c-0.9-1.2-0.3-1.6,0.1-2.8c0.7-2.2,0.6-4.6-0.2-6.8c-0.3-0.9-2.8-5.7-0.1-5
			c0.9,3.6,0.5,7.4,1.7,10.9c0.3,1,2.7,7.5,3.9,6.6c1.6-1.3-2-8.4-2.3-10c-1.7-7.5,1.4-14.1,3.5-21c-2.7-0.2-2.5,1.2-3.4,3.3
			c-0.5,1.3-0.7,3.1-1.6,4.2c-0.4,0.5-1.4,2.8-2.2,1.7c-0.3-0.4,0-0.9,0.2-1.3c0.3-0.7,0.5-1.4,0.7-2.1c0.5-1.9,2.2-3.6,1.5-5.6
			c-0.2-0.8-0.6-1.4-1.2-1.9c-0.7-0.4-1.2-0.5-1-1.4c0.3-1.7,1.7-2.5,2.5-3.9c0.3-0.7,0.8-1.4,1.5-1.9c0.8-0.5,1.4-0.2,1.2,0.7
			c0.6,0.2,1.3,0,1.7-0.5c0.3-0.3,0.5-0.7,0.8-1s0.8-0.5,1-0.8c-0.8,0.9,0.3,1.3,0,2.2c-0.4,0.9-1,1.7-1.9,2.1c-0.5,0.2-1,0.2-1.4,0
			c-0.5-0.1-1.1,0-1.6,0.2c0,0.6,0.1,1.2,0.1,1.9s0.3,1.4,0.8,0.6c0.3-0.5,0.3-1.1,1-1.3c1.5-0.5-0.3,3-0.1,3c2.4,0.5,4.1-2.9,6-4
			c1.4-0.8,6.1-3.1,5.6-5.1c-0.5-0.2-1.1,0-1.3,0.5c0,0.1-0.1,0.1-0.1,0.2c-0.5-0.5-2.2-0.8-2.2-1.8c0-1.3,2-1.8,2.7-2.5
			c1.3-1.4-0.5-0.8-0.6-2.5c0-1.3,1.4-2.4,1.9-0.7c1.6,0.1,1.4-2.3,2.9-2c0.1,1.5-0.3,3.1,1.6,2.1c1.1-0.5,2.9-2.7,4.2-1.8
			c-0.5,0.9-1.1,1.6-1.9,2.2c-0.9,0.6-2.8,0.7-3.4,1.6c-1.3,2.2,3.1-0.3,3.8-0.4c1-0.2,2.2,0.2,3.2-0.3c0.7-0.4,1.1-1.4,1.7-2
			c1.3-1.2,2.7-2.2,4.2-3.1c1.7-1,3.9-1.3,4.2-3.6c-0.4,0.1-0.9-0.1-1.2-0.1c-0.1-1.5,2.3-4.4,3.9-4.1c-0.2,0.8-1.6,2.7,0.1,2.4
			c0.6-0.1,1.4-1.5,1.8-1.9c1.3-1.5,1.9-2.4,0.4-3.9c-0.7-0.8-1.2-0.9-1.3-2s0.5-1.5-0.5-2.5c-0.8-0.7-1.7-0.6-1.7-2
			c0-0.8,0.5-1.7,1.5-1.5c1.7,0.5,1.5,4.8,2.7,1.1c2.2-0.1,2.8,0.1,2.1,2.1s-0.4,2.2,1.9,2.4c0.2,0.8-0.1,1.6-0.7,2.2
			c1.8,0.2,3.1-1.8,4.7-2.4c2.1-0.8,4.3-1.5,6.4-2.3c1.1-0.4,2.3-0.7,3.5-0.9l0.2-0.2c0.2-0.2,0.4-0.5,0.6-0.8s0.2-0.3,0.2-0.4
			l0.4-0.4c0.3-0.6,0.4-1.3,0.3-1.9c0-0.3,0-0.6,0-0.9c0.1-0.4,0.4-0.6,0.6-0.9c0.3-0.6,0.5-1.3,0.4-2c-0.1-0.8-0.8-1.3-1.1-1.9
			c-0.4-0.6-0.6-1.2-0.7-1.9c0.1-0.7,0.9-1.1,1.2-1.8c0.1-0.7,0-1.4-0.3-2c-0.2-0.7-0.1-1.5,0.2-2.2c0.1-0.4,0.3-0.8,0.4-1.1
			c0.2-0.3,0.4-0.7,0.6-1.1c0.1-0.7,0.2-1.4,0.2-2.1c0.1-0.4,0.4-0.5,0.6-0.8c0.2-0.3,0.2-0.7,0.1-1.1
			C680,750.9,679.8,750.2,679.5,749.6z"/>
		<path class="st2" d="M418.4,465.5c-3,1.1-5.8-0.1-8.8,0.1c-3.3,0.3-4.7,0.2-7.4-2c-1.3-1-1.8-2.4-2.7-3.6s-1.8-1.5-3-2.3
			c-2.1-1.3-1.2-3.2-0.9-5.1c0.3-1.8,0-3.7-0.7-5.4c-0.4-1.3-0.6-2.6-0.6-3.9c-0.2-3.1-1.6-5.8-4.5-3.2c-1.4,1.2-1.5,1.6-3.1,0.6
			c-1.1-0.8-2.1-1.7-3-2.8c-1.9-1.8-2-4.8-0.2-6.7c0.2-0.2,0.4-0.4,0.6-0.5c1-0.8,2.2-1.2,2.8-2.4c0.7-1.4,0.1-2.7,0.2-4.3
			c0.1-1.3,1.1-2.4,0.9-3.8c-0.3-2.6-5.2-2.3-7-3.7c-2-1.7-3.5-3.9-4.4-6.4c-1.1-2.7-2.5-4.9-2.3-7.9c0.1-1.8,0.9-1.8,1.7-3.1
			c1.1-1.6,0.3-1.7-0.2-3.2c-0.2-0.6,0.1-1.6-0.2-2.2s-1.1-0.9-1.3-1.2c-0.9-1.7,0.5-5.2,0.9-7.1c0.4-2.2,0.9-4.4,1.3-6.7
			c0.6-3,1.1-6,1.7-9c-5.4-1-10.6-2-15.6-3L351.8,424l0,0c1.2,1.1,2,2.6,2.4,4.2c0.1,0.4-0.1,0.9,0.1,1.4s1,0.6,1.5,1
			s0.5,0.9,0.5,1.5c0.1,0.4,0.2,0.9,0.2,1.4c-0.1,0.5-0.2,1-0.4,1.5c0,0.2,0,0.3-0.1,0.5c-0.2,0.5-0.8,0.6-1.4,0.9s-0.8,0.8-1.1,1.2
			c-0.6,0.6-1,1.4-1.2,2.2c-0.1,1-0.1,2.1-1.1,2.6v0.1c-0.7,0.6-1.4,1.3-2,2c-0.7,0.8-0.6,1.6-0.6,2.6c0.1,0.3-0.1,0.6-0.4,0.8
			c-0.2,0.2-0.6,0.2-0.9,0.5c-0.4,0.2-0.7,0.5-1,0.8c-0.2,0.4-0.4,0.7-0.8,1c-0.2,0.4-0.5,0.5-0.6,1s-0.1,1.5,0.1,1.9
			c-0.8,0.8-0.9,2-0.4,3c0.2,0.5,0.2,1,0.3,1.5c-0.1,0.6-0.2,1.2-0.5,1.8c0,0.2-0.1,0.6-0.1,1s-0.1,1-0.1,1.5s0.4,0.9,0,1.5
			c-0.1,0.3-0.2,0.6-0.3,0.9l-7.9,39.3c13.1,2.6,27.1,5,41.6,7.1c13.9,2,28.3,3.8,43,5.2l7.4-49.9l0,0c-0.9-0.2-4-0.8-4.9-0.9
			C421.5,464.8,419.9,464.9,418.4,465.5z"/>
		<path class="st2" d="M1034.3,414.1c-0.9-0.2-1.5,2.6-2.4,3c-0.6,0.1-1.3,0-1.7-0.5c-0.3-0.6,0.4-1.1,0.5-1.7c0-0.7-0.1-1.4-0.6-2
			c-0.5-0.4-1.2,0-1.5-0.8c-1.7-0.6,0.6-3.1-1.6-3.2c-0.8,0.1-1.5-0.3-1.9-0.9c-0.4-0.5-0.3-1.3-0.9-1.6c-1-0.6-2.7-0.2-3.8-0.5
			c-1.6-0.5-2-1.4-2.2-2.9c-0.1-0.6-0.1-1.1-0.6-1.6c-0.3-0.2-0.5-0.3-0.8-0.5c-0.3-0.2-0.5-0.4-0.9-0.3c0.4-1.2,0.4-2.5,0.2-3.7
			c-0.3-1-0.2-1.9-0.5-2.8c-0.6-2.3-1.3-4.5-2.2-6.6c-0.9-2.1-1.6-4.2-2-6.5c-0.3-2.1-1.3-4.1-2.8-5.8c-1-0.9-2.1-1.6-3.3-2.2
			c-0.8-0.5-1.9-1.9-3-1.4c-0.5,0.2-1,0.9-1.5,1.3c-0.6,0.4-1.1,0.8-1.4,1.4c-0.4,0.6-0.5,1-1.2,1.2s-1.3,0-2,0.2s-1,0.5-1.5,0.5
			c-1.2,0-2.2-1.7-2.7-2.6s-0.6-2.5-1.8-2.5c-1.4-0.1-2.1,1.6-2.3,2.7c-0.5,1.7-1.1,3.4-1.4,5.1c-0.2,1.8-0.6,3.5-1,5.2
			c-0.9,3.2-2,6.3-2.6,9.5c-0.2,0.9,0.4,1.9,0.6,2.8c0,0.8,0,1.7-0.1,2.5c0.1,0.8,0.7,1.2,0.7,2.1c-0.2,0.8-0.3,1.6-0.3,2.3
			c0.1,0.7,0.8,1,1,1.6c0.1,0.9,0.1,1.8-0.1,2.7c0,0.8-0.3,1.6-1,2.1c-0.7,0.5-1.1,0.5-1.1,1.5c0,0.5,0.4,1.8-0.6,1.6
			c0.1,1.2,1.8,4.6,0.5,5.4c-0.3,0.2-0.7-0.1-1,0.2s-0.2,0.8-0.2,1.1c0,0.8-0.1,1.7-0.4,2.5c-0.2,0.7-0.7,1.8-1.6,1.3
			c-0.6-0.3-0.8-1.4-1.5-1.5c-0.2,0-0.5,0.1-0.6,0.2l7.8,27.9c0.2,0.4,0.3,0.8,0.4,1.1s0.4,0.6,0.4,1c0,0.4,0,0.8,0.1,1.1
			c0.1,0.2,0.4,0.6,0.6,1c0.5,0.5,1.2,0.6,1.8,1s0.6,1.8,0.9,2.4c0.1,1,1,1.4,1.8,2s2.1,0.5,3,1.1c0.1-0.8,0.2-1.5,0.1-2.3
			c-0.2-1.6,0.8-1.5,1.5-2.8c0.6-0.9,0.8-2.1,1.2-3c0.6-1,1.4-1.9,2.2-2.7c1.1-1.1,0.2-2.5,0.7-4c0.5,0.3,1.3,1.2,1.8,0.7
			c0.3-0.3,0.3-1.4,0.2-1.7c-0.2-0.6-0.8-1-0.4-1.7c0.3-0.5,0.9-0.5,1.5-0.3c-0.1,0.5-0.4,1.6,0.2,1.9c0.9,0.4,0.8-0.9,0.9-1.4
			c0-0.6,0.2-1.3,0.4-1.9c0.1-0.4,0.1-1.8,0.8-1.7c0.9,0.1,0.3,1.7,0.2,2.2s-0.3,2.1,0.5,2.1s0.7-1.5,0.8-1.9
			c0.1-0.7-0.2-2.4,0.8-2.7s1,0.8,1.1,1.4c0.8,5.1,4.5-3,1.6-3.3c-0.6-0.1-1.2,0.4-1.5-0.3s0.5-0.8,1-1.1c1-0.7,0-2.5-0.4-3.4
			c-0.2-0.4-0.6-1.4,0.2-1.6s0.4,1.1,0.8,1.5c0.8,0.7,1-0.5,0.9-1.1s-0.9-1.2-0.5-1.9c0.7-1.5,2.2,0.1,2.5,1s-0.5,0.9-0.5,1.6
			c0,0.9,1,0.2,1.5,0.1c1.1-0.2,3.7,2,2.7-0.5c-0.4-1-0.7-3,0.7-3.4c1.7-0.5,1.1,1.6,1.3,2.4c0.4,1.4,2.1,0.5,1.9-0.8
			c-0.1-0.6-0.8-0.9-1-1.5s0.3-0.9,0.8-0.5s0.4,1.2,1.1,1.3s0.8-0.7,0.8-1.2s-0.4-3.5,0.8-2.3c0.8,0.8,0,2.6,1.5,2.6
			c0.1-1.1-0.2-2.6,0.1-3.7c0.3-0.9,0.8-1.2,1.2-0.2c0.3,0.7,0.3,1.2,1,1.1c0.6-0.1,1.1-0.3,1.5-0.7c0.8-0.8,0.6-2.3,1.1-3.3
			c0.4-0.8,0.8-1.1,1.3-0.3c0.3,0.7,0.2,1.2,1.2,1.1c0.3-0.9-0.2-1.6,0-2.4s0.8-1.4,1.4-2S1035.9,414.5,1034.3,414.1z"/>
		<path class="st2" d="M843.2,613.3l0.1-0.2l0.2-0.1l0.1-0.1c0.1-0.1,0.2-0.2,0.3-0.3l0.3-0.3c0,0,0.1-0.1,0.1-0.1l0.1-0.1l0.1-0.1
			l0.1-0.1l0.1-0.1c0.1-0.1,0.2-0.2,0.3-0.3l0.1-0.1l0.1-0.1l0.2-0.1l0.2-0.1l0,0l0.6-0.3l0.2-0.1h0.1c1-0.6,1.5-1.8,2.2-2.4h0.1
			l0.1-0.1l0,0c0.3-0.2,0.6-0.3,1-0.3c0.3,0,0.7,0.2,0.9,0.5c0,0.1,0.1,0.1,0.1,0.2l0,0l0.1,0.2l0.1,0.2l0,0c0.3,0.7,0.8,1.4,1.3,2
			c0.1,0.1,0.2,0.2,0.2,0.3c0,0.1,0,0.1,0,0.2c0,0.1,0,0.2,0,0.3c0,0.3,0.1,0.6,0.4,0.9c0.5,0.3,1.2,0.4,1.8,0.2
			c0.2-0.1,0.4-0.2,0.7-0.3l0,0l0.4-0.4l0,0c0.2-0.1,0.5-0.2,0.8-0.3c0.6-0.1,1.2-0.1,1.9-0.3c0.6-0.2,1.2-0.3,1.9-0.4
			c0.5,0.1,1.1,0,1.6-0.1c0.8-0.4,1.4-1,2.1-1.4c0.4-0.2,0.8-0.4,1.2-0.7l0,0c0.2-0.1,0.3-0.2,0.5-0.3l0,0l0.2-0.2l0.2-0.2l0,0
			c0.1-0.1,0.2-0.2,0.4-0.3c0.3-0.3,0.7-0.5,1.1-0.8c0.1-0.1,0.3-0.2,0.5-0.2c0.2-0.1,0.4-0.2,0.7-0.3h0.1h0.1l0.2-0.1l0.3-0.1l0,0
			l0.4-0.2c0.1-0.1,0.3-0.2,0.4-0.2l0,0c0.1-0.1,0.3-0.2,0.4-0.3l0.4-0.3l0.1-0.1c0.1-0.1,0.1-0.1,0.2-0.2l0.1-0.1l0.2-0.2
			c0.4-0.4,0.8-0.9,1.1-1.4c0.2,0,0.5,0,0.7-0.2l0.1-0.1l0.2-0.2l0.1-0.1c0.1-0.1,0.1-0.2,0.2-0.2l0.1-0.1c0-0.1,0.1-0.2,0.1-0.2
			l0.1-0.2c0.1-0.2,0.2-0.5,0.4-0.7c0.5-0.9,0.9-1.9,1.4-2.9l0.1-0.3c0.1-0.2,0.2-0.4,0.3-0.7l0,0l0.2-0.7c0.4-1.1,0.7-2.2,1-3.3
			c0-0.2,0.1-0.3,0.1-0.5h0.1c0-0.1,0-0.2,0-0.3c0-0.1,0-0.2,0.1-0.3c0.1-0.3,0.3-0.5,0.5-0.7h0.1h0.1l0.3-0.1h0.1
			c0.2-0.1,0.4-0.1,0.6-0.2l0,0l0.2-0.1l0,0h0.1l0.1-0.1c0.1-0.1,0.2-0.2,0.3-0.3c0.1-0.1,0.1-0.2,0.2-0.3l0.2-0.3l0,0
			c0-0.1,0.1-0.2,0.1-0.3c0-0.1,0-0.2,0-0.3c0-0.5,0-1,0-1.4c0,0,0-0.1,0-0.2c0,0,0-0.1,0-0.1v-0.1c0.2-0.5,0.6-0.8,0.8-1.1
			c0-0.1,0.1-0.1,0.1-0.2c0-0.1,0-0.1,0.1-0.2v-0.2c0.1-0.3,0.1-0.5,0.2-0.8c0.1-0.7,0.2-1.3,0.4-2c0.1-0.2,0.1-0.4,0.2-0.7
			c0.2-0.6,0.5-1.2,1-1.7l0.1-0.1l0.1-0.1c0.1-0.1,0.2-0.2,0.3-0.2l0.1-0.1h0.1l0.2-0.1h0.1l0,0l0.4-0.1c0.2-0.1,0.5-0.1,0.7-0.2
			l0.3,0h0.2h0.4c0.4,0.1,0.7,0.6,1.1,0.5v0.1h0.6l0,0c0,0,0.1,0,0.1-0.1h0c0.1-0.1,0.2-0.1,0.2-0.2c0.1,0,0.1-0.1,0.1-0.1l0,0
			l0.1-0.1c0.3-0.3,0.5-0.6,0.7-1l0.3-0.4c0.2-0.3,0.4-0.6,0.6-0.9l0.1-0.2c0.1-0.1,0.2-0.3,0.3-0.4c0.4-0.6,0.7-1.2,1-1.8
			c0.1-0.2,0.2-0.5,0.3-0.8c0-0.1,0.1-0.3,0.1-0.4l0,0c0.1-0.1,0.1-0.3,0.2-0.4s0.1-0.3,0.2-0.4s0.1-0.3,0.2-0.4l0,0
			c0.1-0.1,0.1-0.3,0.2-0.4c0.1-0.1,0.1-0.2,0.2-0.4c0,0,0.1-0.1,0.1-0.1c0.1-0.1,0.1-0.1,0.2-0.2l0.1,0l0,0l0.2-0.1h0.2h0.2l0.2,0
			c0.3,0,0.5-0.2,0.7-0.5c0.1-0.1,0.1-0.2,0.1-0.4c0-0.1,0.1-0.2,0.1-0.3v-0.1c0-0.1,0-0.2,0-0.2c0-0.2,0-0.5,0-0.7
			c0.1-0.6,0.4-1.2,0.6-1.8c0.3-0.5,0.7-1,1.2-1.5l0.2-0.2l0.1-0.2v-0.1l0.1-0.2c0.1-0.2,0.1-0.4,0.2-0.6c0,0,0-0.1,0-0.1l0.1-0.3
			c0-0.1,0.1-0.2,0.2-0.3l0,0c0.1-0.2,0.1-0.3,0.2-0.5l0,0c0.2-0.4,0.3-0.8,0.3-1.2c0-0.2,0-0.3,0.1-0.5v-0.5c0-0.3,0-0.7,0-1v-0.3
			c0-1.3,0.1-2.8,1.1-3.6c0.2-0.2,0.4-0.3,0.7-0.3c0.6-0.1,1.1-0.2,1.7-0.2c0.6,0,1.1,0.1,1.6,0.3c0.5,0.2,0.9,0.5,1.3,0.9l0,0l0,0
			l0.1,0c0.5,0.2,1,0.4,1.6,0.4l0,0c0.2,0,0.3,0.1,0.5,0.2c0.2,0.1,0.4,0.2,0.6,0.4l0.1,0.1l0.3,0.3c0,0.1,0.1,0.2,0.2,0.2
			c0,0,0,0.1,0.1,0.1c0.1,0.2,0.2,0.4,0.3,0.6h0l0,0c0,0,0.1,0.1,0.1,0.1h0.2h0.1h0.1c0.5-0.2,1.1-0.2,1.6-0.1l0.3,0.1l0,0
			c0.1,0.1,0.2,0.1,0.4,0.2l0,0l0.1,0.1c0.1,0.1,0.2,0.2,0.2,0.3l0,0c0,0.1,0.1,0.1,0.1,0.2l0,0c0,0.1,0.1,0.1,0.1,0.2
			c0,0,0,0.1,0,0.1c0,0.1,0.1,0.3,0.1,0.4l0,0c0,0.1,0,0.2,0,0.3v0.2c0,0.1,0,0.2,0.1,0.4c0,0.2,0.1,0.4,0.2,0.5l0,0l0.1,0.1l0,0
			l0.2,0.2l0.1,0.1l0.3,0.2l0,0l0.1,0l0,0h0.1h0.1c0.2,0,0.5,0,0.8,0c1,0.1,2,1.3,2.7,1.9c0.5,0.2,0.9,0.4,1.4,0.6
			c0.1,0.1,0.2,0.1,0.3,0.2c0.2,0.1,0.3,0.3,0.5,0.4l0.1,0.1l0.2,0.2l0,0c0.1,0.1,0.2,0.2,0.3,0.4c0.1,0.1,0.1,0.2,0.1,0.4
			c0,0.3-0.1,0.5-0.3,0.8c-0.1,0.1-0.1,0.2-0.1,0.3c0,0,0,0.1,0,0.1s0,0.1,0,0.1v0.1c0,0.1,0,0.2,0,0.4l0,0c0,0.1,0,0.2,0,0.2
			s0,0.2,0.1,0.4l0.3,1.4c0,0.1,0,0.2,0,0.3c-0.1,0.2-0.2,0.4-0.3,0.5l-0.3,0.2c0,0-0.1,0.1-0.1,0.1c-0.6,0.6-1.1,1.4-1.3,2.2
			c0,0.1,0,0.2,0,0.2c0,0.1,0,0.2,0.1,0.3l0.1,0.1l0,0l0.1,0.1c0.3,0.2,0.6,0.3,1,0.3c0.3,0,0.6,0,0.8,0l0,0
			c0.8,1.5,2.3,2.5,3.9,2.8c1.9,0.3,3.5-0.4,5.5,0.3c1.5,0.6,3.7,1,5,2c2.3,1.8,0,3-0.4,4.8c-2.3-0.4-1.1,3.1,0.1,3.6
			s3.6-0.7,3.1,2.1s-1.8-1.4-3.2,0.2s1.1,2.8,2,3.8s2.7,2.7,2.5,4.3c1.1-0.1,1.7,0.8,2.4,0.9s0.8-0.5,1.5-0.5
			c1.3,0.1,2.5,1.1,2.8,2.4c0.2,0.6,0,1.3,0.3,1.8s1.1,0.6,1.4,1c0.8,0.7,1.4,1.8,1.5,2.9h-0.1l-0.5,0.1l-0.4,0.1l-0.5,0.1l-0.5,0.1
			l-0.6,0.1l-0.7,0.1h-0.1l-1,0.2L941,610l-0.5,0.1l-2.3,0.4l-1.3,0.2l-0.8,0.1l-1,0.2l-0.6,0.1l-1.1,0.2l-0.7,0.1l-0.9,0.2l-5.7,1
			l-0.7,0.1l-0.8,0.1l-0.8,0.1l-4.5,0.8l-1.4,0.2l-2.6,0.4l-2.8,0.5l-1,0.2l-11,1.8l-1.3,0.2l-3,0.5l-1.8,0.3l-0.6,0.1l-1.2,0.2
			l-4.8,0.8l-2.6,0.4l-0.9,0.1l-1.8,0.3l-1.5,0.2l-1.4,0.2l-3.8,0.6l-3.9,0.6l-0.5,0.1l-5,0.8H866l-1.6,0.2
			c-0.5,0.1-0.9,0.2-1.4,0.2l-0.5,0.1l-4.2,0.6H858l-4,0.6l-3.2,0.5l-1.1,0.2l-3.2,0.5c-7.4,1-14.9,2-22.1,3l0.1-0.2
			c0,0,0.1-0.1,0.1-0.1c0,0,0-0.1,0.1-0.1c0-0.1,0.1-0.1,0.2-0.2l0,0l0,0l0,0l0.1-0.1l0,0l0.2-0.2l0.2-0.2l0.2-0.2l0.3-0.2l0.3-0.2
			c0.7-0.5,1.5-0.8,2.3-1.1c1.1-0.2,2-0.7,2.9-1.4c0.1-0.1,0.3-0.2,0.4-0.3c0.5-0.3,1.1-0.6,1.7-0.8l0.3-0.1l0.3-0.1l0.2-0.1
			l0.1-0.1l0.2-0.2l0.1-0.1l0.2-0.2c0.2-0.2,0.4-0.4,0.5-0.6v0c0.1-0.1,0.1-0.1,0.2-0.2l0.1-0.1l0.2-0.1c0.1,0,0.2-0.1,0.3-0.1h0.2
			c0.1,0,0.2,0,0.3-0.1c0.5,0,0.9-0.1,1.3-0.2c0,0,0.1,0,0.1,0h0.1l0,0h0.1l0.2-0.1l0,0l0.1-0.1l0.1-0.1l0.2-0.2l0.1-0.1l0.3-0.3
			c1.3-1.5,1.6-3.9,2.8-5.4l0.2-0.2l0.2-0.2l0.4-0.4"/>
		<path class="st2" d="M850.1,607.6c0.3,0,0.7,0.2,0.9,0.5C850.7,607.8,850.4,607.6,850.1,607.6c-0.4,0-0.7,0.1-1,0.3l0,0
			C849.4,607.7,849.7,607.6,850.1,607.6z"/>
		<path class="st2" d="M852.7,610.6c0.2,0.1,0.2,0.2,0.2,0.3C852.8,610.8,852.8,610.7,852.7,610.6c-0.6-0.6-1-1.3-1.3-2
			C851.7,609.3,852.1,610,852.7,610.6z"/>
		<path class="st2" d="M855,612.5c0.2-0.1,0.4-0.2,0.7-0.3C855.5,612.3,855.3,612.4,855,612.5c-0.6,0.2-1.2,0.1-1.8-0.2
			c-0.2-0.2-0.4-0.5-0.4-0.9c0-0.1,0-0.2,0-0.3c0,0.1,0,0.2,0,0.3c0,0.3,0.1,0.6,0.4,0.9C853.8,612.6,854.5,612.7,855,612.5z"/>
		<path class="st2" d="M864.3,609.6c0.4-0.2,0.8-0.4,1.2-0.6C865.1,609.2,864.7,609.4,864.3,609.6c-0.8,0.4-1.4,1-2.1,1.4
			c-0.5,0.2-1.1,0.2-1.6,0.1c-0.6,0.1-1.3,0.2-1.9,0.4c-0.6,0.1-1.2,0.1-1.9,0.3c-0.3,0.1-0.5,0.1-0.8,0.3c0.2-0.1,0.5-0.2,0.8-0.3
			c0.6-0.1,1.2-0.1,1.9-0.2c0.6-0.2,1.2-0.3,1.9-0.4c0.5,0.1,1.1,0,1.6-0.1C862.9,610.6,863.5,610,864.3,609.6z"/>
		<path class="st2" d="M865.5,609c0.2-0.1,0.3-0.2,0.5-0.3C865.8,608.8,865.6,608.9,865.5,609z"/>
		<path class="st2" d="M866.2,608.5l0.2-0.2L866.2,608.5l-0.2,0.2L866.2,608.5z"/>
		<path class="st2" d="M868.2,606.9c0.2-0.1,0.4-0.2,0.7-0.3C868.7,606.7,868.5,606.8,868.2,606.9z"/>
		<path class="st2" d="M870.1,606.2c0.1-0.1,0.3-0.2,0.4-0.2C870.4,606,870.2,606.1,870.1,606.2z"/>
		<path class="st2" d="M870.5,605.9c0.1-0.1,0.3-0.2,0.4-0.3C870.8,605.7,870.6,605.8,870.5,605.9z"/>
		<path class="st2" d="M870.9,605.6l0.4-0.3L870.9,605.6z"/>
		<path class="st2" d="M871.7,604.8l0.2-0.2L871.7,604.8l-0.1,0.1L871.7,604.8z"/>
		<path class="st2" d="M873.6,603.1c-0.2,0.1-0.4,0.2-0.7,0.2l0,0C873.2,603.3,873.4,603.2,873.6,603.1z"/>
		<polygon class="st2" points="877.9,593 878,593 878,593 		"/>
		<path class="st2" d="M878.8,591.6l0.3-0.1L878.8,591.6z"/>
		<path class="st2" d="M879.2,591.5l0.6-0.2C879.5,591.4,879.3,591.4,879.2,591.5z"/>
		<path class="st2" d="M885.2,580.2c0.2-0.1,0.5-0.1,0.7-0.2C885.6,580.1,885.4,580.2,885.2,580.2z"/>
		<path class="st2" d="M888,580.6h-0.1v-0.1c-0.4,0.1-0.8-0.4-1.1-0.5h-0.4h0.4c0.4,0.1,0.8,0.6,1.1,0.5v0.1H888z"/>
		<path class="st2" d="M888.9,580.2c0.1,0,0.1-0.1,0.1-0.1C889,580.2,889,580.2,888.9,580.2z"/>
		<path class="st2" d="M893.8,571.9c0.1-0.1,0.1-0.1,0.2-0.2C893.9,571.7,893.8,571.8,893.8,571.9z"/>
		<path class="st2" d="M897.9,565.5l-0.1,0.2l-0.2,0.2l0.2-0.2L897.9,565.5z"/>
		<path class="st2" d="M918.7,816.5c-0.2-1.7-0.5-3.4-1-5c-0.7-3.1-2-6.2-3-9.3s-1.9-6.6-3.7-9.1c-1-1.4-2.2-2.7-3.5-3.7
			c-1.2-0.9-3-1.4-2.9-3.2c1.6,1.1,3.1,3.9,4.8,4.5c2,0.8,0.4-1.4,0-2.4c-0.5-1.6-0.4-2.5-1.6-3.8c-2.1-2.1-2.9-5.2-4.2-7.8
			c-1.3-2.2-2.9-4.3-4.8-6.1c-1.1-1.2-2.3-1.6-3.3-2.9s-1.9-2-2.6-3.5c1.2,0,4.4,1.6,4.1-0.7c-0.2-1.5-2.5-2.2-3.6-2.9
			c-1.9-1.4-5-3.3-6-5.5c-0.5-1.5-0.9-2.9-1.2-4.5c-0.5-1.5-0.8-2.9-1.2-4.4c-0.8-2.9-1.7-5.7-2.9-8.5c-0.5-1.1-1.4-2-2-3.1
			c-0.7,0.7-1.4,1.3-2.1,2c-0.9,0.9-2.2,0.2-3.4-0.2c-0.9-0.5-2.1-0.2-2.6,0.7c-0.1,0.1-0.2,0.3-0.2,0.5c-0.4,1.3,0,2.2,0,3.4
			c-0.2,1.3-0.6,2.6-2.1,2.2c-1.3-0.2-1.3-1.7-2.4-1.9c-0.6-0.1-1.3-0.1-1.9,0l-42,3.4c-0.3,0-0.6,0-0.9,0c0.1-0.1,0.2-0.2,0.4-0.2
			l-0.3,0.1c0.4-0.2,0.8-0.3,1.2-0.4c-1.3-0.1-2.4-2.8-2.8-4.5l-35.7,3.9c-2.1,0.2-7,1.7-8.8,0.5c-0.3,1.4,0.4,2.4,1.3,3.5
			c0.4,0.5,1.1,0.9,1.3,1.6s-0.2,1.7,0,2.5c0.5,1.4,1.6,1.7,1.8,3.4c0.1,0.9,0.2,1.9,0.1,2.9c0.9,0.1,1.8-0.9,2.6-1.4
			c1-0.9,2.5-1.2,3.8-0.8c-1.4,2.4,4.4,0.7,4.7-0.4c-0.6,0.2-1.2,0.2-1.8,0.1c0.9-1.8,2.3-3.2,4.1-4.2c1.8-0.7,4.3,0.2,6,0.9
			c-0.6-0.2-1.5,0-1.5,0.8c0,0.9,1.1,0.3,1.7,0.2c1.4-0.2,2.8-0.4,4.2-0.5c1.6,0,2.3,0.6,3.5,1.5c0.8,0.6,2.5,2.8,3.2,2.8
			c0.3-1.4-0.9-2.6-0.4-4c0.8,1.4,3.6,2.8,3.4,4.6c-0.4,0-0.5,0.2-0.9,0.2c0.7,0.8,1.5,1.5,2.4,2c0.8,0.5,2.5,0.3,3,1.3
			s-0.2,2.4,0.2,3.4c0.7,0,1.1-0.5,1.5-1.1c1.5,0.8,3-2.7,4.8-1.4c1.1,0.7-0.1,2.1,1.5,2c1.1-0.1,1.5-1.2,1.5-2.2
			c2.1,1,2,0.4,2.7-1.4s1.7-1.7,3.5-1.8c0-0.8-0.9-0.7-0.9-1.5c0-0.3,0.8-1,1-1.3c0.8-0.8,2.3-0.9,2.8-1.7c3.2,1.2,6.2,3.3,9.3,4.8
			c1.5,0.7,2.8,1.7,3.8,3c0.8,1,0.8,2.3,1.9,3.1c0.5,0.4,1.1,0.3,1.6,0.8s0.4,1.5,1,2.1c1.2,1.2,3,0.2,4.5,0.8c2,0.8,3.3,4,4.7,5.6
			c1.7,2,1.6,4.1,1.3,6.6c-0.3,2.6-2.8,4.8-1.6,7.6c0.6,0.9,0.8,2,0.5,3c-0.2,1.3-0.5,2,0.2,3.2c0.2,0.4,1.3,2,1.8,2.2
			c1.5,0.4,1-1.1,1.1-2.2c1.5,0.3,1.1-2.1,2.9-1.7c0.3,2,0,4.1-0.8,6c-1,2-1.2,2.8,0.7,4.4c1.5,1.3,1.5,2.3,2.5,3.9
			c1.6,2.4,2.5,8.2,6.6,6.9c-0.9-1.8-0.1-5.2,1-2c0.4,1.3,0.1,5.7,2.2,5.6c0.1-0.5,0.4-2.2,1.3-1.8s0.3,1.8,0.2,2.4
			c-0.1,0.4-0.2,0.8-0.2,1.2c0.1,0.5,0.6,0.6,0.7,1c0.2,0.8,0,1.7,0.2,2.5c0.9,2.7,3.3,4.5,4.9,6.7s3.7,2.1,6.6,2s3.8,0.5,5.4,2.8
			c1.8,2.6,2.2,3.4,5.2,2.2c3.9-1.5,3,2.1,0.2,3.1c-1.3,0.5-6.5-0.1-6.5,2.3s4.7,1.3,5.9,0.9c2.4-0.9,4.8-1.2,7.2-2.1
			c4.9-1.8,2.5-11.6,4-15.7c0.8,0.8,1.1,4.1,1.7,1.5c0.4-1.6-0.3-3.8-0.6-5.4C918.9,819.8,918.7,818.1,918.7,816.5z"/>
		<path class="st2" d="M760.7,461c-1,0.3-1.8,3.4-2.3,4.2c-0.8,1.6-1.7,3.1-2.8,4.5c-2,2.7-3.7,5.6-5.8,8.4c0-0.6,0.1-1.1,0.2-1.7
			c0-0.5,0-1-0.1-1.6c0-2.1,1.3-3.6,2.3-5.3c1.2-2.1,1.3-4.5,2.2-6.7c0.1-0.2,0.2-0.4,0.3-0.6c-0.6-0.2-1.1-0.5-1.6-0.8
			c-0.5-0.4-0.9-1.3-1.6-1.6s-1.6,0.6-2,0.2s0.1-1.6,0.2-2c0.2-0.8,0.2-1.6,0.3-2.4c0.1-0.5,0.6-1.4,0.6-1.9c-0.1-1-0.8-0.6-1.5-0.9
			c-0.6-0.3-1.2-0.6-1.9-0.8c-0.8-0.1-1.7,0.3-2.1-0.4s0.2-1.5-0.3-2s-1.5-0.1-2.3-0.2s-1.3-0.7-2.1-0.7s-1.3,0.5-2.2,0.5
			c-0.7,0-1.4-0.3-1.8-0.9c-1.6-1.3-4-1.8-5.9-2.1c-0.6-0.1-1.1-0.3-1.7-0.4c-0.4,0-0.8,0-1.2-0.1c-0.9-0.2-1.9-0.4-2.8-0.5
			s-1.7-0.6-2.6-0.6l-2.3-0.3c-1.9-0.3-3-2.1-3.7-3.7c-0.3-0.7-0.7-1.4-1.2-2c-0.4-0.3-0.9-0.7-1.3-0.9c-0.1,0-0.2-0.1-0.2-0.1
			c-1.4,0.5-1.7-0.7-2.8-1.4c-1.7-1-1.5,1.3-2.9,1.2c-0.5,1-0.8,1.6-2,1.1c-0.3-0.1-1-0.4-1-0.8c0-0.8,0.6-0.4,1.1-0.6
			c1.2-0.7,0.2-1.7,0.2-2.7s0.9-1.6,0.7-2.8c-2.1,0.1-4.1,0.7-6,1.7c-1.7,1-3.1,2.3-5,2.8c-1.2,0.4-4.1,0.7-5.3,0.1l0,0
			c-0.2,0-0.4,0-0.7,0c-3.2,0-2.2,3.3-2.1,5.3s0.2,3.9,0.2,5.9s0.4,2.8-1.3,4c-2.3,1.6-4.9,3.9-5.2,6.8c-0.1,0.8-0.4,2,0.1,2.8
			s1.6,0.9,2.1,1.6c0.7,1,0.3,1.6-0.3,2.6c-0.5,0.8-0.9,1.7-0.9,2.7c-0.2,2-0.3,4.1-0.6,6.1c-0.2,0.9-0.2,1.9,0.1,2.9
			c0.4,0.7,1.8,1.1,2.4,1.6c0.9,0.8,1.2,1.3,2.3,1.5c0.9,0.1,1.9,0.3,2.8,0.6c0.8,0.3,1.7,0.6,2.6,0.6c1,0,1.8-0.4,2.6,0.4
			c0.5,0.8,1,1.5,1.4,2.3c0.6,0.8,1.1,1.6,1.6,2.4c0.5,0.8,1.3,1.5,2.2,2c1.1,0.7,0.9,1.1,1.5,2.1c1,1.7,3.2,1.8,4.3,3.3
			c0.5,0.8,0.8,1.8,0.8,2.7c0.1,0.6,0.5,0.5,0.3,1.1s-0.7,0.8-0.9,1.2c-0.2,0.6-0.2,1.3-0.1,1.9c0,0.1,0,0.2,0,0.4
			c0.1,1.3,0.4,2.6,1,3.7c0.5,0.8,0.8,1.8,0.8,2.8c-0.1,1.1-0.8,1.2-1.2,2c-1,2,1.3,3.5,1.9,5.1c0.3,0.9,0.2,1.9,1.1,2.6
			s1.9,0.3,2.8,0.5c1,0.3,1.8,1,2.1,2l41.1-3.8c0-1.5,0-3.1-0.1-4.7c-0.3-3.8-2.9-6.9-2.6-10.9c0.2-1.7,0.7-3.4,1.4-4.9
			c0.5-1.6,0.7-3.2,0.7-4.8c0.2-3.6,1.4-7,1.8-10.6c0.1-1.9,0.3-3.8,0.7-5.7c0.6-1.6,1.5-3.1,2.5-4.4c1.1-1.8,1.7-3.8,1.8-5.9
			C761.7,463.5,761.8,460.6,760.7,461z"/>
		<path class="st2" d="M349.5,659.8L349.5,659.8c-0.1-0.2-0.1-0.3-0.1-0.4c-0.3-0.5-0.7-0.9-0.9-1.3s-0.7-1.5-1.2-1.6
			c-0.7-0.2-1.3-0.8-1.4-1.6c-0.2-0.6,0-0.6,0.3-1s0.2-0.8,0.3-1.2c0.1-0.3,0.1-0.7,0-1c-0.2-0.5-0.6-0.9-0.5-1.4
			c0.2-0.7,0.2-1.4,0.1-2.2c0-0.6,0-1.2,0.1-1.7l-67.7-94.5l1.7-5.2l13.1-52.7c-29.1-7.1-50.4-13.7-59.1-16.5
			c0.1,1.7-0.4,3.5-0.2,5.2c0.2,1,0.2,2,0.2,3.1c-0.2,0.7-0.5,1.4-0.9,2.1c-0.6,1.6-0.3,3.3-1.1,4.8c-0.5,0.8-0.9,1.6-1.1,2.5
			c-0.1,0.9,0.1,1.5-0.6,2.1c-0.5,0.5-1.4,0.4-1.4,1.2s1.1,1,0.7,1.8c-0.5,1.2-3.1,0.6-4,1.8c-0.9,1.3-1.5,2.9-1.8,4.5
			c-0.1,1.5,1.1,3.1,1.7,4.5c0.7,1.8,0.7,3.8,1.6,5.5s1.5,2.8,1.4,4.8c0,1.9-0.2,3.7-0.6,5.5c-0.4,1.5-1.7,3.1-1.4,4.7
			s1.1,3.2,1.1,4.8c0,1.1-0.9,1.6-1.2,2.5s0.1,1.3,0.5,2.1c1,2,2,4.1,2.8,6.2c0.5,1.1,1,2.1,1.7,3c0.7,1,1,2.1,0.9,3.3
			c0.1,1.1-0.2,2.2-0.9,3.1c-0.6,0.8-1.9,1.4-0.5,2.2c1.1,0.6,1.7,0.5,2.4,1.6c0.3,0.4,0.5,1.1,1,1.2s0.8-0.5,1.3,0
			c0.3,0.3-0.1,1.1,0.3,1.6s1,0.2,1.3,0.6c0.6,0.8-0.6,2.1-0.7,2.8c-0.1,0.6,0.1,1.1-0.4,1.6s-0.9,0.2-1.1,0.8
			c-0.4,1,1.1,1.8,1.1,2.7c0.1,2.7-1.4,4.4,0.5,6.8c0.5,0.9,1.1,1.7,1.8,2.5c1,0.6,1.9,1.3,2.7,2c0.8,0.7,1.2,1.7,1,2.8
			c-0.1,0.7-0.1,2.6-1.3,2.2c-0.1-0.6-0.4-1.7-1.2-1.5c0,1.3-0.2,2.6-0.6,3.9c-0.4,1.3-1.1,2.1-0.7,3.5c0.6,2.7,2.4,4.3,3.5,6.7
			c0.4,1,1.2,1.9,1.1,3c-0.1,1.3-0.9,2.1,0.5,3s1.1,1,1.5,2.4c0.4,1.1,1.3,1.2,1.7,2.3c0.2,0.6,0.1,1.1,0.6,1.5s0.9,0.3,1.3,0.7
			c1,0.9,2.3,4.1,1.6,5.4c-0.1,0.2-0.4,0.2-0.5,0.4c-0.1,0.2-0.1,0.5-0.2,0.7c-0.3,0.5-0.5,1-0.6,1.6c0.5-0.4,0.9-1.5,1.6-1.4
			c0,0.2,0.1,0.4,0,0.6c0.6,0,1.2,0.2,1.6,0.7c0.9,1.3-0.6,2.6-0.7,3.9c0.1,0.7,0.1,1.3,0,2c-0.2,0.6-0.4,1.2-0.6,1.8
			c-0.1,0.7,0.1,1.4-0.3,2s-1.1,0.7-1.4,1.3c-0.6,1.2,1.4,2.1,2.2,2.7c1.1,0.9,2.4,1.6,3.8,1.8c1.3,0.2,3,0.1,4.2,0.8s1.7,1.9,3.3,2
			c1.4,0.2,2.8,0.5,4.1,1c1.8,0.5,2,1.6,3.1,3c0.4,0.6,1,1,1.5,1.5s0.7,1.6,1.1,2.3c0.6,1.1,2.4,1.6,3.5,2.2c1.4,0.7,2.7-0.1,4,1
			c1.1,0.9,2.4,1.9,2.2,3.4c-0.1,1.3-0.3,3.2,1.6,3.2c1.3,0,2.3-1.5,3.3,0.2c0.8,1.3,0.9,2.4,2,3.5s2.6,1.6,3.4,2.9
			c1.1,1.7,2,3.5,2.6,5.4c1.1,3.6,0.8,7.2,0.5,10.8c0.8-0.3,0.8-1.1,1.8-1.2s1.8,0.6,1.1,1.5c-0.6,0.7-1.7,0.2-2,1.3
			c-0.1,0.6,0,1.3,0.1,1.9c0.2,0.9,0.3,0.7,1,0.6c0.4,0,0.8,0.1,1.2,0.2c1.2,0.2,2.4,0.3,3.6,0.3c3.4,0.3,6.8,0.7,10.2,0.9
			c3.8,0.3,7.7,0.7,11.5,1.1c3.1,0.3,6.2,0.6,9.4,0.9l3.6,0.3c0.2-0.2,0.5-0.4,0.8-0.4c0.7-0.1,1.8,0.2,2.2-0.5
			c0.2-0.7,0.3-1.4,0.3-2.1c0-0.4,0.4-0.7,0.7-0.9c-0.1,0.1-0.6-0.1-0.8-0.2v-0.1c-0.1,0-0.2-0.1-0.3-0.2s-0.4-0.3-0.6-0.5
			s-0.7-0.2-0.9-0.4c-0.6-0.5-0.6-1.5-0.8-2.1c-0.1-0.4-0.1-0.7-0.2-0.9c-0.2-0.3-0.2-0.7,0-0.9c0.4-0.5,0.9-1.4,1.5-1.4
			c0.7,0,1.3-0.3,1.7-0.9c0.2-0.6-0.1-1.3,0.3-1.8s1.4-0.3,1.8-0.8s0.8-0.8,0.7-1.5c-0.1-0.8-0.6-1.4-0.3-2.2c0.1-0.4,0.4-0.7,0.4-1
			c0-0.2-0.1-0.4-0.2-0.7c-0.2-0.2-0.6-0.3-0.6-0.7s0.4-0.3,0.8-0.5c0.2-0.2,0.5-0.3,0.7-0.6c0.6-0.8-0.1-1.9,0.8-2.5
			c0.7-0.4,1.5-0.7,2.3-0.8c0.6-0.1,0.8-0.4,1.2-0.6c0.2-0.1,0.4-0.2,0.7-0.2h0.3c0.3-0.1,0.1-0.2,0.2-0.4c0.3-0.5,0.6-0.5,0.6-1.1
			c0-0.4,0.2-1.2,0-1.5S349.6,660,349.5,659.8z"/>
		<path class="st2" d="M633.3,467.5c-1.5-1.3-2.8-2.9-3.9-4.6c-0.7-1.1-0.9-2.5-0.7-3.8c0.1-1.8,1.1-3.4,1.5-5.1
			c-24.3,0.7-89.3-3.2-102.9-4.1l-1.3,18.8l-2.8,39.7c10.1,0.7,65.5,4.6,80.6,3.8c0.2,0,0.4,0,0.6,0.1c0.5,0.2,1.1,0.4,1.6,0.6
			c0.5,0.1,1,0.4,1.4,0.7c0.5,0.3,0.7,0.8,1.1,1.1c0.4,0.3,0.9,0.4,1.4,0.5l1.5,0.3c0.9,0.1,2-0.1,2.9-0.1s2-0.1,3-0.1
			c0.4,0,0.8,0.1,1.3,0.1c0.5,0,1,0.2,1.4,0.5c0.9,0.4,1.9,0.7,2.9,0.8c0.5,0,1,0,1.5,0c0.6,0,1.1,0.3,1.4,0.8
			c0.4,0.6,0.9,1.1,1.6,1.4c0.5,0.3,1.1,0.5,1.7,0.7c0.6,0.2,1.1,0.2,1.7,0.4h0.1c0-0.2,0-0.3-0.1-0.5c-0.3-0.9-0.5-1.9-0.4-2.8
			c0.1-0.5,0.2-0.9,0.3-1.4v-1.4c-0.1-0.5-0.2-1-0.5-1.5c-0.1-0.4,0-0.9,0.1-1.3c0-0.5,0.1-1,0.4-1.5c0.3-0.4,0.4-0.8,0.4-1.3
			c-0.1-0.6-0.6-0.8-0.8-1.2c-0.3-0.4-0.4-0.9-0.3-1.4c0.1-0.6,0.6-0.8,0.5-1.3c0-0.4-0.1-0.8-0.2-1.1h3.4L633.3,467.5z"/>
		<path class="st2" d="M858.8,511.4c-0.9,0.7-1.6,1.8-2.4,2.6s-2,1.3-2.9,2.2s-1.1,1.9-2,2.5c-1.1,0.7-2.4,0.7-3.2,2s-0.8,2.8-2,3.9
			c-1,0.9-2.3,1.2-3.5,1c-1.1-0.1-2.6-0.4-3.7,0.1s-1.4,1.9-2.5,2.4s-2.3-0.2-3.4-0.2s-2.1,0.1-3.2,0.1c-0.6,0-3.1,1-3.5,0.6
			c-0.6-0.8,2.3-1.9,2.8-2.1c-1.3,0.1-4.1,0.5-4.6-1c-1.4,0.5-2-0.2-3.2-0.6c-0.8-0.2-2.1,0-2.6-0.7c-4.8,0.9-16.9,2.3-18.8,2.5
			l7.9,55c0.6-0.3,1.2-0.6,1.9-0.7c0.9,0,1,0.6,1.7,0.7s1.7-0.2,2.4,0c1.2,0.3,2.5,1.4,3.8,2.1c1.3,0.7,2.7,1.3,4.1,1.7
			c1.6,0.4,2.7,0,4.3-0.1c3,0,5.2-1,8.1,0c2.3,0.8,3.6,1.4,4.4,2.9c0,0.1,0.1,0.2,0.1,0.2c0.9-0.2,2.9,0.1,3.5-0.4
			c0.8-0.6,0.4-1.7,1.1-2.2c0.6-0.2,0.8,0,1.3-0.6c0.3-0.2,0.5-0.6,0.6-0.9c0.2-0.9-0.9-1.7-1.1-2.4c-0.4-1.1,0-1.5,0.4-2.4
			c0.6-1.1,0.2-3,1.1-3.8c0.9-0.9,1.3,0.2,2.1,0.6c0.6,0.1,1.3,0.1,1.9-0.2c0.6-0.6,0.4-0.9,0.4-1.5c-0.1-0.9-0.1-1.9,0.2-2.8
			c0.6-0.8,1.4-1.4,2.2-1.9c0.8-0.9,2.2-1.1,3.2-1.9c0.5-0.4,0.9-0.8,1.3-1.3c0.2-0.6,0.9-1.1,1.1-1.7s0.2-1.5,0.8-1.9
			c0-0.4,0.2-0.4,0.4-0.8c0.4-0.7,1-1.3,1.7-1.6c0.5-0.2,1-0.6,1.5-0.9c0.2-0.5,0.2-1.1,0.2-1.7c0-1.1-0.6-2.1-0.6-3.2
			c-0.1-1.2,0.1-2.4,0.4-3.6c0.4-1,0.8-2.1,1.1-3.2c0.4-1.5,0.3-3-0.4-4.4c-0.2-0.3-0.3-0.7-0.5-1c0.4-0.6,0.2-1.5,0.4-2.1
			c0.4-0.6,1.3-0.8,1.5-1.3c0.2,0.1,0.3,0.1,0.5,0l-4.8-28.8C859.7,510.9,859.2,511.2,858.8,511.4z"/>
		<path class="st2" d="M743.2,629.2c-0.2-0.4-0.6-0.6-1-0.8c-1.3-0.4-1.3,0-2-1.2c-0.6-1-1.2-1.3-1.9-2.1c-1-1.3-0.3-4.2-0.5-5.9
			c0-1-0.3-1.9-0.8-2.8c-0.6-0.8-1.5-1.2-1.9-2.2c-0.3-0.7-0.1-2.1-0.9-2.6s-2,0.2-3-0.1c-1.5-0.6-3.1-2.9-4.2-4.2s-3.4-1.7-3-4
			c0.1-0.6,0.4-0.8,0.6-1.2c0.1-0.4,0.2-0.9,0.2-1.4c0.1-0.9,0.4-1.8,0.8-2.6c0.9-1.9,0.9-4-0.1-5.9c-0.5-1.3-2-1.9-3.3-1.3
			c-0.4,0.2-0.8,0.5-1,0.8c-0.9,1-1,0.9-2.1,0c-0.8-0.7-1.3-1.5-1.5-2.5c-0.3-1.6-0.4-3.9-1.7-5.1c-0.6-0.6-1.6-0.7-2.3-1.3
			c-0.7-0.6-1.3-1.4-1.8-2.2c-1.1-1.6-2.7-1.8-4-3.4c-1.2-1.3-2-3-2.4-4.7c-0.3-1.7-1.3-3.5-1.2-5.3c0.2-0.9,0.4-1.8,0.4-2.8
			c-0.1-0.9-0.7-1.9-0.7-2.8c0-0.1,0-0.2,0.1-0.3l-0.3-0.2c-0.4-0.2-0.7-0.4-1.1-0.6c-0.2-0.2-0.4-0.3-0.6-0.6
			c-0.2-0.2-0.6-0.5-0.8-0.8s-0.4-0.4-0.4-0.6l-57.7,1.9c0.3,1.8,0.7,3.5,1.2,5.2c0.6,1.6,2.5,2.2,3.5,3.6c0.5,0.7,0.9,1.6,1.1,2.5
			c0.1,0.3,0.2,0.7,0.3,1c0.2,0.5,0.4,0.9,0.8,1.3c1.3,1.2,2.9-0.3,3.9,1.2s-0.1,3-0.7,4.3c-0.2,0.7-0.2,1.4-0.1,2.1
			c0,0.8-0.2,1.5,0.1,2.2s1.3,1.1,1.9,1.6s1.2,1.3,1.9,1.9c0.9,0.8,2.5,1.8,2.4,3.2l1.4,41.8l0.4,10.5c12.2,0,67-3.4,69.1-3.6l0,0
			l-0.1-0.2c0.1,0,0.1,0.1,0.1,0.1h0.1v0.1l0,0c0.5,0.6,0.8,1.3,0.9,2.1c0,0.4,0,0.9-0.2,1.3c-0.2,0.5-0.4,0.9-0.6,1.4
			c-0.5,1.2-2.8,5.3-0.1,5.1s5.3-0.2,7.9-0.6c0-0.3,0.1-0.6,0.1-0.9c-0.1-1.9-0.1-3.8,0.1-5.8c0.2-0.8,0.6-1.6,1.1-2.3
			c0.1-0.1,0.1-0.3,0.2-0.5c0-0.1,0-0.1,0-0.2l0.1-0.3l0.2-0.7l0.1-0.2l0,0c0-0.1,0-0.1,0.1-0.2c0-0.1,0-0.1,0.1-0.2l0.1-0.1
			c0-0.1,0.1-0.2,0.1-0.2c0.9-1.1,1.5-0.1,2.6-0.5s0.6-3.4,0.5-4.4C743.7,631.2,743.6,630.2,743.2,629.2z"/>
		<path class="st2" d="M948.6,559.1c-1.4-0.8-2.5-1.9-3.4-3.2c-0.8-1.4-0.5-3.2-1.6-4.4c-0.5-0.6-2.9-2.1-2.1-3.2
			c0.3-0.4,0.7-0.2,1.2,0.2c0,0,0,0,0,0c-0.3-0.7-0.8-0.8-0.8-1.5v-1c0-0.7-0.9-1.2-0.9-2.1c0-0.5,0.2-0.9,0.6-1.2
			c-0.2-0.1-0.3-0.1-0.5-0.2c-0.6-0.2-1.3-0.4-2-0.4c-0.6-0.2-1.2-0.1-1.8,0.2c-0.6,0.4-1.3,0.7-2,1c-0.4,0.1-0.8,0.2-0.8,0.6
			s-0.1,0.6-0.2,0.8c-0.2,0.3-0.5,0.5-0.8,0.7c-0.2,0.2-0.4,0.5-0.5,0.8l3.8-0.7l4.3,19.5l9.8-3c0,0,0-0.1,0-0.1
			C950.4,560.7,949.6,559.7,948.6,559.1z"/>
		<path class="st2" d="M990,485.2c-2.3,0.2-4.6,0.6-6.9,1.2l3.9,15.2c0.3,0.2,0.7,0.3,0.8-0.3s-0.6-0.6-0.7-1c-0.1-0.3-0.1-0.7,0-1
			c0.5-0.2,1-0.5,1.4-0.8c0.3-0.3,0.7-0.5,1.1-0.7c0.5-0.2,1.1,0,1.6-0.2c1.1-0.5-0.3-2.1-0.3-3.1c0-1.1,1.4-2.5,2.5-1.6
			c0.7,0.6,0.7,2.4,1.9,2.2c0.8-0.1,1-0.9,1.1-1.7C993.6,491.5,991.3,488.6,990,485.2z"/>
		<path class="st2" d="M980.4,508.3c-1,0.3-1.9,0.9-2.4,1.8c-0.7,0.8-1.6,1.6-2.7,1.5c0-1.1,1.6-2.2,2.3-3s2.6-2.1,2.3-3.5
			c-0.8-0.4-1.5,0.9-2,1.4c-1.3,1-2.6,1.9-3.9,2.8c-0.7,0.2-1.3,0.4-2,0.5c-0.8,0.1-1.5,0.3-2.2,0.8c-0.6,0.5-1.1,1-1.7,1.5
			c-1.3,1.1-2.6,0.1-3.9,0.7c-1.5,0.8-1.2,3.1-3.3,2.4c0.3-0.9,0.6-1.7,1-2.5c0.1-0.3,0.2-0.5,0.4-0.8l-4.6-19.5
			c0,0,0.1-0.1,0.1-0.2s0.1-0.6,0.1-0.8c0-0.5,0-0.9,0.1-1.4c0.1-1,0.4-1.9,0.4-3c0.2-2.5,0.1-5.1-0.2-7.6l0,0l0,0
			c-0.1-0.5-0.2-1-0.3-1.5c0-0.5,0-0.9-0.1-1.4c-0.1-1,0.1-2.1-0.1-3.1c-0.2-1-0.5-2-0.8-2.9c-0.2-0.5-0.4-1-0.5-1.5
			c-0.1-0.2,0-0.5-0.1-0.8c-0.1-0.3-0.3-0.5-0.5-0.8c-0.4-0.9-0.9-1.8-1.2-2.7c-0.5-1-1-1.9-1.7-2.7c-0.2-0.5-0.3-1.1-0.3-1.7v-1.5
			c0-0.6,0-1.1,0-1.7c0.1-0.5,0-1.1-0.1-1.6c-0.5-1.9-1.2-3.8-0.6-5.8c0.1-0.5,0.2-0.9,0.3-1.4c0-0.4,0-0.8,0.2-1.2
			c0.1-0.3,0.3-0.5,0.4-0.8s0.1-0.5,0.1-0.8c0-0.4-0.2-0.9-0.4-1.2c-0.3-0.5-0.6-1-0.8-1.6c-0.1-0.4-0.2-0.9-0.1-1.3
			c0-0.7-0.2-1.4-0.6-2.1c-0.3-0.9-0.4-1.9-0.4-2.8c-0.1-0.8-0.2-1.7-0.3-2.5l-8.3,1.9c-3.2,0.7-6.4,1.5-9.7,2.1l-4,0.9
			c-0.4,0.4-0.9,0.6-1.3,1s-0.8,1.1-1.2,1.6c-1.7,1.7-3.6,3.2-5.2,5.1c-0.9,1-1.7,2.1-2.6,3.1c-0.8,0.7-1.4,1.6-1.8,2.6
			c-0.1,0.5-0.1,1,0,1.5c0,1.5-0.8,3-2.2,3.7c-1,0.7-1.9,1.5-2.7,2.4c-0.6,0.6-3.2,1.8-3,2.9s2.4,0,2.8-0.5c1-0.8,1.1-1.8,2.6-1.5
			c0,0.4,0,0.9-0.1,1.3c-0.4,1.8-2.1,2.5-1.4,4.5s1.4,3.2-0.6,4.5c-1.5,1-3,1.7-3.9,3.3s-1.2,3.1-3.4,2.9c-0.8-0.2-1.7-0.2-2.5-0.1
			c-0.8,0.3-1.6,0.6-2.2,1.1c-1.6,0.9-3.4,1.6-5.2,1.1s-3-1.3-5-0.5c-0.8,0.4-1.6,0.6-2.4,0.6c-0.8,0-1.6-0.3-2.4-0.3
			c-1.6,0.1-3.4,1-5,1.5c-1.5,0.6-2.9,1.4-4.1,2.5c0.8,0.6,1,1.3,1.6,2.1s1.4,0.9,1.8,1.7c0.9,1.5,0.7,3.3,0.4,5
			c-0.2,1.6-1,3.2-2.3,4.2c-0.9,0.9-1.6,1.9-2.5,2.8s-1.9,1.5-2.5,2.4s-0.7,2.1-1.8,2.5c-0.3,0.1-0.7,0.3-1,0.4l1.1,8
			c0,0,48.8-10.3,61.2-13.5c0.1,0,0.3,0.1,0.4,0.1c0.4,0.1,1,0,1.4,0.3c0.5,0.3,0.9,0.6,1.3,0.9c0.4,0.2,0.9,0.3,1.3,0.4
			c0.7,0.1,1.4,0.3,1.4,1.1c-0.1,0.9,0,1.8,0.3,2.7c0.2,0.4,0.6,0.8,0.9,1.1c0.2,0.3,0.1,0.4,0.5,0.5c0.2,0.1,0.5,0,0.7,0
			c0.5-0.1,1,0.1,1.4,0.4c0.5,0.3,0.6,0.9,1.1,1.2c0.8,0.3,2.2,0.2,2.5,1c0.2,0.4,0.2,0.8,0.3,1.1c0,0.1,0.1,0.1,0.1,0.2
			c0.3,0.4,0.4,0.4,0.8,0.4c0.8,0,1.7,0.1,2.4,0.4c0.4,0.1,0.8,0.2,1.2,0.3c0.4,0.2,0.9,0.4,1.3,0.6c0.9,0.2,1.8,0.5,2.6,0.8
			c1.5,0.5,2.8,0.5,3.5,2.2c0.5,1.1,1,1.9,0.6,3c-0.3,0.5-0.4,1.2-0.3,1.8c0.2,0.5,0.6,0.8,0.8,1.3c0.2,0.7-0.3,1.1-0.3,1.8
			c0.2,0.1,0.4,0.2,0.5,0.4c0.1-0.8,0.1-2.8,1.4-2.6c0.1,0.5,0.1,1.8,0.8,1.4s0.1-1.3,0.5-1.8s1-0.3,1.5-0.5s1.1-0.6,1.6-0.9
			c0.6-0.2,1.1-0.4,1.6-0.6c0.8-0.6,1.7-1.2,2.6-1.6c0.8-0.4,1.6-0.9,2.3-1.5c1.5-1.1,3.5-0.6,5-1.6c0.7-0.5,1.5-0.9,2.3-1.2
			c1-0.2,1.8-0.7,2.6-1.3c0.9-0.9,1.3-2.2,2.2-3.1s2.3-1.5,2.8-2.9c-1.1,0-2.2,0.5-3,1.4C982.2,507.1,981.5,508,980.4,508.3z"/>
		<path class="st2" d="M820.1,736.9c-0.8-0.6-1.1-1.5-0.8-2.4c0-0.4,0.2-1.1,0.2-1.3c-0.2-0.6-0.6-0.9-0.6-1.5
			c-0.2-0.9-0.2-1.1-0.4-1.9c-0.4-0.8-0.7-1.6-0.9-2.4c-0.1-0.9,0.1-1.7,0.6-2.4c0.4-0.8,0.6-1.7,0.6-2.6c0-0.9,0-1.9-0.2-2.8
			c-0.3-0.8-0.4-1.6-0.4-2.4c0.2-1.3,1.7-3.9,0.6-5.2c-0.6-0.4-1.1-0.2-1.3-0.9c0-0.4,0.4-0.9,0.2-1.3c-0.2-1.1-0.9-0.8-1.7-0.9
			c-1.5-0.4-2.1-2.2-1.7-3.6l-10.6-41.7c-13.6,1.5-28.1,2.7-40.6,3.7v0.1c0,0.8-0.2,1.5-0.2,2.2c0.1,1,0.1,2,0,3
			c-0.2,0.9-0.3,1.7-0.4,2.6c0,3.4,0.4,6.8,0.4,10.3v5.4c0,1.5-0.4,3-0.4,4.7c-0.1,3.5-0.1,7,0.2,10.5c0.2,2.1,0,4.1,0,6
			c0,2.2,0.2,4.3,0.2,6.4c0,3.9,0.4,7.7,0.4,11.6c0,1.9,0.4,3.8,0.4,5.6v5.6c0,1.1,0.2,2.2-0.6,3c-0.8,0.9-0.8,1.1-0.6,2.1
			c0.1,0.5,0.2,1,0.2,1.5c0.8,0.6,0.4,1.9-0.2,2.4c-0.2,0.4-0.4,0.4-0.4,0.8c0,0.9,0,1.9,0.2,2.8c0.1,1,0,2-0.1,3h0.1
			c1.8,0.6,1.4,2.5,3.9,2.1c0.4-0.7,0.4-2,1.2-2.3c1-0.4,1.5,0.7,2.2,0.9c-0.1-1.5,1.4-2.6,1.8-4c0.3-1,0.2-4.1,1.9-3.6
			c-0.9,2.4,0.5,2,1.7,3.6c1,1.3-0.2,3-0.4,4.4c0.9,0.2,2.8-0.5,3.7-0.7c0.5-0.1,1-0.6,1.5-0.4s0.3,1,0.7,1.2c0.1,0,0.2,0.1,0.4,0.1
			c0.1-1,0-1.9-0.1-2.9c-0.2-1.7-1.3-2-1.8-3.4c-0.3-0.8,0.2-1.7,0-2.5s-0.9-1.1-1.3-1.6c-0.8-1-1.6-2.1-1.3-3.5
			c1.8,1.2,6.7-0.3,8.8-0.5l35.7-3.9c-0.1-0.4-0.1-0.7-0.2-1.1C820.8,737.6,820.7,737.6,820.1,736.9z"/>
		<path class="st2" d="M628.4,447.8c-0.2-0.5-0.4-1-0.5-1.5c-0.2-0.4-0.3-0.9-0.1-1.4c0-0.5,0-1.1-0.1-1.6c-0.1-0.6-0.6-1-0.9-1.6
			c-0.3-1-0.3-2,0-3c0.1-0.6,0.5-1,0.5-1.6s-0.2-0.9-0.2-1.4c-0.1-0.9,0.2-1.6,0.1-2.5c-0.4-1.3-1.1-2.2-0.6-3.8
			c0.2-0.5,0.4-1.1,0.6-1.8c0.2-0.5,0.4-1.1,0.5-1.6c0-0.6-0.2-1.2-0.5-1.8c-0.1-0.3-0.3-0.6-0.5-0.9c-0.2-0.2-0.2-0.5-0.5-0.8
			c-0.4-0.4-0.8-1-1.1-1.5c-0.1-0.6,0.1-1.2-0.1-1.8s-1-1.1-1.2-1.8c-0.1-0.6-0.2-1.2-0.2-1.8c-0.2-1.3-0.3-2.7-0.1-4
			c0.2-1.1,0.2-2.2,0.1-3.4c-0.1-0.4-0.3-0.9-0.5-1.2c0-0.1-0.1-0.1-0.2-0.2c-0.1-0.2-0.2-0.4-0.4-0.6c-0.1-0.4-0.4-2,0-2.2
			c0-0.8,0.1-1.4,0.1-2c0.4-0.5,0.4-1.5,0.6-2.1c0.2-0.6,0.1-1.2-0.2-1.8c-0.2-0.5-0.4-1.1-0.6-1.6s-0.4-0.8-0.5-1.1v-1
			c0-0.6-0.2-1.2-0.4-1.8c-31.3,0-61.3-1.2-89.7-3.2l-4.2,60.3c13.6,0.9,78.6,4.8,102.9,4.1c0.3-1.1,0.2-2.2-0.3-3.2L628.4,447.8z"
			/>
		<path class="st2" d="M289.6,350.7c0.4,0.5,0.6,0.7,0.2,1.2s-0.6,0.8-0.1,1.3c0.8,0.9,2.2,1.2,3.2,1.5c0.1,0.3,0.7,0.7,0.7,1
			s-0.6,0.8-0.7,1.2s0.3,0.5,0.5,0.9s-0.1,1-0.1,1.5c-1.1-0.1-2-0.8-3.2-0.6c-1.1,0.2-2.1,0.9-2.8,1.8c-0.4,0.7-0.5,2.3,0.2,2.9
			c1,0.7,1.5-0.5,1.7-1.2c0.1-0.3,0.3-1.1,0.7-1.1s0.5,0.3,0.5,0.7c0,0.5-0.2,0.9-0.6,1.3c-0.2,0.3-0.9,0.7-0.9,1.1
			c-0.2,0.7,1.5,0.9,1.9,1.4s0.8,2-0.3,1.9c-0.8-0.1-1.3-1.1-1.8-1.6c-0.6-0.7-1.2-1.5-2.2-1.5c0,0.3,0.7,0.9,0.9,1.2
			c0.3,0.5,0.7,0.9,1.1,1.4c0.8,0.9,1.2,2.1,0.9,3.2c-0.4,0-1.2-0.8-1.4-1.1c-0.5-0.6-0.5-1.5-0.8-2.2c-0.3,0.5-0.3,0.8-0.8,0.2
			c-0.3-0.4-0.6-1-1.3-0.9c-1.4,0.2-0.3,2.4-1.4,2.6c-0.5,0-0.5-0.8-0.4-1.1c0-0.6,0.1-0.9-0.4-1.4c-0.9-0.8-2-0.8-3.1-1
			c-1-0.2-2-0.6-2.9-1.1c-1-0.4-2.1-0.8-3.1-1.1c-1.1-0.5-2.1-1.2-2.9-2.1c-1-0.8-1.9-1.7-2.9-2.5c-1.3-1.1-2.1-2.7-3.4-3.8
			c-0.8-0.7-2.7-1.2-3.1,0.3c-0.2,0.9,0,1.9-0.3,2.8c-0.3,0.8-0.6,1.7-0.8,2.5c-0.3,1.3-0.5,2.6-0.4,4c0.2,1.2,0.6,2.4,1,3.6
			c0.6,2.2,0.2,4.9,0.5,7.2c0.3,2,0.4,4,0.2,6.1c-0.1,1.3-0.1,2.7-0.2,4c0.1,1,0,2-0.2,3c-0.3,0.7-0.9,1.2-1.3,1.9s-0.4,1.6-0.9,2.1
			c0.3,1.3,0.2,2,1.1,3s1.3,0.8,2.5,1s1.4,0.9,2.1,1.8c0.4,0.4,0.8,0.7,1.3,1l0,0c0.5,0.1,0.9,0.2,1.3,0.5c0.2,0.1,0.4,0.2,0.6,0.2
			c0.3,0.2,0.4,0.5,0.8,0.6l0.8,0.4c0.3,0.1,0.6,0.6,0.9,0.6c0.8,0.2,0.9-1.1,1.4-1.5c0.8-0.5,1.5,0.5,1.9,1.1
			c0.4,0.4,0.5,1,0.4,1.5c-0.1,0.5-0.5,0.8-0.5,1.2s0.6,0.9,0.9,1.5c0.4,1,0.1,1.1-0.5,1.9c-0.5,0.5-0.6,1.1-0.5,1.8
			c0.1,0.8,0.8,1.1,1,1.9c0.2,0.4,0.2,0.8,0.2,1.2c0,0.2-0.1,0.5-0.1,0.9s0.1,0.5,0.6,0.8c0.6,0.1,1.2,0.1,1.8,0.1
			c0.9,0,1.1,0.4,1.8,1c1,1,2,0.4,3.1,0.4c0.5,0,1,0.1,1.5,0.3c0.9,0.1,1.9-0.3,2.9-0.1c0.9,0.4,1.9,0.6,2.9,0.7
			c1,0,1.9-0.3,2.9,0.2s1.1,1.1,2.5,1.3c0.8,0.2,1.6,0.4,2.4,0.7c0.4,0.1,0.8,0.1,1.2,0c1-0.1,2.1-0.1,3.1,0c1,0.2,1.9,0.9,3,0.8
			c0.5-0.1,0.7-0.5,1.2-0.5c0.3,0,0.6,0.5,1.1,0.5s0.8-0.4,1.2-0.6c0.4-0.3,0.8-0.5,1.3-0.6c0.8-0.2,2.2-0.8,2.9-0.8
			s0.9,0.5,1.5,0.7c0.4,0.2,1,0,1.3,0.2s0.5,0.7,0.8,0.8c0.5,0.1,1.1,0.2,1.6,0.3c0.9,0.3,1.9,0.5,2.9,0.5c1.3-0.1,3.9-1.9,5-0.6
			l26.6,5.4V424l10.7-57.3c-45.9-9.3-73-17.5-73-17.5C288.9,349.8,289.2,350.1,289.6,350.7z"/>
		<path class="st2" d="M520.3,548.7c-23.3-1.6-52.3-5.1-73.5-8l-10,79.9c32,3.8,64.1,6.5,93.5,8.2c5.1,0.3,10.1,0.6,15,0.8l2.8-59.5
			l1-20.9C542,549.8,531.8,549.5,520.3,548.7z"/>
		<path class="st2" d="M763.7,741.2v-5.6c0-1.9-0.4-3.7-0.4-5.6c0-3.9-0.4-7.7-0.4-11.6c0-2.1-0.2-4.1-0.2-6.4c0-1.9,0.2-3.9,0-6
			c-0.3-3.5-0.3-7-0.2-10.5c0-1.7,0.4-3.2,0.4-4.7v-5.4c0-3.6-0.4-6.9-0.4-10.3c0-0.9,0.2-1.8,0.4-2.6c0.1-1,0.1-2,0-3
			c0-0.8,0.2-1.5,0.2-2.2V667c-16.7,1.3-30,2.2-33.5,2.4c-1,1.5-1.7,3.2-2,5.1c-0.2,0.9,0.1,2-0.8,2.5c-0.1,0-0.6-0.2-1,0.1
			c-0.3,0.4-0.5,0.9-0.6,1.4c-0.2,1-0.3,4.7-1.8,4.6c-0.2-1.1-1.8,0-2,0.6c-1.5,0,0.1,3.3-1.1,4.2c-0.8,0.6-1.3,0.1-1.6,1.4
			c-0.1,1-0.1,2,0,3c-0.1,0.9-0.4,1.7-1,2.4c-0.8,0.9-1,0.7-1.3,2s-2.2,3.5-0.8,4.7c0.8-0.7,2-3.3,2.9-1.8c0.9,1.7-1.8,2.9-1.7,4.4
			c1.5,1.1,2.9,0.1,1.7,2.5c-0.4,0.7-0.6,1.5-0.5,2.2c0,0.1,0.1,0.3,0.1,0.6l0,0c0.1,0.5,0.3,0.9,0.5,1.3c0.5,0.4,1.5-0.6,1.6,0.5
			c0.1,0.6-1.2,1.4-1.4,1.9c-0.2,1.3-0.1,2.7,0.3,3.9c0.8,1.3,2-0.3,2.9,0.3s-0.5,2.4-0.7,2.9c-0.3,0.5-0.4,1-0.4,1.5
			c0.1,0.7,0.5,0.6,0.7,1.1c0.3,0.9,0,1.8-0.6,2.5c-0.3,0.4-0.8,0.6-1,1c-0.3,0.7,0,0.9,0,1.5c0,1.3-0.5,1-1.5,1.6s-0.5,1.7-1.3,2.3
			s-1.7,0.2-1.8,1.4c0,0.3,0,0.7,0,1c1.3-0.2,1.1,0.5,0.5,1s-2,0.9-1.9,2c0.1,0.9,1.4,0.6,0.7,1.5s-1.9,0.5-1.2,2
			c0.4,0.9,1.3,0.9,0.3,1.9c-1.3,1.3-2,1.2-1.5,3c0.3,1.3,0.5,2.7,0.5,4c1.1,0.1,2.2,0,3.2-0.2l11-0.7l8.6-0.6
			c1.8-0.1,4.4-0.8,6.1-0.4c1.9,0.4,0.5,2.7-0.1,4c-0.5,0.8-0.6,1.7-0.5,2.7c0.2,0.7,0.8,1.1,1.1,1.8s0.2,1.1,1,1.7
			c0.6,0.5,1.4,0.8,2,1.3c0.8,0.7,1.2,1.7,1.4,2.7c0,0.4-0.1,1.2,0.1,1.5s1,0.4,1.4,0.5c0.8,0.4,1.5,0.9,2.1,1.6c0-0.2,0-0.4,0-0.6
			c-0.1-0.9-1.2-1.5-1-2.4c0.2-1.1,2.9-2.3,3.9-2.6c1.5-0.5,3.1-0.3,4.5-1.1c0.3-0.1,0.5-0.3,0.8-0.5v-0.1h0.2v0.2
			c0.6,0.4,0.9,1.1,1.7,1.3c1.3,0.4,1.7-0.9,1.7-2.1c0-0.3,0-0.6,0-0.9c0.2-1,0.2-2,0.1-3c-0.1-0.9-0.2-1.9-0.2-2.8
			c0-0.4,0.2-0.4,0.4-0.8c0.6-0.6,0.9-1.9,0.2-2.4c0-0.5,0-1-0.2-1.5c-0.2-0.9-0.2-1.1,0.6-2.1C763.8,743.4,763.7,742.3,763.7,741.2
			z"/>
		<path class="st2" d="M758.6,758.3l0.2-0.1h-0.2V758.3z"/>
		<path class="st2" d="M358.3,624.8v-1.4c0,0.3-0.1,0.7-0.2,1c0,0.4,0.1,0.8-0.4,1.1s-1.3,0-2,0.6s-0.6,1.2-1.5,0.2
			c-0.7-0.8-0.6-1.2-1.8-1.2c-0.9,0-1.7-0.3-2.4-0.8c-0.6-0.3-1.5-0.5-1.9,0.3c-0.7,1.5,0.9,3.3,0.3,5c-0.2,0.6-0.8,1.1-1.1,1.7
			c-0.5,0.9,0,1.5-0.1,2.4c-0.1,0.8-2.1,3.5-0.6,4c0.3,1,0.2,2-0.3,2.9c-0.2,0.4-0.6,0.6-0.6,1s0.3,0.8,0.3,1.3s-0.3,0.8-0.3,1.3
			c0.1,0.4,0.2,0.9,0.3,1.3c0,0.3,0,0.5,0,0.8c-0.1,0.6-0.2,1.1-0.1,1.7c0.1,0.7,0.1,1.5-0.1,2.2c-0.1,0.5,0.3,0.9,0.5,1.4
			c0.1,0.3,0.1,0.7,0,1c-0.1,0.4,0,0.8-0.3,1.2s-0.5,0.5-0.3,1c0.1,0.8,0.7,1.4,1.4,1.6c0.6,0.1,0.9,1.1,1.2,1.6s0.6,0.9,0.9,1.3
			l0,0c0,0,0,0.1,0.1,0.1c0.1,0.1,0.1,0.2,0.2,0.3c-0.1,0-0.1-0.1-0.2-0.2v0.1c0.2,0.2,0.4,0.3,0.6,0.5s0,1.1,0,1.5
			c0,0.7-0.4,0.7-0.6,1.1c-0.1,0.2,0.1,0.3-0.2,0.4h-0.3c-0.2,0-0.5,0.1-0.7,0.2c-0.5,0.2-0.7,0.5-1.2,0.6c-0.9,0.1-1.8,0.4-2.5,0.9
			c-0.9,0.7-0.2,1.8-0.8,2.5c-0.2,0.2-0.4,0.4-0.7,0.6c-0.4,0.2-0.8,0.1-0.8,0.5s0.4,0.5,0.6,0.7c0.1,0.2,0.2,0.4,0.2,0.7
			c0,0.4-0.3,0.7-0.4,1c-0.3,0.8,0.2,1.3,0.3,2.2c0.1,0.7-0.3,1-0.7,1.5s-1.3,0.4-1.8,0.8s-0.1,1.2-0.3,1.8c-0.3,0.6-1,1-1.7,0.9
			c-0.6,0-1.1,0.9-1.5,1.4c-0.2,0.3-0.2,0.7,0,0.9c0.1,0.3,0.1,0.6,0.2,0.9c0.2,0.6,0.3,1.6,0.8,2.1c0.2,0.2,0.6,0.2,0.9,0.4
			s0.4,0.3,0.6,0.5s0.2,0.2,0.3,0.2v0.1c0.2,0.1,0.7,0.3,0.8,0.2c-0.3,0.3-0.7,0.6-0.7,0.9c0,0.7-0.1,1.4-0.3,2.1
			c-0.5,0.7-1.6,0.4-2.2,0.5c-0.3,0-0.6,0.2-0.8,0.4h0.3l-2.7,5.2v0.2l57.4,32.3v0.1l31.5,3.8l13.8-109.5
			c-25.6-3.1-51.5-7-75.8-11.8L358.3,624.8z"/>
		<path class="st2" d="M953.2,569.4c-0.3,0.4-0.4,0.9-0.5,1.4c0,0.5,0,1-0.8,0.9c0-0.2-0.2-0.2-0.2-0.3c-0.4,0.1-0.4,0.6-0.5,0.9
			c-0.1,0.3-0.2,0.6-0.4,0.8c-0.3,0.3-0.5,0.6-0.7,0.9c-0.2,0.3-0.2,0.7-0.7,0.6c-0.2-0.5,0.1-1.1-0.4-1.4c-0.8-0.4-1.2,0.7-1.2,1.2
			c0,0.7,0.3,1,0.8,1.4c0.4,0.3,0.7,0.9,1.1,1.1c0.4-0.5,0.2-1.4,0.7-1.8c0.6-0.6,1,0,1.1,0.6c0.2,1.3-1.1,1.7-1.8,2.6
			c-1.1,1.3-0.1,2.2-0.6,3.6c-0.4,1.1-1.2,2-2.3,2.4c-2,0.7,0.7,1.9,0.4,3c-1.1-0.7-2,0-1.7,1.2c0.1,0.6,0.6,1.1,0.7,1.7
			c0,0.6-0.1,1.2-0.4,1.7c-0.3,0.8-0.6,2.5-1.9,2.2s-0.6-2-0.7-2.9c0-1.1-0.9-2.1-1.2-3.1c0.7,0.4,1-0.2,0.7-0.7s-0.8-0.5-0.4-1.1
			s0.8-0.1,0.6-1c-0.1-0.5-0.6-0.9-0.6-1.4c0.1-0.8,0.9-0.2,0.8-1s-1-0.6,0.1-1c0.2-0.1,0.4,0.2,0.6,0s0.1-0.5,0.3-0.7
			s0.5,0,0.8-0.1s0.2-0.5,0.4-0.7s1.5-0.5,1.2-1.1s-1.5,0.1-2,0c-0.1-0.4,0.1-0.7,0.2-1c-0.4,0-1,0.1-1.1,0.5c-0.2,0-0.4,0-0.6,0
			c0-0.4-0.2-0.5-0.3-0.8s0.1-0.7,0.1-0.9c-0.1-0.5-0.7-0.9-1.2-0.8c-0.1-0.7,0.4-1.2,0.2-1.8c-0.3,0-0.7,0-1,0.1
			c-0.2-0.8,0.6-0.7,0.8-1.3c0.1-0.4-0.4-1.3-0.4-1.8c-0.1-0.7,0-0.8-0.9-1.1c-3.1-1-0.4,3.5-3.4,2.4c-1-0.3-1.1-1-1.5-1.9
			c-0.3-0.7-0.2-1.2-0.8-1.8s-1.1-0.5-1.5-1s-0.2-1.6-0.4-2.3c-0.2-1.2-0.7-3.4-2.1-3.8c-2.3-0.6-2.9,2.2-2,3.7
			c1.4,2.6,2.6,5.3,4,7.9c0.7,1.3,1.5,2.7-0.8,3s-1.7-2.4-3.3-3c-1-0.3-1.3,0.7-2.1,0.9c-1,0.2-0.8-0.2-1.6-0.4
			c-1.4-0.4-2.8,0.6-4.2-0.2c-0.1,0.5-0.1,1.1,0.2,1.5c-0.3,0-0.6,0-0.8,0c-0.4,0-0.7-0.1-1-0.3l-0.1-0.1l0,0l-0.1-0.1
			c-0.1-0.1-0.1-0.2-0.1-0.3c0-0.1,0-0.2,0-0.2c0.2-0.8,0.7-1.6,1.3-2.2c0,0,0.1-0.1,0.1-0.1l0.3-0.2c0.2-0.1,0.3-0.3,0.3-0.5
			c0-0.1,0-0.2,0-0.3l-0.3-1.4c0-0.1,0-0.3-0.1-0.4s0-0.2,0-0.2l0,0c0-0.1,0-0.2,0-0.4v-0.1c0,0,0-0.1,0-0.1s0-0.1,0-0.1
			c0-0.1,0.1-0.2,0.1-0.3c0.2-0.3,0.4-0.5,0.3-0.8c0-0.1-0.1-0.3-0.1-0.4c-0.1-0.1-0.2-0.3-0.3-0.4l0,0c0-0.1-0.1-0.1-0.2-0.2
			l-0.1-0.1c-0.2-0.1-0.3-0.3-0.5-0.4c-0.1-0.1-0.2-0.1-0.3-0.2c-0.5-0.1-0.9-0.3-1.4-0.6c-0.8-0.6-1.7-1.8-2.7-1.9
			c-0.2,0-0.5,0-0.8,0h-0.1h-0.1l0,0l-0.1,0l0,0l-0.3-0.2l-0.1-0.1l-0.2-0.2l0,0l-0.1-0.1l0,0c-0.1-0.1-0.2-0.3-0.2-0.5
			c0-0.1-0.1-0.2-0.1-0.4v-0.2c0-0.1,0-0.2,0-0.3l0,0c0-0.1-0.1-0.3-0.1-0.4c0,0,0-0.1,0-0.1c0-0.1-0.1-0.1-0.1-0.2l0,0
			c0-0.1-0.1-0.1-0.1-0.2l0,0c-0.1-0.1-0.1-0.2-0.2-0.3l-0.1-0.1l0,0c-0.1-0.1-0.2-0.2-0.4-0.2l0,0l-0.3-0.1
			c-0.5-0.1-1.1-0.1-1.6,0.1H910h-0.1h-0.2c0,0-0.1,0-0.1-0.1l0,0h0c-0.1-0.2-0.2-0.4-0.3-0.6c0,0-0.1-0.1-0.1-0.1
			c0-0.1-0.1-0.1-0.2-0.2l-0.3-0.3l-0.1-0.1c-0.2-0.2-0.4-0.3-0.6-0.4c-0.2-0.1-0.3-0.1-0.5-0.2l0,0c-0.5-0.1-1.1-0.2-1.6-0.4
			l-0.1,0l0,0l0,0c-0.4-0.3-0.9-0.6-1.3-0.9c-0.5-0.2-1.1-0.3-1.6-0.3c-0.6,0-1.2,0.1-1.7,0.2c-0.3,0.1-0.5,0.2-0.7,0.3
			c-0.1,0-0.2,0-0.2,0c-0.1,0-0.2,0-0.3,0h-0.3H899h-0.2l-0.5,0l-0.8-0.1h-0.2h-0.3h-0.2h-0.2c-1.6-0.1-3.2,0.4-4.5,1.3
			c-0.7,0.4-1.3,0.8-1.9,1.3c-0.6,0.6-0.6,1.2-1,2c-0.8,1.4-2.4-0.1-3.3,1.5c-0.4,0.6-0.2,1.5-0.5,2.1c-0.3,0.6-0.7,1.1-1.3,1.5
			c0,0.3-0.5,0.4-0.7,0.5c-0.1-0.9-0.2-1.8-0.4-2.6c-0.2-1.1-0.3-2.2-0.4-3.5s-0.2-2.2-0.3-3.3c-0.1-0.5-0.1-1-0.2-1.6l51-9.2
			l3.8-0.7l4.3,19.5l9.8-3C951.7,564.1,954.3,567,953.2,569.4z"/>
		<path class="st2" d="M899.6,556.4L899.6,556.4z"/>
		<path class="st2" d="M907.8,557.7c-0.2-0.1-0.3-0.1-0.5-0.2l0,0C907.5,557.5,907.6,557.6,907.8,557.7z"/>
		<path class="st2" d="M909.5,559.5c0,0-0.1,0-0.1-0.1C909.4,559.5,909.4,559.5,909.5,559.5z"/>
		<path class="st2" d="M909.7,559.5L909.7,559.5z"/>
		<path class="st2" d="M911.8,559.5c-0.1,0-0.2-0.1-0.3-0.1c-0.5-0.1-1.1-0.1-1.6,0.1h-0.1h0.1c0.5-0.2,1.1-0.2,1.6-0.1L911.8,559.5
			z"/>
		<path class="st2" d="M912.2,559.7c-0.1-0.1-0.2-0.2-0.4-0.2C911.9,559.5,912.1,559.6,912.2,559.7z"/>
		<path class="st2" d="M912.5,560.1c-0.1-0.1-0.1-0.2-0.2-0.3C912.4,559.9,912.4,560,912.5,560.1z"/>
		<path class="st2" d="M913.2,562.4c-0.1-0.1-0.2-0.3-0.2-0.5C913,562.1,913.1,562.3,913.2,562.4z"/>
		<path class="st2" d="M913.3,562.5l-0.1-0.1L913.3,562.5z"/>
		<path class="st2" d="M914,563.1c-0.1-0.1-0.3-0.3-0.4-0.4l-0.2-0.2l0.2,0.2l0.1,0.1L914,563.1z"/>
		<path class="st2" d="M918.6,575.2c-0.1-0.1-0.1-0.2-0.1-0.3c0-0.1,0-0.2,0-0.3c0,0.1,0,0.2,0,0.2
			C918.5,575,918.5,575.1,918.6,575.2z"/>
		<path class="st2" d="M919.4,566c-0.1-0.1-0.2-0.1-0.3-0.2c-0.5-0.1-1-0.3-1.4-0.6c-0.7-0.6-1.7-1.8-2.7-1.9
			c-0.2,0.1-0.5,0.1-0.8,0h-0.1h0.1c0.2,0,0.5,0,0.8,0c1,0.1,2,1.3,2.7,1.9c0.5,0.2,0.9,0.4,1.4,0.6
			C919.2,565.9,919.3,565.9,919.4,566z"/>
		<path class="st2" d="M920.6,567.3c0-0.1-0.1-0.3-0.1-0.4c-0.1-0.1-0.2-0.3-0.3-0.4c0.1,0.1,0.2,0.2,0.3,0.4
			C920.5,567.1,920.5,567.2,920.6,567.3z"/>
		<path class="st2" d="M920.5,571.5c0-0.1,0-0.2,0-0.3l-0.3-1.4c0-0.1,0-0.2-0.1-0.4c0,0.1,0,0.2,0.1,0.4l0.3,1.4
			C920.5,571.3,920.5,571.4,920.5,571.5z"/>
		<path class="st2" d="M920.6,575.8c-0.3-0.1-0.6-0.1-0.8-0.1c-0.4,0-0.7-0.1-1-0.3c0.3,0.2,0.6,0.3,1,0.3
			C920.1,575.7,920.3,575.7,920.6,575.8L920.6,575.8z"/>
		<path class="st2" d="M989.3,457.7c-0.2-0.6-0.2-1.9-0.9-2.4s-1.2-0.5-1.8-1c-0.2-0.4-0.5-0.8-0.6-1c-0.1-0.4-0.1-0.7-0.1-1.1
			c0-0.4-0.2-0.6-0.4-1s-0.3-0.8-0.4-1.1l-7.8-27.9c-0.4,0.3-0.8,0.8-1.4,0.7c-0.4,0-0.5-0.3-0.9-0.1s-0.3,0.7-0.7,0.9
			c-0.7,0.4-1.1-0.3-1.5,0.7s0,2.4-0.5,3.4c-0.4,0.8-1.1,1.4-1.9,1.8c0,0.2,0,0.5,0,0.8c0.2,0.7,0.8,1,0.9,1.7c0.1,0.3,0.1,0.7,0,1
			c-0.2,0.3-0.4,0.6-0.5,0.9c-0.2,0.6-0.2,1.3,0,1.9c0.1,0.3,0.2,0.6,0.3,0.9v1c0,2.1-1.3,4.1-2.6,5.7c-0.5,0.6-1.3,0.6-1.7,1.3
			c-0.5,0.8,0,1.8,0.2,2.6s0.5,1.3,0.7,2.1c0.3,1.4-0.4,2.9-0.7,4.2c-0.2,0.8,0.4,1.3,0.5,2.1c0,0.9,0,1.7-0.3,2.5
			c-0.1,0.7-0.6,1.4-0.4,2s1,0.9,0.9,1.8c0,0.7-0.6,1.3-0.5,2.1s0.6,1.5,0.7,2.4c0.2,1.7-0.9,2.9-0.6,4.5c0.3,1.5,1.5,2.8,1.7,4.2
			c0.1,0.5,0.1,1,0,1.6c6.2-1.4,12.9-2.9,15.5-3.8c0.7-0.1,1.3-0.4,1.7-1c0.8-0.8,1.7-1.7,2.5-2.5c0.7-0.9,1.5-1.7,2.2-2.4
			c0.6-0.4,1.5-1.1,2.3-1.7l0,0c0.1-0.4,0.2-0.9,0.3-1.4c0.1-1,0.1-2,0.1-3.1c0-0.1,0-0.1,0-0.2l0,0c-0.9-0.6-2.3-0.5-3-1.1
			S989.4,458.7,989.3,457.7z"/>
		<path class="st2" d="M957.8,492.2c0,0.2-0.1,0.3-0.1,0.2l4.6,19.5c0.4-0.3,0.8-0.6,1.3-0.6c0.7-0.1,1.3-0.4,1.8-0.8
			c0.5-0.5,0.4-1.4,1-1.9s1.4-0.4,2-0.9s0.8-1.1,1.6-1.3c1.5-0.3,2.6-1.4,4-1.8c1.3-0.4,2.6-0.8,3.9-1c0.5-0.1,0.9,0.1,1.4-0.2
			s0.6-0.7,0.9-1s0.7-0.3,1-0.5s0.4-0.4,0.7-0.6c1-0.8,3-1.4,4.1-0.5c0.3,0.3,0.6,0.6,0.9,0.8l-3.9-15.2
			C974.4,488.3,960.6,491.6,957.8,492.2z"/>
		<path class="st2" d="M829.4,492.9c-0.7-1.1-1.4-1.7-1.4-3.1s0.2-2.4-0.4-3.6s-1.6-1.8-2-3s-0.2-2.5-0.8-3.6
			c-0.6-0.9-1.4-1.6-2.4-2c-1.4-0.5-2,0.6-3,1.2s-2.2,0.4-3.3,0.4c-0.4,0.7,0.1,1.5-0.6,2c-0.2,0.2-0.6,0.1-0.8,0.4
			c-0.2,0.3-0.4,0.6-0.5,0.9c-0.4,1.1-1,3.9-2.1,4.5c-1.6,0.8-3.1-1.4-3.8-2.5c-1.1-1.7-0.4-2.8,0.9-4c1.1-1.2,1.9-2.6,2.3-4.2
			c0.5-1.3,1.8-2.1,2.3-3.4c0.7-1.8-0.4-4.2-0.7-6c-0.3-1.6,0.1-3.4-0.6-4.9c-0.2-0.5-3-3.8-2.8-4.1c0.3-0.4,2.3,1.3,2.9,0.5
			c0.7-1-2.5-3.7-3.1-4.3c-1.3-1.4-2.9-2.5-4.7-3.1c-1.6-0.4-3.1-0.2-4.6-0.9s-2.6-1.3-4.2-0.7s-2.1,0.1-3.2-1.3s-2.4-2.1-3.9-0.6
			c-0.9,0.9-2.1,2.5-1.5,3.8c0.4,0.9,2.7,2.5,2.3,3.5s-3.4,0.7-4.3,1.3c-1.4,0.9-0.8,2.6-0.6,4c0.1,1.5,0.1,3-0.1,4.5
			c0.1,1.2,0,2.4-0.3,3.6c-0.3-0.6-0.5-1.2-0.8-1.7s-0.7-1.8-1.4-0.9c-0.5,0.6-0.5,2.9-1.2,3.2s-0.2-2.1-0.1-2.4
			c0.3-0.9,0.6-1.8,1-2.6c0.3-0.9,0.4-5.2-0.9-5c-0.8,0.1-1.3,1.6-1.5,2.2c-0.3,0.9-0.1,2.1-0.6,3s-1.2,0.7-1.9,1.1
			c-0.8,0.5-0.9,1.5-1.1,2.4c-0.5,2-2,3.1-1.8,5.3c0.2,2.2,0,4.4-0.5,6.5c-0.4,1.7-2.2,3.2-1.8,5c0.2,1,0.8,1.8,1,2.8
			c0,0.9-0.2,1.8-0.7,2.5c-0.9,1.7-0.6,3.7,0.8,5.1c-0.1,1.2,0.5,2.4,1.5,3.1c1.3,1,1.4,2,1.8,3.5c0.2,1,0.5,2,1,3
			c0.6,1.1,1.3,1.5,0.9,3c-0.7,2.5-0.2,5.2-0.8,7.8s-1.7,4.8-2,7.4c-0.3,2-1.1,3.8-2.4,5.3c7.2-0.6,23.2-2.1,27.2-2.7v1.5h0.3
			c1.9-0.2,14-1.7,18.8-2.5c-0.1-0.2-0.2-0.3-0.2-0.5c-0.4-2.2,2.6-3.5,2.8-5.5c0.1-1.1-0.5-2.1-0.4-3.2c0.1-0.8,0.5-1.6,1-2.2
			c1.2-1.5,2.5-2.9,3.9-4.2c0.9-1.1,1.5-2.5,1.8-3.9c0.2-0.6,0.4-1.2,0.5-1.9c0-0.6,0.2-1.2,0.5-1.7c0.5-0.4,0.9-0.8,1.2-1.3
			c0.5-1.1,0.4-2.3-0.1-3.3C829.7,495.2,830,494,829.4,492.9z"/>
		<path class="st2" d="M946.6,619.5c-1.3,0.4-2.6,0.8-3.9,1c-1.4,0.3-2.8-0.3-4.1,0.2c-0.8,0.3-2.6,2.5-3.5,1
			c-0.4-0.8,0.8-2.5,0.6-3.5l0.5-0.1c-0.4-0.5-0.4-1.1-0.1-1.6c1.6,0.3,0.9,1.6,1.7,2.4s1.8,0.5,2.8,0.3c4.1-0.6-1-2.2,0.1-3.9
			c0.9,0.2,1.7,0.6,2.5,1.1c0.8,0.6,1.1,1.3,2.3,0.7c0.1-0.7-0.2-3.4,1.1-3.4c0.1,0,1.8,1.9,1.9,1.3c0.3-1.5,3,0.6,4.1,0.4
			c-0.3-0.8-0.9-1.3-1.1-2s0-2.9-1.3-2.8c0,0.8-0.1,1.6-0.3,2.3c-1.6-0.7-1.7-2-1.5-3.5l-0.3-0.1c0-0.2,0-0.5,0-0.7
			c-10.6,1.9-51.7,9.3-94.2,15.4l1.3,8.8c-0.8,0.4-0.4,0.9-0.8,1.5c-0.3,0.4-1.3,0.7-1.8,1c-0.6,0.3-1.1,0.8-1.4,1.3
			c-0.3,0.5-0.6,0.9-1,1.3c-0.4,0.3-0.9,0.6-1.4,0.8c-0.5,0.3-1.2,0.5-1.6,0.1s-0.2-0.9-0.2-1.3s0.7-2.2-0.5-2c-0.9,0.4-1.6,1.1-2,2
			c-0.4,0.9-0.7,1.9-0.9,2.9c-0.2,1.1-1,2-2,2.3c-1,0.2-1.9,0.6-2.7,1.1c-0.5,0.3-0.9,0.7-1.2,1.2c-0.2,0.3-0.2,0.5-0.4,0.7
			c-0.3,0.1-0.5,0.3-0.8,0.5c-0.4,0.3-1,0.5-1.5,0.5c-0.5,0-1,0.1-1.4,0.3c-0.5,0.1-1.1,0.2-1.6,0.2c-0.5,0.1-0.9,0.4-1.3,0.7
			c-0.9,0.7-1.7,1.7-2.2,2.7c-0.4,0.9-0.9,1.7-1.6,2.4c-0.8,0.8-1.9,0.8-2.2,2.1c-0.2,0.5,0.1,0.8,0.1,1.4s-0.4,0.8-0.7,1.2
			s-0.2,1.4-0.2,1.9s0,0.7,0,1c7.8-1.1,14.6-2.2,19.8-3.4c0.3-0.3,0.6-0.6,0.9-0.8c0.7-0.6,1.5-0.9,2.4-1.1c0.4,0,0.9,0,1.3-0.2
			c0.4,0,0.8-0.4,1.1-0.6c0.9-0.4,1.7,0.2,2.6-0.4c0.8-0.4,1.3-1.3,2.2-1.5c0.9-0.2,1.7-0.2,2.6-0.2c0.9,0,1.8-0.3,2.4-0.9l14.2-0.9
			c0.4,0.8,0.2,1.9,0.9,2.1c0.6,0,1.1-0.2,1.7-0.2l3,3.9l17.2-2.8v-0.4L918,668l0,0c1.2-1.2,2.7-2.1,4.3-2.7c0.9-0.3,1.6-1,2-1.8
			c0.4-0.8,0.1-1.9,1.3-2.1c0.2,1.5-0.3,3-0.1,4.5c1-1.3,1.9-2.7,2.7-4.2c1.4-2.9,2.3-6.1,4.5-8.5c1-0.9,2.1-1.8,3.2-2.5
			c0.7-0.5,1.9-0.9,2.8-1.5h0.1c1.5,0.4,3.7-0.4,5.2-0.6c2.2-0.3,3.5-0.5,4.8-2.5c1.1-1.7,3-4,3.1-6.1c0.1-2.3-1.5-2.8-3.4-2.7
			c-1.1,0-3.7,1.3-4.6,0.8c-1.5-1,0.6-1.9,0.9-2.7c0.3-1-0.7-2-1.3-2.7c0.8-0.5,0.3-1.8,1.5-1.9s0.7,1.9,1.9,1.9
			c0-0.5-0.2-1.6,0.3-1.8c0.8-0.4,0.8,1.1,0.7,1.5c3,0.2,3-4,4.8-5.4c1.4-1.1,1.5-1.4,1.5-3.4c0.2-1.3,0-2.6-0.6-3.7
			C952.1,617.8,948.4,618.7,946.6,619.5z"/>
		<path class="st2" d="M797.5,438.6c-0.7-0.3-1.3-0.8-1.7-1.5c-0.3-0.6-0.3-1.4-0.6-2.1c-1.1-2.7-6.4-1.5-8.6-1.4c0,0,0-0.1,0-0.1
			c-0.8-0.1-1.5-0.5-1.9-1.1c-0.5-0.9,0-1.7,0-2.6c0-1.7-2.1-1.6-3.3-1.3c-1.5,0.3-2.4,1.4-4,1.4c-1.4,0.1-3-0.4-4.4-0.1
			c-1.6,0.2-2.2,1.9-3.5,2.7c-0.7,0.2-1.1,0.8-1.7,1.1c-0.7,0.2-1.4,0.7-2,1.2c-0.5,0.6-1.2,1-2,1.1c-0.8,0.2-1.5,0-2,0.7
			c-0.1,0.6-0.4,1.5-1.1,1.4s-0.8-1.5-1.2-2c-1-1.1-3.3,0-3.8-1.6c-0.8,0.2-1.4-0.6-2-1c-0.6-0.5-1.3-0.9-2.1-1.1
			c-0.9-0.1-1.3,0.9-2-0.3c-0.3-0.5,0-0.8-0.7-0.7c-0.5,0.1-0.6,0.6-0.9,0.7c0.2,0.5-1.5,0.6-1.9,0.4v-0.2c0.7-0.2,0.7-0.5,0.3-1
			c-0.2-0.4-0.4-0.8-0.6-1.2c-1-0.9-1.5,1.5-2.4,0.9c0-0.7,0.3-2.9-0.8-3c-0.9-0.1-1.3,1.4-1.9,1.7c-0.3,0.5-0.6,1-1,1.5
			c-0.7,0.8-1.3,0.6-1.5-0.4c-0.3-1.3,0-2.6,0.7-3.7c0.7-0.9,1.6-1.6,2.6-2.1c0.8-0.6,1.4-1.3,1.8-2.2c0.5-1.1,1.2-2.1,2.1-3
			c0.8-0.7,2.1-1.2,2.7-2c1.3-1.7-3.4-0.9-4-0.6c-2,0.8-3.5,2.5-5,3.9c-2,1.8-3.7,4-5.8,5.7c-1.7,1.2-3.3,2.6-4.8,4
			c-1.8,1.8-3.4,1.6-5.7,1.9s-3.5,1.9-5.2,3.1c-1.3,0.8-2.6,1.6-4,2.1h-0.1c0.1,0,0.2,0.1,0.2,0.1c0.5,0.3,0.9,0.6,1.3,0.9
			c0.5,0.6,0.9,1.3,1.2,2c0.7,1.6,1.8,3.4,3.7,3.7l2.3,0.3c0.9,0.1,1.7,0.6,2.6,0.6s1.9,0.3,2.8,0.5c0.4,0.1,0.8,0.1,1.2,0.1
			c0.6,0.1,1.1,0.3,1.7,0.4c2,0.3,4.3,0.8,5.9,2.1c0.5,0.5,1.1,0.8,1.8,0.9c0.8,0,1.4-0.5,2.2-0.5s1.3,0.6,2.1,0.7s1.7-0.4,2.3,0.2
			s0,1.4,0.3,2s1.3,0.3,2.1,0.4c0.7,0.2,1.3,0.5,1.9,0.8c0.7,0.2,1.4-0.1,1.5,0.9c0,0.5-0.5,1.3-0.6,1.9c-0.2,0.8-0.2,1.6-0.3,2.4
			c-0.1,0.4-0.6,1.7-0.2,2s1.3-0.5,2-0.2s1,1.2,1.6,1.6c0.5,0.3,1.1,0.6,1.6,0.8c0.9-1.8,2-3.8,2.1-5.8c0-0.6,0.1-1.3,0.3-1.9
			c0.4-0.7,1.2-1,1.5-1.7s0-3.1,1.7-2.7c0.1,1.7,1.2,1,2.5,0.7c1.5-0.3,1.3-2.2,1.9-3.3c0.3-0.6,1.2-1.1,1.7-0.3s-0.6,1.7-0.8,2.3
			s-0.6,2.1,0,2.5s1.3-0.6,1.7-1c0.5-0.6,1.1-1.1,1.5-1.7c0.4-0.7,0.8-1.4,1.3-2.1c1.2-1.4,2.7-1.6,4.5-1.7c0.9,0,1.7-0.2,2.4-0.7
			c0.5-0.5,1.1-1,1.7-1.4c0.6-0.4,1-1.2,1.6-1.5s1.8,0.1,2.7,0.1c0.8-0.1,1.5,0.1,2.2,0.4c0.8,0.3,1.7,0.4,2.6,0.5
			c0.8,0.1,1.6,0.4,2.3,0.8c0.6,0.5,0.8,1.5,1.7,1.6c2.5,0.4-0.5-3.4,1.6-3.5c0.7,0.4,1.1-0.1,1.6-0.4c0.9-0.5,1.4-0.3,2.4-0.3
			C799.4,441.3,798.8,439.3,797.5,438.6z"/>
		<path class="st2" d="M355.8,430.6c-0.5-0.4-1.1-0.5-1.5-1s0-1-0.1-1.4c-0.3-1.6-1.1-3.1-2.4-4.2v0.1l-26.6-5.4
			c-1.1-1.2-3.7,0.5-5,0.6c-1,0-1.9-0.2-2.9-0.5c-0.5,0-1.1-0.1-1.6-0.3c-0.3-0.1-0.5-0.7-0.8-0.8s-0.9,0-1.3-0.2
			c-0.6-0.2-0.8-0.7-1.5-0.7s-2.1,0.7-2.9,0.8c-0.5,0.1-0.9,0.3-1.3,0.6c-0.5,0.3-0.6,0.6-1.2,0.6s-0.9-0.5-1.1-0.5
			c-0.5,0-0.8,0.4-1.2,0.5c-1.1,0.2-2-0.6-3-0.8c-1-0.1-2.1-0.1-3.1,0c-0.4,0.1-0.8,0.1-1.2,0c-0.8-0.3-1.6-0.5-2.4-0.7
			c-1.4-0.2-1.4-0.7-2.5-1.3s-1.8-0.2-2.9-0.2c-1-0.1-2-0.4-2.9-0.7c-1-0.2-2,0.2-2.9,0.1c-0.5-0.1-1-0.2-1.5-0.3
			c-1.1,0-2.1,0.6-3.1-0.4c-0.6-0.6-0.9-1-1.8-1c-0.6,0-1.2,0-1.8-0.1c-0.5-0.2-0.6-0.2-0.6-0.8s0.1-0.6,0.1-0.9
			c0-0.4-0.1-0.9-0.2-1.2c-0.2-0.8-0.9-1.1-1-1.9c-0.1-0.6,0-1.3,0.5-1.8c0.6-0.8,0.9-0.9,0.5-1.9c-0.2-0.6-0.9-0.9-0.9-1.5
			s0.4-0.8,0.5-1.2c0.1-0.5,0-1.1-0.4-1.5c-0.4-0.6-1.1-1.6-1.9-1.1c-0.5,0.4-0.6,1.8-1.4,1.5c-0.2,0-0.6-0.5-0.9-0.6l-0.8-0.4
			c-0.4-0.1-0.5-0.4-0.8-0.6c-0.2-0.1-0.4-0.2-0.6-0.2c-0.4-0.2-0.8-0.4-1.3-0.5c0.4,0.2,0.7,0.5,0.9,0.9c-1.1,0.1-2.2,0.1-3.3,0
			c-1.1,0-1.7-0.6-2.7-0.8c-1.2-0.1-1.2,1.1-1.5,2s-1.1,1.4-1.5,2.2c-0.9,1.9-1,4.8-1.3,6.9s-1.3,3.6-2.1,5.6s-1.2,4.5-2.2,6.5
			c-1,1.7-1.8,3.4-2.4,5.2c-0.5,1.9-0.6,4.1-1.7,5.8c-1.2,1.8-2,3.8-2.4,5.9c-0.6,1.8-1.5,3.6-2.5,5.2c-0.8,1.5-1.9,2.7-2.6,4.2
			c-0.5,1.5-1.3,3-2.2,4.3c-0.9,1.3-1.7,2.6-2.5,4c-0.8,1.3-2.2,2.5-2.7,3.9c-0.6,1.6,0,3.7-0.1,5.4c-0.1,2-0.7,4-0.5,6
			c0.2,1.6,0.8,3.1,1,4.7c0,0.2,0,0.4,0.1,0.6c8.7,2.8,30,9.4,59.1,16.4c12.9,3.1,27.3,6.3,42.8,9.4l7.9-39.2c0-0.3,0.1-0.6,0.3-0.9
			c0.4-0.6,0.1-0.9,0-1.5s0.1-1,0.1-1.5s0.1-0.8,0.1-1c0.3-0.5,0.4-1.1,0.5-1.8c0-0.5-0.1-1-0.3-1.5c-0.6-1-0.4-2.2,0.4-3
			c-0.2-0.4-0.1-1.4-0.1-1.9s0.4-0.6,0.6-1c0.3-0.3,0.6-0.6,0.8-1c0.3-0.3,0.6-0.5,1-0.8c0.2-0.2,0.6-0.2,0.9-0.5
			c0.3-0.1,0.4-0.4,0.4-0.8c0-1-0.1-1.9,0.6-2.6c0.6-0.7,1.3-1.4,2-2v-0.1c1-0.5,1-1.6,1.1-2.6c0.2-0.8,0.7-1.6,1.2-2.2
			c0.4-0.5,0.5-1,1.1-1.2s1.1-0.4,1.4-0.9c0.1-0.2,0.1-0.3,0.1-0.5c0.2-0.5,0.3-1,0.4-1.5c0-0.5-0.1-0.9-0.2-1.4
			C356.3,431.5,356.3,431,355.8,430.6z"/>
		<path class="st2" d="M648,569.4c-1-1.4-2.9-2-3.5-3.6c-0.6-1.7-1-3.5-1.2-5.2c0-0.1,0-0.1,0-0.2c-0.2-1.3-0.9-2.4-1.9-3.2
			c-1.6-1.3-0.7-1.9-0.9-3.6c-0.1-0.6-0.3-1.3-0.6-1.9c-0.4-1.4,0.5-2.8-0.4-4.2c-0.4-0.6-1.2-1.1-1.3-1.9c0-0.8,0-1.6,0.1-2.3
			c-0.1-1.8-1-2.1-2.2-3.2c0.3-1.1,0.4-2.3,0.2-3.5c0.1-1.1-0.5-2.2-1.5-2.7c-0.2-0.7,0.1-1.3,0-2s-0.4-0.6-0.8-1.1
			c-1-1,0.2-1.7,0-2.8s-1.3-1.6-1.5-2.6c-0.2-0.9-0.3-1.7-0.4-2.6c-0.1-0.7-0.4-1.4-0.8-2c-0.2-0.3-0.3-0.6-0.3-0.9h-0.1
			c-0.6-0.2-1.1-0.2-1.7-0.4c-0.6-0.2-1.1-0.4-1.7-0.7c-0.7-0.3-1.2-0.8-1.6-1.4c-0.3-0.5-0.8-0.8-1.4-0.8c-0.5,0-1,0-1.5,0
			c-1-0.1-2-0.3-2.9-0.8c-0.4-0.3-0.9-0.4-1.4-0.5c-0.5,0-0.9-0.1-1.3-0.1c-1,0-2.1,0.1-3,0.1s-2,0.2-2.9,0.1l-1.5-0.3
			c-0.5-0.1-1-0.2-1.4-0.5c-0.5-0.3-0.7-0.8-1.1-1.1c-0.4-0.3-0.9-0.5-1.4-0.7c-0.5-0.1-1.1-0.3-1.6-0.6c-0.2-0.1-0.4-0.1-0.6-0.1
			c-15.2,0.8-70.5-3.1-80.6-3.8l-2.8,40.3c11.5,0.8,21.7,1.1,28.8,0.6l-1,20.9c14.9,1,73.3,4.6,101.2,2.7c-0.1-0.3-0.2-0.7-0.3-1
			C648.9,571,648.5,570.2,648,569.4z"/>
		<path class="st2" d="M661,632.4c-6.7,0.1-54.1,0.5-115.7-2.7c-4.9-0.3-9.9-0.5-15-0.8l-0.6,10.5l46.2,1.7l-1.2,37.1
			c0.1,0.1,0,0.3,0.2,0.4s0.2,0.1,0.4,0.1c1,0,1.9,0.6,2.2,1.5c0.3,0.7,0.6,0.5,1,1s0.2,1,0.9,1.3s0.9,0,1.6-0.1
			c1.2-0.2,1.7,0.9,2.8,1c1.3,0.1,2.4-0.7,3.7,0.1c1.1,0.7,1.5,2.2,2,3.4c0.2,0.5,0.7,0.8,1.3,0.8c0.7,0.1,1.2,0.2,1.9,0.3
			c0.5,0,1,0.1,1.6,0.2c1,0.3,2.1-0.3,3,0.3c0.4,0,0.7-0.2,1.1-0.1s0.6,0.5,0.9,0.8c0.5,0.5,1.5,1.2,2.1,0.9c0.5,0.2,1-0.1,1.6,0.1
			s0.8,0.5,1.3,0.3s0.7-0.6,1.3-0.3s0.9,1.2,1.3,1.6c0.6,0.7,1.1,2.5,2.1,2.8s2.2-1,2.8-1.6c1.2-1.1,1.5-0.3,2.3,0.6
			c0.4,0.4,0.7,0.8,1.1,1.2c0.6,0.8,2,0.7,2.8,0.5c1.1-0.2,1.6-1.4,2.7-1.6c0.5-0.1,0.9,0.2,1.4,0.3c0.6,0.1,1.2,0.1,1.8,0
			c0.9-0.1,0.8,0.7,1.6,0.7c0.6,0,1.2-0.5,1.7-0.6c1-0.4,2.2-0.3,3.2,0.3c0.9,0.6,2.1,0.8,3.2,0.5c1.2-0.2,2.4-0.3,3.6-0.2
			c1.2,0,2.4-0.1,3.6-0.4c1.8-0.3,3.7-0.8,5.6-1c1.1-0.1,1.7,1.1,2.8,0.8c0.7-0.2,1-0.7,1.6-0.9c0.5-0.2,1.1-0.2,1.7-0.1
			c0.9,0.2,1.8,0.5,2.6,1c0.4,0.2,0.9,0.8,1.3,0.9s0.9-0.3,1.4-0.1c1,0.2,1.2,1.5,2.4,1.5c0.6-0.1,1.1,0,1.6,0.2
			c0.5,0.3,0.9,0.7,1.3,1.2l0.5,0.5l-2-55.6L661,632.4z"/>
		<path class="st2" d="M843,598.5c-1.2-2.3-2.9-4.8-3.4-7.3c-0.7-3.7-1.9-4.4-5.2-5.6c-2.9-1-5.1-0.1-8.1,0c-1.6,0-2.7,0.5-4.3,0.1
			c-1.4-0.4-2.8-1-4.1-1.7c-1.2-0.6-2.5-1.7-3.8-2.1c-0.7-0.2-1.6,0.1-2.4,0s-0.8-0.7-1.7-0.7c-0.7,0.1-1.3,0.3-1.9,0.6
			c-0.6,0.2-1.2,0.7-1.5,1.3c-0.5,1.6,1.5,2.1-0.1,3.8c-1.2,1.3-2.8,0.5-4.2,1.1c-0.7,0.2-0.9,0.9-1.5,1.1s-1.4,0-2.1,0.2
			c-1.7,0.5-1.5,1.2-1.7,3c-0.2,1.5-0.6,3-1,4.5c-2.1,0.8-3,1.1-3.2,3.6c0,0.8,0.2,2.1-0.2,2.8c-1,1.7-1,0.3-2.2,0.4
			c-0.9,0.1-1.3,0.9-2.1,0.8s-1.9-1.3-2.5-1.8c-0.8-0.6-0.9-1.3-2.1-1.1c-0.9,0.2-1.6,1-1.7,2c0.2,0,0.5,0,0.7,0.1
			c0.3,2.2-1.3,4.2-3.5,4.5c-0.3,0-0.5,0-0.8,0c-1.3-0.2-1.8-0.8-3.2-0.2c-0.7,0.3-0.5,0.8-1.5,0.9c-0.7,0.1-1.2-0.3-1.9-0.4
			c-2.2-0.6-4.5-0.8-6.8-0.3c-2.3,0.4-4.2,0.2-4.8,2.9c-0.1,0.4-0.1,0.7-0.1,1.1c0.1,0.6-0.1,1.1-0.4,1.6c-0.5,0.8-1.7,0.7-1.7,1.8
			c0,0.9,0.8,1.7,0.9,2.6c-0.2,2.4-4.7,0-4.7,1.9c0,0.6,0.8,0.9,0.9,1.5c0.2,0.4-0.2,0.9-0.2,1.3c-0.6,1.7-0.9,3-2.8,2.6
			c-1.5-0.2-2.8-0.8-4.3-0.6c-1.7,0.2-2.2,1.5-3.2,2.8c-0.4,0.8-1,1.4-1.7,1.9c0.4,0.9,0.6,2,0.5,3c0.1,1,0.5,4-0.5,4.4
			s-1.8-0.6-2.6,0.5c-0.1,0.1-0.1,0.1-0.1,0.2l-0.1,0.1c0,0.1-0.1,0.1-0.1,0.2c0,0.1-0.1,0.1-0.1,0.2l0,0l-0.1,0.2l-0.2,0.7
			c5.4,0,23.2-0.6,23.2-0.6l0.2-4.9c14.9,0.1,37.1-2,61-5.1c1-1.4,2.4-2.4,4-2.8c1.1-0.2,2-0.7,2.9-1.4c1-0.8,2.4-0.9,3.3-1.8
			s0.8-1.3,2.2-1.5s1.8-0.1,2.7-1c1.3-1.5,1.6-3.9,2.8-5.5c0.6-0.8,1.5-1.5,2.2-2.2c0.5-0.7,1.2-1.2,2-1.5c1-0.5,1.6-2,2.6-2.6
			c-0.3-1.3-1-2.5-1.8-3.5C845.6,602.6,844.2,600.6,843,598.5z"/>
		<path class="st2" d="M921.3,563.6l-1.8,2.4c-0.1-0.1-0.3-0.2-0.4-0.3c-0.5-0.1-0.9-0.3-1.4-0.6c-0.8-0.6-1.7-1.8-2.7-1.9
			c-0.2,0-0.5,0-0.8,0c-0.2-0.1-0.4-0.3-0.5-0.4l1.9-2.7L921.3,563.6z"/>
		<polygon class="st2" points="917.2,556.2 919.3,560.6 924.2,561.3 920.7,564.7 921.5,569.5 917.2,567.2 912.8,569.5 913.6,564.7 
			910.1,561.3 915,560.6 		"/>
		<circle class="st3" cx="651.2" cy="784.8" r="23.2"/>
	</g>
</g>
</svg>
